<svg width="1440" height="1024" viewBox="0 0 1440 1024" fill="none" xmlns="http://www.w3.org/2000/svg">
<g clip-path="url(#clip0_212_518)">
<rect width="1440" height="1024" fill="white"/>
<path d="M339 261H328.227V226.091H339.477C342.864 226.091 345.761 226.79 348.17 228.188C350.58 229.574 352.426 231.568 353.71 234.17C354.994 236.761 355.636 239.864 355.636 243.477C355.636 247.114 354.989 250.244 353.693 252.869C352.398 255.483 350.511 257.494 348.034 258.903C345.557 260.301 342.545 261 339 261ZM332.455 257.25H338.727C341.614 257.25 344.006 256.693 345.903 255.58C347.801 254.466 349.216 252.881 350.148 250.824C351.08 248.767 351.545 246.318 351.545 243.477C351.545 240.659 351.085 238.233 350.165 236.199C349.244 234.153 347.869 232.585 346.04 231.494C344.21 230.392 341.932 229.841 339.205 229.841H332.455V257.25ZM362.182 261V234.818H366.068V238.773H366.341C366.818 237.477 367.682 236.426 368.932 235.619C370.182 234.812 371.591 234.409 373.159 234.409C373.455 234.409 373.824 234.415 374.267 234.426C374.71 234.437 375.045 234.455 375.273 234.477V238.568C375.136 238.534 374.824 238.483 374.335 238.415C373.858 238.335 373.352 238.295 372.818 238.295C371.545 238.295 370.409 238.562 369.409 239.097C368.42 239.619 367.636 240.347 367.057 241.278C366.489 242.199 366.205 243.25 366.205 244.432V261H362.182ZM402.247 234.818L392.565 261H388.474L378.793 234.818H383.156L390.384 255.682H390.656L397.884 234.818H402.247ZM407.557 261V234.818H411.58V261H407.557ZM409.602 230.455C408.818 230.455 408.142 230.188 407.574 229.653C407.017 229.119 406.739 228.477 406.739 227.727C406.739 226.977 407.017 226.335 407.574 225.801C408.142 225.267 408.818 225 409.602 225C410.386 225 411.057 225.267 411.614 225.801C412.182 226.335 412.466 226.977 412.466 227.727C412.466 228.477 412.182 229.119 411.614 229.653C411.057 230.188 410.386 230.455 409.602 230.455ZM429.925 261.545C427.402 261.545 425.226 260.989 423.396 259.875C421.578 258.75 420.175 257.182 419.186 255.17C418.209 253.148 417.72 250.795 417.72 248.114C417.72 245.432 418.209 243.068 419.186 241.023C420.175 238.966 421.55 237.364 423.311 236.216C425.084 235.057 427.152 234.477 429.516 234.477C430.879 234.477 432.226 234.705 433.555 235.159C434.885 235.614 436.095 236.352 437.186 237.375C438.277 238.386 439.146 239.727 439.794 241.398C440.442 243.068 440.766 245.125 440.766 247.568V249.273H420.584V245.795H436.675C436.675 244.318 436.379 243 435.788 241.841C435.209 240.682 434.379 239.767 433.3 239.097C432.232 238.426 430.97 238.091 429.516 238.091C427.913 238.091 426.527 238.489 425.357 239.284C424.197 240.068 423.305 241.091 422.68 242.352C422.055 243.614 421.743 244.966 421.743 246.409V248.727C421.743 250.705 422.084 252.381 422.766 253.756C423.459 255.119 424.419 256.159 425.646 256.875C426.874 257.58 428.3 257.932 429.925 257.932C430.982 257.932 431.936 257.784 432.788 257.489C433.652 257.182 434.396 256.727 435.021 256.125C435.646 255.511 436.129 254.75 436.47 253.841L440.357 254.932C439.947 256.25 439.26 257.409 438.294 258.409C437.328 259.398 436.135 260.17 434.714 260.727C433.294 261.273 431.697 261.545 429.925 261.545ZM446.885 261V234.818H450.771V238.773H451.044C451.521 237.477 452.385 236.426 453.635 235.619C454.885 234.812 456.294 234.409 457.862 234.409C458.158 234.409 458.527 234.415 458.97 234.426C459.413 234.437 459.749 234.455 459.976 234.477V238.568C459.839 238.534 459.527 238.483 459.038 238.415C458.561 238.335 458.055 238.295 457.521 238.295C456.249 238.295 455.112 238.562 454.112 239.097C453.124 239.619 452.339 240.347 451.76 241.278C451.192 242.199 450.908 243.25 450.908 244.432V261H446.885ZM483.29 240.682L479.676 241.705C479.449 241.102 479.114 240.517 478.67 239.949C478.239 239.369 477.648 238.892 476.898 238.517C476.148 238.142 475.188 237.955 474.017 237.955C472.415 237.955 471.08 238.324 470.011 239.062C468.955 239.79 468.426 240.716 468.426 241.841C468.426 242.841 468.79 243.631 469.517 244.21C470.244 244.79 471.381 245.273 472.926 245.659L476.812 246.614C479.153 247.182 480.898 248.051 482.045 249.222C483.193 250.381 483.767 251.875 483.767 253.705C483.767 255.205 483.335 256.545 482.472 257.727C481.619 258.909 480.426 259.841 478.892 260.523C477.358 261.205 475.574 261.545 473.54 261.545C470.869 261.545 468.659 260.966 466.909 259.807C465.159 258.648 464.051 256.955 463.585 254.727L467.403 253.773C467.767 255.182 468.455 256.239 469.466 256.943C470.489 257.648 471.824 258 473.472 258C475.347 258 476.835 257.602 477.938 256.807C479.051 256 479.608 255.034 479.608 253.909C479.608 253 479.29 252.239 478.653 251.625C478.017 251 477.04 250.534 475.722 250.227L471.358 249.205C468.96 248.636 467.199 247.756 466.074 246.562C464.96 245.358 464.403 243.852 464.403 242.045C464.403 240.568 464.818 239.261 465.648 238.125C466.489 236.989 467.631 236.097 469.074 235.449C470.528 234.801 472.176 234.477 474.017 234.477C476.608 234.477 478.642 235.045 480.119 236.182C481.608 237.318 482.665 238.818 483.29 240.682Z" fill="black"/>
<path d="M223 0H1440V133H223V0Z" fill="#D9D9D9"/>
<path d="M1216.4 78V51.8182H1219.57V75.1875H1231.74V78H1216.4ZM1244.22 78.4091C1242.45 78.4091 1240.89 77.9872 1239.55 77.1435C1238.22 76.2997 1237.18 75.1193 1236.43 73.6023C1235.69 72.0852 1235.32 70.3125 1235.32 68.2841C1235.32 66.2386 1235.69 64.4531 1236.43 62.9276C1237.18 61.402 1238.22 60.2173 1239.55 59.3736C1240.89 58.5298 1242.45 58.108 1244.22 58.108C1245.99 58.108 1247.54 58.5298 1248.87 59.3736C1250.21 60.2173 1251.25 61.402 1251.99 62.9276C1252.74 64.4531 1253.12 66.2386 1253.12 68.2841C1253.12 70.3125 1252.74 72.0852 1251.99 73.6023C1251.25 75.1193 1250.21 76.2997 1248.87 77.1435C1247.54 77.9872 1245.99 78.4091 1244.22 78.4091ZM1244.22 75.6989C1245.57 75.6989 1246.67 75.3537 1247.54 74.6634C1248.41 73.973 1249.06 73.0653 1249.47 71.9403C1249.89 70.8153 1250.1 69.5966 1250.1 68.2841C1250.1 66.9716 1249.89 65.7486 1249.47 64.6151C1249.06 63.4815 1248.41 62.5653 1247.54 61.8665C1246.67 61.1676 1245.57 60.8182 1244.22 60.8182C1242.87 60.8182 1241.76 61.1676 1240.89 61.8665C1240.03 62.5653 1239.38 63.4815 1238.96 64.6151C1238.55 65.7486 1238.34 66.9716 1238.34 68.2841C1238.34 69.5966 1238.55 70.8153 1238.96 71.9403C1239.38 73.0653 1240.03 73.973 1240.89 74.6634C1241.76 75.3537 1242.87 75.6989 1244.22 75.6989ZM1265.65 85.7727C1264.19 85.7727 1262.94 85.5852 1261.89 85.2102C1260.84 84.8438 1259.97 84.358 1259.27 83.7528C1258.58 83.1563 1258.03 82.517 1257.62 81.8352L1260.02 80.1477C1260.3 80.5057 1260.64 80.9148 1261.06 81.375C1261.48 81.8438 1262.05 82.2486 1262.77 82.5895C1263.5 82.9389 1264.46 83.1136 1265.65 83.1136C1267.23 83.1136 1268.54 82.7301 1269.57 81.9631C1270.6 81.196 1271.12 79.9943 1271.12 78.358V74.3693H1270.86C1270.64 74.7273 1270.33 75.1705 1269.92 75.6989C1269.52 76.2188 1268.94 76.6832 1268.18 77.0923C1267.43 77.4929 1266.41 77.6932 1265.14 77.6932C1263.55 77.6932 1262.13 77.3182 1260.87 76.5682C1259.61 75.8182 1258.62 74.7273 1257.89 73.2955C1257.16 71.8636 1256.8 70.125 1256.8 68.0795C1256.8 66.0682 1257.16 64.3168 1257.86 62.8253C1258.57 61.3253 1259.55 60.1662 1260.82 59.348C1262.08 58.5213 1263.53 58.108 1265.19 58.108C1266.47 58.108 1267.48 58.321 1268.23 58.7472C1268.99 59.1648 1269.57 59.642 1269.97 60.179C1270.38 60.7074 1270.69 61.142 1270.91 61.483H1271.22V58.3636H1274.14V78.5625C1274.14 80.25 1273.75 81.6222 1272.99 82.679C1272.23 83.7443 1271.2 84.5241 1269.92 85.0185C1268.64 85.5213 1267.22 85.7727 1265.65 85.7727ZM1265.55 74.983C1266.76 74.983 1267.78 74.706 1268.61 74.152C1269.45 73.598 1270.08 72.8011 1270.52 71.7614C1270.95 70.7216 1271.17 69.4773 1271.17 68.0284C1271.17 66.6136 1270.96 65.3651 1270.53 64.2827C1270.11 63.2003 1269.47 62.3523 1268.64 61.7386C1267.8 61.125 1266.77 60.8182 1265.55 60.8182C1264.27 60.8182 1263.2 61.142 1262.35 61.7898C1261.51 62.4375 1260.87 63.3068 1260.44 64.3977C1260.03 65.4886 1259.82 66.6989 1259.82 68.0284C1259.82 69.392 1260.03 70.598 1260.46 71.6463C1260.89 72.6861 1261.53 73.5043 1262.38 74.1009C1263.23 74.6889 1264.28 74.983 1265.55 74.983ZM1287.64 78.4091C1285.86 78.4091 1284.31 77.9872 1282.97 77.1435C1281.64 76.2997 1280.6 75.1193 1279.85 73.6023C1279.11 72.0852 1278.74 70.3125 1278.74 68.2841C1278.74 66.2386 1279.11 64.4531 1279.85 62.9276C1280.6 61.402 1281.64 60.2173 1282.97 59.3736C1284.31 58.5298 1285.86 58.108 1287.64 58.108C1289.41 58.108 1290.96 58.5298 1292.29 59.3736C1293.63 60.2173 1294.67 61.402 1295.41 62.9276C1296.16 64.4531 1296.53 66.2386 1296.53 68.2841C1296.53 70.3125 1296.16 72.0852 1295.41 73.6023C1294.67 75.1193 1293.63 76.2997 1292.29 77.1435C1290.96 77.9872 1289.41 78.4091 1287.64 78.4091ZM1287.64 75.6989C1288.98 75.6989 1290.09 75.3537 1290.96 74.6634C1291.83 73.973 1292.47 73.0653 1292.89 71.9403C1293.31 70.8153 1293.52 69.5966 1293.52 68.2841C1293.52 66.9716 1293.31 65.7486 1292.89 64.6151C1292.47 63.4815 1291.83 62.5653 1290.96 61.8665C1290.09 61.1676 1288.98 60.8182 1287.64 60.8182C1286.29 60.8182 1285.18 61.1676 1284.31 61.8665C1283.44 62.5653 1282.8 63.4815 1282.38 64.6151C1281.96 65.7486 1281.76 66.9716 1281.76 68.2841C1281.76 69.5966 1281.96 70.8153 1282.38 71.9403C1282.8 73.0653 1283.44 73.973 1284.31 74.6634C1285.18 75.3537 1286.29 75.6989 1287.64 75.6989ZM1313.51 69.9716V58.3636H1316.53V78H1313.51V74.6761H1313.31C1312.85 75.6733 1312.13 76.5213 1311.16 77.2202C1310.19 77.9105 1308.96 78.2557 1307.48 78.2557C1306.25 78.2557 1305.16 77.9872 1304.21 77.4503C1303.25 76.9048 1302.5 76.0866 1301.96 74.9957C1301.41 73.8963 1301.14 72.5114 1301.14 70.8409V58.3636H1304.16V70.6364C1304.16 72.0682 1304.56 73.2102 1305.36 74.0625C1306.17 74.9148 1307.2 75.3409 1308.45 75.3409C1309.2 75.3409 1309.97 75.1491 1310.74 74.7656C1311.52 74.3821 1312.18 73.794 1312.71 73.0014C1313.25 72.2088 1313.51 71.1989 1313.51 69.9716ZM1330.6 58.3636V60.9205H1320.42V58.3636H1330.6ZM1323.39 53.6591H1326.4V72.375C1326.4 73.2273 1326.53 73.8665 1326.78 74.2926C1327.03 74.7102 1327.35 74.9915 1327.75 75.1364C1328.15 75.2727 1328.57 75.3409 1329.01 75.3409C1329.34 75.3409 1329.62 75.3239 1329.83 75.2898C1330.04 75.2472 1330.21 75.2131 1330.34 75.1875L1330.96 77.8977C1330.75 77.9744 1330.47 78.0511 1330.1 78.1278C1329.73 78.2131 1329.27 78.2557 1328.71 78.2557C1327.85 78.2557 1327.02 78.0724 1326.2 77.706C1325.39 77.3395 1324.72 76.7812 1324.18 76.0312C1323.65 75.2812 1323.39 74.3352 1323.39 73.1932V53.6591Z" fill="black"/>
<rect x="312" y="344" width="967" height="575" fill="#D9D9D9"/>
<line x1="312" y1="425.717" x2="1279" y2="425.717" stroke="black" stroke-width="0.914824"/>
<line x1="311.999" y1="583.532" x2="1279" y2="580.543" stroke="black" stroke-width="0.914824"/>
<line x1="311.998" y1="663.824" x2="1279" y2="659.655" stroke="black" stroke-width="0.914824"/>
<path d="M466.792 344.037L466.792 919" stroke="black" stroke-width="0.914824"/>
<path d="M978.673 344L978.673 918.963" stroke="black" stroke-width="0.914824"/>
<path d="M1090 426L1090 912" stroke="black" stroke-width="0.914824"/>
<path d="M643.386 344.037L643.386 919" stroke="black" stroke-width="0.914824"/>
<path d="M850.503 344.037L850.503 919" stroke="black" stroke-width="0.914824"/>
<path d="M314.578 389.047V367.757H327.344V370.044H317.156V377.238H326.388V379.525H317.156V389.047H314.578ZM331.427 389.047V373.08H333.88V389.047H331.427ZM332.675 370.418C332.196 370.418 331.784 370.255 331.437 369.93C331.098 369.604 330.928 369.212 330.928 368.755C330.928 368.298 331.098 367.906 331.437 367.58C331.784 367.255 332.196 367.092 332.675 367.092C333.153 367.092 333.562 367.255 333.901 367.58C334.248 367.906 334.421 368.298 334.421 368.755C334.421 369.212 334.248 369.604 333.901 369.93C333.562 370.255 333.153 370.418 332.675 370.418ZM338.374 389.047V373.08H340.744V375.491H340.911C341.202 374.701 341.728 374.06 342.491 373.568C343.253 373.076 344.112 372.83 345.069 372.83C345.249 372.83 345.474 372.834 345.745 372.841C346.015 372.847 346.219 372.858 346.358 372.872V375.367C346.275 375.346 346.084 375.315 345.786 375.273C345.495 375.225 345.187 375.2 344.861 375.2C344.085 375.2 343.392 375.363 342.782 375.689C342.179 376.008 341.701 376.451 341.347 377.02C341.001 377.581 340.827 378.222 340.827 378.943V389.047H338.374ZM360.577 376.656L358.373 377.28C358.234 376.912 358.03 376.555 357.759 376.209C357.496 375.855 357.136 375.564 356.678 375.336C356.221 375.107 355.635 374.992 354.921 374.992C353.944 374.992 353.13 375.218 352.478 375.668C351.834 376.112 351.512 376.677 351.512 377.363C351.512 377.973 351.733 378.454 352.177 378.808C352.62 379.161 353.313 379.456 354.256 379.691L356.626 380.273C358.054 380.62 359.118 381.15 359.818 381.864C360.518 382.571 360.868 383.482 360.868 384.598C360.868 385.513 360.604 386.331 360.078 387.052C359.558 387.772 358.83 388.341 357.895 388.756C356.959 389.172 355.871 389.38 354.63 389.38C353.002 389.38 351.654 389.027 350.586 388.32C349.519 387.613 348.843 386.58 348.559 385.222L350.888 384.64C351.11 385.499 351.529 386.144 352.146 386.573C352.769 387.003 353.584 387.218 354.589 387.218C355.732 387.218 356.64 386.975 357.312 386.49C357.992 385.998 358.331 385.409 358.331 384.723C358.331 384.168 358.137 383.704 357.749 383.33C357.361 382.949 356.765 382.665 355.961 382.477L353.3 381.854C351.837 381.507 350.763 380.97 350.077 380.242C349.398 379.508 349.058 378.589 349.058 377.487C349.058 376.586 349.311 375.789 349.817 375.096C350.33 374.403 351.026 373.859 351.907 373.464C352.794 373.069 353.799 372.872 354.921 372.872C356.502 372.872 357.742 373.218 358.643 373.911C359.551 374.604 360.195 375.519 360.577 376.656ZM371.505 373.08V375.159H363.23V373.08H371.505ZM365.642 369.254H368.095V384.473C368.095 385.166 368.196 385.686 368.397 386.033C368.605 386.372 368.868 386.601 369.187 386.719C369.513 386.83 369.856 386.885 370.216 386.885C370.486 386.885 370.708 386.871 370.881 386.844C371.055 386.809 371.193 386.781 371.297 386.76L371.796 388.964C371.63 389.027 371.398 389.089 371.1 389.151C370.802 389.221 370.424 389.255 369.967 389.255C369.274 389.255 368.594 389.106 367.929 388.808C367.271 388.51 366.723 388.056 366.286 387.447C365.857 386.837 365.642 386.067 365.642 385.139V369.254ZM400.644 367.757V389.047H398.149L386.548 372.331H386.34V389.047H383.762V367.757H386.257L397.9 384.515H398.108V367.757H400.644ZM410.169 389.422C409.158 389.422 408.239 389.231 407.415 388.85C406.59 388.462 405.935 387.904 405.45 387.176C404.965 386.442 404.722 385.555 404.722 384.515C404.722 383.6 404.902 382.859 405.263 382.29C405.623 381.715 406.105 381.265 406.708 380.939C407.311 380.613 407.976 380.371 408.704 380.211C409.438 380.045 410.176 379.913 410.918 379.816C411.888 379.691 412.675 379.598 413.278 379.535C413.888 379.466 414.331 379.352 414.608 379.192C414.893 379.033 415.035 378.756 415.035 378.361V378.278C415.035 377.252 414.754 376.455 414.193 375.886C413.638 375.318 412.796 375.034 411.666 375.034C410.495 375.034 409.577 375.29 408.912 375.803C408.246 376.316 407.778 376.864 407.508 377.446L405.179 376.614C405.595 375.644 406.15 374.889 406.843 374.348C407.543 373.8 408.305 373.419 409.13 373.204C409.962 372.983 410.779 372.872 411.583 372.872C412.096 372.872 412.685 372.934 413.351 373.059C414.023 373.177 414.671 373.423 415.295 373.797C415.925 374.171 416.448 374.736 416.864 375.491C417.28 376.247 417.488 377.259 417.488 378.527V389.047H415.035V386.885H414.91C414.744 387.232 414.466 387.602 414.078 387.998C413.69 388.393 413.174 388.729 412.529 389.006C411.885 389.283 411.098 389.422 410.169 389.422ZM410.544 387.218C411.514 387.218 412.332 387.027 412.997 386.646C413.669 386.265 414.175 385.773 414.515 385.17C414.861 384.567 415.035 383.933 415.035 383.267V381.022C414.931 381.147 414.702 381.261 414.349 381.365C414.002 381.462 413.6 381.549 413.143 381.625C412.692 381.694 412.252 381.757 411.822 381.812C411.4 381.861 411.057 381.902 410.793 381.937C410.156 382.02 409.56 382.155 409.005 382.342C408.458 382.522 408.014 382.796 407.674 383.164C407.342 383.524 407.175 384.016 407.175 384.64C407.175 385.492 407.491 386.137 408.121 386.573C408.759 387.003 409.566 387.218 410.544 387.218ZM421.966 389.047V373.08H424.336V375.575H424.544C424.877 374.722 425.414 374.06 426.155 373.589C426.897 373.111 427.788 372.872 428.827 372.872C429.881 372.872 430.757 373.111 431.457 373.589C432.164 374.06 432.715 374.722 433.11 375.575H433.277C433.685 374.75 434.299 374.095 435.117 373.61C435.934 373.118 436.915 372.872 438.059 372.872C439.486 372.872 440.654 373.319 441.562 374.213C442.47 375.1 442.924 376.483 442.924 378.361V389.047H440.47V378.361C440.47 377.182 440.148 376.34 439.504 375.835C438.859 375.329 438.1 375.076 437.227 375.076C436.104 375.076 435.234 375.415 434.618 376.094C434.001 376.767 433.692 377.619 433.692 378.652V389.047H431.197V378.111C431.197 377.203 430.903 376.472 430.314 375.918C429.725 375.356 428.966 375.076 428.037 375.076C427.399 375.076 426.803 375.245 426.249 375.585C425.702 375.925 425.258 376.396 424.918 376.999C424.586 377.595 424.419 378.284 424.419 379.068V389.047H421.966ZM454.104 389.38C452.566 389.38 451.239 389.041 450.123 388.361C449.014 387.675 448.158 386.719 447.555 385.492C446.959 384.259 446.661 382.824 446.661 381.188C446.661 379.553 446.959 378.111 447.555 376.864C448.158 375.609 448.997 374.632 450.071 373.932C451.152 373.225 452.413 372.872 453.855 372.872C454.687 372.872 455.508 373.01 456.319 373.288C457.13 373.565 457.868 374.015 458.533 374.639C459.198 375.256 459.728 376.074 460.124 377.092C460.519 378.111 460.716 379.366 460.716 380.856V381.895H448.408V379.774H458.221C458.221 378.874 458.041 378.07 457.681 377.363C457.327 376.656 456.821 376.098 456.163 375.689C455.511 375.28 454.742 375.076 453.855 375.076C452.878 375.076 452.032 375.318 451.318 375.803C450.611 376.282 450.067 376.905 449.686 377.675C449.305 378.444 449.114 379.269 449.114 380.149V381.563C449.114 382.768 449.322 383.791 449.738 384.629C450.161 385.461 450.747 386.095 451.495 386.532C452.244 386.961 453.113 387.176 454.104 387.176C454.749 387.176 455.331 387.086 455.851 386.906C456.378 386.719 456.832 386.442 457.213 386.074C457.594 385.7 457.888 385.236 458.096 384.681L460.467 385.347C460.217 386.151 459.798 386.857 459.209 387.467C458.62 388.07 457.892 388.542 457.026 388.881C456.159 389.214 455.186 389.38 454.104 389.38Z" fill="black"/>
<path d="M472.578 391V369.71H475.156V388.713H485.053V391H472.578ZM493.411 391.374C492.399 391.374 491.481 391.184 490.656 390.802C489.832 390.414 489.177 389.856 488.692 389.129C488.206 388.394 487.964 387.507 487.964 386.467C487.964 385.553 488.144 384.811 488.504 384.243C488.865 383.668 489.346 383.217 489.949 382.891C490.552 382.566 491.218 382.323 491.945 382.164C492.68 381.997 493.418 381.866 494.16 381.769C495.13 381.644 495.917 381.55 496.519 381.488C497.129 381.419 497.573 381.304 497.85 381.145C498.134 380.985 498.276 380.708 498.276 380.313V380.23C498.276 379.204 497.996 378.407 497.434 377.839C496.88 377.271 496.038 376.987 494.908 376.987C493.737 376.987 492.819 377.243 492.153 377.756C491.488 378.269 491.02 378.816 490.75 379.398L488.421 378.567C488.837 377.596 489.391 376.841 490.085 376.3C490.785 375.753 491.547 375.372 492.372 375.157C493.203 374.935 494.021 374.824 494.825 374.824C495.338 374.824 495.927 374.887 496.592 375.011C497.265 375.129 497.913 375.375 498.536 375.749C499.167 376.124 499.69 376.689 500.106 377.444C500.522 378.199 500.73 379.211 500.73 380.48V391H498.276V388.838H498.152C497.985 389.184 497.708 389.555 497.32 389.95C496.932 390.345 496.416 390.681 495.771 390.958C495.126 391.236 494.34 391.374 493.411 391.374ZM493.785 389.17C494.756 389.17 495.573 388.98 496.239 388.599C496.911 388.217 497.417 387.725 497.757 387.122C498.103 386.519 498.276 385.885 498.276 385.22V382.974C498.172 383.099 497.944 383.214 497.59 383.318C497.244 383.415 496.842 383.501 496.384 383.577C495.934 383.647 495.494 383.709 495.064 383.765C494.641 383.813 494.298 383.855 494.035 383.889C493.397 383.972 492.801 384.108 492.247 384.295C491.699 384.475 491.256 384.749 490.916 385.116C490.584 385.476 490.417 385.968 490.417 386.592C490.417 387.445 490.733 388.089 491.363 388.526C492.001 388.956 492.808 389.17 493.785 389.17ZM516.518 378.608L514.314 379.232C514.176 378.865 513.971 378.508 513.701 378.161C513.438 377.808 513.077 377.517 512.62 377.288C512.162 377.059 511.577 376.945 510.863 376.945C509.886 376.945 509.071 377.17 508.42 377.621C507.775 378.064 507.453 378.629 507.453 379.315C507.453 379.925 507.675 380.407 508.119 380.76C508.562 381.114 509.255 381.408 510.198 381.644L512.568 382.226C513.996 382.573 515.059 383.103 515.759 383.817C516.459 384.523 516.809 385.435 516.809 386.551C516.809 387.465 516.546 388.283 516.019 389.004C515.499 389.725 514.772 390.293 513.836 390.709C512.901 391.125 511.812 391.333 510.572 391.333C508.943 391.333 507.595 390.979 506.528 390.272C505.461 389.565 504.785 388.533 504.501 387.174L506.829 386.592C507.051 387.452 507.471 388.096 508.087 388.526C508.711 388.956 509.525 389.17 510.53 389.17C511.674 389.17 512.582 388.928 513.254 388.443C513.933 387.951 514.273 387.361 514.273 386.675C514.273 386.121 514.079 385.657 513.691 385.282C513.303 384.901 512.707 384.617 511.903 384.43L509.241 383.806C507.779 383.46 506.705 382.923 506.019 382.195C505.339 381.46 505 380.542 505 379.44C505 378.539 505.253 377.742 505.759 377.049C506.272 376.356 506.968 375.812 507.848 375.417C508.735 375.022 509.74 374.824 510.863 374.824C512.443 374.824 513.684 375.171 514.585 375.864C515.493 376.557 516.137 377.472 516.518 378.608ZM527.447 375.032V377.111H519.172V375.032H527.447ZM521.584 371.207H524.037V386.426C524.037 387.119 524.137 387.639 524.338 387.985C524.546 388.325 524.81 388.554 525.129 388.671C525.454 388.782 525.797 388.838 526.158 388.838C526.428 388.838 526.65 388.824 526.823 388.796C526.996 388.761 527.135 388.734 527.239 388.713L527.738 390.917C527.572 390.979 527.339 391.042 527.041 391.104C526.743 391.173 526.366 391.208 525.908 391.208C525.215 391.208 524.536 391.059 523.871 390.761C523.212 390.463 522.665 390.009 522.228 389.399C521.798 388.789 521.584 388.02 521.584 387.091V371.207ZM556.586 369.71V391H554.091L542.489 374.284H542.281V391H539.703V369.71H542.198L553.842 386.467H554.049V369.71H556.586ZM566.111 391.374C565.099 391.374 564.181 391.184 563.356 390.802C562.531 390.414 561.877 389.856 561.391 389.129C560.906 388.394 560.664 387.507 560.664 386.467C560.664 385.553 560.844 384.811 561.204 384.243C561.565 383.668 562.046 383.217 562.649 382.891C563.252 382.566 563.918 382.323 564.645 382.164C565.38 381.997 566.118 381.866 566.86 381.769C567.83 381.644 568.616 381.55 569.219 381.488C569.829 381.419 570.273 381.304 570.55 381.145C570.834 380.985 570.976 380.708 570.976 380.313V380.23C570.976 379.204 570.696 378.407 570.134 377.839C569.58 377.271 568.738 376.987 567.608 376.987C566.437 376.987 565.519 377.243 564.853 377.756C564.188 378.269 563.72 378.816 563.45 379.398L561.121 378.567C561.537 377.596 562.091 376.841 562.784 376.3C563.484 375.753 564.247 375.372 565.072 375.157C565.903 374.935 566.721 374.824 567.525 374.824C568.038 374.824 568.627 374.887 569.292 375.011C569.964 375.129 570.612 375.375 571.236 375.749C571.867 376.124 572.39 376.689 572.806 377.444C573.222 378.199 573.43 379.211 573.43 380.48V391H570.976V388.838H570.852C570.685 389.184 570.408 389.555 570.02 389.95C569.632 390.345 569.115 390.681 568.471 390.958C567.826 391.236 567.04 391.374 566.111 391.374ZM566.485 389.17C567.456 389.17 568.273 388.98 568.939 388.599C569.611 388.217 570.117 387.725 570.457 387.122C570.803 386.519 570.976 385.885 570.976 385.22V382.974C570.872 383.099 570.644 383.214 570.29 383.318C569.944 383.415 569.542 383.501 569.084 383.577C568.634 383.647 568.194 383.709 567.764 383.765C567.341 383.813 566.998 383.855 566.735 383.889C566.097 383.972 565.501 384.108 564.947 384.295C564.399 384.475 563.956 384.749 563.616 385.116C563.283 385.476 563.117 385.968 563.117 386.592C563.117 387.445 563.432 388.089 564.063 388.526C564.701 388.956 565.508 389.17 566.485 389.17ZM577.908 391V375.032H580.278V377.527H580.486C580.818 376.675 581.356 376.013 582.097 375.542C582.839 375.063 583.729 374.824 584.769 374.824C585.822 374.824 586.699 375.063 587.399 375.542C588.106 376.013 588.657 376.675 589.052 377.527H589.218C589.627 376.702 590.24 376.047 591.058 375.562C591.876 375.07 592.857 374.824 594 374.824C595.428 374.824 596.596 375.271 597.504 376.165C598.411 377.052 598.865 378.435 598.865 380.313V391H596.412V380.313C596.412 379.135 596.09 378.293 595.445 377.787C594.801 377.281 594.042 377.028 593.169 377.028C592.046 377.028 591.176 377.368 590.559 378.047C589.942 378.719 589.634 379.572 589.634 380.604V391H587.139V380.064C587.139 379.156 586.844 378.425 586.255 377.87C585.666 377.309 584.907 377.028 583.979 377.028C583.341 377.028 582.745 377.198 582.191 377.538C581.643 377.877 581.2 378.348 580.86 378.951C580.527 379.547 580.361 380.237 580.361 381.02V391H577.908ZM610.046 391.333C608.507 391.333 607.18 390.993 606.064 390.314C604.956 389.628 604.1 388.671 603.497 387.445C602.901 386.211 602.603 384.776 602.603 383.141C602.603 381.505 602.901 380.064 603.497 378.816C604.1 377.562 604.938 376.585 606.012 375.885C607.094 375.178 608.355 374.824 609.797 374.824C610.628 374.824 611.449 374.963 612.26 375.24C613.071 375.517 613.809 375.968 614.475 376.592C615.14 377.208 615.67 378.026 616.065 379.045C616.46 380.064 616.658 381.318 616.658 382.808V383.848H604.349V381.727H614.163C614.163 380.826 613.983 380.022 613.622 379.315C613.269 378.608 612.763 378.05 612.104 377.641C611.453 377.233 610.684 377.028 609.797 377.028C608.819 377.028 607.974 377.271 607.26 377.756C606.553 378.234 606.009 378.858 605.628 379.627C605.247 380.396 605.056 381.221 605.056 382.101V383.515C605.056 384.721 605.264 385.743 605.68 386.582C606.103 387.413 606.688 388.048 607.437 388.484C608.185 388.914 609.055 389.129 610.046 389.129C610.691 389.129 611.273 389.039 611.793 388.858C612.319 388.671 612.773 388.394 613.154 388.027C613.536 387.653 613.83 387.188 614.038 386.634L616.408 387.299C616.159 388.103 615.739 388.81 615.15 389.42C614.561 390.023 613.834 390.494 612.967 390.834C612.101 391.166 611.127 391.333 610.046 391.333Z" fill="black"/>
<path d="M860.529 371.465V369.178H876.496V371.465H869.802V390.468H867.223V371.465H860.529ZM878.485 390.468V374.5H880.855V376.912H881.021C881.312 376.122 881.839 375.481 882.601 374.989C883.364 374.497 884.223 374.251 885.179 374.251C885.36 374.251 885.585 374.254 885.855 374.261C886.125 374.268 886.33 374.279 886.469 374.292V376.787C886.385 376.767 886.195 376.735 885.897 376.694C885.606 376.645 885.297 376.621 884.972 376.621C884.195 376.621 883.502 376.784 882.892 377.11C882.289 377.428 881.811 377.872 881.458 378.44C881.111 379.002 880.938 379.643 880.938 380.363V390.468H878.485ZM889.377 390.468V374.5H891.83V390.468H889.377ZM890.624 371.839C890.146 371.839 889.734 371.676 889.387 371.35C889.048 371.025 888.878 370.633 888.878 370.176C888.878 369.718 889.048 369.327 889.387 369.001C889.734 368.675 890.146 368.512 890.624 368.512C891.102 368.512 891.511 368.675 891.851 369.001C892.197 369.327 892.371 369.718 892.371 370.176C892.371 370.633 892.197 371.025 891.851 371.35C891.511 371.676 891.102 371.839 890.624 371.839ZM896.324 396.456V374.5H898.694V377.037H898.985C899.165 376.76 899.415 376.406 899.733 375.976C900.059 375.54 900.524 375.152 901.126 374.812C901.736 374.466 902.561 374.292 903.601 374.292C904.945 374.292 906.13 374.629 907.156 375.301C908.182 375.973 908.982 376.926 909.557 378.16C910.133 379.393 910.42 380.849 910.42 382.526C910.42 384.217 910.133 385.683 909.557 386.923C908.982 388.157 908.185 389.113 907.166 389.792C906.148 390.465 904.973 390.801 903.642 390.801C902.617 390.801 901.795 390.631 901.178 390.291C900.562 389.945 900.087 389.553 899.754 389.117C899.422 388.673 899.165 388.306 898.985 388.015H898.777V396.456H896.324ZM898.735 382.484C898.735 383.69 898.912 384.754 899.266 385.676C899.619 386.591 900.135 387.308 900.815 387.828C901.494 388.34 902.325 388.597 903.31 388.597C904.335 388.597 905.191 388.327 905.877 387.786C906.57 387.239 907.09 386.504 907.437 385.582C907.79 384.653 907.967 383.621 907.967 382.484C907.967 381.361 907.794 380.35 907.447 379.449C907.107 378.541 906.591 377.823 905.898 377.297C905.212 376.763 904.349 376.496 903.31 376.496C902.312 376.496 901.473 376.749 900.794 377.255C900.115 377.754 899.602 378.454 899.255 379.355C898.909 380.249 898.735 381.292 898.735 382.484ZM925.473 378.076L923.269 378.7C923.131 378.333 922.926 377.976 922.656 377.629C922.393 377.276 922.032 376.985 921.575 376.756C921.117 376.527 920.532 376.413 919.818 376.413C918.841 376.413 918.026 376.638 917.375 377.089C916.73 377.532 916.408 378.097 916.408 378.783C916.408 379.393 916.63 379.875 917.074 380.228C917.517 380.582 918.21 380.876 919.153 381.112L921.523 381.694C922.951 382.041 924.014 382.571 924.714 383.285C925.414 383.992 925.764 384.903 925.764 386.019C925.764 386.934 925.501 387.751 924.974 388.472C924.454 389.193 923.727 389.761 922.791 390.177C921.856 390.593 920.767 390.801 919.527 390.801C917.898 390.801 916.55 390.447 915.483 389.74C914.416 389.034 913.74 388.001 913.456 386.643L915.784 386.06C916.006 386.92 916.426 387.564 917.042 387.994C917.666 388.424 918.48 388.638 919.485 388.638C920.629 388.638 921.537 388.396 922.209 387.911C922.888 387.419 923.228 386.83 923.228 386.144C923.228 385.589 923.034 385.125 922.646 384.75C922.258 384.369 921.662 384.085 920.858 383.898L918.196 383.274C916.734 382.928 915.66 382.391 914.974 381.663C914.294 380.928 913.955 380.01 913.955 378.908C913.955 378.007 914.208 377.21 914.714 376.517C915.227 375.824 915.923 375.28 916.803 374.885C917.69 374.49 918.695 374.292 919.818 374.292C921.398 374.292 922.639 374.639 923.54 375.332C924.448 376.025 925.092 376.94 925.473 378.076Z" fill="black"/>
<path d="M989.414 369.997V367.71H1005.38V369.997H998.687V389H996.109V369.997H989.414ZM1013.2 389.333C1011.76 389.333 1010.49 388.99 1009.4 388.303C1008.32 387.617 1007.48 386.657 1006.87 385.424C1006.27 384.19 1005.96 382.749 1005.96 381.099C1005.96 379.436 1006.27 377.984 1006.87 376.743C1007.48 375.503 1008.32 374.54 1009.4 373.853C1010.49 373.167 1011.76 372.824 1013.2 372.824C1014.64 372.824 1015.9 373.167 1016.98 373.853C1018.07 374.54 1018.92 375.503 1019.52 376.743C1020.13 377.984 1020.43 379.436 1020.43 381.099C1020.43 382.749 1020.13 384.19 1019.52 385.424C1018.92 386.657 1018.07 387.617 1016.98 388.303C1015.9 388.99 1014.64 389.333 1013.2 389.333ZM1013.2 387.129C1014.29 387.129 1015.2 386.848 1015.9 386.287C1016.61 385.725 1017.13 384.987 1017.47 384.072C1017.81 383.158 1017.98 382.167 1017.98 381.099C1017.98 380.032 1017.81 379.037 1017.47 378.116C1017.13 377.194 1016.61 376.449 1015.9 375.881C1015.2 375.312 1014.29 375.028 1013.2 375.028C1012.1 375.028 1011.2 375.312 1010.5 375.881C1009.79 376.449 1009.27 377.194 1008.93 378.116C1008.59 379.037 1008.42 380.032 1008.42 381.099C1008.42 382.167 1008.59 383.158 1008.93 384.072C1009.27 384.987 1009.79 385.725 1010.5 386.287C1011.2 386.848 1012.1 387.129 1013.2 387.129ZM1031.12 373.032V375.111H1022.85V373.032H1031.12ZM1025.26 369.207H1027.71V384.426C1027.71 385.119 1027.81 385.639 1028.02 385.985C1028.22 386.325 1028.49 386.554 1028.81 386.671C1029.13 386.782 1029.47 386.838 1029.84 386.838C1030.11 386.838 1030.33 386.824 1030.5 386.796C1030.67 386.761 1030.81 386.734 1030.92 386.713L1031.42 388.917C1031.25 388.979 1031.02 389.042 1030.72 389.104C1030.42 389.173 1030.04 389.208 1029.59 389.208C1028.89 389.208 1028.21 389.059 1027.55 388.761C1026.89 388.463 1026.34 388.009 1025.91 387.399C1025.48 386.789 1025.26 386.02 1025.26 385.091V369.207ZM1039.51 389.374C1038.5 389.374 1037.58 389.184 1036.76 388.802C1035.93 388.414 1035.28 387.856 1034.79 387.129C1034.31 386.394 1034.07 385.507 1034.07 384.467C1034.07 383.553 1034.25 382.811 1034.61 382.243C1034.97 381.668 1035.45 381.217 1036.05 380.891C1036.65 380.566 1037.32 380.323 1038.05 380.164C1038.78 379.997 1039.52 379.866 1040.26 379.769C1041.23 379.644 1042.02 379.55 1042.62 379.488C1043.23 379.419 1043.68 379.304 1043.95 379.145C1044.24 378.985 1044.38 378.708 1044.38 378.313V378.23C1044.38 377.204 1044.1 376.407 1043.54 375.839C1042.98 375.271 1042.14 374.987 1041.01 374.987C1039.84 374.987 1038.92 375.243 1038.26 375.756C1037.59 376.269 1037.12 376.816 1036.85 377.398L1034.52 376.567C1034.94 375.596 1035.49 374.841 1036.19 374.3C1036.89 373.753 1037.65 373.372 1038.47 373.157C1039.31 372.935 1040.12 372.824 1040.93 372.824C1041.44 372.824 1042.03 372.887 1042.69 373.011C1043.37 373.129 1044.01 373.375 1044.64 373.749C1045.27 374.124 1045.79 374.689 1046.21 375.444C1046.62 376.199 1046.83 377.211 1046.83 378.48V389H1044.38V386.838H1044.25C1044.09 387.184 1043.81 387.555 1043.42 387.95C1043.03 388.345 1042.52 388.681 1041.87 388.958C1041.23 389.236 1040.44 389.374 1039.51 389.374ZM1039.89 387.17C1040.86 387.17 1041.68 386.98 1042.34 386.599C1043.01 386.217 1043.52 385.725 1043.86 385.122C1044.21 384.519 1044.38 383.885 1044.38 383.22V380.974C1044.27 381.099 1044.05 381.214 1043.69 381.318C1043.35 381.415 1042.94 381.501 1042.49 381.577C1042.04 381.647 1041.6 381.709 1041.17 381.765C1040.74 381.813 1040.4 381.855 1040.14 381.889C1039.5 381.972 1038.9 382.108 1038.35 382.295C1037.8 382.475 1037.36 382.749 1037.02 383.116C1036.69 383.476 1036.52 383.968 1036.52 384.592C1036.52 385.445 1036.83 386.089 1037.47 386.526C1038.1 386.956 1038.91 387.17 1039.89 387.17ZM1053.76 367.71V389H1051.31V367.71H1053.76ZM1066.82 389V367.71H1079.67V369.997H1069.4V377.19H1079.01V379.478H1069.4V386.713H1079.84V389H1066.82ZM1088.69 389.374C1087.67 389.374 1086.76 389.184 1085.93 388.802C1085.11 388.414 1084.45 387.856 1083.97 387.129C1083.48 386.394 1083.24 385.507 1083.24 384.467C1083.24 383.553 1083.42 382.811 1083.78 382.243C1084.14 381.668 1084.62 381.217 1085.22 380.891C1085.83 380.566 1086.49 380.323 1087.22 380.164C1087.95 379.997 1088.69 379.866 1089.43 379.769C1090.4 379.644 1091.19 379.55 1091.79 379.488C1092.4 379.419 1092.85 379.304 1093.12 379.145C1093.41 378.985 1093.55 378.708 1093.55 378.313V378.23C1093.55 377.204 1093.27 376.407 1092.71 375.839C1092.15 375.271 1091.31 374.987 1090.18 374.987C1089.01 374.987 1088.09 375.243 1087.43 375.756C1086.76 376.269 1086.29 376.816 1086.02 377.398L1083.7 376.567C1084.11 375.596 1084.67 374.841 1085.36 374.3C1086.06 373.753 1086.82 373.372 1087.65 373.157C1088.48 372.935 1089.3 372.824 1090.1 372.824C1090.61 372.824 1091.2 372.887 1091.87 373.011C1092.54 373.129 1093.19 373.375 1093.81 373.749C1094.44 374.124 1094.96 374.689 1095.38 375.444C1095.8 376.199 1096 377.211 1096 378.48V389H1093.55V386.838H1093.43C1093.26 387.184 1092.98 387.555 1092.59 387.95C1092.21 388.345 1091.69 388.681 1091.05 388.958C1090.4 389.236 1089.61 389.374 1088.69 389.374ZM1089.06 387.17C1090.03 387.17 1090.85 386.98 1091.51 386.599C1092.19 386.217 1092.69 385.725 1093.03 385.122C1093.38 384.519 1093.55 383.885 1093.55 383.22V380.974C1093.45 381.099 1093.22 381.214 1092.86 381.318C1092.52 381.415 1092.12 381.501 1091.66 381.577C1091.21 381.647 1090.77 381.709 1090.34 381.765C1089.92 381.813 1089.57 381.855 1089.31 381.889C1088.67 381.972 1088.08 382.108 1087.52 382.295C1086.97 382.475 1086.53 382.749 1086.19 383.116C1085.86 383.476 1085.69 383.968 1085.69 384.592C1085.69 385.445 1086.01 386.089 1086.64 386.526C1087.27 386.956 1088.08 387.17 1089.06 387.17ZM1100.48 389V373.032H1102.85V375.444H1103.02C1103.31 374.654 1103.84 374.013 1104.6 373.521C1105.36 373.029 1106.22 372.783 1107.18 372.783C1107.36 372.783 1107.58 372.786 1107.85 372.793C1108.12 372.8 1108.33 372.81 1108.47 372.824V375.319C1108.38 375.298 1108.19 375.267 1107.89 375.226C1107.6 375.177 1107.29 375.153 1106.97 375.153C1106.19 375.153 1105.5 375.316 1104.89 375.641C1104.29 375.96 1103.81 376.404 1103.45 376.972C1103.11 377.534 1102.94 378.175 1102.94 378.895V389H1100.48ZM1113.83 379.394V389H1111.37V373.032H1113.74V375.527H1113.95C1114.33 374.716 1114.89 374.065 1115.66 373.573C1116.42 373.074 1117.4 372.824 1118.61 372.824C1119.69 372.824 1120.64 373.046 1121.45 373.49C1122.26 373.926 1122.89 374.592 1123.34 375.486C1123.79 376.373 1124.02 377.495 1124.02 378.854V389H1121.56V379.02C1121.56 377.766 1121.24 376.788 1120.58 376.089C1119.93 375.382 1119.04 375.028 1117.9 375.028C1117.12 375.028 1116.42 375.198 1115.8 375.538C1115.19 375.877 1114.71 376.373 1114.36 377.024C1114 377.676 1113.83 378.466 1113.83 379.394ZM1135.19 389.333C1133.65 389.333 1132.33 388.993 1131.21 388.314C1130.1 387.628 1129.25 386.671 1128.64 385.445C1128.05 384.211 1127.75 382.776 1127.75 381.141C1127.75 379.505 1128.05 378.064 1128.64 376.816C1129.25 375.562 1130.09 374.585 1131.16 373.885C1132.24 373.178 1133.5 372.824 1134.94 372.824C1135.78 372.824 1136.6 372.963 1137.41 373.24C1138.22 373.517 1138.96 373.968 1139.62 374.592C1140.29 375.208 1140.82 376.026 1141.21 377.045C1141.61 378.064 1141.8 379.318 1141.8 380.808V381.848H1129.5V379.727H1139.31C1139.31 378.826 1139.13 378.022 1138.77 377.315C1138.42 376.608 1137.91 376.05 1137.25 375.641C1136.6 375.233 1135.83 375.028 1134.94 375.028C1133.97 375.028 1133.12 375.271 1132.41 375.756C1131.7 376.234 1131.16 376.858 1130.77 377.627C1130.39 378.396 1130.2 379.221 1130.2 380.101V381.515C1130.2 382.721 1130.41 383.743 1130.83 384.582C1131.25 385.413 1131.84 386.048 1132.58 386.484C1133.33 386.914 1134.2 387.129 1135.19 387.129C1135.84 387.129 1136.42 387.039 1136.94 386.858C1137.47 386.671 1137.92 386.394 1138.3 386.027C1138.68 385.653 1138.98 385.188 1139.19 384.634L1141.56 385.299C1141.31 386.103 1140.89 386.81 1140.3 387.42C1139.71 388.023 1138.98 388.494 1138.11 388.834C1137.25 389.166 1136.27 389.333 1135.19 389.333ZM1151.57 389.333C1150.24 389.333 1149.06 388.997 1148.04 388.324C1147.02 387.645 1146.23 386.689 1145.65 385.455C1145.08 384.215 1144.79 382.749 1144.79 381.058C1144.79 379.38 1145.08 377.925 1145.65 376.691C1146.23 375.458 1147.03 374.505 1148.05 373.833C1149.08 373.16 1150.26 372.824 1151.61 372.824C1152.65 372.824 1153.47 372.998 1154.07 373.344C1154.68 373.684 1155.15 374.072 1155.46 374.508C1155.79 374.938 1156.04 375.292 1156.22 375.569H1156.43V367.71H1158.88V389H1156.51V386.547H1156.22C1156.04 386.838 1155.79 387.205 1155.45 387.649C1155.12 388.085 1154.65 388.477 1154.03 388.823C1153.41 389.163 1152.59 389.333 1151.57 389.333ZM1151.9 387.129C1152.88 387.129 1153.71 386.872 1154.39 386.359C1155.07 385.84 1155.59 385.122 1155.94 384.208C1156.3 383.286 1156.47 382.222 1156.47 381.016C1156.47 379.824 1156.3 378.781 1155.95 377.887C1155.61 376.986 1155.09 376.286 1154.41 375.787C1153.74 375.281 1152.9 375.028 1151.9 375.028C1150.86 375.028 1149.99 375.295 1149.3 375.829C1148.61 376.355 1148.1 377.073 1147.75 377.981C1147.41 378.881 1147.24 379.893 1147.24 381.016C1147.24 382.153 1147.42 383.185 1147.76 384.114C1148.11 385.036 1148.63 385.77 1149.32 386.318C1150.01 386.858 1150.87 387.129 1151.9 387.129Z" fill="black"/>
<path d="M705.578 391V369.71H718.427V371.997H708.156V379.19H717.762V381.478H708.156V388.713H718.594V391H705.578ZM722.741 391V375.032H725.112V377.527H725.32C725.652 376.675 726.189 376.013 726.931 375.542C727.673 375.063 728.563 374.824 729.603 374.824C730.656 374.824 731.533 375.063 732.233 375.542C732.94 376.013 733.491 376.675 733.886 377.527H734.052C734.461 376.702 735.074 376.047 735.892 375.562C736.71 375.07 737.691 374.824 738.834 374.824C740.262 374.824 741.43 375.271 742.337 376.165C743.245 377.052 743.699 378.435 743.699 380.313V391H741.246V380.313C741.246 379.135 740.924 378.293 740.279 377.787C739.635 377.281 738.876 377.028 738.002 377.028C736.88 377.028 736.01 377.368 735.393 378.047C734.776 378.719 734.468 379.572 734.468 380.604V391H731.973V380.064C731.973 379.156 731.678 378.425 731.089 377.87C730.5 377.309 729.741 377.028 728.813 377.028C728.175 377.028 727.579 377.198 727.025 377.538C726.477 377.877 726.033 378.348 725.694 378.951C725.361 379.547 725.195 380.237 725.195 381.02V391H722.741ZM752.884 391.374C751.872 391.374 750.954 391.184 750.129 390.802C749.304 390.414 748.649 389.856 748.164 389.129C747.679 388.394 747.437 387.507 747.437 386.467C747.437 385.553 747.617 384.811 747.977 384.243C748.337 383.668 748.819 383.217 749.422 382.891C750.025 382.566 750.69 382.323 751.418 382.164C752.153 381.997 752.891 381.866 753.632 381.769C754.603 381.644 755.389 381.55 755.992 381.488C756.602 381.419 757.046 381.304 757.323 381.145C757.607 380.985 757.749 380.708 757.749 380.313V380.23C757.749 379.204 757.468 378.407 756.907 377.839C756.353 377.271 755.511 376.987 754.381 376.987C753.21 376.987 752.291 377.243 751.626 377.756C750.961 378.269 750.493 378.816 750.223 379.398L747.894 378.567C748.31 377.596 748.864 376.841 749.557 376.3C750.257 375.753 751.02 375.372 751.844 375.157C752.676 374.935 753.494 374.824 754.298 374.824C754.811 374.824 755.4 374.887 756.065 375.011C756.737 375.129 757.385 375.375 758.009 375.749C758.64 376.124 759.163 376.689 759.579 377.444C759.995 378.199 760.202 379.211 760.202 380.48V391H757.749V388.838H757.624C757.458 389.184 757.181 389.555 756.793 389.95C756.405 390.345 755.888 390.681 755.244 390.958C754.599 391.236 753.813 391.374 752.884 391.374ZM753.258 389.17C754.228 389.17 755.046 388.98 755.712 388.599C756.384 388.217 756.89 387.725 757.229 387.122C757.576 386.519 757.749 385.885 757.749 385.22V382.974C757.645 383.099 757.416 383.214 757.063 383.318C756.716 383.415 756.314 383.501 755.857 383.577C755.407 383.647 754.967 383.709 754.537 383.765C754.114 383.813 753.771 383.855 753.508 383.889C752.87 383.972 752.274 384.108 751.72 384.295C751.172 384.475 750.729 384.749 750.389 385.116C750.056 385.476 749.89 385.968 749.89 386.592C749.89 387.445 750.205 388.089 750.836 388.526C751.474 388.956 752.281 389.17 753.258 389.17ZM764.68 391V375.032H767.134V391H764.68ZM765.928 372.371C765.45 372.371 765.037 372.208 764.691 371.882C764.351 371.557 764.181 371.165 764.181 370.708C764.181 370.25 764.351 369.859 764.691 369.533C765.037 369.207 765.45 369.044 765.928 369.044C766.406 369.044 766.815 369.207 767.155 369.533C767.501 369.859 767.674 370.25 767.674 370.708C767.674 371.165 767.501 371.557 767.155 371.882C766.815 372.208 766.406 372.371 765.928 372.371ZM774.081 369.71V391H771.627V369.71H774.081Z" fill="black"/>
<path d="M494.392 508.381H491.689L499.507 487.091H502.168L509.985 508.381H507.283L500.92 490.459H500.754L494.392 508.381ZM495.39 500.065H506.285V502.352H495.39V500.065ZM512.548 514.369C512.132 514.369 511.761 514.335 511.436 514.265C511.11 514.203 510.885 514.141 510.76 514.078L511.384 511.916C511.98 512.068 512.506 512.124 512.964 512.082C513.421 512.041 513.827 511.836 514.18 511.469C514.54 511.108 514.87 510.523 515.168 509.712L515.625 508.464L509.72 492.413H512.382L516.789 505.138H516.956L521.364 492.413H524.025L517.247 510.71C516.942 511.535 516.564 512.217 516.114 512.758C515.663 513.305 515.14 513.711 514.544 513.974C513.955 514.238 513.29 514.369 512.548 514.369ZM533.178 508.714C531.737 508.714 530.472 508.371 529.384 507.685C528.303 506.999 527.457 506.039 526.847 504.805C526.244 503.572 525.943 502.13 525.943 500.481C525.943 498.817 526.244 497.365 526.847 496.125C527.457 494.884 528.303 493.921 529.384 493.235C530.472 492.549 531.737 492.206 533.178 492.206C534.62 492.206 535.881 492.549 536.962 493.235C538.05 493.921 538.896 494.884 539.499 496.125C540.109 497.365 540.414 498.817 540.414 500.481C540.414 502.13 540.109 503.572 539.499 504.805C538.896 506.039 538.05 506.999 536.962 507.685C535.881 508.371 534.62 508.714 533.178 508.714ZM533.178 506.51C534.273 506.51 535.174 506.229 535.881 505.668C536.588 505.107 537.111 504.369 537.451 503.454C537.791 502.539 537.96 501.548 537.96 500.481C537.96 499.413 537.791 498.419 537.451 497.497C537.111 496.575 536.588 495.83 535.881 495.262C535.174 494.694 534.273 494.409 533.178 494.409C532.083 494.409 531.182 494.694 530.475 495.262C529.768 495.83 529.245 496.575 528.906 497.497C528.566 498.419 528.396 499.413 528.396 500.481C528.396 501.548 528.566 502.539 528.906 503.454C529.245 504.369 529.768 505.107 530.475 505.668C531.182 506.229 532.083 506.51 533.178 506.51ZM554.222 501.853V492.413H556.675V508.381H554.222V505.678H554.055C553.681 506.489 553.099 507.179 552.309 507.747C551.519 508.309 550.521 508.589 549.315 508.589C548.317 508.589 547.43 508.371 546.654 507.934C545.878 507.491 545.268 506.825 544.824 505.938C544.381 505.044 544.159 503.918 544.159 502.56V492.413H546.612V502.393C546.612 503.558 546.938 504.486 547.589 505.179C548.248 505.872 549.086 506.219 550.105 506.219C550.715 506.219 551.335 506.063 551.966 505.751C552.604 505.439 553.137 504.961 553.567 504.317C554.004 503.672 554.222 502.851 554.222 501.853ZM561.501 508.381V487.091H563.955V494.95H564.163C564.343 494.673 564.592 494.319 564.911 493.89C565.237 493.453 565.701 493.065 566.304 492.725C566.914 492.379 567.739 492.206 568.778 492.206C570.123 492.206 571.308 492.542 572.334 493.214C573.359 493.886 574.16 494.839 574.735 496.073C575.31 497.306 575.598 498.762 575.598 500.439C575.598 502.13 575.31 503.596 574.735 504.836C574.16 506.07 573.363 507.026 572.344 507.706C571.325 508.378 570.151 508.714 568.82 508.714C567.794 508.714 566.973 508.544 566.356 508.205C565.739 507.858 565.265 507.466 564.932 507.03C564.599 506.586 564.343 506.219 564.163 505.928H563.872V508.381H561.501ZM563.913 500.397C563.913 501.603 564.09 502.667 564.443 503.589C564.797 504.504 565.313 505.221 565.992 505.741C566.672 506.254 567.503 506.51 568.487 506.51C569.513 506.51 570.369 506.24 571.055 505.699C571.748 505.152 572.268 504.417 572.614 503.495C572.968 502.567 573.145 501.534 573.145 500.397C573.145 499.275 572.971 498.263 572.625 497.362C572.285 496.454 571.769 495.737 571.076 495.21C570.39 494.676 569.527 494.409 568.487 494.409C567.489 494.409 566.651 494.662 565.972 495.168C565.292 495.667 564.78 496.367 564.433 497.268C564.086 498.162 563.913 499.205 563.913 500.397Z" fill="black"/>
<path d="M649.278 500.091H647.431L652.772 485.546H654.59L659.931 500.091H658.085L653.738 487.847H653.624L649.278 500.091ZM649.96 494.41H657.403V495.972H649.96V494.41ZM663.646 485.546V500.091H661.97V485.546H663.646ZM666.716 500.091V489.182H668.392V500.091H666.716ZM667.568 487.364C667.241 487.364 666.96 487.253 666.723 487.03C666.491 486.808 666.375 486.54 666.375 486.228C666.375 485.915 666.491 485.648 666.723 485.425C666.96 485.203 667.241 485.091 667.568 485.091C667.895 485.091 668.174 485.203 668.406 485.425C668.643 485.648 668.761 485.915 668.761 486.228C668.761 486.54 668.643 486.808 668.406 487.03C668.174 487.253 667.895 487.364 667.568 487.364ZM672.683 500.205C672.333 500.205 672.032 500.08 671.781 499.829C671.53 499.578 671.405 499.277 671.405 498.927C671.405 498.576 671.53 498.276 671.781 498.025C672.032 497.774 672.333 497.648 672.683 497.648C673.034 497.648 673.334 497.774 673.585 498.025C673.836 498.276 673.962 498.576 673.962 498.927C673.962 499.159 673.903 499.372 673.784 499.566C673.671 499.76 673.517 499.916 673.323 500.035C673.133 500.148 672.92 500.205 672.683 500.205ZM677.794 500.091H675.947L681.288 485.546H683.106L688.447 500.091H686.6L682.254 487.847H682.14L677.794 500.091ZM678.475 494.41H685.919V495.972H678.475V494.41ZM690.198 504.182C689.914 504.182 689.66 504.159 689.438 504.111C689.215 504.069 689.061 504.026 688.976 503.983L689.402 502.506C689.809 502.61 690.169 502.648 690.482 502.62C690.794 502.591 691.071 502.452 691.313 502.201C691.559 501.955 691.784 501.554 691.987 501.001L692.3 500.148L688.266 489.182H690.084L693.095 497.876H693.209L696.22 489.182H698.039L693.408 501.682C693.2 502.246 692.941 502.712 692.634 503.081C692.326 503.456 691.968 503.733 691.561 503.912C691.159 504.092 690.704 504.182 690.198 504.182ZM704.292 500.319C703.307 500.319 702.443 500.084 701.7 499.616C700.961 499.147 700.383 498.491 699.967 497.648C699.555 496.805 699.349 495.821 699.349 494.694C699.349 493.557 699.555 492.565 699.967 491.718C700.383 490.87 700.961 490.212 701.7 489.743C702.443 489.275 703.307 489.04 704.292 489.04C705.277 489.04 706.139 489.275 706.877 489.743C707.621 490.212 708.198 490.87 708.61 491.718C709.027 492.565 709.235 493.557 709.235 494.694C709.235 495.821 709.027 496.805 708.61 497.648C708.198 498.491 707.621 499.147 706.877 499.616C706.139 500.084 705.277 500.319 704.292 500.319ZM704.292 498.813C705.04 498.813 705.656 498.621 706.139 498.238C706.622 497.854 706.979 497.35 707.211 496.725C707.443 496.1 707.559 495.423 707.559 494.694C707.559 493.965 707.443 493.285 707.211 492.655C706.979 492.026 706.622 491.517 706.139 491.128C705.656 490.74 705.04 490.546 704.292 490.546C703.544 490.546 702.928 490.74 702.445 491.128C701.963 491.517 701.605 492.026 701.373 492.655C701.141 493.285 701.025 493.965 701.025 494.694C701.025 495.423 701.141 496.1 701.373 496.725C701.605 497.35 701.963 497.854 702.445 498.238C702.928 498.621 703.544 498.813 704.292 498.813ZM718.669 495.631V489.182H720.345V500.091H718.669V498.245H718.555C718.3 498.799 717.902 499.27 717.362 499.658C716.822 500.042 716.14 500.233 715.317 500.233C714.635 500.233 714.029 500.084 713.498 499.786C712.968 499.483 712.551 499.028 712.248 498.422C711.945 497.812 711.794 497.042 711.794 496.114V489.182H713.47V496.001C713.47 496.796 713.693 497.43 714.138 497.904C714.587 498.377 715.16 498.614 715.856 498.614C716.273 498.614 716.697 498.508 717.128 498.295C717.563 498.081 717.928 497.755 718.221 497.314C718.52 496.874 718.669 496.313 718.669 495.631ZM723.642 500.091V485.546H725.318V490.915H725.46C725.584 490.726 725.754 490.484 725.972 490.191C726.194 489.893 726.512 489.627 726.923 489.395C727.34 489.159 727.904 489.04 728.614 489.04C729.532 489.04 730.342 489.27 731.043 489.729C731.744 490.188 732.29 490.84 732.683 491.682C733.076 492.525 733.273 493.519 733.273 494.665C733.273 495.821 733.076 496.822 732.683 497.67C732.29 498.512 731.746 499.166 731.05 499.63C730.354 500.089 729.551 500.319 728.642 500.319C727.941 500.319 727.38 500.203 726.959 499.971C726.538 499.734 726.213 499.466 725.986 499.168C725.759 498.865 725.584 498.614 725.46 498.415H725.262V500.091H723.642ZM725.29 494.637C725.29 495.461 725.411 496.188 725.652 496.817C725.894 497.442 726.246 497.932 726.71 498.287C727.174 498.638 727.743 498.813 728.415 498.813C729.116 498.813 729.7 498.628 730.169 498.259C730.643 497.885 730.998 497.383 731.235 496.753C731.476 496.119 731.597 495.413 731.597 494.637C731.597 493.87 731.478 493.179 731.242 492.563C731.01 491.943 730.657 491.453 730.183 491.093C729.715 490.728 729.125 490.546 728.415 490.546C727.733 490.546 727.16 490.719 726.696 491.064C726.232 491.405 725.882 491.884 725.645 492.499C725.408 493.11 725.29 493.822 725.29 494.637ZM744.218 503.927C742.769 503.927 741.488 503.728 740.375 503.33C739.262 502.937 738.327 502.357 737.57 501.59C736.812 500.823 736.239 499.883 735.851 498.77C735.463 497.658 735.269 496.384 735.269 494.949C735.269 493.562 735.465 492.322 735.858 491.228C736.256 490.134 736.831 489.206 737.584 488.444C738.342 487.677 739.26 487.092 740.34 486.689C741.424 486.287 742.65 486.086 744.019 486.086C745.349 486.086 746.514 486.304 747.513 486.739C748.517 487.17 749.355 487.755 750.027 488.493C750.704 489.227 751.211 490.054 751.547 490.972C751.888 491.891 752.058 492.838 752.058 493.813C752.058 494.5 752.025 495.196 751.959 495.901C751.893 496.607 751.753 497.255 751.54 497.847C751.327 498.434 750.998 498.908 750.553 499.268C750.112 499.627 749.516 499.807 748.763 499.807C748.432 499.807 748.067 499.755 747.669 499.651C747.271 499.547 746.919 499.374 746.611 499.133C746.303 498.891 746.121 498.567 746.064 498.16H745.979C745.865 498.434 745.69 498.695 745.453 498.941C745.221 499.187 744.916 499.384 744.537 499.53C744.163 499.677 743.706 499.741 743.166 499.722C742.551 499.698 742.009 499.561 741.54 499.31C741.071 499.054 740.678 498.709 740.361 498.273C740.048 497.833 739.812 497.324 739.651 496.746C739.494 496.164 739.416 495.537 739.416 494.864C739.416 494.225 739.511 493.64 739.7 493.11C739.89 492.58 740.153 492.116 740.489 491.718C740.83 491.32 741.227 491.003 741.682 490.766C742.141 490.525 742.636 490.376 743.166 490.319C743.64 490.271 744.071 490.293 744.459 490.383C744.847 490.468 745.167 490.598 745.418 490.773C745.669 490.944 745.827 491.133 745.894 491.341H745.979V490.546H747.485V496.966C747.485 497.364 747.596 497.715 747.818 498.018C748.041 498.321 748.365 498.472 748.791 498.472C749.274 498.472 749.644 498.306 749.899 497.975C750.16 497.644 750.337 497.132 750.432 496.441C750.531 495.75 750.581 494.864 750.581 493.785C750.581 493.15 750.494 492.525 750.318 491.91C750.148 491.289 749.887 490.709 749.537 490.17C749.191 489.63 748.753 489.154 748.223 488.742C747.693 488.33 747.07 488.008 746.355 487.776C745.645 487.539 744.838 487.421 743.933 487.421C742.821 487.421 741.824 487.594 740.943 487.939C740.067 488.28 739.322 488.78 738.706 489.438C738.095 490.091 737.629 490.887 737.307 491.824C736.99 492.757 736.831 493.818 736.831 495.006C736.831 496.214 736.99 497.286 737.307 498.224C737.629 499.161 738.102 499.952 738.727 500.596C739.357 501.24 740.136 501.727 741.064 502.059C741.992 502.395 743.062 502.563 744.274 502.563C744.795 502.563 745.309 502.513 745.816 502.414C746.322 502.314 746.77 502.206 747.158 502.087C747.546 501.969 747.825 501.881 747.996 501.824L748.394 503.131C748.1 503.254 747.717 503.377 747.243 503.501C746.774 503.624 746.272 503.725 745.737 503.806C745.207 503.886 744.7 503.927 744.218 503.927ZM743.394 498.273C744.028 498.273 744.542 498.145 744.935 497.89C745.328 497.634 745.614 497.248 745.794 496.732C745.974 496.216 746.064 495.565 746.064 494.779C746.064 493.983 745.965 493.363 745.766 492.918C745.567 492.473 745.273 492.161 744.885 491.981C744.497 491.801 744.019 491.711 743.45 491.711C742.911 491.711 742.449 491.853 742.066 492.137C741.687 492.416 741.396 492.79 741.192 493.259C740.993 493.723 740.894 494.23 740.894 494.779C740.894 495.385 740.974 495.956 741.135 496.491C741.296 497.021 741.559 497.452 741.923 497.783C742.288 498.11 742.778 498.273 743.394 498.273ZM758.971 504.41C758.161 504.41 757.465 504.305 756.883 504.097C756.3 503.894 755.815 503.624 755.427 503.287C755.043 502.956 754.738 502.601 754.51 502.222L755.846 501.285C755.997 501.483 756.189 501.711 756.421 501.966C756.653 502.227 756.97 502.452 757.373 502.641C757.78 502.835 758.313 502.932 758.971 502.932C759.851 502.932 760.578 502.719 761.151 502.293C761.724 501.867 762.01 501.199 762.01 500.29V498.074H761.868C761.745 498.273 761.57 498.519 761.343 498.813C761.12 499.102 760.798 499.36 760.377 499.587C759.96 499.81 759.397 499.921 758.687 499.921C757.806 499.921 757.015 499.713 756.314 499.296C755.618 498.879 755.067 498.273 754.66 497.478C754.257 496.682 754.056 495.716 754.056 494.58C754.056 493.463 754.252 492.49 754.645 491.661C755.038 490.828 755.585 490.184 756.286 489.729C756.987 489.27 757.796 489.04 758.715 489.04C759.425 489.04 759.989 489.159 760.405 489.395C760.827 489.627 761.149 489.893 761.371 490.191C761.599 490.484 761.774 490.726 761.897 490.915H762.067V489.182H763.687V500.404C763.687 501.341 763.474 502.104 763.047 502.691C762.626 503.283 762.058 503.716 761.343 503.991C760.633 504.27 759.842 504.41 758.971 504.41ZM758.914 498.415C759.586 498.415 760.154 498.261 760.618 497.954C761.082 497.646 761.435 497.203 761.677 496.626C761.918 496.048 762.039 495.357 762.039 494.552C762.039 493.766 761.921 493.072 761.684 492.471C761.447 491.869 761.097 491.398 760.633 491.057C760.169 490.716 759.596 490.546 758.914 490.546C758.204 490.546 757.612 490.726 757.138 491.086C756.67 491.446 756.317 491.929 756.08 492.535C755.848 493.141 755.732 493.813 755.732 494.552C755.732 495.309 755.85 495.979 756.087 496.562C756.329 497.139 756.684 497.594 757.153 497.925C757.626 498.252 758.213 498.415 758.914 498.415ZM766.755 500.091V489.182H768.374V490.887H768.516C768.743 490.304 769.11 489.852 769.617 489.53C770.124 489.204 770.732 489.04 771.442 489.04C772.162 489.04 772.761 489.204 773.239 489.53C773.722 489.852 774.099 490.304 774.368 490.887H774.482C774.761 490.323 775.18 489.876 775.739 489.545C776.298 489.208 776.968 489.04 777.749 489.04C778.724 489.04 779.522 489.346 780.143 489.956C780.763 490.563 781.073 491.507 781.073 492.79V500.091H779.397V492.79C779.397 491.985 779.177 491.41 778.736 491.064C778.296 490.719 777.778 490.546 777.181 490.546C776.414 490.546 775.82 490.778 775.398 491.242C774.977 491.701 774.766 492.284 774.766 492.989V500.091H773.062V492.62C773.062 492 772.86 491.5 772.458 491.121C772.055 490.738 771.537 490.546 770.903 490.546C770.467 490.546 770.06 490.662 769.681 490.894C769.307 491.126 769.004 491.448 768.772 491.86C768.545 492.267 768.431 492.738 768.431 493.273V500.091H766.755ZM787.348 500.347C786.657 500.347 786.029 500.217 785.466 499.956C784.902 499.691 784.455 499.31 784.123 498.813C783.792 498.311 783.626 497.705 783.626 496.995C783.626 496.37 783.749 495.863 783.996 495.475C784.242 495.082 784.571 494.774 784.983 494.552C785.395 494.329 785.849 494.163 786.346 494.054C786.848 493.941 787.353 493.851 787.859 493.785C788.522 493.699 789.059 493.635 789.471 493.593C789.888 493.546 790.191 493.467 790.381 493.358C790.575 493.25 790.672 493.06 790.672 492.79V492.733C790.672 492.033 790.48 491.488 790.096 491.1C789.718 490.712 789.142 490.518 788.371 490.518C787.57 490.518 786.943 490.693 786.488 491.043C786.034 491.394 785.714 491.768 785.53 492.165L783.939 491.597C784.223 490.934 784.602 490.418 785.075 490.049C785.553 489.675 786.074 489.414 786.638 489.268C787.206 489.116 787.765 489.04 788.314 489.04C788.664 489.04 789.067 489.083 789.521 489.168C789.98 489.249 790.423 489.417 790.849 489.672C791.28 489.928 791.638 490.314 791.922 490.83C792.206 491.346 792.348 492.037 792.348 492.904V500.091H790.672V498.614H790.586C790.473 498.851 790.283 499.104 790.018 499.374C789.753 499.644 789.4 499.874 788.96 500.063C788.52 500.252 787.982 500.347 787.348 500.347ZM787.604 498.841C788.266 498.841 788.825 498.711 789.28 498.451C789.739 498.19 790.085 497.854 790.317 497.442C790.553 497.03 790.672 496.597 790.672 496.143V494.608C790.601 494.694 790.444 494.772 790.203 494.843C789.966 494.909 789.692 494.968 789.379 495.02C789.071 495.068 788.771 495.11 788.477 495.148C788.188 495.181 787.954 495.21 787.774 495.233C787.338 495.29 786.931 495.383 786.552 495.51C786.178 495.634 785.875 495.821 785.643 496.072C785.416 496.318 785.302 496.654 785.302 497.08C785.302 497.662 785.518 498.103 785.949 498.401C786.384 498.695 786.936 498.841 787.604 498.841ZM795.407 500.091V489.182H797.083V500.091H795.407ZM796.259 487.364C795.933 487.364 795.651 487.253 795.414 487.03C795.182 486.808 795.066 486.54 795.066 486.228C795.066 485.915 795.182 485.648 795.414 485.425C795.651 485.203 795.933 485.091 796.259 485.091C796.586 485.091 796.865 485.203 797.097 485.425C797.334 485.648 797.453 485.915 797.453 486.228C797.453 486.54 797.334 486.808 797.097 487.03C796.865 487.253 796.586 487.364 796.259 487.364ZM801.829 485.546V500.091H800.153V485.546H801.829ZM806.121 500.205C805.771 500.205 805.47 500.08 805.219 499.829C804.968 499.578 804.843 499.277 804.843 498.927C804.843 498.576 804.968 498.276 805.219 498.025C805.47 497.774 805.771 497.648 806.121 497.648C806.471 497.648 806.772 497.774 807.023 498.025C807.274 498.276 807.399 498.576 807.399 498.927C807.399 499.159 807.34 499.372 807.222 499.566C807.108 499.76 806.954 499.916 806.76 500.035C806.571 500.148 806.358 500.205 806.121 500.205ZM814.839 500.319C813.816 500.319 812.936 500.077 812.197 499.594C811.458 499.111 810.89 498.446 810.492 497.599C810.095 496.751 809.896 495.783 809.896 494.694C809.896 493.586 810.099 492.608 810.507 491.76C810.919 490.908 811.491 490.243 812.225 489.765C812.964 489.282 813.826 489.04 814.811 489.04C815.578 489.04 816.269 489.182 816.884 489.466C817.5 489.751 818.004 490.148 818.397 490.66C818.79 491.171 819.034 491.768 819.129 492.449H817.453C817.325 491.952 817.041 491.512 816.6 491.128C816.165 490.74 815.578 490.546 814.839 490.546C814.186 490.546 813.613 490.716 813.12 491.057C812.633 491.394 812.251 491.869 811.977 492.485C811.707 493.096 811.572 493.813 811.572 494.637C811.572 495.48 811.704 496.214 811.97 496.839C812.24 497.464 812.618 497.949 813.106 498.295C813.598 498.64 814.176 498.813 814.839 498.813C815.275 498.813 815.67 498.737 816.025 498.586C816.38 498.434 816.681 498.216 816.927 497.932C817.173 497.648 817.348 497.307 817.453 496.91H819.129C819.034 497.554 818.8 498.134 818.426 498.65C818.056 499.161 817.566 499.568 816.955 499.871C816.349 500.17 815.644 500.319 814.839 500.319ZM826.011 500.319C825.026 500.319 824.162 500.084 823.419 499.616C822.68 499.147 822.102 498.491 821.686 497.648C821.274 496.805 821.068 495.821 821.068 494.694C821.068 493.557 821.274 492.565 821.686 491.718C822.102 490.87 822.68 490.212 823.419 489.743C824.162 489.275 825.026 489.04 826.011 489.04C826.996 489.04 827.857 489.275 828.596 489.743C829.339 490.212 829.917 490.87 830.329 491.718C830.746 492.565 830.954 493.557 830.954 494.694C830.954 495.821 830.746 496.805 830.329 497.648C829.917 498.491 829.339 499.147 828.596 499.616C827.857 500.084 826.996 500.319 826.011 500.319ZM826.011 498.813C826.759 498.813 827.374 498.621 827.857 498.238C828.34 497.854 828.698 497.35 828.93 496.725C829.162 496.1 829.278 495.423 829.278 494.694C829.278 493.965 829.162 493.285 828.93 492.655C828.698 492.026 828.34 491.517 827.857 491.128C827.374 490.74 826.759 490.546 826.011 490.546C825.263 490.546 824.647 490.74 824.164 491.128C823.681 491.517 823.324 492.026 823.092 492.655C822.86 493.285 822.744 493.965 822.744 494.694C822.744 495.423 822.86 496.1 823.092 496.725C823.324 497.35 823.681 497.854 824.164 498.238C824.647 498.621 825.263 498.813 826.011 498.813ZM833.513 500.091V489.182H835.132V490.887H835.274C835.501 490.304 835.868 489.852 836.375 489.53C836.881 489.204 837.49 489.04 838.2 489.04C838.92 489.04 839.519 489.204 839.997 489.53C840.48 489.852 840.856 490.304 841.126 490.887H841.24C841.519 490.323 841.938 489.876 842.497 489.545C843.056 489.208 843.726 489.04 844.507 489.04C845.482 489.04 846.28 489.346 846.9 489.956C847.521 490.563 847.831 491.507 847.831 492.79V500.091H846.155V492.79C846.155 491.985 845.934 491.41 845.494 491.064C845.054 490.719 844.535 490.546 843.939 490.546C843.172 490.546 842.577 490.778 842.156 491.242C841.735 491.701 841.524 492.284 841.524 492.989V500.091H839.819V492.62C839.819 492 839.618 491.5 839.216 491.121C838.813 490.738 838.295 490.546 837.66 490.546C837.225 490.546 836.818 490.662 836.439 490.894C836.065 491.126 835.762 491.448 835.53 491.86C835.302 492.267 835.189 492.738 835.189 493.273V500.091H833.513Z" fill="black"/>
<path d="M891.765 487.801V509.091H889.187V490.504H889.062L883.864 493.955V491.336L889.187 487.801H891.765ZM897.888 509.091V507.22L904.916 499.527C905.74 498.626 906.419 497.843 906.953 497.178C907.487 496.506 907.882 495.875 908.138 495.286C908.402 494.69 908.533 494.066 908.533 493.415C908.533 492.666 908.353 492.018 907.993 491.471C907.639 490.923 907.154 490.5 906.537 490.202C905.921 489.904 905.227 489.755 904.458 489.755C903.64 489.755 902.927 489.925 902.317 490.265C901.714 490.597 901.246 491.065 900.913 491.668C900.587 492.271 900.425 492.978 900.425 493.789H897.971C897.971 492.541 898.259 491.446 898.834 490.504C899.409 489.561 900.192 488.827 901.184 488.3C902.182 487.773 903.301 487.51 904.541 487.51C905.789 487.51 906.894 487.773 907.858 488.3C908.821 488.827 909.576 489.537 910.124 490.431C910.671 491.325 910.945 492.32 910.945 493.415C910.945 494.198 910.803 494.964 910.519 495.712C910.242 496.454 909.757 497.282 909.063 498.197C908.377 499.105 907.424 500.213 906.205 501.523L901.423 506.638V506.804H911.319V509.091H897.888Z" fill="black"/>
<path d="M1099.5 510H1094.11V492.545H1099.74C1101.43 492.545 1102.88 492.895 1104.09 493.594C1105.29 494.287 1106.21 495.284 1106.86 496.585C1107.5 497.881 1107.82 499.432 1107.82 501.239C1107.82 503.057 1107.49 504.622 1106.85 505.935C1106.2 507.241 1105.26 508.247 1104.02 508.952C1102.78 509.651 1101.27 510 1099.5 510ZM1096.23 508.125H1099.36C1100.81 508.125 1102 507.847 1102.95 507.29C1103.9 506.733 1104.61 505.94 1105.07 504.912C1105.54 503.884 1105.77 502.659 1105.77 501.239C1105.77 499.83 1105.54 498.616 1105.08 497.599C1104.62 496.577 1103.93 495.793 1103.02 495.247C1102.11 494.696 1100.97 494.42 1099.6 494.42H1096.23V508.125ZM1116.58 510.273C1115.32 510.273 1114.23 509.994 1113.32 509.438C1112.41 508.875 1111.7 508.091 1111.21 507.085C1110.72 506.074 1110.48 504.898 1110.48 503.557C1110.48 502.216 1110.72 501.034 1111.21 500.011C1111.7 498.983 1112.39 498.182 1113.27 497.608C1114.16 497.028 1115.19 496.739 1116.38 496.739C1117.06 496.739 1117.73 496.852 1118.39 497.08C1119.06 497.307 1119.66 497.676 1120.21 498.188C1120.76 498.693 1121.19 499.364 1121.51 500.199C1121.84 501.034 1122 502.062 1122 503.284V504.136H1111.91V502.398H1119.95C1119.95 501.659 1119.81 501 1119.51 500.42C1119.22 499.841 1118.81 499.384 1118.27 499.048C1117.73 498.713 1117.1 498.545 1116.38 498.545C1115.57 498.545 1114.88 498.744 1114.3 499.142C1113.72 499.534 1113.27 500.045 1112.96 500.676C1112.64 501.307 1112.49 501.983 1112.49 502.705V503.864C1112.49 504.852 1112.66 505.69 1113 506.378C1113.35 507.06 1113.83 507.58 1114.44 507.938C1115.05 508.29 1115.77 508.466 1116.58 508.466C1117.11 508.466 1117.59 508.392 1118.01 508.244C1118.44 508.091 1118.82 507.864 1119.13 507.562C1119.44 507.256 1119.68 506.875 1119.85 506.42L1121.8 506.966C1121.59 507.625 1121.25 508.205 1120.76 508.705C1120.28 509.199 1119.68 509.585 1118.97 509.864C1118.26 510.136 1117.47 510.273 1116.58 510.273ZM1127.07 492.545V510H1125.06V492.545H1127.07ZM1136.24 510.273C1134.98 510.273 1133.89 509.994 1132.98 509.438C1132.07 508.875 1131.37 508.091 1130.87 507.085C1130.39 506.074 1130.14 504.898 1130.14 503.557C1130.14 502.216 1130.39 501.034 1130.87 500.011C1131.37 498.983 1132.06 498.182 1132.94 497.608C1133.82 497.028 1134.86 496.739 1136.04 496.739C1136.72 496.739 1137.39 496.852 1138.06 497.08C1138.72 497.307 1139.33 497.676 1139.87 498.188C1140.42 498.693 1140.85 499.364 1141.18 500.199C1141.5 501.034 1141.66 502.062 1141.66 503.284V504.136H1131.57V502.398H1139.62C1139.62 501.659 1139.47 501 1139.18 500.42C1138.89 499.841 1138.47 499.384 1137.93 499.048C1137.4 498.713 1136.77 498.545 1136.04 498.545C1135.24 498.545 1134.54 498.744 1133.96 499.142C1133.38 499.534 1132.93 500.045 1132.62 500.676C1132.31 501.307 1132.15 501.983 1132.15 502.705V503.864C1132.15 504.852 1132.32 505.69 1132.66 506.378C1133.01 507.06 1133.49 507.58 1134.1 507.938C1134.72 508.29 1135.43 508.466 1136.24 508.466C1136.77 508.466 1137.25 508.392 1137.68 508.244C1138.11 508.091 1138.48 507.864 1138.79 507.562C1139.1 507.256 1139.35 506.875 1139.52 506.42L1141.46 506.966C1141.25 507.625 1140.91 508.205 1140.43 508.705C1139.95 509.199 1139.35 509.585 1138.64 509.864C1137.93 510.136 1137.13 510.273 1136.24 510.273ZM1150.42 496.909V498.614H1143.63V496.909H1150.42ZM1145.61 493.773H1147.62V506.25C1147.62 506.818 1147.7 507.244 1147.87 507.528C1148.04 507.807 1148.25 507.994 1148.52 508.091C1148.78 508.182 1149.06 508.227 1149.36 508.227C1149.58 508.227 1149.76 508.216 1149.91 508.193C1150.05 508.165 1150.16 508.142 1150.25 508.125L1150.66 509.932C1150.52 509.983 1150.33 510.034 1150.08 510.085C1149.84 510.142 1149.53 510.17 1149.16 510.17C1148.59 510.17 1148.03 510.048 1147.49 509.804C1146.95 509.56 1146.5 509.188 1146.14 508.688C1145.79 508.188 1145.61 507.557 1145.61 506.795V493.773ZM1158.79 510.273C1157.53 510.273 1156.44 509.994 1155.53 509.438C1154.62 508.875 1153.92 508.091 1153.42 507.085C1152.93 506.074 1152.69 504.898 1152.69 503.557C1152.69 502.216 1152.93 501.034 1153.42 500.011C1153.92 498.983 1154.6 498.182 1155.48 497.608C1156.37 497.028 1157.4 496.739 1158.59 496.739C1159.27 496.739 1159.94 496.852 1160.61 497.08C1161.27 497.307 1161.88 497.676 1162.42 498.188C1162.97 498.693 1163.4 499.364 1163.73 500.199C1164.05 501.034 1164.21 502.062 1164.21 503.284V504.136H1154.12V502.398H1162.17C1162.17 501.659 1162.02 501 1161.72 500.42C1161.43 499.841 1161.02 499.384 1160.48 499.048C1159.94 498.713 1159.31 498.545 1158.59 498.545C1157.78 498.545 1157.09 498.744 1156.51 499.142C1155.93 499.534 1155.48 500.045 1155.17 500.676C1154.86 501.307 1154.7 501.983 1154.7 502.705V503.864C1154.7 504.852 1154.87 505.69 1155.21 506.378C1155.56 507.06 1156.04 507.58 1156.65 507.938C1157.26 508.29 1157.98 508.466 1158.79 508.466C1159.32 508.466 1159.8 508.392 1160.22 508.244C1160.65 508.091 1161.03 507.864 1161.34 507.562C1161.65 507.256 1161.89 506.875 1162.06 506.42L1164.01 506.966C1163.8 507.625 1163.46 508.205 1162.98 508.705C1162.49 509.199 1161.9 509.585 1161.19 509.864C1160.48 510.136 1159.68 510.273 1158.79 510.273Z" fill="black"/>
<path d="M333.451 495H330.748L338.566 473.71H341.227L349.045 495H346.342L339.98 477.078H339.814L333.451 495ZM334.449 486.683H345.344V488.97H334.449V486.683ZM354.482 473.71V495H352.029V473.71H354.482ZM358.975 495V479.032H361.429V495H358.975ZM360.223 476.371C359.745 476.371 359.332 476.208 358.986 475.882C358.646 475.557 358.476 475.165 358.476 474.708C358.476 474.25 358.646 473.859 358.986 473.533C359.332 473.207 359.745 473.044 360.223 473.044C360.701 473.044 361.11 473.207 361.45 473.533C361.796 473.859 361.969 474.25 361.969 474.708C361.969 475.165 361.796 475.557 361.45 475.882C361.11 476.208 360.701 476.371 360.223 476.371Z" fill="black"/>
<path d="M1016.2 516V514.129L1023.23 506.436C1024.06 505.535 1024.74 504.752 1025.27 504.086C1025.8 503.414 1026.2 502.784 1026.45 502.194C1026.72 501.598 1026.85 500.975 1026.85 500.323C1026.85 499.575 1026.67 498.927 1026.31 498.379C1025.96 497.832 1025.47 497.409 1024.85 497.111C1024.24 496.813 1023.54 496.664 1022.77 496.664C1021.96 496.664 1021.24 496.834 1020.63 497.173C1020.03 497.506 1019.56 497.974 1019.23 498.577C1018.9 499.18 1018.74 499.887 1018.74 500.697H1016.29C1016.29 499.45 1016.57 498.355 1017.15 497.412C1017.73 496.47 1018.51 495.735 1019.5 495.209C1020.5 494.682 1021.62 494.418 1022.86 494.418C1024.1 494.418 1025.21 494.682 1026.17 495.209C1027.14 495.735 1027.89 496.446 1028.44 497.34C1028.99 498.234 1029.26 499.228 1029.26 500.323C1029.26 501.106 1029.12 501.872 1028.83 502.621C1028.56 503.362 1028.07 504.19 1027.38 505.105C1026.69 506.013 1025.74 507.122 1024.52 508.432L1019.74 513.547V513.713H1029.64V516H1016.2ZM1040.87 516.291C1039.31 516.291 1037.97 515.865 1036.87 515.012C1035.77 514.153 1034.93 512.909 1034.34 511.28C1033.76 509.645 1033.47 507.67 1033.47 505.355C1033.47 503.054 1033.76 501.089 1034.34 499.46C1034.93 497.825 1035.78 496.577 1036.88 495.718C1037.99 494.852 1039.32 494.418 1040.87 494.418C1042.43 494.418 1043.75 494.852 1044.85 495.718C1045.96 496.577 1046.81 497.825 1047.39 499.46C1047.98 501.089 1048.27 503.054 1048.27 505.355C1048.27 507.67 1047.98 509.645 1047.4 511.28C1046.82 512.909 1045.98 514.153 1044.88 515.012C1043.77 515.865 1042.44 516.291 1040.87 516.291ZM1040.87 514.004C1042.43 514.004 1043.63 513.256 1044.49 511.759C1045.35 510.262 1045.78 508.127 1045.78 505.355C1045.78 503.511 1045.58 501.942 1045.19 500.646C1044.8 499.35 1044.24 498.362 1043.5 497.683C1042.78 497.004 1041.9 496.664 1040.87 496.664C1039.33 496.664 1038.13 497.423 1037.27 498.941C1036.4 500.451 1035.97 502.59 1035.97 505.355C1035.97 507.198 1036.16 508.765 1036.55 510.054C1036.94 511.343 1037.49 512.323 1038.22 512.996C1038.96 513.668 1039.84 514.004 1040.87 514.004Z" fill="black"/>
<path d="M1179.83 511H1177.61L1184.02 493.545H1186.2L1192.61 511H1190.4L1185.18 496.307H1185.05L1179.83 511ZM1180.65 504.182H1189.58V506.057H1180.65V504.182ZM1195.06 515.909V497.909H1197V499.989H1197.24C1197.39 499.761 1197.59 499.472 1197.86 499.119C1198.12 498.761 1198.5 498.443 1199 498.165C1199.5 497.881 1200.17 497.739 1201.03 497.739C1202.13 497.739 1203.1 498.014 1203.94 498.565C1204.78 499.116 1205.44 499.898 1205.91 500.909C1206.38 501.92 1206.62 503.114 1206.62 504.489C1206.62 505.875 1206.38 507.077 1205.91 508.094C1205.44 509.105 1204.78 509.889 1203.95 510.446C1203.11 510.997 1202.15 511.273 1201.06 511.273C1200.22 511.273 1199.55 511.134 1199.04 510.855C1198.53 510.571 1198.14 510.25 1197.87 509.892C1197.6 509.528 1197.39 509.227 1197.24 508.989H1197.07V515.909H1195.06ZM1197.04 504.455C1197.04 505.443 1197.18 506.315 1197.47 507.071C1197.76 507.821 1198.18 508.409 1198.74 508.835C1199.3 509.256 1199.98 509.466 1200.79 509.466C1201.63 509.466 1202.33 509.244 1202.89 508.801C1203.46 508.352 1203.89 507.75 1204.17 506.994C1204.46 506.233 1204.61 505.386 1204.61 504.455C1204.61 503.534 1204.46 502.705 1204.18 501.966C1203.9 501.222 1203.48 500.634 1202.91 500.202C1202.35 499.764 1201.64 499.545 1200.79 499.545C1199.97 499.545 1199.28 499.753 1198.72 500.168C1198.17 500.577 1197.75 501.151 1197.46 501.889C1197.18 502.622 1197.04 503.477 1197.04 504.455ZM1209.68 515.909V497.909H1211.63V499.989H1211.87C1212.01 499.761 1212.22 499.472 1212.48 499.119C1212.75 498.761 1213.13 498.443 1213.62 498.165C1214.12 497.881 1214.8 497.739 1215.65 497.739C1216.75 497.739 1217.72 498.014 1218.57 498.565C1219.41 499.116 1220.06 499.898 1220.53 500.909C1221.01 501.92 1221.24 503.114 1221.24 504.489C1221.24 505.875 1221.01 507.077 1220.53 508.094C1220.06 509.105 1219.41 509.889 1218.57 510.446C1217.74 510.997 1216.78 511.273 1215.68 511.273C1214.84 511.273 1214.17 511.134 1213.66 510.855C1213.16 510.571 1212.77 510.25 1212.5 509.892C1212.22 509.528 1212.01 509.227 1211.87 508.989H1211.7V515.909H1209.68ZM1211.66 504.455C1211.66 505.443 1211.81 506.315 1212.1 507.071C1212.39 507.821 1212.81 508.409 1213.37 508.835C1213.92 509.256 1214.61 509.466 1215.41 509.466C1216.25 509.466 1216.95 509.244 1217.52 508.801C1218.09 508.352 1218.51 507.75 1218.8 506.994C1219.09 506.233 1219.23 505.386 1219.23 504.455C1219.23 503.534 1219.09 502.705 1218.8 501.966C1218.53 501.222 1218.1 500.634 1217.53 500.202C1216.97 499.764 1216.26 499.545 1215.41 499.545C1214.59 499.545 1213.91 499.753 1213.35 500.168C1212.79 500.577 1212.37 501.151 1212.09 501.889C1211.8 502.622 1211.66 503.477 1211.66 504.455ZM1224.31 511V497.909H1226.25V499.886H1226.39C1226.63 499.239 1227.06 498.713 1227.68 498.31C1228.31 497.906 1229.01 497.705 1229.8 497.705C1229.95 497.705 1230.13 497.707 1230.35 497.713C1230.57 497.719 1230.74 497.727 1230.86 497.739V499.784C1230.79 499.767 1230.63 499.741 1230.39 499.707C1230.15 499.668 1229.89 499.648 1229.63 499.648C1228.99 499.648 1228.42 499.781 1227.92 500.048C1227.43 500.31 1227.04 500.673 1226.75 501.139C1226.46 501.599 1226.32 502.125 1226.32 502.716V511H1224.31ZM1238.16 511.273C1236.98 511.273 1235.94 510.991 1235.05 510.429C1234.16 509.866 1233.47 509.08 1232.97 508.068C1232.47 507.057 1232.23 505.875 1232.23 504.523C1232.23 503.159 1232.47 501.969 1232.97 500.952C1233.47 499.935 1234.16 499.145 1235.05 498.582C1235.94 498.02 1236.98 497.739 1238.16 497.739C1239.34 497.739 1240.38 498.02 1241.26 498.582C1242.15 499.145 1242.85 499.935 1243.34 500.952C1243.84 501.969 1244.09 503.159 1244.09 504.523C1244.09 505.875 1243.84 507.057 1243.34 508.068C1242.85 509.08 1242.15 509.866 1241.26 510.429C1240.38 510.991 1239.34 511.273 1238.16 511.273ZM1238.16 509.466C1239.06 509.466 1239.8 509.236 1240.38 508.776C1240.95 508.315 1241.38 507.71 1241.66 506.96C1241.94 506.21 1242.08 505.398 1242.08 504.523C1242.08 503.648 1241.94 502.832 1241.66 502.077C1241.38 501.321 1240.95 500.71 1240.38 500.244C1239.8 499.778 1239.06 499.545 1238.16 499.545C1237.26 499.545 1236.52 499.778 1235.94 500.244C1235.36 500.71 1234.93 501.321 1234.66 502.077C1234.38 502.832 1234.24 503.648 1234.24 504.523C1234.24 505.398 1234.38 506.21 1234.66 506.96C1234.93 507.71 1235.36 508.315 1235.94 508.776C1236.52 509.236 1237.26 509.466 1238.16 509.466ZM1257.4 497.909L1252.56 511H1250.51L1245.67 497.909H1247.85L1251.47 508.341H1251.6L1255.22 497.909H1257.4ZM1265.07 511.273C1263.81 511.273 1262.72 510.994 1261.81 510.438C1260.9 509.875 1260.2 509.091 1259.7 508.085C1259.21 507.074 1258.97 505.898 1258.97 504.557C1258.97 503.216 1259.21 502.034 1259.7 501.011C1260.2 499.983 1260.88 499.182 1261.76 498.608C1262.65 498.028 1263.69 497.739 1264.87 497.739C1265.55 497.739 1266.22 497.852 1266.89 498.08C1267.55 498.307 1268.16 498.676 1268.7 499.188C1269.25 499.693 1269.68 500.364 1270.01 501.199C1270.33 502.034 1270.49 503.062 1270.49 504.284V505.136H1260.4V503.398H1268.45C1268.45 502.659 1268.3 502 1268 501.42C1267.71 500.841 1267.3 500.384 1266.76 500.048C1266.23 499.713 1265.59 499.545 1264.87 499.545C1264.07 499.545 1263.37 499.744 1262.79 500.142C1262.21 500.534 1261.76 501.045 1261.45 501.676C1261.14 502.307 1260.98 502.983 1260.98 503.705V504.864C1260.98 505.852 1261.15 506.69 1261.49 507.378C1261.84 508.06 1262.32 508.58 1262.93 508.938C1263.55 509.29 1264.26 509.466 1265.07 509.466C1265.6 509.466 1266.08 509.392 1266.5 509.244C1266.94 509.091 1267.31 508.864 1267.62 508.562C1267.93 508.256 1268.17 507.875 1268.34 507.42L1270.29 507.966C1270.08 508.625 1269.74 509.205 1269.26 509.705C1268.77 510.199 1268.18 510.585 1267.47 510.864C1266.76 511.136 1265.96 511.273 1265.07 511.273Z" fill="black"/>
<rect width="223" height="1024" fill="#D9D9D9"/>
<ellipse cx="103.5" cy="130" rx="48.5" ry="57" fill="#F6F1F1"/>
<line x1="64.3463" y1="92.6393" x2="139.346" y2="164.639" stroke="black"/>
<line x1="138.358" y1="89.3488" x2="64.3582" y2="165.349" stroke="black"/>
<path d="M28.1136 421V403.545H34.0114C35.3807 403.545 36.5 403.793 37.3693 404.287C38.2443 404.776 38.892 405.438 39.3125 406.273C39.733 407.108 39.9432 408.04 39.9432 409.068C39.9432 410.097 39.733 411.031 39.3125 411.872C38.8977 412.713 38.2557 413.384 37.3864 413.884C36.517 414.378 35.4034 414.625 34.0455 414.625H29.8182V412.75H33.9773C34.9148 412.75 35.6676 412.588 36.2358 412.264C36.804 411.94 37.2159 411.503 37.4716 410.952C37.733 410.395 37.8636 409.767 37.8636 409.068C37.8636 408.369 37.733 407.744 37.4716 407.193C37.2159 406.642 36.8011 406.21 36.2273 405.898C35.6534 405.58 34.892 405.42 33.9432 405.42H30.2273V421H28.1136ZM46.9276 421.307C46.098 421.307 45.3452 421.151 44.669 420.838C43.9929 420.52 43.456 420.062 43.0582 419.466C42.6605 418.864 42.4616 418.136 42.4616 417.284C42.4616 416.534 42.6094 415.926 42.9048 415.46C43.2003 414.989 43.5952 414.619 44.0895 414.352C44.5838 414.085 45.1293 413.886 45.7259 413.756C46.3281 413.619 46.9332 413.511 47.5412 413.432C48.3366 413.33 48.9815 413.253 49.4759 413.202C49.9759 413.145 50.3395 413.051 50.5668 412.92C50.7997 412.79 50.9162 412.562 50.9162 412.239V412.17C50.9162 411.33 50.6861 410.676 50.2259 410.21C49.7713 409.744 49.081 409.511 48.1548 409.511C47.1946 409.511 46.4418 409.722 45.8963 410.142C45.3509 410.562 44.9673 411.011 44.7457 411.489L42.8366 410.807C43.1776 410.011 43.6321 409.392 44.2003 408.949C44.7741 408.5 45.3991 408.187 46.0753 408.011C46.7571 407.83 47.4276 407.739 48.0866 407.739C48.5071 407.739 48.9901 407.79 49.5355 407.892C50.0866 407.989 50.6179 408.19 51.1293 408.497C51.6463 408.804 52.0753 409.267 52.4162 409.886C52.7571 410.506 52.9276 411.335 52.9276 412.375V421H50.9162V419.227H50.8139C50.6776 419.511 50.4503 419.815 50.1321 420.139C49.8139 420.463 49.3906 420.739 48.8622 420.966C48.3338 421.193 47.6889 421.307 46.9276 421.307ZM47.2344 419.5C48.0298 419.5 48.7003 419.344 49.2457 419.031C49.7969 418.719 50.2116 418.315 50.4901 417.821C50.7741 417.327 50.9162 416.807 50.9162 416.261V414.42C50.831 414.523 50.6435 414.616 50.3537 414.702C50.0696 414.781 49.7401 414.852 49.3651 414.915C48.9957 414.972 48.6349 415.023 48.2827 415.068C47.9361 415.108 47.6548 415.142 47.4389 415.17C46.9162 415.239 46.4276 415.349 45.973 415.503C45.5241 415.651 45.1605 415.875 44.8821 416.176C44.6094 416.472 44.473 416.875 44.473 417.386C44.473 418.085 44.7315 418.614 45.2486 418.972C45.7713 419.324 46.4332 419.5 47.2344 419.5ZM65.8714 410.841L64.0646 411.352C63.951 411.051 63.7834 410.759 63.5618 410.474C63.3459 410.185 63.0504 409.946 62.6754 409.759C62.3004 409.571 61.8203 409.477 61.2351 409.477C60.4339 409.477 59.7663 409.662 59.2322 410.031C58.7038 410.395 58.4396 410.858 58.4396 411.42C58.4396 411.92 58.6214 412.315 58.9851 412.605C59.3487 412.895 59.9169 413.136 60.6896 413.33L62.6328 413.807C63.8033 414.091 64.6754 414.526 65.2493 415.111C65.8232 415.69 66.1101 416.437 66.1101 417.352C66.1101 418.102 65.8942 418.773 65.4624 419.364C65.0362 419.955 64.4396 420.42 63.6726 420.761C62.9055 421.102 62.0135 421.273 60.9964 421.273C59.6612 421.273 58.5561 420.983 57.6811 420.403C56.8061 419.824 56.2521 418.977 56.0192 417.864L57.9283 417.386C58.1101 418.091 58.4538 418.619 58.9595 418.972C59.4709 419.324 60.1385 419.5 60.9624 419.5C61.8999 419.5 62.6442 419.301 63.1953 418.903C63.7521 418.5 64.0305 418.017 64.0305 417.455C64.0305 417 63.8714 416.619 63.5533 416.312C63.2351 416 62.7464 415.767 62.0874 415.614L59.9055 415.102C58.7067 414.818 57.826 414.378 57.2635 413.781C56.7067 413.179 56.4283 412.426 56.4283 411.523C56.4283 410.784 56.6357 410.131 57.0504 409.562C57.4709 408.994 58.0419 408.548 58.7635 408.224C59.4908 407.901 60.3146 407.739 61.2351 407.739C62.5305 407.739 63.5476 408.023 64.2862 408.591C65.0305 409.159 65.5589 409.909 65.8714 410.841ZM78.4105 410.841L76.6037 411.352C76.4901 411.051 76.3224 410.759 76.1009 410.474C75.8849 410.185 75.5895 409.946 75.2145 409.759C74.8395 409.571 74.3594 409.477 73.7741 409.477C72.973 409.477 72.3054 409.662 71.7713 410.031C71.2429 410.395 70.9787 410.858 70.9787 411.42C70.9787 411.92 71.1605 412.315 71.5241 412.605C71.8878 412.895 72.456 413.136 73.2287 413.33L75.1719 413.807C76.3423 414.091 77.2145 414.526 77.7884 415.111C78.3622 415.69 78.6491 416.437 78.6491 417.352C78.6491 418.102 78.4332 418.773 78.0014 419.364C77.5753 419.955 76.9787 420.42 76.2116 420.761C75.4446 421.102 74.5526 421.273 73.5355 421.273C72.2003 421.273 71.0952 420.983 70.2202 420.403C69.3452 419.824 68.7912 418.977 68.5582 417.864L70.4673 417.386C70.6491 418.091 70.9929 418.619 71.4986 418.972C72.0099 419.324 72.6776 419.5 73.5014 419.5C74.4389 419.5 75.1832 419.301 75.7344 418.903C76.2912 418.5 76.5696 418.017 76.5696 417.455C76.5696 417 76.4105 416.619 76.0923 416.312C75.7741 416 75.2855 415.767 74.6264 415.614L72.4446 415.102C71.2457 414.818 70.3651 414.378 69.8026 413.781C69.2457 413.179 68.9673 412.426 68.9673 411.523C68.9673 410.784 69.1747 410.131 69.5895 409.562C70.0099 408.994 70.581 408.548 71.3026 408.224C72.0298 407.901 72.8537 407.739 73.7741 407.739C75.0696 407.739 76.0866 408.023 76.8253 408.591C77.5696 409.159 78.098 409.909 78.4105 410.841ZM87.1655 421.273C85.9041 421.273 84.8161 420.994 83.9013 420.438C82.9922 419.875 82.2905 419.091 81.7962 418.085C81.3075 417.074 81.0632 415.898 81.0632 414.557C81.0632 413.216 81.3075 412.034 81.7962 411.011C82.2905 409.983 82.978 409.182 83.8587 408.608C84.745 408.028 85.7791 407.739 86.9609 407.739C87.6428 407.739 88.3161 407.852 88.9808 408.08C89.6456 408.307 90.2507 408.676 90.7962 409.188C91.3416 409.693 91.7763 410.364 92.1001 411.199C92.424 412.034 92.5859 413.062 92.5859 414.284V415.136H82.495V413.398H90.5405C90.5405 412.659 90.3928 412 90.0973 411.42C89.8075 410.841 89.3928 410.384 88.853 410.048C88.3189 409.713 87.6882 409.545 86.9609 409.545C86.1598 409.545 85.4666 409.744 84.8814 410.142C84.3018 410.534 83.8558 411.045 83.5433 411.676C83.2308 412.307 83.0746 412.983 83.0746 413.705V414.864C83.0746 415.852 83.245 416.69 83.5859 417.378C83.9325 418.06 84.4126 418.58 85.0263 418.938C85.6399 419.29 86.353 419.466 87.1655 419.466C87.6939 419.466 88.1712 419.392 88.5973 419.244C89.0291 419.091 89.4013 418.864 89.7138 418.562C90.0263 418.256 90.2678 417.875 90.4382 417.42L92.3814 417.966C92.1768 418.625 91.8331 419.205 91.3501 419.705C90.8672 420.199 90.2706 420.585 89.5604 420.864C88.8501 421.136 88.0518 421.273 87.1655 421.273ZM97.657 413.125V421H95.6456V407.909H97.5888V409.955H97.7592C98.0661 409.29 98.532 408.756 99.157 408.352C99.782 407.943 100.589 407.739 101.577 407.739C102.464 407.739 103.239 407.92 103.904 408.284C104.569 408.642 105.086 409.188 105.455 409.92C105.825 410.648 106.009 411.568 106.009 412.682V421H103.998V412.818C103.998 411.79 103.731 410.989 103.197 410.415C102.663 409.835 101.93 409.545 100.998 409.545C100.356 409.545 99.782 409.685 99.2763 409.963C98.7763 410.241 98.3814 410.648 98.0916 411.182C97.8018 411.716 97.657 412.364 97.657 413.125ZM114.969 426.182C113.997 426.182 113.162 426.057 112.463 425.807C111.764 425.562 111.182 425.239 110.716 424.835C110.256 424.438 109.889 424.011 109.616 423.557L111.219 422.432C111.401 422.67 111.631 422.943 111.909 423.25C112.188 423.562 112.568 423.832 113.051 424.06C113.54 424.293 114.179 424.409 114.969 424.409C116.026 424.409 116.898 424.153 117.585 423.642C118.273 423.131 118.616 422.33 118.616 421.239V418.58H118.446C118.298 418.818 118.088 419.114 117.815 419.466C117.548 419.812 117.162 420.122 116.656 420.395C116.156 420.662 115.48 420.795 114.628 420.795C113.571 420.795 112.622 420.545 111.781 420.045C110.946 419.545 110.284 418.818 109.795 417.864C109.313 416.909 109.071 415.75 109.071 414.386C109.071 413.045 109.307 411.878 109.778 410.884C110.25 409.884 110.906 409.111 111.747 408.565C112.588 408.014 113.56 407.739 114.662 407.739C115.514 407.739 116.19 407.881 116.69 408.165C117.196 408.443 117.582 408.761 117.849 409.119C118.122 409.472 118.332 409.761 118.48 409.989H118.685V407.909H120.628V421.375C120.628 422.5 120.372 423.415 119.861 424.119C119.355 424.83 118.673 425.349 117.815 425.679C116.963 426.014 116.014 426.182 114.969 426.182ZM114.901 418.989C115.707 418.989 116.389 418.804 116.946 418.435C117.503 418.065 117.926 417.534 118.216 416.841C118.506 416.148 118.651 415.318 118.651 414.352C118.651 413.409 118.509 412.577 118.224 411.855C117.94 411.134 117.52 410.568 116.963 410.159C116.406 409.75 115.719 409.545 114.901 409.545C114.048 409.545 113.338 409.761 112.77 410.193C112.207 410.625 111.784 411.205 111.5 411.932C111.222 412.659 111.082 413.466 111.082 414.352C111.082 415.261 111.224 416.065 111.509 416.764C111.798 417.457 112.224 418.003 112.787 418.401C113.355 418.793 114.06 418.989 114.901 418.989ZM129.798 421.273C128.537 421.273 127.449 420.994 126.534 420.438C125.625 419.875 124.923 419.091 124.429 418.085C123.94 417.074 123.696 415.898 123.696 414.557C123.696 413.216 123.94 412.034 124.429 411.011C124.923 409.983 125.611 409.182 126.491 408.608C127.378 408.028 128.412 407.739 129.594 407.739C130.276 407.739 130.949 407.852 131.614 408.08C132.278 408.307 132.884 408.676 133.429 409.188C133.974 409.693 134.409 410.364 134.733 411.199C135.057 412.034 135.219 413.062 135.219 414.284V415.136H125.128V413.398H133.173C133.173 412.659 133.026 412 132.73 411.42C132.44 410.841 132.026 410.384 131.486 410.048C130.952 409.713 130.321 409.545 129.594 409.545C128.793 409.545 128.099 409.744 127.514 410.142C126.935 410.534 126.489 411.045 126.176 411.676C125.864 412.307 125.707 412.983 125.707 413.705V414.864C125.707 415.852 125.878 416.69 126.219 417.378C126.565 418.06 127.045 418.58 127.659 418.938C128.273 419.29 128.986 419.466 129.798 419.466C130.327 419.466 130.804 419.392 131.23 419.244C131.662 419.091 132.034 418.864 132.347 418.562C132.659 418.256 132.901 417.875 133.071 417.42L135.014 417.966C134.81 418.625 134.466 419.205 133.983 419.705C133.5 420.199 132.903 420.585 132.193 420.864C131.483 421.136 130.685 421.273 129.798 421.273ZM138.278 421V407.909H140.222V409.886H140.358C140.597 409.239 141.028 408.713 141.653 408.31C142.278 407.906 142.983 407.705 143.767 407.705C143.915 407.705 144.099 407.707 144.321 407.713C144.543 407.719 144.71 407.727 144.824 407.739V409.784C144.756 409.767 144.599 409.741 144.355 409.707C144.116 409.668 143.864 409.648 143.597 409.648C142.96 409.648 142.392 409.781 141.892 410.048C141.398 410.31 141.006 410.673 140.716 411.139C140.432 411.599 140.29 412.125 140.29 412.716V421H138.278ZM156.481 410.841L154.674 411.352C154.56 411.051 154.393 410.759 154.171 410.474C153.955 410.185 153.66 409.946 153.285 409.759C152.91 409.571 152.43 409.477 151.844 409.477C151.043 409.477 150.376 409.662 149.842 410.031C149.313 410.395 149.049 410.858 149.049 411.42C149.049 411.92 149.231 412.315 149.594 412.605C149.958 412.895 150.526 413.136 151.299 413.33L153.242 413.807C154.413 414.091 155.285 414.526 155.859 415.111C156.433 415.69 156.719 416.437 156.719 417.352C156.719 418.102 156.504 418.773 156.072 419.364C155.646 419.955 155.049 420.42 154.282 420.761C153.515 421.102 152.623 421.273 151.606 421.273C150.271 421.273 149.165 420.983 148.29 420.403C147.415 419.824 146.862 418.977 146.629 417.864L148.538 417.386C148.719 418.091 149.063 418.619 149.569 418.972C150.08 419.324 150.748 419.5 151.572 419.5C152.509 419.5 153.254 419.301 153.805 418.903C154.362 418.5 154.64 418.017 154.64 417.455C154.64 417 154.481 416.619 154.163 416.312C153.844 416 153.356 415.767 152.697 415.614L150.515 415.102C149.316 414.818 148.435 414.378 147.873 413.781C147.316 413.179 147.038 412.426 147.038 411.523C147.038 410.784 147.245 410.131 147.66 409.562C148.08 408.994 148.651 408.548 149.373 408.224C150.1 407.901 150.924 407.739 151.844 407.739C153.14 407.739 154.157 408.023 154.896 408.591C155.64 409.159 156.168 409.909 156.481 410.841Z" fill="black"/>
<path d="M39.5 512H34.1136V494.545H39.7386C41.4318 494.545 42.8807 494.895 44.0852 495.594C45.2898 496.287 46.2131 497.284 46.8551 498.585C47.4972 499.881 47.8182 501.432 47.8182 503.239C47.8182 505.057 47.4943 506.622 46.8466 507.935C46.1989 509.241 45.2557 510.247 44.017 510.952C42.7784 511.651 41.2727 512 39.5 512ZM36.2273 510.125H39.3636C40.8068 510.125 42.0028 509.847 42.9517 509.29C43.9006 508.733 44.608 507.94 45.0739 506.912C45.5398 505.884 45.7727 504.659 45.7727 503.239C45.7727 501.83 45.5426 500.616 45.0824 499.599C44.6222 498.577 43.9347 497.793 43.0199 497.247C42.1051 496.696 40.9659 496.42 39.6023 496.42H36.2273V510.125ZM51.0909 512V498.909H53.0341V500.886H53.1705C53.4091 500.239 53.8409 499.713 54.4659 499.31C55.0909 498.906 55.7955 498.705 56.5795 498.705C56.7273 498.705 56.9119 498.707 57.1335 498.713C57.3551 498.719 57.5227 498.727 57.6364 498.739V500.784C57.5682 500.767 57.4119 500.741 57.1676 500.707C56.929 500.668 56.6761 500.648 56.4091 500.648C55.7727 500.648 55.2045 500.781 54.7045 501.048C54.2102 501.31 53.8182 501.673 53.5284 502.139C53.2443 502.599 53.1023 503.125 53.1023 503.716V512H51.0909ZM60.0206 512V498.909H62.032V512H60.0206ZM61.0433 496.727C60.6513 496.727 60.3132 496.594 60.0291 496.327C59.7507 496.06 59.6115 495.739 59.6115 495.364C59.6115 494.989 59.7507 494.668 60.0291 494.401C60.3132 494.134 60.6513 494 61.0433 494C61.4354 494 61.7706 494.134 62.049 494.401C62.3331 494.668 62.4751 494.989 62.4751 495.364C62.4751 495.739 62.3331 496.06 62.049 496.327C61.7706 496.594 61.4354 496.727 61.0433 496.727ZM76.4205 498.909L71.5795 512H69.5341L64.6932 498.909H66.875L70.4886 509.341H70.625L74.2386 498.909H76.4205ZM84.0952 512.273C82.8338 512.273 81.7457 511.994 80.831 511.438C79.9219 510.875 79.2202 510.091 78.7259 509.085C78.2372 508.074 77.9929 506.898 77.9929 505.557C77.9929 504.216 78.2372 503.034 78.7259 502.011C79.2202 500.983 79.9077 500.182 80.7884 499.608C81.6747 499.028 82.7088 498.739 83.8906 498.739C84.5724 498.739 85.2457 498.852 85.9105 499.08C86.5753 499.307 87.1804 499.676 87.7259 500.188C88.2713 500.693 88.706 501.364 89.0298 502.199C89.3537 503.034 89.5156 504.062 89.5156 505.284V506.136H79.4247V504.398H87.4702C87.4702 503.659 87.3224 503 87.027 502.42C86.7372 501.841 86.3224 501.384 85.7827 501.048C85.2486 500.713 84.6179 500.545 83.8906 500.545C83.0895 500.545 82.3963 500.744 81.8111 501.142C81.2315 501.534 80.7855 502.045 80.473 502.676C80.1605 503.307 80.0043 503.983 80.0043 504.705V505.864C80.0043 506.852 80.1747 507.69 80.5156 508.378C80.8622 509.06 81.3423 509.58 81.956 509.938C82.5696 510.29 83.2827 510.466 84.0952 510.466C84.6236 510.466 85.1009 510.392 85.527 510.244C85.9588 510.091 86.331 509.864 86.6435 509.562C86.956 509.256 87.1974 508.875 87.3679 508.42L89.3111 508.966C89.1065 509.625 88.7628 510.205 88.2798 510.705C87.7969 511.199 87.2003 511.585 86.4901 511.864C85.7798 512.136 84.9815 512.273 84.0952 512.273ZM92.5753 512V498.909H94.5185V500.886H94.6548C94.8935 500.239 95.3253 499.713 95.9503 499.31C96.5753 498.906 97.2798 498.705 98.0639 498.705C98.2116 498.705 98.3963 498.707 98.6179 498.713C98.8395 498.719 99.0071 498.727 99.1207 498.739V500.784C99.0526 500.767 98.8963 500.741 98.652 500.707C98.4134 500.668 98.1605 500.648 97.8935 500.648C97.2571 500.648 96.6889 500.781 96.1889 501.048C95.6946 501.31 95.3026 501.673 95.0128 502.139C94.7287 502.599 94.5866 503.125 94.5866 503.716V512H92.5753ZM110.778 501.841L108.971 502.352C108.857 502.051 108.69 501.759 108.468 501.474C108.252 501.185 107.957 500.946 107.582 500.759C107.207 500.571 106.727 500.477 106.141 500.477C105.34 500.477 104.673 500.662 104.138 501.031C103.61 501.395 103.346 501.858 103.346 502.42C103.346 502.92 103.528 503.315 103.891 503.605C104.255 503.895 104.823 504.136 105.596 504.33L107.539 504.807C108.71 505.091 109.582 505.526 110.156 506.111C110.729 506.69 111.016 507.437 111.016 508.352C111.016 509.102 110.8 509.773 110.369 510.364C109.942 510.955 109.346 511.42 108.579 511.761C107.812 512.102 106.92 512.273 105.903 512.273C104.567 512.273 103.462 511.983 102.587 511.403C101.712 510.824 101.158 509.977 100.925 508.864L102.835 508.386C103.016 509.091 103.36 509.619 103.866 509.972C104.377 510.324 105.045 510.5 105.869 510.5C106.806 510.5 107.55 510.301 108.102 509.903C108.658 509.5 108.937 509.017 108.937 508.455C108.937 508 108.778 507.619 108.46 507.312C108.141 507 107.653 506.767 106.994 506.614L104.812 506.102C103.613 505.818 102.732 505.378 102.17 504.781C101.613 504.179 101.335 503.426 101.335 502.523C101.335 501.784 101.542 501.131 101.957 500.562C102.377 499.994 102.948 499.548 103.67 499.224C104.397 498.901 105.221 498.739 106.141 498.739C107.437 498.739 108.454 499.023 109.192 499.591C109.937 500.159 110.465 500.909 110.778 501.841Z" fill="black"/>
</g>
<defs>
<clipPath id="clip0_212_518">
<rect width="1440" height="1024" fill="white"/>
</clipPath>
</defs>
</svg>
