<svg width="430" height="932" viewBox="0 0 430 932" fill="none" xmlns="http://www.w3.org/2000/svg">
<rect width="430" height="932" fill="white"/>
<ellipse cx="215" cy="99.5" rx="82" ry="73.5" fill="#D9D9D9"/>
<path d="M187.168 104V86.0979H189.336V102.077H197.657V104H187.168ZM206.189 104.28C204.977 104.28 203.913 103.991 202.998 103.414C202.089 102.837 201.378 102.03 200.865 100.993C200.358 99.9557 200.105 98.7436 200.105 97.3566C200.105 95.958 200.358 94.7372 200.865 93.6941C201.378 92.6509 202.089 91.8409 202.998 91.264C203.913 90.6871 204.977 90.3986 206.189 90.3986C207.401 90.3986 208.462 90.6871 209.371 91.264C210.286 91.8409 210.997 92.6509 211.503 93.6941C212.016 94.7372 212.273 95.958 212.273 97.3566C212.273 98.7436 212.016 99.9557 211.503 100.993C210.997 102.03 210.286 102.837 209.371 103.414C208.462 103.991 207.401 104.28 206.189 104.28ZM206.189 102.427C207.11 102.427 207.867 102.191 208.462 101.719C209.056 101.247 209.496 100.626 209.781 99.8566C210.067 99.0874 210.21 98.2541 210.21 97.3566C210.21 96.4592 210.067 95.623 209.781 94.8479C209.496 94.0728 209.056 93.4464 208.462 92.9685C207.867 92.4907 207.11 92.2517 206.189 92.2517C205.268 92.2517 204.51 92.4907 203.916 92.9685C203.322 93.4464 202.882 94.0728 202.596 94.8479C202.311 95.623 202.168 96.4592 202.168 97.3566C202.168 98.2541 202.311 99.0874 202.596 99.8566C202.882 100.626 203.322 101.247 203.916 101.719C204.51 102.191 205.268 102.427 206.189 102.427ZM220.841 109.315C219.845 109.315 218.988 109.186 218.271 108.93C217.555 108.679 216.957 108.347 216.479 107.934C216.007 107.526 215.632 107.089 215.352 106.622L216.995 105.469C217.182 105.713 217.418 105.993 217.703 106.308C217.989 106.628 218.379 106.905 218.875 107.138C219.376 107.377 220.031 107.497 220.841 107.497C221.925 107.497 222.82 107.234 223.525 106.71C224.23 106.185 224.583 105.364 224.583 104.245V101.517H224.408C224.256 101.762 224.041 102.065 223.761 102.427C223.487 102.782 223.091 103.1 222.572 103.379C222.059 103.653 221.366 103.79 220.492 103.79C219.408 103.79 218.435 103.534 217.572 103.021C216.715 102.508 216.037 101.762 215.535 100.783C215.04 99.8042 214.792 98.6154 214.792 97.2168C214.792 95.8415 215.034 94.6439 215.518 93.6241C216.002 92.5985 216.675 91.8059 217.537 91.2465C218.4 90.6812 219.396 90.3986 220.527 90.3986C221.401 90.3986 222.094 90.5443 222.607 90.8357C223.126 91.1212 223.522 91.4476 223.796 91.8147C224.076 92.176 224.291 92.4732 224.443 92.7063H224.653V90.5734H226.646V104.385C226.646 105.538 226.383 106.477 225.859 107.199C225.34 107.928 224.641 108.461 223.761 108.799C222.887 109.143 221.914 109.315 220.841 109.315ZM220.771 101.937C221.599 101.937 222.298 101.748 222.869 101.369C223.44 100.99 223.875 100.445 224.172 99.7343C224.469 99.0233 224.618 98.1725 224.618 97.1818C224.618 96.2145 224.472 95.3607 224.181 94.6206C223.889 93.8805 223.458 93.3007 222.887 92.8811C222.316 92.4615 221.611 92.2517 220.771 92.2517C219.897 92.2517 219.169 92.4732 218.586 92.9161C218.009 93.359 217.575 93.9534 217.284 94.6993C216.998 95.4452 216.855 96.2727 216.855 97.1818C216.855 98.1142 217.001 98.9388 217.292 99.6556C217.59 100.367 218.027 100.926 218.604 101.334C219.186 101.736 219.909 101.937 220.771 101.937ZM235.876 104.28C234.664 104.28 233.601 103.991 232.686 103.414C231.777 102.837 231.066 102.03 230.553 100.993C230.046 99.9557 229.792 98.7436 229.792 97.3566C229.792 95.958 230.046 94.7372 230.553 93.6941C231.066 92.6509 231.777 91.8409 232.686 91.264C233.601 90.6871 234.664 90.3986 235.876 90.3986C237.088 90.3986 238.149 90.6871 239.058 91.264C239.973 91.8409 240.684 92.6509 241.191 93.6941C241.704 94.7372 241.96 95.958 241.96 97.3566C241.96 98.7436 241.704 99.9557 241.191 100.993C240.684 102.03 239.973 102.837 239.058 103.414C238.149 103.991 237.088 104.28 235.876 104.28ZM235.876 102.427C236.797 102.427 237.555 102.191 238.149 101.719C238.743 101.247 239.183 100.626 239.469 99.8566C239.755 99.0874 239.897 98.2541 239.897 97.3566C239.897 96.4592 239.755 95.623 239.469 94.8479C239.183 94.0728 238.743 93.4464 238.149 92.9685C237.555 92.4907 236.797 92.2517 235.876 92.2517C234.956 92.2517 234.198 92.4907 233.604 92.9685C233.009 93.4464 232.569 94.0728 232.284 94.8479C231.998 95.623 231.855 96.4592 231.855 97.3566C231.855 98.2541 231.998 99.0874 232.284 99.8566C232.569 100.626 233.009 101.247 233.604 101.719C234.198 102.191 234.956 102.427 235.876 102.427Z" fill="black"/>
<rect x="41" y="481" width="348" height="52" fill="#D9D9D9"/>
<rect x="36" y="572" width="348" height="52" fill="#D9D9D9"/>
<rect x="41" y="392" width="348" height="52" fill="#D9D9D9"/>
<rect x="41" y="303" width="348" height="52" fill="#D9D9D9"/>
<rect x="41" y="214" width="158" height="52" fill="#D9D9D9"/>
<path d="M67.1678 245V227.098H77.9021V229.021H69.3357V235.07H77.0979V236.993H69.3357V245H67.1678ZM83.2539 236.923V245H81.191V231.573H83.184V233.671H83.3588C83.6735 232.99 84.1514 232.442 84.7924 232.028C85.4334 231.608 86.2609 231.399 87.2749 231.399C88.184 231.399 88.9795 231.585 89.6613 231.958C90.3431 232.325 90.8734 232.885 91.2522 233.636C91.631 234.382 91.8204 235.326 91.8204 236.469V245H89.7574V236.608C89.7574 235.554 89.4835 234.732 88.9358 234.143C88.388 233.549 87.6362 233.252 86.6805 233.252C86.022 233.252 85.4334 233.395 84.9148 233.68C84.402 233.966 83.9969 234.382 83.6997 234.93C83.4025 235.478 83.2539 236.142 83.2539 236.923ZM99.5411 245.315C98.6903 245.315 97.9181 245.154 97.2247 244.834C96.5312 244.508 95.9805 244.038 95.5726 243.427C95.1646 242.809 94.9607 242.063 94.9607 241.189C94.9607 240.42 95.1122 239.796 95.4152 239.318C95.7182 238.834 96.1233 238.456 96.6302 238.182C97.1372 237.908 97.6967 237.704 98.3086 237.57C98.9263 237.43 99.5469 237.319 100.17 237.238C100.986 237.133 101.648 237.054 102.155 237.002C102.668 236.943 103.041 236.847 103.274 236.713C103.513 236.579 103.632 236.346 103.632 236.014V235.944C103.632 235.082 103.396 234.411 102.924 233.934C102.458 233.456 101.75 233.217 100.8 233.217C99.815 233.217 99.0428 233.432 98.4834 233.864C97.924 234.295 97.5306 234.755 97.3033 235.245L95.3453 234.545C95.6949 233.73 96.1611 233.094 96.7439 232.64C97.3325 232.179 97.9735 231.859 98.667 231.678C99.3663 231.492 100.054 231.399 100.73 231.399C101.161 231.399 101.656 231.451 102.216 231.556C102.781 231.655 103.326 231.862 103.851 232.177C104.381 232.491 104.821 232.966 105.17 233.601C105.52 234.237 105.695 235.087 105.695 236.154V245H103.632V243.182H103.527C103.387 243.473 103.154 243.785 102.828 244.117C102.501 244.449 102.067 244.732 101.525 244.965C100.983 245.198 100.322 245.315 99.5411 245.315ZM99.8558 243.462C100.672 243.462 101.359 243.301 101.919 242.981C102.484 242.66 102.909 242.247 103.195 241.74C103.486 241.233 103.632 240.699 103.632 240.14V238.252C103.545 238.357 103.352 238.453 103.055 238.54C102.764 238.622 102.426 238.695 102.041 238.759C101.662 238.817 101.292 238.869 100.931 238.916C100.575 238.957 100.287 238.992 100.066 239.021C99.5294 239.091 99.0283 239.205 98.5621 239.362C98.1017 239.513 97.7287 239.744 97.4432 240.052C97.1635 240.355 97.0236 240.769 97.0236 241.294C97.0236 242.01 97.2888 242.552 97.8191 242.92C98.3552 243.281 99.0341 243.462 99.8558 243.462ZM109.46 245V231.573H111.453V233.671H111.628C111.908 232.955 112.359 232.398 112.983 232.002C113.606 231.6 114.355 231.399 115.229 231.399C116.115 231.399 116.852 231.6 117.441 232.002C118.035 232.398 118.499 232.955 118.831 233.671H118.971C119.315 232.978 119.83 232.427 120.518 232.019C121.206 231.605 122.03 231.399 122.992 231.399C124.192 231.399 125.174 231.774 125.938 232.526C126.701 233.272 127.083 234.435 127.083 236.014V245H125.02V236.014C125.02 235.023 124.749 234.315 124.207 233.89C123.665 233.464 123.027 233.252 122.292 233.252C121.348 233.252 120.617 233.537 120.098 234.108C119.58 234.674 119.32 235.39 119.32 236.259V245H117.222V235.804C117.222 235.041 116.975 234.426 116.479 233.96C115.984 233.488 115.346 233.252 114.565 233.252C114.029 233.252 113.528 233.395 113.062 233.68C112.601 233.966 112.228 234.362 111.943 234.869C111.663 235.37 111.523 235.95 111.523 236.608V245H109.46ZM136.484 245.28C135.19 245.28 134.074 244.994 133.136 244.423C132.204 243.846 131.484 243.042 130.977 242.01C130.476 240.973 130.225 239.767 130.225 238.392C130.225 237.016 130.476 235.804 130.977 234.755C131.484 233.7 132.189 232.879 133.092 232.29C134.001 231.696 135.062 231.399 136.274 231.399C136.973 231.399 137.664 231.515 138.346 231.748C139.028 231.981 139.648 232.36 140.208 232.885C140.767 233.403 141.213 234.091 141.545 234.948C141.877 235.804 142.043 236.859 142.043 238.112V238.986H131.694V237.203H139.945C139.945 236.445 139.794 235.769 139.491 235.175C139.194 234.58 138.768 234.111 138.215 233.767C137.667 233.424 137.02 233.252 136.274 233.252C135.452 233.252 134.741 233.456 134.141 233.864C133.547 234.266 133.089 234.79 132.769 235.437C132.448 236.084 132.288 236.777 132.288 237.517V238.706C132.288 239.72 132.463 240.58 132.813 241.285C133.168 241.984 133.66 242.517 134.29 242.885C134.919 243.246 135.65 243.427 136.484 243.427C137.026 243.427 137.515 243.351 137.952 243.199C138.395 243.042 138.777 242.809 139.097 242.5C139.418 242.185 139.666 241.795 139.84 241.329L141.833 241.888C141.624 242.564 141.271 243.159 140.776 243.671C140.28 244.178 139.669 244.575 138.94 244.86C138.212 245.14 137.393 245.28 136.484 245.28Z" fill="black"/>
<rect x="231" y="214" width="158" height="52" fill="#D9D9D9"/>
<path d="M257.168 245V227.098H259.336V243.077H267.657V245H257.168ZM272.797 236.923V245H270.734V231.573H272.727V233.671H272.902C273.217 232.99 273.695 232.442 274.336 232.028C274.977 231.608 275.804 231.399 276.818 231.399C277.727 231.399 278.523 231.585 279.205 231.958C279.886 232.325 280.417 232.885 280.795 233.636C281.174 234.382 281.364 235.326 281.364 236.469V245H279.301V236.608C279.301 235.554 279.027 234.732 278.479 234.143C277.931 233.549 277.179 233.252 276.224 233.252C275.565 233.252 274.977 233.395 274.458 233.68C273.945 233.966 273.54 234.382 273.243 234.93C272.946 235.478 272.797 236.142 272.797 236.923ZM289.084 245.315C288.234 245.315 287.461 245.154 286.768 244.834C286.074 244.508 285.524 244.038 285.116 243.427C284.708 242.809 284.504 242.063 284.504 241.189C284.504 240.42 284.655 239.796 284.958 239.318C285.262 238.834 285.667 238.456 286.174 238.182C286.681 237.908 287.24 237.704 287.852 237.57C288.47 237.43 289.09 237.319 289.714 237.238C290.53 237.133 291.191 237.054 291.698 237.002C292.211 236.943 292.584 236.847 292.817 236.713C293.056 236.579 293.175 236.346 293.175 236.014V235.944C293.175 235.082 292.939 234.411 292.467 233.934C292.001 233.456 291.293 233.217 290.343 233.217C289.358 233.217 288.586 233.432 288.027 233.864C287.467 234.295 287.074 234.755 286.847 235.245L284.889 234.545C285.238 233.73 285.704 233.094 286.287 232.64C286.876 232.179 287.517 231.859 288.21 231.678C288.91 231.492 289.597 231.399 290.273 231.399C290.704 231.399 291.2 231.451 291.759 231.556C292.324 231.655 292.869 231.862 293.394 232.177C293.924 232.491 294.364 232.966 294.714 233.601C295.063 234.237 295.238 235.087 295.238 236.154V245H293.175V243.182H293.07C292.931 243.473 292.697 243.785 292.371 244.117C292.045 244.449 291.611 244.732 291.069 244.965C290.527 245.198 289.865 245.315 289.084 245.315ZM289.399 243.462C290.215 243.462 290.903 243.301 291.462 242.981C292.027 242.66 292.453 242.247 292.738 241.74C293.03 241.233 293.175 240.699 293.175 240.14V238.252C293.088 238.357 292.896 238.453 292.598 238.54C292.307 238.622 291.969 238.695 291.584 238.759C291.206 238.817 290.836 238.869 290.474 238.916C290.119 238.957 289.83 238.992 289.609 239.021C289.073 239.091 288.572 239.205 288.105 239.362C287.645 239.513 287.272 239.744 286.986 240.052C286.707 240.355 286.567 240.769 286.567 241.294C286.567 242.01 286.832 242.552 287.362 242.92C287.898 243.281 288.577 243.462 289.399 243.462ZM299.003 245V231.573H300.997V233.671H301.171C301.451 232.955 301.903 232.398 302.526 232.002C303.15 231.6 303.899 231.399 304.773 231.399C305.659 231.399 306.396 231.6 306.984 232.002C307.579 232.398 308.042 232.955 308.374 233.671H308.514C308.858 232.978 309.374 232.427 310.061 232.019C310.749 231.605 311.573 231.399 312.535 231.399C313.735 231.399 314.717 231.774 315.481 232.526C316.244 233.272 316.626 234.435 316.626 236.014V245H314.563V236.014C314.563 235.023 314.292 234.315 313.75 233.89C313.208 233.464 312.57 233.252 311.836 233.252C310.892 233.252 310.16 233.537 309.642 234.108C309.123 234.674 308.864 235.39 308.864 236.259V245H306.766V235.804C306.766 235.041 306.518 234.426 306.023 233.96C305.527 233.488 304.889 233.252 304.108 233.252C303.572 233.252 303.071 233.395 302.605 233.68C302.145 233.966 301.772 234.362 301.486 234.869C301.206 235.37 301.066 235.95 301.066 236.608V245H299.003ZM326.027 245.28C324.733 245.28 323.617 244.994 322.679 244.423C321.747 243.846 321.027 243.042 320.52 242.01C320.019 240.973 319.768 239.767 319.768 238.392C319.768 237.016 320.019 235.804 320.52 234.755C321.027 233.7 321.732 232.879 322.635 232.29C323.545 231.696 324.605 231.399 325.817 231.399C326.517 231.399 327.207 231.515 327.889 231.748C328.571 231.981 329.191 232.36 329.751 232.885C330.31 233.403 330.756 234.091 331.088 234.948C331.42 235.804 331.587 236.859 331.587 238.112V238.986H321.237V237.203H329.489C329.489 236.445 329.337 235.769 329.034 235.175C328.737 234.58 328.311 234.111 327.758 233.767C327.21 233.424 326.563 233.252 325.817 233.252C324.996 233.252 324.285 233.456 323.684 233.864C323.09 234.266 322.633 234.79 322.312 235.437C321.992 236.084 321.831 236.777 321.831 237.517V238.706C321.831 239.72 322.006 240.58 322.356 241.285C322.711 241.984 323.204 242.517 323.833 242.885C324.462 243.246 325.194 243.427 326.027 243.427C326.569 243.427 327.059 243.351 327.496 243.199C327.939 243.042 328.32 242.809 328.641 242.5C328.961 242.185 329.209 241.795 329.384 241.329L331.377 241.888C331.167 242.564 330.814 243.159 330.319 243.671C329.824 244.178 329.212 244.575 328.483 244.86C327.755 245.14 326.936 245.28 326.027 245.28Z" fill="black"/>
<path d="M60.1678 340V322.098H70.972V324.021H62.3357V330.07H70.4126V331.993H62.3357V338.077H71.1119V340H60.1678ZM74.5997 340V326.573H76.5927V328.671H76.7675C77.0472 327.955 77.4988 327.398 78.1224 327.002C78.7459 326.6 79.4948 326.399 80.3689 326.399C81.2547 326.399 81.9918 326.6 82.5804 327.002C83.1748 327.398 83.6381 327.955 83.9703 328.671H84.1101C84.454 327.978 84.9697 327.427 85.6573 327.019C86.345 326.605 87.1696 326.399 88.1311 326.399C89.3316 326.399 90.3135 326.774 91.0769 327.526C91.8403 328.272 92.222 329.435 92.222 331.014V340H90.1591V331.014C90.1591 330.023 89.8881 329.315 89.3462 328.89C88.8042 328.464 88.1661 328.252 87.4318 328.252C86.4878 328.252 85.7564 328.537 85.2378 329.108C84.7191 329.674 84.4598 330.39 84.4598 331.259V340H82.3619V330.804C82.3619 330.041 82.1142 329.426 81.6189 328.96C81.1235 328.488 80.4854 328.252 79.7045 328.252C79.1684 328.252 78.6672 328.395 78.201 328.68C77.7407 328.966 77.3677 329.362 77.0822 329.869C76.8024 330.37 76.6626 330.95 76.6626 331.608V340H74.5997ZM99.9449 340.315C99.0941 340.315 98.322 340.154 97.6285 339.834C96.935 339.508 96.3843 339.038 95.9764 338.427C95.5685 337.809 95.3645 337.063 95.3645 336.189C95.3645 335.42 95.516 334.796 95.8191 334.318C96.1221 333.834 96.5271 333.456 97.0341 333.182C97.5411 332.908 98.1005 332.704 98.7124 332.57C99.3301 332.43 99.9508 332.319 100.574 332.238C101.39 332.133 102.052 332.054 102.559 332.002C103.071 331.943 103.444 331.847 103.677 331.713C103.916 331.579 104.036 331.346 104.036 331.014V330.944C104.036 330.082 103.8 329.411 103.328 328.934C102.862 328.456 102.154 328.217 101.204 328.217C100.219 328.217 99.4467 328.432 98.8872 328.864C98.3278 329.295 97.9344 329.755 97.7072 330.245L95.7491 329.545C96.0988 328.73 96.565 328.094 97.1477 327.64C97.7363 327.179 98.3773 326.859 99.0708 326.678C99.7701 326.492 100.458 326.399 101.134 326.399C101.565 326.399 102.06 326.451 102.62 326.556C103.185 326.655 103.73 326.862 104.254 327.177C104.785 327.491 105.225 327.966 105.574 328.601C105.924 329.237 106.099 330.087 106.099 331.154V340H104.036V338.182H103.931C103.791 338.473 103.558 338.785 103.232 339.117C102.905 339.449 102.471 339.732 101.929 339.965C101.387 340.198 100.726 340.315 99.9449 340.315ZM100.26 338.462C101.075 338.462 101.763 338.301 102.323 337.981C102.888 337.66 103.313 337.247 103.599 336.74C103.89 336.233 104.036 335.699 104.036 335.14V333.252C103.948 333.357 103.756 333.453 103.459 333.54C103.168 333.622 102.83 333.695 102.445 333.759C102.066 333.817 101.696 333.869 101.335 333.916C100.979 333.957 100.691 333.992 100.469 334.021C99.9333 334.091 99.4321 334.205 98.9659 334.362C98.5055 334.513 98.1326 334.744 97.847 335.052C97.5673 335.355 97.4274 335.769 97.4274 336.294C97.4274 337.01 97.6926 337.552 98.2229 337.92C98.759 338.281 99.4379 338.462 100.26 338.462ZM109.864 340V326.573H111.927V340H109.864ZM110.913 324.336C110.511 324.336 110.164 324.199 109.873 323.925C109.587 323.651 109.444 323.322 109.444 322.937C109.444 322.552 109.587 322.223 109.873 321.949C110.164 321.675 110.511 321.538 110.913 321.538C111.315 321.538 111.659 321.675 111.944 321.949C112.236 322.223 112.382 322.552 112.382 322.937C112.382 323.322 112.236 323.651 111.944 323.925C111.659 324.199 111.315 324.336 110.913 324.336ZM117.768 322.098V340H115.705V322.098H117.768Z" fill="black"/>
<path d="M57.1678 425V407.098H63.2168C64.6212 407.098 65.7692 407.351 66.6608 407.858C67.5583 408.36 68.2226 409.038 68.6538 409.895C69.0851 410.752 69.3007 411.707 69.3007 412.762C69.3007 413.817 69.0851 414.776 68.6538 415.638C68.2284 416.501 67.5699 417.188 66.6783 417.701C65.7867 418.208 64.6445 418.462 63.2517 418.462H58.9161V416.538H63.1818C64.1434 416.538 64.9155 416.372 65.4983 416.04C66.081 415.708 66.5035 415.259 66.7657 414.694C67.0338 414.123 67.1678 413.479 67.1678 412.762C67.1678 412.045 67.0338 411.404 66.7657 410.839C66.5035 410.274 66.0781 409.831 65.4895 409.51C64.9009 409.184 64.12 409.021 63.1469 409.021H59.3357V425H57.1678ZM76.4642 425.315C75.6133 425.315 74.8412 425.154 74.1477 424.834C73.4543 424.508 72.9036 424.038 72.4956 423.427C72.0877 422.809 71.8837 422.063 71.8837 421.189C71.8837 420.42 72.0353 419.796 72.3383 419.318C72.6413 418.834 73.0463 418.456 73.5533 418.182C74.0603 417.908 74.6198 417.704 75.2316 417.57C75.8494 417.43 76.47 417.319 77.0935 417.238C77.9094 417.133 78.5708 417.054 79.0778 417.002C79.5906 416.943 79.9636 416.847 80.1967 416.713C80.4356 416.579 80.5551 416.346 80.5551 416.014V415.944C80.5551 415.082 80.3191 414.411 79.847 413.934C79.3808 413.456 78.6728 413.217 77.7229 413.217C76.7381 413.217 75.9659 413.432 75.4065 413.864C74.847 414.295 74.4537 414.755 74.2264 415.245L72.2684 414.545C72.618 413.73 73.0842 413.094 73.667 412.64C74.2555 412.179 74.8966 411.859 75.59 411.678C76.2893 411.492 76.977 411.399 77.653 411.399C78.0842 411.399 78.5795 411.451 79.139 411.556C79.7043 411.655 80.2491 411.862 80.7736 412.177C81.3039 412.491 81.7439 412.966 82.0935 413.601C82.4432 414.237 82.618 415.087 82.618 416.154V425H80.5551V423.182H80.4502C80.3103 423.473 80.0772 423.785 79.7509 424.117C79.4245 424.449 78.9904 424.732 78.4484 424.965C77.9065 425.198 77.245 425.315 76.4642 425.315ZM76.7788 423.462C77.5947 423.462 78.2823 423.301 78.8418 422.981C79.4071 422.66 79.8325 422.247 80.118 421.74C80.4094 421.233 80.5551 420.699 80.5551 420.14V418.252C80.4677 418.357 80.2754 418.453 79.9781 418.54C79.6868 418.622 79.3488 418.695 78.9642 418.759C78.5854 418.817 78.2153 418.869 77.854 418.916C77.4985 418.957 77.2101 418.992 76.9886 419.021C76.4525 419.091 75.9513 419.205 75.4851 419.362C75.0248 419.513 74.6518 419.744 74.3663 420.052C74.0865 420.355 73.9467 420.769 73.9467 421.294C73.9467 422.01 74.2118 422.552 74.7421 422.92C75.2783 423.281 75.9572 423.462 76.7788 423.462ZM95.8938 414.58L94.0406 415.105C93.9241 414.796 93.7522 414.496 93.5249 414.205C93.3035 413.907 93.0004 413.663 92.6158 413.47C92.2312 413.278 91.7388 413.182 91.1386 413.182C90.3169 413.182 89.6321 413.371 89.0844 413.75C88.5424 414.123 88.2714 414.598 88.2714 415.175C88.2714 415.688 88.4579 416.093 88.8309 416.39C89.2038 416.687 89.7866 416.935 90.5791 417.133L92.5721 417.622C93.7726 417.914 94.6671 418.36 95.2557 418.96C95.8443 419.554 96.1386 420.321 96.1386 421.259C96.1386 422.028 95.9171 422.716 95.4742 423.322C95.0372 423.928 94.4253 424.406 93.6386 424.755C92.8518 425.105 91.9369 425.28 90.8938 425.28C89.5243 425.28 88.3909 424.983 87.4934 424.388C86.596 423.794 86.0278 422.925 85.7889 421.783L87.7469 421.294C87.9334 422.016 88.286 422.558 88.8046 422.92C89.3291 423.281 90.0138 423.462 90.8588 423.462C91.8204 423.462 92.5838 423.258 93.149 422.85C93.7201 422.436 94.0057 421.941 94.0057 421.364C94.0057 420.897 93.8425 420.507 93.5162 420.192C93.1898 419.872 92.6887 419.633 92.0127 419.476L89.7749 418.951C88.5453 418.66 87.642 418.208 87.0651 417.596C86.494 416.978 86.2085 416.206 86.2085 415.28C86.2085 414.522 86.4212 413.852 86.8466 413.269C87.2778 412.686 87.8635 412.229 88.6036 411.897C89.3495 411.565 90.1945 411.399 91.1386 411.399C92.4672 411.399 93.5103 411.69 94.2679 412.273C95.0313 412.855 95.5733 413.625 95.8938 414.58ZM108.754 414.58L106.901 415.105C106.785 414.796 106.613 414.496 106.385 414.205C106.164 413.907 105.861 413.663 105.476 413.47C105.092 413.278 104.599 413.182 103.999 413.182C103.177 413.182 102.493 413.371 101.945 413.75C101.403 414.123 101.132 414.598 101.132 415.175C101.132 415.688 101.318 416.093 101.691 416.39C102.064 416.687 102.647 416.935 103.44 417.133L105.433 417.622C106.633 417.914 107.528 418.36 108.116 418.96C108.705 419.554 108.999 420.321 108.999 421.259C108.999 422.028 108.778 422.716 108.335 423.322C107.898 423.928 107.286 424.406 106.499 424.755C105.712 425.105 104.797 425.28 103.754 425.28C102.385 425.28 101.251 424.983 100.354 424.388C99.4566 423.794 98.8884 422.925 98.6495 421.783L100.608 421.294C100.794 422.016 101.147 422.558 101.665 422.92C102.19 423.281 102.874 423.462 103.719 423.462C104.681 423.462 105.444 423.258 106.01 422.85C106.581 422.436 106.866 421.941 106.866 421.364C106.866 420.897 106.703 420.507 106.377 420.192C106.05 419.872 105.549 419.633 104.873 419.476L102.635 418.951C101.406 418.66 100.503 418.208 99.9257 417.596C99.3546 416.978 99.0691 416.206 99.0691 415.28C99.0691 414.522 99.2818 413.852 99.7072 413.269C100.138 412.686 100.724 412.229 101.464 411.897C102.21 411.565 103.055 411.399 103.999 411.399C105.328 411.399 106.371 411.69 107.128 412.273C107.892 412.855 108.434 413.625 108.754 414.58ZM115.146 425L111.056 411.573H113.223L116.125 421.853H116.265L119.132 411.573H121.335L124.167 421.818H124.307L127.209 411.573H129.377L125.286 425H123.258L120.321 414.685H120.111L117.174 425H115.146ZM137.102 425.28C135.89 425.28 134.827 424.991 133.912 424.414C133.003 423.837 132.292 423.03 131.779 421.993C131.272 420.956 131.018 419.744 131.018 418.357C131.018 416.958 131.272 415.737 131.779 414.694C132.292 413.651 133.003 412.841 133.912 412.264C134.827 411.687 135.89 411.399 137.102 411.399C138.314 411.399 139.375 411.687 140.284 412.264C141.199 412.841 141.91 413.651 142.417 414.694C142.93 415.737 143.186 416.958 143.186 418.357C143.186 419.744 142.93 420.956 142.417 421.993C141.91 423.03 141.199 423.837 140.284 424.414C139.375 424.991 138.314 425.28 137.102 425.28ZM137.102 423.427C138.023 423.427 138.781 423.191 139.375 422.719C139.969 422.247 140.409 421.626 140.695 420.857C140.98 420.087 141.123 419.254 141.123 418.357C141.123 417.459 140.98 416.623 140.695 415.848C140.409 415.073 139.969 414.446 139.375 413.969C138.781 413.491 138.023 413.252 137.102 413.252C136.182 413.252 135.424 413.491 134.83 413.969C134.235 414.446 133.795 415.073 133.51 415.848C133.224 416.623 133.081 417.459 133.081 418.357C133.081 419.254 133.224 420.087 133.51 420.857C133.795 421.626 134.235 422.247 134.83 422.719C135.424 423.191 136.182 423.427 137.102 423.427ZM146.335 425V411.573H148.328V413.601H148.468C148.713 412.937 149.156 412.398 149.797 411.984C150.438 411.571 151.16 411.364 151.965 411.364C152.116 411.364 152.306 411.367 152.533 411.372C152.76 411.378 152.932 411.387 153.049 411.399V413.497C152.979 413.479 152.818 413.453 152.568 413.418C152.323 413.377 152.064 413.357 151.79 413.357C151.137 413.357 150.554 413.494 150.042 413.767C149.535 414.036 149.132 414.409 148.835 414.886C148.544 415.358 148.398 415.897 148.398 416.503V425H146.335ZM160.155 425.28C159.036 425.28 158.049 424.997 157.192 424.432C156.335 423.861 155.665 423.057 155.181 422.019C154.698 420.976 154.456 419.744 154.456 418.322C154.456 416.911 154.698 415.688 155.181 414.65C155.665 413.613 156.338 412.812 157.201 412.247C158.063 411.681 159.06 411.399 160.19 411.399C161.064 411.399 161.755 411.544 162.262 411.836C162.775 412.121 163.165 412.448 163.433 412.815C163.707 413.176 163.92 413.473 164.071 413.706H164.246V407.098H166.309V425H164.316V422.937H164.071C163.92 423.182 163.704 423.491 163.424 423.864C163.145 424.231 162.745 424.56 162.227 424.851C161.708 425.137 161.018 425.28 160.155 425.28ZM160.435 423.427C161.262 423.427 161.962 423.211 162.533 422.78C163.104 422.343 163.538 421.74 163.835 420.97C164.132 420.195 164.281 419.301 164.281 418.287C164.281 417.284 164.135 416.407 163.844 415.656C163.553 414.898 163.121 414.309 162.55 413.89C161.979 413.464 161.274 413.252 160.435 413.252C159.561 413.252 158.832 413.476 158.25 413.925C157.673 414.368 157.238 414.971 156.947 415.734C156.662 416.492 156.519 417.343 156.519 418.287C156.519 419.242 156.664 420.111 156.956 420.892C157.253 421.667 157.69 422.284 158.267 422.745C158.85 423.199 159.572 423.427 160.435 423.427Z" fill="black"/>
<path d="M60.1678 517V499.098H62.3357V515.077H70.6573V517H60.1678ZM73.7343 517V503.573H75.7972V517H73.7343ZM74.7832 501.336C74.3811 501.336 74.0344 501.199 73.743 500.925C73.4575 500.651 73.3147 500.322 73.3147 499.937C73.3147 499.552 73.4575 499.223 73.743 498.949C74.0344 498.675 74.3811 498.538 74.7832 498.538C75.1853 498.538 75.5291 498.675 75.8147 498.949C76.1061 499.223 76.2517 499.552 76.2517 499.937C76.2517 500.322 76.1061 500.651 75.8147 500.925C75.5291 501.199 75.1853 501.336 74.7832 501.336ZM85.0302 517.28C83.7714 517.28 82.6875 516.983 81.7784 516.388C80.8693 515.794 80.17 514.975 79.6805 513.932C79.191 512.889 78.9462 511.697 78.9462 510.357C78.9462 508.993 79.1968 507.79 79.698 506.747C80.205 505.698 80.9101 504.879 81.8134 504.29C82.7225 503.696 83.7831 503.399 84.9952 503.399C85.9392 503.399 86.7901 503.573 87.5476 503.923C88.3052 504.273 88.9258 504.762 89.4095 505.392C89.8932 506.021 90.1933 506.755 90.3099 507.594H88.2469C88.0896 506.983 87.7399 506.441 87.198 505.969C86.6619 505.491 85.9392 505.252 85.0302 505.252C84.226 505.252 83.5208 505.462 82.9148 505.881C82.3145 506.295 81.8454 506.881 81.5074 507.638C81.1753 508.39 81.0092 509.273 81.0092 510.287C81.0092 511.324 81.1723 512.227 81.4987 512.997C81.8309 513.766 82.2971 514.363 82.8973 514.788C83.5034 515.214 84.2143 515.427 85.0302 515.427C85.5663 515.427 86.0529 515.333 86.4899 515.147C86.927 514.96 87.2971 514.692 87.6001 514.343C87.9031 513.993 88.1187 513.573 88.2469 513.084H90.3099C90.1933 513.876 89.9049 514.59 89.4445 515.226C88.9899 515.855 88.3868 516.356 87.6351 516.729C86.8891 517.096 86.0208 517.28 85.0302 517.28ZM98.955 517.28C97.6613 517.28 96.5453 516.994 95.6071 516.423C94.6747 515.846 93.955 515.042 93.448 514.01C92.9468 512.973 92.6962 511.767 92.6962 510.392C92.6962 509.016 92.9468 507.804 93.448 506.755C93.955 505.7 94.6601 504.879 95.5634 504.29C96.4725 503.696 97.5331 503.399 98.7452 503.399C99.4445 503.399 100.135 503.515 100.817 503.748C101.499 503.981 102.119 504.36 102.679 504.885C103.238 505.403 103.684 506.091 104.016 506.948C104.348 507.804 104.514 508.859 104.514 510.112V510.986H94.1648V509.203H102.417C102.417 508.445 102.265 507.769 101.962 507.175C101.665 506.58 101.239 506.111 100.686 505.767C100.138 505.424 99.4911 505.252 98.7452 505.252C97.9235 505.252 97.2126 505.456 96.6123 505.864C96.0179 506.266 95.5605 506.79 95.2399 507.437C94.9194 508.084 94.7592 508.777 94.7592 509.517V510.706C94.7592 511.72 94.934 512.58 95.2837 513.285C95.6391 513.984 96.1316 514.517 96.7609 514.885C97.3903 515.246 98.1216 515.427 98.955 515.427C99.4969 515.427 99.9865 515.351 100.424 515.199C100.866 515.042 101.248 514.809 101.569 514.5C101.889 514.185 102.137 513.795 102.312 513.329L104.305 513.888C104.095 514.564 103.742 515.159 103.247 515.671C102.752 516.178 102.14 516.575 101.411 516.86C100.683 517.14 99.8641 517.28 98.955 517.28ZM109.715 508.923V517H107.653V503.573H109.646V505.671H109.82C110.135 504.99 110.613 504.442 111.254 504.028C111.895 503.608 112.722 503.399 113.736 503.399C114.646 503.399 115.441 503.585 116.123 503.958C116.805 504.325 117.335 504.885 117.714 505.636C118.093 506.382 118.282 507.326 118.282 508.469V517H116.219V508.608C116.219 507.554 115.945 506.732 115.397 506.143C114.85 505.549 114.098 505.252 113.142 505.252C112.484 505.252 111.895 505.395 111.376 505.68C110.863 505.966 110.458 506.382 110.161 506.93C109.864 507.478 109.715 508.142 109.715 508.923ZM131.562 506.58L129.709 507.105C129.592 506.796 129.42 506.496 129.193 506.205C128.972 505.907 128.669 505.663 128.284 505.47C127.899 505.278 127.407 505.182 126.807 505.182C125.985 505.182 125.3 505.371 124.753 505.75C124.211 506.123 123.94 506.598 123.94 507.175C123.94 507.688 124.126 508.093 124.499 508.39C124.872 508.687 125.455 508.935 126.247 509.133L128.24 509.622C129.441 509.914 130.335 510.36 130.924 510.96C131.513 511.554 131.807 512.321 131.807 513.259C131.807 514.028 131.585 514.716 131.142 515.322C130.705 515.928 130.094 516.406 129.307 516.755C128.52 517.105 127.605 517.28 126.562 517.28C125.193 517.28 124.059 516.983 123.162 516.388C122.264 515.794 121.696 514.925 121.457 513.783L123.415 513.294C123.602 514.016 123.954 514.558 124.473 514.92C124.997 515.281 125.682 515.462 126.527 515.462C127.489 515.462 128.252 515.258 128.817 514.85C129.388 514.436 129.674 513.941 129.674 513.364C129.674 512.897 129.511 512.507 129.184 512.192C128.858 511.872 128.357 511.633 127.681 511.476L125.443 510.951C124.214 510.66 123.31 510.208 122.733 509.596C122.162 508.978 121.877 508.206 121.877 507.28C121.877 506.522 122.089 505.852 122.515 505.269C122.946 504.686 123.532 504.229 124.272 503.897C125.018 503.565 125.863 503.399 126.807 503.399C128.135 503.399 129.179 503.69 129.936 504.273C130.7 504.855 131.242 505.625 131.562 506.58ZM140.542 517.28C139.248 517.28 138.132 516.994 137.194 516.423C136.261 515.846 135.542 515.042 135.035 514.01C134.533 512.973 134.283 511.767 134.283 510.392C134.283 509.016 134.533 507.804 135.035 506.755C135.542 505.7 136.247 504.879 137.15 504.29C138.059 503.696 139.12 503.399 140.332 503.399C141.031 503.399 141.722 503.515 142.403 503.748C143.085 503.981 143.706 504.36 144.265 504.885C144.825 505.403 145.271 506.091 145.603 506.948C145.935 507.804 146.101 508.859 146.101 510.112V510.986H135.751V509.203H144.003C144.003 508.445 143.852 507.769 143.549 507.175C143.251 506.58 142.826 506.111 142.272 505.767C141.725 505.424 141.078 505.252 140.332 505.252C139.51 505.252 138.799 505.456 138.199 505.864C137.604 506.266 137.147 506.79 136.826 507.437C136.506 508.084 136.346 508.777 136.346 509.517V510.706C136.346 511.72 136.521 512.58 136.87 513.285C137.226 513.984 137.718 514.517 138.347 514.885C138.977 515.246 139.708 515.427 140.542 515.427C141.083 515.427 141.573 515.351 142.01 515.199C142.453 515.042 142.835 514.809 143.155 514.5C143.476 514.185 143.723 513.795 143.898 513.329L145.891 513.888C145.681 514.564 145.329 515.159 144.833 515.671C144.338 516.178 143.726 516.575 142.998 516.86C142.269 517.14 141.451 517.28 140.542 517.28ZM170.638 499.098V517H168.54L158.785 502.944H158.61V517H156.442V499.098H158.54L168.33 513.189H168.505V499.098H170.638ZM183.157 511.51V503.573H185.22V517H183.157V514.727H183.017C182.703 515.409 182.213 515.989 181.549 516.467C180.885 516.939 180.045 517.175 179.031 517.175C178.192 517.175 177.446 516.991 176.794 516.624C176.141 516.251 175.628 515.692 175.255 514.946C174.882 514.194 174.696 513.247 174.696 512.105V503.573H176.759V511.965C176.759 512.944 177.033 513.725 177.58 514.308C178.134 514.89 178.839 515.182 179.696 515.182C180.209 515.182 180.73 515.051 181.26 514.788C181.797 514.526 182.245 514.124 182.607 513.582C182.974 513.04 183.157 512.35 183.157 511.51ZM188.999 517V503.573H190.992V505.671H191.167C191.446 504.955 191.898 504.398 192.521 504.002C193.145 503.6 193.894 503.399 194.768 503.399C195.654 503.399 196.391 503.6 196.979 504.002C197.574 504.398 198.037 504.955 198.369 505.671H198.509C198.853 504.978 199.369 504.427 200.056 504.019C200.744 503.605 201.569 503.399 202.53 503.399C203.731 503.399 204.713 503.774 205.476 504.526C206.239 505.272 206.621 506.435 206.621 508.014V517H204.558V508.014C204.558 507.023 204.287 506.315 203.745 505.89C203.203 505.464 202.565 505.252 201.831 505.252C200.887 505.252 200.155 505.537 199.637 506.108C199.118 506.674 198.859 507.39 198.859 508.259V517H196.761V507.804C196.761 507.041 196.513 506.426 196.018 505.96C195.523 505.488 194.884 505.252 194.104 505.252C193.567 505.252 193.066 505.395 192.6 505.68C192.14 505.966 191.767 506.362 191.481 506.869C191.201 507.37 191.062 507.95 191.062 508.608V517H188.999ZM210.673 517V499.098H212.736V505.706H212.91C213.062 505.473 213.272 505.176 213.54 504.815C213.814 504.448 214.204 504.121 214.711 503.836C215.224 503.544 215.917 503.399 216.792 503.399C217.922 503.399 218.919 503.681 219.781 504.247C220.644 504.812 221.317 505.613 221.8 506.65C222.284 507.688 222.526 508.911 222.526 510.322C222.526 511.744 222.284 512.976 221.8 514.019C221.317 515.057 220.646 515.861 219.79 516.432C218.933 516.997 217.945 517.28 216.826 517.28C215.964 517.28 215.273 517.137 214.755 516.851C214.236 516.56 213.837 516.231 213.557 515.864C213.278 515.491 213.062 515.182 212.91 514.937H212.666V517H210.673ZM212.701 510.287C212.701 511.301 212.849 512.195 213.146 512.97C213.444 513.74 213.878 514.343 214.449 514.78C215.02 515.211 215.719 515.427 216.547 515.427C217.409 515.427 218.129 515.199 218.706 514.745C219.289 514.284 219.726 513.667 220.017 512.892C220.314 512.111 220.463 511.242 220.463 510.287C220.463 509.343 220.317 508.492 220.026 507.734C219.74 506.971 219.306 506.368 218.723 505.925C218.146 505.476 217.421 505.252 216.547 505.252C215.708 505.252 215.002 505.464 214.431 505.89C213.86 506.309 213.429 506.898 213.138 507.656C212.846 508.407 212.701 509.284 212.701 510.287ZM231.311 517.28C230.017 517.28 228.901 516.994 227.963 516.423C227.03 515.846 226.311 515.042 225.804 514.01C225.303 512.973 225.052 511.767 225.052 510.392C225.052 509.016 225.303 507.804 225.804 506.755C226.311 505.7 227.016 504.879 227.919 504.29C228.828 503.696 229.889 503.399 231.101 503.399C231.8 503.399 232.491 503.515 233.173 503.748C233.854 503.981 234.475 504.36 235.035 504.885C235.594 505.403 236.04 506.091 236.372 506.948C236.704 507.804 236.87 508.859 236.87 510.112V510.986H226.521V509.203H234.772C234.772 508.445 234.621 507.769 234.318 507.175C234.021 506.58 233.595 506.111 233.042 505.767C232.494 505.424 231.847 505.252 231.101 505.252C230.279 505.252 229.568 505.456 228.968 505.864C228.374 506.266 227.916 506.79 227.596 507.437C227.275 508.084 227.115 508.777 227.115 509.517V510.706C227.115 511.72 227.29 512.58 227.639 513.285C227.995 513.984 228.487 514.517 229.117 514.885C229.746 515.246 230.477 515.427 231.311 515.427C231.853 515.427 232.342 515.351 232.779 515.199C233.222 515.042 233.604 514.809 233.924 514.5C234.245 514.185 234.493 513.795 234.667 513.329L236.66 513.888C236.451 514.564 236.098 515.159 235.603 515.671C235.107 516.178 234.495 516.575 233.767 516.86C233.039 517.14 232.22 517.28 231.311 517.28ZM240.008 517V503.573H242.001V505.601H242.141C242.386 504.937 242.829 504.398 243.47 503.984C244.111 503.571 244.833 503.364 245.638 503.364C245.789 503.364 245.979 503.367 246.206 503.372C246.433 503.378 246.605 503.387 246.722 503.399V505.497C246.652 505.479 246.491 505.453 246.241 505.418C245.996 505.377 245.737 505.357 245.463 505.357C244.81 505.357 244.227 505.494 243.715 505.767C243.208 506.036 242.806 506.409 242.508 506.886C242.217 507.358 242.071 507.897 242.071 508.503V517H240.008Z" fill="black"/>
<rect x="106" y="692" width="204" height="47" fill="#D9D9D9"/>
<path d="M168.168 723V705.098H174.217C175.615 705.098 176.763 705.337 177.661 705.815C178.558 706.287 179.223 706.936 179.654 707.764C180.085 708.591 180.301 709.533 180.301 710.587C180.301 711.642 180.085 712.578 179.654 713.393C179.223 714.209 178.561 714.85 177.67 715.316C176.778 715.777 175.639 716.007 174.252 716.007H169.357V714.049H174.182C175.138 714.049 175.907 713.909 176.49 713.629C177.078 713.35 177.503 712.953 177.766 712.441C178.034 711.922 178.168 711.304 178.168 710.587C178.168 709.871 178.034 709.244 177.766 708.708C177.498 708.172 177.069 707.758 176.481 707.467C175.892 707.17 175.114 707.021 174.147 707.021H170.336V723H168.168ZM176.594 714.958L181 723H178.483L174.147 714.958H176.594ZM189.118 723.28C187.825 723.28 186.709 722.994 185.771 722.423C184.838 721.846 184.118 721.042 183.611 720.01C183.11 718.973 182.86 717.767 182.86 716.392C182.86 715.016 183.11 713.804 183.611 712.755C184.118 711.7 184.824 710.879 185.727 710.29C186.636 709.696 187.697 709.399 188.909 709.399C189.608 709.399 190.299 709.515 190.98 709.748C191.662 709.981 192.283 710.36 192.842 710.885C193.402 711.403 193.847 712.091 194.18 712.948C194.512 713.804 194.678 714.859 194.678 716.112V716.986H184.328V715.203H192.58C192.58 714.445 192.428 713.769 192.125 713.175C191.828 712.58 191.403 712.111 190.849 711.767C190.301 711.424 189.655 711.252 188.909 711.252C188.087 711.252 187.376 711.456 186.776 711.864C186.181 712.266 185.724 712.79 185.403 713.437C185.083 714.084 184.923 714.777 184.923 715.517V716.706C184.923 717.72 185.097 718.58 185.447 719.285C185.803 719.984 186.295 720.517 186.924 720.885C187.554 721.246 188.285 721.427 189.118 721.427C189.66 721.427 190.15 721.351 190.587 721.199C191.03 721.042 191.412 720.809 191.732 720.5C192.053 720.185 192.3 719.795 192.475 719.329L194.468 719.888C194.258 720.564 193.906 721.159 193.41 721.671C192.915 722.178 192.303 722.575 191.575 722.86C190.846 723.14 190.028 723.28 189.118 723.28ZM203.236 728.315C202.239 728.315 201.382 728.186 200.666 727.93C199.949 727.679 199.352 727.347 198.874 726.934C198.402 726.526 198.026 726.089 197.746 725.622L199.389 724.469C199.576 724.713 199.812 724.993 200.097 725.308C200.383 725.628 200.773 725.905 201.269 726.138C201.77 726.377 202.426 726.497 203.236 726.497C204.319 726.497 205.214 726.234 205.919 725.71C206.624 725.185 206.977 724.364 206.977 723.245V720.517H206.802C206.65 720.762 206.435 721.065 206.155 721.427C205.881 721.782 205.485 722.1 204.966 722.379C204.454 722.653 203.76 722.79 202.886 722.79C201.802 722.79 200.829 722.534 199.966 722.021C199.11 721.508 198.431 720.762 197.93 719.783C197.434 718.804 197.187 717.615 197.187 716.217C197.187 714.841 197.428 713.644 197.912 712.624C198.396 711.598 199.069 710.806 199.931 710.247C200.794 709.681 201.79 709.399 202.921 709.399C203.795 709.399 204.488 709.544 205.001 709.836C205.52 710.121 205.916 710.448 206.19 710.815C206.47 711.176 206.685 711.473 206.837 711.706H207.047V709.573H209.04V723.385C209.04 724.538 208.778 725.477 208.253 726.199C207.734 726.928 207.035 727.461 206.155 727.799C205.281 728.143 204.308 728.315 203.236 728.315ZM203.166 720.937C203.993 720.937 204.692 720.748 205.264 720.369C205.835 719.99 206.269 719.445 206.566 718.734C206.863 718.023 207.012 717.172 207.012 716.182C207.012 715.214 206.866 714.361 206.575 713.621C206.283 712.881 205.852 712.301 205.281 711.881C204.71 711.462 204.005 711.252 203.166 711.252C202.292 711.252 201.563 711.473 200.98 711.916C200.403 712.359 199.969 712.953 199.678 713.699C199.392 714.445 199.25 715.273 199.25 716.182C199.25 717.114 199.395 717.939 199.687 718.656C199.984 719.367 200.421 719.926 200.998 720.334C201.581 720.736 202.303 720.937 203.166 720.937ZM212.816 723V709.573H214.879V723H212.816ZM213.865 707.336C213.463 707.336 213.116 707.199 212.825 706.925C212.539 706.651 212.396 706.322 212.396 705.937C212.396 705.552 212.539 705.223 212.825 704.949C213.116 704.675 213.463 704.538 213.865 704.538C214.267 704.538 214.611 704.675 214.896 704.949C215.188 705.223 215.333 705.552 215.333 705.937C215.333 706.322 215.188 706.651 214.896 706.925C214.611 707.199 214.267 707.336 213.865 707.336ZM228.168 712.58L226.315 713.105C226.198 712.796 226.026 712.496 225.799 712.205C225.578 711.907 225.274 711.663 224.89 711.47C224.505 711.278 224.013 711.182 223.413 711.182C222.591 711.182 221.906 711.371 221.358 711.75C220.816 712.123 220.545 712.598 220.545 713.175C220.545 713.688 220.732 714.093 221.105 714.39C221.478 714.687 222.061 714.935 222.853 715.133L224.846 715.622C226.047 715.914 226.941 716.36 227.53 716.96C228.118 717.554 228.413 718.321 228.413 719.259C228.413 720.028 228.191 720.716 227.748 721.322C227.311 721.928 226.699 722.406 225.913 722.755C225.126 723.105 224.211 723.28 223.168 723.28C221.798 723.28 220.665 722.983 219.767 722.388C218.87 721.794 218.302 720.925 218.063 719.783L220.021 719.294C220.207 720.016 220.56 720.558 221.079 720.92C221.603 721.281 222.288 721.462 223.133 721.462C224.094 721.462 224.858 721.258 225.423 720.85C225.994 720.436 226.28 719.941 226.28 719.364C226.28 718.897 226.117 718.507 225.79 718.192C225.464 717.872 224.963 717.633 224.287 717.476L222.049 716.951C220.819 716.66 219.916 716.208 219.339 715.596C218.768 714.978 218.483 714.206 218.483 713.28C218.483 712.522 218.695 711.852 219.121 711.269C219.552 710.686 220.138 710.229 220.878 709.897C221.624 709.565 222.469 709.399 223.413 709.399C224.741 709.399 225.784 709.69 226.542 710.273C227.305 710.855 227.847 711.625 228.168 712.58ZM237.357 709.573V711.322H230.399V709.573H237.357ZM232.427 706.357H234.49V719.154C234.49 719.737 234.574 720.174 234.743 720.465C234.918 720.751 235.14 720.943 235.408 721.042C235.682 721.135 235.97 721.182 236.273 721.182C236.5 721.182 236.687 721.17 236.833 721.147C236.978 721.118 237.095 721.094 237.182 721.077L237.602 722.93C237.462 722.983 237.267 723.035 237.016 723.087C236.766 723.146 236.448 723.175 236.063 723.175C235.481 723.175 234.91 723.05 234.35 722.799C233.796 722.548 233.336 722.167 232.969 721.654C232.608 721.141 232.427 720.494 232.427 719.713V706.357ZM245.945 723.28C244.652 723.28 243.536 722.994 242.597 722.423C241.665 721.846 240.945 721.042 240.438 720.01C239.937 718.973 239.687 717.767 239.687 716.392C239.687 715.016 239.937 713.804 240.438 712.755C240.945 711.7 241.65 710.879 242.554 710.29C243.463 709.696 244.523 709.399 245.736 709.399C246.435 709.399 247.125 709.515 247.807 709.748C248.489 709.981 249.11 710.36 249.669 710.885C250.229 711.403 250.674 712.091 251.007 712.948C251.339 713.804 251.505 714.859 251.505 716.112V716.986H241.155V715.203H249.407C249.407 714.445 249.255 713.769 248.952 713.175C248.655 712.58 248.23 712.111 247.676 711.767C247.128 711.424 246.482 711.252 245.736 711.252C244.914 711.252 244.203 711.456 243.603 711.864C243.008 712.266 242.551 712.79 242.23 713.437C241.91 714.084 241.75 714.777 241.75 715.517V716.706C241.75 717.72 241.924 718.58 242.274 719.285C242.63 719.984 243.122 720.517 243.751 720.885C244.381 721.246 245.112 721.427 245.945 721.427C246.487 721.427 246.977 721.351 247.414 721.199C247.857 721.042 248.238 720.809 248.559 720.5C248.88 720.185 249.127 719.795 249.302 719.329L251.295 719.888C251.085 720.564 250.733 721.159 250.237 721.671C249.742 722.178 249.13 722.575 248.402 722.86C247.673 723.14 246.854 723.28 245.945 723.28ZM254.643 723V709.573H256.636V711.601H256.776C257.021 710.937 257.463 710.398 258.104 709.984C258.745 709.571 259.468 709.364 260.272 709.364C260.424 709.364 260.613 709.367 260.84 709.372C261.068 709.378 261.24 709.387 261.356 709.399V711.497C261.286 711.479 261.126 711.453 260.875 711.418C260.631 711.377 260.371 711.357 260.097 711.357C259.445 711.357 258.862 711.494 258.349 711.767C257.842 712.036 257.44 712.409 257.143 712.886C256.852 713.358 256.706 713.897 256.706 714.503V723H254.643Z" fill="black"/>
<path d="M62.3357 588.098V606H60.1678V588.098H62.3357ZM66.4025 606V592.573H68.3955V594.671H68.5704C68.8501 593.955 69.3017 593.398 69.9253 593.002C70.5488 592.6 71.2976 592.399 72.1718 592.399C73.0575 592.399 73.7947 592.6 74.3833 593.002C74.9777 593.398 75.441 593.955 75.7732 594.671H75.913C76.2568 593.978 76.7726 593.427 77.4602 593.019C78.1479 592.605 78.9725 592.399 79.934 592.399C81.1345 592.399 82.1164 592.774 82.8798 593.526C83.6432 594.272 84.0249 595.435 84.0249 597.014V606H81.962V597.014C81.962 596.023 81.691 595.315 81.149 594.89C80.6071 594.464 79.969 594.252 79.2347 594.252C78.2906 594.252 77.5593 594.537 77.0406 595.108C76.522 595.674 76.2627 596.39 76.2627 597.259V606H74.1648V596.804C74.1648 596.041 73.9171 595.426 73.4218 594.96C72.9264 594.488 72.2883 594.252 71.5074 594.252C70.9713 594.252 70.4701 594.395 70.0039 594.68C69.5436 594.966 69.1706 595.362 68.8851 595.869C68.6053 596.37 68.4655 596.95 68.4655 597.608V606H66.4025ZM91.7478 606.315C90.897 606.315 90.1249 606.154 89.4314 605.834C88.7379 605.508 88.1872 605.038 87.7793 604.427C87.3714 603.809 87.1674 603.063 87.1674 602.189C87.1674 601.42 87.3189 600.796 87.6219 600.318C87.925 599.834 88.33 599.456 88.837 599.182C89.344 598.908 89.9034 598.704 90.5153 598.57C91.133 598.43 91.7536 598.319 92.3772 598.238C93.193 598.133 93.8545 598.054 94.3615 598.002C94.8743 597.943 95.2472 597.847 95.4803 597.713C95.7193 597.579 95.8387 597.346 95.8387 597.014V596.944C95.8387 596.082 95.6027 595.411 95.1307 594.934C94.6645 594.456 93.9564 594.217 93.0066 594.217C92.0217 594.217 91.2496 594.432 90.6901 594.864C90.1307 595.295 89.7373 595.755 89.5101 596.245L87.552 595.545C87.9017 594.73 88.3679 594.094 88.9506 593.64C89.5392 593.179 90.1802 592.859 90.8737 592.678C91.573 592.492 92.2606 592.399 92.9366 592.399C93.3679 592.399 93.8632 592.451 94.4226 592.556C94.9879 592.655 95.5328 592.862 96.0573 593.177C96.5876 593.491 97.0275 593.966 97.3772 594.601C97.7268 595.237 97.9017 596.087 97.9017 597.154V606H95.8387V604.182H95.7338C95.594 604.473 95.3609 604.785 95.0345 605.117C94.7082 605.449 94.274 605.732 93.7321 605.965C93.1901 606.198 92.5287 606.315 91.7478 606.315ZM92.0625 604.462C92.8784 604.462 93.566 604.301 94.1254 603.981C94.6907 603.66 95.1161 603.247 95.4017 602.74C95.693 602.233 95.8387 601.699 95.8387 601.14V599.252C95.7513 599.357 95.559 599.453 95.2618 599.54C94.9704 599.622 94.6324 599.695 94.2478 599.759C93.869 599.817 93.499 599.869 93.1377 599.916C92.7822 599.957 92.4937 599.992 92.2723 600.021C91.7362 600.091 91.235 600.205 90.7688 600.362C90.3084 600.513 89.9355 600.744 89.6499 601.052C89.3702 601.355 89.2303 601.769 89.2303 602.294C89.2303 603.01 89.4955 603.552 90.0258 603.92C90.5619 604.281 91.2408 604.462 92.0625 604.462ZM107.087 611.315C106.09 611.315 105.233 611.186 104.517 610.93C103.8 610.679 103.203 610.347 102.725 609.934C102.253 609.526 101.877 609.089 101.597 608.622L103.24 607.469C103.427 607.713 103.663 607.993 103.948 608.308C104.234 608.628 104.624 608.905 105.12 609.138C105.621 609.377 106.277 609.497 107.087 609.497C108.17 609.497 109.065 609.234 109.77 608.71C110.475 608.185 110.828 607.364 110.828 606.245V603.517H110.653C110.501 603.762 110.286 604.065 110.006 604.427C109.732 604.782 109.336 605.1 108.817 605.379C108.304 605.653 107.611 605.79 106.737 605.79C105.653 605.79 104.68 605.534 103.817 605.021C102.961 604.508 102.282 603.762 101.781 602.783C101.285 601.804 101.038 600.615 101.038 599.217C101.038 597.841 101.279 596.644 101.763 595.624C102.247 594.598 102.92 593.806 103.782 593.247C104.645 592.681 105.641 592.399 106.772 592.399C107.646 592.399 108.339 592.544 108.852 592.836C109.371 593.121 109.767 593.448 110.041 593.815C110.321 594.176 110.536 594.473 110.688 594.706H110.898V592.573H112.891V606.385C112.891 607.538 112.628 608.477 112.104 609.199C111.585 609.928 110.886 610.461 110.006 610.799C109.132 611.143 108.159 611.315 107.087 611.315ZM107.017 603.937C107.844 603.937 108.543 603.748 109.115 603.369C109.686 602.99 110.12 602.445 110.417 601.734C110.714 601.023 110.863 600.172 110.863 599.182C110.863 598.214 110.717 597.361 110.426 596.621C110.134 595.881 109.703 595.301 109.132 594.881C108.561 594.462 107.856 594.252 107.017 594.252C106.142 594.252 105.414 594.473 104.831 594.916C104.254 595.359 103.82 595.953 103.529 596.699C103.243 597.445 103.101 598.273 103.101 599.182C103.101 600.114 103.246 600.939 103.538 601.656C103.835 602.367 104.272 602.926 104.849 603.334C105.432 603.736 106.154 603.937 107.017 603.937ZM122.296 606.28C121.003 606.28 119.887 605.994 118.948 605.423C118.016 604.846 117.296 604.042 116.789 603.01C116.288 601.973 116.038 600.767 116.038 599.392C116.038 598.016 116.288 596.804 116.789 595.755C117.296 594.7 118.001 593.879 118.905 593.29C119.814 592.696 120.874 592.399 122.087 592.399C122.786 592.399 123.476 592.515 124.158 592.748C124.84 592.981 125.461 593.36 126.02 593.885C126.58 594.403 127.025 595.091 127.358 595.948C127.69 596.804 127.856 597.859 127.856 599.112V599.986H117.506V598.203H125.758C125.758 597.445 125.606 596.769 125.303 596.175C125.006 595.58 124.581 595.111 124.027 594.767C123.479 594.424 122.832 594.252 122.087 594.252C121.265 594.252 120.554 594.456 119.954 594.864C119.359 595.266 118.902 595.79 118.581 596.437C118.261 597.084 118.101 597.777 118.101 598.517V599.706C118.101 600.72 118.275 601.58 118.625 602.285C118.98 602.984 119.473 603.517 120.102 603.885C120.732 604.246 121.463 604.427 122.296 604.427C122.838 604.427 123.328 604.351 123.765 604.199C124.208 604.042 124.589 603.809 124.91 603.5C125.23 603.185 125.478 602.795 125.653 602.329L127.646 602.888C127.436 603.564 127.084 604.159 126.588 604.671C126.093 605.178 125.481 605.575 124.753 605.86C124.024 606.14 123.205 606.28 122.296 606.28Z" fill="black"/>
</svg>
