<svg width="430" height="932" viewBox="0 0 430 932" fill="none" xmlns="http://www.w3.org/2000/svg">
<rect width="430" height="932" fill="white"/>
<ellipse cx="215" cy="99.5" rx="82" ry="73.5" fill="#D9D9D9"/>
<path d="M187.168 104V86.0979H189.336V102.077H197.657V104H187.168ZM206.189 104.28C204.977 104.28 203.913 103.991 202.998 103.414C202.089 102.837 201.378 102.03 200.865 100.993C200.358 99.9557 200.105 98.7436 200.105 97.3566C200.105 95.958 200.358 94.7372 200.865 93.6941C201.378 92.6509 202.089 91.8409 202.998 91.264C203.913 90.6871 204.977 90.3986 206.189 90.3986C207.401 90.3986 208.462 90.6871 209.371 91.264C210.286 91.8409 210.997 92.6509 211.503 93.6941C212.016 94.7372 212.273 95.958 212.273 97.3566C212.273 98.7436 212.016 99.9557 211.503 100.993C210.997 102.03 210.286 102.837 209.371 103.414C208.462 103.991 207.401 104.28 206.189 104.28ZM206.189 102.427C207.11 102.427 207.867 102.191 208.462 101.719C209.056 101.247 209.496 100.626 209.781 99.8566C210.067 99.0874 210.21 98.2541 210.21 97.3566C210.21 96.4592 210.067 95.623 209.781 94.8479C209.496 94.0728 209.056 93.4464 208.462 92.9685C207.867 92.4907 207.11 92.2517 206.189 92.2517C205.268 92.2517 204.51 92.4907 203.916 92.9685C203.322 93.4464 202.882 94.0728 202.596 94.8479C202.311 95.623 202.168 96.4592 202.168 97.3566C202.168 98.2541 202.311 99.0874 202.596 99.8566C202.882 100.626 203.322 101.247 203.916 101.719C204.51 102.191 205.268 102.427 206.189 102.427ZM220.841 109.315C219.845 109.315 218.988 109.186 218.271 108.93C217.555 108.679 216.957 108.347 216.479 107.934C216.007 107.526 215.632 107.089 215.352 106.622L216.995 105.469C217.182 105.713 217.418 105.993 217.703 106.308C217.989 106.628 218.379 106.905 218.875 107.138C219.376 107.377 220.031 107.497 220.841 107.497C221.925 107.497 222.82 107.234 223.525 106.71C224.23 106.185 224.583 105.364 224.583 104.245V101.517H224.408C224.256 101.762 224.041 102.065 223.761 102.427C223.487 102.782 223.091 103.1 222.572 103.379C222.059 103.653 221.366 103.79 220.492 103.79C219.408 103.79 218.435 103.534 217.572 103.021C216.715 102.508 216.037 101.762 215.535 100.783C215.04 99.8042 214.792 98.6154 214.792 97.2168C214.792 95.8415 215.034 94.6439 215.518 93.6241C216.002 92.5985 216.675 91.8059 217.537 91.2465C218.4 90.6812 219.396 90.3986 220.527 90.3986C221.401 90.3986 222.094 90.5443 222.607 90.8357C223.126 91.1212 223.522 91.4476 223.796 91.8147C224.076 92.176 224.291 92.4732 224.443 92.7063H224.653V90.5734H226.646V104.385C226.646 105.538 226.383 106.477 225.859 107.199C225.34 107.928 224.641 108.461 223.761 108.799C222.887 109.143 221.914 109.315 220.841 109.315ZM220.771 101.937C221.599 101.937 222.298 101.748 222.869 101.369C223.44 100.99 223.875 100.445 224.172 99.7343C224.469 99.0233 224.618 98.1725 224.618 97.1818C224.618 96.2145 224.472 95.3607 224.181 94.6206C223.889 93.8805 223.458 93.3007 222.887 92.8811C222.316 92.4615 221.611 92.2517 220.771 92.2517C219.897 92.2517 219.169 92.4732 218.586 92.9161C218.009 93.359 217.575 93.9534 217.284 94.6993C216.998 95.4452 216.855 96.2727 216.855 97.1818C216.855 98.1142 217.001 98.9388 217.292 99.6556C217.59 100.367 218.027 100.926 218.604 101.334C219.186 101.736 219.909 101.937 220.771 101.937ZM235.876 104.28C234.664 104.28 233.601 103.991 232.686 103.414C231.777 102.837 231.066 102.03 230.553 100.993C230.046 99.9557 229.792 98.7436 229.792 97.3566C229.792 95.958 230.046 94.7372 230.553 93.6941C231.066 92.6509 231.777 91.8409 232.686 91.264C233.601 90.6871 234.664 90.3986 235.876 90.3986C237.088 90.3986 238.149 90.6871 239.058 91.264C239.973 91.8409 240.684 92.6509 241.191 93.6941C241.704 94.7372 241.96 95.958 241.96 97.3566C241.96 98.7436 241.704 99.9557 241.191 100.993C240.684 102.03 239.973 102.837 239.058 103.414C238.149 103.991 237.088 104.28 235.876 104.28ZM235.876 102.427C236.797 102.427 237.555 102.191 238.149 101.719C238.743 101.247 239.183 100.626 239.469 99.8566C239.755 99.0874 239.897 98.2541 239.897 97.3566C239.897 96.4592 239.755 95.623 239.469 94.8479C239.183 94.0728 238.743 93.4464 238.149 92.9685C237.555 92.4907 236.797 92.2517 235.876 92.2517C234.956 92.2517 234.198 92.4907 233.604 92.9685C233.009 93.4464 232.569 94.0728 232.284 94.8479C231.998 95.623 231.855 96.4592 231.855 97.3566C231.855 98.2541 231.998 99.0874 232.284 99.8566C232.569 100.626 233.009 101.247 233.604 101.719C234.198 102.191 234.956 102.427 235.876 102.427Z" fill="black"/>
<rect x="41" y="481" width="348" height="52" fill="#D9D9D9"/>
<rect x="41" y="635" width="348" height="52" fill="#D9D9D9"/>
<rect x="41" y="558" width="348" height="52" fill="#D9D9D9"/>
<rect x="41" y="392" width="348" height="52" fill="#D9D9D9"/>
<rect x="41" y="303" width="348" height="52" fill="#D9D9D9"/>
<rect x="41" y="214" width="158" height="52" fill="#D9D9D9"/>
<path d="M67.1678 245V227.098H77.9021V229.021H69.3357V235.07H77.0979V236.993H69.3357V245H67.1678ZM83.2539 236.923V245H81.191V231.573H83.184V233.671H83.3588C83.6735 232.99 84.1514 232.442 84.7924 232.028C85.4334 231.608 86.2609 231.399 87.2749 231.399C88.184 231.399 88.9795 231.585 89.6613 231.958C90.3431 232.325 90.8734 232.885 91.2522 233.636C91.631 234.382 91.8204 235.326 91.8204 236.469V245H89.7574V236.608C89.7574 235.554 89.4835 234.732 88.9358 234.143C88.388 233.549 87.6362 233.252 86.6805 233.252C86.022 233.252 85.4334 233.395 84.9148 233.68C84.402 233.966 83.9969 234.382 83.6997 234.93C83.4025 235.478 83.2539 236.142 83.2539 236.923ZM99.5411 245.315C98.6903 245.315 97.9181 245.154 97.2247 244.834C96.5312 244.508 95.9805 244.038 95.5726 243.427C95.1646 242.809 94.9607 242.063 94.9607 241.189C94.9607 240.42 95.1122 239.796 95.4152 239.318C95.7182 238.834 96.1233 238.456 96.6302 238.182C97.1372 237.908 97.6967 237.704 98.3086 237.57C98.9263 237.43 99.5469 237.319 100.17 237.238C100.986 237.133 101.648 237.054 102.155 237.002C102.668 236.943 103.041 236.847 103.274 236.713C103.513 236.579 103.632 236.346 103.632 236.014V235.944C103.632 235.082 103.396 234.411 102.924 233.934C102.458 233.456 101.75 233.217 100.8 233.217C99.815 233.217 99.0428 233.432 98.4834 233.864C97.924 234.295 97.5306 234.755 97.3033 235.245L95.3453 234.545C95.6949 233.73 96.1611 233.094 96.7439 232.64C97.3325 232.179 97.9735 231.859 98.667 231.678C99.3663 231.492 100.054 231.399 100.73 231.399C101.161 231.399 101.656 231.451 102.216 231.556C102.781 231.655 103.326 231.862 103.851 232.177C104.381 232.491 104.821 232.966 105.17 233.601C105.52 234.237 105.695 235.087 105.695 236.154V245H103.632V243.182H103.527C103.387 243.473 103.154 243.785 102.828 244.117C102.501 244.449 102.067 244.732 101.525 244.965C100.983 245.198 100.322 245.315 99.5411 245.315ZM99.8558 243.462C100.672 243.462 101.359 243.301 101.919 242.981C102.484 242.66 102.909 242.247 103.195 241.74C103.486 241.233 103.632 240.699 103.632 240.14V238.252C103.545 238.357 103.352 238.453 103.055 238.54C102.764 238.622 102.426 238.695 102.041 238.759C101.662 238.817 101.292 238.869 100.931 238.916C100.575 238.957 100.287 238.992 100.066 239.021C99.5294 239.091 99.0283 239.205 98.5621 239.362C98.1017 239.513 97.7287 239.744 97.4432 240.052C97.1635 240.355 97.0236 240.769 97.0236 241.294C97.0236 242.01 97.2888 242.552 97.8191 242.92C98.3552 243.281 99.0341 243.462 99.8558 243.462ZM109.46 245V231.573H111.453V233.671H111.628C111.908 232.955 112.359 232.398 112.983 232.002C113.606 231.6 114.355 231.399 115.229 231.399C116.115 231.399 116.852 231.6 117.441 232.002C118.035 232.398 118.499 232.955 118.831 233.671H118.971C119.315 232.978 119.83 232.427 120.518 232.019C121.206 231.605 122.03 231.399 122.992 231.399C124.192 231.399 125.174 231.774 125.938 232.526C126.701 233.272 127.083 234.435 127.083 236.014V245H125.02V236.014C125.02 235.023 124.749 234.315 124.207 233.89C123.665 233.464 123.027 233.252 122.292 233.252C121.348 233.252 120.617 233.537 120.098 234.108C119.58 234.674 119.32 235.39 119.32 236.259V245H117.222V235.804C117.222 235.041 116.975 234.426 116.479 233.96C115.984 233.488 115.346 233.252 114.565 233.252C114.029 233.252 113.528 233.395 113.062 233.68C112.601 233.966 112.228 234.362 111.943 234.869C111.663 235.37 111.523 235.95 111.523 236.608V245H109.46ZM136.484 245.28C135.19 245.28 134.074 244.994 133.136 244.423C132.204 243.846 131.484 243.042 130.977 242.01C130.476 240.973 130.225 239.767 130.225 238.392C130.225 237.016 130.476 235.804 130.977 234.755C131.484 233.7 132.189 232.879 133.092 232.29C134.001 231.696 135.062 231.399 136.274 231.399C136.973 231.399 137.664 231.515 138.346 231.748C139.028 231.981 139.648 232.36 140.208 232.885C140.767 233.403 141.213 234.091 141.545 234.948C141.877 235.804 142.043 236.859 142.043 238.112V238.986H131.694V237.203H139.945C139.945 236.445 139.794 235.769 139.491 235.175C139.194 234.58 138.768 234.111 138.215 233.767C137.667 233.424 137.02 233.252 136.274 233.252C135.452 233.252 134.741 233.456 134.141 233.864C133.547 234.266 133.089 234.79 132.769 235.437C132.448 236.084 132.288 236.777 132.288 237.517V238.706C132.288 239.72 132.463 240.58 132.813 241.285C133.168 241.984 133.66 242.517 134.29 242.885C134.919 243.246 135.65 243.427 136.484 243.427C137.026 243.427 137.515 243.351 137.952 243.199C138.395 243.042 138.777 242.809 139.097 242.5C139.418 242.185 139.666 241.795 139.84 241.329L141.833 241.888C141.624 242.564 141.271 243.159 140.776 243.671C140.28 244.178 139.669 244.575 138.94 244.86C138.212 245.14 137.393 245.28 136.484 245.28Z" fill="black"/>
<rect x="231" y="214" width="158" height="52" fill="#D9D9D9"/>
<path d="M257.168 245V227.098H259.336V243.077H267.657V245H257.168ZM272.797 236.923V245H270.734V231.573H272.727V233.671H272.902C273.217 232.99 273.695 232.442 274.336 232.028C274.977 231.608 275.804 231.399 276.818 231.399C277.727 231.399 278.523 231.585 279.205 231.958C279.886 232.325 280.417 232.885 280.795 233.636C281.174 234.382 281.364 235.326 281.364 236.469V245H279.301V236.608C279.301 235.554 279.027 234.732 278.479 234.143C277.931 233.549 277.179 233.252 276.224 233.252C275.565 233.252 274.977 233.395 274.458 233.68C273.945 233.966 273.54 234.382 273.243 234.93C272.946 235.478 272.797 236.142 272.797 236.923ZM289.084 245.315C288.234 245.315 287.461 245.154 286.768 244.834C286.074 244.508 285.524 244.038 285.116 243.427C284.708 242.809 284.504 242.063 284.504 241.189C284.504 240.42 284.655 239.796 284.958 239.318C285.262 238.834 285.667 238.456 286.174 238.182C286.681 237.908 287.24 237.704 287.852 237.57C288.47 237.43 289.09 237.319 289.714 237.238C290.53 237.133 291.191 237.054 291.698 237.002C292.211 236.943 292.584 236.847 292.817 236.713C293.056 236.579 293.175 236.346 293.175 236.014V235.944C293.175 235.082 292.939 234.411 292.467 233.934C292.001 233.456 291.293 233.217 290.343 233.217C289.358 233.217 288.586 233.432 288.027 233.864C287.467 234.295 287.074 234.755 286.847 235.245L284.889 234.545C285.238 233.73 285.704 233.094 286.287 232.64C286.876 232.179 287.517 231.859 288.21 231.678C288.91 231.492 289.597 231.399 290.273 231.399C290.704 231.399 291.2 231.451 291.759 231.556C292.324 231.655 292.869 231.862 293.394 232.177C293.924 232.491 294.364 232.966 294.714 233.601C295.063 234.237 295.238 235.087 295.238 236.154V245H293.175V243.182H293.07C292.931 243.473 292.697 243.785 292.371 244.117C292.045 244.449 291.611 244.732 291.069 244.965C290.527 245.198 289.865 245.315 289.084 245.315ZM289.399 243.462C290.215 243.462 290.903 243.301 291.462 242.981C292.027 242.66 292.453 242.247 292.738 241.74C293.03 241.233 293.175 240.699 293.175 240.14V238.252C293.088 238.357 292.896 238.453 292.598 238.54C292.307 238.622 291.969 238.695 291.584 238.759C291.206 238.817 290.836 238.869 290.474 238.916C290.119 238.957 289.83 238.992 289.609 239.021C289.073 239.091 288.572 239.205 288.105 239.362C287.645 239.513 287.272 239.744 286.986 240.052C286.707 240.355 286.567 240.769 286.567 241.294C286.567 242.01 286.832 242.552 287.362 242.92C287.898 243.281 288.577 243.462 289.399 243.462ZM299.003 245V231.573H300.997V233.671H301.171C301.451 232.955 301.903 232.398 302.526 232.002C303.15 231.6 303.899 231.399 304.773 231.399C305.659 231.399 306.396 231.6 306.984 232.002C307.579 232.398 308.042 232.955 308.374 233.671H308.514C308.858 232.978 309.374 232.427 310.061 232.019C310.749 231.605 311.573 231.399 312.535 231.399C313.735 231.399 314.717 231.774 315.481 232.526C316.244 233.272 316.626 234.435 316.626 236.014V245H314.563V236.014C314.563 235.023 314.292 234.315 313.75 233.89C313.208 233.464 312.57 233.252 311.836 233.252C310.892 233.252 310.16 233.537 309.642 234.108C309.123 234.674 308.864 235.39 308.864 236.259V245H306.766V235.804C306.766 235.041 306.518 234.426 306.023 233.96C305.527 233.488 304.889 233.252 304.108 233.252C303.572 233.252 303.071 233.395 302.605 233.68C302.145 233.966 301.772 234.362 301.486 234.869C301.206 235.37 301.066 235.95 301.066 236.608V245H299.003ZM326.027 245.28C324.733 245.28 323.617 244.994 322.679 244.423C321.747 243.846 321.027 243.042 320.52 242.01C320.019 240.973 319.768 239.767 319.768 238.392C319.768 237.016 320.019 235.804 320.52 234.755C321.027 233.7 321.732 232.879 322.635 232.29C323.545 231.696 324.605 231.399 325.817 231.399C326.517 231.399 327.207 231.515 327.889 231.748C328.571 231.981 329.191 232.36 329.751 232.885C330.31 233.403 330.756 234.091 331.088 234.948C331.42 235.804 331.587 236.859 331.587 238.112V238.986H321.237V237.203H329.489C329.489 236.445 329.337 235.769 329.034 235.175C328.737 234.58 328.311 234.111 327.758 233.767C327.21 233.424 326.563 233.252 325.817 233.252C324.996 233.252 324.285 233.456 323.684 233.864C323.09 234.266 322.633 234.79 322.312 235.437C321.992 236.084 321.831 236.777 321.831 237.517V238.706C321.831 239.72 322.006 240.58 322.356 241.285C322.711 241.984 323.204 242.517 323.833 242.885C324.462 243.246 325.194 243.427 326.027 243.427C326.569 243.427 327.059 243.351 327.496 243.199C327.939 243.042 328.32 242.809 328.641 242.5C328.961 242.185 329.209 241.795 329.384 241.329L331.377 241.888C331.167 242.564 330.814 243.159 330.319 243.671C329.824 244.178 329.212 244.575 328.483 244.86C327.755 245.14 326.936 245.28 326.027 245.28Z" fill="black"/>
<path d="M60.1678 340V322.098H66.2168C67.6212 322.098 68.7692 322.351 69.6608 322.858C70.5583 323.36 71.2226 324.038 71.6538 324.895C72.0851 325.752 72.3007 326.707 72.3007 327.762C72.3007 328.817 72.0851 329.776 71.6538 330.638C71.2284 331.501 70.5699 332.188 69.6783 332.701C68.7867 333.208 67.6445 333.462 66.2517 333.462H61.9161V331.538H66.1818C67.1434 331.538 67.9155 331.372 68.4983 331.04C69.081 330.708 69.5035 330.259 69.7657 329.694C70.0338 329.123 70.1678 328.479 70.1678 327.762C70.1678 327.045 70.0338 326.404 69.7657 325.839C69.5035 325.274 69.0781 324.831 68.4895 324.51C67.9009 324.184 67.12 324.021 66.1469 324.021H62.3357V340H60.1678ZM77.576 331.923V340H75.5131V322.098H77.576V328.671H77.7509C78.0656 327.978 78.5376 327.427 79.167 327.019C79.8022 326.605 80.6471 326.399 81.7019 326.399C82.6168 326.399 83.4181 326.582 84.1058 326.949C84.7934 327.311 85.3266 327.867 85.7054 328.619C86.09 329.365 86.2823 330.315 86.2823 331.469V340H84.2194V331.608C84.2194 330.542 83.9426 329.717 83.389 329.135C82.8412 328.546 82.0807 328.252 81.1075 328.252C80.4315 328.252 79.8255 328.395 79.2893 328.68C78.759 328.966 78.3395 329.382 78.0306 329.93C77.7276 330.478 77.576 331.142 77.576 331.923ZM95.5109 340.28C94.2988 340.28 93.2353 339.991 92.3204 339.414C91.4113 338.837 90.7003 338.03 90.1875 336.993C89.6805 335.956 89.427 334.744 89.427 333.357C89.427 331.958 89.6805 330.737 90.1875 329.694C90.7003 328.651 91.4113 327.841 92.3204 327.264C93.2353 326.687 94.2988 326.399 95.5109 326.399C96.723 326.399 97.7837 326.687 98.6927 327.264C99.6077 327.841 100.319 328.651 100.826 329.694C101.338 330.737 101.595 331.958 101.595 333.357C101.595 334.744 101.338 335.956 100.826 336.993C100.319 338.03 99.6077 338.837 98.6927 339.414C97.7837 339.991 96.723 340.28 95.5109 340.28ZM95.5109 338.427C96.4317 338.427 97.1892 338.191 97.7837 337.719C98.3781 337.247 98.818 336.626 99.1036 335.857C99.3891 335.087 99.5319 334.254 99.5319 333.357C99.5319 332.459 99.3891 331.623 99.1036 330.848C98.818 330.073 98.3781 329.446 97.7837 328.969C97.1892 328.491 96.4317 328.252 95.5109 328.252C94.5902 328.252 93.8326 328.491 93.2382 328.969C92.6438 329.446 92.2038 330.073 91.9183 330.848C91.6327 331.623 91.4899 332.459 91.4899 333.357C91.4899 334.254 91.6327 335.087 91.9183 335.857C92.2038 336.626 92.6438 337.247 93.2382 337.719C93.8326 338.191 94.5902 338.427 95.5109 338.427ZM106.807 331.923V340H104.744V326.573H106.737V328.671H106.912C107.226 327.99 107.704 327.442 108.345 327.028C108.986 326.608 109.814 326.399 110.828 326.399C111.737 326.399 112.532 326.585 113.214 326.958C113.896 327.325 114.426 327.885 114.805 328.636C115.184 329.382 115.373 330.326 115.373 331.469V340H113.31V331.608C113.31 330.554 113.036 329.732 112.489 329.143C111.941 328.549 111.189 328.252 110.233 328.252C109.575 328.252 108.986 328.395 108.468 328.68C107.955 328.966 107.55 329.382 107.253 329.93C106.955 330.478 106.807 331.142 106.807 331.923ZM124.772 340.28C123.479 340.28 122.363 339.994 121.424 339.423C120.492 338.846 119.772 338.042 119.265 337.01C118.764 335.973 118.514 334.767 118.514 333.392C118.514 332.016 118.764 330.804 119.265 329.755C119.772 328.7 120.477 327.879 121.381 327.29C122.29 326.696 123.35 326.399 124.562 326.399C125.262 326.399 125.952 326.515 126.634 326.748C127.316 326.981 127.937 327.36 128.496 327.885C129.056 328.403 129.501 329.091 129.833 329.948C130.166 330.804 130.332 331.859 130.332 333.112V333.986H119.982V332.203H128.234C128.234 331.445 128.082 330.769 127.779 330.175C127.482 329.58 127.057 329.111 126.503 328.767C125.955 328.424 125.308 328.252 124.562 328.252C123.741 328.252 123.03 328.456 122.43 328.864C121.835 329.266 121.378 329.79 121.057 330.437C120.737 331.084 120.576 331.777 120.576 332.517V333.706C120.576 334.72 120.751 335.58 121.101 336.285C121.456 336.984 121.949 337.517 122.578 337.885C123.208 338.246 123.939 338.427 124.772 338.427C125.314 338.427 125.804 338.351 126.241 338.199C126.684 338.042 127.065 337.809 127.386 337.5C127.706 337.185 127.954 336.795 128.129 336.329L130.122 336.888C129.912 337.564 129.56 338.159 129.064 338.671C128.569 339.178 127.957 339.575 127.229 339.86C126.5 340.14 125.681 340.28 124.772 340.28ZM154.868 322.098V340H152.771L143.015 325.944H142.84V340H140.673V322.098H142.771L152.561 336.189H152.736V322.098H154.868ZM167.388 334.51V326.573H169.451V340H167.388V337.727H167.248C166.934 338.409 166.444 338.989 165.78 339.467C165.115 339.939 164.276 340.175 163.262 340.175C162.423 340.175 161.677 339.991 161.024 339.624C160.372 339.251 159.859 338.692 159.486 337.946C159.113 337.194 158.927 336.247 158.927 335.105V326.573H160.99V334.965C160.99 335.944 161.263 336.725 161.811 337.308C162.365 337.89 163.07 338.182 163.927 338.182C164.439 338.182 164.961 338.051 165.491 337.788C166.027 337.526 166.476 337.124 166.837 336.582C167.205 336.04 167.388 335.35 167.388 334.51ZM173.229 340V326.573H175.222V328.671H175.397C175.677 327.955 176.129 327.398 176.752 327.002C177.376 326.6 178.125 326.399 178.999 326.399C179.884 326.399 180.622 326.6 181.21 327.002C181.805 327.398 182.268 327.955 182.6 328.671H182.74C183.084 327.978 183.6 327.427 184.287 327.019C184.975 326.605 185.799 326.399 186.761 326.399C187.961 326.399 188.943 326.774 189.707 327.526C190.47 328.272 190.852 329.435 190.852 331.014V340H188.789V331.014C188.789 330.023 188.518 329.315 187.976 328.89C187.434 328.464 186.796 328.252 186.062 328.252C185.118 328.252 184.386 328.537 183.868 329.108C183.349 329.674 183.09 330.39 183.09 331.259V340H180.992V330.804C180.992 330.041 180.744 329.426 180.249 328.96C179.753 328.488 179.115 328.252 178.334 328.252C177.798 328.252 177.297 328.395 176.831 328.68C176.37 328.966 175.998 329.362 175.712 329.869C175.432 330.37 175.292 330.95 175.292 331.608V340H173.229ZM194.903 340V322.098H196.966V328.706H197.141C197.293 328.473 197.502 328.176 197.771 327.815C198.044 327.448 198.435 327.121 198.942 326.836C199.455 326.544 200.148 326.399 201.022 326.399C202.153 326.399 203.149 326.681 204.012 327.247C204.874 327.812 205.547 328.613 206.031 329.65C206.515 330.688 206.757 331.911 206.757 333.322C206.757 334.744 206.515 335.976 206.031 337.019C205.547 338.057 204.877 338.861 204.021 339.432C203.164 339.997 202.176 340.28 201.057 340.28C200.195 340.28 199.504 340.137 198.986 339.851C198.467 339.56 198.068 339.231 197.788 338.864C197.508 338.491 197.293 338.182 197.141 337.937H196.896V340H194.903ZM196.931 333.287C196.931 334.301 197.08 335.195 197.377 335.97C197.674 336.74 198.109 337.343 198.68 337.78C199.251 338.211 199.95 338.427 200.778 338.427C201.64 338.427 202.36 338.199 202.937 337.745C203.519 337.284 203.956 336.667 204.248 335.892C204.545 335.111 204.694 334.242 204.694 333.287C204.694 332.343 204.548 331.492 204.257 330.734C203.971 329.971 203.537 329.368 202.954 328.925C202.377 328.476 201.652 328.252 200.778 328.252C199.938 328.252 199.233 328.464 198.662 328.89C198.091 329.309 197.66 329.898 197.368 330.656C197.077 331.407 196.931 332.284 196.931 333.287ZM215.542 340.28C214.248 340.28 213.132 339.994 212.194 339.423C211.261 338.846 210.542 338.042 210.035 337.01C209.533 335.973 209.283 334.767 209.283 333.392C209.283 332.016 209.533 330.804 210.035 329.755C210.542 328.7 211.247 327.879 212.15 327.29C213.059 326.696 214.12 326.399 215.332 326.399C216.031 326.399 216.722 326.515 217.403 326.748C218.085 326.981 218.706 327.36 219.265 327.885C219.825 328.403 220.271 329.091 220.603 329.948C220.935 330.804 221.101 331.859 221.101 333.112V333.986H210.751V332.203H219.003C219.003 331.445 218.852 330.769 218.549 330.175C218.251 329.58 217.826 329.111 217.272 328.767C216.724 328.424 216.078 328.252 215.332 328.252C214.51 328.252 213.799 328.456 213.199 328.864C212.604 329.266 212.147 329.79 211.826 330.437C211.506 331.084 211.346 331.777 211.346 332.517V333.706C211.346 334.72 211.521 335.58 211.87 336.285C212.226 336.984 212.718 337.517 213.347 337.885C213.977 338.246 214.708 338.427 215.542 338.427C216.083 338.427 216.573 338.351 217.01 338.199C217.453 338.042 217.835 337.809 218.155 337.5C218.476 337.185 218.723 336.795 218.898 336.329L220.891 336.888C220.681 337.564 220.329 338.159 219.833 338.671C219.338 339.178 218.726 339.575 217.998 339.86C217.269 340.14 216.451 340.28 215.542 340.28ZM224.239 340V326.573H226.232V328.601H226.372C226.617 327.937 227.06 327.398 227.701 326.984C228.342 326.571 229.064 326.364 229.868 326.364C230.02 326.364 230.209 326.367 230.437 326.372C230.664 326.378 230.836 326.387 230.952 326.399V328.497C230.882 328.479 230.722 328.453 230.472 328.418C230.227 328.377 229.968 328.357 229.694 328.357C229.041 328.357 228.458 328.494 227.945 328.767C227.438 329.036 227.036 329.409 226.739 329.886C226.448 330.358 226.302 330.897 226.302 331.503V340H224.239Z" fill="black"/>
<path d="M57.1678 425V407.098H63.2168C64.6212 407.098 65.7692 407.351 66.6608 407.858C67.5583 408.36 68.2226 409.038 68.6538 409.895C69.0851 410.752 69.3007 411.707 69.3007 412.762C69.3007 413.817 69.0851 414.776 68.6538 415.638C68.2284 416.501 67.5699 417.188 66.6783 417.701C65.7867 418.208 64.6445 418.462 63.2517 418.462H58.9161V416.538H63.1818C64.1434 416.538 64.9155 416.372 65.4983 416.04C66.081 415.708 66.5035 415.259 66.7657 414.694C67.0338 414.123 67.1678 413.479 67.1678 412.762C67.1678 412.045 67.0338 411.404 66.7657 410.839C66.5035 410.274 66.0781 409.831 65.4895 409.51C64.9009 409.184 64.12 409.021 63.1469 409.021H59.3357V425H57.1678ZM76.4642 425.315C75.6133 425.315 74.8412 425.154 74.1477 424.834C73.4543 424.508 72.9036 424.038 72.4956 423.427C72.0877 422.809 71.8837 422.063 71.8837 421.189C71.8837 420.42 72.0353 419.796 72.3383 419.318C72.6413 418.834 73.0463 418.456 73.5533 418.182C74.0603 417.908 74.6198 417.704 75.2316 417.57C75.8494 417.43 76.47 417.319 77.0935 417.238C77.9094 417.133 78.5708 417.054 79.0778 417.002C79.5906 416.943 79.9636 416.847 80.1967 416.713C80.4356 416.579 80.5551 416.346 80.5551 416.014V415.944C80.5551 415.082 80.3191 414.411 79.847 413.934C79.3808 413.456 78.6728 413.217 77.7229 413.217C76.7381 413.217 75.9659 413.432 75.4065 413.864C74.847 414.295 74.4537 414.755 74.2264 415.245L72.2684 414.545C72.618 413.73 73.0842 413.094 73.667 412.64C74.2555 412.179 74.8966 411.859 75.59 411.678C76.2893 411.492 76.977 411.399 77.653 411.399C78.0842 411.399 78.5795 411.451 79.139 411.556C79.7043 411.655 80.2491 411.862 80.7736 412.177C81.3039 412.491 81.7439 412.966 82.0935 413.601C82.4432 414.237 82.618 415.087 82.618 416.154V425H80.5551V423.182H80.4502C80.3103 423.473 80.0772 423.785 79.7509 424.117C79.4245 424.449 78.9904 424.732 78.4484 424.965C77.9065 425.198 77.245 425.315 76.4642 425.315ZM76.7788 423.462C77.5947 423.462 78.2823 423.301 78.8418 422.981C79.4071 422.66 79.8325 422.247 80.118 421.74C80.4094 421.233 80.5551 420.699 80.5551 420.14V418.252C80.4677 418.357 80.2754 418.453 79.9781 418.54C79.6868 418.622 79.3488 418.695 78.9642 418.759C78.5854 418.817 78.2153 418.869 77.854 418.916C77.4985 418.957 77.2101 418.992 76.9886 419.021C76.4525 419.091 75.9513 419.205 75.4851 419.362C75.0248 419.513 74.6518 419.744 74.3663 420.052C74.0865 420.355 73.9467 420.769 73.9467 421.294C73.9467 422.01 74.2118 422.552 74.7421 422.92C75.2783 423.281 75.9572 423.462 76.7788 423.462ZM95.8938 414.58L94.0406 415.105C93.9241 414.796 93.7522 414.496 93.5249 414.205C93.3035 413.907 93.0004 413.663 92.6158 413.47C92.2312 413.278 91.7388 413.182 91.1386 413.182C90.3169 413.182 89.6321 413.371 89.0844 413.75C88.5424 414.123 88.2714 414.598 88.2714 415.175C88.2714 415.688 88.4579 416.093 88.8309 416.39C89.2038 416.687 89.7866 416.935 90.5791 417.133L92.5721 417.622C93.7726 417.914 94.6671 418.36 95.2557 418.96C95.8443 419.554 96.1386 420.321 96.1386 421.259C96.1386 422.028 95.9171 422.716 95.4742 423.322C95.0372 423.928 94.4253 424.406 93.6386 424.755C92.8518 425.105 91.9369 425.28 90.8938 425.28C89.5243 425.28 88.3909 424.983 87.4934 424.388C86.596 423.794 86.0278 422.925 85.7889 421.783L87.7469 421.294C87.9334 422.016 88.286 422.558 88.8046 422.92C89.3291 423.281 90.0138 423.462 90.8588 423.462C91.8204 423.462 92.5838 423.258 93.149 422.85C93.7201 422.436 94.0057 421.941 94.0057 421.364C94.0057 420.897 93.8425 420.507 93.5162 420.192C93.1898 419.872 92.6887 419.633 92.0127 419.476L89.7749 418.951C88.5453 418.66 87.642 418.208 87.0651 417.596C86.494 416.978 86.2085 416.206 86.2085 415.28C86.2085 414.522 86.4212 413.852 86.8466 413.269C87.2778 412.686 87.8635 412.229 88.6036 411.897C89.3495 411.565 90.1945 411.399 91.1386 411.399C92.4672 411.399 93.5103 411.69 94.2679 412.273C95.0313 412.855 95.5733 413.625 95.8938 414.58ZM108.754 414.58L106.901 415.105C106.785 414.796 106.613 414.496 106.385 414.205C106.164 413.907 105.861 413.663 105.476 413.47C105.092 413.278 104.599 413.182 103.999 413.182C103.177 413.182 102.493 413.371 101.945 413.75C101.403 414.123 101.132 414.598 101.132 415.175C101.132 415.688 101.318 416.093 101.691 416.39C102.064 416.687 102.647 416.935 103.44 417.133L105.433 417.622C106.633 417.914 107.528 418.36 108.116 418.96C108.705 419.554 108.999 420.321 108.999 421.259C108.999 422.028 108.778 422.716 108.335 423.322C107.898 423.928 107.286 424.406 106.499 424.755C105.712 425.105 104.797 425.28 103.754 425.28C102.385 425.28 101.251 424.983 100.354 424.388C99.4566 423.794 98.8884 422.925 98.6495 421.783L100.608 421.294C100.794 422.016 101.147 422.558 101.665 422.92C102.19 423.281 102.874 423.462 103.719 423.462C104.681 423.462 105.444 423.258 106.01 422.85C106.581 422.436 106.866 421.941 106.866 421.364C106.866 420.897 106.703 420.507 106.377 420.192C106.05 419.872 105.549 419.633 104.873 419.476L102.635 418.951C101.406 418.66 100.503 418.208 99.9257 417.596C99.3546 416.978 99.0691 416.206 99.0691 415.28C99.0691 414.522 99.2818 413.852 99.7072 413.269C100.138 412.686 100.724 412.229 101.464 411.897C102.21 411.565 103.055 411.399 103.999 411.399C105.328 411.399 106.371 411.69 107.128 412.273C107.892 412.855 108.434 413.625 108.754 414.58ZM115.146 425L111.056 411.573H113.223L116.125 421.853H116.265L119.132 411.573H121.335L124.167 421.818H124.307L127.209 411.573H129.377L125.286 425H123.258L120.321 414.685H120.111L117.174 425H115.146ZM137.102 425.28C135.89 425.28 134.827 424.991 133.912 424.414C133.003 423.837 132.292 423.03 131.779 421.993C131.272 420.956 131.018 419.744 131.018 418.357C131.018 416.958 131.272 415.737 131.779 414.694C132.292 413.651 133.003 412.841 133.912 412.264C134.827 411.687 135.89 411.399 137.102 411.399C138.314 411.399 139.375 411.687 140.284 412.264C141.199 412.841 141.91 413.651 142.417 414.694C142.93 415.737 143.186 416.958 143.186 418.357C143.186 419.744 142.93 420.956 142.417 421.993C141.91 423.03 141.199 423.837 140.284 424.414C139.375 424.991 138.314 425.28 137.102 425.28ZM137.102 423.427C138.023 423.427 138.781 423.191 139.375 422.719C139.969 422.247 140.409 421.626 140.695 420.857C140.98 420.087 141.123 419.254 141.123 418.357C141.123 417.459 140.98 416.623 140.695 415.848C140.409 415.073 139.969 414.446 139.375 413.969C138.781 413.491 138.023 413.252 137.102 413.252C136.182 413.252 135.424 413.491 134.83 413.969C134.235 414.446 133.795 415.073 133.51 415.848C133.224 416.623 133.081 417.459 133.081 418.357C133.081 419.254 133.224 420.087 133.51 420.857C133.795 421.626 134.235 422.247 134.83 422.719C135.424 423.191 136.182 423.427 137.102 423.427ZM146.335 425V411.573H148.328V413.601H148.468C148.713 412.937 149.156 412.398 149.797 411.984C150.438 411.571 151.16 411.364 151.965 411.364C152.116 411.364 152.306 411.367 152.533 411.372C152.76 411.378 152.932 411.387 153.049 411.399V413.497C152.979 413.479 152.818 413.453 152.568 413.418C152.323 413.377 152.064 413.357 151.79 413.357C151.137 413.357 150.554 413.494 150.042 413.767C149.535 414.036 149.132 414.409 148.835 414.886C148.544 415.358 148.398 415.897 148.398 416.503V425H146.335ZM160.155 425.28C159.036 425.28 158.049 424.997 157.192 424.432C156.335 423.861 155.665 423.057 155.181 422.019C154.698 420.976 154.456 419.744 154.456 418.322C154.456 416.911 154.698 415.688 155.181 414.65C155.665 413.613 156.338 412.812 157.201 412.247C158.063 411.681 159.06 411.399 160.19 411.399C161.064 411.399 161.755 411.544 162.262 411.836C162.775 412.121 163.165 412.448 163.433 412.815C163.707 413.176 163.92 413.473 164.071 413.706H164.246V407.098H166.309V425H164.316V422.937H164.071C163.92 423.182 163.704 423.491 163.424 423.864C163.145 424.231 162.745 424.56 162.227 424.851C161.708 425.137 161.018 425.28 160.155 425.28ZM160.435 423.427C161.262 423.427 161.962 423.211 162.533 422.78C163.104 422.343 163.538 421.74 163.835 420.97C164.132 420.195 164.281 419.301 164.281 418.287C164.281 417.284 164.135 416.407 163.844 415.656C163.553 414.898 163.121 414.309 162.55 413.89C161.979 413.464 161.274 413.252 160.435 413.252C159.561 413.252 158.832 413.476 158.25 413.925C157.673 414.368 157.238 414.971 156.947 415.734C156.662 416.492 156.519 417.343 156.519 418.287C156.519 419.242 156.664 420.111 156.956 420.892C157.253 421.667 157.69 422.284 158.267 422.745C158.85 423.199 159.572 423.427 160.435 423.427Z" fill="black"/>
<path d="M60.1678 517V499.098H66.4266C67.6737 499.098 68.7022 499.314 69.5122 499.745C70.3223 500.17 70.9254 500.744 71.3217 501.467C71.7179 502.184 71.9161 502.979 71.9161 503.853C71.9161 504.622 71.7791 505.258 71.5052 505.759C71.2372 506.26 70.8817 506.656 70.4388 506.948C70.0017 507.239 69.5268 507.455 69.014 507.594V507.769C69.5618 507.804 70.1125 507.997 70.6661 508.346C71.2197 508.696 71.683 509.197 72.0559 509.85C72.4289 510.502 72.6154 511.301 72.6154 512.245C72.6154 513.142 72.4114 513.949 72.0035 514.666C71.5956 515.383 70.9516 515.951 70.0717 516.371C69.1917 516.79 68.0466 517 66.6364 517H60.1678ZM62.3357 515.077H66.6364C68.0524 515.077 69.0577 514.803 69.6521 514.255C70.2523 513.702 70.5524 513.031 70.5524 512.245C70.5524 511.639 70.398 511.079 70.0892 510.566C69.7803 510.048 69.3403 509.634 68.7692 509.325C68.1981 509.01 67.5221 508.853 66.7413 508.853H62.3357V515.077ZM62.3357 506.965H66.3566C67.0093 506.965 67.5979 506.837 68.1224 506.58C68.6527 506.324 69.0723 505.963 69.3811 505.497C69.6958 505.03 69.8531 504.483 69.8531 503.853C69.8531 503.066 69.5793 502.399 69.0315 501.851C68.4837 501.298 67.6154 501.021 66.4266 501.021H62.3357V506.965ZM75.8977 517V503.573H77.9607V517H75.8977ZM76.9467 501.336C76.5446 501.336 76.1978 501.199 75.9065 500.925C75.6209 500.651 75.4781 500.322 75.4781 499.937C75.4781 499.552 75.6209 499.223 75.9065 498.949C76.1978 498.675 76.5446 498.538 76.9467 498.538C77.3488 498.538 77.6926 498.675 77.9781 498.949C78.2695 499.223 78.4152 499.552 78.4152 499.937C78.4152 500.322 78.2695 500.651 77.9781 500.925C77.6926 501.199 77.3488 501.336 76.9467 501.336ZM81.7391 517V503.573H83.7321V505.601H83.8719C84.1167 504.937 84.5596 504.398 85.2006 503.984C85.8416 503.571 86.5642 503.364 87.3684 503.364C87.52 503.364 87.7094 503.367 87.9366 503.372C88.1639 503.378 88.3358 503.387 88.4524 503.399V505.497C88.3824 505.479 88.2222 505.453 87.9716 505.418C87.7268 505.377 87.4675 505.357 87.1936 505.357C86.5409 505.357 85.9582 505.494 85.4454 505.767C84.9384 506.036 84.5363 506.409 84.2391 506.886C83.9477 507.358 83.802 507.897 83.802 508.503V517H81.7391ZM97.5782 503.573V505.322H90.6202V503.573H97.5782ZM92.6482 500.357H94.7111V513.154C94.7111 513.737 94.7956 514.174 94.9646 514.465C95.1394 514.751 95.3609 514.943 95.6289 515.042C95.9028 515.135 96.1913 515.182 96.4943 515.182C96.7216 515.182 96.9081 515.17 97.0538 515.147C97.1994 515.118 97.316 515.094 97.4034 515.077L97.823 516.93C97.6831 516.983 97.4879 517.035 97.2373 517.087C96.9867 517.146 96.6691 517.175 96.2845 517.175C95.7018 517.175 95.1307 517.05 94.5712 516.799C94.0176 516.548 93.5573 516.167 93.1901 515.654C92.8288 515.141 92.6482 514.494 92.6482 513.713V500.357ZM103.033 508.923V517H100.97V499.098H103.033V505.671H103.208C103.522 504.978 103.994 504.427 104.624 504.019C105.259 503.605 106.104 503.399 107.159 503.399C108.074 503.399 108.875 503.582 109.562 503.949C110.25 504.311 110.783 504.867 111.162 505.619C111.547 506.365 111.739 507.315 111.739 508.469V517H109.676V508.608C109.676 507.542 109.399 506.717 108.846 506.135C108.298 505.546 107.537 505.252 106.564 505.252C105.888 505.252 105.282 505.395 104.746 505.68C104.216 505.966 103.796 506.382 103.487 506.93C103.184 507.478 103.033 508.142 103.033 508.923ZM128.24 517H122.716V499.098H128.485C130.222 499.098 131.708 499.456 132.943 500.173C134.179 500.884 135.126 501.907 135.784 503.241C136.443 504.57 136.772 506.161 136.772 508.014C136.772 509.879 136.44 511.484 135.775 512.83C135.111 514.171 134.144 515.202 132.873 515.925C131.603 516.642 130.059 517 128.24 517ZM124.884 515.077H128.101C129.581 515.077 130.807 514.791 131.781 514.22C132.754 513.649 133.479 512.836 133.957 511.781C134.435 510.727 134.674 509.471 134.674 508.014C134.674 506.569 134.438 505.325 133.966 504.281C133.494 503.233 132.789 502.428 131.851 501.869C130.912 501.304 129.744 501.021 128.345 501.021H124.884V515.077ZM144.08 517.315C143.229 517.315 142.457 517.154 141.763 516.834C141.07 516.508 140.519 516.038 140.111 515.427C139.703 514.809 139.499 514.063 139.499 513.189C139.499 512.42 139.651 511.796 139.954 511.318C140.257 510.834 140.662 510.456 141.169 510.182C141.676 509.908 142.235 509.704 142.847 509.57C143.465 509.43 144.085 509.319 144.709 509.238C145.525 509.133 146.186 509.054 146.693 509.002C147.206 508.943 147.579 508.847 147.812 508.713C148.051 508.579 148.17 508.346 148.17 508.014V507.944C148.17 507.082 147.934 506.411 147.462 505.934C146.996 505.456 146.288 505.217 145.338 505.217C144.353 505.217 143.581 505.432 143.022 505.864C142.462 506.295 142.069 506.755 141.842 507.245L139.884 506.545C140.233 505.73 140.7 505.094 141.282 504.64C141.871 504.179 142.512 503.859 143.205 503.678C143.905 503.492 144.592 503.399 145.268 503.399C145.7 503.399 146.195 503.451 146.754 503.556C147.32 503.655 147.865 503.862 148.389 504.177C148.919 504.491 149.359 504.966 149.709 505.601C150.059 506.237 150.233 507.087 150.233 508.154V517H148.17V515.182H148.066C147.926 515.473 147.693 515.785 147.366 516.117C147.04 516.449 146.606 516.732 146.064 516.965C145.522 517.198 144.86 517.315 144.08 517.315ZM144.394 515.462C145.21 515.462 145.898 515.301 146.457 514.981C147.022 514.66 147.448 514.247 147.733 513.74C148.025 513.233 148.17 512.699 148.17 512.14V510.252C148.083 510.357 147.891 510.453 147.594 510.54C147.302 510.622 146.964 510.695 146.58 510.759C146.201 510.817 145.831 510.869 145.469 510.916C145.114 510.957 144.825 510.992 144.604 511.021C144.068 511.091 143.567 511.205 143.101 511.362C142.64 511.513 142.267 511.744 141.982 512.052C141.702 512.355 141.562 512.769 141.562 513.294C141.562 514.01 141.827 514.552 142.358 514.92C142.894 515.281 143.573 515.462 144.394 515.462ZM159.838 503.573V505.322H152.88V503.573H159.838ZM154.908 500.357H156.971V513.154C156.971 513.737 157.055 514.174 157.224 514.465C157.399 514.751 157.62 514.943 157.889 515.042C158.162 515.135 158.451 515.182 158.754 515.182C158.981 515.182 159.168 515.17 159.313 515.147C159.459 515.118 159.576 515.094 159.663 515.077L160.083 516.93C159.943 516.983 159.748 517.035 159.497 517.087C159.246 517.146 158.929 517.175 158.544 517.175C157.961 517.175 157.39 517.05 156.831 516.799C156.277 516.548 155.817 516.167 155.45 515.654C155.088 515.141 154.908 514.494 154.908 513.713V500.357ZM168.426 517.28C167.132 517.28 166.016 516.994 165.078 516.423C164.146 515.846 163.426 515.042 162.919 514.01C162.418 512.973 162.167 511.767 162.167 510.392C162.167 509.016 162.418 507.804 162.919 506.755C163.426 505.7 164.131 504.879 165.035 504.29C165.944 503.696 167.004 503.399 168.216 503.399C168.916 503.399 169.606 503.515 170.288 503.748C170.97 503.981 171.59 504.36 172.15 504.885C172.709 505.403 173.155 506.091 173.487 506.948C173.819 507.804 173.986 508.859 173.986 510.112V510.986H163.636V509.203H171.888C171.888 508.445 171.736 507.769 171.433 507.175C171.136 506.58 170.711 506.111 170.157 505.767C169.609 505.424 168.962 505.252 168.216 505.252C167.395 505.252 166.684 505.456 166.083 505.864C165.489 506.266 165.032 506.79 164.711 507.437C164.391 508.084 164.23 508.777 164.23 509.517V510.706C164.23 511.72 164.405 512.58 164.755 513.285C165.11 513.984 165.603 514.517 166.232 514.885C166.861 515.246 167.593 515.427 168.426 515.427C168.968 515.427 169.458 515.351 169.895 515.199C170.338 515.042 170.719 514.809 171.04 514.5C171.36 514.185 171.608 513.795 171.783 513.329L173.776 513.888C173.566 514.564 173.213 515.159 172.718 515.671C172.223 516.178 171.611 516.575 170.882 516.86C170.154 517.14 169.335 517.28 168.426 517.28Z" fill="black"/>
<path d="M63.1678 735.098H65.7552L71.8392 749.958H72.049L78.1329 735.098H80.7203V753H78.6923V739.399H78.5175L72.9231 753H70.965L65.3706 739.399H65.1958V753H63.1678V735.098ZM88.7382 753.315C87.8874 753.315 87.1152 753.154 86.4218 752.834C85.7283 752.508 85.1776 752.038 84.7697 751.427C84.3617 750.809 84.1578 750.063 84.1578 749.189C84.1578 748.42 84.3093 747.796 84.6123 747.318C84.9154 746.834 85.3204 746.456 85.8274 746.182C86.3344 745.908 86.8938 745.704 87.5057 745.57C88.1234 745.43 88.744 745.319 89.3676 745.238C90.1834 745.133 90.8448 745.054 91.3518 745.002C91.8647 744.943 92.2376 744.847 92.4707 744.713C92.7096 744.579 92.8291 744.346 92.8291 744.014V743.944C92.8291 743.082 92.5931 742.411 92.1211 741.934C91.6549 741.456 90.9468 741.217 89.9969 741.217C89.0121 741.217 88.2399 741.432 87.6805 741.864C87.1211 742.295 86.7277 742.755 86.5004 743.245L84.5424 742.545C84.892 741.73 85.3582 741.094 85.941 740.64C86.5296 740.179 87.1706 739.859 87.8641 739.678C88.5634 739.492 89.251 739.399 89.927 739.399C90.3582 739.399 90.8536 739.451 91.413 739.556C91.9783 739.655 92.5232 739.862 93.0476 740.177C93.5779 740.491 94.0179 740.966 94.3676 741.601C94.7172 742.237 94.892 743.087 94.892 744.154V753H92.8291V751.182H92.7242C92.5844 751.473 92.3513 751.785 92.0249 752.117C91.6986 752.449 91.2644 752.732 90.7225 752.965C90.1805 753.198 89.5191 753.315 88.7382 753.315ZM89.0529 751.462C89.8687 751.462 90.5564 751.301 91.1158 750.981C91.6811 750.66 92.1065 750.247 92.392 749.74C92.6834 749.233 92.8291 748.699 92.8291 748.14V746.252C92.7417 746.357 92.5494 746.453 92.2522 746.54C91.9608 746.622 91.6228 746.695 91.2382 746.759C90.8594 746.817 90.4894 746.869 90.1281 746.916C89.7726 746.957 89.4841 746.992 89.2627 747.021C88.7265 747.091 88.2254 747.205 87.7592 747.362C87.2988 747.513 86.9258 747.744 86.6403 748.052C86.3606 748.355 86.2207 748.769 86.2207 749.294C86.2207 750.01 86.4859 750.552 87.0162 750.92C87.5523 751.281 88.2312 751.462 89.0529 751.462ZM100.72 735.098V753H98.6573V735.098H100.72ZM110.128 753.28C108.834 753.28 107.718 752.994 106.78 752.423C105.848 751.846 105.128 751.042 104.621 750.01C104.12 748.973 103.869 747.767 103.869 746.392C103.869 745.016 104.12 743.804 104.621 742.755C105.128 741.7 105.833 740.879 106.736 740.29C107.646 739.696 108.706 739.399 109.918 739.399C110.618 739.399 111.308 739.515 111.99 739.748C112.672 739.981 113.292 740.36 113.852 740.885C114.411 741.403 114.857 742.091 115.189 742.948C115.521 743.804 115.687 744.859 115.687 746.112V746.986H105.338V745.203H113.59C113.59 744.445 113.438 743.769 113.135 743.175C112.838 742.58 112.412 742.111 111.859 741.767C111.311 741.424 110.664 741.252 109.918 741.252C109.097 741.252 108.386 741.456 107.785 741.864C107.191 742.266 106.734 742.79 106.413 743.437C106.093 744.084 105.932 744.777 105.932 745.517V746.706C105.932 747.72 106.107 748.58 106.457 749.285C106.812 749.984 107.305 750.517 107.934 750.885C108.563 751.246 109.295 751.427 110.128 751.427C110.67 751.427 111.16 751.351 111.597 751.199C112.039 751.042 112.421 750.809 112.742 750.5C113.062 750.185 113.31 749.795 113.485 749.329L115.478 749.888C115.268 750.564 114.915 751.159 114.42 751.671C113.925 752.178 113.313 752.575 112.584 752.86C111.856 753.14 111.037 753.28 110.128 753.28Z" fill="black"/>
<path d="M222.168 753V735.098H232.902V737.021H224.336V743.07H232.098V744.993H224.336V753H222.168ZM240.979 753.28C239.685 753.28 238.569 752.994 237.631 752.423C236.699 751.846 235.979 751.042 235.472 750.01C234.971 748.973 234.72 747.767 234.72 746.392C234.72 745.016 234.971 743.804 235.472 742.755C235.979 741.7 236.684 740.879 237.587 740.29C238.497 739.696 239.557 739.399 240.769 739.399C241.469 739.399 242.159 739.515 242.841 739.748C243.523 739.981 244.143 740.36 244.703 740.885C245.262 741.403 245.708 742.091 246.04 742.948C246.372 743.804 246.538 744.859 246.538 746.112V746.986H236.189V745.203H244.441C244.441 744.445 244.289 743.769 243.986 743.175C243.689 742.58 243.263 742.111 242.71 741.767C242.162 741.424 241.515 741.252 240.769 741.252C239.948 741.252 239.237 741.456 238.636 741.864C238.042 742.266 237.584 742.79 237.264 743.437C236.943 744.084 236.783 744.777 236.783 745.517V746.706C236.783 747.72 236.958 748.58 237.308 749.285C237.663 749.984 238.156 750.517 238.785 750.885C239.414 751.246 240.146 751.427 240.979 751.427C241.521 751.427 242.01 751.351 242.448 751.199C242.89 751.042 243.272 750.809 243.593 750.5C243.913 750.185 244.161 749.795 244.336 749.329L246.329 749.888C246.119 750.564 245.766 751.159 245.271 751.671C244.776 752.178 244.164 752.575 243.435 752.86C242.707 753.14 241.888 753.28 240.979 753.28ZM249.677 753V739.573H251.67V741.671H251.844C252.124 740.955 252.576 740.398 253.199 740.002C253.823 739.6 254.572 739.399 255.446 739.399C256.332 739.399 257.069 739.6 257.657 740.002C258.252 740.398 258.715 740.955 259.047 741.671H259.187C259.531 740.978 260.047 740.427 260.734 740.019C261.422 739.605 262.247 739.399 263.208 739.399C264.409 739.399 265.39 739.774 266.154 740.526C266.917 741.272 267.299 742.435 267.299 744.014V753H265.236V744.014C265.236 743.023 264.965 742.315 264.423 741.89C263.881 741.464 263.243 741.252 262.509 741.252C261.565 741.252 260.833 741.537 260.315 742.108C259.796 742.674 259.537 743.39 259.537 744.259V753H257.439V743.804C257.439 743.041 257.191 742.426 256.696 741.96C256.2 741.488 255.562 741.252 254.781 741.252C254.245 741.252 253.744 741.395 253.278 741.68C252.818 741.966 252.445 742.362 252.159 742.869C251.879 743.37 251.74 743.95 251.74 744.608V753H249.677ZM275.022 753.315C274.171 753.315 273.399 753.154 272.705 752.834C272.012 752.508 271.461 752.038 271.053 751.427C270.645 750.809 270.441 750.063 270.441 749.189C270.441 748.42 270.593 747.796 270.896 747.318C271.199 746.834 271.604 746.456 272.111 746.182C272.618 745.908 273.177 745.704 273.789 745.57C274.407 745.43 275.028 745.319 275.651 745.238C276.467 745.133 277.128 745.054 277.635 745.002C278.148 744.943 278.521 744.847 278.754 744.713C278.993 744.579 279.113 744.346 279.113 744.014V743.944C279.113 743.082 278.877 742.411 278.405 741.934C277.939 741.456 277.23 741.217 276.281 741.217C275.296 741.217 274.524 741.432 273.964 741.864C273.405 742.295 273.011 742.755 272.784 743.245L270.826 742.545C271.176 741.73 271.642 741.094 272.225 740.64C272.813 740.179 273.454 739.859 274.148 739.678C274.847 739.492 275.535 739.399 276.211 739.399C276.642 739.399 277.137 739.451 277.697 739.556C278.262 739.655 278.807 739.862 279.331 740.177C279.862 740.491 280.302 740.966 280.651 741.601C281.001 742.237 281.176 743.087 281.176 744.154V753H279.113V751.182H279.008C278.868 751.473 278.635 751.785 278.309 752.117C277.982 752.449 277.548 752.732 277.006 752.965C276.464 753.198 275.803 753.315 275.022 753.315ZM275.337 751.462C276.152 751.462 276.84 751.301 277.399 750.981C277.965 750.66 278.39 750.247 278.676 749.74C278.967 749.233 279.113 748.699 279.113 748.14V746.252C279.025 746.357 278.833 746.453 278.536 746.54C278.244 746.622 277.906 746.695 277.522 746.759C277.143 746.817 276.773 746.869 276.412 746.916C276.056 746.957 275.768 746.992 275.546 747.021C275.01 747.091 274.509 747.205 274.043 747.362C273.582 747.513 273.21 747.744 272.924 748.052C272.644 748.355 272.504 748.769 272.504 749.294C272.504 750.01 272.77 750.552 273.3 750.92C273.836 751.281 274.515 751.462 275.337 751.462ZM287.004 735.098V753H284.941V735.098H287.004ZM296.412 753.28C295.118 753.28 294.002 752.994 293.064 752.423C292.131 751.846 291.412 751.042 290.905 750.01C290.404 748.973 290.153 747.767 290.153 746.392C290.153 745.016 290.404 743.804 290.905 742.755C291.412 741.7 292.117 740.879 293.02 740.29C293.929 739.696 294.99 739.399 296.202 739.399C296.901 739.399 297.592 739.515 298.274 739.748C298.955 739.981 299.576 740.36 300.135 740.885C300.695 741.403 301.141 742.091 301.473 742.948C301.805 743.804 301.971 744.859 301.971 746.112V746.986H291.622V745.203H299.873C299.873 744.445 299.722 743.769 299.419 743.175C299.122 742.58 298.696 742.111 298.142 741.767C297.595 741.424 296.948 741.252 296.202 741.252C295.38 741.252 294.669 741.456 294.069 741.864C293.475 742.266 293.017 742.79 292.697 743.437C292.376 744.084 292.216 744.777 292.216 745.517V746.706C292.216 747.72 292.391 748.58 292.74 749.285C293.096 749.984 293.588 750.517 294.218 750.885C294.847 751.246 295.578 751.427 296.412 751.427C296.954 751.427 297.443 751.351 297.88 751.199C298.323 751.042 298.705 750.809 299.025 750.5C299.346 750.185 299.594 749.795 299.768 749.329L301.761 749.888C301.552 750.564 301.199 751.159 300.704 751.671C300.208 752.178 299.596 752.575 298.868 752.86C298.14 753.14 297.321 753.28 296.412 753.28Z" fill="black"/>
<ellipse cx="157" cy="746.5" rx="11" ry="6.5" fill="#D9D9D9"/>
<ellipse cx="347" cy="746.5" rx="11" ry="6.5" fill="#D9D9D9"/>
<rect x="115" y="814" width="204" height="47" fill="#D9D9D9"/>
<path d="M177.168 845V827.098H183.217C184.615 827.098 185.763 827.337 186.661 827.815C187.558 828.287 188.223 828.936 188.654 829.764C189.085 830.591 189.301 831.533 189.301 832.587C189.301 833.642 189.085 834.578 188.654 835.393C188.223 836.209 187.561 836.85 186.67 837.316C185.778 837.777 184.639 838.007 183.252 838.007H178.357V836.049H183.182C184.138 836.049 184.907 835.909 185.49 835.629C186.078 835.35 186.503 834.953 186.766 834.441C187.034 833.922 187.168 833.304 187.168 832.587C187.168 831.871 187.034 831.244 186.766 830.708C186.498 830.172 186.069 829.758 185.481 829.467C184.892 829.17 184.114 829.021 183.147 829.021H179.336V845H177.168ZM185.594 836.958L190 845H187.483L183.147 836.958H185.594ZM198.118 845.28C196.825 845.28 195.709 844.994 194.771 844.423C193.838 843.846 193.118 843.042 192.611 842.01C192.11 840.973 191.86 839.767 191.86 838.392C191.86 837.016 192.11 835.804 192.611 834.755C193.118 833.7 193.824 832.879 194.727 832.29C195.636 831.696 196.697 831.399 197.909 831.399C198.608 831.399 199.299 831.515 199.98 831.748C200.662 831.981 201.283 832.36 201.842 832.885C202.402 833.403 202.847 834.091 203.18 834.948C203.512 835.804 203.678 836.859 203.678 838.112V838.986H193.328V837.203H201.58C201.58 836.445 201.428 835.769 201.125 835.175C200.828 834.58 200.403 834.111 199.849 833.767C199.301 833.424 198.655 833.252 197.909 833.252C197.087 833.252 196.376 833.456 195.776 833.864C195.181 834.266 194.724 834.79 194.403 835.437C194.083 836.084 193.923 836.777 193.923 837.517V838.706C193.923 839.72 194.097 840.58 194.447 841.285C194.803 841.984 195.295 842.517 195.924 842.885C196.554 843.246 197.285 843.427 198.118 843.427C198.66 843.427 199.15 843.351 199.587 843.199C200.03 843.042 200.412 842.809 200.732 842.5C201.053 842.185 201.3 841.795 201.475 841.329L203.468 841.888C203.258 842.564 202.906 843.159 202.41 843.671C201.915 844.178 201.303 844.575 200.575 844.86C199.846 845.14 199.028 845.28 198.118 845.28ZM212.236 850.315C211.239 850.315 210.382 850.186 209.666 849.93C208.949 849.679 208.352 849.347 207.874 848.934C207.402 848.526 207.026 848.089 206.746 847.622L208.389 846.469C208.576 846.713 208.812 846.993 209.097 847.308C209.383 847.628 209.773 847.905 210.269 848.138C210.77 848.377 211.426 848.497 212.236 848.497C213.319 848.497 214.214 848.234 214.919 847.71C215.624 847.185 215.977 846.364 215.977 845.245V842.517H215.802C215.65 842.762 215.435 843.065 215.155 843.427C214.881 843.782 214.485 844.1 213.966 844.379C213.454 844.653 212.76 844.79 211.886 844.79C210.802 844.79 209.829 844.534 208.966 844.021C208.11 843.508 207.431 842.762 206.93 841.783C206.434 840.804 206.187 839.615 206.187 838.217C206.187 836.841 206.428 835.644 206.912 834.624C207.396 833.598 208.069 832.806 208.931 832.247C209.794 831.681 210.79 831.399 211.921 831.399C212.795 831.399 213.488 831.544 214.001 831.836C214.52 832.121 214.916 832.448 215.19 832.815C215.47 833.176 215.685 833.473 215.837 833.706H216.047V831.573H218.04V845.385C218.04 846.538 217.778 847.477 217.253 848.199C216.734 848.928 216.035 849.461 215.155 849.799C214.281 850.143 213.308 850.315 212.236 850.315ZM212.166 842.937C212.993 842.937 213.692 842.748 214.264 842.369C214.835 841.99 215.269 841.445 215.566 840.734C215.863 840.023 216.012 839.172 216.012 838.182C216.012 837.214 215.866 836.361 215.575 835.621C215.283 834.881 214.852 834.301 214.281 833.881C213.71 833.462 213.005 833.252 212.166 833.252C211.292 833.252 210.563 833.473 209.98 833.916C209.403 834.359 208.969 834.953 208.678 835.699C208.392 836.445 208.25 837.273 208.25 838.182C208.25 839.114 208.395 839.939 208.687 840.656C208.984 841.367 209.421 841.926 209.998 842.334C210.581 842.736 211.303 842.937 212.166 842.937ZM221.816 845V831.573H223.879V845H221.816ZM222.865 829.336C222.463 829.336 222.116 829.199 221.825 828.925C221.539 828.651 221.396 828.322 221.396 827.937C221.396 827.552 221.539 827.223 221.825 826.949C222.116 826.675 222.463 826.538 222.865 826.538C223.267 826.538 223.611 826.675 223.896 826.949C224.188 827.223 224.333 827.552 224.333 827.937C224.333 828.322 224.188 828.651 223.896 828.925C223.611 829.199 223.267 829.336 222.865 829.336ZM237.168 834.58L235.315 835.105C235.198 834.796 235.026 834.496 234.799 834.205C234.578 833.907 234.274 833.663 233.89 833.47C233.505 833.278 233.013 833.182 232.413 833.182C231.591 833.182 230.906 833.371 230.358 833.75C229.816 834.123 229.545 834.598 229.545 835.175C229.545 835.688 229.732 836.093 230.105 836.39C230.478 836.687 231.061 836.935 231.853 837.133L233.846 837.622C235.047 837.914 235.941 838.36 236.53 838.96C237.118 839.554 237.413 840.321 237.413 841.259C237.413 842.028 237.191 842.716 236.748 843.322C236.311 843.928 235.699 844.406 234.913 844.755C234.126 845.105 233.211 845.28 232.168 845.28C230.798 845.28 229.665 844.983 228.767 844.388C227.87 843.794 227.302 842.925 227.063 841.783L229.021 841.294C229.207 842.016 229.56 842.558 230.079 842.92C230.603 843.281 231.288 843.462 232.133 843.462C233.094 843.462 233.858 843.258 234.423 842.85C234.994 842.436 235.28 841.941 235.28 841.364C235.28 840.897 235.117 840.507 234.79 840.192C234.464 839.872 233.963 839.633 233.287 839.476L231.049 838.951C229.819 838.66 228.916 838.208 228.339 837.596C227.768 836.978 227.483 836.206 227.483 835.28C227.483 834.522 227.695 833.852 228.121 833.269C228.552 832.686 229.138 832.229 229.878 831.897C230.624 831.565 231.469 831.399 232.413 831.399C233.741 831.399 234.784 831.69 235.542 832.273C236.305 832.855 236.847 833.625 237.168 834.58ZM246.357 831.573V833.322H239.399V831.573H246.357ZM241.427 828.357H243.49V841.154C243.49 841.737 243.574 842.174 243.743 842.465C243.918 842.751 244.14 842.943 244.408 843.042C244.682 843.135 244.97 843.182 245.273 843.182C245.5 843.182 245.687 843.17 245.833 843.147C245.978 843.118 246.095 843.094 246.182 843.077L246.602 844.93C246.462 844.983 246.267 845.035 246.016 845.087C245.766 845.146 245.448 845.175 245.063 845.175C244.481 845.175 243.91 845.05 243.35 844.799C242.796 844.548 242.336 844.167 241.969 843.654C241.608 843.141 241.427 842.494 241.427 841.713V828.357ZM254.945 845.28C253.652 845.28 252.536 844.994 251.597 844.423C250.665 843.846 249.945 843.042 249.438 842.01C248.937 840.973 248.687 839.767 248.687 838.392C248.687 837.016 248.937 835.804 249.438 834.755C249.945 833.7 250.65 832.879 251.554 832.29C252.463 831.696 253.523 831.399 254.736 831.399C255.435 831.399 256.125 831.515 256.807 831.748C257.489 831.981 258.11 832.36 258.669 832.885C259.229 833.403 259.674 834.091 260.007 834.948C260.339 835.804 260.505 836.859 260.505 838.112V838.986H250.155V837.203H258.407C258.407 836.445 258.255 835.769 257.952 835.175C257.655 834.58 257.23 834.111 256.676 833.767C256.128 833.424 255.482 833.252 254.736 833.252C253.914 833.252 253.203 833.456 252.603 833.864C252.008 834.266 251.551 834.79 251.23 835.437C250.91 836.084 250.75 836.777 250.75 837.517V838.706C250.75 839.72 250.924 840.58 251.274 841.285C251.63 841.984 252.122 842.517 252.751 842.885C253.381 843.246 254.112 843.427 254.945 843.427C255.487 843.427 255.977 843.351 256.414 843.199C256.857 843.042 257.238 842.809 257.559 842.5C257.88 842.185 258.127 841.795 258.302 841.329L260.295 841.888C260.085 842.564 259.733 843.159 259.237 843.671C258.742 844.178 258.13 844.575 257.402 844.86C256.673 845.14 255.854 845.28 254.945 845.28ZM263.643 845V831.573H265.636V833.601H265.776C266.021 832.937 266.463 832.398 267.104 831.984C267.745 831.571 268.468 831.364 269.272 831.364C269.424 831.364 269.613 831.367 269.84 831.372C270.068 831.378 270.24 831.387 270.356 831.399V833.497C270.286 833.479 270.126 833.453 269.875 833.418C269.631 833.377 269.371 833.357 269.097 833.357C268.445 833.357 267.862 833.494 267.349 833.767C266.842 834.036 266.44 834.409 266.143 834.886C265.852 835.358 265.706 835.897 265.706 836.503V845H263.643Z" fill="black"/>
<path d="M61.1678 588V570.098H63.3357V586.077H71.6573V588H61.1678ZM74.7343 588V574.573H76.7972V588H74.7343ZM75.7832 572.336C75.3811 572.336 75.0344 572.199 74.743 571.925C74.4575 571.651 74.3147 571.322 74.3147 570.937C74.3147 570.552 74.4575 570.223 74.743 569.949C75.0344 569.675 75.3811 569.538 75.7832 569.538C76.1853 569.538 76.5291 569.675 76.8147 569.949C77.1061 570.223 77.2517 570.552 77.2517 570.937C77.2517 571.322 77.1061 571.651 76.8147 571.925C76.5291 572.199 76.1853 572.336 75.7832 572.336ZM86.0302 588.28C84.7714 588.28 83.6875 587.983 82.7784 587.388C81.8693 586.794 81.17 585.975 80.6805 584.932C80.191 583.889 79.9462 582.697 79.9462 581.357C79.9462 579.993 80.1968 578.79 80.698 577.747C81.205 576.698 81.9101 575.879 82.8134 575.29C83.7225 574.696 84.7831 574.399 85.9952 574.399C86.9392 574.399 87.7901 574.573 88.5476 574.923C89.3052 575.273 89.9258 575.762 90.4095 576.392C90.8932 577.021 91.1933 577.755 91.3099 578.594H89.2469C89.0896 577.983 88.7399 577.441 88.198 576.969C87.6619 576.491 86.9392 576.252 86.0302 576.252C85.226 576.252 84.5208 576.462 83.9148 576.881C83.3145 577.295 82.8454 577.881 82.5074 578.638C82.1753 579.39 82.0092 580.273 82.0092 581.287C82.0092 582.324 82.1723 583.227 82.4987 583.997C82.8309 584.766 83.2971 585.363 83.8973 585.788C84.5034 586.214 85.2143 586.427 86.0302 586.427C86.5663 586.427 87.0529 586.333 87.4899 586.147C87.927 585.96 88.2971 585.692 88.6001 585.343C88.9031 584.993 89.1187 584.573 89.2469 584.084H91.3099C91.1933 584.876 90.9049 585.59 90.4445 586.226C89.9899 586.855 89.3868 587.356 88.6351 587.729C87.8891 588.096 87.0208 588.28 86.0302 588.28ZM99.955 588.28C98.6613 588.28 97.5453 587.994 96.6071 587.423C95.6747 586.846 94.955 586.042 94.448 585.01C93.9468 583.973 93.6962 582.767 93.6962 581.392C93.6962 580.016 93.9468 578.804 94.448 577.755C94.955 576.7 95.6601 575.879 96.5634 575.29C97.4725 574.696 98.5331 574.399 99.7452 574.399C100.444 574.399 101.135 574.515 101.817 574.748C102.499 574.981 103.119 575.36 103.679 575.885C104.238 576.403 104.684 577.091 105.016 577.948C105.348 578.804 105.514 579.859 105.514 581.112V581.986H95.1648V580.203H103.417C103.417 579.445 103.265 578.769 102.962 578.175C102.665 577.58 102.239 577.111 101.686 576.767C101.138 576.424 100.491 576.252 99.7452 576.252C98.9235 576.252 98.2126 576.456 97.6123 576.864C97.0179 577.266 96.5605 577.79 96.2399 578.437C95.9194 579.084 95.7592 579.777 95.7592 580.517V581.706C95.7592 582.72 95.934 583.58 96.2837 584.285C96.6391 584.984 97.1316 585.517 97.7609 585.885C98.3903 586.246 99.1216 586.427 99.955 586.427C100.497 586.427 100.986 586.351 101.424 586.199C101.866 586.042 102.248 585.809 102.569 585.5C102.889 585.185 103.137 584.795 103.312 584.329L105.305 584.888C105.095 585.564 104.742 586.159 104.247 586.671C103.752 587.178 103.14 587.575 102.411 587.86C101.683 588.14 100.864 588.28 99.955 588.28ZM110.715 579.923V588H108.653V574.573H110.646V576.671H110.82C111.135 575.99 111.613 575.442 112.254 575.028C112.895 574.608 113.722 574.399 114.736 574.399C115.646 574.399 116.441 574.585 117.123 574.958C117.805 575.325 118.335 575.885 118.714 576.636C119.093 577.382 119.282 578.326 119.282 579.469V588H117.219V579.608C117.219 578.554 116.945 577.732 116.397 577.143C115.85 576.549 115.098 576.252 114.142 576.252C113.484 576.252 112.895 576.395 112.376 576.68C111.863 576.966 111.458 577.382 111.161 577.93C110.864 578.478 110.715 579.142 110.715 579.923ZM132.562 577.58L130.709 578.105C130.592 577.796 130.42 577.496 130.193 577.205C129.972 576.907 129.669 576.663 129.284 576.47C128.899 576.278 128.407 576.182 127.807 576.182C126.985 576.182 126.3 576.371 125.753 576.75C125.211 577.123 124.94 577.598 124.94 578.175C124.94 578.688 125.126 579.093 125.499 579.39C125.872 579.687 126.455 579.935 127.247 580.133L129.24 580.622C130.441 580.914 131.335 581.36 131.924 581.96C132.513 582.554 132.807 583.321 132.807 584.259C132.807 585.028 132.585 585.716 132.142 586.322C131.705 586.928 131.094 587.406 130.307 587.755C129.52 588.105 128.605 588.28 127.562 588.28C126.193 588.28 125.059 587.983 124.162 587.388C123.264 586.794 122.696 585.925 122.457 584.783L124.415 584.294C124.602 585.016 124.954 585.558 125.473 585.92C125.997 586.281 126.682 586.462 127.527 586.462C128.489 586.462 129.252 586.258 129.817 585.85C130.388 585.436 130.674 584.941 130.674 584.364C130.674 583.897 130.511 583.507 130.184 583.192C129.858 582.872 129.357 582.633 128.681 582.476L126.443 581.951C125.214 581.66 124.31 581.208 123.733 580.596C123.162 579.978 122.877 579.206 122.877 578.28C122.877 577.522 123.089 576.852 123.515 576.269C123.946 575.686 124.532 575.229 125.272 574.897C126.018 574.565 126.863 574.399 127.807 574.399C129.135 574.399 130.179 574.69 130.936 575.273C131.7 575.855 132.242 576.625 132.562 577.58ZM141.542 588.28C140.248 588.28 139.132 587.994 138.194 587.423C137.261 586.846 136.542 586.042 136.035 585.01C135.533 583.973 135.283 582.767 135.283 581.392C135.283 580.016 135.533 578.804 136.035 577.755C136.542 576.7 137.247 575.879 138.15 575.29C139.059 574.696 140.12 574.399 141.332 574.399C142.031 574.399 142.722 574.515 143.403 574.748C144.085 574.981 144.706 575.36 145.265 575.885C145.825 576.403 146.271 577.091 146.603 577.948C146.935 578.804 147.101 579.859 147.101 581.112V581.986H136.751V580.203H145.003C145.003 579.445 144.852 578.769 144.549 578.175C144.251 577.58 143.826 577.111 143.272 576.767C142.725 576.424 142.078 576.252 141.332 576.252C140.51 576.252 139.799 576.456 139.199 576.864C138.604 577.266 138.147 577.79 137.826 578.437C137.506 579.084 137.346 579.777 137.346 580.517V581.706C137.346 582.72 137.521 583.58 137.87 584.285C138.226 584.984 138.718 585.517 139.347 585.885C139.977 586.246 140.708 586.427 141.542 586.427C142.083 586.427 142.573 586.351 143.01 586.199C143.453 586.042 143.835 585.809 144.155 585.5C144.476 585.185 144.723 584.795 144.898 584.329L146.891 584.888C146.681 585.564 146.329 586.159 145.833 586.671C145.338 587.178 144.726 587.575 143.998 587.86C143.269 588.14 142.451 588.28 141.542 588.28ZM171.638 570.098V588H169.54L159.785 573.944H159.61V588H157.442V570.098H159.54L169.33 584.189H169.505V570.098H171.638ZM184.157 582.51V574.573H186.22V588H184.157V585.727H184.017C183.703 586.409 183.213 586.989 182.549 587.467C181.885 587.939 181.045 588.175 180.031 588.175C179.192 588.175 178.446 587.991 177.794 587.624C177.141 587.251 176.628 586.692 176.255 585.946C175.882 585.194 175.696 584.247 175.696 583.105V574.573H177.759V582.965C177.759 583.944 178.033 584.725 178.58 585.308C179.134 585.89 179.839 586.182 180.696 586.182C181.209 586.182 181.73 586.051 182.26 585.788C182.797 585.526 183.245 585.124 183.607 584.582C183.974 584.04 184.157 583.35 184.157 582.51ZM189.999 588V574.573H191.992V576.671H192.167C192.446 575.955 192.898 575.398 193.521 575.002C194.145 574.6 194.894 574.399 195.768 574.399C196.654 574.399 197.391 574.6 197.979 575.002C198.574 575.398 199.037 575.955 199.369 576.671H199.509C199.853 575.978 200.369 575.427 201.056 575.019C201.744 574.605 202.569 574.399 203.53 574.399C204.731 574.399 205.713 574.774 206.476 575.526C207.239 576.272 207.621 577.435 207.621 579.014V588H205.558V579.014C205.558 578.023 205.287 577.315 204.745 576.89C204.203 576.464 203.565 576.252 202.831 576.252C201.887 576.252 201.155 576.537 200.637 577.108C200.118 577.674 199.859 578.39 199.859 579.259V588H197.761V578.804C197.761 578.041 197.513 577.426 197.018 576.96C196.523 576.488 195.884 576.252 195.104 576.252C194.567 576.252 194.066 576.395 193.6 576.68C193.14 576.966 192.767 577.362 192.481 577.869C192.201 578.37 192.062 578.95 192.062 579.608V588H189.999ZM211.673 588V570.098H213.736V576.706H213.91C214.062 576.473 214.272 576.176 214.54 575.815C214.814 575.448 215.204 575.121 215.711 574.836C216.224 574.544 216.917 574.399 217.792 574.399C218.922 574.399 219.919 574.681 220.781 575.247C221.644 575.812 222.317 576.613 222.8 577.65C223.284 578.688 223.526 579.911 223.526 581.322C223.526 582.744 223.284 583.976 222.8 585.019C222.317 586.057 221.646 586.861 220.79 587.432C219.933 587.997 218.945 588.28 217.826 588.28C216.964 588.28 216.273 588.137 215.755 587.851C215.236 587.56 214.837 587.231 214.557 586.864C214.278 586.491 214.062 586.182 213.91 585.937H213.666V588H211.673ZM213.701 581.287C213.701 582.301 213.849 583.195 214.146 583.97C214.444 584.74 214.878 585.343 215.449 585.78C216.02 586.211 216.719 586.427 217.547 586.427C218.409 586.427 219.129 586.199 219.706 585.745C220.289 585.284 220.726 584.667 221.017 583.892C221.314 583.111 221.463 582.242 221.463 581.287C221.463 580.343 221.317 579.492 221.026 578.734C220.74 577.971 220.306 577.368 219.723 576.925C219.146 576.476 218.421 576.252 217.547 576.252C216.708 576.252 216.002 576.464 215.431 576.89C214.86 577.309 214.429 577.898 214.138 578.656C213.846 579.407 213.701 580.284 213.701 581.287ZM232.311 588.28C231.017 588.28 229.901 587.994 228.963 587.423C228.03 586.846 227.311 586.042 226.804 585.01C226.303 583.973 226.052 582.767 226.052 581.392C226.052 580.016 226.303 578.804 226.804 577.755C227.311 576.7 228.016 575.879 228.919 575.29C229.828 574.696 230.889 574.399 232.101 574.399C232.8 574.399 233.491 574.515 234.173 574.748C234.854 574.981 235.475 575.36 236.035 575.885C236.594 576.403 237.04 577.091 237.372 577.948C237.704 578.804 237.87 579.859 237.87 581.112V581.986H227.521V580.203H235.772C235.772 579.445 235.621 578.769 235.318 578.175C235.021 577.58 234.595 577.111 234.042 576.767C233.494 576.424 232.847 576.252 232.101 576.252C231.279 576.252 230.568 576.456 229.968 576.864C229.374 577.266 228.916 577.79 228.596 578.437C228.275 579.084 228.115 579.777 228.115 580.517V581.706C228.115 582.72 228.29 583.58 228.639 584.285C228.995 584.984 229.487 585.517 230.117 585.885C230.746 586.246 231.477 586.427 232.311 586.427C232.853 586.427 233.342 586.351 233.779 586.199C234.222 586.042 234.604 585.809 234.924 585.5C235.245 585.185 235.493 584.795 235.667 584.329L237.66 584.888C237.451 585.564 237.098 586.159 236.603 586.671C236.107 587.178 235.495 587.575 234.767 587.86C234.039 588.14 233.22 588.28 232.311 588.28ZM241.008 588V574.573H243.001V576.601H243.141C243.386 575.937 243.829 575.398 244.47 574.984C245.111 574.571 245.833 574.364 246.638 574.364C246.789 574.364 246.979 574.367 247.206 574.372C247.433 574.378 247.605 574.387 247.722 574.399V576.497C247.652 576.479 247.491 576.453 247.241 576.418C246.996 576.377 246.737 576.357 246.463 576.357C245.81 576.357 245.227 576.494 244.715 576.767C244.208 577.036 243.806 577.409 243.508 577.886C243.217 578.358 243.071 578.897 243.071 579.503V588H241.008Z" fill="black"/>
<path d="M63.3357 650.098V668H61.1678V650.098H63.3357ZM67.4025 668V654.573H69.3955V656.671H69.5704C69.8501 655.955 70.3017 655.398 70.9253 655.002C71.5488 654.6 72.2976 654.399 73.1718 654.399C74.0575 654.399 74.7947 654.6 75.3833 655.002C75.9777 655.398 76.441 655.955 76.7732 656.671H76.913C77.2568 655.978 77.7726 655.427 78.4602 655.019C79.1479 654.605 79.9725 654.399 80.934 654.399C82.1345 654.399 83.1164 654.774 83.8798 655.526C84.6432 656.272 85.0249 657.435 85.0249 659.014V668H82.962V659.014C82.962 658.023 82.691 657.315 82.149 656.89C81.6071 656.464 80.969 656.252 80.2347 656.252C79.2906 656.252 78.5593 656.537 78.0406 657.108C77.522 657.674 77.2627 658.39 77.2627 659.259V668H75.1648V658.804C75.1648 658.041 74.9171 657.426 74.4218 656.96C73.9264 656.488 73.2883 656.252 72.5074 656.252C71.9713 656.252 71.4701 656.395 71.0039 656.68C70.5436 656.966 70.1706 657.362 69.8851 657.869C69.6053 658.37 69.4655 658.95 69.4655 659.608V668H67.4025ZM92.7478 668.315C91.897 668.315 91.1249 668.154 90.4314 667.834C89.7379 667.508 89.1872 667.038 88.7793 666.427C88.3714 665.809 88.1674 665.063 88.1674 664.189C88.1674 663.42 88.3189 662.796 88.6219 662.318C88.925 661.834 89.33 661.456 89.837 661.182C90.344 660.908 90.9034 660.704 91.5153 660.57C92.133 660.43 92.7536 660.319 93.3772 660.238C94.193 660.133 94.8545 660.054 95.3615 660.002C95.8743 659.943 96.2472 659.847 96.4803 659.713C96.7193 659.579 96.8387 659.346 96.8387 659.014V658.944C96.8387 658.082 96.6027 657.411 96.1307 656.934C95.6645 656.456 94.9564 656.217 94.0066 656.217C93.0217 656.217 92.2496 656.432 91.6901 656.864C91.1307 657.295 90.7373 657.755 90.5101 658.245L88.552 657.545C88.9017 656.73 89.3679 656.094 89.9506 655.64C90.5392 655.179 91.1802 654.859 91.8737 654.678C92.573 654.492 93.2606 654.399 93.9366 654.399C94.3679 654.399 94.8632 654.451 95.4226 654.556C95.9879 654.655 96.5328 654.862 97.0573 655.177C97.5876 655.491 98.0275 655.966 98.3772 656.601C98.7268 657.237 98.9017 658.087 98.9017 659.154V668H96.8387V666.182H96.7338C96.594 666.473 96.3609 666.785 96.0345 667.117C95.7082 667.449 95.274 667.732 94.7321 667.965C94.1901 668.198 93.5287 668.315 92.7478 668.315ZM93.0625 666.462C93.8784 666.462 94.566 666.301 95.1254 665.981C95.6907 665.66 96.1161 665.247 96.4017 664.74C96.693 664.233 96.8387 663.699 96.8387 663.14V661.252C96.7513 661.357 96.559 661.453 96.2618 661.54C95.9704 661.622 95.6324 661.695 95.2478 661.759C94.869 661.817 94.499 661.869 94.1377 661.916C93.7822 661.957 93.4937 661.992 93.2723 662.021C92.7362 662.091 92.235 662.205 91.7688 662.362C91.3084 662.513 90.9355 662.744 90.6499 663.052C90.3702 663.355 90.2303 663.769 90.2303 664.294C90.2303 665.01 90.4955 665.552 91.0258 665.92C91.5619 666.281 92.2408 666.462 93.0625 666.462ZM108.087 673.315C107.09 673.315 106.233 673.186 105.517 672.93C104.8 672.679 104.203 672.347 103.725 671.934C103.253 671.526 102.877 671.089 102.597 670.622L104.24 669.469C104.427 669.713 104.663 669.993 104.948 670.308C105.234 670.628 105.624 670.905 106.12 671.138C106.621 671.377 107.277 671.497 108.087 671.497C109.17 671.497 110.065 671.234 110.77 670.71C111.475 670.185 111.828 669.364 111.828 668.245V665.517H111.653C111.501 665.762 111.286 666.065 111.006 666.427C110.732 666.782 110.336 667.1 109.817 667.379C109.304 667.653 108.611 667.79 107.737 667.79C106.653 667.79 105.68 667.534 104.817 667.021C103.961 666.508 103.282 665.762 102.781 664.783C102.285 663.804 102.038 662.615 102.038 661.217C102.038 659.841 102.279 658.644 102.763 657.624C103.247 656.598 103.92 655.806 104.782 655.247C105.645 654.681 106.641 654.399 107.772 654.399C108.646 654.399 109.339 654.544 109.852 654.836C110.371 655.121 110.767 655.448 111.041 655.815C111.321 656.176 111.536 656.473 111.688 656.706H111.898V654.573H113.891V668.385C113.891 669.538 113.628 670.477 113.104 671.199C112.585 671.928 111.886 672.461 111.006 672.799C110.132 673.143 109.159 673.315 108.087 673.315ZM108.017 665.937C108.844 665.937 109.543 665.748 110.115 665.369C110.686 664.99 111.12 664.445 111.417 663.734C111.714 663.023 111.863 662.172 111.863 661.182C111.863 660.214 111.717 659.361 111.426 658.621C111.134 657.881 110.703 657.301 110.132 656.881C109.561 656.462 108.856 656.252 108.017 656.252C107.142 656.252 106.414 656.473 105.831 656.916C105.254 657.359 104.82 657.953 104.529 658.699C104.243 659.445 104.101 660.273 104.101 661.182C104.101 662.114 104.246 662.939 104.538 663.656C104.835 664.367 105.272 664.926 105.849 665.334C106.432 665.736 107.154 665.937 108.017 665.937ZM123.296 668.28C122.003 668.28 120.887 667.994 119.948 667.423C119.016 666.846 118.296 666.042 117.789 665.01C117.288 663.973 117.038 662.767 117.038 661.392C117.038 660.016 117.288 658.804 117.789 657.755C118.296 656.7 119.001 655.879 119.905 655.29C120.814 654.696 121.874 654.399 123.087 654.399C123.786 654.399 124.476 654.515 125.158 654.748C125.84 654.981 126.461 655.36 127.02 655.885C127.58 656.403 128.025 657.091 128.358 657.948C128.69 658.804 128.856 659.859 128.856 661.112V661.986H118.506V660.203H126.758C126.758 659.445 126.606 658.769 126.303 658.175C126.006 657.58 125.581 657.111 125.027 656.767C124.479 656.424 123.832 656.252 123.087 656.252C122.265 656.252 121.554 656.456 120.954 656.864C120.359 657.266 119.902 657.79 119.581 658.437C119.261 659.084 119.101 659.777 119.101 660.517V661.706C119.101 662.72 119.275 663.58 119.625 664.285C119.98 664.984 120.473 665.517 121.102 665.885C121.732 666.246 122.463 666.427 123.296 666.427C123.838 666.427 124.328 666.351 124.765 666.199C125.208 666.042 125.589 665.809 125.91 665.5C126.23 665.185 126.478 664.795 126.653 664.329L128.646 664.888C128.436 665.564 128.084 666.159 127.588 666.671C127.093 667.178 126.481 667.575 125.753 667.86C125.024 668.14 124.205 668.28 123.296 668.28Z" fill="black"/>
</svg>
