<svg width="430" height="932" viewBox="0 0 430 932" fill="none" xmlns="http://www.w3.org/2000/svg">
<rect width="430" height="932" fill="white"/>
<path d="M94.0455 399L87.6818 375.727H90.5455L95.4091 394.682H95.6364L100.591 375.727H103.773L108.727 394.682H108.955L113.818 375.727H116.682L110.318 399H107.409L102.273 380.455H102.091L96.9545 399H94.0455ZM125.523 399.364C123.841 399.364 122.39 398.992 121.17 398.25C119.958 397.5 119.023 396.455 118.364 395.114C117.712 393.765 117.386 392.197 117.386 390.409C117.386 388.621 117.712 387.045 118.364 385.682C119.023 384.311 119.939 383.242 121.114 382.477C122.295 381.705 123.674 381.318 125.25 381.318C126.159 381.318 127.057 381.47 127.943 381.773C128.83 382.076 129.636 382.568 130.364 383.25C131.091 383.924 131.67 384.818 132.102 385.932C132.534 387.045 132.75 388.417 132.75 390.045V391.182H119.295V388.864H130.023C130.023 387.879 129.826 387 129.432 386.227C129.045 385.455 128.492 384.845 127.773 384.398C127.061 383.951 126.22 383.727 125.25 383.727C124.182 383.727 123.258 383.992 122.477 384.523C121.705 385.045 121.11 385.727 120.693 386.568C120.277 387.409 120.068 388.311 120.068 389.273V390.818C120.068 392.136 120.295 393.254 120.75 394.17C121.212 395.08 121.852 395.773 122.67 396.25C123.489 396.72 124.439 396.955 125.523 396.955C126.227 396.955 126.864 396.856 127.432 396.659C128.008 396.455 128.504 396.152 128.92 395.75C129.337 395.341 129.659 394.833 129.886 394.227L132.477 394.955C132.205 395.833 131.746 396.606 131.102 397.273C130.458 397.932 129.663 398.447 128.716 398.818C127.769 399.182 126.705 399.364 125.523 399.364ZM139.511 375.727V399H136.83V375.727H139.511ZM151.514 399.364C149.878 399.364 148.469 398.977 147.287 398.205C146.105 397.432 145.196 396.367 144.56 395.011C143.923 393.655 143.605 392.106 143.605 390.364C143.605 388.591 143.931 387.027 144.582 385.67C145.241 384.307 146.158 383.242 147.332 382.477C148.514 381.705 149.893 381.318 151.469 381.318C152.696 381.318 153.802 381.545 154.787 382C155.772 382.455 156.579 383.091 157.207 383.909C157.836 384.727 158.226 385.682 158.378 386.773H155.696C155.491 385.977 155.037 385.273 154.332 384.659C153.635 384.038 152.696 383.727 151.514 383.727C150.469 383.727 149.552 384 148.764 384.545C147.984 385.083 147.374 385.845 146.935 386.83C146.503 387.807 146.287 388.955 146.287 390.273C146.287 391.621 146.499 392.795 146.923 393.795C147.355 394.795 147.961 395.572 148.741 396.125C149.529 396.678 150.454 396.955 151.514 396.955C152.211 396.955 152.844 396.833 153.412 396.591C153.98 396.348 154.461 396 154.855 395.545C155.249 395.091 155.529 394.545 155.696 393.909H158.378C158.226 394.939 157.851 395.867 157.253 396.693C156.662 397.511 155.878 398.163 154.901 398.648C153.931 399.125 152.802 399.364 151.514 399.364ZM169.389 399.364C167.813 399.364 166.431 398.989 165.241 398.239C164.06 397.489 163.135 396.439 162.469 395.091C161.81 393.742 161.48 392.167 161.48 390.364C161.48 388.545 161.81 386.958 162.469 385.602C163.135 384.246 164.06 383.193 165.241 382.443C166.431 381.693 167.813 381.318 169.389 381.318C170.965 381.318 172.344 381.693 173.526 382.443C174.715 383.193 175.639 384.246 176.298 385.602C176.965 386.958 177.298 388.545 177.298 390.364C177.298 392.167 176.965 393.742 176.298 395.091C175.639 396.439 174.715 397.489 173.526 398.239C172.344 398.989 170.965 399.364 169.389 399.364ZM169.389 396.955C170.586 396.955 171.571 396.648 172.344 396.034C173.116 395.42 173.688 394.614 174.06 393.614C174.431 392.614 174.616 391.53 174.616 390.364C174.616 389.197 174.431 388.11 174.06 387.102C173.688 386.095 173.116 385.28 172.344 384.659C171.571 384.038 170.586 383.727 169.389 383.727C168.192 383.727 167.207 384.038 166.435 384.659C165.662 385.28 165.09 386.095 164.719 387.102C164.348 388.11 164.162 389.197 164.162 390.364C164.162 391.53 164.348 392.614 164.719 393.614C165.09 394.614 165.662 395.42 166.435 396.034C167.207 396.648 168.192 396.955 169.389 396.955ZM181.392 399V381.545H183.983V384.273H184.21C184.574 383.341 185.161 382.617 185.972 382.102C186.782 381.58 187.756 381.318 188.892 381.318C190.044 381.318 191.002 381.58 191.767 382.102C192.54 382.617 193.142 383.341 193.574 384.273H193.756C194.203 383.371 194.873 382.655 195.767 382.125C196.661 381.587 197.733 381.318 198.983 381.318C200.544 381.318 201.82 381.807 202.812 382.784C203.805 383.754 204.301 385.265 204.301 387.318V399H201.619V387.318C201.619 386.03 201.267 385.11 200.562 384.557C199.858 384.004 199.028 383.727 198.074 383.727C196.847 383.727 195.896 384.098 195.222 384.841C194.547 385.576 194.21 386.508 194.21 387.636V399H191.483V387.045C191.483 386.053 191.161 385.254 190.517 384.648C189.873 384.034 189.044 383.727 188.028 383.727C187.331 383.727 186.68 383.913 186.074 384.284C185.475 384.655 184.991 385.17 184.619 385.83C184.256 386.481 184.074 387.235 184.074 388.091V399H181.392ZM216.523 399.364C214.841 399.364 213.39 398.992 212.17 398.25C210.958 397.5 210.023 396.455 209.364 395.114C208.712 393.765 208.386 392.197 208.386 390.409C208.386 388.621 208.712 387.045 209.364 385.682C210.023 384.311 210.939 383.242 212.114 382.477C213.295 381.705 214.674 381.318 216.25 381.318C217.159 381.318 218.057 381.47 218.943 381.773C219.83 382.076 220.636 382.568 221.364 383.25C222.091 383.924 222.67 384.818 223.102 385.932C223.534 387.045 223.75 388.417 223.75 390.045V391.182H210.295V388.864H221.023C221.023 387.879 220.826 387 220.432 386.227C220.045 385.455 219.492 384.845 218.773 384.398C218.061 383.951 217.22 383.727 216.25 383.727C215.182 383.727 214.258 383.992 213.477 384.523C212.705 385.045 212.11 385.727 211.693 386.568C211.277 387.409 211.068 388.311 211.068 389.273V390.818C211.068 392.136 211.295 393.254 211.75 394.17C212.212 395.08 212.852 395.773 213.67 396.25C214.489 396.72 215.439 396.955 216.523 396.955C217.227 396.955 217.864 396.856 218.432 396.659C219.008 396.455 219.504 396.152 219.92 395.75C220.337 395.341 220.659 394.833 220.886 394.227L223.477 394.955C223.205 395.833 222.746 396.606 222.102 397.273C221.458 397.932 220.663 398.447 219.716 398.818C218.769 399.182 217.705 399.364 216.523 399.364ZM237.193 399V375.727H239.875V384.318H240.102C240.299 384.015 240.572 383.629 240.92 383.159C241.277 382.682 241.784 382.258 242.443 381.886C243.11 381.508 244.011 381.318 245.148 381.318C246.617 381.318 247.913 381.686 249.034 382.42C250.155 383.155 251.03 384.197 251.659 385.545C252.288 386.894 252.602 388.485 252.602 390.318C252.602 392.167 252.288 393.769 251.659 395.125C251.03 396.473 250.159 397.519 249.045 398.261C247.932 398.996 246.648 399.364 245.193 399.364C244.072 399.364 243.174 399.178 242.5 398.807C241.826 398.428 241.307 398 240.943 397.523C240.58 397.038 240.299 396.636 240.102 396.318H239.784V399H237.193ZM239.83 390.273C239.83 391.591 240.023 392.754 240.409 393.761C240.795 394.761 241.36 395.545 242.102 396.114C242.845 396.674 243.754 396.955 244.83 396.955C245.951 396.955 246.886 396.659 247.636 396.068C248.394 395.47 248.962 394.667 249.341 393.659C249.727 392.644 249.92 391.515 249.92 390.273C249.92 389.045 249.731 387.939 249.352 386.955C248.981 385.962 248.417 385.178 247.659 384.602C246.909 384.019 245.966 383.727 244.83 383.727C243.739 383.727 242.822 384.004 242.08 384.557C241.337 385.102 240.777 385.867 240.398 386.852C240.019 387.83 239.83 388.97 239.83 390.273ZM261.841 399.409C260.735 399.409 259.731 399.201 258.83 398.784C257.928 398.36 257.212 397.75 256.682 396.955C256.152 396.152 255.886 395.182 255.886 394.045C255.886 393.045 256.083 392.235 256.477 391.614C256.871 390.985 257.398 390.492 258.057 390.136C258.716 389.78 259.443 389.515 260.239 389.341C261.042 389.159 261.848 389.015 262.659 388.909C263.72 388.773 264.58 388.67 265.239 388.602C265.905 388.527 266.39 388.402 266.693 388.227C267.004 388.053 267.159 387.75 267.159 387.318V387.227C267.159 386.106 266.852 385.235 266.239 384.614C265.633 383.992 264.712 383.682 263.477 383.682C262.197 383.682 261.193 383.962 260.466 384.523C259.739 385.083 259.227 385.682 258.932 386.318L256.386 385.409C256.841 384.348 257.447 383.523 258.205 382.932C258.97 382.333 259.803 381.917 260.705 381.682C261.614 381.439 262.508 381.318 263.386 381.318C263.947 381.318 264.591 381.386 265.318 381.523C266.053 381.652 266.761 381.92 267.443 382.33C268.133 382.739 268.705 383.356 269.159 384.182C269.614 385.008 269.841 386.114 269.841 387.5V399H267.159V396.636H267.023C266.841 397.015 266.538 397.42 266.114 397.852C265.689 398.284 265.125 398.652 264.42 398.955C263.716 399.258 262.856 399.409 261.841 399.409ZM262.25 397C263.311 397 264.205 396.792 264.932 396.375C265.667 395.958 266.22 395.42 266.591 394.761C266.97 394.102 267.159 393.409 267.159 392.682V390.227C267.045 390.364 266.795 390.489 266.409 390.602C266.03 390.708 265.591 390.803 265.091 390.886C264.598 390.962 264.117 391.03 263.648 391.091C263.186 391.144 262.811 391.189 262.523 391.227C261.826 391.318 261.174 391.466 260.568 391.67C259.97 391.867 259.485 392.167 259.114 392.568C258.75 392.962 258.568 393.5 258.568 394.182C258.568 395.114 258.913 395.818 259.602 396.295C260.299 396.765 261.182 397 262.25 397ZM281.827 399.364C280.19 399.364 278.781 398.977 277.599 398.205C276.418 397.432 275.509 396.367 274.872 395.011C274.236 393.655 273.918 392.106 273.918 390.364C273.918 388.591 274.243 387.027 274.895 385.67C275.554 384.307 276.471 383.242 277.645 382.477C278.827 381.705 280.205 381.318 281.781 381.318C283.009 381.318 284.115 381.545 285.099 382C286.084 382.455 286.891 383.091 287.52 383.909C288.149 384.727 288.539 385.682 288.69 386.773H286.009C285.804 385.977 285.349 385.273 284.645 384.659C283.948 384.038 283.009 383.727 281.827 383.727C280.781 383.727 279.865 384 279.077 384.545C278.296 385.083 277.687 385.845 277.247 386.83C276.815 387.807 276.599 388.955 276.599 390.273C276.599 391.621 276.812 392.795 277.236 393.795C277.668 394.795 278.274 395.572 279.054 396.125C279.842 396.678 280.766 396.955 281.827 396.955C282.524 396.955 283.156 396.833 283.724 396.591C284.293 396.348 284.774 396 285.168 395.545C285.562 395.091 285.842 394.545 286.009 393.909H288.69C288.539 394.939 288.164 395.867 287.565 396.693C286.974 397.511 286.19 398.163 285.213 398.648C284.243 399.125 283.115 399.364 281.827 399.364ZM295.111 392.636L295.065 389.318H295.611L303.247 381.545H306.565L298.429 389.773H298.202L295.111 392.636ZM292.611 399V375.727H295.293V399H292.611ZM303.702 399L296.884 390.364L298.793 388.5L307.111 399H303.702ZM311.972 399.182C311.411 399.182 310.93 398.981 310.528 398.58C310.127 398.178 309.926 397.697 309.926 397.136C309.926 396.576 310.127 396.095 310.528 395.693C310.93 395.292 311.411 395.091 311.972 395.091C312.532 395.091 313.013 395.292 313.415 395.693C313.816 396.095 314.017 396.576 314.017 397.136C314.017 397.508 313.922 397.848 313.733 398.159C313.551 398.47 313.305 398.72 312.994 398.909C312.691 399.091 312.35 399.182 311.972 399.182Z" fill="black"/>
<rect x="52" y="466" width="334" height="64" fill="#D9D9D9"/>
<path d="M74.8182 505V481.727H88.8636V484.227H77.6364V492.091H88.1364V494.591H77.6364V502.5H89.0455V505H74.8182ZM93.5795 505V487.545H96.1705V490.273H96.3977C96.7614 489.341 97.3485 488.617 98.1591 488.102C98.9697 487.58 99.9432 487.318 101.08 487.318C102.231 487.318 103.189 487.58 103.955 488.102C104.727 488.617 105.33 489.341 105.761 490.273H105.943C106.39 489.371 107.061 488.655 107.955 488.125C108.848 487.587 109.92 487.318 111.17 487.318C112.731 487.318 114.008 487.807 115 488.784C115.992 489.754 116.489 491.265 116.489 493.318V505H113.807V493.318C113.807 492.03 113.455 491.11 112.75 490.557C112.045 490.004 111.216 489.727 110.261 489.727C109.034 489.727 108.083 490.098 107.409 490.841C106.735 491.576 106.398 492.508 106.398 493.636V505H103.67V493.045C103.67 492.053 103.348 491.254 102.705 490.648C102.061 490.034 101.231 489.727 100.216 489.727C99.5189 489.727 98.8674 489.913 98.2614 490.284C97.6629 490.655 97.178 491.17 96.8068 491.83C96.4432 492.481 96.2614 493.235 96.2614 494.091V505H93.5795ZM126.528 505.409C125.422 505.409 124.419 505.201 123.517 504.784C122.616 504.36 121.9 503.75 121.369 502.955C120.839 502.152 120.574 501.182 120.574 500.045C120.574 499.045 120.771 498.235 121.165 497.614C121.559 496.985 122.085 496.492 122.744 496.136C123.403 495.78 124.131 495.515 124.926 495.341C125.729 495.159 126.536 495.015 127.347 494.909C128.407 494.773 129.267 494.67 129.926 494.602C130.593 494.527 131.078 494.402 131.381 494.227C131.691 494.053 131.847 493.75 131.847 493.318V493.227C131.847 492.106 131.54 491.235 130.926 490.614C130.32 489.992 129.4 489.682 128.165 489.682C126.884 489.682 125.881 489.962 125.153 490.523C124.426 491.083 123.915 491.682 123.619 492.318L121.074 491.409C121.528 490.348 122.134 489.523 122.892 488.932C123.657 488.333 124.491 487.917 125.392 487.682C126.301 487.439 127.195 487.318 128.074 487.318C128.634 487.318 129.278 487.386 130.006 487.523C130.741 487.652 131.449 487.92 132.131 488.33C132.82 488.739 133.392 489.356 133.847 490.182C134.301 491.008 134.528 492.114 134.528 493.5V505H131.847V502.636H131.71C131.528 503.015 131.225 503.42 130.801 503.852C130.377 504.284 129.813 504.652 129.108 504.955C128.403 505.258 127.544 505.409 126.528 505.409ZM126.938 503C127.998 503 128.892 502.792 129.619 502.375C130.354 501.958 130.907 501.42 131.278 500.761C131.657 500.102 131.847 499.409 131.847 498.682V496.227C131.733 496.364 131.483 496.489 131.097 496.602C130.718 496.708 130.278 496.803 129.778 496.886C129.286 496.962 128.805 497.03 128.335 497.091C127.873 497.144 127.498 497.189 127.21 497.227C126.513 497.318 125.862 497.466 125.256 497.67C124.657 497.867 124.172 498.167 123.801 498.568C123.438 498.962 123.256 499.5 123.256 500.182C123.256 501.114 123.6 501.818 124.29 502.295C124.987 502.765 125.869 503 126.938 503ZM139.423 505V487.545H142.105V505H139.423ZM140.787 484.636C140.264 484.636 139.813 484.458 139.435 484.102C139.063 483.746 138.878 483.318 138.878 482.818C138.878 482.318 139.063 481.89 139.435 481.534C139.813 481.178 140.264 481 140.787 481C141.31 481 141.757 481.178 142.128 481.534C142.507 481.89 142.696 482.318 142.696 482.818C142.696 483.318 142.507 483.746 142.128 484.102C141.757 484.458 141.31 484.636 140.787 484.636ZM149.699 481.727V505H147.017V481.727H149.699Z" fill="black"/>
<rect x="52" y="581" width="334" height="61" fill="#D9D9D9"/>
<path d="M74.8182 623V599.727H82.6818C84.5076 599.727 86 600.057 87.1591 600.716C88.3258 601.367 89.1894 602.25 89.75 603.364C90.3106 604.477 90.5909 605.72 90.5909 607.091C90.5909 608.462 90.3106 609.708 89.75 610.83C89.197 611.951 88.3409 612.845 87.1818 613.511C86.0227 614.17 84.5379 614.5 82.7273 614.5H77.0909V612H82.6364C83.8864 612 84.8902 611.784 85.6477 611.352C86.4053 610.92 86.9545 610.337 87.2955 609.602C87.6439 608.86 87.8182 608.023 87.8182 607.091C87.8182 606.159 87.6439 605.326 87.2955 604.591C86.9545 603.856 86.4015 603.28 85.6364 602.864C84.8712 602.439 83.8561 602.227 82.5909 602.227H77.6364V623H74.8182ZM99.9034 623.409C98.7973 623.409 97.7936 623.201 96.892 622.784C95.9905 622.36 95.2746 621.75 94.7443 620.955C94.214 620.152 93.9489 619.182 93.9489 618.045C93.9489 617.045 94.1458 616.235 94.5398 615.614C94.9337 614.985 95.4602 614.492 96.1193 614.136C96.7784 613.78 97.5057 613.515 98.3011 613.341C99.1042 613.159 99.911 613.015 100.722 612.909C101.782 612.773 102.642 612.67 103.301 612.602C103.968 612.527 104.453 612.402 104.756 612.227C105.066 612.053 105.222 611.75 105.222 611.318V611.227C105.222 610.106 104.915 609.235 104.301 608.614C103.695 607.992 102.775 607.682 101.54 607.682C100.259 607.682 99.2557 607.962 98.5284 608.523C97.8011 609.083 97.2898 609.682 96.9943 610.318L94.4489 609.409C94.9034 608.348 95.5095 607.523 96.267 606.932C97.0322 606.333 97.8655 605.917 98.767 605.682C99.6761 605.439 100.57 605.318 101.449 605.318C102.009 605.318 102.653 605.386 103.381 605.523C104.116 605.652 104.824 605.92 105.506 606.33C106.195 606.739 106.767 607.356 107.222 608.182C107.676 609.008 107.903 610.114 107.903 611.5V623H105.222V620.636H105.085C104.903 621.015 104.6 621.42 104.176 621.852C103.752 622.284 103.188 622.652 102.483 622.955C101.778 623.258 100.919 623.409 99.9034 623.409ZM100.312 621C101.373 621 102.267 620.792 102.994 620.375C103.729 619.958 104.282 619.42 104.653 618.761C105.032 618.102 105.222 617.409 105.222 616.682V614.227C105.108 614.364 104.858 614.489 104.472 614.602C104.093 614.708 103.653 614.803 103.153 614.886C102.661 614.962 102.18 615.03 101.71 615.091C101.248 615.144 100.873 615.189 100.585 615.227C99.8883 615.318 99.2367 615.466 98.6307 615.67C98.0322 615.867 97.5473 616.167 97.1761 616.568C96.8125 616.962 96.6307 617.5 96.6307 618.182C96.6307 619.114 96.9754 619.818 97.6648 620.295C98.3617 620.765 99.2443 621 100.312 621ZM125.162 609.455L122.753 610.136C122.601 609.735 122.378 609.345 122.082 608.966C121.795 608.58 121.401 608.261 120.901 608.011C120.401 607.761 119.76 607.636 118.98 607.636C117.912 607.636 117.022 607.883 116.31 608.375C115.605 608.86 115.253 609.477 115.253 610.227C115.253 610.894 115.495 611.42 115.98 611.807C116.465 612.193 117.223 612.515 118.253 612.773L120.844 613.409C122.404 613.788 123.567 614.367 124.332 615.148C125.098 615.92 125.48 616.917 125.48 618.136C125.48 619.136 125.192 620.03 124.616 620.818C124.048 621.606 123.253 622.227 122.23 622.682C121.207 623.136 120.018 623.364 118.662 623.364C116.882 623.364 115.408 622.977 114.241 622.205C113.075 621.432 112.336 620.303 112.026 618.818L114.571 618.182C114.813 619.121 115.272 619.826 115.946 620.295C116.628 620.765 117.518 621 118.616 621C119.866 621 120.859 620.735 121.594 620.205C122.336 619.667 122.707 619.023 122.707 618.273C122.707 617.667 122.495 617.159 122.071 616.75C121.647 616.333 120.995 616.023 120.116 615.818L117.207 615.136C115.609 614.758 114.435 614.17 113.685 613.375C112.942 612.572 112.571 611.568 112.571 610.364C112.571 609.379 112.848 608.508 113.401 607.75C113.961 606.992 114.723 606.398 115.685 605.966C116.654 605.534 117.753 605.318 118.98 605.318C120.707 605.318 122.063 605.697 123.048 606.455C124.041 607.212 124.745 608.212 125.162 609.455ZM141.881 609.455L139.472 610.136C139.32 609.735 139.097 609.345 138.801 608.966C138.513 608.58 138.119 608.261 137.619 608.011C137.119 607.761 136.479 607.636 135.699 607.636C134.631 607.636 133.741 607.883 133.028 608.375C132.324 608.86 131.972 609.477 131.972 610.227C131.972 610.894 132.214 611.42 132.699 611.807C133.184 612.193 133.941 612.515 134.972 612.773L137.562 613.409C139.123 613.788 140.286 614.367 141.051 615.148C141.816 615.92 142.199 616.917 142.199 618.136C142.199 619.136 141.911 620.03 141.335 620.818C140.767 621.606 139.972 622.227 138.949 622.682C137.926 623.136 136.737 623.364 135.381 623.364C133.6 623.364 132.127 622.977 130.96 622.205C129.794 621.432 129.055 620.303 128.744 618.818L131.29 618.182C131.532 619.121 131.991 619.826 132.665 620.295C133.347 620.765 134.237 621 135.335 621C136.585 621 137.578 620.735 138.312 620.205C139.055 619.667 139.426 619.023 139.426 618.273C139.426 617.667 139.214 617.159 138.79 616.75C138.366 616.333 137.714 616.023 136.835 615.818L133.926 615.136C132.328 614.758 131.153 614.17 130.403 613.375C129.661 612.572 129.29 611.568 129.29 610.364C129.29 609.379 129.566 608.508 130.119 607.75C130.68 606.992 131.441 606.398 132.403 605.966C133.373 605.534 134.472 605.318 135.699 605.318C137.426 605.318 138.782 605.697 139.767 606.455C140.759 607.212 141.464 608.212 141.881 609.455ZM150.19 623L144.872 605.545H147.69L151.463 618.909H151.645L155.372 605.545H158.236L161.918 618.864H162.099L165.872 605.545H168.69L163.372 623H160.736L156.918 609.591H156.645L152.827 623H150.19ZM178.733 623.364C177.157 623.364 175.775 622.989 174.585 622.239C173.403 621.489 172.479 620.439 171.812 619.091C171.153 617.742 170.824 616.167 170.824 614.364C170.824 612.545 171.153 610.958 171.812 609.602C172.479 608.246 173.403 607.193 174.585 606.443C175.775 605.693 177.157 605.318 178.733 605.318C180.309 605.318 181.688 605.693 182.869 606.443C184.059 607.193 184.983 608.246 185.642 609.602C186.309 610.958 186.642 612.545 186.642 614.364C186.642 616.167 186.309 617.742 185.642 619.091C184.983 620.439 184.059 621.489 182.869 622.239C181.688 622.989 180.309 623.364 178.733 623.364ZM178.733 620.955C179.93 620.955 180.915 620.648 181.688 620.034C182.46 619.42 183.032 618.614 183.403 617.614C183.775 616.614 183.96 615.53 183.96 614.364C183.96 613.197 183.775 612.11 183.403 611.102C183.032 610.095 182.46 609.28 181.688 608.659C180.915 608.038 179.93 607.727 178.733 607.727C177.536 607.727 176.551 608.038 175.778 608.659C175.006 609.28 174.434 610.095 174.062 611.102C173.691 612.11 173.506 613.197 173.506 614.364C173.506 615.53 173.691 616.614 174.062 617.614C174.434 618.614 175.006 619.42 175.778 620.034C176.551 620.648 177.536 620.955 178.733 620.955ZM190.736 623V605.545H193.327V608.182H193.509C193.827 607.318 194.402 606.617 195.236 606.08C196.069 605.542 197.009 605.273 198.054 605.273C198.251 605.273 198.497 605.277 198.793 605.284C199.088 605.292 199.312 605.303 199.463 605.318V608.045C199.372 608.023 199.164 607.989 198.838 607.943C198.52 607.89 198.183 607.864 197.827 607.864C196.978 607.864 196.221 608.042 195.554 608.398C194.895 608.746 194.372 609.231 193.986 609.852C193.607 610.466 193.418 611.167 193.418 611.955V623H190.736ZM208.702 623.364C207.247 623.364 205.963 622.996 204.849 622.261C203.736 621.519 202.865 620.473 202.236 619.125C201.607 617.769 201.293 616.167 201.293 614.318C201.293 612.485 201.607 610.894 202.236 609.545C202.865 608.197 203.74 607.155 204.861 606.42C205.982 605.686 207.277 605.318 208.747 605.318C209.884 605.318 210.781 605.508 211.44 605.886C212.107 606.258 212.615 606.682 212.963 607.159C213.319 607.629 213.596 608.015 213.793 608.318H214.02V599.727H216.702V623H214.111V620.318H213.793C213.596 620.636 213.315 621.038 212.952 621.523C212.588 622 212.069 622.428 211.395 622.807C210.721 623.178 209.823 623.364 208.702 623.364ZM209.065 620.955C210.141 620.955 211.05 620.674 211.793 620.114C212.535 619.545 213.099 618.761 213.486 617.761C213.872 616.754 214.065 615.591 214.065 614.273C214.065 612.97 213.876 611.83 213.497 610.852C213.118 609.867 212.558 609.102 211.815 608.557C211.073 608.004 210.156 607.727 209.065 607.727C207.929 607.727 206.982 608.019 206.224 608.602C205.474 609.178 204.91 609.962 204.531 610.955C204.16 611.939 203.974 613.045 203.974 614.273C203.974 615.515 204.164 616.644 204.543 617.659C204.929 618.667 205.497 619.47 206.247 620.068C207.005 620.659 207.944 620.955 209.065 620.955Z" fill="black"/>
<rect x="52" y="715" width="334" height="46" rx="15" fill="#D9D9D9"/>
<path d="M181.114 747V729.545H183.227V745.125H191.341V747H181.114ZM199.659 747.273C198.477 747.273 197.44 746.991 196.548 746.429C195.662 745.866 194.969 745.08 194.469 744.068C193.974 743.057 193.727 741.875 193.727 740.523C193.727 739.159 193.974 737.969 194.469 736.952C194.969 735.935 195.662 735.145 196.548 734.582C197.44 734.02 198.477 733.739 199.659 733.739C200.841 733.739 201.875 734.02 202.761 734.582C203.653 735.145 204.347 735.935 204.841 736.952C205.341 737.969 205.591 739.159 205.591 740.523C205.591 741.875 205.341 743.057 204.841 744.068C204.347 745.08 203.653 745.866 202.761 746.429C201.875 746.991 200.841 747.273 199.659 747.273ZM199.659 745.466C200.557 745.466 201.295 745.236 201.875 744.776C202.455 744.315 202.884 743.71 203.162 742.96C203.44 742.21 203.58 741.398 203.58 740.523C203.58 739.648 203.44 738.832 203.162 738.077C202.884 737.321 202.455 736.71 201.875 736.244C201.295 735.778 200.557 735.545 199.659 735.545C198.761 735.545 198.023 735.778 197.443 736.244C196.864 736.71 196.435 737.321 196.156 738.077C195.878 738.832 195.739 739.648 195.739 740.523C195.739 741.398 195.878 742.21 196.156 742.96C196.435 743.71 196.864 744.315 197.443 744.776C198.023 745.236 198.761 745.466 199.659 745.466ZM213.945 752.182C212.974 752.182 212.138 752.057 211.44 751.807C210.741 751.562 210.158 751.239 209.692 750.835C209.232 750.438 208.866 750.011 208.593 749.557L210.195 748.432C210.377 748.67 210.607 748.943 210.886 749.25C211.164 749.562 211.545 749.832 212.028 750.06C212.516 750.293 213.156 750.409 213.945 750.409C215.002 750.409 215.874 750.153 216.562 749.642C217.249 749.131 217.593 748.33 217.593 747.239V744.58H217.423C217.275 744.818 217.065 745.114 216.792 745.466C216.525 745.812 216.138 746.122 215.633 746.395C215.133 746.662 214.457 746.795 213.604 746.795C212.548 746.795 211.599 746.545 210.758 746.045C209.923 745.545 209.261 744.818 208.772 743.864C208.289 742.909 208.048 741.75 208.048 740.386C208.048 739.045 208.283 737.878 208.755 736.884C209.227 735.884 209.883 735.111 210.724 734.565C211.565 734.014 212.536 733.739 213.638 733.739C214.491 733.739 215.167 733.881 215.667 734.165C216.173 734.443 216.559 734.761 216.826 735.119C217.099 735.472 217.309 735.761 217.457 735.989H217.661V733.909H219.604V747.375C219.604 748.5 219.349 749.415 218.837 750.119C218.332 750.83 217.65 751.349 216.792 751.679C215.94 752.014 214.991 752.182 213.945 752.182ZM213.877 744.989C214.684 744.989 215.366 744.804 215.923 744.435C216.479 744.065 216.903 743.534 217.192 742.841C217.482 742.148 217.627 741.318 217.627 740.352C217.627 739.409 217.485 738.577 217.201 737.855C216.917 737.134 216.496 736.568 215.94 736.159C215.383 735.75 214.695 735.545 213.877 735.545C213.025 735.545 212.315 735.761 211.746 736.193C211.184 736.625 210.761 737.205 210.477 737.932C210.198 738.659 210.059 739.466 210.059 740.352C210.059 741.261 210.201 742.065 210.485 742.764C210.775 743.457 211.201 744.003 211.763 744.401C212.332 744.793 213.036 744.989 213.877 744.989ZM223.286 747V733.909H225.298V747H223.286ZM224.309 731.727C223.917 731.727 223.579 731.594 223.295 731.327C223.016 731.06 222.877 730.739 222.877 730.364C222.877 729.989 223.016 729.668 223.295 729.401C223.579 729.134 223.917 729 224.309 729C224.701 729 225.036 729.134 225.315 729.401C225.599 729.668 225.741 729.989 225.741 730.364C225.741 730.739 225.599 731.06 225.315 731.327C225.036 731.594 224.701 731.727 224.309 731.727ZM230.993 739.125V747H228.982V733.909H230.925V735.955H231.095C231.402 735.29 231.868 734.756 232.493 734.352C233.118 733.943 233.925 733.739 234.913 733.739C235.8 733.739 236.575 733.92 237.24 734.284C237.905 734.642 238.422 735.188 238.791 735.92C239.161 736.648 239.345 737.568 239.345 738.682V747H237.334V738.818C237.334 737.79 237.067 736.989 236.533 736.415C235.999 735.835 235.266 735.545 234.334 735.545C233.692 735.545 233.118 735.685 232.612 735.963C232.112 736.241 231.717 736.648 231.428 737.182C231.138 737.716 230.993 738.364 230.993 739.125Z" fill="black"/>
<path d="M104 805H100.409V793.364H104.159C105.288 793.364 106.254 793.597 107.057 794.062C107.86 794.525 108.475 795.189 108.903 796.057C109.331 796.92 109.545 797.955 109.545 799.159C109.545 800.371 109.33 801.415 108.898 802.29C108.466 803.161 107.837 803.831 107.011 804.301C106.186 804.767 105.182 805 104 805ZM101.818 803.75H103.909C104.871 803.75 105.669 803.564 106.301 803.193C106.934 802.822 107.405 802.294 107.716 801.608C108.027 800.922 108.182 800.106 108.182 799.159C108.182 798.22 108.028 797.411 107.722 796.733C107.415 796.051 106.956 795.528 106.347 795.165C105.737 794.797 104.977 794.614 104.068 794.614H101.818V803.75ZM115.273 805.182C114.485 805.182 113.794 804.994 113.199 804.619C112.608 804.244 112.146 803.72 111.812 803.045C111.483 802.371 111.318 801.583 111.318 800.682C111.318 799.773 111.483 798.979 111.812 798.301C112.146 797.623 112.608 797.097 113.199 796.722C113.794 796.347 114.485 796.159 115.273 796.159C116.061 796.159 116.75 796.347 117.341 796.722C117.936 797.097 118.398 797.623 118.727 798.301C119.061 798.979 119.227 799.773 119.227 800.682C119.227 801.583 119.061 802.371 118.727 803.045C118.398 803.72 117.936 804.244 117.341 804.619C116.75 804.994 116.061 805.182 115.273 805.182ZM115.273 803.977C115.871 803.977 116.364 803.824 116.75 803.517C117.136 803.21 117.422 802.807 117.608 802.307C117.794 801.807 117.886 801.265 117.886 800.682C117.886 800.098 117.794 799.555 117.608 799.051C117.422 798.547 117.136 798.14 116.75 797.83C116.364 797.519 115.871 797.364 115.273 797.364C114.674 797.364 114.182 797.519 113.795 797.83C113.409 798.14 113.123 798.547 112.938 799.051C112.752 799.555 112.659 800.098 112.659 800.682C112.659 801.265 112.752 801.807 112.938 802.307C113.123 802.807 113.409 803.21 113.795 803.517C114.182 803.824 114.674 803.977 115.273 803.977ZM122.615 799.75V805H121.274V796.273H122.57V797.636H122.683C122.888 797.193 123.198 796.837 123.615 796.568C124.032 796.295 124.57 796.159 125.229 796.159C125.82 796.159 126.337 796.28 126.78 796.523C127.223 796.761 127.568 797.125 127.814 797.614C128.06 798.098 128.183 798.712 128.183 799.455V805H126.842V799.545C126.842 798.86 126.664 798.326 126.308 797.943C125.952 797.557 125.464 797.364 124.842 797.364C124.414 797.364 124.032 797.456 123.695 797.642C123.361 797.828 123.098 798.098 122.905 798.455C122.712 798.811 122.615 799.242 122.615 799.75ZM131.815 793.364V794.386C131.815 794.697 131.759 795.028 131.645 795.381C131.535 795.729 131.372 796.068 131.156 796.398C130.944 796.723 130.687 797.008 130.384 797.25L129.656 796.659C129.895 796.318 130.101 795.964 130.276 795.597C130.454 795.225 130.543 794.83 130.543 794.409V793.364H131.815ZM137.616 796.273V797.409H133.094V796.273H137.616ZM134.412 794.182H135.753V802.5C135.753 802.879 135.808 803.163 135.918 803.352C136.031 803.538 136.175 803.663 136.349 803.727C136.527 803.788 136.715 803.818 136.912 803.818C137.06 803.818 137.181 803.811 137.276 803.795C137.37 803.777 137.446 803.761 137.503 803.75L137.776 804.955C137.685 804.989 137.558 805.023 137.395 805.057C137.232 805.095 137.026 805.114 136.776 805.114C136.397 805.114 136.026 805.032 135.662 804.869C135.302 804.706 135.003 804.458 134.764 804.125C134.529 803.792 134.412 803.371 134.412 802.864V794.182ZM145.474 799.75V805H144.134V793.364H145.474V797.636H145.588C145.793 797.186 146.099 796.828 146.509 796.562C146.921 796.294 147.471 796.159 148.156 796.159C148.751 796.159 149.272 796.278 149.719 796.517C150.166 796.752 150.512 797.114 150.759 797.602C151.009 798.087 151.134 798.705 151.134 799.455V805H149.793V799.545C149.793 798.852 149.613 798.316 149.253 797.938C148.897 797.555 148.402 797.364 147.77 797.364C147.33 797.364 146.937 797.456 146.588 797.642C146.243 797.828 145.971 798.098 145.77 798.455C145.573 798.811 145.474 799.242 145.474 799.75ZM156.155 805.205C155.602 805.205 155.1 805.1 154.649 804.892C154.198 804.68 153.84 804.375 153.575 803.977C153.31 803.576 153.178 803.091 153.178 802.523C153.178 802.023 153.276 801.617 153.473 801.307C153.67 800.992 153.933 800.746 154.263 800.568C154.592 800.39 154.956 800.258 155.354 800.17C155.755 800.08 156.159 800.008 156.564 799.955C157.094 799.886 157.524 799.835 157.854 799.801C158.187 799.763 158.429 799.701 158.581 799.614C158.736 799.527 158.814 799.375 158.814 799.159V799.114C158.814 798.553 158.661 798.117 158.354 797.807C158.051 797.496 157.59 797.341 156.973 797.341C156.333 797.341 155.831 797.481 155.467 797.761C155.104 798.042 154.848 798.341 154.7 798.659L153.428 798.205C153.655 797.674 153.958 797.261 154.337 796.966C154.719 796.667 155.136 796.458 155.587 796.341C156.041 796.22 156.488 796.159 156.928 796.159C157.208 796.159 157.53 796.193 157.893 796.261C158.261 796.326 158.615 796.46 158.956 796.665C159.301 796.869 159.587 797.178 159.814 797.591C160.041 798.004 160.155 798.557 160.155 799.25V805H158.814V803.818H158.746C158.655 804.008 158.503 804.21 158.291 804.426C158.079 804.642 157.797 804.826 157.445 804.977C157.092 805.129 156.662 805.205 156.155 805.205ZM156.359 804C156.89 804 157.337 803.896 157.7 803.688C158.068 803.479 158.344 803.21 158.53 802.881C158.719 802.551 158.814 802.205 158.814 801.841V800.614C158.757 800.682 158.632 800.744 158.439 800.801C158.25 800.854 158.03 800.902 157.78 800.943C157.534 800.981 157.293 801.015 157.058 801.045C156.827 801.072 156.64 801.095 156.496 801.114C156.147 801.159 155.821 801.233 155.518 801.335C155.219 801.434 154.977 801.583 154.791 801.784C154.609 801.981 154.518 802.25 154.518 802.591C154.518 803.057 154.691 803.409 155.036 803.648C155.384 803.883 155.825 804 156.359 804ZM169.426 796.273L166.199 805H164.835L161.608 796.273H163.062L165.472 803.227H165.562L167.972 796.273H169.426ZM174.543 805.182C173.702 805.182 172.976 804.996 172.366 804.625C171.76 804.25 171.293 803.727 170.963 803.057C170.637 802.383 170.474 801.598 170.474 800.705C170.474 799.811 170.637 799.023 170.963 798.341C171.293 797.655 171.751 797.121 172.338 796.739C172.929 796.352 173.618 796.159 174.406 796.159C174.861 796.159 175.31 796.235 175.753 796.386C176.196 796.538 176.599 796.784 176.963 797.125C177.327 797.462 177.616 797.909 177.832 798.466C178.048 799.023 178.156 799.708 178.156 800.523V801.091H171.429V799.932H176.793C176.793 799.439 176.694 799 176.497 798.614C176.304 798.227 176.027 797.922 175.668 797.699C175.312 797.475 174.891 797.364 174.406 797.364C173.872 797.364 173.41 797.496 173.02 797.761C172.634 798.023 172.336 798.364 172.128 798.784C171.92 799.205 171.815 799.655 171.815 800.136V800.909C171.815 801.568 171.929 802.127 172.156 802.585C172.387 803.04 172.707 803.386 173.116 803.625C173.526 803.86 174.001 803.977 174.543 803.977C174.895 803.977 175.213 803.928 175.497 803.83C175.785 803.727 176.033 803.576 176.241 803.375C176.45 803.17 176.611 802.917 176.724 802.614L178.02 802.977C177.884 803.417 177.654 803.803 177.332 804.136C177.01 804.466 176.613 804.723 176.139 804.909C175.666 805.091 175.134 805.182 174.543 805.182ZM187.264 805.205C186.711 805.205 186.209 805.1 185.759 804.892C185.308 804.68 184.95 804.375 184.685 803.977C184.42 803.576 184.287 803.091 184.287 802.523C184.287 802.023 184.385 801.617 184.582 801.307C184.779 800.992 185.043 800.746 185.372 800.568C185.702 800.39 186.065 800.258 186.463 800.17C186.865 800.08 187.268 800.008 187.673 799.955C188.204 799.886 188.634 799.835 188.963 799.801C189.296 799.763 189.539 799.701 189.69 799.614C189.846 799.527 189.923 799.375 189.923 799.159V799.114C189.923 798.553 189.77 798.117 189.463 797.807C189.16 797.496 188.7 797.341 188.082 797.341C187.442 797.341 186.94 797.481 186.577 797.761C186.213 798.042 185.957 798.341 185.81 798.659L184.537 798.205C184.764 797.674 185.067 797.261 185.446 796.966C185.829 796.667 186.245 796.458 186.696 796.341C187.151 796.22 187.598 796.159 188.037 796.159C188.317 796.159 188.639 796.193 189.003 796.261C189.37 796.326 189.724 796.46 190.065 796.665C190.41 796.869 190.696 797.178 190.923 797.591C191.151 798.004 191.264 798.557 191.264 799.25V805H189.923V803.818H189.855C189.764 804.008 189.613 804.21 189.401 804.426C189.188 804.642 188.906 804.826 188.554 804.977C188.202 805.129 187.772 805.205 187.264 805.205ZM187.469 804C187.999 804 188.446 803.896 188.81 803.688C189.177 803.479 189.454 803.21 189.639 802.881C189.829 802.551 189.923 802.205 189.923 801.841V800.614C189.866 800.682 189.741 800.744 189.548 800.801C189.359 800.854 189.139 800.902 188.889 800.943C188.643 800.981 188.402 801.015 188.168 801.045C187.937 801.072 187.749 801.095 187.605 801.114C187.257 801.159 186.931 801.233 186.628 801.335C186.329 801.434 186.086 801.583 185.901 801.784C185.719 801.981 185.628 802.25 185.628 802.591C185.628 803.057 185.8 803.409 186.145 803.648C186.493 803.883 186.935 804 187.469 804ZM195.053 799.75V805H193.712V796.273H195.007V797.636H195.121C195.325 797.193 195.636 796.837 196.053 796.568C196.469 796.295 197.007 796.159 197.666 796.159C198.257 796.159 198.774 796.28 199.217 796.523C199.661 796.761 200.005 797.125 200.251 797.614C200.498 798.098 200.621 798.712 200.621 799.455V805H199.28V799.545C199.28 798.86 199.102 798.326 198.746 797.943C198.39 797.557 197.901 797.364 197.28 797.364C196.852 797.364 196.469 797.456 196.132 797.642C195.799 797.828 195.536 798.098 195.342 798.455C195.149 798.811 195.053 799.242 195.053 799.75ZM210.139 805.205C209.586 805.205 209.084 805.1 208.634 804.892C208.183 804.68 207.825 804.375 207.56 803.977C207.295 803.576 207.162 803.091 207.162 802.523C207.162 802.023 207.26 801.617 207.457 801.307C207.654 800.992 207.918 800.746 208.247 800.568C208.577 800.39 208.94 800.258 209.338 800.17C209.74 800.08 210.143 800.008 210.548 799.955C211.079 799.886 211.509 799.835 211.838 799.801C212.171 799.763 212.414 799.701 212.565 799.614C212.721 799.527 212.798 799.375 212.798 799.159V799.114C212.798 798.553 212.645 798.117 212.338 797.807C212.035 797.496 211.575 797.341 210.957 797.341C210.317 797.341 209.815 797.481 209.452 797.761C209.088 798.042 208.832 798.341 208.685 798.659L207.412 798.205C207.639 797.674 207.942 797.261 208.321 796.966C208.704 796.667 209.12 796.458 209.571 796.341C210.026 796.22 210.473 796.159 210.912 796.159C211.192 796.159 211.514 796.193 211.878 796.261C212.245 796.326 212.599 796.46 212.94 796.665C213.285 796.869 213.571 797.178 213.798 797.591C214.026 798.004 214.139 798.557 214.139 799.25V805H212.798V803.818H212.73C212.639 804.008 212.488 804.21 212.276 804.426C212.063 804.642 211.781 804.826 211.429 804.977C211.077 805.129 210.647 805.205 210.139 805.205ZM210.344 804C210.874 804 211.321 803.896 211.685 803.688C212.052 803.479 212.329 803.21 212.514 802.881C212.704 802.551 212.798 802.205 212.798 801.841V800.614C212.741 800.682 212.616 800.744 212.423 800.801C212.234 800.854 212.014 800.902 211.764 800.943C211.518 800.981 211.277 801.015 211.043 801.045C210.812 801.072 210.624 801.095 210.48 801.114C210.132 801.159 209.806 801.233 209.503 801.335C209.204 801.434 208.961 801.583 208.776 801.784C208.594 801.981 208.503 802.25 208.503 802.591C208.503 803.057 208.675 803.409 209.02 803.648C209.368 803.883 209.81 804 210.344 804ZM220.132 805.182C219.314 805.182 218.609 804.989 218.018 804.602C217.428 804.216 216.973 803.684 216.655 803.006C216.337 802.328 216.178 801.553 216.178 800.682C216.178 799.795 216.34 799.013 216.666 798.335C216.996 797.653 217.454 797.121 218.041 796.739C218.632 796.352 219.321 796.159 220.109 796.159C220.723 796.159 221.276 796.273 221.768 796.5C222.261 796.727 222.664 797.045 222.979 797.455C223.293 797.864 223.488 798.341 223.564 798.886H222.223C222.121 798.489 221.893 798.136 221.541 797.83C221.193 797.519 220.723 797.364 220.132 797.364C219.609 797.364 219.151 797.5 218.757 797.773C218.367 798.042 218.062 798.422 217.842 798.915C217.626 799.403 217.518 799.977 217.518 800.636C217.518 801.311 217.625 801.898 217.837 802.398C218.053 802.898 218.356 803.286 218.746 803.562C219.14 803.839 219.602 803.977 220.132 803.977C220.481 803.977 220.797 803.917 221.081 803.795C221.365 803.674 221.606 803.5 221.803 803.273C222 803.045 222.14 802.773 222.223 802.455H223.564C223.488 802.97 223.301 803.434 223.001 803.847C222.706 804.256 222.314 804.581 221.825 804.824C221.34 805.062 220.776 805.182 220.132 805.182ZM229.07 805.182C228.251 805.182 227.547 804.989 226.956 804.602C226.365 804.216 225.911 803.684 225.592 803.006C225.274 802.328 225.115 801.553 225.115 800.682C225.115 799.795 225.278 799.013 225.604 798.335C225.933 797.653 226.392 797.121 226.979 796.739C227.57 796.352 228.259 796.159 229.047 796.159C229.661 796.159 230.214 796.273 230.706 796.5C231.198 796.727 231.602 797.045 231.916 797.455C232.231 797.864 232.426 798.341 232.501 798.886H231.161C231.058 798.489 230.831 798.136 230.479 797.83C230.13 797.519 229.661 797.364 229.07 797.364C228.547 797.364 228.089 797.5 227.695 797.773C227.304 798.042 227 798.422 226.78 798.915C226.564 799.403 226.456 799.977 226.456 800.636C226.456 801.311 226.562 801.898 226.774 802.398C226.99 802.898 227.293 803.286 227.683 803.562C228.077 803.839 228.539 803.977 229.07 803.977C229.418 803.977 229.734 803.917 230.018 803.795C230.303 803.674 230.543 803.5 230.74 803.273C230.937 803.045 231.077 802.773 231.161 802.455H232.501C232.426 802.97 232.238 803.434 231.939 803.847C231.643 804.256 231.251 804.581 230.763 804.824C230.278 805.062 229.714 805.182 229.07 805.182ZM238.007 805.182C237.219 805.182 236.528 804.994 235.933 804.619C235.342 804.244 234.88 803.72 234.547 803.045C234.217 802.371 234.053 801.583 234.053 800.682C234.053 799.773 234.217 798.979 234.547 798.301C234.88 797.623 235.342 797.097 235.933 796.722C236.528 796.347 237.219 796.159 238.007 796.159C238.795 796.159 239.484 796.347 240.075 796.722C240.67 797.097 241.132 797.623 241.462 798.301C241.795 798.979 241.962 799.773 241.962 800.682C241.962 801.583 241.795 802.371 241.462 803.045C241.132 803.72 240.67 804.244 240.075 804.619C239.484 804.994 238.795 805.182 238.007 805.182ZM238.007 803.977C238.606 803.977 239.098 803.824 239.484 803.517C239.871 803.21 240.157 802.807 240.342 802.307C240.528 801.807 240.621 801.265 240.621 800.682C240.621 800.098 240.528 799.555 240.342 799.051C240.157 798.547 239.871 798.14 239.484 797.83C239.098 797.519 238.606 797.364 238.007 797.364C237.409 797.364 236.916 797.519 236.53 797.83C236.143 798.14 235.857 798.547 235.672 799.051C235.486 799.555 235.393 800.098 235.393 800.682C235.393 801.265 235.486 801.807 235.672 802.307C235.857 802.807 236.143 803.21 236.53 803.517C236.916 803.824 237.409 803.977 238.007 803.977ZM249.509 801.432V796.273H250.849V805H249.509V803.523H249.418C249.213 803.966 248.895 804.343 248.463 804.653C248.031 804.96 247.486 805.114 246.827 805.114C246.281 805.114 245.796 804.994 245.372 804.756C244.948 804.513 244.615 804.15 244.372 803.665C244.13 803.176 244.009 802.561 244.009 801.818V796.273H245.349V801.727C245.349 802.364 245.527 802.871 245.884 803.25C246.243 803.629 246.702 803.818 247.259 803.818C247.592 803.818 247.931 803.733 248.276 803.562C248.624 803.392 248.916 803.131 249.151 802.778C249.389 802.426 249.509 801.977 249.509 801.432ZM254.646 799.75V805H253.305V796.273H254.601V797.636H254.714C254.919 797.193 255.23 796.837 255.646 796.568C256.063 796.295 256.601 796.159 257.26 796.159C257.851 796.159 258.368 796.28 258.811 796.523C259.254 796.761 259.599 797.125 259.845 797.614C260.091 798.098 260.214 798.712 260.214 799.455V805H258.874V799.545C258.874 798.86 258.696 798.326 258.339 797.943C257.983 797.557 257.495 797.364 256.874 797.364C256.446 797.364 256.063 797.456 255.726 797.642C255.393 797.828 255.129 798.098 254.936 798.455C254.743 798.811 254.646 799.242 254.646 799.75ZM266.46 796.273V797.409H261.938V796.273H266.46ZM263.256 794.182H264.597V802.5C264.597 802.879 264.652 803.163 264.761 803.352C264.875 803.538 265.019 803.663 265.193 803.727C265.371 803.788 265.559 803.818 265.756 803.818C265.903 803.818 266.025 803.811 266.119 803.795C266.214 803.777 266.29 803.761 266.347 803.75L266.619 804.955C266.528 804.989 266.402 805.023 266.239 805.057C266.076 805.095 265.869 805.114 265.619 805.114C265.241 805.114 264.869 805.032 264.506 804.869C264.146 804.706 263.847 804.458 263.608 804.125C263.373 803.792 263.256 803.371 263.256 802.864V794.182ZM270.227 801.727V801.659C270.235 800.936 270.311 800.36 270.455 799.932C270.598 799.504 270.803 799.157 271.068 798.892C271.333 798.627 271.652 798.383 272.023 798.159C272.246 798.023 272.447 797.862 272.625 797.676C272.803 797.487 272.943 797.269 273.045 797.023C273.152 796.777 273.205 796.504 273.205 796.205C273.205 795.833 273.117 795.511 272.943 795.239C272.769 794.966 272.536 794.756 272.244 794.608C271.953 794.46 271.629 794.386 271.273 794.386C270.962 794.386 270.663 794.451 270.375 794.58C270.087 794.708 269.847 794.911 269.653 795.188C269.46 795.464 269.348 795.826 269.318 796.273H267.886C267.917 795.629 268.083 795.078 268.386 794.619C268.693 794.161 269.097 793.811 269.597 793.568C270.1 793.326 270.659 793.205 271.273 793.205C271.939 793.205 272.519 793.337 273.011 793.602C273.508 793.867 273.89 794.231 274.159 794.693C274.432 795.155 274.568 795.682 274.568 796.273C274.568 796.689 274.504 797.066 274.375 797.403C274.25 797.741 274.068 798.042 273.83 798.307C273.595 798.572 273.311 798.807 272.977 799.011C272.644 799.22 272.377 799.439 272.176 799.67C271.975 799.898 271.83 800.169 271.739 800.483C271.648 800.797 271.598 801.189 271.591 801.659V801.727H270.227ZM270.955 805.091C270.674 805.091 270.434 804.991 270.233 804.79C270.032 804.589 269.932 804.348 269.932 804.068C269.932 803.788 270.032 803.547 270.233 803.347C270.434 803.146 270.674 803.045 270.955 803.045C271.235 803.045 271.475 803.146 271.676 803.347C271.877 803.547 271.977 803.788 271.977 804.068C271.977 804.254 271.93 804.424 271.835 804.58C271.744 804.735 271.621 804.86 271.466 804.955C271.314 805.045 271.144 805.091 270.955 805.091ZM287.632 796.273C287.564 795.697 287.287 795.25 286.803 794.932C286.318 794.614 285.723 794.455 285.018 794.455C284.503 794.455 284.053 794.538 283.666 794.705C283.284 794.871 282.984 795.1 282.768 795.392C282.556 795.684 282.45 796.015 282.45 796.386C282.45 796.697 282.524 796.964 282.672 797.188C282.823 797.407 283.017 797.591 283.251 797.739C283.486 797.883 283.732 798.002 283.99 798.097C284.248 798.187 284.484 798.261 284.7 798.318L285.882 798.636C286.185 798.716 286.522 798.826 286.893 798.966C287.268 799.106 287.626 799.297 287.967 799.54C288.312 799.778 288.596 800.085 288.82 800.46C289.043 800.835 289.155 801.295 289.155 801.841C289.155 802.47 288.99 803.038 288.661 803.545C288.335 804.053 287.857 804.456 287.229 804.756C286.604 805.055 285.844 805.205 284.95 805.205C284.117 805.205 283.395 805.07 282.786 804.801C282.179 804.532 281.702 804.157 281.354 803.676C281.009 803.195 280.814 802.636 280.768 802H282.223C282.261 802.439 282.409 802.803 282.666 803.091C282.928 803.375 283.257 803.587 283.655 803.727C284.056 803.864 284.488 803.932 284.95 803.932C285.488 803.932 285.971 803.845 286.399 803.67C286.827 803.492 287.166 803.246 287.416 802.932C287.666 802.614 287.791 802.242 287.791 801.818C287.791 801.432 287.683 801.117 287.467 800.875C287.251 800.633 286.967 800.436 286.615 800.284C286.263 800.133 285.882 800 285.473 799.886L284.041 799.477C283.132 799.216 282.412 798.843 281.882 798.358C281.352 797.873 281.087 797.239 281.087 796.455C281.087 795.803 281.263 795.235 281.615 794.75C281.971 794.261 282.448 793.883 283.047 793.614C283.649 793.341 284.321 793.205 285.064 793.205C285.814 793.205 286.481 793.339 287.064 793.608C287.647 793.873 288.109 794.237 288.45 794.699C288.795 795.161 288.977 795.686 288.996 796.273H287.632ZM291.29 805V796.273H292.631V805H291.29ZM291.972 794.818C291.71 794.818 291.485 794.729 291.295 794.551C291.11 794.373 291.017 794.159 291.017 793.909C291.017 793.659 291.11 793.445 291.295 793.267C291.485 793.089 291.71 793 291.972 793C292.233 793 292.456 793.089 292.642 793.267C292.831 793.445 292.926 793.659 292.926 793.909C292.926 794.159 292.831 794.373 292.642 794.551C292.456 794.729 292.233 794.818 291.972 794.818ZM298.609 808.455C297.962 808.455 297.405 808.371 296.939 808.205C296.473 808.042 296.085 807.826 295.774 807.557C295.467 807.292 295.223 807.008 295.041 806.705L296.109 805.955C296.231 806.114 296.384 806.295 296.57 806.5C296.755 806.708 297.009 806.888 297.331 807.04C297.657 807.195 298.083 807.273 298.609 807.273C299.314 807.273 299.895 807.102 300.354 806.761C300.812 806.42 301.041 805.886 301.041 805.159V803.386H300.928C300.829 803.545 300.689 803.742 300.507 803.977C300.329 804.208 300.071 804.415 299.734 804.597C299.401 804.775 298.95 804.864 298.382 804.864C297.678 804.864 297.045 804.697 296.484 804.364C295.928 804.03 295.486 803.545 295.161 802.909C294.839 802.273 294.678 801.5 294.678 800.591C294.678 799.697 294.835 798.919 295.149 798.256C295.464 797.589 295.901 797.074 296.462 796.71C297.022 796.343 297.67 796.159 298.405 796.159C298.973 796.159 299.424 796.254 299.757 796.443C300.094 796.629 300.352 796.841 300.53 797.08C300.712 797.314 300.852 797.508 300.95 797.659H301.087V796.273H302.382V805.25C302.382 806 302.212 806.61 301.871 807.08C301.534 807.553 301.079 807.9 300.507 808.119C299.939 808.343 299.306 808.455 298.609 808.455ZM298.564 803.659C299.102 803.659 299.556 803.536 299.928 803.29C300.299 803.044 300.581 802.689 300.774 802.227C300.967 801.765 301.064 801.212 301.064 800.568C301.064 799.939 300.969 799.384 300.78 798.903C300.59 798.422 300.31 798.045 299.939 797.773C299.568 797.5 299.109 797.364 298.564 797.364C297.996 797.364 297.522 797.508 297.143 797.795C296.768 798.083 296.486 798.47 296.297 798.955C296.111 799.439 296.018 799.977 296.018 800.568C296.018 801.174 296.113 801.71 296.303 802.176C296.496 802.638 296.78 803.002 297.155 803.267C297.534 803.528 298.003 803.659 298.564 803.659ZM306.178 799.75V805H304.837V796.273H306.132V797.636H306.246C306.45 797.193 306.761 796.837 307.178 796.568C307.594 796.295 308.132 796.159 308.791 796.159C309.382 796.159 309.899 796.28 310.342 796.523C310.786 796.761 311.13 797.125 311.376 797.614C311.623 798.098 311.746 798.712 311.746 799.455V805H310.405V799.545C310.405 798.86 310.227 798.326 309.871 797.943C309.515 797.557 309.026 797.364 308.405 797.364C307.977 797.364 307.594 797.456 307.257 797.642C306.924 797.828 306.661 798.098 306.467 798.455C306.274 798.811 306.178 799.242 306.178 799.75ZM324.196 801.432V796.273H325.537V805H324.196V803.523H324.105C323.901 803.966 323.582 804.343 323.151 804.653C322.719 804.96 322.173 805.114 321.514 805.114C320.969 805.114 320.484 804.994 320.06 804.756C319.635 804.513 319.302 804.15 319.06 803.665C318.817 803.176 318.696 802.561 318.696 801.818V796.273H320.037V801.727C320.037 802.364 320.215 802.871 320.571 803.25C320.931 803.629 321.389 803.818 321.946 803.818C322.279 803.818 322.618 803.733 322.963 803.562C323.312 803.392 323.603 803.131 323.838 802.778C324.077 802.426 324.196 801.977 324.196 801.432ZM327.993 808.273V796.273H329.288V797.659H329.447C329.546 797.508 329.682 797.314 329.857 797.08C330.035 796.841 330.288 796.629 330.618 796.443C330.951 796.254 331.402 796.159 331.97 796.159C332.705 796.159 333.353 796.343 333.913 796.71C334.474 797.078 334.911 797.598 335.226 798.273C335.54 798.947 335.697 799.742 335.697 800.659C335.697 801.583 335.54 802.384 335.226 803.062C334.911 803.737 334.476 804.259 333.919 804.631C333.362 804.998 332.72 805.182 331.993 805.182C331.432 805.182 330.983 805.089 330.646 804.903C330.309 804.714 330.05 804.5 329.868 804.261C329.686 804.019 329.546 803.818 329.447 803.659H329.334V808.273H327.993ZM329.311 800.636C329.311 801.295 329.408 801.877 329.601 802.381C329.794 802.881 330.076 803.273 330.447 803.557C330.819 803.837 331.273 803.977 331.811 803.977C332.372 803.977 332.839 803.83 333.214 803.534C333.593 803.235 333.877 802.833 334.067 802.33C334.26 801.822 334.357 801.258 334.357 800.636C334.357 800.023 334.262 799.47 334.072 798.977C333.887 798.481 333.605 798.089 333.226 797.801C332.851 797.509 332.379 797.364 331.811 797.364C331.266 797.364 330.807 797.502 330.436 797.778C330.065 798.051 329.785 798.434 329.595 798.926C329.406 799.415 329.311 799.985 329.311 800.636Z" fill="black"/>
<path d="M0 0H430V336C409.5 274 210.5 274 210.5 274V274C210.5 274 59 274 0 336V0Z" fill="#D9D9D9"/>
<g filter="url(#filter0_d_29_377)">
<ellipse cx="215" cy="264.5" rx="82" ry="73.5" fill="#D9D9D9"/>
<path d="M187.168 269V251.098H189.336V267.077H197.657V269H187.168ZM206.189 269.28C204.977 269.28 203.913 268.991 202.998 268.414C202.089 267.837 201.378 267.03 200.865 265.993C200.358 264.956 200.105 263.744 200.105 262.357C200.105 260.958 200.358 259.737 200.865 258.694C201.378 257.651 202.089 256.841 202.998 256.264C203.913 255.687 204.977 255.399 206.189 255.399C207.401 255.399 208.462 255.687 209.371 256.264C210.286 256.841 210.997 257.651 211.503 258.694C212.016 259.737 212.273 260.958 212.273 262.357C212.273 263.744 212.016 264.956 211.503 265.993C210.997 267.03 210.286 267.837 209.371 268.414C208.462 268.991 207.401 269.28 206.189 269.28ZM206.189 267.427C207.11 267.427 207.867 267.191 208.462 266.719C209.056 266.247 209.496 265.626 209.781 264.857C210.067 264.087 210.21 263.254 210.21 262.357C210.21 261.459 210.067 260.623 209.781 259.848C209.496 259.073 209.056 258.446 208.462 257.969C207.867 257.491 207.11 257.252 206.189 257.252C205.268 257.252 204.51 257.491 203.916 257.969C203.322 258.446 202.882 259.073 202.596 259.848C202.311 260.623 202.168 261.459 202.168 262.357C202.168 263.254 202.311 264.087 202.596 264.857C202.882 265.626 203.322 266.247 203.916 266.719C204.51 267.191 205.268 267.427 206.189 267.427ZM220.841 274.315C219.845 274.315 218.988 274.186 218.271 273.93C217.555 273.679 216.957 273.347 216.479 272.934C216.007 272.526 215.632 272.089 215.352 271.622L216.995 270.469C217.182 270.713 217.418 270.993 217.703 271.308C217.989 271.628 218.379 271.905 218.875 272.138C219.376 272.377 220.031 272.497 220.841 272.497C221.925 272.497 222.82 272.234 223.525 271.71C224.23 271.185 224.583 270.364 224.583 269.245V266.517H224.408C224.256 266.762 224.041 267.065 223.761 267.427C223.487 267.782 223.091 268.1 222.572 268.379C222.059 268.653 221.366 268.79 220.492 268.79C219.408 268.79 218.435 268.534 217.572 268.021C216.715 267.508 216.037 266.762 215.535 265.783C215.04 264.804 214.792 263.615 214.792 262.217C214.792 260.841 215.034 259.644 215.518 258.624C216.002 257.598 216.675 256.806 217.537 256.247C218.4 255.681 219.396 255.399 220.527 255.399C221.401 255.399 222.094 255.544 222.607 255.836C223.126 256.121 223.522 256.448 223.796 256.815C224.076 257.176 224.291 257.473 224.443 257.706H224.653V255.573H226.646V269.385C226.646 270.538 226.383 271.477 225.859 272.199C225.34 272.928 224.641 273.461 223.761 273.799C222.887 274.143 221.914 274.315 220.841 274.315ZM220.771 266.937C221.599 266.937 222.298 266.748 222.869 266.369C223.44 265.99 223.875 265.445 224.172 264.734C224.469 264.023 224.618 263.172 224.618 262.182C224.618 261.214 224.472 260.361 224.181 259.621C223.889 258.881 223.458 258.301 222.887 257.881C222.316 257.462 221.611 257.252 220.771 257.252C219.897 257.252 219.169 257.473 218.586 257.916C218.009 258.359 217.575 258.953 217.284 259.699C216.998 260.445 216.855 261.273 216.855 262.182C216.855 263.114 217.001 263.939 217.292 264.656C217.59 265.367 218.027 265.926 218.604 266.334C219.186 266.736 219.909 266.937 220.771 266.937ZM235.876 269.28C234.664 269.28 233.601 268.991 232.686 268.414C231.777 267.837 231.066 267.03 230.553 265.993C230.046 264.956 229.792 263.744 229.792 262.357C229.792 260.958 230.046 259.737 230.553 258.694C231.066 257.651 231.777 256.841 232.686 256.264C233.601 255.687 234.664 255.399 235.876 255.399C237.088 255.399 238.149 255.687 239.058 256.264C239.973 256.841 240.684 257.651 241.191 258.694C241.704 259.737 241.96 260.958 241.96 262.357C241.96 263.744 241.704 264.956 241.191 265.993C240.684 267.03 239.973 267.837 239.058 268.414C238.149 268.991 237.088 269.28 235.876 269.28ZM235.876 267.427C236.797 267.427 237.555 267.191 238.149 266.719C238.743 266.247 239.183 265.626 239.469 264.857C239.755 264.087 239.897 263.254 239.897 262.357C239.897 261.459 239.755 260.623 239.469 259.848C239.183 259.073 238.743 258.446 238.149 257.969C237.555 257.491 236.797 257.252 235.876 257.252C234.956 257.252 234.198 257.491 233.604 257.969C233.009 258.446 232.569 259.073 232.284 259.848C231.998 260.623 231.855 261.459 231.855 262.357C231.855 263.254 231.998 264.087 232.284 264.857C232.569 265.626 233.009 266.247 233.604 266.719C234.198 267.191 234.956 267.427 235.876 267.427Z" fill="black"/>
</g>
<defs>
<filter id="filter0_d_29_377" x="129" y="191" width="172" height="155" filterUnits="userSpaceOnUse" color-interpolation-filters="sRGB">
<feFlood flood-opacity="0" result="BackgroundImageFix"/>
<feColorMatrix in="SourceAlpha" type="matrix" values="0 0 0 0 0 0 0 0 0 0 0 0 0 0 0 0 0 0 127 0" result="hardAlpha"/>
<feOffset dy="4"/>
<feGaussianBlur stdDeviation="2"/>
<feComposite in2="hardAlpha" operator="out"/>
<feColorMatrix type="matrix" values="0 0 0 0 0 0 0 0 0 0 0 0 0 0 0 0 0 0 0.25 0"/>
<feBlend mode="normal" in2="BackgroundImageFix" result="effect1_dropShadow_29_377"/>
<feBlend mode="normal" in="SourceGraphic" in2="effect1_dropShadow_29_377" result="shape"/>
</filter>
</defs>
</svg>
