<svg width="430" height="932" viewBox="0 0 430 932" fill="none" xmlns="http://www.w3.org/2000/svg">
<rect width="430" height="932" fill="white"/>
<ellipse cx="215" cy="158.5" rx="82" ry="73.5" fill="#D9D9D9"/>
<path d="M187.168 163V145.098H189.336V161.077H197.657V163H187.168ZM206.189 163.28C204.977 163.28 203.913 162.991 202.998 162.414C202.089 161.837 201.378 161.03 200.865 159.993C200.358 158.956 200.105 157.744 200.105 156.357C200.105 154.958 200.358 153.737 200.865 152.694C201.378 151.651 202.089 150.841 202.998 150.264C203.913 149.687 204.977 149.399 206.189 149.399C207.401 149.399 208.462 149.687 209.371 150.264C210.286 150.841 210.997 151.651 211.503 152.694C212.016 153.737 212.273 154.958 212.273 156.357C212.273 157.744 212.016 158.956 211.503 159.993C210.997 161.03 210.286 161.837 209.371 162.414C208.462 162.991 207.401 163.28 206.189 163.28ZM206.189 161.427C207.11 161.427 207.867 161.191 208.462 160.719C209.056 160.247 209.496 159.626 209.781 158.857C210.067 158.087 210.21 157.254 210.21 156.357C210.21 155.459 210.067 154.623 209.781 153.848C209.496 153.073 209.056 152.446 208.462 151.969C207.867 151.491 207.11 151.252 206.189 151.252C205.268 151.252 204.51 151.491 203.916 151.969C203.322 152.446 202.882 153.073 202.596 153.848C202.311 154.623 202.168 155.459 202.168 156.357C202.168 157.254 202.311 158.087 202.596 158.857C202.882 159.626 203.322 160.247 203.916 160.719C204.51 161.191 205.268 161.427 206.189 161.427ZM220.841 168.315C219.845 168.315 218.988 168.186 218.271 167.93C217.555 167.679 216.957 167.347 216.479 166.934C216.007 166.526 215.632 166.089 215.352 165.622L216.995 164.469C217.182 164.713 217.418 164.993 217.703 165.308C217.989 165.628 218.379 165.905 218.875 166.138C219.376 166.377 220.031 166.497 220.841 166.497C221.925 166.497 222.82 166.234 223.525 165.71C224.23 165.185 224.583 164.364 224.583 163.245V160.517H224.408C224.256 160.762 224.041 161.065 223.761 161.427C223.487 161.782 223.091 162.1 222.572 162.379C222.059 162.653 221.366 162.79 220.492 162.79C219.408 162.79 218.435 162.534 217.572 162.021C216.715 161.508 216.037 160.762 215.535 159.783C215.04 158.804 214.792 157.615 214.792 156.217C214.792 154.841 215.034 153.644 215.518 152.624C216.002 151.598 216.675 150.806 217.537 150.247C218.4 149.681 219.396 149.399 220.527 149.399C221.401 149.399 222.094 149.544 222.607 149.836C223.126 150.121 223.522 150.448 223.796 150.815C224.076 151.176 224.291 151.473 224.443 151.706H224.653V149.573H226.646V163.385C226.646 164.538 226.383 165.477 225.859 166.199C225.34 166.928 224.641 167.461 223.761 167.799C222.887 168.143 221.914 168.315 220.841 168.315ZM220.771 160.937C221.599 160.937 222.298 160.748 222.869 160.369C223.44 159.99 223.875 159.445 224.172 158.734C224.469 158.023 224.618 157.172 224.618 156.182C224.618 155.214 224.472 154.361 224.181 153.621C223.889 152.881 223.458 152.301 222.887 151.881C222.316 151.462 221.611 151.252 220.771 151.252C219.897 151.252 219.169 151.473 218.586 151.916C218.009 152.359 217.575 152.953 217.284 153.699C216.998 154.445 216.855 155.273 216.855 156.182C216.855 157.114 217.001 157.939 217.292 158.656C217.59 159.367 218.027 159.926 218.604 160.334C219.186 160.736 219.909 160.937 220.771 160.937ZM235.876 163.28C234.664 163.28 233.601 162.991 232.686 162.414C231.777 161.837 231.066 161.03 230.553 159.993C230.046 158.956 229.792 157.744 229.792 156.357C229.792 154.958 230.046 153.737 230.553 152.694C231.066 151.651 231.777 150.841 232.686 150.264C233.601 149.687 234.664 149.399 235.876 149.399C237.088 149.399 238.149 149.687 239.058 150.264C239.973 150.841 240.684 151.651 241.191 152.694C241.704 153.737 241.96 154.958 241.96 156.357C241.96 157.744 241.704 158.956 241.191 159.993C240.684 161.03 239.973 161.837 239.058 162.414C238.149 162.991 237.088 163.28 235.876 163.28ZM235.876 161.427C236.797 161.427 237.555 161.191 238.149 160.719C238.743 160.247 239.183 159.626 239.469 158.857C239.755 158.087 239.897 157.254 239.897 156.357C239.897 155.459 239.755 154.623 239.469 153.848C239.183 153.073 238.743 152.446 238.149 151.969C237.555 151.491 236.797 151.252 235.876 151.252C234.956 151.252 234.198 151.491 233.604 151.969C233.009 152.446 232.569 153.073 232.284 153.848C231.998 154.623 231.855 155.459 231.855 156.357C231.855 157.254 231.998 158.087 232.284 158.857C232.569 159.626 233.009 160.247 233.604 160.719C234.198 161.191 234.956 161.427 235.876 161.427Z" fill="black"/>
<rect x="34" y="496" width="348" height="52" fill="#D9D9D9"/>
<rect x="34" y="407" width="348" height="52" fill="#D9D9D9"/>
<rect x="34" y="318" width="158" height="52" fill="#D9D9D9"/>
<path d="M60.1678 349V331.098H70.9021V333.021H62.3357V339.07H70.0979V340.993H62.3357V349H60.1678ZM76.2539 340.923V349H74.191V335.573H76.184V337.671H76.3588C76.6735 336.99 77.1514 336.442 77.7924 336.028C78.4334 335.608 79.2609 335.399 80.2749 335.399C81.184 335.399 81.9795 335.585 82.6613 335.958C83.3431 336.325 83.8734 336.885 84.2522 337.636C84.631 338.382 84.8204 339.326 84.8204 340.469V349H82.7574V340.608C82.7574 339.554 82.4835 338.732 81.9358 338.143C81.388 337.549 80.6362 337.252 79.6805 337.252C79.022 337.252 78.4334 337.395 77.9148 337.68C77.402 337.966 76.9969 338.382 76.6997 338.93C76.4025 339.478 76.2539 340.142 76.2539 340.923ZM92.5411 349.315C91.6903 349.315 90.9181 349.154 90.2247 348.834C89.5312 348.508 88.9805 348.038 88.5726 347.427C88.1646 346.809 87.9607 346.063 87.9607 345.189C87.9607 344.42 88.1122 343.796 88.4152 343.318C88.7182 342.834 89.1233 342.456 89.6302 342.182C90.1372 341.908 90.6967 341.704 91.3086 341.57C91.9263 341.43 92.5469 341.319 93.1705 341.238C93.9863 341.133 94.6477 341.054 95.1547 341.002C95.6675 340.943 96.0405 340.847 96.2736 340.713C96.5125 340.579 96.632 340.346 96.632 340.014V339.944C96.632 339.082 96.396 338.411 95.924 337.934C95.4578 337.456 94.7497 337.217 93.7998 337.217C92.815 337.217 92.0428 337.432 91.4834 337.864C90.924 338.295 90.5306 338.755 90.3033 339.245L88.3453 338.545C88.6949 337.73 89.1611 337.094 89.7439 336.64C90.3325 336.179 90.9735 335.859 91.667 335.678C92.3663 335.492 93.0539 335.399 93.7299 335.399C94.1611 335.399 94.6565 335.451 95.2159 335.556C95.7812 335.655 96.326 335.862 96.8505 336.177C97.3808 336.491 97.8208 336.966 98.1705 337.601C98.5201 338.237 98.6949 339.087 98.6949 340.154V349H96.632V347.182H96.5271C96.3872 347.473 96.1541 347.785 95.8278 348.117C95.5015 348.449 95.0673 348.732 94.5254 348.965C93.9834 349.198 93.322 349.315 92.5411 349.315ZM92.8558 347.462C93.6716 347.462 94.3593 347.301 94.9187 346.981C95.484 346.66 95.9094 346.247 96.1949 345.74C96.4863 345.233 96.632 344.699 96.632 344.14V342.252C96.5446 342.357 96.3523 342.453 96.0551 342.54C95.7637 342.622 95.4257 342.695 95.0411 342.759C94.6623 342.817 94.2923 342.869 93.9309 342.916C93.5755 342.957 93.287 342.992 93.0656 343.021C92.5294 343.091 92.0283 343.205 91.5621 343.362C91.1017 343.513 90.7287 343.744 90.4432 344.052C90.1635 344.355 90.0236 344.769 90.0236 345.294C90.0236 346.01 90.2888 346.552 90.8191 346.92C91.3552 347.281 92.0341 347.462 92.8558 347.462ZM102.46 349V335.573H104.453V337.671H104.628C104.908 336.955 105.359 336.398 105.983 336.002C106.606 335.6 107.355 335.399 108.229 335.399C109.115 335.399 109.852 335.6 110.441 336.002C111.035 336.398 111.499 336.955 111.831 337.671H111.971C112.315 336.978 112.83 336.427 113.518 336.019C114.206 335.605 115.03 335.399 115.992 335.399C117.192 335.399 118.174 335.774 118.938 336.526C119.701 337.272 120.083 338.435 120.083 340.014V349H118.02V340.014C118.02 339.023 117.749 338.315 117.207 337.89C116.665 337.464 116.027 337.252 115.292 337.252C114.348 337.252 113.617 337.537 113.098 338.108C112.58 338.674 112.32 339.39 112.32 340.259V349H110.222V339.804C110.222 339.041 109.975 338.426 109.479 337.96C108.984 337.488 108.346 337.252 107.565 337.252C107.029 337.252 106.528 337.395 106.062 337.68C105.601 337.966 105.228 338.362 104.943 338.869C104.663 339.37 104.523 339.95 104.523 340.608V349H102.46ZM129.484 349.28C128.19 349.28 127.074 348.994 126.136 348.423C125.204 347.846 124.484 347.042 123.977 346.01C123.476 344.973 123.225 343.767 123.225 342.392C123.225 341.016 123.476 339.804 123.977 338.755C124.484 337.7 125.189 336.879 126.092 336.29C127.001 335.696 128.062 335.399 129.274 335.399C129.973 335.399 130.664 335.515 131.346 335.748C132.028 335.981 132.648 336.36 133.208 336.885C133.767 337.403 134.213 338.091 134.545 338.948C134.877 339.804 135.043 340.859 135.043 342.112V342.986H124.694V341.203H132.945C132.945 340.445 132.794 339.769 132.491 339.175C132.194 338.58 131.768 338.111 131.215 337.767C130.667 337.424 130.02 337.252 129.274 337.252C128.452 337.252 127.741 337.456 127.141 337.864C126.547 338.266 126.089 338.79 125.769 339.437C125.448 340.084 125.288 340.777 125.288 341.517V342.706C125.288 343.72 125.463 344.58 125.813 345.285C126.168 345.984 126.66 346.517 127.29 346.885C127.919 347.246 128.65 347.427 129.484 347.427C130.026 347.427 130.515 347.351 130.952 347.199C131.395 347.042 131.777 346.809 132.097 346.5C132.418 346.185 132.666 345.795 132.84 345.329L134.833 345.888C134.624 346.564 134.271 347.159 133.776 347.671C133.28 348.178 132.669 348.575 131.94 348.86C131.212 349.14 130.393 349.28 129.484 349.28Z" fill="black"/>
<rect x="224" y="318" width="158" height="52" fill="#D9D9D9"/>
<path d="M250.168 349V331.098H252.336V347.077H260.657V349H250.168ZM265.797 340.923V349H263.734V335.573H265.727V337.671H265.902C266.217 336.99 266.695 336.442 267.336 336.028C267.977 335.608 268.804 335.399 269.818 335.399C270.727 335.399 271.523 335.585 272.205 335.958C272.886 336.325 273.417 336.885 273.795 337.636C274.174 338.382 274.364 339.326 274.364 340.469V349H272.301V340.608C272.301 339.554 272.027 338.732 271.479 338.143C270.931 337.549 270.179 337.252 269.224 337.252C268.565 337.252 267.977 337.395 267.458 337.68C266.945 337.966 266.54 338.382 266.243 338.93C265.946 339.478 265.797 340.142 265.797 340.923ZM282.084 349.315C281.234 349.315 280.461 349.154 279.768 348.834C279.074 348.508 278.524 348.038 278.116 347.427C277.708 346.809 277.504 346.063 277.504 345.189C277.504 344.42 277.655 343.796 277.958 343.318C278.262 342.834 278.667 342.456 279.174 342.182C279.681 341.908 280.24 341.704 280.852 341.57C281.47 341.43 282.09 341.319 282.714 341.238C283.53 341.133 284.191 341.054 284.698 341.002C285.211 340.943 285.584 340.847 285.817 340.713C286.056 340.579 286.175 340.346 286.175 340.014V339.944C286.175 339.082 285.939 338.411 285.467 337.934C285.001 337.456 284.293 337.217 283.343 337.217C282.358 337.217 281.586 337.432 281.027 337.864C280.467 338.295 280.074 338.755 279.847 339.245L277.889 338.545C278.238 337.73 278.704 337.094 279.287 336.64C279.876 336.179 280.517 335.859 281.21 335.678C281.91 335.492 282.597 335.399 283.273 335.399C283.704 335.399 284.2 335.451 284.759 335.556C285.324 335.655 285.869 335.862 286.394 336.177C286.924 336.491 287.364 336.966 287.714 337.601C288.063 338.237 288.238 339.087 288.238 340.154V349H286.175V347.182H286.07C285.931 347.473 285.697 347.785 285.371 348.117C285.045 348.449 284.611 348.732 284.069 348.965C283.527 349.198 282.865 349.315 282.084 349.315ZM282.399 347.462C283.215 347.462 283.903 347.301 284.462 346.981C285.027 346.66 285.453 346.247 285.738 345.74C286.03 345.233 286.175 344.699 286.175 344.14V342.252C286.088 342.357 285.896 342.453 285.598 342.54C285.307 342.622 284.969 342.695 284.584 342.759C284.206 342.817 283.836 342.869 283.474 342.916C283.119 342.957 282.83 342.992 282.609 343.021C282.073 343.091 281.572 343.205 281.105 343.362C280.645 343.513 280.272 343.744 279.986 344.052C279.707 344.355 279.567 344.769 279.567 345.294C279.567 346.01 279.832 346.552 280.362 346.92C280.898 347.281 281.577 347.462 282.399 347.462ZM292.003 349V335.573H293.997V337.671H294.171C294.451 336.955 294.903 336.398 295.526 336.002C296.15 335.6 296.899 335.399 297.773 335.399C298.659 335.399 299.396 335.6 299.984 336.002C300.579 336.398 301.042 336.955 301.374 337.671H301.514C301.858 336.978 302.374 336.427 303.061 336.019C303.749 335.605 304.573 335.399 305.535 335.399C306.735 335.399 307.717 335.774 308.481 336.526C309.244 337.272 309.626 338.435 309.626 340.014V349H307.563V340.014C307.563 339.023 307.292 338.315 306.75 337.89C306.208 337.464 305.57 337.252 304.836 337.252C303.892 337.252 303.16 337.537 302.642 338.108C302.123 338.674 301.864 339.39 301.864 340.259V349H299.766V339.804C299.766 339.041 299.518 338.426 299.023 337.96C298.527 337.488 297.889 337.252 297.108 337.252C296.572 337.252 296.071 337.395 295.605 337.68C295.145 337.966 294.772 338.362 294.486 338.869C294.206 339.37 294.066 339.95 294.066 340.608V349H292.003ZM319.027 349.28C317.733 349.28 316.617 348.994 315.679 348.423C314.747 347.846 314.027 347.042 313.52 346.01C313.019 344.973 312.768 343.767 312.768 342.392C312.768 341.016 313.019 339.804 313.52 338.755C314.027 337.7 314.732 336.879 315.635 336.29C316.545 335.696 317.605 335.399 318.817 335.399C319.517 335.399 320.207 335.515 320.889 335.748C321.571 335.981 322.191 336.36 322.751 336.885C323.31 337.403 323.756 338.091 324.088 338.948C324.42 339.804 324.587 340.859 324.587 342.112V342.986H314.237V341.203H322.489C322.489 340.445 322.337 339.769 322.034 339.175C321.737 338.58 321.311 338.111 320.758 337.767C320.21 337.424 319.563 337.252 318.817 337.252C317.996 337.252 317.285 337.456 316.684 337.864C316.09 338.266 315.633 338.79 315.312 339.437C314.992 340.084 314.831 340.777 314.831 341.517V342.706C314.831 343.72 315.006 344.58 315.356 345.285C315.711 345.984 316.204 346.517 316.833 346.885C317.462 347.246 318.194 347.427 319.027 347.427C319.569 347.427 320.059 347.351 320.496 347.199C320.939 347.042 321.32 346.809 321.641 346.5C321.961 346.185 322.209 345.795 322.384 345.329L324.377 345.888C324.167 346.564 323.814 347.159 323.319 347.671C322.824 348.178 322.212 348.575 321.483 348.86C320.755 349.14 319.936 349.28 319.027 349.28Z" fill="black"/>
<path d="M53.1678 444V426.098H63.972V428.021H55.3357V434.07H63.4126V435.993H55.3357V442.077H64.1119V444H53.1678ZM67.5997 444V430.573H69.5927V432.671H69.7675C70.0472 431.955 70.4988 431.398 71.1224 431.002C71.7459 430.6 72.4948 430.399 73.3689 430.399C74.2547 430.399 74.9918 430.6 75.5804 431.002C76.1748 431.398 76.6381 431.955 76.9703 432.671H77.1101C77.454 431.978 77.9697 431.427 78.6573 431.019C79.345 430.605 80.1696 430.399 81.1311 430.399C82.3316 430.399 83.3135 430.774 84.0769 431.526C84.8403 432.272 85.222 433.435 85.222 435.014V444H83.1591V435.014C83.1591 434.023 82.8881 433.315 82.3462 432.89C81.8042 432.464 81.1661 432.252 80.4318 432.252C79.4878 432.252 78.7564 432.537 78.2378 433.108C77.7191 433.674 77.4598 434.39 77.4598 435.259V444H75.3619V434.804C75.3619 434.041 75.1142 433.426 74.6189 432.96C74.1235 432.488 73.4854 432.252 72.7045 432.252C72.1684 432.252 71.6672 432.395 71.201 432.68C70.7407 432.966 70.3677 433.362 70.0822 433.869C69.8024 434.37 69.6626 434.95 69.6626 435.608V444H67.5997ZM92.9449 444.315C92.0941 444.315 91.322 444.154 90.6285 443.834C89.935 443.508 89.3843 443.038 88.9764 442.427C88.5685 441.809 88.3645 441.063 88.3645 440.189C88.3645 439.42 88.516 438.796 88.8191 438.318C89.1221 437.834 89.5271 437.456 90.0341 437.182C90.5411 436.908 91.1005 436.704 91.7124 436.57C92.3301 436.43 92.9508 436.319 93.5743 436.238C94.3902 436.133 95.0516 436.054 95.5586 436.002C96.0714 435.943 96.4443 435.847 96.6774 435.713C96.9164 435.579 97.0358 435.346 97.0358 435.014V434.944C97.0358 434.082 96.7998 433.411 96.3278 432.934C95.8616 432.456 95.1536 432.217 94.2037 432.217C93.2188 432.217 92.4467 432.432 91.8872 432.864C91.3278 433.295 90.9344 433.755 90.7072 434.245L88.7491 433.545C89.0988 432.73 89.565 432.094 90.1477 431.64C90.7363 431.179 91.3773 430.859 92.0708 430.678C92.7701 430.492 93.4578 430.399 94.1337 430.399C94.565 430.399 95.0603 430.451 95.6198 430.556C96.185 430.655 96.7299 430.862 97.2544 431.177C97.7847 431.491 98.2247 431.966 98.5743 432.601C98.924 433.237 99.0988 434.087 99.0988 435.154V444H97.0358V442.182H96.9309C96.7911 442.473 96.558 442.785 96.2316 443.117C95.9053 443.449 95.4712 443.732 94.9292 443.965C94.3872 444.198 93.7258 444.315 92.9449 444.315ZM93.2596 442.462C94.0755 442.462 94.7631 442.301 95.3226 441.981C95.8878 441.66 96.3132 441.247 96.5988 440.74C96.8902 440.233 97.0358 439.699 97.0358 439.14V437.252C96.9484 437.357 96.7561 437.453 96.4589 437.54C96.1675 437.622 95.8295 437.695 95.4449 437.759C95.0661 437.817 94.6961 437.869 94.3348 437.916C93.9793 437.957 93.6909 437.992 93.4694 438.021C92.9333 438.091 92.4321 438.205 91.9659 438.362C91.5055 438.513 91.1326 438.744 90.847 439.052C90.5673 439.355 90.4274 439.769 90.4274 440.294C90.4274 441.01 90.6926 441.552 91.2229 441.92C91.759 442.281 92.4379 442.462 93.2596 442.462ZM102.864 444V430.573H104.927V444H102.864ZM103.913 428.336C103.511 428.336 103.164 428.199 102.873 427.925C102.587 427.651 102.444 427.322 102.444 426.937C102.444 426.552 102.587 426.223 102.873 425.949C103.164 425.675 103.511 425.538 103.913 425.538C104.315 425.538 104.659 425.675 104.944 425.949C105.236 426.223 105.382 426.552 105.382 426.937C105.382 427.322 105.236 427.651 104.944 427.925C104.659 428.199 104.315 428.336 103.913 428.336ZM110.768 426.098V444H108.705V426.098H110.768Z" fill="black"/>
<path d="M50.1678 529V511.098H56.2168C57.6212 511.098 58.7692 511.351 59.6608 511.858C60.5583 512.36 61.2226 513.038 61.6538 513.895C62.0851 514.752 62.3007 515.707 62.3007 516.762C62.3007 517.817 62.0851 518.776 61.6538 519.638C61.2284 520.501 60.5699 521.188 59.6783 521.701C58.7867 522.208 57.6445 522.462 56.2517 522.462H51.9161V520.538H56.1818C57.1434 520.538 57.9155 520.372 58.4983 520.04C59.081 519.708 59.5035 519.259 59.7657 518.694C60.0338 518.123 60.1678 517.479 60.1678 516.762C60.1678 516.045 60.0338 515.404 59.7657 514.839C59.5035 514.274 59.0781 513.831 58.4895 513.51C57.9009 513.184 57.12 513.021 56.1469 513.021H52.3357V529H50.1678ZM69.4642 529.315C68.6133 529.315 67.8412 529.154 67.1477 528.834C66.4543 528.508 65.9036 528.038 65.4956 527.427C65.0877 526.809 64.8837 526.063 64.8837 525.189C64.8837 524.42 65.0353 523.796 65.3383 523.318C65.6413 522.834 66.0463 522.456 66.5533 522.182C67.0603 521.908 67.6198 521.704 68.2316 521.57C68.8494 521.43 69.47 521.319 70.0935 521.238C70.9094 521.133 71.5708 521.054 72.0778 521.002C72.5906 520.943 72.9636 520.847 73.1967 520.713C73.4356 520.579 73.5551 520.346 73.5551 520.014V519.944C73.5551 519.082 73.3191 518.411 72.847 517.934C72.3808 517.456 71.6728 517.217 70.7229 517.217C69.7381 517.217 68.9659 517.432 68.4065 517.864C67.847 518.295 67.4537 518.755 67.2264 519.245L65.2684 518.545C65.618 517.73 66.0842 517.094 66.667 516.64C67.2555 516.179 67.8966 515.859 68.59 515.678C69.2893 515.492 69.977 515.399 70.653 515.399C71.0842 515.399 71.5795 515.451 72.139 515.556C72.7043 515.655 73.2491 515.862 73.7736 516.177C74.3039 516.491 74.7439 516.966 75.0935 517.601C75.4432 518.237 75.618 519.087 75.618 520.154V529H73.5551V527.182H73.4502C73.3103 527.473 73.0772 527.785 72.7509 528.117C72.4245 528.449 71.9904 528.732 71.4484 528.965C70.9065 529.198 70.245 529.315 69.4642 529.315ZM69.7788 527.462C70.5947 527.462 71.2823 527.301 71.8418 526.981C72.4071 526.66 72.8325 526.247 73.118 525.74C73.4094 525.233 73.5551 524.699 73.5551 524.14V522.252C73.4677 522.357 73.2754 522.453 72.9781 522.54C72.6868 522.622 72.3488 522.695 71.9642 522.759C71.5854 522.817 71.2153 522.869 70.854 522.916C70.4985 522.957 70.2101 522.992 69.9886 523.021C69.4525 523.091 68.9513 523.205 68.4851 523.362C68.0248 523.513 67.6518 523.744 67.3663 524.052C67.0865 524.355 66.9467 524.769 66.9467 525.294C66.9467 526.01 67.2118 526.552 67.7421 526.92C68.2783 527.281 68.9572 527.462 69.7788 527.462ZM88.8938 518.58L87.0406 519.105C86.9241 518.796 86.7522 518.496 86.5249 518.205C86.3035 517.907 86.0004 517.663 85.6158 517.47C85.2312 517.278 84.7388 517.182 84.1386 517.182C83.3169 517.182 82.6321 517.371 82.0844 517.75C81.5424 518.123 81.2714 518.598 81.2714 519.175C81.2714 519.688 81.4579 520.093 81.8309 520.39C82.2038 520.687 82.7866 520.935 83.5791 521.133L85.5721 521.622C86.7726 521.914 87.6671 522.36 88.2557 522.96C88.8443 523.554 89.1386 524.321 89.1386 525.259C89.1386 526.028 88.9171 526.716 88.4742 527.322C88.0372 527.928 87.4253 528.406 86.6386 528.755C85.8518 529.105 84.9369 529.28 83.8938 529.28C82.5243 529.28 81.3909 528.983 80.4934 528.388C79.596 527.794 79.0278 526.925 78.7889 525.783L80.7469 525.294C80.9334 526.016 81.286 526.558 81.8046 526.92C82.3291 527.281 83.0138 527.462 83.8588 527.462C84.8204 527.462 85.5838 527.258 86.149 526.85C86.7201 526.436 87.0057 525.941 87.0057 525.364C87.0057 524.897 86.8425 524.507 86.5162 524.192C86.1898 523.872 85.6887 523.633 85.0127 523.476L82.7749 522.951C81.5453 522.66 80.642 522.208 80.0651 521.596C79.494 520.978 79.2085 520.206 79.2085 519.28C79.2085 518.522 79.4212 517.852 79.8466 517.269C80.2778 516.686 80.8635 516.229 81.6036 515.897C82.3495 515.565 83.1945 515.399 84.1386 515.399C85.4672 515.399 86.5103 515.69 87.2679 516.273C88.0313 516.855 88.5733 517.625 88.8938 518.58ZM101.754 518.58L99.9012 519.105C99.7847 518.796 99.6128 518.496 99.3855 518.205C99.164 517.907 98.861 517.663 98.4764 517.47C98.0918 517.278 97.5994 517.182 96.9991 517.182C96.1774 517.182 95.4927 517.371 94.9449 517.75C94.403 518.123 94.132 518.598 94.132 519.175C94.132 519.688 94.3185 520.093 94.6914 520.39C95.0644 520.687 95.6471 520.935 96.4397 521.133L98.4327 521.622C99.6332 521.914 100.528 522.36 101.116 522.96C101.705 523.554 101.999 524.321 101.999 525.259C101.999 526.028 101.778 526.716 101.335 527.322C100.898 527.928 100.286 528.406 99.4991 528.755C98.7124 529.105 97.7975 529.28 96.7544 529.28C95.3849 529.28 94.2515 528.983 93.354 528.388C92.4566 527.794 91.8884 526.925 91.6495 525.783L93.6075 525.294C93.794 526.016 94.1466 526.558 94.6652 526.92C95.1897 527.281 95.8744 527.462 96.7194 527.462C97.6809 527.462 98.4443 527.258 99.0096 526.85C99.5807 526.436 99.8663 525.941 99.8663 525.364C99.8663 524.897 99.7031 524.507 99.3767 524.192C99.0504 523.872 98.5492 523.633 97.8733 523.476L95.6355 522.951C94.4059 522.66 93.5026 522.208 92.9257 521.596C92.3546 520.978 92.0691 520.206 92.0691 519.28C92.0691 518.522 92.2818 517.852 92.7072 517.269C93.1384 516.686 93.7241 516.229 94.4642 515.897C95.2101 515.565 96.0551 515.399 96.9991 515.399C98.3278 515.399 99.3709 515.69 100.128 516.273C100.892 516.855 101.434 517.625 101.754 518.58ZM108.146 529L104.056 515.573H106.223L109.125 525.853H109.265L112.132 515.573H114.335L117.167 525.818H117.307L120.209 515.573H122.377L118.286 529H116.258L113.321 518.685H113.111L110.174 529H108.146ZM130.102 529.28C128.89 529.28 127.827 528.991 126.912 528.414C126.003 527.837 125.292 527.03 124.779 525.993C124.272 524.956 124.018 523.744 124.018 522.357C124.018 520.958 124.272 519.737 124.779 518.694C125.292 517.651 126.003 516.841 126.912 516.264C127.827 515.687 128.89 515.399 130.102 515.399C131.314 515.399 132.375 515.687 133.284 516.264C134.199 516.841 134.91 517.651 135.417 518.694C135.93 519.737 136.186 520.958 136.186 522.357C136.186 523.744 135.93 524.956 135.417 525.993C134.91 527.03 134.199 527.837 133.284 528.414C132.375 528.991 131.314 529.28 130.102 529.28ZM130.102 527.427C131.023 527.427 131.781 527.191 132.375 526.719C132.969 526.247 133.409 525.626 133.695 524.857C133.98 524.087 134.123 523.254 134.123 522.357C134.123 521.459 133.98 520.623 133.695 519.848C133.409 519.073 132.969 518.446 132.375 517.969C131.781 517.491 131.023 517.252 130.102 517.252C129.182 517.252 128.424 517.491 127.83 517.969C127.235 518.446 126.795 519.073 126.51 519.848C126.224 520.623 126.081 521.459 126.081 522.357C126.081 523.254 126.224 524.087 126.51 524.857C126.795 525.626 127.235 526.247 127.83 526.719C128.424 527.191 129.182 527.427 130.102 527.427ZM139.335 529V515.573H141.328V517.601H141.468C141.713 516.937 142.156 516.398 142.797 515.984C143.438 515.571 144.16 515.364 144.965 515.364C145.116 515.364 145.306 515.367 145.533 515.372C145.76 515.378 145.932 515.387 146.049 515.399V517.497C145.979 517.479 145.818 517.453 145.568 517.418C145.323 517.377 145.064 517.357 144.79 517.357C144.137 517.357 143.554 517.494 143.042 517.767C142.535 518.036 142.132 518.409 141.835 518.886C141.544 519.358 141.398 519.897 141.398 520.503V529H139.335ZM153.155 529.28C152.036 529.28 151.049 528.997 150.192 528.432C149.335 527.861 148.665 527.057 148.181 526.019C147.698 524.976 147.456 523.744 147.456 522.322C147.456 520.911 147.698 519.688 148.181 518.65C148.665 517.613 149.338 516.812 150.201 516.247C151.063 515.681 152.06 515.399 153.19 515.399C154.064 515.399 154.755 515.544 155.262 515.836C155.775 516.121 156.165 516.448 156.433 516.815C156.707 517.176 156.92 517.473 157.071 517.706H157.246V511.098H159.309V529H157.316V526.937H157.071C156.92 527.182 156.704 527.491 156.424 527.864C156.145 528.231 155.745 528.56 155.227 528.851C154.708 529.137 154.018 529.28 153.155 529.28ZM153.435 527.427C154.262 527.427 154.962 527.211 155.533 526.78C156.104 526.343 156.538 525.74 156.835 524.97C157.132 524.195 157.281 523.301 157.281 522.287C157.281 521.284 157.135 520.407 156.844 519.656C156.553 518.898 156.121 518.309 155.55 517.89C154.979 517.464 154.274 517.252 153.435 517.252C152.561 517.252 151.832 517.476 151.25 517.925C150.673 518.368 150.238 518.971 149.947 519.734C149.662 520.492 149.519 521.343 149.519 522.287C149.519 523.242 149.664 524.111 149.956 524.892C150.253 525.667 150.69 526.284 151.267 526.745C151.85 527.199 152.572 527.427 153.435 527.427Z" fill="black"/>
<rect x="108" y="621" width="204" height="47" fill="#D9D9D9"/>
<path d="M170.168 652V634.098H176.217C177.615 634.098 178.763 634.337 179.661 634.815C180.558 635.287 181.223 635.936 181.654 636.764C182.085 637.591 182.301 638.533 182.301 639.587C182.301 640.642 182.085 641.578 181.654 642.393C181.223 643.209 180.561 643.85 179.67 644.316C178.778 644.777 177.639 645.007 176.252 645.007H171.357V643.049H176.182C177.138 643.049 177.907 642.909 178.49 642.629C179.078 642.35 179.503 641.953 179.766 641.441C180.034 640.922 180.168 640.304 180.168 639.587C180.168 638.871 180.034 638.244 179.766 637.708C179.498 637.172 179.069 636.758 178.481 636.467C177.892 636.17 177.114 636.021 176.147 636.021H172.336V652H170.168ZM178.594 643.958L183 652H180.483L176.147 643.958H178.594ZM191.118 652.28C189.825 652.28 188.709 651.994 187.771 651.423C186.838 650.846 186.118 650.042 185.611 649.01C185.11 647.973 184.86 646.767 184.86 645.392C184.86 644.016 185.11 642.804 185.611 641.755C186.118 640.7 186.824 639.879 187.727 639.29C188.636 638.696 189.697 638.399 190.909 638.399C191.608 638.399 192.299 638.515 192.98 638.748C193.662 638.981 194.283 639.36 194.842 639.885C195.402 640.403 195.847 641.091 196.18 641.948C196.512 642.804 196.678 643.859 196.678 645.112V645.986H186.328V644.203H194.58C194.58 643.445 194.428 642.769 194.125 642.175C193.828 641.58 193.403 641.111 192.849 640.767C192.301 640.424 191.655 640.252 190.909 640.252C190.087 640.252 189.376 640.456 188.776 640.864C188.181 641.266 187.724 641.79 187.403 642.437C187.083 643.084 186.923 643.777 186.923 644.517V645.706C186.923 646.72 187.097 647.58 187.447 648.285C187.803 648.984 188.295 649.517 188.924 649.885C189.554 650.246 190.285 650.427 191.118 650.427C191.66 650.427 192.15 650.351 192.587 650.199C193.03 650.042 193.412 649.809 193.732 649.5C194.053 649.185 194.3 648.795 194.475 648.329L196.468 648.888C196.258 649.564 195.906 650.159 195.41 650.671C194.915 651.178 194.303 651.575 193.575 651.86C192.846 652.14 192.028 652.28 191.118 652.28ZM205.236 657.315C204.239 657.315 203.382 657.186 202.666 656.93C201.949 656.679 201.352 656.347 200.874 655.934C200.402 655.526 200.026 655.089 199.746 654.622L201.389 653.469C201.576 653.713 201.812 653.993 202.097 654.308C202.383 654.628 202.773 654.905 203.269 655.138C203.77 655.377 204.426 655.497 205.236 655.497C206.319 655.497 207.214 655.234 207.919 654.71C208.624 654.185 208.977 653.364 208.977 652.245V649.517H208.802C208.65 649.762 208.435 650.065 208.155 650.427C207.881 650.782 207.485 651.1 206.966 651.379C206.454 651.653 205.76 651.79 204.886 651.79C203.802 651.79 202.829 651.534 201.966 651.021C201.11 650.508 200.431 649.762 199.93 648.783C199.434 647.804 199.187 646.615 199.187 645.217C199.187 643.841 199.428 642.644 199.912 641.624C200.396 640.598 201.069 639.806 201.931 639.247C202.794 638.681 203.79 638.399 204.921 638.399C205.795 638.399 206.488 638.544 207.001 638.836C207.52 639.121 207.916 639.448 208.19 639.815C208.47 640.176 208.685 640.473 208.837 640.706H209.047V638.573H211.04V652.385C211.04 653.538 210.778 654.477 210.253 655.199C209.734 655.928 209.035 656.461 208.155 656.799C207.281 657.143 206.308 657.315 205.236 657.315ZM205.166 649.937C205.993 649.937 206.692 649.748 207.264 649.369C207.835 648.99 208.269 648.445 208.566 647.734C208.863 647.023 209.012 646.172 209.012 645.182C209.012 644.214 208.866 643.361 208.575 642.621C208.283 641.881 207.852 641.301 207.281 640.881C206.71 640.462 206.005 640.252 205.166 640.252C204.292 640.252 203.563 640.473 202.98 640.916C202.403 641.359 201.969 641.953 201.678 642.699C201.392 643.445 201.25 644.273 201.25 645.182C201.25 646.114 201.395 646.939 201.687 647.656C201.984 648.367 202.421 648.926 202.998 649.334C203.581 649.736 204.303 649.937 205.166 649.937ZM214.816 652V638.573H216.879V652H214.816ZM215.865 636.336C215.463 636.336 215.116 636.199 214.825 635.925C214.539 635.651 214.396 635.322 214.396 634.937C214.396 634.552 214.539 634.223 214.825 633.949C215.116 633.675 215.463 633.538 215.865 633.538C216.267 633.538 216.611 633.675 216.896 633.949C217.188 634.223 217.333 634.552 217.333 634.937C217.333 635.322 217.188 635.651 216.896 635.925C216.611 636.199 216.267 636.336 215.865 636.336ZM230.168 641.58L228.315 642.105C228.198 641.796 228.026 641.496 227.799 641.205C227.578 640.907 227.274 640.663 226.89 640.47C226.505 640.278 226.013 640.182 225.413 640.182C224.591 640.182 223.906 640.371 223.358 640.75C222.816 641.123 222.545 641.598 222.545 642.175C222.545 642.688 222.732 643.093 223.105 643.39C223.478 643.687 224.061 643.935 224.853 644.133L226.846 644.622C228.047 644.914 228.941 645.36 229.53 645.96C230.118 646.554 230.413 647.321 230.413 648.259C230.413 649.028 230.191 649.716 229.748 650.322C229.311 650.928 228.699 651.406 227.913 651.755C227.126 652.105 226.211 652.28 225.168 652.28C223.798 652.28 222.665 651.983 221.767 651.388C220.87 650.794 220.302 649.925 220.063 648.783L222.021 648.294C222.207 649.016 222.56 649.558 223.079 649.92C223.603 650.281 224.288 650.462 225.133 650.462C226.094 650.462 226.858 650.258 227.423 649.85C227.994 649.436 228.28 648.941 228.28 648.364C228.28 647.897 228.117 647.507 227.79 647.192C227.464 646.872 226.963 646.633 226.287 646.476L224.049 645.951C222.819 645.66 221.916 645.208 221.339 644.596C220.768 643.978 220.483 643.206 220.483 642.28C220.483 641.522 220.695 640.852 221.121 640.269C221.552 639.686 222.138 639.229 222.878 638.897C223.624 638.565 224.469 638.399 225.413 638.399C226.741 638.399 227.784 638.69 228.542 639.273C229.305 639.855 229.847 640.625 230.168 641.58ZM239.357 638.573V640.322H232.399V638.573H239.357ZM234.427 635.357H236.49V648.154C236.49 648.737 236.574 649.174 236.743 649.465C236.918 649.751 237.14 649.943 237.408 650.042C237.682 650.135 237.97 650.182 238.273 650.182C238.5 650.182 238.687 650.17 238.833 650.147C238.978 650.118 239.095 650.094 239.182 650.077L239.602 651.93C239.462 651.983 239.267 652.035 239.016 652.087C238.766 652.146 238.448 652.175 238.063 652.175C237.481 652.175 236.91 652.05 236.35 651.799C235.796 651.548 235.336 651.167 234.969 650.654C234.608 650.141 234.427 649.494 234.427 648.713V635.357ZM247.945 652.28C246.652 652.28 245.536 651.994 244.597 651.423C243.665 650.846 242.945 650.042 242.438 649.01C241.937 647.973 241.687 646.767 241.687 645.392C241.687 644.016 241.937 642.804 242.438 641.755C242.945 640.7 243.65 639.879 244.554 639.29C245.463 638.696 246.523 638.399 247.736 638.399C248.435 638.399 249.125 638.515 249.807 638.748C250.489 638.981 251.11 639.36 251.669 639.885C252.229 640.403 252.674 641.091 253.007 641.948C253.339 642.804 253.505 643.859 253.505 645.112V645.986H243.155V644.203H251.407C251.407 643.445 251.255 642.769 250.952 642.175C250.655 641.58 250.23 641.111 249.676 640.767C249.128 640.424 248.482 640.252 247.736 640.252C246.914 640.252 246.203 640.456 245.603 640.864C245.008 641.266 244.551 641.79 244.23 642.437C243.91 643.084 243.75 643.777 243.75 644.517V645.706C243.75 646.72 243.924 647.58 244.274 648.285C244.63 648.984 245.122 649.517 245.751 649.885C246.381 650.246 247.112 650.427 247.945 650.427C248.487 650.427 248.977 650.351 249.414 650.199C249.857 650.042 250.238 649.809 250.559 649.5C250.88 649.185 251.127 648.795 251.302 648.329L253.295 648.888C253.085 649.564 252.733 650.159 252.237 650.671C251.742 651.178 251.13 651.575 250.402 651.86C249.673 652.14 248.854 652.28 247.945 652.28ZM256.643 652V638.573H258.636V640.601H258.776C259.021 639.937 259.463 639.398 260.104 638.984C260.745 638.571 261.468 638.364 262.272 638.364C262.424 638.364 262.613 638.367 262.84 638.372C263.068 638.378 263.24 638.387 263.356 638.399V640.497C263.286 640.479 263.126 640.453 262.875 640.418C262.631 640.377 262.371 640.357 262.097 640.357C261.445 640.357 260.862 640.494 260.349 640.767C259.842 641.036 259.44 641.409 259.143 641.886C258.852 642.358 258.706 642.897 258.706 643.503V652H256.643Z" fill="black"/>
</svg>
