<svg width="430" height="932" viewBox="0 0 430 932" fill="none" xmlns="http://www.w3.org/2000/svg">
<rect width="430" height="932" fill="white"/>
<ellipse cx="215" cy="158.5" rx="82" ry="73.5" fill="#D9D9D9"/>
<path d="M187.168 163V145.098H189.336V161.077H197.657V163H187.168ZM206.189 163.28C204.977 163.28 203.913 162.991 202.998 162.414C202.089 161.837 201.378 161.03 200.865 159.993C200.358 158.956 200.105 157.744 200.105 156.357C200.105 154.958 200.358 153.737 200.865 152.694C201.378 151.651 202.089 150.841 202.998 150.264C203.913 149.687 204.977 149.399 206.189 149.399C207.401 149.399 208.462 149.687 209.371 150.264C210.286 150.841 210.997 151.651 211.503 152.694C212.016 153.737 212.273 154.958 212.273 156.357C212.273 157.744 212.016 158.956 211.503 159.993C210.997 161.03 210.286 161.837 209.371 162.414C208.462 162.991 207.401 163.28 206.189 163.28ZM206.189 161.427C207.11 161.427 207.867 161.191 208.462 160.719C209.056 160.247 209.496 159.626 209.781 158.857C210.067 158.087 210.21 157.254 210.21 156.357C210.21 155.459 210.067 154.623 209.781 153.848C209.496 153.073 209.056 152.446 208.462 151.969C207.867 151.491 207.11 151.252 206.189 151.252C205.268 151.252 204.51 151.491 203.916 151.969C203.322 152.446 202.882 153.073 202.596 153.848C202.311 154.623 202.168 155.459 202.168 156.357C202.168 157.254 202.311 158.087 202.596 158.857C202.882 159.626 203.322 160.247 203.916 160.719C204.51 161.191 205.268 161.427 206.189 161.427ZM220.841 168.315C219.845 168.315 218.988 168.186 218.271 167.93C217.555 167.679 216.957 167.347 216.479 166.934C216.007 166.526 215.632 166.089 215.352 165.622L216.995 164.469C217.182 164.713 217.418 164.993 217.703 165.308C217.989 165.628 218.379 165.905 218.875 166.138C219.376 166.377 220.031 166.497 220.841 166.497C221.925 166.497 222.82 166.234 223.525 165.71C224.23 165.185 224.583 164.364 224.583 163.245V160.517H224.408C224.256 160.762 224.041 161.065 223.761 161.427C223.487 161.782 223.091 162.1 222.572 162.379C222.059 162.653 221.366 162.79 220.492 162.79C219.408 162.79 218.435 162.534 217.572 162.021C216.715 161.508 216.037 160.762 215.535 159.783C215.04 158.804 214.792 157.615 214.792 156.217C214.792 154.841 215.034 153.644 215.518 152.624C216.002 151.598 216.675 150.806 217.537 150.247C218.4 149.681 219.396 149.399 220.527 149.399C221.401 149.399 222.094 149.544 222.607 149.836C223.126 150.121 223.522 150.448 223.796 150.815C224.076 151.176 224.291 151.473 224.443 151.706H224.653V149.573H226.646V163.385C226.646 164.538 226.383 165.477 225.859 166.199C225.34 166.928 224.641 167.461 223.761 167.799C222.887 168.143 221.914 168.315 220.841 168.315ZM220.771 160.937C221.599 160.937 222.298 160.748 222.869 160.369C223.44 159.99 223.875 159.445 224.172 158.734C224.469 158.023 224.618 157.172 224.618 156.182C224.618 155.214 224.472 154.361 224.181 153.621C223.889 152.881 223.458 152.301 222.887 151.881C222.316 151.462 221.611 151.252 220.771 151.252C219.897 151.252 219.169 151.473 218.586 151.916C218.009 152.359 217.575 152.953 217.284 153.699C216.998 154.445 216.855 155.273 216.855 156.182C216.855 157.114 217.001 157.939 217.292 158.656C217.59 159.367 218.027 159.926 218.604 160.334C219.186 160.736 219.909 160.937 220.771 160.937ZM235.876 163.28C234.664 163.28 233.601 162.991 232.686 162.414C231.777 161.837 231.066 161.03 230.553 159.993C230.046 158.956 229.792 157.744 229.792 156.357C229.792 154.958 230.046 153.737 230.553 152.694C231.066 151.651 231.777 150.841 232.686 150.264C233.601 149.687 234.664 149.399 235.876 149.399C237.088 149.399 238.149 149.687 239.058 150.264C239.973 150.841 240.684 151.651 241.191 152.694C241.704 153.737 241.96 154.958 241.96 156.357C241.96 157.744 241.704 158.956 241.191 159.993C240.684 161.03 239.973 161.837 239.058 162.414C238.149 162.991 237.088 163.28 235.876 163.28ZM235.876 161.427C236.797 161.427 237.555 161.191 238.149 160.719C238.743 160.247 239.183 159.626 239.469 158.857C239.755 158.087 239.897 157.254 239.897 156.357C239.897 155.459 239.755 154.623 239.469 153.848C239.183 153.073 238.743 152.446 238.149 151.969C237.555 151.491 236.797 151.252 235.876 151.252C234.956 151.252 234.198 151.491 233.604 151.969C233.009 152.446 232.569 153.073 232.284 153.848C231.998 154.623 231.855 155.459 231.855 156.357C231.855 157.254 231.998 158.087 232.284 158.857C232.569 159.626 233.009 160.247 233.604 160.719C234.198 161.191 234.956 161.427 235.876 161.427Z" fill="black"/>
<rect x="34" y="585" width="348" height="52" fill="#D9D9D9"/>
<rect x="34" y="496" width="348" height="52" fill="#D9D9D9"/>
<rect x="34" y="407" width="348" height="52" fill="#D9D9D9"/>
<rect x="34" y="318" width="158" height="52" fill="#D9D9D9"/>
<path d="M60.1678 349V331.098H70.9021V333.021H62.3357V339.07H70.0979V340.993H62.3357V349H60.1678ZM76.2539 340.923V349H74.191V335.573H76.184V337.671H76.3588C76.6735 336.99 77.1514 336.442 77.7924 336.028C78.4334 335.608 79.2609 335.399 80.2749 335.399C81.184 335.399 81.9795 335.585 82.6613 335.958C83.3431 336.325 83.8734 336.885 84.2522 337.636C84.631 338.382 84.8204 339.326 84.8204 340.469V349H82.7574V340.608C82.7574 339.554 82.4835 338.732 81.9358 338.143C81.388 337.549 80.6362 337.252 79.6805 337.252C79.022 337.252 78.4334 337.395 77.9148 337.68C77.402 337.966 76.9969 338.382 76.6997 338.93C76.4025 339.478 76.2539 340.142 76.2539 340.923ZM92.5411 349.315C91.6903 349.315 90.9181 349.154 90.2247 348.834C89.5312 348.508 88.9805 348.038 88.5726 347.427C88.1646 346.809 87.9607 346.063 87.9607 345.189C87.9607 344.42 88.1122 343.796 88.4152 343.318C88.7182 342.834 89.1233 342.456 89.6302 342.182C90.1372 341.908 90.6967 341.704 91.3086 341.57C91.9263 341.43 92.5469 341.319 93.1705 341.238C93.9863 341.133 94.6477 341.054 95.1547 341.002C95.6675 340.943 96.0405 340.847 96.2736 340.713C96.5125 340.579 96.632 340.346 96.632 340.014V339.944C96.632 339.082 96.396 338.411 95.924 337.934C95.4578 337.456 94.7497 337.217 93.7998 337.217C92.815 337.217 92.0428 337.432 91.4834 337.864C90.924 338.295 90.5306 338.755 90.3033 339.245L88.3453 338.545C88.6949 337.73 89.1611 337.094 89.7439 336.64C90.3325 336.179 90.9735 335.859 91.667 335.678C92.3663 335.492 93.0539 335.399 93.7299 335.399C94.1611 335.399 94.6565 335.451 95.2159 335.556C95.7812 335.655 96.326 335.862 96.8505 336.177C97.3808 336.491 97.8208 336.966 98.1705 337.601C98.5201 338.237 98.6949 339.087 98.6949 340.154V349H96.632V347.182H96.5271C96.3872 347.473 96.1541 347.785 95.8278 348.117C95.5015 348.449 95.0673 348.732 94.5254 348.965C93.9834 349.198 93.322 349.315 92.5411 349.315ZM92.8558 347.462C93.6716 347.462 94.3593 347.301 94.9187 346.981C95.484 346.66 95.9094 346.247 96.1949 345.74C96.4863 345.233 96.632 344.699 96.632 344.14V342.252C96.5446 342.357 96.3523 342.453 96.0551 342.54C95.7637 342.622 95.4257 342.695 95.0411 342.759C94.6623 342.817 94.2923 342.869 93.9309 342.916C93.5755 342.957 93.287 342.992 93.0656 343.021C92.5294 343.091 92.0283 343.205 91.5621 343.362C91.1017 343.513 90.7287 343.744 90.4432 344.052C90.1635 344.355 90.0236 344.769 90.0236 345.294C90.0236 346.01 90.2888 346.552 90.8191 346.92C91.3552 347.281 92.0341 347.462 92.8558 347.462ZM102.46 349V335.573H104.453V337.671H104.628C104.908 336.955 105.359 336.398 105.983 336.002C106.606 335.6 107.355 335.399 108.229 335.399C109.115 335.399 109.852 335.6 110.441 336.002C111.035 336.398 111.499 336.955 111.831 337.671H111.971C112.315 336.978 112.83 336.427 113.518 336.019C114.206 335.605 115.03 335.399 115.992 335.399C117.192 335.399 118.174 335.774 118.938 336.526C119.701 337.272 120.083 338.435 120.083 340.014V349H118.02V340.014C118.02 339.023 117.749 338.315 117.207 337.89C116.665 337.464 116.027 337.252 115.292 337.252C114.348 337.252 113.617 337.537 113.098 338.108C112.58 338.674 112.32 339.39 112.32 340.259V349H110.222V339.804C110.222 339.041 109.975 338.426 109.479 337.96C108.984 337.488 108.346 337.252 107.565 337.252C107.029 337.252 106.528 337.395 106.062 337.68C105.601 337.966 105.228 338.362 104.943 338.869C104.663 339.37 104.523 339.95 104.523 340.608V349H102.46ZM129.484 349.28C128.19 349.28 127.074 348.994 126.136 348.423C125.204 347.846 124.484 347.042 123.977 346.01C123.476 344.973 123.225 343.767 123.225 342.392C123.225 341.016 123.476 339.804 123.977 338.755C124.484 337.7 125.189 336.879 126.092 336.29C127.001 335.696 128.062 335.399 129.274 335.399C129.973 335.399 130.664 335.515 131.346 335.748C132.028 335.981 132.648 336.36 133.208 336.885C133.767 337.403 134.213 338.091 134.545 338.948C134.877 339.804 135.043 340.859 135.043 342.112V342.986H124.694V341.203H132.945C132.945 340.445 132.794 339.769 132.491 339.175C132.194 338.58 131.768 338.111 131.215 337.767C130.667 337.424 130.02 337.252 129.274 337.252C128.452 337.252 127.741 337.456 127.141 337.864C126.547 338.266 126.089 338.79 125.769 339.437C125.448 340.084 125.288 340.777 125.288 341.517V342.706C125.288 343.72 125.463 344.58 125.813 345.285C126.168 345.984 126.66 346.517 127.29 346.885C127.919 347.246 128.65 347.427 129.484 347.427C130.026 347.427 130.515 347.351 130.952 347.199C131.395 347.042 131.777 346.809 132.097 346.5C132.418 346.185 132.666 345.795 132.84 345.329L134.833 345.888C134.624 346.564 134.271 347.159 133.776 347.671C133.28 348.178 132.669 348.575 131.94 348.86C131.212 349.14 130.393 349.28 129.484 349.28Z" fill="black"/>
<rect x="224" y="318" width="158" height="52" fill="#D9D9D9"/>
<path d="M250.168 349V331.098H252.336V347.077H260.657V349H250.168ZM265.797 340.923V349H263.734V335.573H265.727V337.671H265.902C266.217 336.99 266.695 336.442 267.336 336.028C267.977 335.608 268.804 335.399 269.818 335.399C270.727 335.399 271.523 335.585 272.205 335.958C272.886 336.325 273.417 336.885 273.795 337.636C274.174 338.382 274.364 339.326 274.364 340.469V349H272.301V340.608C272.301 339.554 272.027 338.732 271.479 338.143C270.931 337.549 270.179 337.252 269.224 337.252C268.565 337.252 267.977 337.395 267.458 337.68C266.945 337.966 266.54 338.382 266.243 338.93C265.946 339.478 265.797 340.142 265.797 340.923ZM282.084 349.315C281.234 349.315 280.461 349.154 279.768 348.834C279.074 348.508 278.524 348.038 278.116 347.427C277.708 346.809 277.504 346.063 277.504 345.189C277.504 344.42 277.655 343.796 277.958 343.318C278.262 342.834 278.667 342.456 279.174 342.182C279.681 341.908 280.24 341.704 280.852 341.57C281.47 341.43 282.09 341.319 282.714 341.238C283.53 341.133 284.191 341.054 284.698 341.002C285.211 340.943 285.584 340.847 285.817 340.713C286.056 340.579 286.175 340.346 286.175 340.014V339.944C286.175 339.082 285.939 338.411 285.467 337.934C285.001 337.456 284.293 337.217 283.343 337.217C282.358 337.217 281.586 337.432 281.027 337.864C280.467 338.295 280.074 338.755 279.847 339.245L277.889 338.545C278.238 337.73 278.704 337.094 279.287 336.64C279.876 336.179 280.517 335.859 281.21 335.678C281.91 335.492 282.597 335.399 283.273 335.399C283.704 335.399 284.2 335.451 284.759 335.556C285.324 335.655 285.869 335.862 286.394 336.177C286.924 336.491 287.364 336.966 287.714 337.601C288.063 338.237 288.238 339.087 288.238 340.154V349H286.175V347.182H286.07C285.931 347.473 285.697 347.785 285.371 348.117C285.045 348.449 284.611 348.732 284.069 348.965C283.527 349.198 282.865 349.315 282.084 349.315ZM282.399 347.462C283.215 347.462 283.903 347.301 284.462 346.981C285.027 346.66 285.453 346.247 285.738 345.74C286.03 345.233 286.175 344.699 286.175 344.14V342.252C286.088 342.357 285.896 342.453 285.598 342.54C285.307 342.622 284.969 342.695 284.584 342.759C284.206 342.817 283.836 342.869 283.474 342.916C283.119 342.957 282.83 342.992 282.609 343.021C282.073 343.091 281.572 343.205 281.105 343.362C280.645 343.513 280.272 343.744 279.986 344.052C279.707 344.355 279.567 344.769 279.567 345.294C279.567 346.01 279.832 346.552 280.362 346.92C280.898 347.281 281.577 347.462 282.399 347.462ZM292.003 349V335.573H293.997V337.671H294.171C294.451 336.955 294.903 336.398 295.526 336.002C296.15 335.6 296.899 335.399 297.773 335.399C298.659 335.399 299.396 335.6 299.984 336.002C300.579 336.398 301.042 336.955 301.374 337.671H301.514C301.858 336.978 302.374 336.427 303.061 336.019C303.749 335.605 304.573 335.399 305.535 335.399C306.735 335.399 307.717 335.774 308.481 336.526C309.244 337.272 309.626 338.435 309.626 340.014V349H307.563V340.014C307.563 339.023 307.292 338.315 306.75 337.89C306.208 337.464 305.57 337.252 304.836 337.252C303.892 337.252 303.16 337.537 302.642 338.108C302.123 338.674 301.864 339.39 301.864 340.259V349H299.766V339.804C299.766 339.041 299.518 338.426 299.023 337.96C298.527 337.488 297.889 337.252 297.108 337.252C296.572 337.252 296.071 337.395 295.605 337.68C295.145 337.966 294.772 338.362 294.486 338.869C294.206 339.37 294.066 339.95 294.066 340.608V349H292.003ZM319.027 349.28C317.733 349.28 316.617 348.994 315.679 348.423C314.747 347.846 314.027 347.042 313.52 346.01C313.019 344.973 312.768 343.767 312.768 342.392C312.768 341.016 313.019 339.804 313.52 338.755C314.027 337.7 314.732 336.879 315.635 336.29C316.545 335.696 317.605 335.399 318.817 335.399C319.517 335.399 320.207 335.515 320.889 335.748C321.571 335.981 322.191 336.36 322.751 336.885C323.31 337.403 323.756 338.091 324.088 338.948C324.42 339.804 324.587 340.859 324.587 342.112V342.986H314.237V341.203H322.489C322.489 340.445 322.337 339.769 322.034 339.175C321.737 338.58 321.311 338.111 320.758 337.767C320.21 337.424 319.563 337.252 318.817 337.252C317.996 337.252 317.285 337.456 316.684 337.864C316.09 338.266 315.633 338.79 315.312 339.437C314.992 340.084 314.831 340.777 314.831 341.517V342.706C314.831 343.72 315.006 344.58 315.356 345.285C315.711 345.984 316.204 346.517 316.833 346.885C317.462 347.246 318.194 347.427 319.027 347.427C319.569 347.427 320.059 347.351 320.496 347.199C320.939 347.042 321.32 346.809 321.641 346.5C321.961 346.185 322.209 345.795 322.384 345.329L324.377 345.888C324.167 346.564 323.814 347.159 323.319 347.671C322.824 348.178 322.212 348.575 321.483 348.86C320.755 349.14 319.936 349.28 319.027 349.28Z" fill="black"/>
<path d="M53.1678 444V426.098H59.2168C60.6212 426.098 61.7692 426.351 62.6608 426.858C63.5583 427.36 64.2226 428.038 64.6538 428.895C65.0851 429.752 65.3007 430.707 65.3007 431.762C65.3007 432.817 65.0851 433.776 64.6538 434.638C64.2284 435.501 63.5699 436.188 62.6783 436.701C61.7867 437.208 60.6445 437.462 59.2517 437.462H54.9161V435.538H59.1818C60.1434 435.538 60.9155 435.372 61.4983 435.04C62.081 434.708 62.5035 434.259 62.7657 433.694C63.0338 433.123 63.1678 432.479 63.1678 431.762C63.1678 431.045 63.0338 430.404 62.7657 429.839C62.5035 429.274 62.0781 428.831 61.4895 428.51C60.9009 428.184 60.12 428.021 59.1469 428.021H55.3357V444H53.1678ZM70.576 435.923V444H68.5131V426.098H70.576V432.671H70.7509C71.0656 431.978 71.5376 431.427 72.167 431.019C72.8022 430.605 73.6471 430.399 74.7019 430.399C75.6168 430.399 76.4181 430.582 77.1058 430.949C77.7934 431.311 78.3266 431.867 78.7054 432.619C79.09 433.365 79.2823 434.315 79.2823 435.469V444H77.2194V435.608C77.2194 434.542 76.9426 433.717 76.389 433.135C75.8412 432.546 75.0807 432.252 74.1075 432.252C73.4315 432.252 72.8255 432.395 72.2893 432.68C71.759 432.966 71.3395 433.382 71.0306 433.93C70.7276 434.478 70.576 435.142 70.576 435.923ZM88.5109 444.28C87.2988 444.28 86.2353 443.991 85.3204 443.414C84.4113 442.837 83.7003 442.03 83.1875 440.993C82.6805 439.956 82.427 438.744 82.427 437.357C82.427 435.958 82.6805 434.737 83.1875 433.694C83.7003 432.651 84.4113 431.841 85.3204 431.264C86.2353 430.687 87.2988 430.399 88.5109 430.399C89.723 430.399 90.7837 430.687 91.6927 431.264C92.6077 431.841 93.3186 432.651 93.8256 433.694C94.3384 434.737 94.5948 435.958 94.5948 437.357C94.5948 438.744 94.3384 439.956 93.8256 440.993C93.3186 442.03 92.6077 442.837 91.6927 443.414C90.7837 443.991 89.723 444.28 88.5109 444.28ZM88.5109 442.427C89.4317 442.427 90.1892 442.191 90.7837 441.719C91.3781 441.247 91.818 440.626 92.1036 439.857C92.3891 439.087 92.5319 438.254 92.5319 437.357C92.5319 436.459 92.3891 435.623 92.1036 434.848C91.818 434.073 91.3781 433.446 90.7837 432.969C90.1892 432.491 89.4317 432.252 88.5109 432.252C87.5902 432.252 86.8326 432.491 86.2382 432.969C85.6438 433.446 85.2038 434.073 84.9183 434.848C84.6327 435.623 84.4899 436.459 84.4899 437.357C84.4899 438.254 84.6327 439.087 84.9183 439.857C85.2038 440.626 85.6438 441.247 86.2382 441.719C86.8326 442.191 87.5902 442.427 88.5109 442.427ZM99.8068 435.923V444H97.7439V430.573H99.7369V432.671H99.9117C100.226 431.99 100.704 431.442 101.345 431.028C101.986 430.608 102.814 430.399 103.828 430.399C104.737 430.399 105.532 430.585 106.214 430.958C106.896 431.325 107.426 431.885 107.805 432.636C108.184 433.382 108.373 434.326 108.373 435.469V444H106.31V435.608C106.31 434.554 106.036 433.732 105.489 433.143C104.941 432.549 104.189 432.252 103.233 432.252C102.575 432.252 101.986 432.395 101.468 432.68C100.955 432.966 100.55 433.382 100.253 433.93C99.9554 434.478 99.8068 435.142 99.8068 435.923ZM117.772 444.28C116.479 444.28 115.363 443.994 114.424 443.423C113.492 442.846 112.772 442.042 112.265 441.01C111.764 439.973 111.514 438.767 111.514 437.392C111.514 436.016 111.764 434.804 112.265 433.755C112.772 432.7 113.477 431.879 114.381 431.29C115.29 430.696 116.35 430.399 117.562 430.399C118.262 430.399 118.952 430.515 119.634 430.748C120.316 430.981 120.937 431.36 121.496 431.885C122.056 432.403 122.501 433.091 122.833 433.948C123.166 434.804 123.332 435.859 123.332 437.112V437.986H112.982V436.203H121.234C121.234 435.445 121.082 434.769 120.779 434.175C120.482 433.58 120.057 433.111 119.503 432.767C118.955 432.424 118.308 432.252 117.562 432.252C116.741 432.252 116.03 432.456 115.43 432.864C114.835 433.266 114.378 433.79 114.057 434.437C113.737 435.084 113.576 435.777 113.576 436.517V437.706C113.576 438.72 113.751 439.58 114.101 440.285C114.456 440.984 114.949 441.517 115.578 441.885C116.208 442.246 116.939 442.427 117.772 442.427C118.314 442.427 118.804 442.351 119.241 442.199C119.684 442.042 120.065 441.809 120.386 441.5C120.706 441.185 120.954 440.795 121.129 440.329L123.122 440.888C122.912 441.564 122.56 442.159 122.064 442.671C121.569 443.178 120.957 443.575 120.229 443.86C119.5 444.14 118.681 444.28 117.772 444.28ZM147.868 426.098V444H145.771L136.015 429.944H135.84V444H133.673V426.098H135.771L145.561 440.189H145.736V426.098H147.868ZM160.388 438.51V430.573H162.451V444H160.388V441.727H160.248C159.934 442.409 159.444 442.989 158.78 443.467C158.115 443.939 157.276 444.175 156.262 444.175C155.423 444.175 154.677 443.991 154.024 443.624C153.372 443.251 152.859 442.692 152.486 441.946C152.113 441.194 151.927 440.247 151.927 439.105V430.573H153.99V438.965C153.99 439.944 154.263 440.725 154.811 441.308C155.365 441.89 156.07 442.182 156.927 442.182C157.439 442.182 157.961 442.051 158.491 441.788C159.027 441.526 159.476 441.124 159.837 440.582C160.205 440.04 160.388 439.35 160.388 438.51ZM166.229 444V430.573H168.222V432.671H168.397C168.677 431.955 169.129 431.398 169.752 431.002C170.376 430.6 171.125 430.399 171.999 430.399C172.884 430.399 173.622 430.6 174.21 431.002C174.805 431.398 175.268 431.955 175.6 432.671H175.74C176.084 431.978 176.6 431.427 177.287 431.019C177.975 430.605 178.799 430.399 179.761 430.399C180.961 430.399 181.943 430.774 182.707 431.526C183.47 432.272 183.852 433.435 183.852 435.014V444H181.789V435.014C181.789 434.023 181.518 433.315 180.976 432.89C180.434 432.464 179.796 432.252 179.062 432.252C178.118 432.252 177.386 432.537 176.868 433.108C176.349 433.674 176.09 434.39 176.09 435.259V444H173.992V434.804C173.992 434.041 173.744 433.426 173.249 432.96C172.753 432.488 172.115 432.252 171.334 432.252C170.798 432.252 170.297 432.395 169.831 432.68C169.37 432.966 168.998 433.362 168.712 433.869C168.432 434.37 168.292 434.95 168.292 435.608V444H166.229ZM187.903 444V426.098H189.966V432.706H190.141C190.293 432.473 190.502 432.176 190.771 431.815C191.044 431.448 191.435 431.121 191.942 430.836C192.455 430.544 193.148 430.399 194.022 430.399C195.153 430.399 196.149 430.681 197.012 431.247C197.874 431.812 198.547 432.613 199.031 433.65C199.515 434.688 199.757 435.911 199.757 437.322C199.757 438.744 199.515 439.976 199.031 441.019C198.547 442.057 197.877 442.861 197.021 443.432C196.164 443.997 195.176 444.28 194.057 444.28C193.195 444.28 192.504 444.137 191.986 443.851C191.467 443.56 191.068 443.231 190.788 442.864C190.508 442.491 190.293 442.182 190.141 441.937H189.896V444H187.903ZM189.931 437.287C189.931 438.301 190.08 439.195 190.377 439.97C190.674 440.74 191.109 441.343 191.68 441.78C192.251 442.211 192.95 442.427 193.778 442.427C194.64 442.427 195.36 442.199 195.937 441.745C196.519 441.284 196.956 440.667 197.248 439.892C197.545 439.111 197.694 438.242 197.694 437.287C197.694 436.343 197.548 435.492 197.257 434.734C196.971 433.971 196.537 433.368 195.954 432.925C195.377 432.476 194.652 432.252 193.778 432.252C192.938 432.252 192.233 432.464 191.662 432.89C191.091 433.309 190.66 433.898 190.368 434.656C190.077 435.407 189.931 436.284 189.931 437.287ZM208.542 444.28C207.248 444.28 206.132 443.994 205.194 443.423C204.261 442.846 203.542 442.042 203.035 441.01C202.533 439.973 202.283 438.767 202.283 437.392C202.283 436.016 202.533 434.804 203.035 433.755C203.542 432.7 204.247 431.879 205.15 431.29C206.059 430.696 207.12 430.399 208.332 430.399C209.031 430.399 209.722 430.515 210.403 430.748C211.085 430.981 211.706 431.36 212.265 431.885C212.825 432.403 213.271 433.091 213.603 433.948C213.935 434.804 214.101 435.859 214.101 437.112V437.986H203.751V436.203H212.003C212.003 435.445 211.852 434.769 211.549 434.175C211.251 433.58 210.826 433.111 210.272 432.767C209.724 432.424 209.078 432.252 208.332 432.252C207.51 432.252 206.799 432.456 206.199 432.864C205.604 433.266 205.147 433.79 204.826 434.437C204.506 435.084 204.346 435.777 204.346 436.517V437.706C204.346 438.72 204.521 439.58 204.87 440.285C205.226 440.984 205.718 441.517 206.347 441.885C206.977 442.246 207.708 442.427 208.542 442.427C209.083 442.427 209.573 442.351 210.01 442.199C210.453 442.042 210.835 441.809 211.155 441.5C211.476 441.185 211.723 440.795 211.898 440.329L213.891 440.888C213.681 441.564 213.329 442.159 212.833 442.671C212.338 443.178 211.726 443.575 210.998 443.86C210.269 444.14 209.451 444.28 208.542 444.28ZM217.239 444V430.573H219.232V432.601H219.372C219.617 431.937 220.06 431.398 220.701 430.984C221.342 430.571 222.064 430.364 222.868 430.364C223.02 430.364 223.209 430.367 223.437 430.372C223.664 430.378 223.836 430.387 223.952 430.399V432.497C223.882 432.479 223.722 432.453 223.472 432.418C223.227 432.377 222.968 432.357 222.694 432.357C222.041 432.357 221.458 432.494 220.945 432.767C220.438 433.036 220.036 433.409 219.739 433.886C219.448 434.358 219.302 434.897 219.302 435.503V444H217.239Z" fill="black"/>
<path d="M50.1678 529V511.098H56.2168C57.6212 511.098 58.7692 511.351 59.6608 511.858C60.5583 512.36 61.2226 513.038 61.6538 513.895C62.0851 514.752 62.3007 515.707 62.3007 516.762C62.3007 517.817 62.0851 518.776 61.6538 519.638C61.2284 520.501 60.5699 521.188 59.6783 521.701C58.7867 522.208 57.6445 522.462 56.2517 522.462H51.9161V520.538H56.1818C57.1434 520.538 57.9155 520.372 58.4983 520.04C59.081 519.708 59.5035 519.259 59.7657 518.694C60.0338 518.123 60.1678 517.479 60.1678 516.762C60.1678 516.045 60.0338 515.404 59.7657 514.839C59.5035 514.274 59.0781 513.831 58.4895 513.51C57.9009 513.184 57.12 513.021 56.1469 513.021H52.3357V529H50.1678ZM69.4642 529.315C68.6133 529.315 67.8412 529.154 67.1477 528.834C66.4543 528.508 65.9036 528.038 65.4956 527.427C65.0877 526.809 64.8837 526.063 64.8837 525.189C64.8837 524.42 65.0353 523.796 65.3383 523.318C65.6413 522.834 66.0463 522.456 66.5533 522.182C67.0603 521.908 67.6198 521.704 68.2316 521.57C68.8494 521.43 69.47 521.319 70.0935 521.238C70.9094 521.133 71.5708 521.054 72.0778 521.002C72.5906 520.943 72.9636 520.847 73.1967 520.713C73.4356 520.579 73.5551 520.346 73.5551 520.014V519.944C73.5551 519.082 73.3191 518.411 72.847 517.934C72.3808 517.456 71.6728 517.217 70.7229 517.217C69.7381 517.217 68.9659 517.432 68.4065 517.864C67.847 518.295 67.4537 518.755 67.2264 519.245L65.2684 518.545C65.618 517.73 66.0842 517.094 66.667 516.64C67.2555 516.179 67.8966 515.859 68.59 515.678C69.2893 515.492 69.977 515.399 70.653 515.399C71.0842 515.399 71.5795 515.451 72.139 515.556C72.7043 515.655 73.2491 515.862 73.7736 516.177C74.3039 516.491 74.7439 516.966 75.0935 517.601C75.4432 518.237 75.618 519.087 75.618 520.154V529H73.5551V527.182H73.4502C73.3103 527.473 73.0772 527.785 72.7509 528.117C72.4245 528.449 71.9904 528.732 71.4484 528.965C70.9065 529.198 70.245 529.315 69.4642 529.315ZM69.7788 527.462C70.5947 527.462 71.2823 527.301 71.8418 526.981C72.4071 526.66 72.8325 526.247 73.118 525.74C73.4094 525.233 73.5551 524.699 73.5551 524.14V522.252C73.4677 522.357 73.2754 522.453 72.9781 522.54C72.6868 522.622 72.3488 522.695 71.9642 522.759C71.5854 522.817 71.2153 522.869 70.854 522.916C70.4985 522.957 70.2101 522.992 69.9886 523.021C69.4525 523.091 68.9513 523.205 68.4851 523.362C68.0248 523.513 67.6518 523.744 67.3663 524.052C67.0865 524.355 66.9467 524.769 66.9467 525.294C66.9467 526.01 67.2118 526.552 67.7421 526.92C68.2783 527.281 68.9572 527.462 69.7788 527.462ZM88.8938 518.58L87.0406 519.105C86.9241 518.796 86.7522 518.496 86.5249 518.205C86.3035 517.907 86.0004 517.663 85.6158 517.47C85.2312 517.278 84.7388 517.182 84.1386 517.182C83.3169 517.182 82.6321 517.371 82.0844 517.75C81.5424 518.123 81.2714 518.598 81.2714 519.175C81.2714 519.688 81.4579 520.093 81.8309 520.39C82.2038 520.687 82.7866 520.935 83.5791 521.133L85.5721 521.622C86.7726 521.914 87.6671 522.36 88.2557 522.96C88.8443 523.554 89.1386 524.321 89.1386 525.259C89.1386 526.028 88.9171 526.716 88.4742 527.322C88.0372 527.928 87.4253 528.406 86.6386 528.755C85.8518 529.105 84.9369 529.28 83.8938 529.28C82.5243 529.28 81.3909 528.983 80.4934 528.388C79.596 527.794 79.0278 526.925 78.7889 525.783L80.7469 525.294C80.9334 526.016 81.286 526.558 81.8046 526.92C82.3291 527.281 83.0138 527.462 83.8588 527.462C84.8204 527.462 85.5838 527.258 86.149 526.85C86.7201 526.436 87.0057 525.941 87.0057 525.364C87.0057 524.897 86.8425 524.507 86.5162 524.192C86.1898 523.872 85.6887 523.633 85.0127 523.476L82.7749 522.951C81.5453 522.66 80.642 522.208 80.0651 521.596C79.494 520.978 79.2085 520.206 79.2085 519.28C79.2085 518.522 79.4212 517.852 79.8466 517.269C80.2778 516.686 80.8635 516.229 81.6036 515.897C82.3495 515.565 83.1945 515.399 84.1386 515.399C85.4672 515.399 86.5103 515.69 87.2679 516.273C88.0313 516.855 88.5733 517.625 88.8938 518.58ZM101.754 518.58L99.9012 519.105C99.7847 518.796 99.6128 518.496 99.3855 518.205C99.164 517.907 98.861 517.663 98.4764 517.47C98.0918 517.278 97.5994 517.182 96.9991 517.182C96.1774 517.182 95.4927 517.371 94.9449 517.75C94.403 518.123 94.132 518.598 94.132 519.175C94.132 519.688 94.3185 520.093 94.6914 520.39C95.0644 520.687 95.6471 520.935 96.4397 521.133L98.4327 521.622C99.6332 521.914 100.528 522.36 101.116 522.96C101.705 523.554 101.999 524.321 101.999 525.259C101.999 526.028 101.778 526.716 101.335 527.322C100.898 527.928 100.286 528.406 99.4991 528.755C98.7124 529.105 97.7975 529.28 96.7544 529.28C95.3849 529.28 94.2515 528.983 93.354 528.388C92.4566 527.794 91.8884 526.925 91.6495 525.783L93.6075 525.294C93.794 526.016 94.1466 526.558 94.6652 526.92C95.1897 527.281 95.8744 527.462 96.7194 527.462C97.6809 527.462 98.4443 527.258 99.0096 526.85C99.5807 526.436 99.8663 525.941 99.8663 525.364C99.8663 524.897 99.7031 524.507 99.3767 524.192C99.0504 523.872 98.5492 523.633 97.8733 523.476L95.6355 522.951C94.4059 522.66 93.5026 522.208 92.9257 521.596C92.3546 520.978 92.0691 520.206 92.0691 519.28C92.0691 518.522 92.2818 517.852 92.7072 517.269C93.1384 516.686 93.7241 516.229 94.4642 515.897C95.2101 515.565 96.0551 515.399 96.9991 515.399C98.3278 515.399 99.3709 515.69 100.128 516.273C100.892 516.855 101.434 517.625 101.754 518.58ZM108.146 529L104.056 515.573H106.223L109.125 525.853H109.265L112.132 515.573H114.335L117.167 525.818H117.307L120.209 515.573H122.377L118.286 529H116.258L113.321 518.685H113.111L110.174 529H108.146ZM130.102 529.28C128.89 529.28 127.827 528.991 126.912 528.414C126.003 527.837 125.292 527.03 124.779 525.993C124.272 524.956 124.018 523.744 124.018 522.357C124.018 520.958 124.272 519.737 124.779 518.694C125.292 517.651 126.003 516.841 126.912 516.264C127.827 515.687 128.89 515.399 130.102 515.399C131.314 515.399 132.375 515.687 133.284 516.264C134.199 516.841 134.91 517.651 135.417 518.694C135.93 519.737 136.186 520.958 136.186 522.357C136.186 523.744 135.93 524.956 135.417 525.993C134.91 527.03 134.199 527.837 133.284 528.414C132.375 528.991 131.314 529.28 130.102 529.28ZM130.102 527.427C131.023 527.427 131.781 527.191 132.375 526.719C132.969 526.247 133.409 525.626 133.695 524.857C133.98 524.087 134.123 523.254 134.123 522.357C134.123 521.459 133.98 520.623 133.695 519.848C133.409 519.073 132.969 518.446 132.375 517.969C131.781 517.491 131.023 517.252 130.102 517.252C129.182 517.252 128.424 517.491 127.83 517.969C127.235 518.446 126.795 519.073 126.51 519.848C126.224 520.623 126.081 521.459 126.081 522.357C126.081 523.254 126.224 524.087 126.51 524.857C126.795 525.626 127.235 526.247 127.83 526.719C128.424 527.191 129.182 527.427 130.102 527.427ZM139.335 529V515.573H141.328V517.601H141.468C141.713 516.937 142.156 516.398 142.797 515.984C143.438 515.571 144.16 515.364 144.965 515.364C145.116 515.364 145.306 515.367 145.533 515.372C145.76 515.378 145.932 515.387 146.049 515.399V517.497C145.979 517.479 145.818 517.453 145.568 517.418C145.323 517.377 145.064 517.357 144.79 517.357C144.137 517.357 143.554 517.494 143.042 517.767C142.535 518.036 142.132 518.409 141.835 518.886C141.544 519.358 141.398 519.897 141.398 520.503V529H139.335ZM153.155 529.28C152.036 529.28 151.049 528.997 150.192 528.432C149.335 527.861 148.665 527.057 148.181 526.019C147.698 524.976 147.456 523.744 147.456 522.322C147.456 520.911 147.698 519.688 148.181 518.65C148.665 517.613 149.338 516.812 150.201 516.247C151.063 515.681 152.06 515.399 153.19 515.399C154.064 515.399 154.755 515.544 155.262 515.836C155.775 516.121 156.165 516.448 156.433 516.815C156.707 517.176 156.92 517.473 157.071 517.706H157.246V511.098H159.309V529H157.316V526.937H157.071C156.92 527.182 156.704 527.491 156.424 527.864C156.145 528.231 155.745 528.56 155.227 528.851C154.708 529.137 154.018 529.28 153.155 529.28ZM153.435 527.427C154.262 527.427 154.962 527.211 155.533 526.78C156.104 526.343 156.538 525.74 156.835 524.97C157.132 524.195 157.281 523.301 157.281 522.287C157.281 521.284 157.135 520.407 156.844 519.656C156.553 518.898 156.121 518.309 155.55 517.89C154.979 517.464 154.274 517.252 153.435 517.252C152.561 517.252 151.832 517.476 151.25 517.925C150.673 518.368 150.238 518.971 149.947 519.734C149.662 520.492 149.519 521.343 149.519 522.287C149.519 523.242 149.664 524.111 149.956 524.892C150.253 525.667 150.69 526.284 151.267 526.745C151.85 527.199 152.572 527.427 153.435 527.427Z" fill="black"/>
<path d="M53.1678 621V603.098H59.4266C60.6737 603.098 61.7022 603.314 62.5122 603.745C63.3223 604.17 63.9254 604.744 64.3217 605.467C64.7179 606.184 64.9161 606.979 64.9161 607.853C64.9161 608.622 64.7791 609.258 64.5052 609.759C64.2372 610.26 63.8817 610.656 63.4388 610.948C63.0017 611.239 62.5268 611.455 62.014 611.594V611.769C62.5618 611.804 63.1125 611.997 63.6661 612.346C64.2197 612.696 64.683 613.197 65.0559 613.85C65.4289 614.502 65.6154 615.301 65.6154 616.245C65.6154 617.142 65.4114 617.949 65.0035 618.666C64.5956 619.383 63.9516 619.951 63.0717 620.371C62.1917 620.79 61.0466 621 59.6364 621H53.1678ZM55.3357 619.077H59.6364C61.0524 619.077 62.0577 618.803 62.6521 618.255C63.2523 617.702 63.5524 617.031 63.5524 616.245C63.5524 615.639 63.398 615.079 63.0892 614.566C62.7803 614.048 62.3403 613.634 61.7692 613.325C61.1981 613.01 60.5221 612.853 59.7413 612.853H55.3357V619.077ZM55.3357 610.965H59.3566C60.0093 610.965 60.5979 610.837 61.1224 610.58C61.6527 610.324 62.0723 609.963 62.3811 609.497C62.6958 609.03 62.8531 608.483 62.8531 607.853C62.8531 607.066 62.5793 606.399 62.0315 605.851C61.4837 605.298 60.6154 605.021 59.4266 605.021H55.3357V610.965ZM68.8977 621V607.573H70.9607V621H68.8977ZM69.9467 605.336C69.5446 605.336 69.1978 605.199 68.9065 604.925C68.6209 604.651 68.4781 604.322 68.4781 603.937C68.4781 603.552 68.6209 603.223 68.9065 602.949C69.1978 602.675 69.5446 602.538 69.9467 602.538C70.3488 602.538 70.6926 602.675 70.9781 602.949C71.2695 603.223 71.4152 603.552 71.4152 603.937C71.4152 604.322 71.2695 604.651 70.9781 604.925C70.6926 605.199 70.3488 605.336 69.9467 605.336ZM74.7391 621V607.573H76.7321V609.601H76.8719C77.1167 608.937 77.5596 608.398 78.2006 607.984C78.8416 607.571 79.5642 607.364 80.3684 607.364C80.52 607.364 80.7094 607.367 80.9366 607.372C81.1639 607.378 81.3358 607.387 81.4524 607.399V609.497C81.3824 609.479 81.2222 609.453 80.9716 609.418C80.7268 609.377 80.4675 609.357 80.1936 609.357C79.5409 609.357 78.9582 609.494 78.4454 609.767C77.9384 610.036 77.5363 610.409 77.2391 610.886C76.9477 611.358 76.802 611.897 76.802 612.503V621H74.7391ZM90.5782 607.573V609.322H83.6202V607.573H90.5782ZM85.6482 604.357H87.7111V617.154C87.7111 617.737 87.7956 618.174 87.9646 618.465C88.1394 618.751 88.3609 618.943 88.6289 619.042C88.9028 619.135 89.1913 619.182 89.4943 619.182C89.7216 619.182 89.9081 619.17 90.0538 619.147C90.1994 619.118 90.316 619.094 90.4034 619.077L90.823 620.93C90.6831 620.983 90.4879 621.035 90.2373 621.087C89.9867 621.146 89.6691 621.175 89.2845 621.175C88.7018 621.175 88.1307 621.05 87.5712 620.799C87.0176 620.548 86.5573 620.167 86.1901 619.654C85.8288 619.141 85.6482 618.494 85.6482 617.713V604.357ZM96.0328 612.923V621H93.9698V603.098H96.0328V609.671H96.2076C96.5223 608.978 96.9943 608.427 97.6237 608.019C98.2589 607.605 99.1039 607.399 100.159 607.399C101.074 607.399 101.875 607.582 102.562 607.949C103.25 608.311 103.783 608.867 104.162 609.619C104.547 610.365 104.739 611.315 104.739 612.469V621H102.676V612.608C102.676 611.542 102.399 610.717 101.846 610.135C101.298 609.546 100.537 609.252 99.5642 609.252C98.8883 609.252 98.2822 609.395 97.7461 609.68C97.2158 609.966 96.7962 610.382 96.4873 610.93C96.1843 611.478 96.0328 612.142 96.0328 612.923ZM121.24 621H115.716V603.098H121.485C123.222 603.098 124.708 603.456 125.943 604.173C127.179 604.884 128.126 605.907 128.784 607.241C129.443 608.57 129.772 610.161 129.772 612.014C129.772 613.879 129.44 615.484 128.775 616.83C128.111 618.171 127.144 619.202 125.873 619.925C124.603 620.642 123.059 621 121.24 621ZM117.884 619.077H121.101C122.581 619.077 123.807 618.791 124.781 618.22C125.754 617.649 126.479 616.836 126.957 615.781C127.435 614.727 127.674 613.471 127.674 612.014C127.674 610.569 127.438 609.325 126.966 608.281C126.494 607.233 125.789 606.428 124.851 605.869C123.912 605.304 122.744 605.021 121.345 605.021H117.884V619.077ZM137.08 621.315C136.229 621.315 135.457 621.154 134.763 620.834C134.07 620.508 133.519 620.038 133.111 619.427C132.703 618.809 132.499 618.063 132.499 617.189C132.499 616.42 132.651 615.796 132.954 615.318C133.257 614.834 133.662 614.456 134.169 614.182C134.676 613.908 135.235 613.704 135.847 613.57C136.465 613.43 137.085 613.319 137.709 613.238C138.525 613.133 139.186 613.054 139.693 613.002C140.206 612.943 140.579 612.847 140.812 612.713C141.051 612.579 141.17 612.346 141.17 612.014V611.944C141.17 611.082 140.934 610.411 140.462 609.934C139.996 609.456 139.288 609.217 138.338 609.217C137.353 609.217 136.581 609.432 136.022 609.864C135.462 610.295 135.069 610.755 134.842 611.245L132.884 610.545C133.233 609.73 133.7 609.094 134.282 608.64C134.871 608.179 135.512 607.859 136.205 607.678C136.905 607.492 137.592 607.399 138.268 607.399C138.7 607.399 139.195 607.451 139.754 607.556C140.32 607.655 140.865 607.862 141.389 608.177C141.919 608.491 142.359 608.966 142.709 609.601C143.059 610.237 143.233 611.087 143.233 612.154V621H141.17V619.182H141.066C140.926 619.473 140.693 619.785 140.366 620.117C140.04 620.449 139.606 620.732 139.064 620.965C138.522 621.198 137.86 621.315 137.08 621.315ZM137.394 619.462C138.21 619.462 138.898 619.301 139.457 618.981C140.022 618.66 140.448 618.247 140.733 617.74C141.025 617.233 141.17 616.699 141.17 616.14V614.252C141.083 614.357 140.891 614.453 140.594 614.54C140.302 614.622 139.964 614.695 139.58 614.759C139.201 614.817 138.831 614.869 138.469 614.916C138.114 614.957 137.825 614.992 137.604 615.021C137.068 615.091 136.567 615.205 136.101 615.362C135.64 615.513 135.267 615.744 134.982 616.052C134.702 616.355 134.562 616.769 134.562 617.294C134.562 618.01 134.827 618.552 135.358 618.92C135.894 619.281 136.573 619.462 137.394 619.462ZM152.838 607.573V609.322H145.88V607.573H152.838ZM147.908 604.357H149.971V617.154C149.971 617.737 150.055 618.174 150.224 618.465C150.399 618.751 150.62 618.943 150.889 619.042C151.162 619.135 151.451 619.182 151.754 619.182C151.981 619.182 152.168 619.17 152.313 619.147C152.459 619.118 152.576 619.094 152.663 619.077L153.083 620.93C152.943 620.983 152.748 621.035 152.497 621.087C152.246 621.146 151.929 621.175 151.544 621.175C150.961 621.175 150.39 621.05 149.831 620.799C149.277 620.548 148.817 620.167 148.45 619.654C148.088 619.141 147.908 618.494 147.908 617.713V604.357ZM161.426 621.28C160.132 621.28 159.016 620.994 158.078 620.423C157.146 619.846 156.426 619.042 155.919 618.01C155.418 616.973 155.167 615.767 155.167 614.392C155.167 613.016 155.418 611.804 155.919 610.755C156.426 609.7 157.131 608.879 158.035 608.29C158.944 607.696 160.004 607.399 161.216 607.399C161.916 607.399 162.606 607.515 163.288 607.748C163.97 607.981 164.59 608.36 165.15 608.885C165.709 609.403 166.155 610.091 166.487 610.948C166.819 611.804 166.986 612.859 166.986 614.112V614.986H156.636V613.203H164.888C164.888 612.445 164.736 611.769 164.433 611.175C164.136 610.58 163.711 610.111 163.157 609.767C162.609 609.424 161.962 609.252 161.216 609.252C160.395 609.252 159.684 609.456 159.083 609.864C158.489 610.266 158.032 610.79 157.711 611.437C157.391 612.084 157.23 612.777 157.23 613.517V614.706C157.23 615.72 157.405 616.58 157.755 617.285C158.11 617.984 158.603 618.517 159.232 618.885C159.861 619.246 160.593 619.427 161.426 619.427C161.968 619.427 162.458 619.351 162.895 619.199C163.338 619.042 163.719 618.809 164.04 618.5C164.36 618.185 164.608 617.795 164.783 617.329L166.776 617.888C166.566 618.564 166.213 619.159 165.718 619.671C165.223 620.178 164.611 620.575 163.882 620.86C163.154 621.14 162.335 621.28 161.426 621.28Z" fill="black"/>
<path d="M52.1678 676.098H54.7552L60.8392 690.958H61.049L67.1329 676.098H69.7203V694H67.6923V680.399H67.5175L61.9231 694H59.965L54.3706 680.399H54.1958V694H52.1678V676.098ZM77.7382 694.315C76.8874 694.315 76.1152 694.154 75.4218 693.834C74.7283 693.508 74.1776 693.038 73.7697 692.427C73.3617 691.809 73.1578 691.063 73.1578 690.189C73.1578 689.42 73.3093 688.796 73.6123 688.318C73.9154 687.834 74.3204 687.456 74.8274 687.182C75.3344 686.908 75.8938 686.704 76.5057 686.57C77.1234 686.43 77.744 686.319 78.3676 686.238C79.1834 686.133 79.8448 686.054 80.3518 686.002C80.8647 685.943 81.2376 685.847 81.4707 685.713C81.7096 685.579 81.8291 685.346 81.8291 685.014V684.944C81.8291 684.082 81.5931 683.411 81.1211 682.934C80.6549 682.456 79.9468 682.217 78.9969 682.217C78.0121 682.217 77.2399 682.432 76.6805 682.864C76.1211 683.295 75.7277 683.755 75.5004 684.245L73.5424 683.545C73.892 682.73 74.3582 682.094 74.941 681.64C75.5296 681.179 76.1706 680.859 76.8641 680.678C77.5634 680.492 78.251 680.399 78.927 680.399C79.3582 680.399 79.8536 680.451 80.413 680.556C80.9783 680.655 81.5232 680.862 82.0476 681.177C82.5779 681.491 83.0179 681.966 83.3676 682.601C83.7172 683.237 83.892 684.087 83.892 685.154V694H81.8291V692.182H81.7242C81.5844 692.473 81.3513 692.785 81.0249 693.117C80.6986 693.449 80.2644 693.732 79.7225 693.965C79.1805 694.198 78.5191 694.315 77.7382 694.315ZM78.0529 692.462C78.8687 692.462 79.5564 692.301 80.1158 691.981C80.6811 691.66 81.1065 691.247 81.392 690.74C81.6834 690.233 81.8291 689.699 81.8291 689.14V687.252C81.7417 687.357 81.5494 687.453 81.2522 687.54C80.9608 687.622 80.6228 687.695 80.2382 687.759C79.8594 687.817 79.4894 687.869 79.1281 687.916C78.7726 687.957 78.4841 687.992 78.2627 688.021C77.7265 688.091 77.2254 688.205 76.7592 688.362C76.2988 688.513 75.9258 688.744 75.6403 689.052C75.3606 689.355 75.2207 689.769 75.2207 690.294C75.2207 691.01 75.4859 691.552 76.0162 691.92C76.5523 692.281 77.2312 692.462 78.0529 692.462ZM89.7203 676.098V694H87.6573V676.098H89.7203ZM99.1281 694.28C97.8344 694.28 96.7184 693.994 95.7802 693.423C94.8478 692.846 94.1281 692.042 93.6211 691.01C93.1199 689.973 92.8693 688.767 92.8693 687.392C92.8693 686.016 93.1199 684.804 93.6211 683.755C94.1281 682.7 94.8332 681.879 95.7365 681.29C96.6455 680.696 97.7061 680.399 98.9183 680.399C99.6176 680.399 100.308 680.515 100.99 680.748C101.672 680.981 102.292 681.36 102.852 681.885C103.411 682.403 103.857 683.091 104.189 683.948C104.521 684.804 104.687 685.859 104.687 687.112V687.986H94.3378V686.203H102.59C102.59 685.445 102.438 684.769 102.135 684.175C101.838 683.58 101.412 683.111 100.859 682.767C100.311 682.424 99.6642 682.252 98.9183 682.252C98.0966 682.252 97.3856 682.456 96.7854 682.864C96.191 683.266 95.7335 683.79 95.413 684.437C95.0925 685.084 94.9323 685.777 94.9323 686.517V687.706C94.9323 688.72 95.1071 689.58 95.4567 690.285C95.8122 690.984 96.3046 691.517 96.934 691.885C97.5634 692.246 98.2947 692.427 99.1281 692.427C99.67 692.427 100.16 692.351 100.597 692.199C101.039 692.042 101.421 691.809 101.742 691.5C102.062 691.185 102.31 690.795 102.485 690.329L104.478 690.888C104.268 691.564 103.915 692.159 103.42 692.671C102.925 693.178 102.313 693.575 101.584 693.86C100.856 694.14 100.037 694.28 99.1281 694.28Z" fill="black"/>
<path d="M211.168 694V676.098H221.902V678.021H213.336V684.07H221.098V685.993H213.336V694H211.168ZM229.979 694.28C228.685 694.28 227.569 693.994 226.631 693.423C225.699 692.846 224.979 692.042 224.472 691.01C223.971 689.973 223.72 688.767 223.72 687.392C223.72 686.016 223.971 684.804 224.472 683.755C224.979 682.7 225.684 681.879 226.587 681.29C227.497 680.696 228.557 680.399 229.769 680.399C230.469 680.399 231.159 680.515 231.841 680.748C232.523 680.981 233.143 681.36 233.703 681.885C234.262 682.403 234.708 683.091 235.04 683.948C235.372 684.804 235.538 685.859 235.538 687.112V687.986H225.189V686.203H233.441C233.441 685.445 233.289 684.769 232.986 684.175C232.689 683.58 232.263 683.111 231.71 682.767C231.162 682.424 230.515 682.252 229.769 682.252C228.948 682.252 228.237 682.456 227.636 682.864C227.042 683.266 226.584 683.79 226.264 684.437C225.943 685.084 225.783 685.777 225.783 686.517V687.706C225.783 688.72 225.958 689.58 226.308 690.285C226.663 690.984 227.156 691.517 227.785 691.885C228.414 692.246 229.146 692.427 229.979 692.427C230.521 692.427 231.01 692.351 231.448 692.199C231.89 692.042 232.272 691.809 232.593 691.5C232.913 691.185 233.161 690.795 233.336 690.329L235.329 690.888C235.119 691.564 234.766 692.159 234.271 692.671C233.776 693.178 233.164 693.575 232.435 693.86C231.707 694.14 230.888 694.28 229.979 694.28ZM238.677 694V680.573H240.67V682.671H240.844C241.124 681.955 241.576 681.398 242.199 681.002C242.823 680.6 243.572 680.399 244.446 680.399C245.332 680.399 246.069 680.6 246.657 681.002C247.252 681.398 247.715 681.955 248.047 682.671H248.187C248.531 681.978 249.047 681.427 249.734 681.019C250.422 680.605 251.247 680.399 252.208 680.399C253.409 680.399 254.39 680.774 255.154 681.526C255.917 682.272 256.299 683.435 256.299 685.014V694H254.236V685.014C254.236 684.023 253.965 683.315 253.423 682.89C252.881 682.464 252.243 682.252 251.509 682.252C250.565 682.252 249.833 682.537 249.315 683.108C248.796 683.674 248.537 684.39 248.537 685.259V694H246.439V684.804C246.439 684.041 246.191 683.426 245.696 682.96C245.2 682.488 244.562 682.252 243.781 682.252C243.245 682.252 242.744 682.395 242.278 682.68C241.818 682.966 241.445 683.362 241.159 683.869C240.879 684.37 240.74 684.95 240.74 685.608V694H238.677ZM264.022 694.315C263.171 694.315 262.399 694.154 261.705 693.834C261.012 693.508 260.461 693.038 260.053 692.427C259.645 691.809 259.441 691.063 259.441 690.189C259.441 689.42 259.593 688.796 259.896 688.318C260.199 687.834 260.604 687.456 261.111 687.182C261.618 686.908 262.177 686.704 262.789 686.57C263.407 686.43 264.028 686.319 264.651 686.238C265.467 686.133 266.128 686.054 266.635 686.002C267.148 685.943 267.521 685.847 267.754 685.713C267.993 685.579 268.113 685.346 268.113 685.014V684.944C268.113 684.082 267.877 683.411 267.405 682.934C266.939 682.456 266.23 682.217 265.281 682.217C264.296 682.217 263.524 682.432 262.964 682.864C262.405 683.295 262.011 683.755 261.784 684.245L259.826 683.545C260.176 682.73 260.642 682.094 261.225 681.64C261.813 681.179 262.454 680.859 263.148 680.678C263.847 680.492 264.535 680.399 265.211 680.399C265.642 680.399 266.137 680.451 266.697 680.556C267.262 680.655 267.807 680.862 268.331 681.177C268.862 681.491 269.302 681.966 269.651 682.601C270.001 683.237 270.176 684.087 270.176 685.154V694H268.113V692.182H268.008C267.868 692.473 267.635 692.785 267.309 693.117C266.982 693.449 266.548 693.732 266.006 693.965C265.464 694.198 264.803 694.315 264.022 694.315ZM264.337 692.462C265.152 692.462 265.84 692.301 266.399 691.981C266.965 691.66 267.39 691.247 267.676 690.74C267.967 690.233 268.113 689.699 268.113 689.14V687.252C268.025 687.357 267.833 687.453 267.536 687.54C267.244 687.622 266.906 687.695 266.522 687.759C266.143 687.817 265.773 687.869 265.412 687.916C265.056 687.957 264.768 687.992 264.546 688.021C264.01 688.091 263.509 688.205 263.043 688.362C262.582 688.513 262.21 688.744 261.924 689.052C261.644 689.355 261.504 689.769 261.504 690.294C261.504 691.01 261.77 691.552 262.3 691.92C262.836 692.281 263.515 692.462 264.337 692.462ZM276.004 676.098V694H273.941V676.098H276.004ZM285.412 694.28C284.118 694.28 283.002 693.994 282.064 693.423C281.131 692.846 280.412 692.042 279.905 691.01C279.404 689.973 279.153 688.767 279.153 687.392C279.153 686.016 279.404 684.804 279.905 683.755C280.412 682.7 281.117 681.879 282.02 681.29C282.929 680.696 283.99 680.399 285.202 680.399C285.901 680.399 286.592 680.515 287.274 680.748C287.955 680.981 288.576 681.36 289.135 681.885C289.695 682.403 290.141 683.091 290.473 683.948C290.805 684.804 290.971 685.859 290.971 687.112V687.986H280.622V686.203H288.873C288.873 685.445 288.722 684.769 288.419 684.175C288.122 683.58 287.696 683.111 287.142 682.767C286.595 682.424 285.948 682.252 285.202 682.252C284.38 682.252 283.669 682.456 283.069 682.864C282.475 683.266 282.017 683.79 281.697 684.437C281.376 685.084 281.216 685.777 281.216 686.517V687.706C281.216 688.72 281.391 689.58 281.74 690.285C282.096 690.984 282.588 691.517 283.218 691.885C283.847 692.246 284.578 692.427 285.412 692.427C285.954 692.427 286.443 692.351 286.88 692.199C287.323 692.042 287.705 691.809 288.025 691.5C288.346 691.185 288.594 690.795 288.768 690.329L290.761 690.888C290.552 691.564 290.199 692.159 289.704 692.671C289.208 693.178 288.596 693.575 287.868 693.86C287.14 694.14 286.321 694.28 285.412 694.28Z" fill="black"/>
<ellipse cx="146" cy="687.5" rx="11" ry="6.5" fill="#D9D9D9"/>
<ellipse cx="336" cy="687.5" rx="11" ry="6.5" fill="#D9D9D9"/>
<rect x="113" y="782" width="204" height="47" fill="#D9D9D9"/>
<path d="M175.168 813V795.098H181.217C182.615 795.098 183.763 795.337 184.661 795.815C185.558 796.287 186.223 796.936 186.654 797.764C187.085 798.591 187.301 799.533 187.301 800.587C187.301 801.642 187.085 802.578 186.654 803.393C186.223 804.209 185.561 804.85 184.67 805.316C183.778 805.777 182.639 806.007 181.252 806.007H176.357V804.049H181.182C182.138 804.049 182.907 803.909 183.49 803.629C184.078 803.35 184.503 802.953 184.766 802.441C185.034 801.922 185.168 801.304 185.168 800.587C185.168 799.871 185.034 799.244 184.766 798.708C184.498 798.172 184.069 797.758 183.481 797.467C182.892 797.17 182.114 797.021 181.147 797.021H177.336V813H175.168ZM183.594 804.958L188 813H185.483L181.147 804.958H183.594ZM196.118 813.28C194.825 813.28 193.709 812.994 192.771 812.423C191.838 811.846 191.118 811.042 190.611 810.01C190.11 808.973 189.86 807.767 189.86 806.392C189.86 805.016 190.11 803.804 190.611 802.755C191.118 801.7 191.824 800.879 192.727 800.29C193.636 799.696 194.697 799.399 195.909 799.399C196.608 799.399 197.299 799.515 197.98 799.748C198.662 799.981 199.283 800.36 199.842 800.885C200.402 801.403 200.847 802.091 201.18 802.948C201.512 803.804 201.678 804.859 201.678 806.112V806.986H191.328V805.203H199.58C199.58 804.445 199.428 803.769 199.125 803.175C198.828 802.58 198.403 802.111 197.849 801.767C197.301 801.424 196.655 801.252 195.909 801.252C195.087 801.252 194.376 801.456 193.776 801.864C193.181 802.266 192.724 802.79 192.403 803.437C192.083 804.084 191.923 804.777 191.923 805.517V806.706C191.923 807.72 192.097 808.58 192.447 809.285C192.803 809.984 193.295 810.517 193.924 810.885C194.554 811.246 195.285 811.427 196.118 811.427C196.66 811.427 197.15 811.351 197.587 811.199C198.03 811.042 198.412 810.809 198.732 810.5C199.053 810.185 199.3 809.795 199.475 809.329L201.468 809.888C201.258 810.564 200.906 811.159 200.41 811.671C199.915 812.178 199.303 812.575 198.575 812.86C197.846 813.14 197.028 813.28 196.118 813.28ZM210.236 818.315C209.239 818.315 208.382 818.186 207.666 817.93C206.949 817.679 206.352 817.347 205.874 816.934C205.402 816.526 205.026 816.089 204.746 815.622L206.389 814.469C206.576 814.713 206.812 814.993 207.097 815.308C207.383 815.628 207.773 815.905 208.269 816.138C208.77 816.377 209.426 816.497 210.236 816.497C211.319 816.497 212.214 816.234 212.919 815.71C213.624 815.185 213.977 814.364 213.977 813.245V810.517H213.802C213.65 810.762 213.435 811.065 213.155 811.427C212.881 811.782 212.485 812.1 211.966 812.379C211.454 812.653 210.76 812.79 209.886 812.79C208.802 812.79 207.829 812.534 206.966 812.021C206.11 811.508 205.431 810.762 204.93 809.783C204.434 808.804 204.187 807.615 204.187 806.217C204.187 804.841 204.428 803.644 204.912 802.624C205.396 801.598 206.069 800.806 206.931 800.247C207.794 799.681 208.79 799.399 209.921 799.399C210.795 799.399 211.488 799.544 212.001 799.836C212.52 800.121 212.916 800.448 213.19 800.815C213.47 801.176 213.685 801.473 213.837 801.706H214.047V799.573H216.04V813.385C216.04 814.538 215.778 815.477 215.253 816.199C214.734 816.928 214.035 817.461 213.155 817.799C212.281 818.143 211.308 818.315 210.236 818.315ZM210.166 810.937C210.993 810.937 211.692 810.748 212.264 810.369C212.835 809.99 213.269 809.445 213.566 808.734C213.863 808.023 214.012 807.172 214.012 806.182C214.012 805.214 213.866 804.361 213.575 803.621C213.283 802.881 212.852 802.301 212.281 801.881C211.71 801.462 211.005 801.252 210.166 801.252C209.292 801.252 208.563 801.473 207.98 801.916C207.403 802.359 206.969 802.953 206.678 803.699C206.392 804.445 206.25 805.273 206.25 806.182C206.25 807.114 206.395 807.939 206.687 808.656C206.984 809.367 207.421 809.926 207.998 810.334C208.581 810.736 209.303 810.937 210.166 810.937ZM219.816 813V799.573H221.879V813H219.816ZM220.865 797.336C220.463 797.336 220.116 797.199 219.825 796.925C219.539 796.651 219.396 796.322 219.396 795.937C219.396 795.552 219.539 795.223 219.825 794.949C220.116 794.675 220.463 794.538 220.865 794.538C221.267 794.538 221.611 794.675 221.896 794.949C222.188 795.223 222.333 795.552 222.333 795.937C222.333 796.322 222.188 796.651 221.896 796.925C221.611 797.199 221.267 797.336 220.865 797.336ZM235.168 802.58L233.315 803.105C233.198 802.796 233.026 802.496 232.799 802.205C232.578 801.907 232.274 801.663 231.89 801.47C231.505 801.278 231.013 801.182 230.413 801.182C229.591 801.182 228.906 801.371 228.358 801.75C227.816 802.123 227.545 802.598 227.545 803.175C227.545 803.688 227.732 804.093 228.105 804.39C228.478 804.687 229.061 804.935 229.853 805.133L231.846 805.622C233.047 805.914 233.941 806.36 234.53 806.96C235.118 807.554 235.413 808.321 235.413 809.259C235.413 810.028 235.191 810.716 234.748 811.322C234.311 811.928 233.699 812.406 232.913 812.755C232.126 813.105 231.211 813.28 230.168 813.28C228.798 813.28 227.665 812.983 226.767 812.388C225.87 811.794 225.302 810.925 225.063 809.783L227.021 809.294C227.207 810.016 227.56 810.558 228.079 810.92C228.603 811.281 229.288 811.462 230.133 811.462C231.094 811.462 231.858 811.258 232.423 810.85C232.994 810.436 233.28 809.941 233.28 809.364C233.28 808.897 233.117 808.507 232.79 808.192C232.464 807.872 231.963 807.633 231.287 807.476L229.049 806.951C227.819 806.66 226.916 806.208 226.339 805.596C225.768 804.978 225.483 804.206 225.483 803.28C225.483 802.522 225.695 801.852 226.121 801.269C226.552 800.686 227.138 800.229 227.878 799.897C228.624 799.565 229.469 799.399 230.413 799.399C231.741 799.399 232.784 799.69 233.542 800.273C234.305 800.855 234.847 801.625 235.168 802.58ZM244.357 799.573V801.322H237.399V799.573H244.357ZM239.427 796.357H241.49V809.154C241.49 809.737 241.574 810.174 241.743 810.465C241.918 810.751 242.14 810.943 242.408 811.042C242.682 811.135 242.97 811.182 243.273 811.182C243.5 811.182 243.687 811.17 243.833 811.147C243.978 811.118 244.095 811.094 244.182 811.077L244.602 812.93C244.462 812.983 244.267 813.035 244.016 813.087C243.766 813.146 243.448 813.175 243.063 813.175C242.481 813.175 241.91 813.05 241.35 812.799C240.796 812.548 240.336 812.167 239.969 811.654C239.608 811.141 239.427 810.494 239.427 809.713V796.357ZM252.945 813.28C251.652 813.28 250.536 812.994 249.597 812.423C248.665 811.846 247.945 811.042 247.438 810.01C246.937 808.973 246.687 807.767 246.687 806.392C246.687 805.016 246.937 803.804 247.438 802.755C247.945 801.7 248.65 800.879 249.554 800.29C250.463 799.696 251.523 799.399 252.736 799.399C253.435 799.399 254.125 799.515 254.807 799.748C255.489 799.981 256.11 800.36 256.669 800.885C257.229 801.403 257.674 802.091 258.007 802.948C258.339 803.804 258.505 804.859 258.505 806.112V806.986H248.155V805.203H256.407C256.407 804.445 256.255 803.769 255.952 803.175C255.655 802.58 255.23 802.111 254.676 801.767C254.128 801.424 253.482 801.252 252.736 801.252C251.914 801.252 251.203 801.456 250.603 801.864C250.008 802.266 249.551 802.79 249.23 803.437C248.91 804.084 248.75 804.777 248.75 805.517V806.706C248.75 807.72 248.924 808.58 249.274 809.285C249.63 809.984 250.122 810.517 250.751 810.885C251.381 811.246 252.112 811.427 252.945 811.427C253.487 811.427 253.977 811.351 254.414 811.199C254.857 811.042 255.238 810.809 255.559 810.5C255.88 810.185 256.127 809.795 256.302 809.329L258.295 809.888C258.085 810.564 257.733 811.159 257.237 811.671C256.742 812.178 256.13 812.575 255.402 812.86C254.673 813.14 253.854 813.28 252.945 813.28ZM261.643 813V799.573H263.636V801.601H263.776C264.021 800.937 264.463 800.398 265.104 799.984C265.745 799.571 266.468 799.364 267.272 799.364C267.424 799.364 267.613 799.367 267.84 799.372C268.068 799.378 268.24 799.387 268.356 799.399V801.497C268.286 801.479 268.126 801.453 267.875 801.418C267.631 801.377 267.371 801.357 267.097 801.357C266.445 801.357 265.862 801.494 265.349 801.767C264.842 802.036 264.44 802.409 264.143 802.886C263.852 803.358 263.706 803.897 263.706 804.503V813H261.643Z" fill="black"/>
</svg>
