<svg width="430" height="932" viewBox="0 0 430 932" fill="none" xmlns="http://www.w3.org/2000/svg">
<rect width="430" height="932" fill="white"/>
<path d="M0 0H430V336C409.5 274 210.5 274 210.5 274C210.5 274 59 274 0 336V0Z" fill="#D9D9D9"/>
<g filter="url(#filter0_d_29_378)">
<ellipse cx="215" cy="158.5" rx="82" ry="73.5" fill="#D9D9D9"/>
<path d="M187.168 163V145.098H189.336V161.077H197.657V163H187.168ZM206.189 163.28C204.977 163.28 203.913 162.991 202.998 162.414C202.089 161.837 201.378 161.03 200.865 159.993C200.358 158.956 200.105 157.744 200.105 156.357C200.105 154.958 200.358 153.737 200.865 152.694C201.378 151.651 202.089 150.841 202.998 150.264C203.913 149.687 204.977 149.399 206.189 149.399C207.401 149.399 208.462 149.687 209.371 150.264C210.286 150.841 210.997 151.651 211.503 152.694C212.016 153.737 212.273 154.958 212.273 156.357C212.273 157.744 212.016 158.956 211.503 159.993C210.997 161.03 210.286 161.837 209.371 162.414C208.462 162.991 207.401 163.28 206.189 163.28ZM206.189 161.427C207.11 161.427 207.867 161.191 208.462 160.719C209.056 160.247 209.496 159.626 209.781 158.857C210.067 158.087 210.21 157.254 210.21 156.357C210.21 155.459 210.067 154.623 209.781 153.848C209.496 153.073 209.056 152.446 208.462 151.969C207.867 151.491 207.11 151.252 206.189 151.252C205.268 151.252 204.51 151.491 203.916 151.969C203.322 152.446 202.882 153.073 202.596 153.848C202.311 154.623 202.168 155.459 202.168 156.357C202.168 157.254 202.311 158.087 202.596 158.857C202.882 159.626 203.322 160.247 203.916 160.719C204.51 161.191 205.268 161.427 206.189 161.427ZM220.841 168.315C219.845 168.315 218.988 168.186 218.271 167.93C217.555 167.679 216.957 167.347 216.479 166.934C216.007 166.526 215.632 166.089 215.352 165.622L216.995 164.469C217.182 164.713 217.418 164.993 217.703 165.308C217.989 165.628 218.379 165.905 218.875 166.138C219.376 166.377 220.031 166.497 220.841 166.497C221.925 166.497 222.82 166.234 223.525 165.71C224.23 165.185 224.583 164.364 224.583 163.245V160.517H224.408C224.256 160.762 224.041 161.065 223.761 161.427C223.487 161.782 223.091 162.1 222.572 162.379C222.059 162.653 221.366 162.79 220.492 162.79C219.408 162.79 218.435 162.534 217.572 162.021C216.715 161.508 216.037 160.762 215.535 159.783C215.04 158.804 214.792 157.615 214.792 156.217C214.792 154.841 215.034 153.644 215.518 152.624C216.002 151.598 216.675 150.806 217.537 150.247C218.4 149.681 219.396 149.399 220.527 149.399C221.401 149.399 222.094 149.544 222.607 149.836C223.126 150.121 223.522 150.448 223.796 150.815C224.076 151.176 224.291 151.473 224.443 151.706H224.653V149.573H226.646V163.385C226.646 164.538 226.383 165.477 225.859 166.199C225.34 166.928 224.641 167.461 223.761 167.799C222.887 168.143 221.914 168.315 220.841 168.315ZM220.771 160.937C221.599 160.937 222.298 160.748 222.869 160.369C223.44 159.99 223.875 159.445 224.172 158.734C224.469 158.023 224.618 157.172 224.618 156.182C224.618 155.214 224.472 154.361 224.181 153.621C223.889 152.881 223.458 152.301 222.887 151.881C222.316 151.462 221.611 151.252 220.771 151.252C219.897 151.252 219.169 151.473 218.586 151.916C218.009 152.359 217.575 152.953 217.284 153.699C216.998 154.445 216.855 155.273 216.855 156.182C216.855 157.114 217.001 157.939 217.292 158.656C217.59 159.367 218.027 159.926 218.604 160.334C219.186 160.736 219.909 160.937 220.771 160.937ZM235.876 163.28C234.664 163.28 233.601 162.991 232.686 162.414C231.777 161.837 231.066 161.03 230.553 159.993C230.046 158.956 229.792 157.744 229.792 156.357C229.792 154.958 230.046 153.737 230.553 152.694C231.066 151.651 231.777 150.841 232.686 150.264C233.601 149.687 234.664 149.399 235.876 149.399C237.088 149.399 238.149 149.687 239.058 150.264C239.973 150.841 240.684 151.651 241.191 152.694C241.704 153.737 241.96 154.958 241.96 156.357C241.96 157.744 241.704 158.956 241.191 159.993C240.684 161.03 239.973 161.837 239.058 162.414C238.149 162.991 237.088 163.28 235.876 163.28ZM235.876 161.427C236.797 161.427 237.555 161.191 238.149 160.719C238.743 160.247 239.183 159.626 239.469 158.857C239.755 158.087 239.897 157.254 239.897 156.357C239.897 155.459 239.755 154.623 239.469 153.848C239.183 153.073 238.743 152.446 238.149 151.969C237.555 151.491 236.797 151.252 235.876 151.252C234.956 151.252 234.198 151.491 233.604 151.969C233.009 152.446 232.569 153.073 232.284 153.848C231.998 154.623 231.855 155.459 231.855 156.357C231.855 157.254 231.998 158.087 232.284 158.857C232.569 159.626 233.009 160.247 233.604 160.719C234.198 161.191 234.956 161.427 235.876 161.427Z" fill="black"/>
</g>
<line y1="491.5" x2="430" y2="491.5" stroke="black"/>
<rect x="79" y="359" width="264" height="73" fill="#D9D9D9"/>
<rect x="79" y="580" width="264" height="73" fill="#D9D9D9"/>
<path d="M175.692 621H170.168V603.098H175.937C177.674 603.098 179.16 603.456 180.395 604.173C181.631 604.884 182.578 605.907 183.236 607.241C183.895 608.57 184.224 610.161 184.224 612.014C184.224 613.879 183.892 615.484 183.227 616.83C182.563 618.171 181.596 619.202 180.325 619.925C179.055 620.642 177.51 621 175.692 621ZM172.336 619.077H175.552C177.033 619.077 178.259 618.791 179.233 618.22C180.206 617.649 180.931 616.836 181.409 615.781C181.887 614.727 182.126 613.471 182.126 612.014C182.126 610.569 181.89 609.325 181.418 608.281C180.946 607.233 180.241 606.428 179.302 605.869C178.364 605.304 177.196 605.021 175.797 605.021H172.336V619.077ZM187.58 621V607.573H189.573V609.601H189.713C189.958 608.937 190.401 608.398 191.042 607.984C191.683 607.571 192.406 607.364 193.21 607.364C193.361 607.364 193.551 607.367 193.778 607.372C194.005 607.378 194.177 607.387 194.294 607.399V609.497C194.224 609.479 194.064 609.453 193.813 609.418C193.568 609.377 193.309 609.357 193.035 609.357C192.382 609.357 191.8 609.494 191.287 609.767C190.78 610.036 190.378 610.409 190.08 610.886C189.789 611.358 189.643 611.897 189.643 612.503V621H187.58ZM196.739 621V607.573H198.802V621H196.739ZM197.788 605.336C197.386 605.336 197.039 605.199 196.748 604.925C196.462 604.651 196.319 604.322 196.319 603.937C196.319 603.552 196.462 603.223 196.748 602.949C197.039 602.675 197.386 602.538 197.788 602.538C198.19 602.538 198.534 602.675 198.819 602.949C199.111 603.223 199.257 603.552 199.257 603.937C199.257 604.322 199.111 604.651 198.819 604.925C198.534 605.199 198.19 605.336 197.788 605.336ZM213.559 607.573L208.594 621H206.497L201.531 607.573H203.769L207.476 618.273H207.615L211.322 607.573H213.559ZM221.431 621.28C220.137 621.28 219.021 620.994 218.083 620.423C217.151 619.846 216.431 619.042 215.924 618.01C215.423 616.973 215.172 615.767 215.172 614.392C215.172 613.016 215.423 611.804 215.924 610.755C216.431 609.7 217.136 608.879 218.039 608.29C218.948 607.696 220.009 607.399 221.221 607.399C221.92 607.399 222.611 607.515 223.293 607.748C223.975 607.981 224.595 608.36 225.155 608.885C225.714 609.403 226.16 610.091 226.492 610.948C226.824 611.804 226.99 612.859 226.99 614.112V614.986H216.641V613.203H224.892C224.892 612.445 224.741 611.769 224.438 611.175C224.141 610.58 223.715 610.111 223.162 609.767C222.614 609.424 221.967 609.252 221.221 609.252C220.399 609.252 219.689 609.456 219.088 609.864C218.494 610.266 218.036 610.79 217.716 611.437C217.395 612.084 217.235 612.777 217.235 613.517V614.706C217.235 615.72 217.41 616.58 217.76 617.285C218.115 617.984 218.608 618.517 219.237 618.885C219.866 619.246 220.598 619.427 221.431 619.427C221.973 619.427 222.462 619.351 222.899 619.199C223.342 619.042 223.724 618.809 224.045 618.5C224.365 618.185 224.613 617.795 224.788 617.329L226.781 617.888C226.571 618.564 226.218 619.159 225.723 619.671C225.228 620.178 224.616 620.575 223.887 620.86C223.159 621.14 222.34 621.28 221.431 621.28ZM230.128 621V607.573H232.122V609.601H232.261C232.506 608.937 232.949 608.398 233.59 607.984C234.231 607.571 234.954 607.364 235.758 607.364C235.909 607.364 236.099 607.367 236.326 607.372C236.553 607.378 236.725 607.387 236.842 607.399V609.497C236.772 609.479 236.612 609.453 236.361 609.418C236.116 609.377 235.857 609.357 235.583 609.357C234.93 609.357 234.348 609.494 233.835 609.767C233.328 610.036 232.926 610.409 232.628 610.886C232.337 611.358 232.191 611.897 232.191 612.503V621H230.128ZM248.903 615.965V615.86C248.914 614.747 249.031 613.861 249.252 613.203C249.474 612.544 249.788 612.011 250.196 611.603C250.604 611.195 251.094 610.819 251.665 610.476C252.009 610.266 252.317 610.018 252.591 609.733C252.865 609.441 253.081 609.106 253.238 608.727C253.401 608.348 253.483 607.929 253.483 607.469C253.483 606.897 253.349 606.402 253.081 605.983C252.813 605.563 252.454 605.24 252.006 605.012C251.557 604.785 251.059 604.671 250.511 604.671C250.033 604.671 249.573 604.77 249.13 604.969C248.687 605.167 248.317 605.478 248.02 605.904C247.722 606.329 247.551 606.886 247.504 607.573H245.301C245.348 606.583 245.604 605.735 246.07 605.03C246.542 604.325 247.163 603.786 247.932 603.413C248.707 603.04 249.567 602.853 250.511 602.853C251.537 602.853 252.428 603.057 253.186 603.465C253.949 603.873 254.538 604.432 254.951 605.143C255.371 605.854 255.581 606.664 255.581 607.573C255.581 608.214 255.482 608.794 255.284 609.313C255.091 609.832 254.812 610.295 254.444 610.703C254.083 611.111 253.646 611.472 253.133 611.787C252.62 612.107 252.21 612.445 251.901 612.801C251.592 613.15 251.368 613.567 251.228 614.051C251.088 614.534 251.012 615.138 251 615.86V615.965H248.903ZM250.021 621.14C249.59 621.14 249.22 620.985 248.911 620.677C248.602 620.368 248.448 619.998 248.448 619.566C248.448 619.135 248.602 618.765 248.911 618.456C249.22 618.147 249.59 617.993 250.021 617.993C250.453 617.993 250.823 618.147 251.132 618.456C251.44 618.765 251.595 619.135 251.595 619.566C251.595 619.852 251.522 620.114 251.376 620.353C251.236 620.592 251.047 620.784 250.808 620.93C250.575 621.07 250.313 621.14 250.021 621.14Z" fill="black"/>
<path d="M143.168 399V381.098H149.217C150.621 381.098 151.769 381.351 152.661 381.858C153.558 382.36 154.223 383.038 154.654 383.895C155.085 384.752 155.301 385.707 155.301 386.762C155.301 387.817 155.085 388.776 154.654 389.638C154.228 390.501 153.57 391.188 152.678 391.701C151.787 392.208 150.645 392.462 149.252 392.462H144.916V390.538H149.182C150.143 390.538 150.916 390.372 151.498 390.04C152.081 389.708 152.503 389.259 152.766 388.694C153.034 388.123 153.168 387.479 153.168 386.762C153.168 386.045 153.034 385.404 152.766 384.839C152.503 384.274 152.078 383.831 151.49 383.51C150.901 383.184 150.12 383.021 149.147 383.021H145.336V399H143.168ZM162.464 399.315C161.613 399.315 160.841 399.154 160.148 398.834C159.454 398.508 158.904 398.038 158.496 397.427C158.088 396.809 157.884 396.063 157.884 395.189C157.884 394.42 158.035 393.796 158.338 393.318C158.641 392.834 159.046 392.456 159.553 392.182C160.06 391.908 160.62 391.704 161.232 391.57C161.849 391.43 162.47 391.319 163.094 391.238C163.909 391.133 164.571 391.054 165.078 391.002C165.591 390.943 165.964 390.847 166.197 390.713C166.436 390.579 166.555 390.346 166.555 390.014V389.944C166.555 389.082 166.319 388.411 165.847 387.934C165.381 387.456 164.673 387.217 163.723 387.217C162.738 387.217 161.966 387.432 161.406 387.864C160.847 388.295 160.454 388.755 160.226 389.245L158.268 388.545C158.618 387.73 159.084 387.094 159.667 386.64C160.256 386.179 160.897 385.859 161.59 385.678C162.289 385.492 162.977 385.399 163.653 385.399C164.084 385.399 164.58 385.451 165.139 385.556C165.704 385.655 166.249 385.862 166.774 386.177C167.304 386.491 167.744 386.966 168.094 387.601C168.443 388.237 168.618 389.087 168.618 390.154V399H166.555V397.182H166.45C166.31 397.473 166.077 397.785 165.751 398.117C165.425 398.449 164.99 398.732 164.448 398.965C163.906 399.198 163.245 399.315 162.464 399.315ZM162.779 397.462C163.595 397.462 164.282 397.301 164.842 396.981C165.407 396.66 165.832 396.247 166.118 395.74C166.409 395.233 166.555 394.699 166.555 394.14V392.252C166.468 392.357 166.275 392.453 165.978 392.54C165.687 392.622 165.349 392.695 164.964 392.759C164.585 392.817 164.215 392.869 163.854 392.916C163.499 392.957 163.21 392.992 162.989 393.021C162.453 393.091 161.951 393.205 161.485 393.362C161.025 393.513 160.652 393.744 160.366 394.052C160.087 394.355 159.947 394.769 159.947 395.294C159.947 396.01 160.212 396.552 160.742 396.92C161.278 397.281 161.957 397.462 162.779 397.462ZM181.894 388.58L180.041 389.105C179.924 388.796 179.752 388.496 179.525 388.205C179.303 387.907 179 387.663 178.616 387.47C178.231 387.278 177.739 387.182 177.139 387.182C176.317 387.182 175.632 387.371 175.084 387.75C174.542 388.123 174.271 388.598 174.271 389.175C174.271 389.688 174.458 390.093 174.831 390.39C175.204 390.687 175.787 390.935 176.579 391.133L178.572 391.622C179.773 391.914 180.667 392.36 181.256 392.96C181.844 393.554 182.139 394.321 182.139 395.259C182.139 396.028 181.917 396.716 181.474 397.322C181.037 397.928 180.425 398.406 179.639 398.755C178.852 399.105 177.937 399.28 176.894 399.28C175.524 399.28 174.391 398.983 173.493 398.388C172.596 397.794 172.028 396.925 171.789 395.783L173.747 395.294C173.933 396.016 174.286 396.558 174.805 396.92C175.329 397.281 176.014 397.462 176.859 397.462C177.82 397.462 178.584 397.258 179.149 396.85C179.72 396.436 180.006 395.941 180.006 395.364C180.006 394.897 179.843 394.507 179.516 394.192C179.19 393.872 178.689 393.633 178.013 393.476L175.775 392.951C174.545 392.66 173.642 392.208 173.065 391.596C172.494 390.978 172.208 390.206 172.208 389.28C172.208 388.522 172.421 387.852 172.847 387.269C173.278 386.686 173.863 386.229 174.604 385.897C175.35 385.565 176.194 385.399 177.139 385.399C178.467 385.399 179.51 385.69 180.268 386.273C181.031 386.855 181.573 387.625 181.894 388.58ZM194.754 388.58L192.901 389.105C192.785 388.796 192.613 388.496 192.385 388.205C192.164 387.907 191.861 387.663 191.476 387.47C191.092 387.278 190.599 387.182 189.999 387.182C189.177 387.182 188.493 387.371 187.945 387.75C187.403 388.123 187.132 388.598 187.132 389.175C187.132 389.688 187.318 390.093 187.691 390.39C188.064 390.687 188.647 390.935 189.44 391.133L191.433 391.622C192.633 391.914 193.528 392.36 194.116 392.96C194.705 393.554 194.999 394.321 194.999 395.259C194.999 396.028 194.778 396.716 194.335 397.322C193.898 397.928 193.286 398.406 192.499 398.755C191.712 399.105 190.797 399.28 189.754 399.28C188.385 399.28 187.251 398.983 186.354 398.388C185.457 397.794 184.888 396.925 184.649 395.783L186.608 395.294C186.794 396.016 187.147 396.558 187.665 396.92C188.19 397.281 188.874 397.462 189.719 397.462C190.681 397.462 191.444 397.258 192.01 396.85C192.581 396.436 192.866 395.941 192.866 395.364C192.866 394.897 192.703 394.507 192.377 394.192C192.05 393.872 191.549 393.633 190.873 393.476L188.635 392.951C187.406 392.66 186.503 392.208 185.926 391.596C185.355 390.978 185.069 390.206 185.069 389.28C185.069 388.522 185.282 387.852 185.707 387.269C186.138 386.686 186.724 386.229 187.464 385.897C188.21 385.565 189.055 385.399 189.999 385.399C191.328 385.399 192.371 385.69 193.128 386.273C193.892 386.855 194.434 387.625 194.754 388.58ZM203.734 399.28C202.44 399.28 201.324 398.994 200.386 398.423C199.454 397.846 198.734 397.042 198.227 396.01C197.726 394.973 197.475 393.767 197.475 392.392C197.475 391.016 197.726 389.804 198.227 388.755C198.734 387.7 199.439 386.879 200.342 386.29C201.251 385.696 202.312 385.399 203.524 385.399C204.223 385.399 204.914 385.515 205.596 385.748C206.278 385.981 206.898 386.36 207.458 386.885C208.017 387.403 208.463 388.091 208.795 388.948C209.127 389.804 209.293 390.859 209.293 392.112V392.986H198.944V391.203H207.195C207.195 390.445 207.044 389.769 206.741 389.175C206.444 388.58 206.018 388.111 205.465 387.767C204.917 387.424 204.27 387.252 203.524 387.252C202.702 387.252 201.991 387.456 201.391 387.864C200.797 388.266 200.339 388.79 200.019 389.437C199.698 390.084 199.538 390.777 199.538 391.517V392.706C199.538 393.72 199.713 394.58 200.063 395.285C200.418 395.984 200.91 396.517 201.54 396.885C202.169 397.246 202.9 397.427 203.734 397.427C204.276 397.427 204.765 397.351 205.202 397.199C205.645 397.042 206.027 396.809 206.347 396.5C206.668 396.185 206.916 395.795 207.09 395.329L209.083 395.888C208.874 396.564 208.521 397.159 208.026 397.671C207.53 398.178 206.919 398.575 206.19 398.86C205.462 399.14 204.643 399.28 203.734 399.28ZM214.494 390.923V399H212.431V385.573H214.424V387.671H214.599C214.914 386.99 215.392 386.442 216.033 386.028C216.674 385.608 217.501 385.399 218.515 385.399C219.424 385.399 220.22 385.585 220.902 385.958C221.583 386.325 222.114 386.885 222.493 387.636C222.871 388.382 223.061 389.326 223.061 390.469V399H220.998V390.608C220.998 389.554 220.724 388.732 220.176 388.143C219.628 387.549 218.877 387.252 217.921 387.252C217.262 387.252 216.674 387.395 216.155 387.68C215.642 387.966 215.237 388.382 214.94 388.93C214.643 389.478 214.494 390.142 214.494 390.923ZM232.25 404.315C231.253 404.315 230.397 404.186 229.68 403.93C228.963 403.679 228.366 403.347 227.888 402.934C227.416 402.526 227.04 402.089 226.76 401.622L228.404 400.469C228.59 400.713 228.826 400.993 229.112 401.308C229.397 401.628 229.788 401.905 230.283 402.138C230.784 402.377 231.44 402.497 232.25 402.497C233.334 402.497 234.228 402.234 234.934 401.71C235.639 401.185 235.991 400.364 235.991 399.245V396.517H235.816C235.665 396.762 235.449 397.065 235.17 397.427C234.896 397.782 234.499 398.1 233.981 398.379C233.468 398.653 232.774 398.79 231.9 398.79C230.816 398.79 229.843 398.534 228.981 398.021C228.124 397.508 227.445 396.762 226.944 395.783C226.449 394.804 226.201 393.615 226.201 392.217C226.201 390.841 226.443 389.644 226.927 388.624C227.41 387.598 228.083 386.806 228.946 386.247C229.808 385.681 230.805 385.399 231.935 385.399C232.809 385.399 233.503 385.544 234.016 385.836C234.534 386.121 234.931 386.448 235.205 386.815C235.484 387.176 235.7 387.473 235.851 387.706H236.061V385.573H238.054V399.385C238.054 400.538 237.792 401.477 237.267 402.199C236.749 402.928 236.05 403.461 235.17 403.799C234.295 404.143 233.322 404.315 232.25 404.315ZM232.18 396.937C233.008 396.937 233.707 396.748 234.278 396.369C234.849 395.99 235.283 395.445 235.58 394.734C235.878 394.023 236.026 393.172 236.026 392.182C236.026 391.214 235.881 390.361 235.589 389.621C235.298 388.881 234.867 388.301 234.295 387.881C233.724 387.462 233.019 387.252 232.18 387.252C231.306 387.252 230.578 387.473 229.995 387.916C229.418 388.359 228.984 388.953 228.692 389.699C228.407 390.445 228.264 391.273 228.264 392.182C228.264 393.114 228.41 393.939 228.701 394.656C228.998 395.367 229.435 395.926 230.012 396.334C230.595 396.736 231.318 396.937 232.18 396.937ZM247.46 399.28C246.166 399.28 245.05 398.994 244.112 398.423C243.179 397.846 242.46 397.042 241.953 396.01C241.452 394.973 241.201 393.767 241.201 392.392C241.201 391.016 241.452 389.804 241.953 388.755C242.46 387.7 243.165 386.879 244.068 386.29C244.977 385.696 246.038 385.399 247.25 385.399C247.949 385.399 248.64 385.515 249.322 385.748C250.003 385.981 250.624 386.36 251.184 386.885C251.743 387.403 252.189 388.091 252.521 388.948C252.853 389.804 253.019 390.859 253.019 392.112V392.986H242.67V391.203H250.921C250.921 390.445 250.77 389.769 250.467 389.175C250.17 388.58 249.744 388.111 249.191 387.767C248.643 387.424 247.996 387.252 247.25 387.252C246.428 387.252 245.717 387.456 245.117 387.864C244.523 388.266 244.065 388.79 243.745 389.437C243.424 390.084 243.264 390.777 243.264 391.517V392.706C243.264 393.72 243.439 394.58 243.788 395.285C244.144 395.984 244.636 396.517 245.266 396.885C245.895 397.246 246.626 397.427 247.46 397.427C248.002 397.427 248.491 397.351 248.928 397.199C249.371 397.042 249.753 396.809 250.073 396.5C250.394 396.185 250.642 395.795 250.816 395.329L252.809 395.888C252.6 396.564 252.247 397.159 251.752 397.671C251.256 398.178 250.645 398.575 249.916 398.86C249.188 399.14 248.369 399.28 247.46 399.28ZM256.157 399V385.573H258.15V387.601H258.29C258.535 386.937 258.978 386.398 259.619 385.984C260.26 385.571 260.983 385.364 261.787 385.364C261.938 385.364 262.128 385.367 262.355 385.372C262.582 385.378 262.754 385.387 262.871 385.399V387.497C262.801 387.479 262.64 387.453 262.39 387.418C262.145 387.377 261.886 387.357 261.612 387.357C260.959 387.357 260.376 387.494 259.864 387.767C259.357 388.036 258.955 388.409 258.657 388.886C258.366 389.358 258.22 389.897 258.22 390.503V399H256.157ZM274.931 393.965V393.86C274.943 392.747 275.06 391.861 275.281 391.203C275.502 390.544 275.817 390.011 276.225 389.603C276.633 389.195 277.123 388.819 277.694 388.476C278.037 388.266 278.346 388.018 278.62 387.733C278.894 387.441 279.11 387.106 279.267 386.727C279.43 386.348 279.512 385.929 279.512 385.469C279.512 384.897 279.378 384.402 279.11 383.983C278.842 383.563 278.483 383.24 278.035 383.012C277.586 382.785 277.088 382.671 276.54 382.671C276.062 382.671 275.602 382.77 275.159 382.969C274.716 383.167 274.346 383.478 274.049 383.904C273.751 384.329 273.579 384.886 273.533 385.573H271.33C271.377 384.583 271.633 383.735 272.099 383.03C272.571 382.325 273.192 381.786 273.961 381.413C274.736 381.04 275.596 380.853 276.54 380.853C277.565 380.853 278.457 381.057 279.215 381.465C279.978 381.873 280.567 382.432 280.98 383.143C281.4 383.854 281.61 384.664 281.61 385.573C281.61 386.214 281.511 386.794 281.313 387.313C281.12 387.832 280.84 388.295 280.473 388.703C280.112 389.111 279.675 389.472 279.162 389.787C278.649 390.107 278.238 390.445 277.93 390.801C277.621 391.15 277.396 391.567 277.257 392.051C277.117 392.534 277.041 393.138 277.029 393.86V393.965H274.931ZM276.05 399.14C275.619 399.14 275.249 398.985 274.94 398.677C274.631 398.368 274.477 397.998 274.477 397.566C274.477 397.135 274.631 396.765 274.94 396.456C275.249 396.147 275.619 395.993 276.05 395.993C276.482 395.993 276.852 396.147 277.16 396.456C277.469 396.765 277.624 397.135 277.624 397.566C277.624 397.852 277.551 398.114 277.405 398.353C277.265 398.592 277.076 398.784 276.837 398.93C276.604 399.07 276.342 399.14 276.05 399.14Z" fill="black"/>
<defs>
<filter id="filter0_d_29_378" x="129" y="85" width="172" height="155" filterUnits="userSpaceOnUse" color-interpolation-filters="sRGB">
<feFlood flood-opacity="0" result="BackgroundImageFix"/>
<feColorMatrix in="SourceAlpha" type="matrix" values="0 0 0 0 0 0 0 0 0 0 0 0 0 0 0 0 0 0 127 0" result="hardAlpha"/>
<feOffset dy="4"/>
<feGaussianBlur stdDeviation="2"/>
<feComposite in2="hardAlpha" operator="out"/>
<feColorMatrix type="matrix" values="0 0 0 0 0 0 0 0 0 0 0 0 0 0 0 0 0 0 0.25 0"/>
<feBlend mode="normal" in2="BackgroundImageFix" result="effect1_dropShadow_29_378"/>
<feBlend mode="normal" in="SourceGraphic" in2="effect1_dropShadow_29_378" result="shape"/>
</filter>
</defs>
</svg>
