<svg width="430" height="932" viewBox="0 0 430 932" fill="none" xmlns="http://www.w3.org/2000/svg">
<rect width="430" height="932" fill="white"/>
<path d="M0 0H430V336C409.5 274 210.5 274 210.5 274V274C210.5 274 59 274 0 336V0Z" fill="#D9D9D9"/>
<g filter="url(#filter0_d_29_378)">
<ellipse cx="215" cy="158.5" rx="82" ry="73.5" fill="#D9D9D9"/>
<path d="M187.168 163V145.098H189.336V161.077H197.657V163H187.168ZM206.189 163.28C204.977 163.28 203.913 162.991 202.998 162.414C202.089 161.837 201.378 161.03 200.865 159.993C200.358 158.956 200.105 157.744 200.105 156.357C200.105 154.958 200.358 153.737 200.865 152.694C201.378 151.651 202.089 150.841 202.998 150.264C203.913 149.687 204.977 149.399 206.189 149.399C207.401 149.399 208.462 149.687 209.371 150.264C210.286 150.841 210.997 151.651 211.503 152.694C212.016 153.737 212.273 154.958 212.273 156.357C212.273 157.744 212.016 158.956 211.503 159.993C210.997 161.03 210.286 161.837 209.371 162.414C208.462 162.991 207.401 163.28 206.189 163.28ZM206.189 161.427C207.11 161.427 207.867 161.191 208.462 160.719C209.056 160.247 209.496 159.626 209.781 158.857C210.067 158.087 210.21 157.254 210.21 156.357C210.21 155.459 210.067 154.623 209.781 153.848C209.496 153.073 209.056 152.446 208.462 151.969C207.867 151.491 207.11 151.252 206.189 151.252C205.268 151.252 204.51 151.491 203.916 151.969C203.322 152.446 202.882 153.073 202.596 153.848C202.311 154.623 202.168 155.459 202.168 156.357C202.168 157.254 202.311 158.087 202.596 158.857C202.882 159.626 203.322 160.247 203.916 160.719C204.51 161.191 205.268 161.427 206.189 161.427ZM220.841 168.315C219.845 168.315 218.988 168.186 218.271 167.93C217.555 167.679 216.957 167.347 216.479 166.934C216.007 166.526 215.632 166.089 215.352 165.622L216.995 164.469C217.182 164.713 217.418 164.993 217.703 165.308C217.989 165.628 218.379 165.905 218.875 166.138C219.376 166.377 220.031 166.497 220.841 166.497C221.925 166.497 222.82 166.234 223.525 165.71C224.23 165.185 224.583 164.364 224.583 163.245V160.517H224.408C224.256 160.762 224.041 161.065 223.761 161.427C223.487 161.782 223.091 162.1 222.572 162.379C222.059 162.653 221.366 162.79 220.492 162.79C219.408 162.79 218.435 162.534 217.572 162.021C216.715 161.508 216.037 160.762 215.535 159.783C215.04 158.804 214.792 157.615 214.792 156.217C214.792 154.841 215.034 153.644 215.518 152.624C216.002 151.598 216.675 150.806 217.537 150.247C218.4 149.681 219.396 149.399 220.527 149.399C221.401 149.399 222.094 149.544 222.607 149.836C223.126 150.121 223.522 150.448 223.796 150.815C224.076 151.176 224.291 151.473 224.443 151.706H224.653V149.573H226.646V163.385C226.646 164.538 226.383 165.477 225.859 166.199C225.34 166.928 224.641 167.461 223.761 167.799C222.887 168.143 221.914 168.315 220.841 168.315ZM220.771 160.937C221.599 160.937 222.298 160.748 222.869 160.369C223.44 159.99 223.875 159.445 224.172 158.734C224.469 158.023 224.618 157.172 224.618 156.182C224.618 155.214 224.472 154.361 224.181 153.621C223.889 152.881 223.458 152.301 222.887 151.881C222.316 151.462 221.611 151.252 220.771 151.252C219.897 151.252 219.169 151.473 218.586 151.916C218.009 152.359 217.575 152.953 217.284 153.699C216.998 154.445 216.855 155.273 216.855 156.182C216.855 157.114 217.001 157.939 217.292 158.656C217.59 159.367 218.027 159.926 218.604 160.334C219.186 160.736 219.909 160.937 220.771 160.937ZM235.876 163.28C234.664 163.28 233.601 162.991 232.686 162.414C231.777 161.837 231.066 161.03 230.553 159.993C230.046 158.956 229.792 157.744 229.792 156.357C229.792 154.958 230.046 153.737 230.553 152.694C231.066 151.651 231.777 150.841 232.686 150.264C233.601 149.687 234.664 149.399 235.876 149.399C237.088 149.399 238.149 149.687 239.058 150.264C239.973 150.841 240.684 151.651 241.191 152.694C241.704 153.737 241.96 154.958 241.96 156.357C241.96 157.744 241.704 158.956 241.191 159.993C240.684 161.03 239.973 161.837 239.058 162.414C238.149 162.991 237.088 163.28 235.876 163.28ZM235.876 161.427C236.797 161.427 237.555 161.191 238.149 160.719C238.743 160.247 239.183 159.626 239.469 158.857C239.755 158.087 239.897 157.254 239.897 156.357C239.897 155.459 239.755 154.623 239.469 153.848C239.183 153.073 238.743 152.446 238.149 151.969C237.555 151.491 236.797 151.252 235.876 151.252C234.956 151.252 234.198 151.491 233.604 151.969C233.009 152.446 232.569 153.073 232.284 153.848C231.998 154.623 231.855 155.459 231.855 156.357C231.855 157.254 231.998 158.087 232.284 158.857C232.569 159.626 233.009 160.247 233.604 160.719C234.198 161.191 234.956 161.427 235.876 161.427Z" fill="black"/>
</g>
<line y1="643.5" x2="430" y2="643.5" stroke="black"/>
<rect x="79" y="511" width="264" height="73" fill="#D9D9D9"/>
<rect x="79" y="732" width="264" height="73" fill="#D9D9D9"/>
<path d="M175.692 773H170.168V755.098H175.937C177.674 755.098 179.16 755.456 180.395 756.173C181.631 756.884 182.578 757.907 183.236 759.241C183.895 760.57 184.224 762.161 184.224 764.014C184.224 765.879 183.892 767.484 183.227 768.83C182.563 770.171 181.596 771.202 180.325 771.925C179.055 772.642 177.51 773 175.692 773ZM172.336 771.077H175.552C177.033 771.077 178.259 770.791 179.233 770.22C180.206 769.649 180.931 768.836 181.409 767.781C181.887 766.727 182.126 765.471 182.126 764.014C182.126 762.569 181.89 761.325 181.418 760.281C180.946 759.233 180.241 758.428 179.302 757.869C178.364 757.304 177.196 757.021 175.797 757.021H172.336V771.077ZM187.58 773V759.573H189.573V761.601H189.713C189.958 760.937 190.401 760.398 191.042 759.984C191.683 759.571 192.406 759.364 193.21 759.364C193.361 759.364 193.551 759.367 193.778 759.372C194.005 759.378 194.177 759.387 194.294 759.399V761.497C194.224 761.479 194.064 761.453 193.813 761.418C193.568 761.377 193.309 761.357 193.035 761.357C192.382 761.357 191.8 761.494 191.287 761.767C190.78 762.036 190.378 762.409 190.08 762.886C189.789 763.358 189.643 763.897 189.643 764.503V773H187.58ZM196.739 773V759.573H198.802V773H196.739ZM197.788 757.336C197.386 757.336 197.039 757.199 196.748 756.925C196.462 756.651 196.319 756.322 196.319 755.937C196.319 755.552 196.462 755.223 196.748 754.949C197.039 754.675 197.386 754.538 197.788 754.538C198.19 754.538 198.534 754.675 198.819 754.949C199.111 755.223 199.257 755.552 199.257 755.937C199.257 756.322 199.111 756.651 198.819 756.925C198.534 757.199 198.19 757.336 197.788 757.336ZM213.559 759.573L208.594 773H206.497L201.531 759.573H203.769L207.476 770.273H207.615L211.322 759.573H213.559ZM221.431 773.28C220.137 773.28 219.021 772.994 218.083 772.423C217.151 771.846 216.431 771.042 215.924 770.01C215.423 768.973 215.172 767.767 215.172 766.392C215.172 765.016 215.423 763.804 215.924 762.755C216.431 761.7 217.136 760.879 218.039 760.29C218.948 759.696 220.009 759.399 221.221 759.399C221.92 759.399 222.611 759.515 223.293 759.748C223.975 759.981 224.595 760.36 225.155 760.885C225.714 761.403 226.16 762.091 226.492 762.948C226.824 763.804 226.99 764.859 226.99 766.112V766.986H216.641V765.203H224.892C224.892 764.445 224.741 763.769 224.438 763.175C224.141 762.58 223.715 762.111 223.162 761.767C222.614 761.424 221.967 761.252 221.221 761.252C220.399 761.252 219.689 761.456 219.088 761.864C218.494 762.266 218.036 762.79 217.716 763.437C217.395 764.084 217.235 764.777 217.235 765.517V766.706C217.235 767.72 217.41 768.58 217.76 769.285C218.115 769.984 218.608 770.517 219.237 770.885C219.866 771.246 220.598 771.427 221.431 771.427C221.973 771.427 222.462 771.351 222.899 771.199C223.342 771.042 223.724 770.809 224.045 770.5C224.365 770.185 224.613 769.795 224.788 769.329L226.781 769.888C226.571 770.564 226.218 771.159 225.723 771.671C225.228 772.178 224.616 772.575 223.887 772.86C223.159 773.14 222.34 773.28 221.431 773.28ZM230.128 773V759.573H232.122V761.601H232.261C232.506 760.937 232.949 760.398 233.59 759.984C234.231 759.571 234.954 759.364 235.758 759.364C235.909 759.364 236.099 759.367 236.326 759.372C236.553 759.378 236.725 759.387 236.842 759.399V761.497C236.772 761.479 236.612 761.453 236.361 761.418C236.116 761.377 235.857 761.357 235.583 761.357C234.93 761.357 234.348 761.494 233.835 761.767C233.328 762.036 232.926 762.409 232.628 762.886C232.337 763.358 232.191 763.897 232.191 764.503V773H230.128ZM248.903 767.965V767.86C248.914 766.747 249.031 765.861 249.252 765.203C249.474 764.544 249.788 764.011 250.196 763.603C250.604 763.195 251.094 762.819 251.665 762.476C252.009 762.266 252.317 762.018 252.591 761.733C252.865 761.441 253.081 761.106 253.238 760.727C253.401 760.348 253.483 759.929 253.483 759.469C253.483 758.897 253.349 758.402 253.081 757.983C252.813 757.563 252.454 757.24 252.006 757.012C251.557 756.785 251.059 756.671 250.511 756.671C250.033 756.671 249.573 756.77 249.13 756.969C248.687 757.167 248.317 757.478 248.02 757.904C247.722 758.329 247.551 758.886 247.504 759.573H245.301C245.348 758.583 245.604 757.735 246.07 757.03C246.542 756.325 247.163 755.786 247.932 755.413C248.707 755.04 249.567 754.853 250.511 754.853C251.537 754.853 252.428 755.057 253.186 755.465C253.949 755.873 254.538 756.432 254.951 757.143C255.371 757.854 255.581 758.664 255.581 759.573C255.581 760.214 255.482 760.794 255.284 761.313C255.091 761.832 254.812 762.295 254.444 762.703C254.083 763.111 253.646 763.472 253.133 763.787C252.62 764.107 252.21 764.445 251.901 764.801C251.592 765.15 251.368 765.567 251.228 766.051C251.088 766.534 251.012 767.138 251 767.86V767.965H248.903ZM250.021 773.14C249.59 773.14 249.22 772.985 248.911 772.677C248.602 772.368 248.448 771.998 248.448 771.566C248.448 771.135 248.602 770.765 248.911 770.456C249.22 770.147 249.59 769.993 250.021 769.993C250.453 769.993 250.823 770.147 251.132 770.456C251.44 770.765 251.595 771.135 251.595 771.566C251.595 771.852 251.522 772.114 251.376 772.353C251.236 772.592 251.047 772.784 250.808 772.93C250.575 773.07 250.313 773.14 250.021 773.14Z" fill="black"/>
<path d="M143.168 551V533.098H149.217C150.621 533.098 151.769 533.351 152.661 533.858C153.558 534.36 154.223 535.038 154.654 535.895C155.085 536.752 155.301 537.707 155.301 538.762C155.301 539.817 155.085 540.776 154.654 541.638C154.228 542.501 153.57 543.188 152.678 543.701C151.787 544.208 150.645 544.462 149.252 544.462H144.916V542.538H149.182C150.143 542.538 150.916 542.372 151.498 542.04C152.081 541.708 152.503 541.259 152.766 540.694C153.034 540.123 153.168 539.479 153.168 538.762C153.168 538.045 153.034 537.404 152.766 536.839C152.503 536.274 152.078 535.831 151.49 535.51C150.901 535.184 150.12 535.021 149.147 535.021H145.336V551H143.168ZM162.464 551.315C161.613 551.315 160.841 551.154 160.148 550.834C159.454 550.508 158.904 550.038 158.496 549.427C158.088 548.809 157.884 548.063 157.884 547.189C157.884 546.42 158.035 545.796 158.338 545.318C158.641 544.834 159.046 544.456 159.553 544.182C160.06 543.908 160.62 543.704 161.232 543.57C161.849 543.43 162.47 543.319 163.094 543.238C163.909 543.133 164.571 543.054 165.078 543.002C165.591 542.943 165.964 542.847 166.197 542.713C166.436 542.579 166.555 542.346 166.555 542.014V541.944C166.555 541.082 166.319 540.411 165.847 539.934C165.381 539.456 164.673 539.217 163.723 539.217C162.738 539.217 161.966 539.432 161.406 539.864C160.847 540.295 160.454 540.755 160.226 541.245L158.268 540.545C158.618 539.73 159.084 539.094 159.667 538.64C160.256 538.179 160.897 537.859 161.59 537.678C162.289 537.492 162.977 537.399 163.653 537.399C164.084 537.399 164.58 537.451 165.139 537.556C165.704 537.655 166.249 537.862 166.774 538.177C167.304 538.491 167.744 538.966 168.094 539.601C168.443 540.237 168.618 541.087 168.618 542.154V551H166.555V549.182H166.45C166.31 549.473 166.077 549.785 165.751 550.117C165.425 550.449 164.99 550.732 164.448 550.965C163.906 551.198 163.245 551.315 162.464 551.315ZM162.779 549.462C163.595 549.462 164.282 549.301 164.842 548.981C165.407 548.66 165.832 548.247 166.118 547.74C166.409 547.233 166.555 546.699 166.555 546.14V544.252C166.468 544.357 166.275 544.453 165.978 544.54C165.687 544.622 165.349 544.695 164.964 544.759C164.585 544.817 164.215 544.869 163.854 544.916C163.499 544.957 163.21 544.992 162.989 545.021C162.453 545.091 161.951 545.205 161.485 545.362C161.025 545.513 160.652 545.744 160.366 546.052C160.087 546.355 159.947 546.769 159.947 547.294C159.947 548.01 160.212 548.552 160.742 548.92C161.278 549.281 161.957 549.462 162.779 549.462ZM181.894 540.58L180.041 541.105C179.924 540.796 179.752 540.496 179.525 540.205C179.303 539.907 179 539.663 178.616 539.47C178.231 539.278 177.739 539.182 177.139 539.182C176.317 539.182 175.632 539.371 175.084 539.75C174.542 540.123 174.271 540.598 174.271 541.175C174.271 541.688 174.458 542.093 174.831 542.39C175.204 542.687 175.787 542.935 176.579 543.133L178.572 543.622C179.773 543.914 180.667 544.36 181.256 544.96C181.844 545.554 182.139 546.321 182.139 547.259C182.139 548.028 181.917 548.716 181.474 549.322C181.037 549.928 180.425 550.406 179.639 550.755C178.852 551.105 177.937 551.28 176.894 551.28C175.524 551.28 174.391 550.983 173.493 550.388C172.596 549.794 172.028 548.925 171.789 547.783L173.747 547.294C173.933 548.016 174.286 548.558 174.805 548.92C175.329 549.281 176.014 549.462 176.859 549.462C177.82 549.462 178.584 549.258 179.149 548.85C179.72 548.436 180.006 547.941 180.006 547.364C180.006 546.897 179.843 546.507 179.516 546.192C179.19 545.872 178.689 545.633 178.013 545.476L175.775 544.951C174.545 544.66 173.642 544.208 173.065 543.596C172.494 542.978 172.208 542.206 172.208 541.28C172.208 540.522 172.421 539.852 172.847 539.269C173.278 538.686 173.863 538.229 174.604 537.897C175.35 537.565 176.194 537.399 177.139 537.399C178.467 537.399 179.51 537.69 180.268 538.273C181.031 538.855 181.573 539.625 181.894 540.58ZM194.754 540.58L192.901 541.105C192.785 540.796 192.613 540.496 192.385 540.205C192.164 539.907 191.861 539.663 191.476 539.47C191.092 539.278 190.599 539.182 189.999 539.182C189.177 539.182 188.493 539.371 187.945 539.75C187.403 540.123 187.132 540.598 187.132 541.175C187.132 541.688 187.318 542.093 187.691 542.39C188.064 542.687 188.647 542.935 189.44 543.133L191.433 543.622C192.633 543.914 193.528 544.36 194.116 544.96C194.705 545.554 194.999 546.321 194.999 547.259C194.999 548.028 194.778 548.716 194.335 549.322C193.898 549.928 193.286 550.406 192.499 550.755C191.712 551.105 190.797 551.28 189.754 551.28C188.385 551.28 187.251 550.983 186.354 550.388C185.457 549.794 184.888 548.925 184.649 547.783L186.608 547.294C186.794 548.016 187.147 548.558 187.665 548.92C188.19 549.281 188.874 549.462 189.719 549.462C190.681 549.462 191.444 549.258 192.01 548.85C192.581 548.436 192.866 547.941 192.866 547.364C192.866 546.897 192.703 546.507 192.377 546.192C192.05 545.872 191.549 545.633 190.873 545.476L188.635 544.951C187.406 544.66 186.503 544.208 185.926 543.596C185.355 542.978 185.069 542.206 185.069 541.28C185.069 540.522 185.282 539.852 185.707 539.269C186.138 538.686 186.724 538.229 187.464 537.897C188.21 537.565 189.055 537.399 189.999 537.399C191.328 537.399 192.371 537.69 193.128 538.273C193.892 538.855 194.434 539.625 194.754 540.58ZM203.734 551.28C202.44 551.28 201.324 550.994 200.386 550.423C199.454 549.846 198.734 549.042 198.227 548.01C197.726 546.973 197.475 545.767 197.475 544.392C197.475 543.016 197.726 541.804 198.227 540.755C198.734 539.7 199.439 538.879 200.342 538.29C201.251 537.696 202.312 537.399 203.524 537.399C204.223 537.399 204.914 537.515 205.596 537.748C206.278 537.981 206.898 538.36 207.458 538.885C208.017 539.403 208.463 540.091 208.795 540.948C209.127 541.804 209.293 542.859 209.293 544.112V544.986H198.944V543.203H207.195C207.195 542.445 207.044 541.769 206.741 541.175C206.444 540.58 206.018 540.111 205.465 539.767C204.917 539.424 204.27 539.252 203.524 539.252C202.702 539.252 201.991 539.456 201.391 539.864C200.797 540.266 200.339 540.79 200.019 541.437C199.698 542.084 199.538 542.777 199.538 543.517V544.706C199.538 545.72 199.713 546.58 200.063 547.285C200.418 547.984 200.91 548.517 201.54 548.885C202.169 549.246 202.9 549.427 203.734 549.427C204.276 549.427 204.765 549.351 205.202 549.199C205.645 549.042 206.027 548.809 206.347 548.5C206.668 548.185 206.916 547.795 207.09 547.329L209.083 547.888C208.874 548.564 208.521 549.159 208.026 549.671C207.53 550.178 206.919 550.575 206.19 550.86C205.462 551.14 204.643 551.28 203.734 551.28ZM214.494 542.923V551H212.431V537.573H214.424V539.671H214.599C214.914 538.99 215.392 538.442 216.033 538.028C216.674 537.608 217.501 537.399 218.515 537.399C219.424 537.399 220.22 537.585 220.902 537.958C221.583 538.325 222.114 538.885 222.493 539.636C222.871 540.382 223.061 541.326 223.061 542.469V551H220.998V542.608C220.998 541.554 220.724 540.732 220.176 540.143C219.628 539.549 218.877 539.252 217.921 539.252C217.262 539.252 216.674 539.395 216.155 539.68C215.642 539.966 215.237 540.382 214.94 540.93C214.643 541.478 214.494 542.142 214.494 542.923ZM232.25 556.315C231.253 556.315 230.397 556.186 229.68 555.93C228.963 555.679 228.366 555.347 227.888 554.934C227.416 554.526 227.04 554.089 226.76 553.622L228.404 552.469C228.59 552.713 228.826 552.993 229.112 553.308C229.397 553.628 229.788 553.905 230.283 554.138C230.784 554.377 231.44 554.497 232.25 554.497C233.334 554.497 234.228 554.234 234.934 553.71C235.639 553.185 235.991 552.364 235.991 551.245V548.517H235.816C235.665 548.762 235.449 549.065 235.17 549.427C234.896 549.782 234.499 550.1 233.981 550.379C233.468 550.653 232.774 550.79 231.9 550.79C230.816 550.79 229.843 550.534 228.981 550.021C228.124 549.508 227.445 548.762 226.944 547.783C226.449 546.804 226.201 545.615 226.201 544.217C226.201 542.841 226.443 541.644 226.927 540.624C227.41 539.598 228.083 538.806 228.946 538.247C229.808 537.681 230.805 537.399 231.935 537.399C232.809 537.399 233.503 537.544 234.016 537.836C234.534 538.121 234.931 538.448 235.205 538.815C235.484 539.176 235.7 539.473 235.851 539.706H236.061V537.573H238.054V551.385C238.054 552.538 237.792 553.477 237.267 554.199C236.749 554.928 236.05 555.461 235.17 555.799C234.295 556.143 233.322 556.315 232.25 556.315ZM232.18 548.937C233.008 548.937 233.707 548.748 234.278 548.369C234.849 547.99 235.283 547.445 235.58 546.734C235.878 546.023 236.026 545.172 236.026 544.182C236.026 543.214 235.881 542.361 235.589 541.621C235.298 540.881 234.867 540.301 234.295 539.881C233.724 539.462 233.019 539.252 232.18 539.252C231.306 539.252 230.578 539.473 229.995 539.916C229.418 540.359 228.984 540.953 228.692 541.699C228.407 542.445 228.264 543.273 228.264 544.182C228.264 545.114 228.41 545.939 228.701 546.656C228.998 547.367 229.435 547.926 230.012 548.334C230.595 548.736 231.318 548.937 232.18 548.937ZM247.46 551.28C246.166 551.28 245.05 550.994 244.112 550.423C243.179 549.846 242.46 549.042 241.953 548.01C241.452 546.973 241.201 545.767 241.201 544.392C241.201 543.016 241.452 541.804 241.953 540.755C242.46 539.7 243.165 538.879 244.068 538.29C244.977 537.696 246.038 537.399 247.25 537.399C247.949 537.399 248.64 537.515 249.322 537.748C250.003 537.981 250.624 538.36 251.184 538.885C251.743 539.403 252.189 540.091 252.521 540.948C252.853 541.804 253.019 542.859 253.019 544.112V544.986H242.67V543.203H250.921C250.921 542.445 250.77 541.769 250.467 541.175C250.17 540.58 249.744 540.111 249.191 539.767C248.643 539.424 247.996 539.252 247.25 539.252C246.428 539.252 245.717 539.456 245.117 539.864C244.523 540.266 244.065 540.79 243.745 541.437C243.424 542.084 243.264 542.777 243.264 543.517V544.706C243.264 545.72 243.439 546.58 243.788 547.285C244.144 547.984 244.636 548.517 245.266 548.885C245.895 549.246 246.626 549.427 247.46 549.427C248.002 549.427 248.491 549.351 248.928 549.199C249.371 549.042 249.753 548.809 250.073 548.5C250.394 548.185 250.642 547.795 250.816 547.329L252.809 547.888C252.6 548.564 252.247 549.159 251.752 549.671C251.256 550.178 250.645 550.575 249.916 550.86C249.188 551.14 248.369 551.28 247.46 551.28ZM256.157 551V537.573H258.15V539.601H258.29C258.535 538.937 258.978 538.398 259.619 537.984C260.26 537.571 260.983 537.364 261.787 537.364C261.938 537.364 262.128 537.367 262.355 537.372C262.582 537.378 262.754 537.387 262.871 537.399V539.497C262.801 539.479 262.64 539.453 262.39 539.418C262.145 539.377 261.886 539.357 261.612 539.357C260.959 539.357 260.376 539.494 259.864 539.767C259.357 540.036 258.955 540.409 258.657 540.886C258.366 541.358 258.22 541.897 258.22 542.503V551H256.157ZM274.931 545.965V545.86C274.943 544.747 275.06 543.861 275.281 543.203C275.502 542.544 275.817 542.011 276.225 541.603C276.633 541.195 277.123 540.819 277.694 540.476C278.037 540.266 278.346 540.018 278.62 539.733C278.894 539.441 279.11 539.106 279.267 538.727C279.43 538.348 279.512 537.929 279.512 537.469C279.512 536.897 279.378 536.402 279.11 535.983C278.842 535.563 278.483 535.24 278.035 535.012C277.586 534.785 277.088 534.671 276.54 534.671C276.062 534.671 275.602 534.77 275.159 534.969C274.716 535.167 274.346 535.478 274.049 535.904C273.751 536.329 273.579 536.886 273.533 537.573H271.33C271.377 536.583 271.633 535.735 272.099 535.03C272.571 534.325 273.192 533.786 273.961 533.413C274.736 533.04 275.596 532.853 276.54 532.853C277.565 532.853 278.457 533.057 279.215 533.465C279.978 533.873 280.567 534.432 280.98 535.143C281.4 535.854 281.61 536.664 281.61 537.573C281.61 538.214 281.511 538.794 281.313 539.313C281.12 539.832 280.84 540.295 280.473 540.703C280.112 541.111 279.675 541.472 279.162 541.787C278.649 542.107 278.238 542.445 277.93 542.801C277.621 543.15 277.396 543.567 277.257 544.051C277.117 544.534 277.041 545.138 277.029 545.86V545.965H274.931ZM276.05 551.14C275.619 551.14 275.249 550.985 274.94 550.677C274.631 550.368 274.477 549.998 274.477 549.566C274.477 549.135 274.631 548.765 274.94 548.456C275.249 548.147 275.619 547.993 276.05 547.993C276.482 547.993 276.852 548.147 277.16 548.456C277.469 548.765 277.624 549.135 277.624 549.566C277.624 549.852 277.551 550.114 277.405 550.353C277.265 550.592 277.076 550.784 276.837 550.93C276.604 551.07 276.342 551.14 276.05 551.14Z" fill="black"/>
<path d="M103.261 389L96.6023 365.727H101.977L105.83 381.898H106.023L110.273 365.727H114.875L119.114 381.932H119.318L123.17 365.727H128.545L121.886 389H117.091L112.659 373.784H112.477L108.057 389H103.261ZM135.929 378.909V389H131.088V365.727H135.793V374.625H135.997C136.391 373.595 137.027 372.788 137.906 372.205C138.785 371.614 139.887 371.318 141.213 371.318C142.425 371.318 143.482 371.583 144.384 372.114C145.293 372.636 145.997 373.39 146.497 374.375C147.005 375.352 147.255 376.523 147.247 377.886V389H142.406V378.75C142.414 377.674 142.141 376.837 141.588 376.239C141.043 375.64 140.277 375.341 139.293 375.341C138.634 375.341 138.05 375.481 137.543 375.761C137.043 376.042 136.649 376.451 136.361 376.989C136.08 377.519 135.937 378.159 135.929 378.909ZM156.034 389.33C154.92 389.33 153.928 389.136 153.057 388.75C152.186 388.356 151.496 387.777 150.989 387.011C150.489 386.239 150.239 385.277 150.239 384.125C150.239 383.155 150.417 382.341 150.773 381.682C151.129 381.023 151.614 380.492 152.227 380.091C152.841 379.689 153.538 379.386 154.318 379.182C155.106 378.977 155.932 378.833 156.795 378.75C157.811 378.644 158.629 378.545 159.25 378.455C159.871 378.356 160.322 378.212 160.602 378.023C160.883 377.833 161.023 377.553 161.023 377.182V377.114C161.023 376.394 160.795 375.837 160.341 375.443C159.894 375.049 159.258 374.852 158.432 374.852C157.561 374.852 156.867 375.045 156.352 375.432C155.837 375.811 155.496 376.288 155.33 376.864L150.852 376.5C151.08 375.439 151.527 374.523 152.193 373.75C152.86 372.97 153.72 372.371 154.773 371.955C155.833 371.53 157.061 371.318 158.455 371.318C159.424 371.318 160.352 371.432 161.239 371.659C162.133 371.886 162.924 372.239 163.614 372.716C164.311 373.193 164.86 373.807 165.261 374.557C165.663 375.299 165.864 376.189 165.864 377.227V389H161.273V386.58H161.136C160.856 387.125 160.481 387.606 160.011 388.023C159.542 388.432 158.977 388.754 158.318 388.989C157.659 389.216 156.898 389.33 156.034 389.33ZM157.42 385.989C158.133 385.989 158.761 385.848 159.307 385.568C159.852 385.28 160.28 384.894 160.591 384.409C160.902 383.924 161.057 383.375 161.057 382.761V380.909C160.905 381.008 160.697 381.098 160.432 381.182C160.174 381.258 159.883 381.33 159.557 381.398C159.231 381.458 158.905 381.515 158.58 381.568C158.254 381.614 157.958 381.655 157.693 381.693C157.125 381.777 156.629 381.909 156.205 382.091C155.78 382.273 155.451 382.519 155.216 382.83C154.981 383.133 154.864 383.511 154.864 383.966C154.864 384.625 155.102 385.129 155.58 385.477C156.064 385.818 156.678 385.989 157.42 385.989ZM178.903 371.545V375.182H168.392V371.545H178.903ZM170.778 367.364H175.619V383.636C175.619 384.083 175.688 384.432 175.824 384.682C175.96 384.924 176.15 385.095 176.392 385.193C176.642 385.292 176.93 385.341 177.256 385.341C177.483 385.341 177.71 385.322 177.938 385.284C178.165 385.239 178.339 385.205 178.46 385.182L179.222 388.784C178.979 388.86 178.638 388.947 178.199 389.045C177.759 389.152 177.225 389.216 176.597 389.239C175.43 389.284 174.407 389.129 173.528 388.773C172.657 388.417 171.979 387.864 171.494 387.114C171.009 386.364 170.771 385.417 170.778 384.273V367.364ZM194.44 389.33C193.327 389.33 192.334 389.136 191.463 388.75C190.592 388.356 189.902 387.777 189.395 387.011C188.895 386.239 188.645 385.277 188.645 384.125C188.645 383.155 188.823 382.341 189.179 381.682C189.535 381.023 190.02 380.492 190.634 380.091C191.247 379.689 191.944 379.386 192.724 379.182C193.512 378.977 194.338 378.833 195.202 378.75C196.217 378.644 197.035 378.545 197.656 378.455C198.277 378.356 198.728 378.212 199.009 378.023C199.289 377.833 199.429 377.553 199.429 377.182V377.114C199.429 376.394 199.202 375.837 198.747 375.443C198.3 375.049 197.664 374.852 196.838 374.852C195.967 374.852 195.274 375.045 194.759 375.432C194.243 375.811 193.902 376.288 193.736 376.864L189.259 376.5C189.486 375.439 189.933 374.523 190.599 373.75C191.266 372.97 192.126 372.371 193.179 371.955C194.24 371.53 195.467 371.318 196.861 371.318C197.83 371.318 198.759 371.432 199.645 371.659C200.539 371.886 201.33 372.239 202.02 372.716C202.717 373.193 203.266 373.807 203.668 374.557C204.069 375.299 204.27 376.189 204.27 377.227V389H199.679V386.58H199.543C199.262 387.125 198.887 387.606 198.418 388.023C197.948 388.432 197.384 388.754 196.724 388.989C196.065 389.216 195.304 389.33 194.44 389.33ZM195.827 385.989C196.539 385.989 197.168 385.848 197.713 385.568C198.259 385.28 198.687 384.894 198.997 384.409C199.308 383.924 199.463 383.375 199.463 382.761V380.909C199.312 381.008 199.103 381.098 198.838 381.182C198.58 381.258 198.289 381.33 197.963 381.398C197.637 381.458 197.312 381.515 196.986 381.568C196.66 381.614 196.365 381.655 196.099 381.693C195.531 381.777 195.035 381.909 194.611 382.091C194.187 382.273 193.857 382.519 193.622 382.83C193.387 383.133 193.27 383.511 193.27 383.966C193.27 384.625 193.509 385.129 193.986 385.477C194.471 385.818 195.084 385.989 195.827 385.989ZM208.026 389V371.545H212.719V374.591H212.901C213.219 373.508 213.753 372.689 214.503 372.136C215.253 371.576 216.116 371.295 217.094 371.295C217.336 371.295 217.598 371.311 217.878 371.341C218.158 371.371 218.404 371.413 218.616 371.466V375.761C218.389 375.693 218.075 375.633 217.673 375.58C217.272 375.527 216.904 375.5 216.571 375.5C215.859 375.5 215.223 375.655 214.662 375.966C214.109 376.269 213.67 376.693 213.344 377.239C213.026 377.784 212.866 378.413 212.866 379.125V389H208.026ZM228.261 389.341C226.466 389.341 224.92 388.977 223.625 388.25C222.337 387.515 221.345 386.477 220.648 385.136C219.951 383.788 219.602 382.193 219.602 380.352C219.602 378.557 219.951 376.981 220.648 375.625C221.345 374.269 222.326 373.212 223.591 372.455C224.864 371.697 226.356 371.318 228.068 371.318C229.22 371.318 230.292 371.504 231.284 371.875C232.284 372.239 233.155 372.788 233.898 373.523C234.648 374.258 235.231 375.182 235.648 376.295C236.064 377.402 236.273 378.697 236.273 380.182V381.511H221.534V378.511H231.716C231.716 377.814 231.564 377.197 231.261 376.659C230.958 376.121 230.538 375.701 230 375.398C229.47 375.087 228.852 374.932 228.148 374.932C227.413 374.932 226.761 375.102 226.193 375.443C225.633 375.777 225.193 376.227 224.875 376.795C224.557 377.356 224.394 377.981 224.386 378.67V381.523C224.386 382.386 224.545 383.133 224.864 383.761C225.189 384.39 225.648 384.875 226.239 385.216C226.83 385.557 227.53 385.727 228.341 385.727C228.879 385.727 229.371 385.652 229.818 385.5C230.265 385.348 230.648 385.121 230.966 384.818C231.284 384.515 231.527 384.144 231.693 383.705L236.17 384C235.943 385.076 235.477 386.015 234.773 386.818C234.076 387.614 233.174 388.235 232.068 388.682C230.97 389.121 229.701 389.341 228.261 389.341ZM245.565 365.727H251.077L256.384 375.75H256.611L261.918 365.727H267.429L258.94 380.773V389H254.054V380.773L245.565 365.727ZM274.256 389.341C272.491 389.341 270.964 388.966 269.676 388.216C268.396 387.458 267.407 386.405 266.71 385.057C266.013 383.701 265.665 382.129 265.665 380.341C265.665 378.538 266.013 376.962 266.71 375.614C267.407 374.258 268.396 373.205 269.676 372.455C270.964 371.697 272.491 371.318 274.256 371.318C276.021 371.318 277.544 371.697 278.824 372.455C280.112 373.205 281.104 374.258 281.801 375.614C282.498 376.962 282.847 378.538 282.847 380.341C282.847 382.129 282.498 383.701 281.801 385.057C281.104 386.405 280.112 387.458 278.824 388.216C277.544 388.966 276.021 389.341 274.256 389.341ZM274.278 385.591C275.081 385.591 275.752 385.364 276.29 384.909C276.828 384.447 277.233 383.818 277.506 383.023C277.786 382.227 277.926 381.322 277.926 380.307C277.926 379.292 277.786 378.386 277.506 377.591C277.233 376.795 276.828 376.167 276.29 375.705C275.752 375.242 275.081 375.011 274.278 375.011C273.468 375.011 272.786 375.242 272.233 375.705C271.688 376.167 271.275 376.795 270.994 377.591C270.722 378.386 270.585 379.292 270.585 380.307C270.585 381.322 270.722 382.227 270.994 383.023C271.275 383.818 271.688 384.447 272.233 384.909C272.786 385.364 273.468 385.591 274.278 385.591ZM297.188 381.568V371.545H302.028V389H297.381V385.83H297.199C296.805 386.852 296.15 387.674 295.233 388.295C294.324 388.917 293.214 389.227 291.903 389.227C290.737 389.227 289.71 388.962 288.824 388.432C287.938 387.902 287.244 387.148 286.744 386.17C286.252 385.193 286.002 384.023 285.994 382.659V371.545H290.835V381.795C290.843 382.826 291.119 383.64 291.665 384.239C292.21 384.837 292.941 385.136 293.858 385.136C294.441 385.136 294.987 385.004 295.494 384.739C296.002 384.466 296.411 384.064 296.722 383.534C297.04 383.004 297.195 382.348 297.188 381.568ZM310.06 382.023V381.636C310.067 380.311 310.185 379.254 310.412 378.466C310.647 377.678 310.988 377.042 311.435 376.557C311.882 376.072 312.42 375.633 313.048 375.239C313.518 374.936 313.938 374.621 314.31 374.295C314.681 373.97 314.976 373.61 315.196 373.216C315.416 372.814 315.526 372.367 315.526 371.875C315.526 371.352 315.401 370.894 315.151 370.5C314.901 370.106 314.563 369.803 314.139 369.591C313.723 369.379 313.26 369.273 312.753 369.273C312.26 369.273 311.795 369.383 311.355 369.602C310.916 369.814 310.556 370.133 310.276 370.557C309.995 370.973 309.844 371.492 309.821 372.114H305.185C305.223 370.598 305.586 369.348 306.276 368.364C306.965 367.371 307.878 366.633 309.014 366.148C310.151 365.655 311.404 365.409 312.776 365.409C314.283 365.409 315.616 365.659 316.776 366.159C317.935 366.652 318.844 367.367 319.503 368.307C320.162 369.246 320.491 370.379 320.491 371.705C320.491 372.591 320.344 373.379 320.048 374.068C319.76 374.75 319.355 375.356 318.832 375.886C318.31 376.409 317.692 376.883 316.98 377.307C316.382 377.663 315.889 378.034 315.503 378.42C315.124 378.807 314.84 379.254 314.651 379.761C314.469 380.269 314.374 380.894 314.366 381.636V382.023H310.06ZM312.31 389.295C311.552 389.295 310.904 389.03 310.366 388.5C309.836 387.962 309.575 387.318 309.582 386.568C309.575 385.826 309.836 385.189 310.366 384.659C310.904 384.129 311.552 383.864 312.31 383.864C313.029 383.864 313.662 384.129 314.207 384.659C314.753 385.189 315.029 385.826 315.037 386.568C315.029 387.068 314.897 387.527 314.639 387.943C314.389 388.352 314.06 388.682 313.651 388.932C313.241 389.174 312.795 389.295 312.31 389.295Z" fill="black"/>
<defs>
<filter id="filter0_d_29_378" x="129" y="85" width="172" height="155" filterUnits="userSpaceOnUse" color-interpolation-filters="sRGB">
<feFlood flood-opacity="0" result="BackgroundImageFix"/>
<feColorMatrix in="SourceAlpha" type="matrix" values="0 0 0 0 0 0 0 0 0 0 0 0 0 0 0 0 0 0 127 0" result="hardAlpha"/>
<feOffset dy="4"/>
<feGaussianBlur stdDeviation="2"/>
<feComposite in2="hardAlpha" operator="out"/>
<feColorMatrix type="matrix" values="0 0 0 0 0 0 0 0 0 0 0 0 0 0 0 0 0 0 0.25 0"/>
<feBlend mode="normal" in2="BackgroundImageFix" result="effect1_dropShadow_29_378"/>
<feBlend mode="normal" in="SourceGraphic" in2="effect1_dropShadow_29_378" result="shape"/>
</filter>
</defs>
</svg>
