<svg width="430" height="932" viewBox="0 0 430 932" fill="none" xmlns="http://www.w3.org/2000/svg">
<rect width="430" height="932" fill="#F6F1F1"/>
<g filter="url(#filter0_d_35_1017)">
<rect x="36" y="558" width="348" height="52" rx="15" fill="white"/>
</g>
<g filter="url(#filter1_d_35_1017)">
<rect x="36" y="481" width="348" height="52" rx="15" fill="white"/>
</g>
<g filter="url(#filter2_d_35_1017)">
<rect x="41" y="392" width="348" height="52" rx="15" fill="white"/>
</g>
<g filter="url(#filter3_d_35_1017)">
<rect x="41" y="303" width="348" height="52" rx="15" fill="white"/>
</g>
<g filter="url(#filter4_d_35_1017)">
<rect x="41" y="214" width="158" height="52" rx="15" fill="white"/>
<path d="M67.1678 245V227.098H77.9021V229.021H69.3357V235.07H77.0979V236.993H69.3357V245H67.1678ZM83.2539 236.923V245H81.191V231.573H83.184V233.671H83.3588C83.6735 232.99 84.1514 232.442 84.7924 232.028C85.4334 231.608 86.2609 231.399 87.2749 231.399C88.184 231.399 88.9795 231.585 89.6613 231.958C90.3431 232.325 90.8734 232.885 91.2522 233.636C91.631 234.382 91.8204 235.326 91.8204 236.469V245H89.7574V236.608C89.7574 235.554 89.4835 234.732 88.9358 234.143C88.388 233.549 87.6362 233.252 86.6805 233.252C86.022 233.252 85.4334 233.395 84.9148 233.68C84.402 233.966 83.9969 234.382 83.6997 234.93C83.4025 235.478 83.2539 236.142 83.2539 236.923ZM99.5411 245.315C98.6903 245.315 97.9181 245.154 97.2247 244.834C96.5312 244.508 95.9805 244.038 95.5726 243.427C95.1646 242.809 94.9607 242.063 94.9607 241.189C94.9607 240.42 95.1122 239.796 95.4152 239.318C95.7182 238.834 96.1233 238.456 96.6302 238.182C97.1372 237.908 97.6967 237.704 98.3086 237.57C98.9263 237.43 99.5469 237.319 100.17 237.238C100.986 237.133 101.648 237.054 102.155 237.002C102.668 236.943 103.041 236.847 103.274 236.713C103.513 236.579 103.632 236.346 103.632 236.014V235.944C103.632 235.082 103.396 234.411 102.924 233.934C102.458 233.456 101.75 233.217 100.8 233.217C99.815 233.217 99.0428 233.432 98.4834 233.864C97.924 234.295 97.5306 234.755 97.3033 235.245L95.3453 234.545C95.6949 233.73 96.1611 233.094 96.7439 232.64C97.3325 232.179 97.9735 231.859 98.667 231.678C99.3663 231.492 100.054 231.399 100.73 231.399C101.161 231.399 101.656 231.451 102.216 231.556C102.781 231.655 103.326 231.862 103.851 232.177C104.381 232.491 104.821 232.966 105.17 233.601C105.52 234.237 105.695 235.087 105.695 236.154V245H103.632V243.182H103.527C103.387 243.473 103.154 243.785 102.828 244.117C102.501 244.449 102.067 244.732 101.525 244.965C100.983 245.198 100.322 245.315 99.5411 245.315ZM99.8558 243.462C100.672 243.462 101.359 243.301 101.919 242.981C102.484 242.66 102.909 242.247 103.195 241.74C103.486 241.233 103.632 240.699 103.632 240.14V238.252C103.545 238.357 103.352 238.453 103.055 238.54C102.764 238.622 102.426 238.695 102.041 238.759C101.662 238.817 101.292 238.869 100.931 238.916C100.575 238.957 100.287 238.992 100.066 239.021C99.5294 239.091 99.0283 239.205 98.5621 239.362C98.1017 239.513 97.7287 239.744 97.4432 240.052C97.1635 240.355 97.0236 240.769 97.0236 241.294C97.0236 242.01 97.2888 242.552 97.8191 242.92C98.3552 243.281 99.0341 243.462 99.8558 243.462ZM109.46 245V231.573H111.453V233.671H111.628C111.908 232.955 112.359 232.398 112.983 232.002C113.606 231.6 114.355 231.399 115.229 231.399C116.115 231.399 116.852 231.6 117.441 232.002C118.035 232.398 118.499 232.955 118.831 233.671H118.971C119.315 232.978 119.83 232.427 120.518 232.019C121.206 231.605 122.03 231.399 122.992 231.399C124.192 231.399 125.174 231.774 125.938 232.526C126.701 233.272 127.083 234.435 127.083 236.014V245H125.02V236.014C125.02 235.023 124.749 234.315 124.207 233.89C123.665 233.464 123.027 233.252 122.292 233.252C121.348 233.252 120.617 233.537 120.098 234.108C119.58 234.674 119.32 235.39 119.32 236.259V245H117.222V235.804C117.222 235.041 116.975 234.426 116.479 233.96C115.984 233.488 115.346 233.252 114.565 233.252C114.029 233.252 113.528 233.395 113.062 233.68C112.601 233.966 112.228 234.362 111.943 234.869C111.663 235.37 111.523 235.95 111.523 236.608V245H109.46ZM136.484 245.28C135.19 245.28 134.074 244.994 133.136 244.423C132.204 243.846 131.484 243.042 130.977 242.01C130.476 240.973 130.225 239.767 130.225 238.392C130.225 237.016 130.476 235.804 130.977 234.755C131.484 233.7 132.189 232.879 133.092 232.29C134.001 231.696 135.062 231.399 136.274 231.399C136.973 231.399 137.664 231.515 138.346 231.748C139.028 231.981 139.648 232.36 140.208 232.885C140.767 233.403 141.213 234.091 141.545 234.948C141.877 235.804 142.043 236.859 142.043 238.112V238.986H131.694V237.203H139.945C139.945 236.445 139.794 235.769 139.491 235.175C139.194 234.58 138.768 234.111 138.215 233.767C137.667 233.424 137.02 233.252 136.274 233.252C135.452 233.252 134.741 233.456 134.141 233.864C133.547 234.266 133.089 234.79 132.769 235.437C132.448 236.084 132.288 236.777 132.288 237.517V238.706C132.288 239.72 132.463 240.58 132.813 241.285C133.168 241.984 133.66 242.517 134.29 242.885C134.919 243.246 135.65 243.427 136.484 243.427C137.026 243.427 137.515 243.351 137.952 243.199C138.395 243.042 138.777 242.809 139.097 242.5C139.418 242.185 139.666 241.795 139.84 241.329L141.833 241.888C141.624 242.564 141.271 243.159 140.776 243.671C140.28 244.178 139.669 244.575 138.94 244.86C138.212 245.14 137.393 245.28 136.484 245.28Z" fill="black"/>
</g>
<g filter="url(#filter5_d_35_1017)">
<rect x="231" y="214" width="158" height="52" rx="15" fill="white"/>
<path d="M257.168 245V227.098H259.336V243.077H267.657V245H257.168ZM272.797 236.923V245H270.734V231.573H272.727V233.671H272.902C273.217 232.99 273.695 232.442 274.336 232.028C274.977 231.608 275.804 231.399 276.818 231.399C277.727 231.399 278.523 231.585 279.205 231.958C279.886 232.325 280.417 232.885 280.795 233.636C281.174 234.382 281.364 235.326 281.364 236.469V245H279.301V236.608C279.301 235.554 279.027 234.732 278.479 234.143C277.931 233.549 277.179 233.252 276.224 233.252C275.565 233.252 274.977 233.395 274.458 233.68C273.945 233.966 273.54 234.382 273.243 234.93C272.946 235.478 272.797 236.142 272.797 236.923ZM289.084 245.315C288.234 245.315 287.461 245.154 286.768 244.834C286.074 244.508 285.524 244.038 285.116 243.427C284.708 242.809 284.504 242.063 284.504 241.189C284.504 240.42 284.655 239.796 284.958 239.318C285.262 238.834 285.667 238.456 286.174 238.182C286.681 237.908 287.24 237.704 287.852 237.57C288.47 237.43 289.09 237.319 289.714 237.238C290.53 237.133 291.191 237.054 291.698 237.002C292.211 236.943 292.584 236.847 292.817 236.713C293.056 236.579 293.175 236.346 293.175 236.014V235.944C293.175 235.082 292.939 234.411 292.467 233.934C292.001 233.456 291.293 233.217 290.343 233.217C289.358 233.217 288.586 233.432 288.027 233.864C287.467 234.295 287.074 234.755 286.847 235.245L284.889 234.545C285.238 233.73 285.704 233.094 286.287 232.64C286.876 232.179 287.517 231.859 288.21 231.678C288.91 231.492 289.597 231.399 290.273 231.399C290.704 231.399 291.2 231.451 291.759 231.556C292.324 231.655 292.869 231.862 293.394 232.177C293.924 232.491 294.364 232.966 294.714 233.601C295.063 234.237 295.238 235.087 295.238 236.154V245H293.175V243.182H293.07C292.931 243.473 292.697 243.785 292.371 244.117C292.045 244.449 291.611 244.732 291.069 244.965C290.527 245.198 289.865 245.315 289.084 245.315ZM289.399 243.462C290.215 243.462 290.903 243.301 291.462 242.981C292.027 242.66 292.453 242.247 292.738 241.74C293.03 241.233 293.175 240.699 293.175 240.14V238.252C293.088 238.357 292.896 238.453 292.598 238.54C292.307 238.622 291.969 238.695 291.584 238.759C291.206 238.817 290.836 238.869 290.474 238.916C290.119 238.957 289.83 238.992 289.609 239.021C289.073 239.091 288.572 239.205 288.105 239.362C287.645 239.513 287.272 239.744 286.986 240.052C286.707 240.355 286.567 240.769 286.567 241.294C286.567 242.01 286.832 242.552 287.362 242.92C287.898 243.281 288.577 243.462 289.399 243.462ZM299.003 245V231.573H300.997V233.671H301.171C301.451 232.955 301.903 232.398 302.526 232.002C303.15 231.6 303.899 231.399 304.773 231.399C305.659 231.399 306.396 231.6 306.984 232.002C307.579 232.398 308.042 232.955 308.374 233.671H308.514C308.858 232.978 309.374 232.427 310.061 232.019C310.749 231.605 311.573 231.399 312.535 231.399C313.735 231.399 314.717 231.774 315.481 232.526C316.244 233.272 316.626 234.435 316.626 236.014V245H314.563V236.014C314.563 235.023 314.292 234.315 313.75 233.89C313.208 233.464 312.57 233.252 311.836 233.252C310.892 233.252 310.16 233.537 309.642 234.108C309.123 234.674 308.864 235.39 308.864 236.259V245H306.766V235.804C306.766 235.041 306.518 234.426 306.023 233.96C305.527 233.488 304.889 233.252 304.108 233.252C303.572 233.252 303.071 233.395 302.605 233.68C302.145 233.966 301.772 234.362 301.486 234.869C301.206 235.37 301.066 235.95 301.066 236.608V245H299.003ZM326.027 245.28C324.733 245.28 323.617 244.994 322.679 244.423C321.747 243.846 321.027 243.042 320.52 242.01C320.019 240.973 319.768 239.767 319.768 238.392C319.768 237.016 320.019 235.804 320.52 234.755C321.027 233.7 321.732 232.879 322.635 232.29C323.545 231.696 324.605 231.399 325.817 231.399C326.517 231.399 327.207 231.515 327.889 231.748C328.571 231.981 329.191 232.36 329.751 232.885C330.31 233.403 330.756 234.091 331.088 234.948C331.42 235.804 331.587 236.859 331.587 238.112V238.986H321.237V237.203H329.489C329.489 236.445 329.337 235.769 329.034 235.175C328.737 234.58 328.311 234.111 327.758 233.767C327.21 233.424 326.563 233.252 325.817 233.252C324.996 233.252 324.285 233.456 323.684 233.864C323.09 234.266 322.633 234.79 322.312 235.437C321.992 236.084 321.831 236.777 321.831 237.517V238.706C321.831 239.72 322.006 240.58 322.356 241.285C322.711 241.984 323.204 242.517 323.833 242.885C324.462 243.246 325.194 243.427 326.027 243.427C326.569 243.427 327.059 243.351 327.496 243.199C327.939 243.042 328.32 242.809 328.641 242.5C328.961 242.185 329.209 241.795 329.384 241.329L331.377 241.888C331.167 242.564 330.814 243.159 330.319 243.671C329.824 244.178 329.212 244.575 328.483 244.86C327.755 245.14 326.936 245.28 326.027 245.28Z" fill="black"/>
</g>
<g filter="url(#filter6_d_35_1017)">
<path d="M60.1678 340V322.098H70.972V324.021H62.3357V330.07H70.4126V331.993H62.3357V338.077H71.1119V340H60.1678ZM74.5997 340V326.573H76.5927V328.671H76.7675C77.0472 327.955 77.4988 327.398 78.1224 327.002C78.7459 326.6 79.4948 326.399 80.3689 326.399C81.2547 326.399 81.9918 326.6 82.5804 327.002C83.1748 327.398 83.6381 327.955 83.9703 328.671H84.1101C84.454 327.978 84.9697 327.427 85.6573 327.019C86.345 326.605 87.1696 326.399 88.1311 326.399C89.3316 326.399 90.3135 326.774 91.0769 327.526C91.8403 328.272 92.222 329.435 92.222 331.014V340H90.1591V331.014C90.1591 330.023 89.8881 329.315 89.3462 328.89C88.8042 328.464 88.1661 328.252 87.4318 328.252C86.4878 328.252 85.7564 328.537 85.2378 329.108C84.7191 329.674 84.4598 330.39 84.4598 331.259V340H82.3619V330.804C82.3619 330.041 82.1142 329.426 81.6189 328.96C81.1235 328.488 80.4854 328.252 79.7045 328.252C79.1684 328.252 78.6672 328.395 78.201 328.68C77.7407 328.966 77.3677 329.362 77.0822 329.869C76.8024 330.37 76.6626 330.95 76.6626 331.608V340H74.5997ZM99.9449 340.315C99.0941 340.315 98.322 340.154 97.6285 339.834C96.935 339.508 96.3843 339.038 95.9764 338.427C95.5685 337.809 95.3645 337.063 95.3645 336.189C95.3645 335.42 95.516 334.796 95.8191 334.318C96.1221 333.834 96.5271 333.456 97.0341 333.182C97.5411 332.908 98.1005 332.704 98.7124 332.57C99.3301 332.43 99.9508 332.319 100.574 332.238C101.39 332.133 102.052 332.054 102.559 332.002C103.071 331.943 103.444 331.847 103.677 331.713C103.916 331.579 104.036 331.346 104.036 331.014V330.944C104.036 330.082 103.8 329.411 103.328 328.934C102.862 328.456 102.154 328.217 101.204 328.217C100.219 328.217 99.4467 328.432 98.8872 328.864C98.3278 329.295 97.9344 329.755 97.7072 330.245L95.7491 329.545C96.0988 328.73 96.565 328.094 97.1477 327.64C97.7363 327.179 98.3773 326.859 99.0708 326.678C99.7701 326.492 100.458 326.399 101.134 326.399C101.565 326.399 102.06 326.451 102.62 326.556C103.185 326.655 103.73 326.862 104.254 327.177C104.785 327.491 105.225 327.966 105.574 328.601C105.924 329.237 106.099 330.087 106.099 331.154V340H104.036V338.182H103.931C103.791 338.473 103.558 338.785 103.232 339.117C102.905 339.449 102.471 339.732 101.929 339.965C101.387 340.198 100.726 340.315 99.9449 340.315ZM100.26 338.462C101.075 338.462 101.763 338.301 102.323 337.981C102.888 337.66 103.313 337.247 103.599 336.74C103.89 336.233 104.036 335.699 104.036 335.14V333.252C103.948 333.357 103.756 333.453 103.459 333.54C103.168 333.622 102.83 333.695 102.445 333.759C102.066 333.817 101.696 333.869 101.335 333.916C100.979 333.957 100.691 333.992 100.469 334.021C99.9333 334.091 99.4321 334.205 98.9659 334.362C98.5055 334.513 98.1326 334.744 97.847 335.052C97.5673 335.355 97.4274 335.769 97.4274 336.294C97.4274 337.01 97.6926 337.552 98.2229 337.92C98.759 338.281 99.4379 338.462 100.26 338.462ZM109.864 340V326.573H111.927V340H109.864ZM110.913 324.336C110.511 324.336 110.164 324.199 109.873 323.925C109.587 323.651 109.444 323.322 109.444 322.937C109.444 322.552 109.587 322.223 109.873 321.949C110.164 321.675 110.511 321.538 110.913 321.538C111.315 321.538 111.659 321.675 111.944 321.949C112.236 322.223 112.382 322.552 112.382 322.937C112.382 323.322 112.236 323.651 111.944 323.925C111.659 324.199 111.315 324.336 110.913 324.336ZM117.768 322.098V340H115.705V322.098H117.768Z" fill="black"/>
</g>
<g filter="url(#filter7_d_35_1017)">
<path d="M57.1678 425V407.098H63.2168C64.6212 407.098 65.7692 407.351 66.6608 407.858C67.5583 408.36 68.2226 409.038 68.6538 409.895C69.0851 410.752 69.3007 411.707 69.3007 412.762C69.3007 413.817 69.0851 414.776 68.6538 415.638C68.2284 416.501 67.5699 417.188 66.6783 417.701C65.7867 418.208 64.6445 418.462 63.2517 418.462H58.9161V416.538H63.1818C64.1434 416.538 64.9155 416.372 65.4983 416.04C66.081 415.708 66.5035 415.259 66.7657 414.694C67.0338 414.123 67.1678 413.479 67.1678 412.762C67.1678 412.045 67.0338 411.404 66.7657 410.839C66.5035 410.274 66.0781 409.831 65.4895 409.51C64.9009 409.184 64.12 409.021 63.1469 409.021H59.3357V425H57.1678ZM76.4642 425.315C75.6133 425.315 74.8412 425.154 74.1477 424.834C73.4543 424.508 72.9036 424.038 72.4956 423.427C72.0877 422.809 71.8837 422.063 71.8837 421.189C71.8837 420.42 72.0353 419.796 72.3383 419.318C72.6413 418.834 73.0463 418.456 73.5533 418.182C74.0603 417.908 74.6198 417.704 75.2316 417.57C75.8494 417.43 76.47 417.319 77.0935 417.238C77.9094 417.133 78.5708 417.054 79.0778 417.002C79.5906 416.943 79.9636 416.847 80.1967 416.713C80.4356 416.579 80.5551 416.346 80.5551 416.014V415.944C80.5551 415.082 80.3191 414.411 79.847 413.934C79.3808 413.456 78.6728 413.217 77.7229 413.217C76.7381 413.217 75.9659 413.432 75.4065 413.864C74.847 414.295 74.4537 414.755 74.2264 415.245L72.2684 414.545C72.618 413.73 73.0842 413.094 73.667 412.64C74.2555 412.179 74.8966 411.859 75.59 411.678C76.2893 411.492 76.977 411.399 77.653 411.399C78.0842 411.399 78.5795 411.451 79.139 411.556C79.7043 411.655 80.2491 411.862 80.7736 412.177C81.3039 412.491 81.7439 412.966 82.0935 413.601C82.4432 414.237 82.618 415.087 82.618 416.154V425H80.5551V423.182H80.4502C80.3103 423.473 80.0772 423.785 79.7509 424.117C79.4245 424.449 78.9904 424.732 78.4484 424.965C77.9065 425.198 77.245 425.315 76.4642 425.315ZM76.7788 423.462C77.5947 423.462 78.2823 423.301 78.8418 422.981C79.4071 422.66 79.8325 422.247 80.118 421.74C80.4094 421.233 80.5551 420.699 80.5551 420.14V418.252C80.4677 418.357 80.2754 418.453 79.9781 418.54C79.6868 418.622 79.3488 418.695 78.9642 418.759C78.5854 418.817 78.2153 418.869 77.854 418.916C77.4985 418.957 77.2101 418.992 76.9886 419.021C76.4525 419.091 75.9513 419.205 75.4851 419.362C75.0248 419.513 74.6518 419.744 74.3663 420.052C74.0865 420.355 73.9467 420.769 73.9467 421.294C73.9467 422.01 74.2118 422.552 74.7421 422.92C75.2783 423.281 75.9572 423.462 76.7788 423.462ZM95.8938 414.58L94.0406 415.105C93.9241 414.796 93.7522 414.496 93.5249 414.205C93.3035 413.907 93.0004 413.663 92.6158 413.47C92.2312 413.278 91.7388 413.182 91.1386 413.182C90.3169 413.182 89.6321 413.371 89.0844 413.75C88.5424 414.123 88.2714 414.598 88.2714 415.175C88.2714 415.688 88.4579 416.093 88.8309 416.39C89.2038 416.687 89.7866 416.935 90.5791 417.133L92.5721 417.622C93.7726 417.914 94.6671 418.36 95.2557 418.96C95.8443 419.554 96.1386 420.321 96.1386 421.259C96.1386 422.028 95.9171 422.716 95.4742 423.322C95.0372 423.928 94.4253 424.406 93.6386 424.755C92.8518 425.105 91.9369 425.28 90.8938 425.28C89.5243 425.28 88.3909 424.983 87.4934 424.388C86.596 423.794 86.0278 422.925 85.7889 421.783L87.7469 421.294C87.9334 422.016 88.286 422.558 88.8046 422.92C89.3291 423.281 90.0138 423.462 90.8588 423.462C91.8204 423.462 92.5838 423.258 93.149 422.85C93.7201 422.436 94.0057 421.941 94.0057 421.364C94.0057 420.897 93.8425 420.507 93.5162 420.192C93.1898 419.872 92.6887 419.633 92.0127 419.476L89.7749 418.951C88.5453 418.66 87.642 418.208 87.0651 417.596C86.494 416.978 86.2085 416.206 86.2085 415.28C86.2085 414.522 86.4212 413.852 86.8466 413.269C87.2778 412.686 87.8635 412.229 88.6036 411.897C89.3495 411.565 90.1945 411.399 91.1386 411.399C92.4672 411.399 93.5103 411.69 94.2679 412.273C95.0313 412.855 95.5733 413.625 95.8938 414.58ZM108.754 414.58L106.901 415.105C106.785 414.796 106.613 414.496 106.385 414.205C106.164 413.907 105.861 413.663 105.476 413.47C105.092 413.278 104.599 413.182 103.999 413.182C103.177 413.182 102.493 413.371 101.945 413.75C101.403 414.123 101.132 414.598 101.132 415.175C101.132 415.688 101.318 416.093 101.691 416.39C102.064 416.687 102.647 416.935 103.44 417.133L105.433 417.622C106.633 417.914 107.528 418.36 108.116 418.96C108.705 419.554 108.999 420.321 108.999 421.259C108.999 422.028 108.778 422.716 108.335 423.322C107.898 423.928 107.286 424.406 106.499 424.755C105.712 425.105 104.797 425.28 103.754 425.28C102.385 425.28 101.251 424.983 100.354 424.388C99.4566 423.794 98.8884 422.925 98.6495 421.783L100.608 421.294C100.794 422.016 101.147 422.558 101.665 422.92C102.19 423.281 102.874 423.462 103.719 423.462C104.681 423.462 105.444 423.258 106.01 422.85C106.581 422.436 106.866 421.941 106.866 421.364C106.866 420.897 106.703 420.507 106.377 420.192C106.05 419.872 105.549 419.633 104.873 419.476L102.635 418.951C101.406 418.66 100.503 418.208 99.9257 417.596C99.3546 416.978 99.0691 416.206 99.0691 415.28C99.0691 414.522 99.2818 413.852 99.7072 413.269C100.138 412.686 100.724 412.229 101.464 411.897C102.21 411.565 103.055 411.399 103.999 411.399C105.328 411.399 106.371 411.69 107.128 412.273C107.892 412.855 108.434 413.625 108.754 414.58ZM115.146 425L111.056 411.573H113.223L116.125 421.853H116.265L119.132 411.573H121.335L124.167 421.818H124.307L127.209 411.573H129.377L125.286 425H123.258L120.321 414.685H120.111L117.174 425H115.146ZM137.102 425.28C135.89 425.28 134.827 424.991 133.912 424.414C133.003 423.837 132.292 423.03 131.779 421.993C131.272 420.956 131.018 419.744 131.018 418.357C131.018 416.958 131.272 415.737 131.779 414.694C132.292 413.651 133.003 412.841 133.912 412.264C134.827 411.687 135.89 411.399 137.102 411.399C138.314 411.399 139.375 411.687 140.284 412.264C141.199 412.841 141.91 413.651 142.417 414.694C142.93 415.737 143.186 416.958 143.186 418.357C143.186 419.744 142.93 420.956 142.417 421.993C141.91 423.03 141.199 423.837 140.284 424.414C139.375 424.991 138.314 425.28 137.102 425.28ZM137.102 423.427C138.023 423.427 138.781 423.191 139.375 422.719C139.969 422.247 140.409 421.626 140.695 420.857C140.98 420.087 141.123 419.254 141.123 418.357C141.123 417.459 140.98 416.623 140.695 415.848C140.409 415.073 139.969 414.446 139.375 413.969C138.781 413.491 138.023 413.252 137.102 413.252C136.182 413.252 135.424 413.491 134.83 413.969C134.235 414.446 133.795 415.073 133.51 415.848C133.224 416.623 133.081 417.459 133.081 418.357C133.081 419.254 133.224 420.087 133.51 420.857C133.795 421.626 134.235 422.247 134.83 422.719C135.424 423.191 136.182 423.427 137.102 423.427ZM146.335 425V411.573H148.328V413.601H148.468C148.713 412.937 149.156 412.398 149.797 411.984C150.438 411.571 151.16 411.364 151.965 411.364C152.116 411.364 152.306 411.367 152.533 411.372C152.76 411.378 152.932 411.387 153.049 411.399V413.497C152.979 413.479 152.818 413.453 152.568 413.418C152.323 413.377 152.064 413.357 151.79 413.357C151.137 413.357 150.554 413.494 150.042 413.767C149.535 414.036 149.132 414.409 148.835 414.886C148.544 415.358 148.398 415.897 148.398 416.503V425H146.335ZM160.155 425.28C159.036 425.28 158.049 424.997 157.192 424.432C156.335 423.861 155.665 423.057 155.181 422.019C154.698 420.976 154.456 419.744 154.456 418.322C154.456 416.911 154.698 415.688 155.181 414.65C155.665 413.613 156.338 412.812 157.201 412.247C158.063 411.681 159.06 411.399 160.19 411.399C161.064 411.399 161.755 411.544 162.262 411.836C162.775 412.121 163.165 412.448 163.433 412.815C163.707 413.176 163.92 413.473 164.071 413.706H164.246V407.098H166.309V425H164.316V422.937H164.071C163.92 423.182 163.704 423.491 163.424 423.864C163.145 424.231 162.745 424.56 162.227 424.851C161.708 425.137 161.018 425.28 160.155 425.28ZM160.435 423.427C161.262 423.427 161.962 423.211 162.533 422.78C163.104 422.343 163.538 421.74 163.835 420.97C164.132 420.195 164.281 419.301 164.281 418.287C164.281 417.284 164.135 416.407 163.844 415.656C163.553 414.898 163.121 414.309 162.55 413.89C161.979 413.464 161.274 413.252 160.435 413.252C159.561 413.252 158.832 413.476 158.25 413.925C157.673 414.368 157.238 414.971 156.947 415.734C156.662 416.492 156.519 417.343 156.519 418.287C156.519 419.242 156.664 420.111 156.956 420.892C157.253 421.667 157.69 422.284 158.267 422.745C158.85 423.199 159.572 423.427 160.435 423.427Z" fill="black"/>
</g>
<g filter="url(#filter8_d_35_1017)">
<rect x="97" y="691" width="204" height="47" rx="15" fill="#146C94"/>
</g>
<path d="M159.168 722V704.098H165.217C166.615 704.098 167.763 704.337 168.661 704.815C169.558 705.287 170.223 705.936 170.654 706.764C171.085 707.591 171.301 708.533 171.301 709.587C171.301 710.642 171.085 711.578 170.654 712.393C170.223 713.209 169.561 713.85 168.67 714.316C167.778 714.777 166.639 715.007 165.252 715.007H160.357V713.049H165.182C166.138 713.049 166.907 712.909 167.49 712.629C168.078 712.35 168.503 711.953 168.766 711.441C169.034 710.922 169.168 710.304 169.168 709.587C169.168 708.871 169.034 708.244 168.766 707.708C168.498 707.172 168.069 706.758 167.481 706.467C166.892 706.17 166.114 706.021 165.147 706.021H161.336V722H159.168ZM167.594 713.958L172 722H169.483L165.147 713.958H167.594ZM180.118 722.28C178.825 722.28 177.709 721.994 176.771 721.423C175.838 720.846 175.118 720.042 174.611 719.01C174.11 717.973 173.86 716.767 173.86 715.392C173.86 714.016 174.11 712.804 174.611 711.755C175.118 710.7 175.824 709.879 176.727 709.29C177.636 708.696 178.697 708.399 179.909 708.399C180.608 708.399 181.299 708.515 181.98 708.748C182.662 708.981 183.283 709.36 183.842 709.885C184.402 710.403 184.847 711.091 185.18 711.948C185.512 712.804 185.678 713.859 185.678 715.112V715.986H175.328V714.203H183.58C183.58 713.445 183.428 712.769 183.125 712.175C182.828 711.58 182.403 711.111 181.849 710.767C181.301 710.424 180.655 710.252 179.909 710.252C179.087 710.252 178.376 710.456 177.776 710.864C177.181 711.266 176.724 711.79 176.403 712.437C176.083 713.084 175.923 713.777 175.923 714.517V715.706C175.923 716.72 176.097 717.58 176.447 718.285C176.803 718.984 177.295 719.517 177.924 719.885C178.554 720.246 179.285 720.427 180.118 720.427C180.66 720.427 181.15 720.351 181.587 720.199C182.03 720.042 182.412 719.809 182.732 719.5C183.053 719.185 183.3 718.795 183.475 718.329L185.468 718.888C185.258 719.564 184.906 720.159 184.41 720.671C183.915 721.178 183.303 721.575 182.575 721.86C181.846 722.14 181.028 722.28 180.118 722.28ZM194.236 727.315C193.239 727.315 192.382 727.186 191.666 726.93C190.949 726.679 190.352 726.347 189.874 725.934C189.402 725.526 189.026 725.089 188.746 724.622L190.389 723.469C190.576 723.713 190.812 723.993 191.097 724.308C191.383 724.628 191.773 724.905 192.269 725.138C192.77 725.377 193.426 725.497 194.236 725.497C195.319 725.497 196.214 725.234 196.919 724.71C197.624 724.185 197.977 723.364 197.977 722.245V719.517H197.802C197.65 719.762 197.435 720.065 197.155 720.427C196.881 720.782 196.485 721.1 195.966 721.379C195.454 721.653 194.76 721.79 193.886 721.79C192.802 721.79 191.829 721.534 190.966 721.021C190.11 720.508 189.431 719.762 188.93 718.783C188.434 717.804 188.187 716.615 188.187 715.217C188.187 713.841 188.428 712.644 188.912 711.624C189.396 710.598 190.069 709.806 190.931 709.247C191.794 708.681 192.79 708.399 193.921 708.399C194.795 708.399 195.488 708.544 196.001 708.836C196.52 709.121 196.916 709.448 197.19 709.815C197.47 710.176 197.685 710.473 197.837 710.706H198.047V708.573H200.04V722.385C200.04 723.538 199.778 724.477 199.253 725.199C198.734 725.928 198.035 726.461 197.155 726.799C196.281 727.143 195.308 727.315 194.236 727.315ZM194.166 719.937C194.993 719.937 195.692 719.748 196.264 719.369C196.835 718.99 197.269 718.445 197.566 717.734C197.863 717.023 198.012 716.172 198.012 715.182C198.012 714.214 197.866 713.361 197.575 712.621C197.283 711.881 196.852 711.301 196.281 710.881C195.71 710.462 195.005 710.252 194.166 710.252C193.292 710.252 192.563 710.473 191.98 710.916C191.403 711.359 190.969 711.953 190.678 712.699C190.392 713.445 190.25 714.273 190.25 715.182C190.25 716.114 190.395 716.939 190.687 717.656C190.984 718.367 191.421 718.926 191.998 719.334C192.581 719.736 193.303 719.937 194.166 719.937ZM203.816 722V708.573H205.879V722H203.816ZM204.865 706.336C204.463 706.336 204.116 706.199 203.825 705.925C203.539 705.651 203.396 705.322 203.396 704.937C203.396 704.552 203.539 704.223 203.825 703.949C204.116 703.675 204.463 703.538 204.865 703.538C205.267 703.538 205.611 703.675 205.896 703.949C206.188 704.223 206.333 704.552 206.333 704.937C206.333 705.322 206.188 705.651 205.896 705.925C205.611 706.199 205.267 706.336 204.865 706.336ZM219.168 711.58L217.315 712.105C217.198 711.796 217.026 711.496 216.799 711.205C216.578 710.907 216.274 710.663 215.89 710.47C215.505 710.278 215.013 710.182 214.413 710.182C213.591 710.182 212.906 710.371 212.358 710.75C211.816 711.123 211.545 711.598 211.545 712.175C211.545 712.688 211.732 713.093 212.105 713.39C212.478 713.687 213.061 713.935 213.853 714.133L215.846 714.622C217.047 714.914 217.941 715.36 218.53 715.96C219.118 716.554 219.413 717.321 219.413 718.259C219.413 719.028 219.191 719.716 218.748 720.322C218.311 720.928 217.699 721.406 216.913 721.755C216.126 722.105 215.211 722.28 214.168 722.28C212.798 722.28 211.665 721.983 210.767 721.388C209.87 720.794 209.302 719.925 209.063 718.783L211.021 718.294C211.207 719.016 211.56 719.558 212.079 719.92C212.603 720.281 213.288 720.462 214.133 720.462C215.094 720.462 215.858 720.258 216.423 719.85C216.994 719.436 217.28 718.941 217.28 718.364C217.28 717.897 217.117 717.507 216.79 717.192C216.464 716.872 215.963 716.633 215.287 716.476L213.049 715.951C211.819 715.66 210.916 715.208 210.339 714.596C209.768 713.978 209.483 713.206 209.483 712.28C209.483 711.522 209.695 710.852 210.121 710.269C210.552 709.686 211.138 709.229 211.878 708.897C212.624 708.565 213.469 708.399 214.413 708.399C215.741 708.399 216.784 708.69 217.542 709.273C218.305 709.855 218.847 710.625 219.168 711.58ZM228.357 708.573V710.322H221.399V708.573H228.357ZM223.427 705.357H225.49V718.154C225.49 718.737 225.574 719.174 225.743 719.465C225.918 719.751 226.14 719.943 226.408 720.042C226.682 720.135 226.97 720.182 227.273 720.182C227.5 720.182 227.687 720.17 227.833 720.147C227.978 720.118 228.095 720.094 228.182 720.077L228.602 721.93C228.462 721.983 228.267 722.035 228.016 722.087C227.766 722.146 227.448 722.175 227.063 722.175C226.481 722.175 225.91 722.05 225.35 721.799C224.796 721.548 224.336 721.167 223.969 720.654C223.608 720.141 223.427 719.494 223.427 718.713V705.357ZM236.945 722.28C235.652 722.28 234.536 721.994 233.597 721.423C232.665 720.846 231.945 720.042 231.438 719.01C230.937 717.973 230.687 716.767 230.687 715.392C230.687 714.016 230.937 712.804 231.438 711.755C231.945 710.7 232.65 709.879 233.554 709.29C234.463 708.696 235.523 708.399 236.736 708.399C237.435 708.399 238.125 708.515 238.807 708.748C239.489 708.981 240.11 709.36 240.669 709.885C241.229 710.403 241.674 711.091 242.007 711.948C242.339 712.804 242.505 713.859 242.505 715.112V715.986H232.155V714.203H240.407C240.407 713.445 240.255 712.769 239.952 712.175C239.655 711.58 239.23 711.111 238.676 710.767C238.128 710.424 237.482 710.252 236.736 710.252C235.914 710.252 235.203 710.456 234.603 710.864C234.008 711.266 233.551 711.79 233.23 712.437C232.91 713.084 232.75 713.777 232.75 714.517V715.706C232.75 716.72 232.924 717.58 233.274 718.285C233.63 718.984 234.122 719.517 234.751 719.885C235.381 720.246 236.112 720.427 236.945 720.427C237.487 720.427 237.977 720.351 238.414 720.199C238.857 720.042 239.238 719.809 239.559 719.5C239.88 719.185 240.127 718.795 240.302 718.329L242.295 718.888C242.085 719.564 241.733 720.159 241.237 720.671C240.742 721.178 240.13 721.575 239.402 721.86C238.673 722.14 237.854 722.28 236.945 722.28ZM245.643 722V708.573H247.636V710.601H247.776C248.021 709.937 248.463 709.398 249.104 708.984C249.745 708.571 250.468 708.364 251.272 708.364C251.424 708.364 251.613 708.367 251.84 708.372C252.068 708.378 252.24 708.387 252.356 708.399V710.497C252.286 710.479 252.126 710.453 251.875 710.418C251.631 710.377 251.371 710.357 251.097 710.357C250.445 710.357 249.862 710.494 249.349 710.767C248.842 711.036 248.44 711.409 248.143 711.886C247.852 712.358 247.706 712.897 247.706 713.503V722H245.643Z" fill="white"/>
<g filter="url(#filter9_d_35_1017)">
<path d="M56.1678 511V493.098H58.3357V509.077H66.6573V511H56.1678ZM69.7343 511V497.573H71.7972V511H69.7343ZM70.7832 495.336C70.3811 495.336 70.0344 495.199 69.743 494.925C69.4575 494.651 69.3147 494.322 69.3147 493.937C69.3147 493.552 69.4575 493.223 69.743 492.949C70.0344 492.675 70.3811 492.538 70.7832 492.538C71.1853 492.538 71.5291 492.675 71.8147 492.949C72.1061 493.223 72.2517 493.552 72.2517 493.937C72.2517 494.322 72.1061 494.651 71.8147 494.925C71.5291 495.199 71.1853 495.336 70.7832 495.336ZM81.0302 511.28C79.7714 511.28 78.6875 510.983 77.7784 510.388C76.8693 509.794 76.17 508.975 75.6805 507.932C75.191 506.889 74.9462 505.697 74.9462 504.357C74.9462 502.993 75.1968 501.79 75.698 500.747C76.205 499.698 76.9101 498.879 77.8134 498.29C78.7225 497.696 79.7831 497.399 80.9952 497.399C81.9392 497.399 82.7901 497.573 83.5476 497.923C84.3052 498.273 84.9258 498.762 85.4095 499.392C85.8932 500.021 86.1933 500.755 86.3099 501.594H84.2469C84.0896 500.983 83.7399 500.441 83.198 499.969C82.6619 499.491 81.9392 499.252 81.0302 499.252C80.226 499.252 79.5208 499.462 78.9148 499.881C78.3145 500.295 77.8454 500.881 77.5074 501.638C77.1753 502.39 77.0092 503.273 77.0092 504.287C77.0092 505.324 77.1723 506.227 77.4987 506.997C77.8309 507.766 78.2971 508.363 78.8973 508.788C79.5034 509.214 80.2143 509.427 81.0302 509.427C81.5663 509.427 82.0529 509.333 82.4899 509.147C82.927 508.96 83.2971 508.692 83.6001 508.343C83.9031 507.993 84.1187 507.573 84.2469 507.084H86.3099C86.1933 507.876 85.9049 508.59 85.4445 509.226C84.9899 509.855 84.3868 510.356 83.6351 510.729C82.8891 511.096 82.0208 511.28 81.0302 511.28ZM94.955 511.28C93.6613 511.28 92.5453 510.994 91.6071 510.423C90.6747 509.846 89.955 509.042 89.448 508.01C88.9468 506.973 88.6962 505.767 88.6962 504.392C88.6962 503.016 88.9468 501.804 89.448 500.755C89.955 499.7 90.6601 498.879 91.5634 498.29C92.4725 497.696 93.5331 497.399 94.7452 497.399C95.4445 497.399 96.1351 497.515 96.8169 497.748C97.4987 497.981 98.1193 498.36 98.6788 498.885C99.2382 499.403 99.684 500.091 100.016 500.948C100.348 501.804 100.514 502.859 100.514 504.112V504.986H90.1648V503.203H98.4165C98.4165 502.445 98.265 501.769 97.962 501.175C97.6648 500.58 97.2394 500.111 96.6858 499.767C96.138 499.424 95.4911 499.252 94.7452 499.252C93.9235 499.252 93.2126 499.456 92.6123 499.864C92.0179 500.266 91.5605 500.79 91.2399 501.437C90.9194 502.084 90.7592 502.777 90.7592 503.517V504.706C90.7592 505.72 90.934 506.58 91.2837 507.285C91.6391 507.984 92.1316 508.517 92.7609 508.885C93.3903 509.246 94.1216 509.427 94.955 509.427C95.4969 509.427 95.9865 509.351 96.4235 509.199C96.8664 509.042 97.2481 508.809 97.5686 508.5C97.8891 508.185 98.1368 507.795 98.3116 507.329L100.305 507.888C100.095 508.564 99.7423 509.159 99.2469 509.671C98.7516 510.178 98.1397 510.575 97.4113 510.86C96.6828 511.14 95.8641 511.28 94.955 511.28ZM105.715 502.923V511H103.653V497.573H105.646V499.671H105.82C106.135 498.99 106.613 498.442 107.254 498.028C107.895 497.608 108.722 497.399 109.736 497.399C110.646 497.399 111.441 497.585 112.123 497.958C112.805 498.325 113.335 498.885 113.714 499.636C114.093 500.382 114.282 501.326 114.282 502.469V511H112.219V502.608C112.219 501.554 111.945 500.732 111.397 500.143C110.85 499.549 110.098 499.252 109.142 499.252C108.484 499.252 107.895 499.395 107.376 499.68C106.863 499.966 106.458 500.382 106.161 500.93C105.864 501.478 105.715 502.142 105.715 502.923ZM127.562 500.58L125.709 501.105C125.592 500.796 125.42 500.496 125.193 500.205C124.972 499.907 124.669 499.663 124.284 499.47C123.899 499.278 123.407 499.182 122.807 499.182C121.985 499.182 121.3 499.371 120.753 499.75C120.211 500.123 119.94 500.598 119.94 501.175C119.94 501.688 120.126 502.093 120.499 502.39C120.872 502.687 121.455 502.935 122.247 503.133L124.24 503.622C125.441 503.914 126.335 504.36 126.924 504.96C127.513 505.554 127.807 506.321 127.807 507.259C127.807 508.028 127.585 508.716 127.142 509.322C126.705 509.928 126.094 510.406 125.307 510.755C124.52 511.105 123.605 511.28 122.562 511.28C121.193 511.28 120.059 510.983 119.162 510.388C118.264 509.794 117.696 508.925 117.457 507.783L119.415 507.294C119.602 508.016 119.954 508.558 120.473 508.92C120.997 509.281 121.682 509.462 122.527 509.462C123.489 509.462 124.252 509.258 124.817 508.85C125.388 508.436 125.674 507.941 125.674 507.364C125.674 506.897 125.511 506.507 125.184 506.192C124.858 505.872 124.357 505.633 123.681 505.476L121.443 504.951C120.214 504.66 119.31 504.208 118.733 503.596C118.162 502.978 117.877 502.206 117.877 501.28C117.877 500.522 118.089 499.852 118.515 499.269C118.946 498.686 119.532 498.229 120.272 497.897C121.018 497.565 121.863 497.399 122.807 497.399C124.135 497.399 125.179 497.69 125.936 498.273C126.7 498.855 127.242 499.625 127.562 500.58ZM136.542 511.28C135.248 511.28 134.132 510.994 133.194 510.423C132.261 509.846 131.542 509.042 131.035 508.01C130.533 506.973 130.283 505.767 130.283 504.392C130.283 503.016 130.533 501.804 131.035 500.755C131.542 499.7 132.247 498.879 133.15 498.29C134.059 497.696 135.12 497.399 136.332 497.399C137.031 497.399 137.722 497.515 138.403 497.748C139.085 497.981 139.706 498.36 140.265 498.885C140.825 499.403 141.271 500.091 141.603 500.948C141.935 501.804 142.101 502.859 142.101 504.112V504.986H131.751V503.203H140.003C140.003 502.445 139.852 501.769 139.549 501.175C139.251 500.58 138.826 500.111 138.272 499.767C137.725 499.424 137.078 499.252 136.332 499.252C135.51 499.252 134.799 499.456 134.199 499.864C133.604 500.266 133.147 500.79 132.826 501.437C132.506 502.084 132.346 502.777 132.346 503.517V504.706C132.346 505.72 132.521 506.58 132.87 507.285C133.226 507.984 133.718 508.517 134.347 508.885C134.977 509.246 135.708 509.427 136.542 509.427C137.083 509.427 137.573 509.351 138.01 509.199C138.453 509.042 138.835 508.809 139.155 508.5C139.476 508.185 139.723 507.795 139.898 507.329L141.891 507.888C141.681 508.564 141.329 509.159 140.833 509.671C140.338 510.178 139.726 510.575 138.998 510.86C138.269 511.14 137.451 511.28 136.542 511.28ZM166.638 493.098V511H164.54L154.785 496.944H154.61V511H152.442V493.098H154.54L164.33 507.189H164.505V493.098H166.638ZM179.157 505.51V497.573H181.22V511H179.157V508.727H179.017C178.703 509.409 178.213 509.989 177.549 510.467C176.885 510.939 176.045 511.175 175.031 511.175C174.192 511.175 173.446 510.991 172.794 510.624C172.141 510.251 171.628 509.692 171.255 508.946C170.882 508.194 170.696 507.247 170.696 506.105V497.573H172.759V505.965C172.759 506.944 173.033 507.725 173.58 508.308C174.134 508.89 174.839 509.182 175.696 509.182C176.209 509.182 176.73 509.051 177.26 508.788C177.797 508.526 178.245 508.124 178.607 507.582C178.974 507.04 179.157 506.35 179.157 505.51ZM184.999 511V497.573H186.992V499.671H187.167C187.446 498.955 187.898 498.398 188.521 498.002C189.145 497.6 189.894 497.399 190.768 497.399C191.654 497.399 192.391 497.6 192.979 498.002C193.574 498.398 194.037 498.955 194.369 499.671H194.509C194.853 498.978 195.369 498.427 196.056 498.019C196.744 497.605 197.569 497.399 198.53 497.399C199.731 497.399 200.713 497.774 201.476 498.526C202.239 499.272 202.621 500.435 202.621 502.014V511H200.558V502.014C200.558 501.023 200.287 500.315 199.745 499.89C199.203 499.464 198.565 499.252 197.831 499.252C196.887 499.252 196.155 499.537 195.637 500.108C195.118 500.674 194.859 501.39 194.859 502.259V511H192.761V501.804C192.761 501.041 192.513 500.426 192.018 499.96C191.523 499.488 190.884 499.252 190.104 499.252C189.567 499.252 189.066 499.395 188.6 499.68C188.14 499.966 187.767 500.362 187.481 500.869C187.201 501.37 187.062 501.95 187.062 502.608V511H184.999ZM206.673 511V493.098H208.736V499.706H208.91C209.062 499.473 209.272 499.176 209.54 498.815C209.814 498.448 210.204 498.121 210.711 497.836C211.224 497.544 211.917 497.399 212.792 497.399C213.922 497.399 214.919 497.681 215.781 498.247C216.644 498.812 217.317 499.613 217.8 500.65C218.284 501.688 218.526 502.911 218.526 504.322C218.526 505.744 218.284 506.976 217.8 508.019C217.317 509.057 216.646 509.861 215.79 510.432C214.933 510.997 213.945 511.28 212.826 511.28C211.964 511.28 211.273 511.137 210.755 510.851C210.236 510.56 209.837 510.231 209.557 509.864C209.278 509.491 209.062 509.182 208.91 508.937H208.666V511H206.673ZM208.701 504.287C208.701 505.301 208.849 506.195 209.146 506.97C209.444 507.74 209.878 508.343 210.449 508.78C211.02 509.211 211.719 509.427 212.547 509.427C213.409 509.427 214.129 509.199 214.706 508.745C215.289 508.284 215.726 507.667 216.017 506.892C216.314 506.111 216.463 505.242 216.463 504.287C216.463 503.343 216.317 502.492 216.026 501.734C215.74 500.971 215.306 500.368 214.723 499.925C214.146 499.476 213.421 499.252 212.547 499.252C211.708 499.252 211.002 499.464 210.431 499.89C209.86 500.309 209.429 500.898 209.138 501.656C208.846 502.407 208.701 503.284 208.701 504.287ZM227.311 511.28C226.017 511.28 224.901 510.994 223.963 510.423C223.03 509.846 222.311 509.042 221.804 508.01C221.303 506.973 221.052 505.767 221.052 504.392C221.052 503.016 221.303 501.804 221.804 500.755C222.311 499.7 223.016 498.879 223.919 498.29C224.828 497.696 225.889 497.399 227.101 497.399C227.8 497.399 228.491 497.515 229.173 497.748C229.854 497.981 230.475 498.36 231.035 498.885C231.594 499.403 232.04 500.091 232.372 500.948C232.704 501.804 232.87 502.859 232.87 504.112V504.986H222.521V503.203H230.772C230.772 502.445 230.621 501.769 230.318 501.175C230.021 500.58 229.595 500.111 229.042 499.767C228.494 499.424 227.847 499.252 227.101 499.252C226.279 499.252 225.568 499.456 224.968 499.864C224.374 500.266 223.916 500.79 223.596 501.437C223.275 502.084 223.115 502.777 223.115 503.517V504.706C223.115 505.72 223.29 506.58 223.639 507.285C223.995 507.984 224.487 508.517 225.117 508.885C225.746 509.246 226.477 509.427 227.311 509.427C227.853 509.427 228.342 509.351 228.779 509.199C229.222 509.042 229.604 508.809 229.924 508.5C230.245 508.185 230.493 507.795 230.667 507.329L232.66 507.888C232.451 508.564 232.098 509.159 231.603 509.671C231.107 510.178 230.495 510.575 229.767 510.86C229.039 511.14 228.22 511.28 227.311 511.28ZM236.008 511V497.573H238.001V499.601H238.141C238.386 498.937 238.829 498.398 239.47 497.984C240.111 497.571 240.833 497.364 241.638 497.364C241.789 497.364 241.979 497.367 242.206 497.372C242.433 497.378 242.605 497.387 242.722 497.399V499.497C242.652 499.479 242.491 499.453 242.241 499.418C241.996 499.377 241.737 499.357 241.463 499.357C240.81 499.357 240.227 499.494 239.715 499.767C239.208 500.036 238.806 500.409 238.508 500.886C238.217 501.358 238.071 501.897 238.071 502.503V511H236.008Z" fill="black"/>
</g>
<g filter="url(#filter10_d_35_1017)">
<path d="M58.3357 573.098V591H56.1678V573.098H58.3357ZM62.4025 591V577.573H64.3955V579.671H64.5704C64.8501 578.955 65.3017 578.398 65.9253 578.002C66.5488 577.6 67.2976 577.399 68.1718 577.399C69.0575 577.399 69.7947 577.6 70.3833 578.002C70.9777 578.398 71.441 578.955 71.7732 579.671H71.913C72.2568 578.978 72.7726 578.427 73.4602 578.019C74.1479 577.605 74.9725 577.399 75.934 577.399C77.1345 577.399 78.1164 577.774 78.8798 578.526C79.6432 579.272 80.0249 580.435 80.0249 582.014V591H77.962V582.014C77.962 581.023 77.691 580.315 77.149 579.89C76.6071 579.464 75.969 579.252 75.2347 579.252C74.2906 579.252 73.5593 579.537 73.0406 580.108C72.522 580.674 72.2627 581.39 72.2627 582.259V591H70.1648V581.804C70.1648 581.041 69.9171 580.426 69.4218 579.96C68.9264 579.488 68.2883 579.252 67.5074 579.252C66.9713 579.252 66.4701 579.395 66.0039 579.68C65.5436 579.966 65.1706 580.362 64.8851 580.869C64.6053 581.37 64.4655 581.95 64.4655 582.608V591H62.4025ZM87.7478 591.315C86.897 591.315 86.1249 591.154 85.4314 590.834C84.7379 590.508 84.1872 590.038 83.7793 589.427C83.3714 588.809 83.1674 588.063 83.1674 587.189C83.1674 586.42 83.3189 585.796 83.6219 585.318C83.925 584.834 84.33 584.456 84.837 584.182C85.344 583.908 85.9034 583.704 86.5153 583.57C87.133 583.43 87.7536 583.319 88.3772 583.238C89.193 583.133 89.8545 583.054 90.3615 583.002C90.8743 582.943 91.2472 582.847 91.4803 582.713C91.7193 582.579 91.8387 582.346 91.8387 582.014V581.944C91.8387 581.082 91.6027 580.411 91.1307 579.934C90.6645 579.456 89.9564 579.217 89.0066 579.217C88.0217 579.217 87.2496 579.432 86.6901 579.864C86.1307 580.295 85.7373 580.755 85.5101 581.245L83.552 580.545C83.9017 579.73 84.3679 579.094 84.9506 578.64C85.5392 578.179 86.1802 577.859 86.8737 577.678C87.573 577.492 88.2606 577.399 88.9366 577.399C89.3679 577.399 89.8632 577.451 90.4226 577.556C90.9879 577.655 91.5328 577.862 92.0573 578.177C92.5876 578.491 93.0275 578.966 93.3772 579.601C93.7268 580.237 93.9017 581.087 93.9017 582.154V591H91.8387V589.182H91.7338C91.594 589.473 91.3609 589.785 91.0345 590.117C90.7082 590.449 90.274 590.732 89.7321 590.965C89.1901 591.198 88.5287 591.315 87.7478 591.315ZM88.0625 589.462C88.8784 589.462 89.566 589.301 90.1254 588.981C90.6907 588.66 91.1161 588.247 91.4017 587.74C91.693 587.233 91.8387 586.699 91.8387 586.14V584.252C91.7513 584.357 91.559 584.453 91.2618 584.54C90.9704 584.622 90.6324 584.695 90.2478 584.759C89.869 584.817 89.499 584.869 89.1377 584.916C88.7822 584.957 88.4937 584.992 88.2723 585.021C87.7362 585.091 87.235 585.205 86.7688 585.362C86.3084 585.513 85.9355 585.744 85.6499 586.052C85.3702 586.355 85.2303 586.769 85.2303 587.294C85.2303 588.01 85.4955 588.552 86.0258 588.92C86.5619 589.281 87.2408 589.462 88.0625 589.462ZM103.087 596.315C102.09 596.315 101.233 596.186 100.517 595.93C99.7998 595.679 99.2025 595.347 98.7247 594.934C98.2526 594.526 97.8767 594.089 97.597 593.622L99.2404 592.469C99.4269 592.713 99.6629 592.993 99.9484 593.308C100.234 593.628 100.624 593.905 101.12 594.138C101.621 594.377 102.277 594.497 103.087 594.497C104.17 594.497 105.065 594.234 105.77 593.71C106.475 593.185 106.828 592.364 106.828 591.245V588.517H106.653C106.501 588.762 106.286 589.065 106.006 589.427C105.732 589.782 105.336 590.1 104.817 590.379C104.304 590.653 103.611 590.79 102.737 590.79C101.653 590.79 100.68 590.534 99.8173 590.021C98.9607 589.508 98.2818 588.762 97.7806 587.783C97.2853 586.804 97.0376 585.615 97.0376 584.217C97.0376 582.841 97.2794 581.644 97.7631 580.624C98.2468 579.598 98.9199 578.806 99.7823 578.247C100.645 577.681 101.641 577.399 102.772 577.399C103.646 577.399 104.339 577.544 104.852 577.836C105.371 578.121 105.767 578.448 106.041 578.815C106.321 579.176 106.536 579.473 106.688 579.706H106.898V577.573H108.891V591.385C108.891 592.538 108.628 593.477 108.104 594.199C107.585 594.928 106.886 595.461 106.006 595.799C105.132 596.143 104.159 596.315 103.087 596.315ZM103.017 588.937C103.844 588.937 104.543 588.748 105.115 588.369C105.686 587.99 106.12 587.445 106.417 586.734C106.714 586.023 106.863 585.172 106.863 584.182C106.863 583.214 106.717 582.361 106.426 581.621C106.134 580.881 105.703 580.301 105.132 579.881C104.561 579.462 103.856 579.252 103.017 579.252C102.142 579.252 101.414 579.473 100.831 579.916C100.254 580.359 99.8202 580.953 99.5288 581.699C99.2433 582.445 99.1005 583.273 99.1005 584.182C99.1005 585.114 99.2462 585.939 99.5376 586.656C99.8348 587.367 100.272 587.926 100.849 588.334C101.432 588.736 102.154 588.937 103.017 588.937ZM118.296 591.28C117.003 591.28 115.887 590.994 114.948 590.423C114.016 589.846 113.296 589.042 112.789 588.01C112.288 586.973 112.038 585.767 112.038 584.392C112.038 583.016 112.288 581.804 112.789 580.755C113.296 579.7 114.001 578.879 114.905 578.29C115.814 577.696 116.874 577.399 118.087 577.399C118.786 577.399 119.476 577.515 120.158 577.748C120.84 577.981 121.461 578.36 122.02 578.885C122.58 579.403 123.025 580.091 123.358 580.948C123.69 581.804 123.856 582.859 123.856 584.112V584.986H113.506V583.203H121.758C121.758 582.445 121.606 581.769 121.303 581.175C121.006 580.58 120.581 580.111 120.027 579.767C119.479 579.424 118.832 579.252 118.087 579.252C117.265 579.252 116.554 579.456 115.954 579.864C115.359 580.266 114.902 580.79 114.581 581.437C114.261 582.084 114.101 582.777 114.101 583.517V584.706C114.101 585.72 114.275 586.58 114.625 587.285C114.98 587.984 115.473 588.517 116.102 588.885C116.732 589.246 117.463 589.427 118.296 589.427C118.838 589.427 119.328 589.351 119.765 589.199C120.208 589.042 120.589 588.809 120.91 588.5C121.23 588.185 121.478 587.795 121.653 587.329L123.646 587.888C123.436 588.564 123.084 589.159 122.588 589.671C122.093 590.178 121.481 590.575 120.753 590.86C120.024 591.14 119.205 591.28 118.296 591.28Z" fill="black"/>
</g>
<ellipse cx="215.5" cy="111" rx="100.5" ry="78" fill="#146C94"/>
<path d="M184.222 101.556C184.222 105.051 185.771 108.19 188.194 110.374V117.445C188.194 119.63 189.982 121.417 192.167 121.417H196.139C198.324 121.417 200.111 119.63 200.111 117.445V113.473H231.889V117.445C231.889 119.63 233.676 121.417 235.861 121.417H239.833C242.018 121.417 243.806 119.63 243.806 117.445V110.374C246.229 108.19 247.778 105.051 247.778 101.556V61.8337C247.778 47.9309 233.557 45.9448 216 45.9448C198.443 45.9448 184.222 47.9309 184.222 61.8337V101.556ZM198.125 105.528C194.828 105.528 192.167 102.867 192.167 99.5698C192.167 96.2729 194.828 93.6115 198.125 93.6115C201.422 93.6115 204.083 96.2729 204.083 99.5698C204.083 102.867 201.422 105.528 198.125 105.528ZM233.875 105.528C230.578 105.528 227.917 102.867 227.917 99.5698C227.917 96.2729 230.578 93.6115 233.875 93.6115C237.172 93.6115 239.833 96.2729 239.833 99.5698C239.833 102.867 237.172 105.528 233.875 105.528ZM239.833 81.6948H192.167V61.8337H239.833V81.6948Z" fill="#F6F1F1"/>
<path d="M152.219 159.556V140.647H160.418C161.858 140.647 163.067 140.84 164.046 141.228C165.031 141.616 165.773 142.164 166.271 142.872C166.776 143.58 167.028 144.414 167.028 145.374C167.028 146.069 166.875 146.703 166.567 147.276C166.265 147.848 165.84 148.328 165.293 148.716C164.745 149.098 164.105 149.362 163.372 149.51V149.695C164.185 149.726 164.923 149.932 165.588 150.313C166.253 150.689 166.782 151.209 167.176 151.874C167.57 152.532 167.767 153.308 167.767 154.201C167.767 155.235 167.496 156.155 166.955 156.961C166.419 157.768 165.656 158.402 164.665 158.863C163.674 159.325 162.492 159.556 161.119 159.556H152.219ZM157.352 155.456H159.753C160.615 155.456 161.261 155.296 161.692 154.976C162.123 154.65 162.338 154.17 162.338 153.536C162.338 153.093 162.237 152.717 162.033 152.409C161.83 152.102 161.541 151.868 161.165 151.708C160.796 151.548 160.35 151.468 159.827 151.468H157.352V155.456ZM157.352 148.291H159.457C159.907 148.291 160.304 148.221 160.648 148.079C160.993 147.938 161.261 147.734 161.452 147.47C161.649 147.199 161.747 146.87 161.747 146.482C161.747 145.897 161.538 145.451 161.119 145.143C160.701 144.829 160.171 144.672 159.531 144.672H157.352V148.291ZM178.856 153.351V145.374H183.952V159.556H179.114V156.86H178.967C178.659 157.764 178.12 158.472 177.351 158.983C176.581 159.488 175.667 159.74 174.609 159.74C173.618 159.74 172.75 159.513 172.005 159.057C171.266 158.602 170.691 157.974 170.278 157.174C169.872 156.373 169.666 155.456 169.66 154.422V145.374H174.756V153.351C174.763 154.053 174.941 154.604 175.292 155.004C175.649 155.404 176.147 155.604 176.788 155.604C177.212 155.604 177.579 155.515 177.886 155.336C178.2 155.152 178.44 154.893 178.607 154.561C178.779 154.222 178.862 153.819 178.856 153.351ZM199.508 149.99H194.817C194.793 149.701 194.691 149.452 194.513 149.242C194.334 149.033 194.103 148.873 193.82 148.762C193.543 148.645 193.235 148.587 192.897 148.587C192.46 148.587 192.084 148.667 191.77 148.827C191.456 148.987 191.303 149.215 191.309 149.51C191.303 149.719 191.392 149.913 191.577 150.092C191.767 150.27 192.134 150.409 192.675 150.507L195.556 151.024C197.009 151.289 198.089 151.735 198.797 152.363C199.511 152.985 199.871 153.819 199.877 154.865C199.871 155.875 199.569 156.752 198.972 157.497C198.381 158.235 197.572 158.808 196.544 159.214C195.522 159.614 194.356 159.814 193.045 159.814C190.878 159.814 189.182 159.371 187.957 158.485C186.738 157.598 186.058 156.429 185.917 154.976H190.976C191.044 155.425 191.266 155.773 191.641 156.019C192.023 156.259 192.503 156.38 193.081 156.38C193.549 156.38 193.934 156.3 194.236 156.139C194.543 155.979 194.7 155.752 194.706 155.456C194.7 155.185 194.565 154.97 194.3 154.81C194.042 154.65 193.635 154.521 193.081 154.422L190.57 153.979C189.124 153.727 188.04 153.246 187.32 152.539C186.6 151.831 186.243 150.92 186.249 149.806C186.243 148.821 186.501 147.987 187.025 147.304C187.554 146.614 188.308 146.091 189.287 145.734C190.272 145.371 191.438 145.189 192.786 145.189C194.836 145.189 196.452 145.614 197.633 146.463C198.821 147.313 199.446 148.488 199.508 149.99ZM214.793 149.99H210.102C210.078 149.701 209.976 149.452 209.798 149.242C209.619 149.033 209.388 148.873 209.105 148.762C208.828 148.645 208.521 148.587 208.182 148.587C207.745 148.587 207.369 148.667 207.056 148.827C206.742 148.987 206.588 149.215 206.594 149.51C206.588 149.719 206.677 149.913 206.862 150.092C207.052 150.27 207.419 150.409 207.96 150.507L210.841 151.024C212.294 151.289 213.374 151.735 214.082 152.363C214.796 152.985 215.156 153.819 215.162 154.865C215.156 155.875 214.854 156.752 214.257 157.497C213.666 158.235 212.857 158.808 211.829 159.214C210.807 159.614 209.641 159.814 208.33 159.814C206.163 159.814 204.467 159.371 203.242 158.485C202.024 157.598 201.343 156.429 201.202 154.976H206.262C206.329 155.425 206.551 155.773 206.926 156.019C207.308 156.259 207.788 156.38 208.367 156.38C208.834 156.38 209.219 156.3 209.521 156.139C209.829 155.979 209.985 155.752 209.992 155.456C209.985 155.185 209.85 154.97 209.585 154.81C209.327 154.65 208.921 154.521 208.367 154.422L205.855 153.979C204.409 153.727 203.325 153.246 202.605 152.539C201.885 151.831 201.528 150.92 201.534 149.806C201.528 148.821 201.787 147.987 202.31 147.304C202.839 146.614 203.593 146.091 204.572 145.734C205.557 145.371 206.723 145.189 208.071 145.189C210.121 145.189 211.737 145.614 212.919 146.463C214.106 147.313 214.731 148.488 214.793 149.99Z" fill="white" fill-opacity="0.5"/>
<path d="M217.041 159.556V140.647H225.24C226.68 140.647 227.89 140.84 228.868 141.228C229.853 141.616 230.595 142.164 231.094 142.872C231.598 143.58 231.851 144.414 231.851 145.374C231.851 146.069 231.697 146.703 231.389 147.276C231.087 147.848 230.663 148.328 230.115 148.716C229.567 149.098 228.927 149.362 228.194 149.51V149.695C229.007 149.726 229.746 149.932 230.41 150.313C231.075 150.689 231.604 151.209 231.998 151.874C232.392 152.532 232.589 153.308 232.589 154.201C232.589 155.235 232.318 156.155 231.777 156.961C231.241 157.768 230.478 158.402 229.487 158.863C228.496 159.325 227.314 159.556 225.942 159.556H217.041ZM222.175 155.456H224.575C225.437 155.456 226.083 155.296 226.514 154.976C226.945 154.65 227.16 154.17 227.16 153.536C227.16 153.093 227.059 152.717 226.856 152.409C226.653 152.102 226.363 151.868 225.988 151.708C225.618 151.548 225.172 151.468 224.649 151.468H222.175V155.456ZM222.175 148.291H224.28C224.729 148.291 225.126 148.221 225.471 148.079C225.815 147.938 226.083 147.734 226.274 147.47C226.471 147.199 226.569 146.87 226.569 146.482C226.569 145.897 226.36 145.451 225.942 145.143C225.523 144.829 224.994 144.672 224.354 144.672H222.175V148.291ZM241.314 159.814C239.776 159.814 238.458 159.509 237.363 158.9C236.267 158.285 235.427 157.429 234.842 156.333C234.257 155.232 233.965 153.954 233.965 152.502C233.965 151.049 234.257 149.775 234.842 148.679C235.427 147.577 236.267 146.722 237.363 146.112C238.458 145.497 239.776 145.189 241.314 145.189C242.853 145.189 244.171 145.497 245.266 146.112C246.362 146.722 247.202 147.577 247.787 148.679C248.372 149.775 248.664 151.049 248.664 152.502C248.664 153.954 248.372 155.232 247.787 156.333C247.202 157.429 246.362 158.285 245.266 158.9C244.171 159.509 242.853 159.814 241.314 159.814ZM241.351 156.047C241.782 156.047 242.155 155.902 242.469 155.613C242.782 155.324 243.026 154.911 243.198 154.376C243.37 153.84 243.456 153.203 243.456 152.465C243.456 151.72 243.37 151.083 243.198 150.554C243.026 150.018 242.782 149.606 242.469 149.316C242.155 149.027 241.782 148.882 241.351 148.882C240.896 148.882 240.505 149.027 240.179 149.316C239.853 149.606 239.603 150.018 239.431 150.554C239.259 151.083 239.172 151.72 239.172 152.465C239.172 153.203 239.259 153.84 239.431 154.376C239.603 154.911 239.853 155.324 240.179 155.613C240.505 155.902 240.896 156.047 241.351 156.047ZM263.695 149.99H259.005C258.98 149.701 258.879 149.452 258.7 149.242C258.522 149.033 258.291 148.873 258.008 148.762C257.731 148.645 257.423 148.587 257.084 148.587C256.647 148.587 256.272 148.667 255.958 148.827C255.644 148.987 255.49 149.215 255.496 149.51C255.49 149.719 255.579 149.913 255.764 150.092C255.955 150.27 256.321 150.409 256.863 150.507L259.743 151.024C261.196 151.289 262.276 151.735 262.984 152.363C263.698 152.985 264.058 153.819 264.064 154.865C264.058 155.875 263.757 156.752 263.16 157.497C262.569 158.235 261.759 158.808 260.731 159.214C259.71 159.614 258.543 159.814 257.232 159.814C255.065 159.814 253.37 159.371 252.145 158.485C250.926 157.598 250.246 156.429 250.104 154.976H255.164C255.232 155.425 255.453 155.773 255.829 156.019C256.21 156.259 256.69 156.38 257.269 156.38C257.737 156.38 258.122 156.3 258.423 156.139C258.731 155.979 258.888 155.752 258.894 155.456C258.888 155.185 258.752 154.97 258.488 154.81C258.229 154.65 257.823 154.521 257.269 154.422L254.758 153.979C253.311 153.727 252.228 153.246 251.508 152.539C250.787 151.831 250.43 150.92 250.437 149.806C250.43 148.821 250.689 147.987 251.212 147.304C251.742 146.614 252.496 146.091 253.474 145.734C254.459 145.371 255.626 145.189 256.974 145.189C259.023 145.189 260.639 145.614 261.821 146.463C263.009 147.313 263.634 148.488 263.695 149.99ZM278.98 149.99H274.29C274.265 149.701 274.164 149.452 273.985 149.242C273.807 149.033 273.576 148.873 273.293 148.762C273.016 148.645 272.708 148.587 272.369 148.587C271.932 148.587 271.557 148.667 271.243 148.827C270.929 148.987 270.775 149.215 270.781 149.51C270.775 149.719 270.865 149.913 271.049 150.092C271.24 150.27 271.606 150.409 272.148 150.507L275.029 151.024C276.481 151.289 277.561 151.735 278.269 152.363C278.983 152.985 279.343 153.819 279.35 154.865C279.343 155.875 279.042 156.752 278.445 157.497C277.854 158.235 277.044 158.808 276.017 159.214C274.995 159.614 273.828 159.814 272.517 159.814C270.351 159.814 268.655 159.371 267.43 158.485C266.211 157.598 265.531 156.429 265.389 154.976H270.449C270.517 155.425 270.738 155.773 271.114 156.019C271.495 156.259 271.976 156.38 272.554 156.38C273.022 156.38 273.407 156.3 273.708 156.139C274.016 155.979 274.173 155.752 274.179 155.456C274.173 155.185 274.038 154.97 273.773 154.81C273.514 154.65 273.108 154.521 272.554 154.422L270.043 153.979C268.596 153.727 267.513 153.246 266.793 152.539C266.073 151.831 265.716 150.92 265.722 149.806C265.716 148.821 265.974 147.987 266.497 147.304C267.027 146.614 267.781 146.091 268.759 145.734C269.744 145.371 270.911 145.189 272.259 145.189C274.308 145.189 275.924 145.614 277.106 146.463C278.294 147.313 278.919 148.488 278.98 149.99Z" fill="white"/>
<path d="M6.93934 24.9393C6.35355 25.5251 6.35355 26.4749 6.93934 27.0607L16.4853 36.6066C17.0711 37.1924 18.0208 37.1924 18.6066 36.6066C19.1924 36.0208 19.1924 35.0711 18.6066 34.4853L10.1213 26L18.6066 17.5147C19.1924 16.9289 19.1924 15.9792 18.6066 15.3934C18.0208 14.8076 17.0711 14.8076 16.4853 15.3934L6.93934 24.9393ZM41 24.5L8 24.5V27.5L41 27.5V24.5Z" fill="black"/>
<defs>
<filter id="filter0_d_35_1017" x="32" y="558" width="356" height="60" filterUnits="userSpaceOnUse" color-interpolation-filters="sRGB">
<feFlood flood-opacity="0" result="BackgroundImageFix"/>
<feColorMatrix in="SourceAlpha" type="matrix" values="0 0 0 0 0 0 0 0 0 0 0 0 0 0 0 0 0 0 127 0" result="hardAlpha"/>
<feOffset dy="4"/>
<feGaussianBlur stdDeviation="2"/>
<feComposite in2="hardAlpha" operator="out"/>
<feColorMatrix type="matrix" values="0 0 0 0 0 0 0 0 0 0 0 0 0 0 0 0 0 0 0.25 0"/>
<feBlend mode="normal" in2="BackgroundImageFix" result="effect1_dropShadow_35_1017"/>
<feBlend mode="normal" in="SourceGraphic" in2="effect1_dropShadow_35_1017" result="shape"/>
</filter>
<filter id="filter1_d_35_1017" x="32" y="481" width="356" height="60" filterUnits="userSpaceOnUse" color-interpolation-filters="sRGB">
<feFlood flood-opacity="0" result="BackgroundImageFix"/>
<feColorMatrix in="SourceAlpha" type="matrix" values="0 0 0 0 0 0 0 0 0 0 0 0 0 0 0 0 0 0 127 0" result="hardAlpha"/>
<feOffset dy="4"/>
<feGaussianBlur stdDeviation="2"/>
<feComposite in2="hardAlpha" operator="out"/>
<feColorMatrix type="matrix" values="0 0 0 0 0 0 0 0 0 0 0 0 0 0 0 0 0 0 0.25 0"/>
<feBlend mode="normal" in2="BackgroundImageFix" result="effect1_dropShadow_35_1017"/>
<feBlend mode="normal" in="SourceGraphic" in2="effect1_dropShadow_35_1017" result="shape"/>
</filter>
<filter id="filter2_d_35_1017" x="37" y="392" width="356" height="60" filterUnits="userSpaceOnUse" color-interpolation-filters="sRGB">
<feFlood flood-opacity="0" result="BackgroundImageFix"/>
<feColorMatrix in="SourceAlpha" type="matrix" values="0 0 0 0 0 0 0 0 0 0 0 0 0 0 0 0 0 0 127 0" result="hardAlpha"/>
<feOffset dy="4"/>
<feGaussianBlur stdDeviation="2"/>
<feComposite in2="hardAlpha" operator="out"/>
<feColorMatrix type="matrix" values="0 0 0 0 0 0 0 0 0 0 0 0 0 0 0 0 0 0 0.25 0"/>
<feBlend mode="normal" in2="BackgroundImageFix" result="effect1_dropShadow_35_1017"/>
<feBlend mode="normal" in="SourceGraphic" in2="effect1_dropShadow_35_1017" result="shape"/>
</filter>
<filter id="filter3_d_35_1017" x="37" y="303" width="356" height="60" filterUnits="userSpaceOnUse" color-interpolation-filters="sRGB">
<feFlood flood-opacity="0" result="BackgroundImageFix"/>
<feColorMatrix in="SourceAlpha" type="matrix" values="0 0 0 0 0 0 0 0 0 0 0 0 0 0 0 0 0 0 127 0" result="hardAlpha"/>
<feOffset dy="4"/>
<feGaussianBlur stdDeviation="2"/>
<feComposite in2="hardAlpha" operator="out"/>
<feColorMatrix type="matrix" values="0 0 0 0 0 0 0 0 0 0 0 0 0 0 0 0 0 0 0.25 0"/>
<feBlend mode="normal" in2="BackgroundImageFix" result="effect1_dropShadow_35_1017"/>
<feBlend mode="normal" in="SourceGraphic" in2="effect1_dropShadow_35_1017" result="shape"/>
</filter>
<filter id="filter4_d_35_1017" x="37" y="214" width="166" height="60" filterUnits="userSpaceOnUse" color-interpolation-filters="sRGB">
<feFlood flood-opacity="0" result="BackgroundImageFix"/>
<feColorMatrix in="SourceAlpha" type="matrix" values="0 0 0 0 0 0 0 0 0 0 0 0 0 0 0 0 0 0 127 0" result="hardAlpha"/>
<feOffset dy="4"/>
<feGaussianBlur stdDeviation="2"/>
<feComposite in2="hardAlpha" operator="out"/>
<feColorMatrix type="matrix" values="0 0 0 0 0 0 0 0 0 0 0 0 0 0 0 0 0 0 0.25 0"/>
<feBlend mode="normal" in2="BackgroundImageFix" result="effect1_dropShadow_35_1017"/>
<feBlend mode="normal" in="SourceGraphic" in2="effect1_dropShadow_35_1017" result="shape"/>
</filter>
<filter id="filter5_d_35_1017" x="227" y="214" width="166" height="60" filterUnits="userSpaceOnUse" color-interpolation-filters="sRGB">
<feFlood flood-opacity="0" result="BackgroundImageFix"/>
<feColorMatrix in="SourceAlpha" type="matrix" values="0 0 0 0 0 0 0 0 0 0 0 0 0 0 0 0 0 0 127 0" result="hardAlpha"/>
<feOffset dy="4"/>
<feGaussianBlur stdDeviation="2"/>
<feComposite in2="hardAlpha" operator="out"/>
<feColorMatrix type="matrix" values="0 0 0 0 0 0 0 0 0 0 0 0 0 0 0 0 0 0 0.25 0"/>
<feBlend mode="normal" in2="BackgroundImageFix" result="effect1_dropShadow_35_1017"/>
<feBlend mode="normal" in="SourceGraphic" in2="effect1_dropShadow_35_1017" result="shape"/>
</filter>
<filter id="filter6_d_35_1017" x="56.1677" y="321.539" width="65.6006" height="26.7759" filterUnits="userSpaceOnUse" color-interpolation-filters="sRGB">
<feFlood flood-opacity="0" result="BackgroundImageFix"/>
<feColorMatrix in="SourceAlpha" type="matrix" values="0 0 0 0 0 0 0 0 0 0 0 0 0 0 0 0 0 0 127 0" result="hardAlpha"/>
<feOffset dy="4"/>
<feGaussianBlur stdDeviation="2"/>
<feComposite in2="hardAlpha" operator="out"/>
<feColorMatrix type="matrix" values="0 0 0 0 0 0 0 0 0 0 0 0 0 0 0 0 0 0 0.25 0"/>
<feBlend mode="normal" in2="BackgroundImageFix" result="effect1_dropShadow_35_1017"/>
<feBlend mode="normal" in="SourceGraphic" in2="effect1_dropShadow_35_1017" result="shape"/>
</filter>
<filter id="filter7_d_35_1017" x="53.1677" y="407.098" width="117.141" height="26.2163" filterUnits="userSpaceOnUse" color-interpolation-filters="sRGB">
<feFlood flood-opacity="0" result="BackgroundImageFix"/>
<feColorMatrix in="SourceAlpha" type="matrix" values="0 0 0 0 0 0 0 0 0 0 0 0 0 0 0 0 0 0 127 0" result="hardAlpha"/>
<feOffset dy="4"/>
<feGaussianBlur stdDeviation="2"/>
<feComposite in2="hardAlpha" operator="out"/>
<feColorMatrix type="matrix" values="0 0 0 0 0 0 0 0 0 0 0 0 0 0 0 0 0 0 0.25 0"/>
<feBlend mode="normal" in2="BackgroundImageFix" result="effect1_dropShadow_35_1017"/>
<feBlend mode="normal" in="SourceGraphic" in2="effect1_dropShadow_35_1017" result="shape"/>
</filter>
<filter id="filter8_d_35_1017" x="93" y="691" width="212" height="55" filterUnits="userSpaceOnUse" color-interpolation-filters="sRGB">
<feFlood flood-opacity="0" result="BackgroundImageFix"/>
<feColorMatrix in="SourceAlpha" type="matrix" values="0 0 0 0 0 0 0 0 0 0 0 0 0 0 0 0 0 0 127 0" result="hardAlpha"/>
<feOffset dy="4"/>
<feGaussianBlur stdDeviation="2"/>
<feComposite in2="hardAlpha" operator="out"/>
<feColorMatrix type="matrix" values="0 0 0 0 0 0 0 0 0 0 0 0 0 0 0 0 0 0 0.25 0"/>
<feBlend mode="normal" in2="BackgroundImageFix" result="effect1_dropShadow_35_1017"/>
<feBlend mode="normal" in="SourceGraphic" in2="effect1_dropShadow_35_1017" result="shape"/>
</filter>
<filter id="filter9_d_35_1017" x="52.1677" y="492.539" width="194.554" height="26.7412" filterUnits="userSpaceOnUse" color-interpolation-filters="sRGB">
<feFlood flood-opacity="0" result="BackgroundImageFix"/>
<feColorMatrix in="SourceAlpha" type="matrix" values="0 0 0 0 0 0 0 0 0 0 0 0 0 0 0 0 0 0 127 0" result="hardAlpha"/>
<feOffset dy="4"/>
<feGaussianBlur stdDeviation="2"/>
<feComposite in2="hardAlpha" operator="out"/>
<feColorMatrix type="matrix" values="0 0 0 0 0 0 0 0 0 0 0 0 0 0 0 0 0 0 0.25 0"/>
<feBlend mode="normal" in2="BackgroundImageFix" result="effect1_dropShadow_35_1017"/>
<feBlend mode="normal" in="SourceGraphic" in2="effect1_dropShadow_35_1017" result="shape"/>
</filter>
<filter id="filter10_d_35_1017" x="52.1677" y="573.098" width="75.688" height="31.2163" filterUnits="userSpaceOnUse" color-interpolation-filters="sRGB">
<feFlood flood-opacity="0" result="BackgroundImageFix"/>
<feColorMatrix in="SourceAlpha" type="matrix" values="0 0 0 0 0 0 0 0 0 0 0 0 0 0 0 0 0 0 127 0" result="hardAlpha"/>
<feOffset dy="4"/>
<feGaussianBlur stdDeviation="2"/>
<feComposite in2="hardAlpha" operator="out"/>
<feColorMatrix type="matrix" values="0 0 0 0 0 0 0 0 0 0 0 0 0 0 0 0 0 0 0.25 0"/>
<feBlend mode="normal" in2="BackgroundImageFix" result="effect1_dropShadow_35_1017"/>
<feBlend mode="normal" in="SourceGraphic" in2="effect1_dropShadow_35_1017" result="shape"/>
</filter>
</defs>
</svg>
