<svg width="430" height="932" viewBox="0 0 430 932" fill="none" xmlns="http://www.w3.org/2000/svg">
<rect width="430" height="932" fill="#F6F1F1"/>
<path d="M100.261 383L93.6023 359.727H98.9773L102.83 375.898H103.023L107.273 359.727H111.875L116.114 375.932H116.318L120.17 359.727H125.545L118.886 383H114.091L109.659 367.784H109.477L105.057 383H100.261ZM134.168 383.341C132.372 383.341 130.827 382.977 129.531 382.25C128.243 381.515 127.251 380.477 126.554 379.136C125.857 377.788 125.509 376.193 125.509 374.352C125.509 372.557 125.857 370.981 126.554 369.625C127.251 368.269 128.232 367.212 129.497 366.455C130.77 365.697 132.262 365.318 133.974 365.318C135.126 365.318 136.198 365.504 137.19 365.875C138.19 366.239 139.062 366.788 139.804 367.523C140.554 368.258 141.137 369.182 141.554 370.295C141.971 371.402 142.179 372.697 142.179 374.182V375.511H127.44V372.511H137.622C137.622 371.814 137.471 371.197 137.168 370.659C136.865 370.121 136.444 369.701 135.906 369.398C135.376 369.087 134.759 368.932 134.054 368.932C133.319 368.932 132.668 369.102 132.099 369.443C131.539 369.777 131.099 370.227 130.781 370.795C130.463 371.356 130.3 371.981 130.293 372.67V375.523C130.293 376.386 130.452 377.133 130.77 377.761C131.096 378.39 131.554 378.875 132.145 379.216C132.736 379.557 133.437 379.727 134.247 379.727C134.785 379.727 135.277 379.652 135.724 379.5C136.171 379.348 136.554 379.121 136.872 378.818C137.19 378.515 137.433 378.144 137.599 377.705L142.077 378C141.849 379.076 141.384 380.015 140.679 380.818C139.982 381.614 139.08 382.235 137.974 382.682C136.876 383.121 135.607 383.341 134.168 383.341ZM150.179 359.727V383H145.338V359.727H150.179ZM161.943 383.341C160.155 383.341 158.617 382.962 157.33 382.205C156.049 381.439 155.064 380.379 154.375 379.023C153.693 377.667 153.352 376.106 153.352 374.341C153.352 372.553 153.697 370.985 154.386 369.636C155.083 368.28 156.072 367.223 157.352 366.466C158.633 365.701 160.155 365.318 161.92 365.318C163.443 365.318 164.777 365.595 165.92 366.148C167.064 366.701 167.97 367.477 168.636 368.477C169.303 369.477 169.67 370.652 169.739 372H165.17C165.042 371.129 164.701 370.428 164.148 369.898C163.602 369.36 162.886 369.091 162 369.091C161.25 369.091 160.595 369.295 160.034 369.705C159.481 370.106 159.049 370.693 158.739 371.466C158.428 372.239 158.273 373.174 158.273 374.273C158.273 375.386 158.424 376.333 158.727 377.114C159.038 377.894 159.473 378.489 160.034 378.898C160.595 379.307 161.25 379.511 162 379.511C162.553 379.511 163.049 379.398 163.489 379.17C163.936 378.943 164.303 378.614 164.591 378.182C164.886 377.742 165.08 377.216 165.17 376.602H169.739C169.663 377.936 169.299 379.11 168.648 380.125C168.004 381.133 167.114 381.92 165.977 382.489C164.841 383.057 163.496 383.341 161.943 383.341ZM180.724 383.341C178.959 383.341 177.433 382.966 176.145 382.216C174.865 381.458 173.876 380.405 173.179 379.057C172.482 377.701 172.134 376.129 172.134 374.341C172.134 372.538 172.482 370.962 173.179 369.614C173.876 368.258 174.865 367.205 176.145 366.455C177.433 365.697 178.959 365.318 180.724 365.318C182.49 365.318 184.012 365.697 185.293 366.455C186.58 367.205 187.573 368.258 188.27 369.614C188.967 370.962 189.315 372.538 189.315 374.341C189.315 376.129 188.967 377.701 188.27 379.057C187.573 380.405 186.58 381.458 185.293 382.216C184.012 382.966 182.49 383.341 180.724 383.341ZM180.747 379.591C181.55 379.591 182.221 379.364 182.759 378.909C183.296 378.447 183.702 377.818 183.974 377.023C184.255 376.227 184.395 375.322 184.395 374.307C184.395 373.292 184.255 372.386 183.974 371.591C183.702 370.795 183.296 370.167 182.759 369.705C182.221 369.242 181.55 369.011 180.747 369.011C179.937 369.011 179.255 369.242 178.702 369.705C178.156 370.167 177.743 370.795 177.463 371.591C177.19 372.386 177.054 373.292 177.054 374.307C177.054 375.322 177.19 376.227 177.463 377.023C177.743 377.818 178.156 378.447 178.702 378.909C179.255 379.364 179.937 379.591 180.747 379.591ZM192.463 383V365.545H197.077V368.625H197.281C197.645 367.602 198.251 366.795 199.099 366.205C199.948 365.614 200.963 365.318 202.145 365.318C203.342 365.318 204.361 365.617 205.202 366.216C206.043 366.807 206.603 367.61 206.884 368.625H207.065C207.421 367.625 208.065 366.826 208.997 366.227C209.937 365.621 211.046 365.318 212.327 365.318C213.955 365.318 215.277 365.837 216.293 366.875C217.315 367.905 217.827 369.367 217.827 371.261V383H212.997V372.216C212.997 371.246 212.74 370.519 212.224 370.034C211.709 369.549 211.065 369.307 210.293 369.307C209.414 369.307 208.728 369.587 208.236 370.148C207.743 370.701 207.497 371.432 207.497 372.341V383H202.804V372.114C202.804 371.258 202.558 370.576 202.065 370.068C201.58 369.561 200.94 369.307 200.145 369.307C199.607 369.307 199.122 369.443 198.69 369.716C198.266 369.981 197.929 370.356 197.679 370.841C197.429 371.318 197.304 371.879 197.304 372.523V383H192.463ZM229.605 383.341C227.81 383.341 226.264 382.977 224.969 382.25C223.681 381.515 222.688 380.477 221.991 379.136C221.295 377.788 220.946 376.193 220.946 374.352C220.946 372.557 221.295 370.981 221.991 369.625C222.688 368.269 223.67 367.212 224.935 366.455C226.207 365.697 227.7 365.318 229.412 365.318C230.563 365.318 231.635 365.504 232.628 365.875C233.628 366.239 234.499 366.788 235.241 367.523C235.991 368.258 236.575 369.182 236.991 370.295C237.408 371.402 237.616 372.697 237.616 374.182V375.511H222.878V372.511H233.06C233.06 371.814 232.908 371.197 232.605 370.659C232.302 370.121 231.882 369.701 231.344 369.398C230.813 369.087 230.196 368.932 229.491 368.932C228.757 368.932 228.105 369.102 227.537 369.443C226.976 369.777 226.537 370.227 226.219 370.795C225.901 371.356 225.738 371.981 225.73 372.67V375.523C225.73 376.386 225.889 377.133 226.207 377.761C226.533 378.39 226.991 378.875 227.582 379.216C228.173 379.557 228.874 379.727 229.685 379.727C230.223 379.727 230.715 379.652 231.162 379.5C231.609 379.348 231.991 379.121 232.31 378.818C232.628 378.515 232.87 378.144 233.037 377.705L237.514 378C237.287 379.076 236.821 380.015 236.116 380.818C235.42 381.614 234.518 382.235 233.412 382.682C232.313 383.121 231.045 383.341 229.605 383.341ZM248.273 383V359.727H253.114V368.477H253.261C253.473 368.008 253.78 367.53 254.182 367.045C254.591 366.553 255.121 366.144 255.773 365.818C256.432 365.485 257.25 365.318 258.227 365.318C259.5 365.318 260.674 365.652 261.75 366.318C262.826 366.977 263.686 367.973 264.33 369.307C264.973 370.633 265.295 372.295 265.295 374.295C265.295 376.242 264.981 377.886 264.352 379.227C263.731 380.561 262.883 381.572 261.807 382.261C260.739 382.943 259.542 383.284 258.216 383.284C257.277 383.284 256.477 383.129 255.818 382.818C255.167 382.508 254.633 382.117 254.216 381.648C253.799 381.17 253.481 380.689 253.261 380.205H253.045V383H248.273ZM253.011 374.273C253.011 375.311 253.155 376.216 253.443 376.989C253.731 377.761 254.148 378.364 254.693 378.795C255.239 379.22 255.902 379.432 256.682 379.432C257.47 379.432 258.136 379.216 258.682 378.784C259.227 378.345 259.64 377.739 259.92 376.966C260.208 376.186 260.352 375.288 260.352 374.273C260.352 373.265 260.212 372.379 259.932 371.614C259.652 370.848 259.239 370.25 258.693 369.818C258.148 369.386 257.477 369.17 256.682 369.17C255.894 369.17 255.227 369.379 254.682 369.795C254.144 370.212 253.731 370.803 253.443 371.568C253.155 372.333 253.011 373.235 253.011 374.273ZM273.503 383.33C272.389 383.33 271.397 383.136 270.526 382.75C269.654 382.356 268.965 381.777 268.457 381.011C267.957 380.239 267.707 379.277 267.707 378.125C267.707 377.155 267.885 376.341 268.241 375.682C268.598 375.023 269.082 374.492 269.696 374.091C270.31 373.689 271.007 373.386 271.787 373.182C272.575 372.977 273.401 372.833 274.264 372.75C275.279 372.644 276.098 372.545 276.719 372.455C277.34 372.356 277.791 372.212 278.071 372.023C278.351 371.833 278.491 371.553 278.491 371.182V371.114C278.491 370.394 278.264 369.837 277.81 369.443C277.363 369.049 276.726 368.852 275.901 368.852C275.029 368.852 274.336 369.045 273.821 369.432C273.306 369.811 272.965 370.288 272.798 370.864L268.321 370.5C268.548 369.439 268.995 368.523 269.662 367.75C270.329 366.97 271.188 366.371 272.241 365.955C273.302 365.53 274.529 365.318 275.923 365.318C276.893 365.318 277.821 365.432 278.707 365.659C279.601 365.886 280.393 366.239 281.082 366.716C281.779 367.193 282.329 367.807 282.73 368.557C283.132 369.299 283.332 370.189 283.332 371.227V383H278.741V380.58H278.605C278.325 381.125 277.95 381.606 277.48 382.023C277.01 382.432 276.446 382.754 275.787 382.989C275.128 383.216 274.366 383.33 273.503 383.33ZM274.889 379.989C275.601 379.989 276.23 379.848 276.776 379.568C277.321 379.28 277.749 378.894 278.06 378.409C278.37 377.924 278.526 377.375 278.526 376.761V374.909C278.374 375.008 278.166 375.098 277.901 375.182C277.643 375.258 277.351 375.33 277.026 375.398C276.7 375.458 276.374 375.515 276.048 375.568C275.723 375.614 275.427 375.655 275.162 375.693C274.594 375.777 274.098 375.909 273.673 376.091C273.249 376.273 272.92 376.519 272.685 376.83C272.45 377.133 272.332 377.511 272.332 377.966C272.332 378.625 272.571 379.129 273.048 379.477C273.533 379.818 274.147 379.989 274.889 379.989ZM294.974 383.341C293.187 383.341 291.649 382.962 290.361 382.205C289.08 381.439 288.096 380.379 287.406 379.023C286.724 377.667 286.384 376.106 286.384 374.341C286.384 372.553 286.728 370.985 287.418 369.636C288.115 368.28 289.103 367.223 290.384 366.466C291.664 365.701 293.187 365.318 294.952 365.318C296.474 365.318 297.808 365.595 298.952 366.148C300.096 366.701 301.001 367.477 301.668 368.477C302.334 369.477 302.702 370.652 302.77 372H298.202C298.073 371.129 297.732 370.428 297.179 369.898C296.634 369.36 295.918 369.091 295.031 369.091C294.281 369.091 293.626 369.295 293.065 369.705C292.512 370.106 292.08 370.693 291.77 371.466C291.459 372.239 291.304 373.174 291.304 374.273C291.304 375.386 291.455 376.333 291.759 377.114C292.069 377.894 292.505 378.489 293.065 378.898C293.626 379.307 294.281 379.511 295.031 379.511C295.584 379.511 296.08 379.398 296.52 379.17C296.967 378.943 297.334 378.614 297.622 378.182C297.918 377.742 298.111 377.216 298.202 376.602H302.77C302.694 377.936 302.33 379.11 301.679 380.125C301.035 381.133 300.145 381.92 299.009 382.489C297.872 383.057 296.527 383.341 294.974 383.341ZM310.256 377.977L310.267 372.17H310.972L316.562 365.545H322.119L314.608 374.318H313.46L310.256 377.977ZM305.869 383V359.727H310.71V383H305.869ZM316.778 383L311.642 375.398L314.869 371.977L322.449 383H316.778ZM327.324 383.295C326.574 383.295 325.93 383.03 325.392 382.5C324.862 381.962 324.597 381.318 324.597 380.568C324.597 379.826 324.862 379.189 325.392 378.659C325.93 378.129 326.574 377.864 327.324 377.864C328.051 377.864 328.688 378.129 329.233 378.659C329.778 379.189 330.051 379.826 330.051 380.568C330.051 381.068 329.922 381.527 329.665 381.943C329.415 382.352 329.085 382.682 328.676 382.932C328.267 383.174 327.816 383.295 327.324 383.295Z" fill="black"/>
<g filter="url(#filter0_d_35_901)">
<rect x="52" y="466" width="334" height="64" rx="15" fill="white"/>
</g>
<path opacity="0.6" d="M73.7614 501V486.455H78.6761C79.8172 486.455 80.75 486.661 81.4744 487.072C82.2036 487.48 82.7434 488.031 83.0938 488.727C83.4441 489.423 83.6193 490.2 83.6193 491.057C83.6193 491.914 83.4441 492.693 83.0938 493.393C82.7481 494.094 82.2131 494.653 81.4886 495.07C80.7642 495.482 79.8362 495.688 78.7045 495.688H75.1818V494.125H78.6477C79.429 494.125 80.0563 493.99 80.5298 493.72C81.0033 493.45 81.3466 493.086 81.5597 492.626C81.7775 492.162 81.8864 491.639 81.8864 491.057C81.8864 490.474 81.7775 489.954 81.5597 489.494C81.3466 489.035 81.0009 488.675 80.5227 488.415C80.0445 488.15 79.41 488.017 78.6193 488.017H75.5227V501H73.7614ZM87.9055 494.438V501H86.2294V486.455H87.9055V491.795H88.0476C88.3033 491.232 88.6868 490.785 89.1982 490.453C89.7143 490.117 90.4008 489.949 91.2578 489.949C92.0012 489.949 92.6522 490.098 93.2109 490.396C93.7696 490.69 94.2029 491.142 94.5107 491.753C94.8232 492.359 94.9794 493.131 94.9794 494.068V501H93.3033V494.182C93.3033 493.315 93.0784 492.645 92.6286 492.172C92.1835 491.694 91.5656 491.455 90.7749 491.455C90.2256 491.455 89.7332 491.571 89.2976 491.803C88.8667 492.035 88.5258 492.373 88.2749 492.818C88.0286 493.263 87.9055 493.803 87.9055 494.438ZM102.478 501.227C101.493 501.227 100.629 500.993 99.8853 500.524C99.1467 500.055 98.569 499.4 98.1523 498.557C97.7404 497.714 97.5344 496.729 97.5344 495.602C97.5344 494.466 97.7404 493.474 98.1523 492.626C98.569 491.779 99.1467 491.121 99.8853 490.652C100.629 490.183 101.493 489.949 102.478 489.949C103.462 489.949 104.324 490.183 105.063 490.652C105.806 491.121 106.384 491.779 106.796 492.626C107.212 493.474 107.421 494.466 107.421 495.602C107.421 496.729 107.212 497.714 106.796 498.557C106.384 499.4 105.806 500.055 105.063 500.524C104.324 500.993 103.462 501.227 102.478 501.227ZM102.478 499.722C103.226 499.722 103.841 499.53 104.324 499.146C104.807 498.763 105.165 498.259 105.397 497.634C105.629 497.009 105.745 496.331 105.745 495.602C105.745 494.873 105.629 494.194 105.397 493.564C105.165 492.934 104.807 492.425 104.324 492.037C103.841 491.649 103.226 491.455 102.478 491.455C101.73 491.455 101.114 491.649 100.631 492.037C100.148 492.425 99.7906 492.934 99.5586 493.564C99.3266 494.194 99.2106 494.873 99.2106 495.602C99.2106 496.331 99.3266 497.009 99.5586 497.634C99.7906 498.259 100.148 498.763 100.631 499.146C101.114 499.53 101.73 499.722 102.478 499.722ZM111.656 494.438V501H109.979V490.091H111.599V491.795H111.741C111.996 491.241 112.385 490.796 112.906 490.46C113.426 490.119 114.099 489.949 114.923 489.949C115.661 489.949 116.308 490.1 116.862 490.403C117.415 490.702 117.846 491.156 118.154 491.767C118.462 492.373 118.616 493.14 118.616 494.068V501H116.94V494.182C116.94 493.325 116.717 492.657 116.272 492.179C115.827 491.696 115.216 491.455 114.44 491.455C113.905 491.455 113.426 491.571 113.005 491.803C112.588 492.035 112.259 492.373 112.018 492.818C111.776 493.263 111.656 493.803 111.656 494.438ZM126.252 501.227C125.201 501.227 124.295 500.995 123.532 500.531C122.775 500.062 122.19 499.409 121.778 498.571C121.371 497.728 121.167 496.748 121.167 495.631C121.167 494.513 121.371 493.528 121.778 492.676C122.19 491.819 122.763 491.152 123.497 490.673C124.235 490.19 125.097 489.949 126.082 489.949C126.65 489.949 127.211 490.044 127.765 490.233C128.319 490.422 128.824 490.73 129.278 491.156C129.733 491.578 130.095 492.136 130.365 492.832C130.635 493.528 130.77 494.385 130.77 495.403V496.114H122.36V494.665H129.065C129.065 494.049 128.942 493.5 128.696 493.017C128.454 492.534 128.109 492.153 127.659 491.874C127.214 491.594 126.688 491.455 126.082 491.455C125.414 491.455 124.837 491.62 124.349 491.952C123.866 492.278 123.494 492.705 123.234 493.23C122.974 493.756 122.843 494.319 122.843 494.92V495.886C122.843 496.71 122.985 497.409 123.27 497.982C123.558 498.55 123.958 498.983 124.47 499.281C124.981 499.575 125.575 499.722 126.252 499.722C126.693 499.722 127.091 499.66 127.446 499.537C127.806 499.409 128.116 499.22 128.376 498.969C128.636 498.713 128.838 498.396 128.98 498.017L130.599 498.472C130.429 499.021 130.142 499.504 129.74 499.92C129.337 500.332 128.84 500.654 128.248 500.886C127.656 501.114 126.991 501.227 126.252 501.227ZM150.706 486.455V501H149.001L141.075 489.58H140.933V501H139.172V486.455H140.876L148.831 497.903H148.973V486.455H150.706ZM160.878 496.54V490.091H162.554V501H160.878V499.153H160.764C160.509 499.707 160.111 500.179 159.571 500.567C159.031 500.95 158.349 501.142 157.526 501.142C156.844 501.142 156.238 500.993 155.707 500.695C155.177 500.392 154.76 499.937 154.457 499.331C154.154 498.72 154.003 497.951 154.003 497.023V490.091H155.679V496.909C155.679 497.705 155.902 498.339 156.347 498.812C156.796 499.286 157.369 499.523 158.065 499.523C158.482 499.523 158.906 499.416 159.337 499.203C159.772 498.99 160.137 498.663 160.43 498.223C160.729 497.783 160.878 497.222 160.878 496.54ZM165.624 501V490.091H167.243V491.795H167.385C167.613 491.213 167.98 490.761 168.486 490.439C168.993 490.112 169.601 489.949 170.311 489.949C171.031 489.949 171.63 490.112 172.108 490.439C172.591 490.761 172.968 491.213 173.238 491.795H173.351C173.631 491.232 174.05 490.785 174.608 490.453C175.167 490.117 175.837 489.949 176.618 489.949C177.594 489.949 178.391 490.254 179.012 490.865C179.632 491.471 179.942 492.416 179.942 493.699V501H178.266V493.699C178.266 492.894 178.046 492.319 177.605 491.973C177.165 491.627 176.647 491.455 176.05 491.455C175.283 491.455 174.689 491.687 174.267 492.151C173.846 492.61 173.635 493.192 173.635 493.898V501H171.931V493.528C171.931 492.908 171.73 492.409 171.327 492.03C170.925 491.646 170.406 491.455 169.772 491.455C169.336 491.455 168.929 491.571 168.55 491.803C168.176 492.035 167.873 492.357 167.641 492.768C167.414 493.176 167.3 493.647 167.3 494.182V501H165.624ZM183.234 501V486.455H184.91V491.824H185.052C185.175 491.634 185.346 491.393 185.564 491.099C185.786 490.801 186.103 490.536 186.515 490.304C186.932 490.067 187.495 489.949 188.206 489.949C189.124 489.949 189.934 490.179 190.635 490.638C191.335 491.097 191.882 491.748 192.275 492.591C192.668 493.434 192.865 494.428 192.865 495.574C192.865 496.729 192.668 497.731 192.275 498.578C191.882 499.421 191.338 500.074 190.642 500.538C189.946 500.998 189.143 501.227 188.234 501.227C187.533 501.227 186.972 501.111 186.551 500.879C186.129 500.643 185.805 500.375 185.578 500.077C185.35 499.774 185.175 499.523 185.052 499.324H184.853V501H183.234ZM184.882 495.545C184.882 496.369 185.002 497.096 185.244 497.726C185.485 498.351 185.838 498.841 186.302 499.196C186.766 499.546 187.334 499.722 188.007 499.722C188.708 499.722 189.292 499.537 189.761 499.168C190.234 498.794 190.59 498.292 190.826 497.662C191.068 497.027 191.189 496.322 191.189 495.545C191.189 494.778 191.07 494.087 190.833 493.472C190.601 492.851 190.249 492.361 189.775 492.001C189.306 491.637 188.717 491.455 188.007 491.455C187.325 491.455 186.752 491.627 186.288 491.973C185.824 492.314 185.474 492.792 185.237 493.408C185 494.018 184.882 494.731 184.882 495.545ZM200.002 501.227C198.951 501.227 198.045 500.995 197.282 500.531C196.525 500.062 195.94 499.409 195.528 498.571C195.121 497.728 194.917 496.748 194.917 495.631C194.917 494.513 195.121 493.528 195.528 492.676C195.94 491.819 196.513 491.152 197.247 490.673C197.985 490.19 198.847 489.949 199.832 489.949C200.4 489.949 200.961 490.044 201.515 490.233C202.069 490.422 202.574 490.73 203.028 491.156C203.483 491.578 203.845 492.136 204.115 492.832C204.385 493.528 204.52 494.385 204.52 495.403V496.114H196.11V494.665H202.815C202.815 494.049 202.692 493.5 202.446 493.017C202.204 492.534 201.859 492.153 201.409 491.874C200.964 491.594 200.438 491.455 199.832 491.455C199.164 491.455 198.587 491.62 198.099 491.952C197.616 492.278 197.244 492.705 196.984 493.23C196.724 493.756 196.593 494.319 196.593 494.92V495.886C196.593 496.71 196.735 497.409 197.02 497.982C197.308 498.55 197.708 498.983 198.22 499.281C198.731 499.575 199.325 499.722 200.002 499.722C200.443 499.722 200.841 499.66 201.196 499.537C201.556 499.409 201.866 499.22 202.126 498.969C202.386 498.713 202.588 498.396 202.73 498.017L204.349 498.472C204.179 499.021 203.892 499.504 203.49 499.92C203.087 500.332 202.59 500.654 201.998 500.886C201.406 501.114 200.741 501.227 200.002 501.227ZM207.069 501V490.091H208.689V491.739H208.802C209.001 491.199 209.361 490.761 209.882 490.425C210.403 490.089 210.99 489.92 211.643 489.92C211.766 489.92 211.92 489.923 212.105 489.928C212.289 489.932 212.429 489.939 212.524 489.949V491.653C212.467 491.639 212.337 491.618 212.133 491.589C211.934 491.556 211.724 491.54 211.501 491.54C210.971 491.54 210.497 491.651 210.081 491.874C209.669 492.091 209.342 492.394 209.1 492.783C208.864 493.166 208.745 493.604 208.745 494.097V501H207.069Z" fill="black"/>
<g filter="url(#filter1_d_35_901)">
<rect x="52" y="567" width="334" height="64" rx="15" fill="white"/>
</g>
<path opacity="0.6" d="M73.7614 608V593.455H78.6761C79.8172 593.455 80.75 593.661 81.4744 594.072C82.2036 594.48 82.7434 595.031 83.0938 595.727C83.4441 596.423 83.6193 597.2 83.6193 598.057C83.6193 598.914 83.4441 599.693 83.0938 600.393C82.7481 601.094 82.2131 601.653 81.4886 602.07C80.7642 602.482 79.8362 602.688 78.7045 602.688H75.1818V601.125H78.6477C79.429 601.125 80.0563 600.99 80.5298 600.72C81.0033 600.45 81.3466 600.086 81.5597 599.626C81.7775 599.162 81.8864 598.639 81.8864 598.057C81.8864 597.474 81.7775 596.954 81.5597 596.494C81.3466 596.035 81.0009 595.675 80.5227 595.415C80.0445 595.15 79.41 595.017 78.6193 595.017H75.5227V608H73.7614ZM89.4396 608.256C88.7483 608.256 88.121 608.125 87.5575 607.865C86.9941 607.6 86.5466 607.219 86.2152 606.722C85.8838 606.22 85.718 605.614 85.718 604.903C85.718 604.278 85.8411 603.772 86.0874 603.384C86.3336 602.991 86.6626 602.683 87.0746 602.46C87.4865 602.238 87.9411 602.072 88.4382 601.963C88.9401 601.849 89.4444 601.759 89.951 601.693C90.6139 601.608 91.1513 601.544 91.5632 601.501C91.9799 601.454 92.2829 601.376 92.4723 601.267C92.6664 601.158 92.7635 600.969 92.7635 600.699V600.642C92.7635 599.941 92.5717 599.397 92.1882 599.009C91.8094 598.62 91.2341 598.426 90.4624 598.426C89.6622 598.426 89.0348 598.601 88.5803 598.952C88.1257 599.302 87.8061 599.676 87.6214 600.074L86.0305 599.506C86.3146 598.843 86.6934 598.327 87.1669 597.957C87.6451 597.583 88.166 597.323 88.7294 597.176C89.2976 597.025 89.8563 596.949 90.4055 596.949C90.7559 596.949 91.1584 596.991 91.6129 597.077C92.0722 597.157 92.5149 597.325 92.9411 597.581C93.3719 597.837 93.7294 598.223 94.0135 598.739C94.2976 599.255 94.4396 599.946 94.4396 600.812V608H92.7635V606.523H92.6783C92.5646 606.759 92.3752 607.013 92.1101 607.283C91.8449 607.553 91.4922 607.782 91.0518 607.972C90.6115 608.161 90.0741 608.256 89.4396 608.256ZM89.6953 606.75C90.3582 606.75 90.9169 606.62 91.3714 606.359C91.8307 606.099 92.1764 605.763 92.4084 605.351C92.6451 604.939 92.7635 604.506 92.7635 604.051V602.517C92.6925 602.602 92.5362 602.68 92.2947 602.751C92.058 602.818 91.7834 602.877 91.4709 602.929C91.1631 602.976 90.8625 603.019 90.5689 603.057C90.2801 603.09 90.0457 603.118 89.8658 603.142C89.4302 603.199 89.023 603.291 88.6442 603.419C88.2701 603.542 87.9671 603.729 87.7351 603.98C87.5078 604.226 87.3942 604.562 87.3942 604.989C87.3942 605.571 87.6096 606.011 88.0405 606.31C88.4761 606.603 89.0277 606.75 89.6953 606.75ZM105.226 599.534L103.721 599.96C103.626 599.709 103.486 599.465 103.301 599.229C103.122 598.987 102.875 598.788 102.563 598.632C102.25 598.476 101.85 598.398 101.363 598.398C100.695 598.398 100.139 598.552 99.6935 598.859C99.2532 599.162 99.033 599.548 99.033 600.017C99.033 600.434 99.1845 600.763 99.4876 601.004C99.7906 601.246 100.264 601.447 100.908 601.608L102.527 602.006C103.503 602.242 104.23 602.605 104.708 603.092C105.186 603.575 105.425 604.198 105.425 604.96C105.425 605.585 105.245 606.144 104.885 606.636C104.53 607.129 104.033 607.517 103.394 607.801C102.755 608.085 102.011 608.227 101.164 608.227C100.051 608.227 99.1301 607.986 98.4009 607.503C97.6718 607.02 97.2101 606.314 97.016 605.386L98.6069 604.989C98.7584 605.576 99.0449 606.016 99.4663 606.31C99.8924 606.603 100.449 606.75 101.135 606.75C101.917 606.75 102.537 606.584 102.996 606.253C103.46 605.917 103.692 605.514 103.692 605.045C103.692 604.667 103.56 604.349 103.294 604.094C103.029 603.833 102.622 603.639 102.073 603.511L100.255 603.085C99.2556 602.848 98.5217 602.482 98.0529 601.984C97.5889 601.482 97.3569 600.855 97.3569 600.102C97.3569 599.487 97.5297 598.942 97.8754 598.469C98.2257 597.995 98.7016 597.624 99.3029 597.354C99.909 597.084 100.596 596.949 101.363 596.949C102.442 596.949 103.29 597.186 103.905 597.659C104.525 598.133 104.966 598.758 105.226 599.534ZM115.675 599.534L114.17 599.96C114.075 599.709 113.935 599.465 113.751 599.229C113.571 598.987 113.325 598.788 113.012 598.632C112.7 598.476 112.299 598.398 111.812 598.398C111.144 598.398 110.588 598.552 110.143 598.859C109.702 599.162 109.482 599.548 109.482 600.017C109.482 600.434 109.634 600.763 109.937 601.004C110.24 601.246 110.713 601.447 111.357 601.608L112.977 602.006C113.952 602.242 114.679 602.605 115.157 603.092C115.635 603.575 115.874 604.198 115.874 604.96C115.874 605.585 115.694 606.144 115.335 606.636C114.979 607.129 114.482 607.517 113.843 607.801C113.204 608.085 112.46 608.227 111.613 608.227C110.5 608.227 109.579 607.986 108.85 607.503C108.121 607.02 107.659 606.314 107.465 605.386L109.056 604.989C109.208 605.576 109.494 606.016 109.915 606.31C110.342 606.603 110.898 606.75 111.585 606.75C112.366 606.75 112.986 606.584 113.445 606.253C113.909 605.917 114.141 605.514 114.141 605.045C114.141 604.667 114.009 604.349 113.744 604.094C113.478 603.833 113.071 603.639 112.522 603.511L110.704 603.085C109.705 602.848 108.971 602.482 108.502 601.984C108.038 601.482 107.806 600.855 107.806 600.102C107.806 599.487 107.979 598.942 108.325 598.469C108.675 597.995 109.151 597.624 109.752 597.354C110.358 597.084 111.045 596.949 111.812 596.949C112.891 596.949 113.739 597.186 114.354 597.659C114.975 598.133 115.415 598.758 115.675 599.534ZM120.869 608L117.545 597.091H119.306L121.664 605.443H121.778L124.108 597.091H125.897L128.199 605.415H128.312L130.67 597.091H132.431L129.108 608H127.46L125.074 599.619H124.903L122.517 608H120.869ZM138.708 608.227C137.723 608.227 136.859 607.993 136.116 607.524C135.377 607.055 134.799 606.4 134.383 605.557C133.971 604.714 133.765 603.729 133.765 602.602C133.765 601.466 133.971 600.474 134.383 599.626C134.799 598.779 135.377 598.121 136.116 597.652C136.859 597.183 137.723 596.949 138.708 596.949C139.693 596.949 140.555 597.183 141.293 597.652C142.037 598.121 142.614 598.779 143.026 599.626C143.443 600.474 143.651 601.466 143.651 602.602C143.651 603.729 143.443 604.714 143.026 605.557C142.614 606.4 142.037 607.055 141.293 607.524C140.555 607.993 139.693 608.227 138.708 608.227ZM138.708 606.722C139.456 606.722 140.072 606.53 140.555 606.146C141.038 605.763 141.395 605.259 141.627 604.634C141.859 604.009 141.975 603.331 141.975 602.602C141.975 601.873 141.859 601.194 141.627 600.564C141.395 599.934 141.038 599.425 140.555 599.037C140.072 598.649 139.456 598.455 138.708 598.455C137.96 598.455 137.344 598.649 136.862 599.037C136.379 599.425 136.021 599.934 135.789 600.564C135.557 601.194 135.441 601.873 135.441 602.602C135.441 603.331 135.557 604.009 135.789 604.634C136.021 605.259 136.379 605.763 136.862 606.146C137.344 606.53 137.96 606.722 138.708 606.722ZM146.21 608V597.091H147.829V598.739H147.943C148.142 598.199 148.502 597.761 149.022 597.425C149.543 597.089 150.13 596.92 150.784 596.92C150.907 596.92 151.061 596.923 151.245 596.928C151.43 596.932 151.57 596.939 151.664 596.949V598.653C151.608 598.639 151.477 598.618 151.274 598.589C151.075 598.556 150.864 598.54 150.642 598.54C150.111 598.54 149.638 598.651 149.221 598.874C148.809 599.091 148.483 599.394 148.241 599.783C148.004 600.166 147.886 600.604 147.886 601.097V608H146.21ZM157.439 608.227C156.529 608.227 155.727 607.998 155.031 607.538C154.335 607.074 153.79 606.421 153.397 605.578C153.004 604.731 152.808 603.729 152.808 602.574C152.808 601.428 153.004 600.434 153.397 599.591C153.79 598.748 154.337 598.097 155.038 597.638C155.739 597.179 156.548 596.949 157.467 596.949C158.177 596.949 158.738 597.067 159.15 597.304C159.567 597.536 159.884 597.801 160.102 598.099C160.324 598.393 160.497 598.634 160.62 598.824H160.762V593.455H162.439V608H160.819V606.324H160.62C160.497 606.523 160.322 606.774 160.095 607.077C159.868 607.375 159.543 607.643 159.122 607.879C158.7 608.111 158.139 608.227 157.439 608.227ZM157.666 606.722C158.338 606.722 158.906 606.546 159.37 606.196C159.834 605.841 160.187 605.351 160.429 604.726C160.67 604.096 160.791 603.369 160.791 602.545C160.791 601.731 160.672 601.018 160.436 600.408C160.199 599.792 159.849 599.314 159.385 598.973C158.921 598.627 158.348 598.455 157.666 598.455C156.956 598.455 156.364 598.637 155.89 599.001C155.422 599.361 155.069 599.851 154.832 600.472C154.6 601.087 154.484 601.778 154.484 602.545C154.484 603.322 154.602 604.027 154.839 604.662C155.081 605.292 155.436 605.794 155.904 606.168C156.378 606.537 156.965 606.722 157.666 606.722Z" fill="black"/>
<rect x="52" y="715" width="334" height="46" rx="15" fill="#146C94"/>
<path d="M181.114 747V729.545H183.227V745.125H191.341V747H181.114ZM199.659 747.273C198.477 747.273 197.44 746.991 196.548 746.429C195.662 745.866 194.969 745.08 194.469 744.068C193.974 743.057 193.727 741.875 193.727 740.523C193.727 739.159 193.974 737.969 194.469 736.952C194.969 735.935 195.662 735.145 196.548 734.582C197.44 734.02 198.477 733.739 199.659 733.739C200.841 733.739 201.875 734.02 202.761 734.582C203.653 735.145 204.347 735.935 204.841 736.952C205.341 737.969 205.591 739.159 205.591 740.523C205.591 741.875 205.341 743.057 204.841 744.068C204.347 745.08 203.653 745.866 202.761 746.429C201.875 746.991 200.841 747.273 199.659 747.273ZM199.659 745.466C200.557 745.466 201.295 745.236 201.875 744.776C202.455 744.315 202.884 743.71 203.162 742.96C203.44 742.21 203.58 741.398 203.58 740.523C203.58 739.648 203.44 738.832 203.162 738.077C202.884 737.321 202.455 736.71 201.875 736.244C201.295 735.778 200.557 735.545 199.659 735.545C198.761 735.545 198.023 735.778 197.443 736.244C196.864 736.71 196.435 737.321 196.156 738.077C195.878 738.832 195.739 739.648 195.739 740.523C195.739 741.398 195.878 742.21 196.156 742.96C196.435 743.71 196.864 744.315 197.443 744.776C198.023 745.236 198.761 745.466 199.659 745.466ZM213.945 752.182C212.974 752.182 212.138 752.057 211.44 751.807C210.741 751.562 210.158 751.239 209.692 750.835C209.232 750.438 208.866 750.011 208.593 749.557L210.195 748.432C210.377 748.67 210.607 748.943 210.886 749.25C211.164 749.562 211.545 749.832 212.028 750.06C212.516 750.293 213.156 750.409 213.945 750.409C215.002 750.409 215.874 750.153 216.562 749.642C217.249 749.131 217.593 748.33 217.593 747.239V744.58H217.423C217.275 744.818 217.065 745.114 216.792 745.466C216.525 745.812 216.138 746.122 215.633 746.395C215.133 746.662 214.457 746.795 213.604 746.795C212.548 746.795 211.599 746.545 210.758 746.045C209.923 745.545 209.261 744.818 208.772 743.864C208.289 742.909 208.048 741.75 208.048 740.386C208.048 739.045 208.283 737.878 208.755 736.884C209.227 735.884 209.883 735.111 210.724 734.565C211.565 734.014 212.536 733.739 213.638 733.739C214.491 733.739 215.167 733.881 215.667 734.165C216.173 734.443 216.559 734.761 216.826 735.119C217.099 735.472 217.309 735.761 217.457 735.989H217.661V733.909H219.604V747.375C219.604 748.5 219.349 749.415 218.837 750.119C218.332 750.83 217.65 751.349 216.792 751.679C215.94 752.014 214.991 752.182 213.945 752.182ZM213.877 744.989C214.684 744.989 215.366 744.804 215.923 744.435C216.479 744.065 216.903 743.534 217.192 742.841C217.482 742.148 217.627 741.318 217.627 740.352C217.627 739.409 217.485 738.577 217.201 737.855C216.917 737.134 216.496 736.568 215.94 736.159C215.383 735.75 214.695 735.545 213.877 735.545C213.025 735.545 212.315 735.761 211.746 736.193C211.184 736.625 210.761 737.205 210.477 737.932C210.198 738.659 210.059 739.466 210.059 740.352C210.059 741.261 210.201 742.065 210.485 742.764C210.775 743.457 211.201 744.003 211.763 744.401C212.332 744.793 213.036 744.989 213.877 744.989ZM223.286 747V733.909H225.298V747H223.286ZM224.309 731.727C223.917 731.727 223.579 731.594 223.295 731.327C223.016 731.06 222.877 730.739 222.877 730.364C222.877 729.989 223.016 729.668 223.295 729.401C223.579 729.134 223.917 729 224.309 729C224.701 729 225.036 729.134 225.315 729.401C225.599 729.668 225.741 729.989 225.741 730.364C225.741 730.739 225.599 731.06 225.315 731.327C225.036 731.594 224.701 731.727 224.309 731.727ZM230.993 739.125V747H228.982V733.909H230.925V735.955H231.095C231.402 735.29 231.868 734.756 232.493 734.352C233.118 733.943 233.925 733.739 234.913 733.739C235.8 733.739 236.575 733.92 237.24 734.284C237.905 734.642 238.422 735.188 238.791 735.92C239.161 736.648 239.345 737.568 239.345 738.682V747H237.334V738.818C237.334 737.79 237.067 736.989 236.533 736.415C235.999 735.835 235.266 735.545 234.334 735.545C233.692 735.545 233.118 735.685 232.612 735.963C232.112 736.241 231.717 736.648 231.428 737.182C231.138 737.716 230.993 738.364 230.993 739.125Z" fill="white"/>
<path d="M104.312 807H100.497V794.636H104.482C105.681 794.636 106.707 794.884 107.56 795.379C108.414 795.87 109.068 796.576 109.522 797.498C109.977 798.415 110.205 799.514 110.205 800.794C110.205 802.082 109.975 803.191 109.516 804.12C109.058 805.046 108.389 805.758 107.512 806.257C106.635 806.752 105.568 807 104.312 807ZM101.994 805.672H104.216C105.238 805.672 106.085 805.475 106.757 805.08C107.43 804.686 107.931 804.124 108.261 803.396C108.591 802.667 108.756 801.8 108.756 800.794C108.756 799.796 108.593 798.937 108.267 798.216C107.941 797.492 107.454 796.936 106.806 796.55C106.158 796.16 105.351 795.964 104.385 795.964H101.994V805.672ZM116.29 807.193C115.453 807.193 114.718 806.994 114.086 806.596C113.458 806.197 112.967 805.64 112.613 804.923C112.263 804.207 112.088 803.37 112.088 802.412C112.088 801.446 112.263 800.603 112.613 799.882C112.967 799.162 113.458 798.603 114.086 798.204C114.718 797.806 115.453 797.607 116.29 797.607C117.127 797.607 117.859 797.806 118.487 798.204C119.119 798.603 119.61 799.162 119.96 799.882C120.314 800.603 120.491 801.446 120.491 802.412C120.491 803.37 120.314 804.207 119.96 804.923C119.61 805.64 119.119 806.197 118.487 806.596C117.859 806.994 117.127 807.193 116.29 807.193ZM116.29 805.913C116.926 805.913 117.449 805.75 117.859 805.424C118.27 805.098 118.574 804.67 118.771 804.138C118.968 803.607 119.067 803.032 119.067 802.412C119.067 801.792 118.968 801.215 118.771 800.679C118.574 800.144 118.27 799.711 117.859 799.381C117.449 799.051 116.926 798.886 116.29 798.886C115.654 798.886 115.131 799.051 114.72 799.381C114.31 799.711 114.006 800.144 113.809 800.679C113.611 801.215 113.513 801.792 113.513 802.412C113.513 803.032 113.611 803.607 113.809 804.138C114.006 804.67 114.31 805.098 114.72 805.424C115.131 805.75 115.654 805.913 116.29 805.913ZM124.091 801.422V807H122.666V797.727H124.043V799.176H124.163C124.381 798.705 124.711 798.327 125.153 798.041C125.596 797.751 126.168 797.607 126.868 797.607C127.496 797.607 128.045 797.735 128.516 797.993C128.987 798.246 129.353 798.633 129.615 799.152C129.876 799.667 130.007 800.319 130.007 801.108V807H128.582V801.205C128.582 800.476 128.393 799.909 128.015 799.502C127.637 799.092 127.118 798.886 126.457 798.886C126.003 798.886 125.596 798.985 125.238 799.182C124.884 799.379 124.604 799.667 124.399 800.045C124.194 800.424 124.091 800.883 124.091 801.422ZM133.866 794.636V795.723C133.866 796.053 133.806 796.405 133.685 796.779C133.568 797.15 133.395 797.51 133.166 797.86C132.941 798.206 132.667 798.508 132.345 798.766L131.572 798.138C131.826 797.776 132.045 797.399 132.23 797.009C132.419 796.614 132.514 796.194 132.514 795.747V794.636H133.866ZM140.03 797.727V798.935H135.225V797.727H140.03ZM136.625 795.506H138.05V804.344C138.05 804.746 138.108 805.048 138.225 805.249C138.346 805.446 138.499 805.579 138.684 805.648C138.873 805.712 139.072 805.744 139.281 805.744C139.438 805.744 139.567 805.736 139.668 805.72C139.768 805.7 139.849 805.684 139.909 805.672L140.199 806.952C140.102 806.988 139.968 807.024 139.795 807.06C139.622 807.101 139.402 807.121 139.137 807.121C138.734 807.121 138.34 807.034 137.953 806.861C137.571 806.688 137.253 806.424 136.999 806.07C136.75 805.716 136.625 805.269 136.625 804.73V795.506ZM148.379 801.422V807H146.954V794.636H148.379V799.176H148.5C148.717 798.697 149.043 798.317 149.478 798.035C149.916 797.749 150.5 797.607 151.229 797.607C151.86 797.607 152.414 797.733 152.889 797.987C153.364 798.236 153.732 798.621 153.993 799.14C154.259 799.655 154.392 800.311 154.392 801.108V807H152.967V801.205C152.967 800.468 152.776 799.899 152.394 799.496C152.015 799.09 151.49 798.886 150.818 798.886C150.351 798.886 149.933 798.985 149.562 799.182C149.196 799.379 148.906 799.667 148.693 800.045C148.484 800.424 148.379 800.883 148.379 801.422ZM159.727 807.217C159.139 807.217 158.606 807.107 158.127 806.885C157.648 806.66 157.268 806.336 156.986 805.913C156.705 805.487 156.564 804.972 156.564 804.368C156.564 803.837 156.668 803.406 156.878 803.076C157.087 802.742 157.367 802.48 157.717 802.291C158.067 802.102 158.453 801.961 158.876 801.869C159.302 801.772 159.731 801.696 160.162 801.639C160.725 801.567 161.182 801.512 161.532 801.476C161.886 801.436 162.144 801.37 162.305 801.277C162.47 801.184 162.552 801.023 162.552 800.794V800.746C162.552 800.15 162.389 799.687 162.063 799.357C161.741 799.027 161.252 798.862 160.596 798.862C159.916 798.862 159.383 799.011 158.997 799.309C158.61 799.607 158.339 799.925 158.182 800.263L156.829 799.78C157.071 799.216 157.393 798.778 157.795 798.464C158.202 798.146 158.644 797.924 159.123 797.8C159.606 797.671 160.081 797.607 160.548 797.607C160.846 797.607 161.188 797.643 161.574 797.715C161.965 797.784 162.341 797.926 162.703 798.144C163.069 798.361 163.373 798.689 163.615 799.128C163.856 799.567 163.977 800.154 163.977 800.891V807H162.552V805.744H162.48C162.383 805.946 162.222 806.161 161.997 806.39C161.772 806.62 161.472 806.815 161.097 806.976C160.723 807.137 160.266 807.217 159.727 807.217ZM159.944 805.938C160.508 805.938 160.983 805.827 161.369 805.605C161.759 805.384 162.053 805.098 162.25 804.748C162.452 804.398 162.552 804.03 162.552 803.643V802.339C162.492 802.412 162.359 802.478 162.154 802.539C161.953 802.595 161.719 802.645 161.454 802.69C161.192 802.73 160.936 802.766 160.687 802.798C160.441 802.826 160.242 802.851 160.089 802.871C159.719 802.919 159.373 802.998 159.051 803.106C158.733 803.211 158.475 803.37 158.278 803.583C158.085 803.792 157.988 804.078 157.988 804.44C157.988 804.935 158.171 805.31 158.538 805.563C158.908 805.813 159.377 805.938 159.944 805.938ZM173.828 797.727L170.399 807H168.95L165.521 797.727H167.066L169.626 805.116H169.723L172.282 797.727H173.828ZM179.264 807.193C178.371 807.193 177.6 806.996 176.952 806.602C176.308 806.203 175.811 805.648 175.461 804.935C175.115 804.219 174.942 803.386 174.942 802.436C174.942 801.486 175.115 800.649 175.461 799.925C175.811 799.196 176.298 798.629 176.922 798.222C177.55 797.812 178.282 797.607 179.119 797.607C179.602 797.607 180.079 797.687 180.55 797.848C181.021 798.009 181.449 798.271 181.836 798.633C182.222 798.991 182.53 799.466 182.759 800.058C182.989 800.649 183.104 801.378 183.104 802.243V802.847H175.956V801.615H181.655C181.655 801.092 181.55 800.625 181.341 800.214C181.135 799.804 180.842 799.48 180.459 799.243C180.081 799.005 179.634 798.886 179.119 798.886C178.552 798.886 178.061 799.027 177.646 799.309C177.236 799.587 176.92 799.949 176.698 800.396C176.477 800.842 176.366 801.321 176.366 801.832V802.653C176.366 803.354 176.487 803.947 176.729 804.434C176.974 804.917 177.314 805.286 177.749 805.539C178.183 805.789 178.689 805.913 179.264 805.913C179.638 805.913 179.976 805.861 180.278 805.756C180.584 805.648 180.848 805.487 181.069 805.273C181.29 805.056 181.461 804.786 181.582 804.464L182.959 804.851C182.814 805.318 182.57 805.728 182.228 806.082C181.886 806.433 181.463 806.706 180.96 806.903C180.457 807.097 179.892 807.193 179.264 807.193ZM192.781 807.217C192.193 807.217 191.66 807.107 191.181 806.885C190.702 806.66 190.322 806.336 190.04 805.913C189.758 805.487 189.617 804.972 189.617 804.368C189.617 803.837 189.722 803.406 189.931 803.076C190.141 802.742 190.42 802.48 190.77 802.291C191.121 802.102 191.507 801.961 191.93 801.869C192.356 801.772 192.785 801.696 193.215 801.639C193.779 801.567 194.236 801.512 194.586 801.476C194.94 801.436 195.198 801.37 195.358 801.277C195.523 801.184 195.606 801.023 195.606 800.794V800.746C195.606 800.15 195.443 799.687 195.117 799.357C194.795 799.027 194.306 798.862 193.65 798.862C192.97 798.862 192.437 799.011 192.05 799.309C191.664 799.607 191.392 799.925 191.235 800.263L189.883 799.78C190.124 799.216 190.446 798.778 190.849 798.464C191.255 798.146 191.698 797.924 192.177 797.8C192.66 797.671 193.135 797.607 193.602 797.607C193.9 797.607 194.242 797.643 194.628 797.715C195.018 797.784 195.395 797.926 195.757 798.144C196.123 798.361 196.427 798.689 196.669 799.128C196.91 799.567 197.031 800.154 197.031 800.891V807H195.606V805.744H195.534C195.437 805.946 195.276 806.161 195.051 806.39C194.825 806.62 194.525 806.815 194.151 806.976C193.777 807.137 193.32 807.217 192.781 807.217ZM192.998 805.938C193.561 805.938 194.036 805.827 194.423 805.605C194.813 805.384 195.107 805.098 195.304 804.748C195.505 804.398 195.606 804.03 195.606 803.643V802.339C195.546 802.412 195.413 802.478 195.208 802.539C195.006 802.595 194.773 802.645 194.507 802.69C194.246 802.73 193.99 802.766 193.741 802.798C193.495 802.826 193.296 802.851 193.143 802.871C192.773 802.919 192.427 802.998 192.105 803.106C191.787 803.211 191.529 803.37 191.332 803.583C191.139 803.792 191.042 804.078 191.042 804.44C191.042 804.935 191.225 805.31 191.591 805.563C191.962 805.813 192.431 805.938 192.998 805.938ZM201.056 801.422V807H199.631V797.727H201.008V799.176H201.128C201.346 798.705 201.676 798.327 202.118 798.041C202.561 797.751 203.133 797.607 203.833 797.607C204.461 797.607 205.01 797.735 205.481 797.993C205.952 798.246 206.318 798.633 206.58 799.152C206.841 799.667 206.972 800.319 206.972 801.108V807H205.547V801.205C205.547 800.476 205.358 799.909 204.98 799.502C204.602 799.092 204.082 798.886 203.422 798.886C202.968 798.886 202.561 798.985 202.203 799.182C201.849 799.379 201.569 799.667 201.364 800.045C201.158 800.424 201.056 800.883 201.056 801.422ZM217.085 807.217C216.498 807.217 215.965 807.107 215.486 806.885C215.007 806.66 214.626 806.336 214.345 805.913C214.063 805.487 213.922 804.972 213.922 804.368C213.922 803.837 214.027 803.406 214.236 803.076C214.445 802.742 214.725 802.48 215.075 802.291C215.425 802.102 215.812 801.961 216.234 801.869C216.661 801.772 217.089 801.696 217.52 801.639C218.084 801.567 218.54 801.512 218.89 801.476C219.245 801.436 219.502 801.37 219.663 801.277C219.828 801.184 219.911 801.023 219.911 800.794V800.746C219.911 800.15 219.748 799.687 219.422 799.357C219.1 799.027 218.611 798.862 217.955 798.862C217.275 798.862 216.741 799.011 216.355 799.309C215.969 799.607 215.697 799.925 215.54 800.263L214.188 799.78C214.429 799.216 214.751 798.778 215.154 798.464C215.56 798.146 216.003 797.924 216.482 797.8C216.965 797.671 217.44 797.607 217.906 797.607C218.204 797.607 218.546 797.643 218.933 797.715C219.323 797.784 219.699 797.926 220.062 798.144C220.428 798.361 220.732 798.689 220.973 799.128C221.215 799.567 221.335 800.154 221.335 800.891V807H219.911V805.744H219.838C219.742 805.946 219.581 806.161 219.355 806.39C219.13 806.62 218.83 806.815 218.456 806.976C218.081 807.137 217.625 807.217 217.085 807.217ZM217.303 805.938C217.866 805.938 218.341 805.827 218.727 805.605C219.118 805.384 219.412 805.098 219.609 804.748C219.81 804.398 219.911 804.03 219.911 803.643V802.339C219.85 802.412 219.718 802.478 219.512 802.539C219.311 802.595 219.078 802.645 218.812 802.69C218.55 802.73 218.295 802.766 218.045 802.798C217.8 802.826 217.601 802.851 217.448 802.871C217.077 802.919 216.731 802.998 216.409 803.106C216.091 803.211 215.834 803.37 215.637 803.583C215.443 803.792 215.347 804.078 215.347 804.44C215.347 804.935 215.53 805.31 215.896 805.563C216.266 805.813 216.735 805.938 217.303 805.938ZM227.703 807.193C226.834 807.193 226.085 806.988 225.457 806.577C224.829 806.167 224.346 805.601 224.008 804.881C223.67 804.161 223.501 803.338 223.501 802.412C223.501 801.47 223.674 800.639 224.02 799.919C224.37 799.194 224.857 798.629 225.481 798.222C226.109 797.812 226.842 797.607 227.679 797.607C228.331 797.607 228.918 797.727 229.441 797.969C229.965 798.21 230.393 798.548 230.727 798.983C231.061 799.418 231.269 799.925 231.349 800.504H229.924C229.816 800.082 229.574 799.707 229.2 799.381C228.83 799.051 228.331 798.886 227.703 798.886C227.147 798.886 226.66 799.031 226.242 799.321C225.827 799.607 225.503 800.011 225.27 800.534C225.041 801.054 224.926 801.663 224.926 802.364C224.926 803.08 225.039 803.704 225.264 804.235C225.493 804.766 225.815 805.179 226.23 805.473C226.648 805.766 227.139 805.913 227.703 805.913C228.073 805.913 228.409 805.849 228.711 805.72C229.013 805.591 229.268 805.406 229.478 805.165C229.687 804.923 229.836 804.634 229.924 804.295H231.349C231.269 804.843 231.069 805.336 230.752 805.775C230.438 806.209 230.021 806.555 229.502 806.813C228.987 807.066 228.387 807.193 227.703 807.193ZM237.199 807.193C236.33 807.193 235.581 806.988 234.953 806.577C234.325 806.167 233.842 805.601 233.504 804.881C233.166 804.161 232.997 803.338 232.997 802.412C232.997 801.47 233.17 800.639 233.516 799.919C233.867 799.194 234.354 798.629 234.977 798.222C235.605 797.812 236.338 797.607 237.175 797.607C237.827 797.607 238.414 797.727 238.938 797.969C239.461 798.21 239.889 798.548 240.223 798.983C240.557 799.418 240.765 799.925 240.845 800.504H239.421C239.312 800.082 239.07 799.707 238.696 799.381C238.326 799.051 237.827 798.886 237.199 798.886C236.644 798.886 236.157 799.031 235.738 799.321C235.323 799.607 234.999 800.011 234.766 800.534C234.537 801.054 234.422 801.663 234.422 802.364C234.422 803.08 234.535 803.704 234.76 804.235C234.989 804.766 235.311 805.179 235.726 805.473C236.145 805.766 236.636 805.913 237.199 805.913C237.569 805.913 237.905 805.849 238.207 805.72C238.509 805.591 238.765 805.406 238.974 805.165C239.183 804.923 239.332 804.634 239.421 804.295H240.845C240.765 804.843 240.566 805.336 240.248 805.775C239.934 806.209 239.517 806.555 238.998 806.813C238.483 807.066 237.883 807.193 237.199 807.193ZM246.695 807.193C245.858 807.193 245.123 806.994 244.492 806.596C243.864 806.197 243.373 805.64 243.019 804.923C242.668 804.207 242.493 803.37 242.493 802.412C242.493 801.446 242.668 800.603 243.019 799.882C243.373 799.162 243.864 798.603 244.492 798.204C245.123 797.806 245.858 797.607 246.695 797.607C247.532 797.607 248.265 797.806 248.892 798.204C249.524 798.603 250.015 799.162 250.366 799.882C250.72 800.603 250.897 801.446 250.897 802.412C250.897 803.37 250.72 804.207 250.366 804.923C250.015 805.64 249.524 806.197 248.892 806.596C248.265 806.994 247.532 807.193 246.695 807.193ZM246.695 805.913C247.331 805.913 247.854 805.75 248.265 805.424C248.675 805.098 248.979 804.67 249.176 804.138C249.373 803.607 249.472 803.032 249.472 802.412C249.472 801.792 249.373 801.215 249.176 800.679C248.979 800.144 248.675 799.711 248.265 799.381C247.854 799.051 247.331 798.886 246.695 798.886C246.059 798.886 245.536 799.051 245.125 799.381C244.715 799.711 244.411 800.144 244.214 800.679C244.017 801.215 243.918 801.792 243.918 802.412C243.918 803.032 244.017 803.607 244.214 804.138C244.411 804.67 244.715 805.098 245.125 805.424C245.536 805.75 246.059 805.913 246.695 805.913ZM258.915 803.209V797.727H260.34V807H258.915V805.43H258.819C258.601 805.901 258.263 806.302 257.805 806.632C257.346 806.958 256.766 807.121 256.066 807.121C255.486 807.121 254.971 806.994 254.52 806.74C254.07 806.483 253.715 806.096 253.458 805.581C253.2 805.062 253.072 804.408 253.072 803.619V797.727H254.496V803.523C254.496 804.199 254.685 804.738 255.064 805.141C255.446 805.543 255.933 805.744 256.525 805.744C256.879 805.744 257.239 805.654 257.605 805.473C257.976 805.292 258.285 805.014 258.535 804.64C258.789 804.265 258.915 803.788 258.915 803.209ZM264.374 801.422V807H262.949V797.727H264.326V799.176H264.447C264.664 798.705 264.994 798.327 265.437 798.041C265.879 797.751 266.451 797.607 267.151 797.607C267.779 797.607 268.328 797.735 268.799 797.993C269.27 798.246 269.636 798.633 269.898 799.152C270.16 799.667 270.29 800.319 270.29 801.108V807H268.866V801.205C268.866 800.476 268.677 799.909 268.298 799.502C267.92 799.092 267.401 798.886 266.741 798.886C266.286 798.886 265.879 798.985 265.521 799.182C265.167 799.379 264.887 799.667 264.682 800.045C264.477 800.424 264.374 800.883 264.374 801.422ZM276.926 797.727V798.935H272.121V797.727H276.926ZM273.522 795.506H274.946V804.344C274.946 804.746 275.005 805.048 275.121 805.249C275.242 805.446 275.395 805.579 275.58 805.648C275.769 805.712 275.969 805.744 276.178 805.744C276.335 805.744 276.464 805.736 276.564 805.72C276.665 805.7 276.745 805.684 276.806 805.672L277.096 806.952C276.999 806.988 276.864 807.024 276.691 807.06C276.518 807.101 276.299 807.121 276.033 807.121C275.631 807.121 275.236 807.034 274.85 806.861C274.467 806.688 274.15 806.424 273.896 806.07C273.646 805.716 273.522 805.269 273.522 804.73V795.506ZM280.929 803.523V803.45C280.937 802.682 281.018 802.07 281.17 801.615C281.323 801.16 281.541 800.792 281.822 800.51C282.104 800.229 282.442 799.969 282.837 799.732C283.074 799.587 283.287 799.416 283.477 799.218C283.666 799.017 283.815 798.786 283.923 798.524C284.036 798.263 284.092 797.973 284.092 797.655C284.092 797.26 284 796.918 283.815 796.629C283.629 796.339 283.382 796.115 283.072 795.958C282.762 795.801 282.418 795.723 282.04 795.723C281.71 795.723 281.392 795.791 281.086 795.928C280.78 796.065 280.525 796.28 280.319 796.574C280.114 796.868 279.995 797.252 279.963 797.727H278.442C278.474 797.043 278.651 796.458 278.973 795.971C279.299 795.484 279.728 795.111 280.259 794.854C280.794 794.596 281.388 794.467 282.04 794.467C282.748 794.467 283.364 794.608 283.887 794.89C284.414 795.172 284.821 795.558 285.107 796.049C285.396 796.54 285.541 797.099 285.541 797.727C285.541 798.17 285.473 798.57 285.336 798.929C285.203 799.287 285.01 799.607 284.756 799.888C284.507 800.17 284.205 800.42 283.851 800.637C283.497 800.858 283.213 801.092 283 801.337C282.786 801.579 282.631 801.867 282.535 802.201C282.438 802.535 282.386 802.951 282.378 803.45V803.523H280.929ZM281.702 807.097C281.404 807.097 281.148 806.99 280.935 806.777C280.722 806.563 280.615 806.308 280.615 806.01C280.615 805.712 280.722 805.457 280.935 805.243C281.148 805.03 281.404 804.923 281.702 804.923C282 804.923 282.255 805.03 282.468 805.243C282.682 805.457 282.788 805.712 282.788 806.01C282.788 806.207 282.738 806.388 282.637 806.553C282.541 806.718 282.41 806.851 282.245 806.952C282.084 807.048 281.903 807.097 281.702 807.097ZM299.102 798.035C299.045 797.508 298.808 797.097 298.389 796.804C297.975 796.51 297.435 796.363 296.771 796.363C296.305 796.363 295.904 796.433 295.57 796.574C295.236 796.715 294.98 796.906 294.803 797.148C294.626 797.389 294.536 797.665 294.532 797.975C294.532 798.232 294.59 798.456 294.707 798.645C294.828 798.834 294.991 798.995 295.196 799.128C295.401 799.257 295.628 799.365 295.878 799.454C296.127 799.542 296.379 799.617 296.633 799.677L297.792 799.967C298.258 800.076 298.707 800.223 299.138 800.408C299.573 800.593 299.961 800.826 300.303 801.108C300.649 801.39 300.923 801.73 301.124 802.128C301.325 802.527 301.426 802.993 301.426 803.529C301.426 804.253 301.241 804.891 300.87 805.442C300.5 805.99 299.965 806.418 299.265 806.728C298.568 807.034 297.725 807.187 296.735 807.187C295.773 807.187 294.938 807.038 294.23 806.74C293.526 806.443 292.974 806.008 292.576 805.436C292.181 804.865 291.968 804.169 291.936 803.348H294.139C294.171 803.778 294.304 804.136 294.538 804.422C294.771 804.708 295.075 804.921 295.449 805.062C295.828 805.203 296.25 805.273 296.717 805.273C297.204 805.273 297.631 805.201 297.997 805.056C298.367 804.907 298.657 804.702 298.866 804.44C299.075 804.175 299.182 803.865 299.186 803.511C299.182 803.189 299.088 802.923 298.902 802.714C298.717 802.5 298.458 802.323 298.124 802.183C297.794 802.038 297.407 801.909 296.965 801.796L295.558 801.434C294.54 801.172 293.735 800.776 293.143 800.245C292.556 799.709 292.262 798.999 292.262 798.114C292.262 797.385 292.459 796.747 292.853 796.2C293.252 795.653 293.793 795.228 294.477 794.926C295.162 794.62 295.936 794.467 296.802 794.467C297.679 794.467 298.448 794.62 299.108 794.926C299.772 795.228 300.293 795.649 300.671 796.188C301.05 796.723 301.245 797.339 301.257 798.035H299.102ZM303.326 807V797.727H305.511V807H303.326ZM304.425 796.411C304.079 796.411 303.781 796.297 303.531 796.067C303.282 795.834 303.157 795.554 303.157 795.228C303.157 794.898 303.282 794.618 303.531 794.389C303.781 794.155 304.079 794.039 304.425 794.039C304.775 794.039 305.073 794.155 305.318 794.389C305.568 794.618 305.692 794.898 305.692 795.228C305.692 795.554 305.568 795.834 305.318 796.067C305.073 796.297 304.775 796.411 304.425 796.411ZM311.791 810.67C311.006 810.67 310.332 810.564 309.769 810.35C309.205 810.141 308.753 809.859 308.411 809.505C308.069 809.151 307.831 808.759 307.698 808.328L309.666 807.851C309.755 808.032 309.884 808.211 310.053 808.388C310.222 808.57 310.449 808.719 310.735 808.835C311.025 808.956 311.389 809.016 311.828 809.016C312.447 809.016 312.96 808.865 313.367 808.564C313.773 808.266 313.977 807.775 313.977 807.091V805.334H313.868C313.755 805.559 313.59 805.791 313.373 806.028C313.16 806.266 312.876 806.465 312.522 806.626C312.172 806.787 311.731 806.867 311.2 806.867C310.487 806.867 309.841 806.7 309.262 806.366C308.686 806.028 308.227 805.525 307.885 804.857C307.547 804.185 307.378 803.344 307.378 802.333C307.378 801.315 307.547 800.456 307.885 799.756C308.227 799.051 308.688 798.518 309.268 798.156C309.847 797.79 310.493 797.607 311.206 797.607C311.749 797.607 312.196 797.699 312.546 797.884C312.9 798.065 313.182 798.285 313.391 798.542C313.6 798.796 313.759 799.035 313.868 799.261H313.989V797.727H316.144V807.151C316.144 807.944 315.955 808.6 315.576 809.119C315.198 809.638 314.681 810.027 314.025 810.284C313.369 810.542 312.624 810.67 311.791 810.67ZM311.809 805.153C312.272 805.153 312.667 805.04 312.993 804.815C313.319 804.589 313.566 804.265 313.735 803.843C313.904 803.42 313.989 802.913 313.989 802.321C313.989 801.738 313.904 801.227 313.735 800.788C313.57 800.349 313.325 800.009 312.999 799.768C312.677 799.522 312.28 799.4 311.809 799.4C311.322 799.4 310.916 799.526 310.59 799.78C310.264 800.033 310.018 800.382 309.853 800.824C309.688 801.263 309.606 801.762 309.606 802.321C309.606 802.889 309.688 803.386 309.853 803.812C310.022 804.235 310.27 804.565 310.596 804.803C310.926 805.036 311.33 805.153 311.809 805.153ZM320.569 801.567V807H318.384V797.727H320.472V799.303H320.581C320.794 798.784 321.134 798.371 321.601 798.065C322.072 797.759 322.654 797.607 323.346 797.607C323.986 797.607 324.543 797.743 325.018 798.017C325.497 798.291 325.867 798.687 326.129 799.206C326.395 799.725 326.525 800.355 326.521 801.096V807H324.336V801.434C324.336 800.814 324.175 800.329 323.853 799.979C323.535 799.629 323.094 799.454 322.531 799.454C322.149 799.454 321.809 799.538 321.511 799.707C321.217 799.872 320.986 800.112 320.816 800.426C320.651 800.74 320.569 801.12 320.569 801.567ZM338.87 803.1V797.727H341.055V807H338.936V805.352H338.84C338.63 805.871 338.286 806.296 337.807 806.626C337.333 806.956 336.747 807.121 336.051 807.121C335.443 807.121 334.906 806.986 334.439 806.716C333.976 806.443 333.614 806.046 333.352 805.527C333.091 805.004 332.96 804.372 332.96 803.631V797.727H335.145V803.293C335.145 803.881 335.306 804.348 335.628 804.694C335.95 805.04 336.373 805.213 336.896 805.213C337.218 805.213 337.53 805.135 337.832 804.978C338.133 804.821 338.381 804.587 338.574 804.277C338.771 803.963 338.87 803.571 338.87 803.1ZM343.303 810.477V797.727H345.452V799.261H345.578C345.691 799.035 345.85 798.796 346.055 798.542C346.261 798.285 346.538 798.065 346.888 797.884C347.239 797.699 347.685 797.607 348.229 797.607C348.945 797.607 349.591 797.79 350.167 798.156C350.746 798.518 351.205 799.055 351.543 799.768C351.885 800.476 352.056 801.345 352.056 802.376C352.056 803.394 351.889 804.259 351.555 804.972C351.221 805.684 350.766 806.227 350.191 806.602C349.615 806.976 348.963 807.163 348.235 807.163C347.703 807.163 347.263 807.074 346.913 806.897C346.563 806.72 346.281 806.507 346.067 806.257C345.858 806.004 345.695 805.764 345.578 805.539H345.488V810.477H343.303ZM345.446 802.364C345.446 802.963 345.53 803.489 345.699 803.939C345.872 804.39 346.12 804.742 346.442 804.996C346.768 805.245 347.162 805.37 347.625 805.37C348.108 805.37 348.512 805.241 348.838 804.984C349.164 804.722 349.41 804.366 349.575 803.915C349.744 803.46 349.828 802.943 349.828 802.364C349.828 801.788 349.746 801.277 349.581 800.83C349.416 800.384 349.17 800.033 348.844 799.78C348.518 799.526 348.112 799.4 347.625 799.4C347.158 799.4 346.762 799.522 346.436 799.768C346.11 800.013 345.862 800.357 345.693 800.8C345.528 801.243 345.446 801.764 345.446 802.364Z" fill="black"/>
<path d="M0 0H430V336C409.5 274 210.5 274 210.5 274C210.5 274 59 274 0 336V0Z" fill="#146C94"/>
<g clip-path="url(#clip0_35_901)">
<path d="M183.222 179.972C183.222 183.468 184.771 186.606 187.194 188.791V195.861C187.194 198.046 188.982 199.834 191.167 199.834H195.139C197.324 199.834 199.111 198.046 199.111 195.861V191.889H230.889V195.861C230.889 198.046 232.676 199.834 234.861 199.834H238.833C241.018 199.834 242.806 198.046 242.806 195.861V188.791C245.229 186.606 246.778 183.468 246.778 179.972V140.25C246.778 126.347 232.557 124.361 215 124.361C197.443 124.361 183.222 126.347 183.222 140.25V179.972ZM197.125 183.945C193.828 183.945 191.167 181.283 191.167 177.986C191.167 174.689 193.828 172.028 197.125 172.028C200.422 172.028 203.083 174.689 203.083 177.986C203.083 181.283 200.422 183.945 197.125 183.945ZM232.875 183.945C229.578 183.945 226.917 181.283 226.917 177.986C226.917 174.689 229.578 172.028 232.875 172.028C236.172 172.028 238.833 174.689 238.833 177.986C238.833 181.283 236.172 183.945 232.875 183.945ZM238.833 160.111H191.167V140.25H238.833V160.111Z" fill="white"/>
</g>
<path d="M151.219 237.972V219.063H159.418C160.858 219.063 162.067 219.257 163.046 219.645C164.031 220.033 164.773 220.58 165.271 221.288C165.776 221.996 166.028 222.83 166.028 223.79C166.028 224.486 165.875 225.12 165.567 225.692C165.265 226.265 164.84 226.745 164.293 227.133C163.745 227.514 163.105 227.779 162.372 227.927V228.111C163.185 228.142 163.923 228.348 164.588 228.73C165.253 229.105 165.782 229.626 166.176 230.29C166.57 230.949 166.767 231.725 166.767 232.617C166.767 233.651 166.496 234.571 165.955 235.378C165.419 236.184 164.656 236.818 163.665 237.28C162.674 237.741 161.492 237.972 160.119 237.972H151.219ZM156.352 233.873H158.753C159.615 233.873 160.261 233.713 160.692 233.393C161.123 233.066 161.338 232.586 161.338 231.952C161.338 231.509 161.237 231.134 161.033 230.826C160.83 230.518 160.541 230.284 160.165 230.124C159.796 229.964 159.35 229.884 158.827 229.884H156.352V233.873ZM156.352 226.708H158.457C158.907 226.708 159.304 226.637 159.648 226.496C159.993 226.354 160.261 226.151 160.452 225.886C160.649 225.615 160.747 225.286 160.747 224.898C160.747 224.314 160.538 223.867 160.119 223.56C159.701 223.246 159.171 223.089 158.531 223.089H156.352V226.708ZM177.856 231.768V223.79H182.952V237.972H178.114V235.276H177.967C177.659 236.181 177.12 236.889 176.351 237.4C175.581 237.904 174.667 238.157 173.609 238.157C172.618 238.157 171.75 237.929 171.005 237.474C170.266 237.018 169.691 236.39 169.278 235.59C168.872 234.79 168.666 233.873 168.66 232.839V223.79H173.756V231.768C173.763 232.469 173.941 233.02 174.292 233.42C174.649 233.82 175.147 234.02 175.788 234.02C176.212 234.02 176.579 233.931 176.886 233.753C177.2 233.568 177.44 233.31 177.607 232.977C177.779 232.639 177.862 232.235 177.856 231.768ZM198.508 228.407H193.817C193.793 228.118 193.691 227.868 193.513 227.659C193.334 227.45 193.103 227.29 192.82 227.179C192.543 227.062 192.235 227.003 191.897 227.003C191.46 227.003 191.084 227.083 190.77 227.243C190.456 227.404 190.303 227.631 190.309 227.927C190.303 228.136 190.392 228.33 190.577 228.508C190.767 228.687 191.134 228.825 191.675 228.924L194.556 229.441C196.009 229.706 197.089 230.152 197.797 230.78C198.511 231.401 198.871 232.235 198.877 233.282C198.871 234.291 198.569 235.168 197.972 235.913C197.381 236.652 196.572 237.224 195.544 237.631C194.522 238.031 193.356 238.231 192.045 238.231C189.878 238.231 188.182 237.788 186.957 236.901C185.738 236.015 185.058 234.845 184.917 233.393H189.976C190.044 233.842 190.266 234.19 190.641 234.436C191.023 234.676 191.503 234.796 192.081 234.796C192.549 234.796 192.934 234.716 193.236 234.556C193.543 234.396 193.7 234.168 193.706 233.873C193.7 233.602 193.565 233.386 193.3 233.226C193.042 233.066 192.635 232.937 192.081 232.839L189.57 232.395C188.124 232.143 187.04 231.663 186.32 230.955C185.6 230.247 185.243 229.336 185.249 228.222C185.243 227.237 185.501 226.403 186.025 225.72C186.554 225.031 187.308 224.507 188.287 224.15C189.272 223.787 190.438 223.606 191.786 223.606C193.836 223.606 195.452 224.03 196.633 224.88C197.821 225.729 198.446 226.905 198.508 228.407ZM213.793 228.407H209.102C209.078 228.118 208.976 227.868 208.798 227.659C208.619 227.45 208.388 227.29 208.105 227.179C207.828 227.062 207.521 227.003 207.182 227.003C206.745 227.003 206.369 227.083 206.056 227.243C205.742 227.404 205.588 227.631 205.594 227.927C205.588 228.136 205.677 228.33 205.862 228.508C206.052 228.687 206.419 228.825 206.96 228.924L209.841 229.441C211.294 229.706 212.374 230.152 213.082 230.78C213.796 231.401 214.156 232.235 214.162 233.282C214.156 234.291 213.854 235.168 213.257 235.913C212.666 236.652 211.857 237.224 210.829 237.631C209.807 238.031 208.641 238.231 207.33 238.231C205.163 238.231 203.467 237.788 202.242 236.901C201.024 236.015 200.343 234.845 200.202 233.393H205.262C205.329 233.842 205.551 234.19 205.926 234.436C206.308 234.676 206.788 234.796 207.367 234.796C207.834 234.796 208.219 234.716 208.521 234.556C208.829 234.396 208.985 234.168 208.992 233.873C208.985 233.602 208.85 233.386 208.585 233.226C208.327 233.066 207.921 232.937 207.367 232.839L204.855 232.395C203.409 232.143 202.325 231.663 201.605 230.955C200.885 230.247 200.528 229.336 200.534 228.222C200.528 227.237 200.787 226.403 201.31 225.72C201.839 225.031 202.593 224.507 203.572 224.15C204.557 223.787 205.723 223.606 207.071 223.606C209.121 223.606 210.737 224.03 211.919 224.88C213.106 225.729 213.731 226.905 213.793 228.407Z" fill="white" fill-opacity="0.5"/>
<path d="M216.041 237.972V219.063H224.24C225.68 219.063 226.89 219.257 227.868 219.645C228.853 220.033 229.595 220.58 230.094 221.288C230.598 221.996 230.851 222.83 230.851 223.79C230.851 224.486 230.697 225.12 230.389 225.692C230.087 226.265 229.663 226.745 229.115 227.133C228.567 227.514 227.927 227.779 227.194 227.927V228.111C228.007 228.142 228.746 228.348 229.41 228.73C230.075 229.105 230.604 229.626 230.998 230.29C231.392 230.949 231.589 231.725 231.589 232.617C231.589 233.651 231.318 234.571 230.777 235.378C230.241 236.184 229.478 236.818 228.487 237.28C227.496 237.741 226.314 237.972 224.942 237.972H216.041ZM221.175 233.873H223.575C224.437 233.873 225.083 233.713 225.514 233.393C225.945 233.066 226.16 232.586 226.16 231.952C226.16 231.509 226.059 231.134 225.856 230.826C225.653 230.518 225.363 230.284 224.988 230.124C224.618 229.964 224.172 229.884 223.649 229.884H221.175V233.873ZM221.175 226.708H223.28C223.729 226.708 224.126 226.637 224.471 226.496C224.815 226.354 225.083 226.151 225.274 225.886C225.471 225.615 225.569 225.286 225.569 224.898C225.569 224.314 225.36 223.867 224.942 223.56C224.523 223.246 223.994 223.089 223.354 223.089H221.175V226.708ZM240.314 238.231C238.776 238.231 237.458 237.926 236.363 237.317C235.267 236.701 234.427 235.846 233.842 234.75C233.257 233.648 232.965 232.371 232.965 230.918C232.965 229.466 233.257 228.191 233.842 227.096C234.427 225.994 235.267 225.138 236.363 224.529C237.458 223.913 238.776 223.606 240.314 223.606C241.853 223.606 243.171 223.913 244.266 224.529C245.362 225.138 246.202 225.994 246.787 227.096C247.372 228.191 247.664 229.466 247.664 230.918C247.664 232.371 247.372 233.648 246.787 234.75C246.202 235.846 245.362 236.701 244.266 237.317C243.171 237.926 241.853 238.231 240.314 238.231ZM240.351 234.464C240.782 234.464 241.155 234.319 241.469 234.03C241.782 233.74 242.026 233.328 242.198 232.792C242.37 232.257 242.456 231.62 242.456 230.881C242.456 230.136 242.37 229.499 242.198 228.97C242.026 228.435 241.782 228.022 241.469 227.733C241.155 227.444 240.782 227.299 240.351 227.299C239.896 227.299 239.505 227.444 239.179 227.733C238.853 228.022 238.603 228.435 238.431 228.97C238.259 229.499 238.172 230.136 238.172 230.881C238.172 231.62 238.259 232.257 238.431 232.792C238.603 233.328 238.853 233.74 239.179 234.03C239.505 234.319 239.896 234.464 240.351 234.464ZM262.695 228.407H258.005C257.98 228.118 257.879 227.868 257.7 227.659C257.522 227.45 257.291 227.29 257.008 227.179C256.731 227.062 256.423 227.003 256.084 227.003C255.647 227.003 255.272 227.083 254.958 227.243C254.644 227.404 254.49 227.631 254.496 227.927C254.49 228.136 254.579 228.33 254.764 228.508C254.955 228.687 255.321 228.825 255.863 228.924L258.743 229.441C260.196 229.706 261.276 230.152 261.984 230.78C262.698 231.401 263.058 232.235 263.064 233.282C263.058 234.291 262.757 235.168 262.16 235.913C261.569 236.652 260.759 237.224 259.731 237.631C258.71 238.031 257.543 238.231 256.232 238.231C254.065 238.231 252.37 237.788 251.145 236.901C249.926 236.015 249.246 234.845 249.104 233.393H254.164C254.232 233.842 254.453 234.19 254.829 234.436C255.21 234.676 255.69 234.796 256.269 234.796C256.737 234.796 257.122 234.716 257.423 234.556C257.731 234.396 257.888 234.168 257.894 233.873C257.888 233.602 257.752 233.386 257.488 233.226C257.229 233.066 256.823 232.937 256.269 232.839L253.758 232.395C252.311 232.143 251.228 231.663 250.508 230.955C249.787 230.247 249.43 229.336 249.437 228.222C249.43 227.237 249.689 226.403 250.212 225.72C250.742 225.031 251.496 224.507 252.474 224.15C253.459 223.787 254.626 223.606 255.974 223.606C258.023 223.606 259.639 224.03 260.821 224.88C262.009 225.729 262.634 226.905 262.695 228.407ZM277.98 228.407H273.29C273.265 228.118 273.164 227.868 272.985 227.659C272.807 227.45 272.576 227.29 272.293 227.179C272.016 227.062 271.708 227.003 271.369 227.003C270.932 227.003 270.557 227.083 270.243 227.243C269.929 227.404 269.775 227.631 269.781 227.927C269.775 228.136 269.865 228.33 270.049 228.508C270.24 228.687 270.606 228.825 271.148 228.924L274.029 229.441C275.481 229.706 276.561 230.152 277.269 230.78C277.983 231.401 278.343 232.235 278.35 233.282C278.343 234.291 278.042 235.168 277.445 235.913C276.854 236.652 276.044 237.224 275.017 237.631C273.995 238.031 272.828 238.231 271.517 238.231C269.351 238.231 267.655 237.788 266.43 236.901C265.211 236.015 264.531 234.845 264.389 233.393H269.449C269.517 233.842 269.738 234.19 270.114 234.436C270.495 234.676 270.976 234.796 271.554 234.796C272.022 234.796 272.407 234.716 272.708 234.556C273.016 234.396 273.173 234.168 273.179 233.873C273.173 233.602 273.038 233.386 272.773 233.226C272.514 233.066 272.108 232.937 271.554 232.839L269.043 232.395C267.596 232.143 266.513 231.663 265.793 230.955C265.073 230.247 264.716 229.336 264.722 228.222C264.716 227.237 264.974 226.403 265.497 225.72C266.027 225.031 266.781 224.507 267.759 224.15C268.744 223.787 269.911 223.606 271.259 223.606C273.308 223.606 274.924 224.03 276.106 224.88C277.294 225.729 277.919 226.905 277.98 228.407Z" fill="white"/>
<defs>
<filter id="filter0_d_35_901" x="48" y="466" width="342" height="72" filterUnits="userSpaceOnUse" color-interpolation-filters="sRGB">
<feFlood flood-opacity="0" result="BackgroundImageFix"/>
<feColorMatrix in="SourceAlpha" type="matrix" values="0 0 0 0 0 0 0 0 0 0 0 0 0 0 0 0 0 0 127 0" result="hardAlpha"/>
<feOffset dy="4"/>
<feGaussianBlur stdDeviation="2"/>
<feComposite in2="hardAlpha" operator="out"/>
<feColorMatrix type="matrix" values="0 0 0 0 0 0 0 0 0 0 0 0 0 0 0 0 0 0 0.25 0"/>
<feBlend mode="normal" in2="BackgroundImageFix" result="effect1_dropShadow_35_901"/>
<feBlend mode="normal" in="SourceGraphic" in2="effect1_dropShadow_35_901" result="shape"/>
</filter>
<filter id="filter1_d_35_901" x="48" y="567" width="342" height="72" filterUnits="userSpaceOnUse" color-interpolation-filters="sRGB">
<feFlood flood-opacity="0" result="BackgroundImageFix"/>
<feColorMatrix in="SourceAlpha" type="matrix" values="0 0 0 0 0 0 0 0 0 0 0 0 0 0 0 0 0 0 127 0" result="hardAlpha"/>
<feOffset dy="4"/>
<feGaussianBlur stdDeviation="2"/>
<feComposite in2="hardAlpha" operator="out"/>
<feColorMatrix type="matrix" values="0 0 0 0 0 0 0 0 0 0 0 0 0 0 0 0 0 0 0.25 0"/>
<feBlend mode="normal" in2="BackgroundImageFix" result="effect1_dropShadow_35_901"/>
<feBlend mode="normal" in="SourceGraphic" in2="effect1_dropShadow_35_901" result="shape"/>
</filter>
<clipPath id="clip0_35_901">
<rect width="89.375" height="89.375" fill="white" transform="translate(174.375 124)"/>
</clipPath>
</defs>
</svg>
