<svg width="430" height="932" viewBox="0 0 430 932" fill="none" xmlns="http://www.w3.org/2000/svg">
<rect width="430" height="932" fill="#F6F1F1"/>
<g filter="url(#filter0_d_35_995)">
<rect x="27" y="500" width="357" height="52" rx="15" fill="white"/>
</g>
<g filter="url(#filter1_d_35_995)">
<rect x="27" y="411" width="357" height="52" rx="15" fill="white"/>
</g>
<path d="M55.1678 446V428.098H65.972V430.021H57.3357V436.07H65.4126V437.993H57.3357V444.077H66.1119V446H55.1678ZM69.5997 446V432.573H71.5927V434.671H71.7675C72.0472 433.955 72.4988 433.398 73.1224 433.002C73.7459 432.6 74.4948 432.399 75.3689 432.399C76.2547 432.399 76.9918 432.6 77.5804 433.002C78.1748 433.398 78.6381 433.955 78.9703 434.671H79.1101C79.454 433.978 79.9697 433.427 80.6573 433.019C81.345 432.605 82.1696 432.399 83.1311 432.399C84.3316 432.399 85.3135 432.774 86.0769 433.526C86.8403 434.272 87.222 435.435 87.222 437.014V446H85.1591V437.014C85.1591 436.023 84.8881 435.315 84.3462 434.89C83.8042 434.464 83.1661 434.252 82.4318 434.252C81.4878 434.252 80.7564 434.537 80.2378 435.108C79.7191 435.674 79.4598 436.39 79.4598 437.259V446H77.3619V436.804C77.3619 436.041 77.1142 435.426 76.6189 434.96C76.1235 434.488 75.4854 434.252 74.7045 434.252C74.1684 434.252 73.6672 434.395 73.201 434.68C72.7407 434.966 72.3677 435.362 72.0822 435.869C71.8024 436.37 71.6626 436.95 71.6626 437.608V446H69.5997ZM94.9449 446.315C94.0941 446.315 93.322 446.154 92.6285 445.834C91.935 445.508 91.3843 445.038 90.9764 444.427C90.5685 443.809 90.3645 443.063 90.3645 442.189C90.3645 441.42 90.516 440.796 90.8191 440.318C91.1221 439.834 91.5271 439.456 92.0341 439.182C92.5411 438.908 93.1005 438.704 93.7124 438.57C94.3301 438.43 94.9508 438.319 95.5743 438.238C96.3902 438.133 97.0516 438.054 97.5586 438.002C98.0714 437.943 98.4443 437.847 98.6774 437.713C98.9164 437.579 99.0358 437.346 99.0358 437.014V436.944C99.0358 436.082 98.7998 435.411 98.3278 434.934C97.8616 434.456 97.1536 434.217 96.2037 434.217C95.2188 434.217 94.4467 434.432 93.8872 434.864C93.3278 435.295 92.9344 435.755 92.7072 436.245L90.7491 435.545C91.0988 434.73 91.565 434.094 92.1477 433.64C92.7363 433.179 93.3773 432.859 94.0708 432.678C94.7701 432.492 95.4578 432.399 96.1337 432.399C96.565 432.399 97.0603 432.451 97.6198 432.556C98.185 432.655 98.7299 432.862 99.2544 433.177C99.7847 433.491 100.225 433.966 100.574 434.601C100.924 435.237 101.099 436.087 101.099 437.154V446H99.0358V444.182H98.9309C98.7911 444.473 98.558 444.785 98.2316 445.117C97.9053 445.449 97.4712 445.732 96.9292 445.965C96.3872 446.198 95.7258 446.315 94.9449 446.315ZM95.2596 444.462C96.0755 444.462 96.7631 444.301 97.3226 443.981C97.8878 443.66 98.3132 443.247 98.5988 442.74C98.8902 442.233 99.0358 441.699 99.0358 441.14V439.252C98.9484 439.357 98.7561 439.453 98.4589 439.54C98.1675 439.622 97.8295 439.695 97.4449 439.759C97.0661 439.817 96.6961 439.869 96.3348 439.916C95.9793 439.957 95.6909 439.992 95.4694 440.021C94.9333 440.091 94.4321 440.205 93.9659 440.362C93.5055 440.513 93.1326 440.744 92.847 441.052C92.5673 441.355 92.4274 441.769 92.4274 442.294C92.4274 443.01 92.6926 443.552 93.2229 443.92C93.759 444.281 94.4379 444.462 95.2596 444.462ZM104.864 446V432.573H106.927V446H104.864ZM105.913 430.336C105.511 430.336 105.164 430.199 104.873 429.925C104.587 429.651 104.444 429.322 104.444 428.937C104.444 428.552 104.587 428.223 104.873 427.949C105.164 427.675 105.511 427.538 105.913 427.538C106.315 427.538 106.659 427.675 106.944 427.949C107.236 428.223 107.382 428.552 107.382 428.937C107.382 429.322 107.236 429.651 106.944 429.925C106.659 430.199 106.315 430.336 105.913 430.336ZM112.768 428.098V446H110.705V428.098H112.768Z" fill="black"/>
<path d="M43.1678 533V515.098H49.2168C50.6212 515.098 51.7692 515.351 52.6608 515.858C53.5583 516.36 54.2226 517.038 54.6538 517.895C55.0851 518.752 55.3007 519.707 55.3007 520.762C55.3007 521.817 55.0851 522.776 54.6538 523.638C54.2284 524.501 53.5699 525.188 52.6783 525.701C51.7867 526.208 50.6445 526.462 49.2517 526.462H44.9161V524.538H49.1818C50.1434 524.538 50.9155 524.372 51.4983 524.04C52.081 523.708 52.5035 523.259 52.7657 522.694C53.0338 522.123 53.1678 521.479 53.1678 520.762C53.1678 520.045 53.0338 519.404 52.7657 518.839C52.5035 518.274 52.0781 517.831 51.4895 517.51C50.9009 517.184 50.12 517.021 49.1469 517.021H45.3357V533H43.1678ZM62.4642 533.315C61.6133 533.315 60.8412 533.154 60.1477 532.834C59.4543 532.508 58.9036 532.038 58.4956 531.427C58.0877 530.809 57.8837 530.063 57.8837 529.189C57.8837 528.42 58.0353 527.796 58.3383 527.318C58.6413 526.834 59.0463 526.456 59.5533 526.182C60.0603 525.908 60.6198 525.704 61.2316 525.57C61.8494 525.43 62.47 525.319 63.0935 525.238C63.9094 525.133 64.5708 525.054 65.0778 525.002C65.5906 524.943 65.9636 524.847 66.1967 524.713C66.4356 524.579 66.5551 524.346 66.5551 524.014V523.944C66.5551 523.082 66.3191 522.411 65.847 521.934C65.3808 521.456 64.6728 521.217 63.7229 521.217C62.7381 521.217 61.9659 521.432 61.4065 521.864C60.847 522.295 60.4537 522.755 60.2264 523.245L58.2684 522.545C58.618 521.73 59.0842 521.094 59.667 520.64C60.2555 520.179 60.8966 519.859 61.59 519.678C62.2893 519.492 62.977 519.399 63.653 519.399C64.0842 519.399 64.5795 519.451 65.139 519.556C65.7043 519.655 66.2491 519.862 66.7736 520.177C67.3039 520.491 67.7439 520.966 68.0935 521.601C68.4432 522.237 68.618 523.087 68.618 524.154V533H66.5551V531.182H66.4502C66.3103 531.473 66.0772 531.785 65.7509 532.117C65.4245 532.449 64.9904 532.732 64.4484 532.965C63.9065 533.198 63.245 533.315 62.4642 533.315ZM62.7788 531.462C63.5947 531.462 64.2823 531.301 64.8418 530.981C65.4071 530.66 65.8325 530.247 66.118 529.74C66.4094 529.233 66.5551 528.699 66.5551 528.14V526.252C66.4677 526.357 66.2754 526.453 65.9781 526.54C65.6868 526.622 65.3488 526.695 64.9642 526.759C64.5854 526.817 64.2153 526.869 63.854 526.916C63.4985 526.957 63.2101 526.992 62.9886 527.021C62.4525 527.091 61.9513 527.205 61.4851 527.362C61.0248 527.513 60.6518 527.744 60.3663 528.052C60.0865 528.355 59.9467 528.769 59.9467 529.294C59.9467 530.01 60.2118 530.552 60.7421 530.92C61.2783 531.281 61.9572 531.462 62.7788 531.462ZM81.8938 522.58L80.0406 523.105C79.9241 522.796 79.7522 522.496 79.5249 522.205C79.3035 521.907 79.0004 521.663 78.6158 521.47C78.2312 521.278 77.7388 521.182 77.1386 521.182C76.3169 521.182 75.6321 521.371 75.0844 521.75C74.5424 522.123 74.2714 522.598 74.2714 523.175C74.2714 523.688 74.4579 524.093 74.8309 524.39C75.2038 524.687 75.7866 524.935 76.5791 525.133L78.5721 525.622C79.7726 525.914 80.6671 526.36 81.2557 526.96C81.8443 527.554 82.1386 528.321 82.1386 529.259C82.1386 530.028 81.9171 530.716 81.4742 531.322C81.0372 531.928 80.4253 532.406 79.6386 532.755C78.8518 533.105 77.9369 533.28 76.8938 533.28C75.5243 533.28 74.3909 532.983 73.4934 532.388C72.596 531.794 72.0278 530.925 71.7889 529.783L73.7469 529.294C73.9334 530.016 74.286 530.558 74.8046 530.92C75.3291 531.281 76.0138 531.462 76.8588 531.462C77.8204 531.462 78.5838 531.258 79.149 530.85C79.7201 530.436 80.0057 529.941 80.0057 529.364C80.0057 528.897 79.8425 528.507 79.5162 528.192C79.1898 527.872 78.6887 527.633 78.0127 527.476L75.7749 526.951C74.5453 526.66 73.642 526.208 73.0651 525.596C72.494 524.978 72.2085 524.206 72.2085 523.28C72.2085 522.522 72.4212 521.852 72.8466 521.269C73.2778 520.686 73.8635 520.229 74.6036 519.897C75.3495 519.565 76.1945 519.399 77.1386 519.399C78.4672 519.399 79.5103 519.69 80.2679 520.273C81.0313 520.855 81.5733 521.625 81.8938 522.58ZM94.7544 522.58L92.9012 523.105C92.7847 522.796 92.6128 522.496 92.3855 522.205C92.164 521.907 91.861 521.663 91.4764 521.47C91.0918 521.278 90.5994 521.182 89.9991 521.182C89.1774 521.182 88.4927 521.371 87.9449 521.75C87.403 522.123 87.132 522.598 87.132 523.175C87.132 523.688 87.3185 524.093 87.6914 524.39C88.0644 524.687 88.6471 524.935 89.4397 525.133L91.4327 525.622C92.6332 525.914 93.5277 526.36 94.1163 526.96C94.7048 527.554 94.9991 528.321 94.9991 529.259C94.9991 530.028 94.7777 530.716 94.3348 531.322C93.8977 531.928 93.2858 532.406 92.4991 532.755C91.7124 533.105 90.7975 533.28 89.7544 533.28C88.3849 533.28 87.2515 532.983 86.354 532.388C85.4566 531.794 84.8884 530.925 84.6495 529.783L86.6075 529.294C86.794 530.016 87.1466 530.558 87.6652 530.92C88.1897 531.281 88.8744 531.462 89.7194 531.462C90.6809 531.462 91.4443 531.258 92.0096 530.85C92.5807 530.436 92.8663 529.941 92.8663 529.364C92.8663 528.897 92.7031 528.507 92.3767 528.192C92.0504 527.872 91.5492 527.633 90.8733 527.476L88.6355 526.951C87.4059 526.66 86.5026 526.208 85.9257 525.596C85.3546 524.978 85.0691 524.206 85.0691 523.28C85.0691 522.522 85.2818 521.852 85.7072 521.269C86.1384 520.686 86.7241 520.229 87.4642 519.897C88.2101 519.565 89.0551 519.399 89.9991 519.399C91.3278 519.399 92.3709 519.69 93.1285 520.273C93.8919 520.855 94.4339 521.625 94.7544 522.58ZM101.146 533L97.0555 519.573H99.2233L102.125 529.853H102.265L105.132 519.573H107.335L110.167 529.818H110.307L113.209 519.573H115.377L111.286 533H109.258L106.321 522.685H106.111L103.174 533H101.146ZM123.102 533.28C121.89 533.28 120.827 532.991 119.912 532.414C119.003 531.837 118.292 531.03 117.779 529.993C117.272 528.956 117.018 527.744 117.018 526.357C117.018 524.958 117.272 523.737 117.779 522.694C118.292 521.651 119.003 520.841 119.912 520.264C120.827 519.687 121.89 519.399 123.102 519.399C124.314 519.399 125.375 519.687 126.284 520.264C127.199 520.841 127.91 521.651 128.417 522.694C128.93 523.737 129.186 524.958 129.186 526.357C129.186 527.744 128.93 528.956 128.417 529.993C127.91 531.03 127.199 531.837 126.284 532.414C125.375 532.991 124.314 533.28 123.102 533.28ZM123.102 531.427C124.023 531.427 124.781 531.191 125.375 530.719C125.969 530.247 126.409 529.626 126.695 528.857C126.98 528.087 127.123 527.254 127.123 526.357C127.123 525.459 126.98 524.623 126.695 523.848C126.409 523.073 125.969 522.446 125.375 521.969C124.781 521.491 124.023 521.252 123.102 521.252C122.182 521.252 121.424 521.491 120.83 521.969C120.235 522.446 119.795 523.073 119.51 523.848C119.224 524.623 119.081 525.459 119.081 526.357C119.081 527.254 119.224 528.087 119.51 528.857C119.795 529.626 120.235 530.247 120.83 530.719C121.424 531.191 122.182 531.427 123.102 531.427ZM132.335 533V519.573H134.328V521.601H134.468C134.713 520.937 135.156 520.398 135.797 519.984C136.438 519.571 137.16 519.364 137.965 519.364C138.116 519.364 138.306 519.367 138.533 519.372C138.76 519.378 138.932 519.387 139.049 519.399V521.497C138.979 521.479 138.818 521.453 138.568 521.418C138.323 521.377 138.064 521.357 137.79 521.357C137.137 521.357 136.554 521.494 136.042 521.767C135.535 522.036 135.132 522.409 134.835 522.886C134.544 523.358 134.398 523.897 134.398 524.503V533H132.335ZM146.155 533.28C145.036 533.28 144.049 532.997 143.192 532.432C142.335 531.861 141.665 531.057 141.181 530.019C140.698 528.976 140.456 527.744 140.456 526.322C140.456 524.911 140.698 523.688 141.181 522.65C141.665 521.613 142.338 520.812 143.201 520.247C144.063 519.681 145.06 519.399 146.19 519.399C147.064 519.399 147.755 519.544 148.262 519.836C148.775 520.121 149.165 520.448 149.433 520.815C149.707 521.176 149.92 521.473 150.071 521.706H150.246V515.098H152.309V533H150.316V530.937H150.071C149.92 531.182 149.704 531.491 149.424 531.864C149.145 532.231 148.745 532.56 148.227 532.851C147.708 533.137 147.018 533.28 146.155 533.28ZM146.435 531.427C147.262 531.427 147.962 531.211 148.533 530.78C149.104 530.343 149.538 529.74 149.835 528.97C150.132 528.195 150.281 527.301 150.281 526.287C150.281 525.284 150.135 524.407 149.844 523.656C149.553 522.898 149.121 522.309 148.55 521.89C147.979 521.464 147.274 521.252 146.435 521.252C145.561 521.252 144.832 521.476 144.25 521.925C143.673 522.368 143.238 522.971 142.947 523.734C142.662 524.492 142.519 525.343 142.519 526.287C142.519 527.242 142.664 528.111 142.956 528.892C143.253 529.667 143.69 530.284 144.267 530.745C144.85 531.199 145.572 531.427 146.435 531.427Z" fill="black"/>
<g filter="url(#filter2_d_35_995)">
<rect x="92" y="635" width="204" height="47" rx="15" fill="#146C94"/>
</g>
<path d="M154.168 666V648.098H160.217C161.615 648.098 162.763 648.337 163.661 648.815C164.558 649.287 165.223 649.936 165.654 650.764C166.085 651.591 166.301 652.533 166.301 653.587C166.301 654.642 166.085 655.578 165.654 656.393C165.223 657.209 164.561 657.85 163.67 658.316C162.778 658.777 161.639 659.007 160.252 659.007H155.357V657.049H160.182C161.138 657.049 161.907 656.909 162.49 656.629C163.078 656.35 163.503 655.953 163.766 655.441C164.034 654.922 164.168 654.304 164.168 653.587C164.168 652.871 164.034 652.244 163.766 651.708C163.498 651.172 163.069 650.758 162.481 650.467C161.892 650.17 161.114 650.021 160.147 650.021H156.336V666H154.168ZM162.594 657.958L167 666H164.483L160.147 657.958H162.594ZM175.118 666.28C173.825 666.28 172.709 665.994 171.771 665.423C170.838 664.846 170.118 664.042 169.611 663.01C169.11 661.973 168.86 660.767 168.86 659.392C168.86 658.016 169.11 656.804 169.611 655.755C170.118 654.7 170.824 653.879 171.727 653.29C172.636 652.696 173.697 652.399 174.909 652.399C175.608 652.399 176.299 652.515 176.98 652.748C177.662 652.981 178.283 653.36 178.842 653.885C179.402 654.403 179.847 655.091 180.18 655.948C180.512 656.804 180.678 657.859 180.678 659.112V659.986H170.328V658.203H178.58C178.58 657.445 178.428 656.769 178.125 656.175C177.828 655.58 177.403 655.111 176.849 654.767C176.301 654.424 175.655 654.252 174.909 654.252C174.087 654.252 173.376 654.456 172.776 654.864C172.181 655.266 171.724 655.79 171.403 656.437C171.083 657.084 170.923 657.777 170.923 658.517V659.706C170.923 660.72 171.097 661.58 171.447 662.285C171.803 662.984 172.295 663.517 172.924 663.885C173.554 664.246 174.285 664.427 175.118 664.427C175.66 664.427 176.15 664.351 176.587 664.199C177.03 664.042 177.412 663.809 177.732 663.5C178.053 663.185 178.3 662.795 178.475 662.329L180.468 662.888C180.258 663.564 179.906 664.159 179.41 664.671C178.915 665.178 178.303 665.575 177.575 665.86C176.846 666.14 176.028 666.28 175.118 666.28ZM189.236 671.315C188.239 671.315 187.382 671.186 186.666 670.93C185.949 670.679 185.352 670.347 184.874 669.934C184.402 669.526 184.026 669.089 183.746 668.622L185.389 667.469C185.576 667.713 185.812 667.993 186.097 668.308C186.383 668.628 186.773 668.905 187.269 669.138C187.77 669.377 188.426 669.497 189.236 669.497C190.319 669.497 191.214 669.234 191.919 668.71C192.624 668.185 192.977 667.364 192.977 666.245V663.517H192.802C192.65 663.762 192.435 664.065 192.155 664.427C191.881 664.782 191.485 665.1 190.966 665.379C190.454 665.653 189.76 665.79 188.886 665.79C187.802 665.79 186.829 665.534 185.966 665.021C185.11 664.508 184.431 663.762 183.93 662.783C183.434 661.804 183.187 660.615 183.187 659.217C183.187 657.841 183.428 656.644 183.912 655.624C184.396 654.598 185.069 653.806 185.931 653.247C186.794 652.681 187.79 652.399 188.921 652.399C189.795 652.399 190.488 652.544 191.001 652.836C191.52 653.121 191.916 653.448 192.19 653.815C192.47 654.176 192.685 654.473 192.837 654.706H193.047V652.573H195.04V666.385C195.04 667.538 194.778 668.477 194.253 669.199C193.734 669.928 193.035 670.461 192.155 670.799C191.281 671.143 190.308 671.315 189.236 671.315ZM189.166 663.937C189.993 663.937 190.692 663.748 191.264 663.369C191.835 662.99 192.269 662.445 192.566 661.734C192.863 661.023 193.012 660.172 193.012 659.182C193.012 658.214 192.866 657.361 192.575 656.621C192.283 655.881 191.852 655.301 191.281 654.881C190.71 654.462 190.005 654.252 189.166 654.252C188.292 654.252 187.563 654.473 186.98 654.916C186.403 655.359 185.969 655.953 185.678 656.699C185.392 657.445 185.25 658.273 185.25 659.182C185.25 660.114 185.395 660.939 185.687 661.656C185.984 662.367 186.421 662.926 186.998 663.334C187.581 663.736 188.303 663.937 189.166 663.937ZM198.816 666V652.573H200.879V666H198.816ZM199.865 650.336C199.463 650.336 199.116 650.199 198.825 649.925C198.539 649.651 198.396 649.322 198.396 648.937C198.396 648.552 198.539 648.223 198.825 647.949C199.116 647.675 199.463 647.538 199.865 647.538C200.267 647.538 200.611 647.675 200.896 647.949C201.188 648.223 201.333 648.552 201.333 648.937C201.333 649.322 201.188 649.651 200.896 649.925C200.611 650.199 200.267 650.336 199.865 650.336ZM214.168 655.58L212.315 656.105C212.198 655.796 212.026 655.496 211.799 655.205C211.578 654.907 211.274 654.663 210.89 654.47C210.505 654.278 210.013 654.182 209.413 654.182C208.591 654.182 207.906 654.371 207.358 654.75C206.816 655.123 206.545 655.598 206.545 656.175C206.545 656.688 206.732 657.093 207.105 657.39C207.478 657.687 208.061 657.935 208.853 658.133L210.846 658.622C212.047 658.914 212.941 659.36 213.53 659.96C214.118 660.554 214.413 661.321 214.413 662.259C214.413 663.028 214.191 663.716 213.748 664.322C213.311 664.928 212.699 665.406 211.913 665.755C211.126 666.105 210.211 666.28 209.168 666.28C207.798 666.28 206.665 665.983 205.767 665.388C204.87 664.794 204.302 663.925 204.063 662.783L206.021 662.294C206.207 663.016 206.56 663.558 207.079 663.92C207.603 664.281 208.288 664.462 209.133 664.462C210.094 664.462 210.858 664.258 211.423 663.85C211.994 663.436 212.28 662.941 212.28 662.364C212.28 661.897 212.117 661.507 211.79 661.192C211.464 660.872 210.963 660.633 210.287 660.476L208.049 659.951C206.819 659.66 205.916 659.208 205.339 658.596C204.768 657.978 204.483 657.206 204.483 656.28C204.483 655.522 204.695 654.852 205.121 654.269C205.552 653.686 206.138 653.229 206.878 652.897C207.624 652.565 208.469 652.399 209.413 652.399C210.741 652.399 211.784 652.69 212.542 653.273C213.305 653.855 213.847 654.625 214.168 655.58ZM223.357 652.573V654.322H216.399V652.573H223.357ZM218.427 649.357H220.49V662.154C220.49 662.737 220.574 663.174 220.743 663.465C220.918 663.751 221.14 663.943 221.408 664.042C221.682 664.135 221.97 664.182 222.273 664.182C222.5 664.182 222.687 664.17 222.833 664.147C222.978 664.118 223.095 664.094 223.182 664.077L223.602 665.93C223.462 665.983 223.267 666.035 223.016 666.087C222.766 666.146 222.448 666.175 222.063 666.175C221.481 666.175 220.91 666.05 220.35 665.799C219.796 665.548 219.336 665.167 218.969 664.654C218.608 664.141 218.427 663.494 218.427 662.713V649.357ZM231.945 666.28C230.652 666.28 229.536 665.994 228.597 665.423C227.665 664.846 226.945 664.042 226.438 663.01C225.937 661.973 225.687 660.767 225.687 659.392C225.687 658.016 225.937 656.804 226.438 655.755C226.945 654.7 227.65 653.879 228.554 653.29C229.463 652.696 230.523 652.399 231.736 652.399C232.435 652.399 233.125 652.515 233.807 652.748C234.489 652.981 235.11 653.36 235.669 653.885C236.229 654.403 236.674 655.091 237.007 655.948C237.339 656.804 237.505 657.859 237.505 659.112V659.986H227.155V658.203H235.407C235.407 657.445 235.255 656.769 234.952 656.175C234.655 655.58 234.23 655.111 233.676 654.767C233.128 654.424 232.482 654.252 231.736 654.252C230.914 654.252 230.203 654.456 229.603 654.864C229.008 655.266 228.551 655.79 228.23 656.437C227.91 657.084 227.75 657.777 227.75 658.517V659.706C227.75 660.72 227.924 661.58 228.274 662.285C228.63 662.984 229.122 663.517 229.751 663.885C230.381 664.246 231.112 664.427 231.945 664.427C232.487 664.427 232.977 664.351 233.414 664.199C233.857 664.042 234.238 663.809 234.559 663.5C234.88 663.185 235.127 662.795 235.302 662.329L237.295 662.888C237.085 663.564 236.733 664.159 236.237 664.671C235.742 665.178 235.13 665.575 234.402 665.86C233.673 666.14 232.854 666.28 231.945 666.28ZM240.643 666V652.573H242.636V654.601H242.776C243.021 653.937 243.463 653.398 244.104 652.984C244.745 652.571 245.468 652.364 246.272 652.364C246.424 652.364 246.613 652.367 246.84 652.372C247.068 652.378 247.24 652.387 247.356 652.399V654.497C247.286 654.479 247.126 654.453 246.875 654.418C246.631 654.377 246.371 654.357 246.097 654.357C245.445 654.357 244.862 654.494 244.349 654.767C243.842 655.036 243.44 655.409 243.143 655.886C242.852 656.358 242.706 656.897 242.706 657.503V666H240.643Z" fill="white"/>
<rect width="430" height="54" fill="#146C94"/>
<path d="M15.9393 25.9393C15.3536 26.5251 15.3536 27.4749 15.9393 28.0607L25.4853 37.6066C26.0711 38.1924 27.0208 38.1924 27.6066 37.6066C28.1924 37.0208 28.1924 36.0711 27.6066 35.4853L19.1213 27L27.6066 18.5147C28.1924 17.9289 28.1924 16.9792 27.6066 16.3934C27.0208 15.8076 26.0711 15.8076 25.4853 16.3934L15.9393 25.9393ZM50 25.5L17 25.5V28.5L50 28.5V25.5Z" fill="black"/>
<path d="M164.219 32V13.0909H172.381C173.784 13.0909 175.012 13.3464 176.065 13.8572C177.117 14.3681 177.936 15.1037 178.521 16.0639C179.105 17.0241 179.398 18.1752 179.398 19.517C179.398 20.8712 179.096 22.013 178.493 22.9425C177.896 23.8719 177.056 24.5736 175.972 25.0476C174.895 25.5215 173.636 25.7585 172.196 25.7585H167.321V21.7699H171.162C171.765 21.7699 172.279 21.696 172.704 21.5483C173.135 21.3944 173.464 21.1513 173.692 20.8189C173.926 20.4865 174.043 20.0526 174.043 19.517C174.043 18.9754 173.926 18.5353 173.692 18.1967C173.464 17.852 173.135 17.5997 172.704 17.4396C172.279 17.2734 171.765 17.1903 171.162 17.1903H169.352V32H164.219ZM175.298 23.321L180.026 32H174.449L169.832 23.321H175.298ZM188.151 32.2585C186.636 32.2585 185.331 31.9692 184.236 31.3906C183.146 30.8059 182.306 29.9687 181.715 28.8793C181.13 27.7836 180.838 26.4725 180.838 24.946C180.838 23.4811 181.134 22.2008 181.724 21.1051C182.315 20.0095 183.149 19.157 184.227 18.5476C185.304 17.9382 186.575 17.6335 188.04 17.6335C189.111 17.6335 190.08 17.7997 190.948 18.1321C191.816 18.4645 192.558 18.9477 193.173 19.5817C193.789 20.2095 194.263 20.9728 194.595 21.8714C194.928 22.7701 195.094 23.7827 195.094 24.9091V26.0909H182.426V23.2841H190.403C190.397 22.8778 190.293 22.5208 190.089 22.2131C189.893 21.8991 189.625 21.656 189.286 21.4837C188.954 21.3052 188.575 21.2159 188.151 21.2159C187.738 21.2159 187.36 21.3052 187.015 21.4837C186.67 21.656 186.393 21.8961 186.184 22.2038C185.981 22.5116 185.873 22.8717 185.861 23.2841V26.3125C185.861 26.768 185.956 27.1742 186.147 27.5312C186.338 27.8883 186.612 28.1683 186.969 28.3714C187.326 28.5746 187.757 28.6761 188.261 28.6761C188.612 28.6761 188.932 28.6269 189.222 28.5284C189.517 28.4299 189.769 28.2884 189.979 28.1037C190.188 27.9129 190.342 27.6851 190.44 27.4205H195.094C194.934 28.4053 194.555 29.2609 193.958 29.9872C193.361 30.7074 192.57 31.2675 191.585 31.6676C190.607 32.0616 189.462 32.2585 188.151 32.2585ZM204.006 37.6136C202.584 37.6136 201.365 37.4105 200.35 37.0043C199.34 36.6042 198.555 36.0502 197.995 35.3423C197.441 34.6406 197.13 33.8343 197.063 32.9233H201.975C202.024 33.2249 202.147 33.468 202.344 33.6527C202.541 33.8374 202.793 33.9697 203.101 34.0497C203.415 34.1359 203.766 34.179 204.154 34.179C204.812 34.179 205.357 34.0189 205.788 33.6989C206.225 33.3788 206.443 32.8002 206.443 31.9631V29.5625H206.296C206.111 30.0426 205.828 30.4519 205.446 30.7905C205.065 31.1229 204.606 31.3783 204.07 31.5568C203.535 31.7292 202.947 31.8153 202.307 31.8153C201.298 31.8153 200.368 31.5814 199.519 31.1136C198.675 30.6458 197.998 29.9041 197.487 28.8885C196.983 27.8729 196.73 26.5464 196.73 24.9091C196.73 23.1979 196.995 21.8068 197.524 20.7358C198.06 19.6648 198.749 18.88 199.593 18.3814C200.442 17.8828 201.334 17.6335 202.27 17.6335C202.972 17.6335 203.587 17.7566 204.117 18.0028C204.646 18.2429 205.089 18.5661 205.446 18.9723C205.803 19.3724 206.074 19.8125 206.259 20.2926H206.369V17.8182H211.466V31.9631C211.466 33.1634 211.155 34.1821 210.534 35.0192C209.918 35.8625 209.05 36.5057 207.93 36.9489C206.81 37.392 205.502 37.6136 204.006 37.6136ZM204.191 28.196C204.658 28.196 205.058 28.0668 205.391 27.8082C205.729 27.5436 205.988 27.1681 206.166 26.6818C206.351 26.1894 206.443 25.5985 206.443 24.9091C206.443 24.2074 206.351 23.6072 206.166 23.1087C205.988 22.6039 205.729 22.2192 205.391 21.9545C205.058 21.6837 204.658 21.5483 204.191 21.5483C203.723 21.5483 203.323 21.6837 202.99 21.9545C202.664 22.2192 202.412 22.6039 202.233 23.1087C202.061 23.6072 201.975 24.2074 201.975 24.9091C201.975 25.6108 202.061 26.2079 202.233 26.7003C202.412 27.1866 202.664 27.5589 202.99 27.8175C203.323 28.0698 203.723 28.196 204.191 28.196ZM214.058 32V17.8182H219.155V32H214.058ZM216.607 16.3409C215.917 16.3409 215.326 16.1132 214.834 15.6577C214.341 15.2022 214.095 14.6544 214.095 14.0142C214.095 13.3741 214.341 12.8262 214.834 12.3707C215.326 11.9152 215.917 11.6875 216.607 11.6875C217.302 11.6875 217.893 11.9152 218.379 12.3707C218.872 12.8262 219.118 13.3741 219.118 14.0142C219.118 14.6544 218.872 15.2022 218.379 15.6577C217.893 16.1132 217.302 16.3409 216.607 16.3409ZM234.715 22.4347H230.024C230 22.1454 229.898 21.8961 229.72 21.6868C229.541 21.4775 229.31 21.3175 229.027 21.2067C228.75 21.0897 228.442 21.0312 228.104 21.0312C227.667 21.0312 227.291 21.1113 226.977 21.2713C226.664 21.4313 226.51 21.6591 226.516 21.9545C226.51 22.1638 226.599 22.3577 226.784 22.5362C226.974 22.7147 227.341 22.8532 227.882 22.9517L230.763 23.4688C232.216 23.7334 233.296 24.1797 234.004 24.8075C234.718 25.4292 235.078 26.2633 235.084 27.3097C235.078 28.3191 234.776 29.1963 234.179 29.9411C233.588 30.6797 232.779 31.2521 231.751 31.6584C230.729 32.0585 229.563 32.2585 228.252 32.2585C226.085 32.2585 224.389 31.8153 223.164 30.929C221.945 30.0426 221.265 28.8731 221.124 27.4205H226.183C226.251 27.8698 226.473 28.2176 226.848 28.4638C227.23 28.7038 227.71 28.8239 228.289 28.8239C228.756 28.8239 229.141 28.7438 229.443 28.5838C229.75 28.4238 229.907 28.196 229.914 27.9006C229.907 27.6297 229.772 27.4143 229.507 27.2543C229.249 27.0942 228.843 26.965 228.289 26.8665L225.777 26.4233C224.331 26.1709 223.247 25.6908 222.527 24.983C221.807 24.2751 221.45 23.3641 221.456 22.25C221.45 21.2652 221.709 20.4311 222.232 19.7479C222.761 19.0585 223.515 18.5353 224.494 18.1783C225.479 17.8151 226.645 17.6335 227.993 17.6335C230.043 17.6335 231.659 18.0582 232.84 18.9077C234.028 19.7571 234.653 20.9328 234.715 22.4347ZM245.494 17.8182V21.5114H236.15V17.8182H245.494ZM237.96 14.4205H243.057V27.4389C243.057 27.6359 243.09 27.8021 243.158 27.9375C243.226 28.0668 243.331 28.1652 243.472 28.233C243.614 28.2945 243.795 28.3253 244.017 28.3253C244.171 28.3253 244.349 28.3068 244.552 28.2699C244.762 28.233 244.916 28.2022 245.014 28.1776L245.753 31.7599C245.525 31.8277 245.199 31.9107 244.774 32.0092C244.355 32.1077 243.857 32.1723 243.278 32.2031C242.109 32.2647 241.127 32.1446 240.333 31.843C239.539 31.5353 238.942 31.0521 238.542 30.3935C238.142 29.7348 237.948 28.91 237.96 27.919V14.4205ZM254.217 32.2585C252.703 32.2585 251.398 31.9692 250.302 31.3906C249.213 30.8059 248.373 29.9687 247.782 28.8793C247.197 27.7836 246.904 26.4725 246.904 24.946C246.904 23.4811 247.2 22.2008 247.791 21.1051C248.382 20.0095 249.216 19.157 250.293 18.5476C251.37 17.9382 252.641 17.6335 254.106 17.6335C255.177 17.6335 256.147 17.7997 257.015 18.1321C257.882 18.4645 258.624 18.9477 259.24 19.5817C259.855 20.2095 260.329 20.9728 260.662 21.8714C260.994 22.7701 261.16 23.7827 261.16 24.9091V26.0909H248.493V23.2841H256.47C256.464 22.8778 256.359 22.5208 256.156 22.2131C255.959 21.8991 255.691 21.656 255.353 21.4837C255.02 21.3052 254.642 21.2159 254.217 21.2159C253.805 21.2159 253.426 21.3052 253.081 21.4837C252.737 21.656 252.46 21.8961 252.25 22.2038C252.047 22.5116 251.94 22.8717 251.927 23.2841V26.3125C251.927 26.768 252.023 27.1742 252.213 27.5312C252.404 27.8883 252.678 28.1683 253.035 28.3714C253.392 28.5746 253.823 28.6761 254.328 28.6761C254.679 28.6761 254.999 28.6269 255.288 28.5284C255.583 28.4299 255.836 28.2884 256.045 28.1037C256.254 27.9129 256.408 27.6851 256.507 27.4205H261.16C261 28.4053 260.622 29.2609 260.025 29.9872C259.427 30.7074 258.636 31.2675 257.652 31.6676C256.673 32.0616 255.528 32.2585 254.217 32.2585ZM263.24 32V17.8182H268.189V20.5142H268.336C268.595 19.517 269.004 18.7876 269.564 18.326C270.131 17.8643 270.792 17.6335 271.55 17.6335C271.771 17.6335 271.99 17.652 272.205 17.6889C272.427 17.7197 272.639 17.7659 272.842 17.8274V22.1761C272.59 22.09 272.279 22.0253 271.91 21.9822C271.54 21.9392 271.223 21.9176 270.959 21.9176C270.46 21.9176 270.011 22.0315 269.611 22.2592C269.217 22.4808 268.906 22.7947 268.678 23.201C268.45 23.6011 268.336 24.072 268.336 24.6136V32H263.24Z" fill="white"/>
<g filter="url(#filter3_d_35_995)">
<rect x="36" y="322" width="158" height="52" rx="15" fill="white"/>
<path d="M62.1678 353V335.098H72.9021V337.021H64.3357V343.07H72.0979V344.993H64.3357V353H62.1678ZM78.2539 344.923V353H76.191V339.573H78.184V341.671H78.3588C78.6735 340.99 79.1514 340.442 79.7924 340.028C80.4334 339.608 81.2609 339.399 82.2749 339.399C83.184 339.399 83.9795 339.585 84.6613 339.958C85.3431 340.325 85.8734 340.885 86.2522 341.636C86.631 342.382 86.8204 343.326 86.8204 344.469V353H84.7574V344.608C84.7574 343.554 84.4835 342.732 83.9358 342.143C83.388 341.549 82.6362 341.252 81.6805 341.252C81.022 341.252 80.4334 341.395 79.9148 341.68C79.402 341.966 78.9969 342.382 78.6997 342.93C78.4025 343.478 78.2539 344.142 78.2539 344.923ZM94.5411 353.315C93.6903 353.315 92.9181 353.154 92.2247 352.834C91.5312 352.508 90.9805 352.038 90.5726 351.427C90.1646 350.809 89.9607 350.063 89.9607 349.189C89.9607 348.42 90.1122 347.796 90.4152 347.318C90.7182 346.834 91.1233 346.456 91.6302 346.182C92.1372 345.908 92.6967 345.704 93.3086 345.57C93.9263 345.43 94.5469 345.319 95.1705 345.238C95.9863 345.133 96.6477 345.054 97.1547 345.002C97.6675 344.943 98.0405 344.847 98.2736 344.713C98.5125 344.579 98.632 344.346 98.632 344.014V343.944C98.632 343.082 98.396 342.411 97.924 341.934C97.4578 341.456 96.7497 341.217 95.7998 341.217C94.815 341.217 94.0428 341.432 93.4834 341.864C92.924 342.295 92.5306 342.755 92.3033 343.245L90.3453 342.545C90.6949 341.73 91.1611 341.094 91.7439 340.64C92.3325 340.179 92.9735 339.859 93.667 339.678C94.3663 339.492 95.0539 339.399 95.7299 339.399C96.1611 339.399 96.6565 339.451 97.2159 339.556C97.7812 339.655 98.326 339.862 98.8505 340.177C99.3808 340.491 99.8208 340.966 100.17 341.601C100.52 342.237 100.695 343.087 100.695 344.154V353H98.632V351.182H98.5271C98.3872 351.473 98.1541 351.785 97.8278 352.117C97.5015 352.449 97.0673 352.732 96.5254 352.965C95.9834 353.198 95.322 353.315 94.5411 353.315ZM94.8558 351.462C95.6716 351.462 96.3593 351.301 96.9187 350.981C97.484 350.66 97.9094 350.247 98.1949 349.74C98.4863 349.233 98.632 348.699 98.632 348.14V346.252C98.5446 346.357 98.3523 346.453 98.0551 346.54C97.7637 346.622 97.4257 346.695 97.0411 346.759C96.6623 346.817 96.2923 346.869 95.9309 346.916C95.5755 346.957 95.287 346.992 95.0656 347.021C94.5294 347.091 94.0283 347.205 93.5621 347.362C93.1017 347.513 92.7287 347.744 92.4432 348.052C92.1635 348.355 92.0236 348.769 92.0236 349.294C92.0236 350.01 92.2888 350.552 92.8191 350.92C93.3552 351.281 94.0341 351.462 94.8558 351.462ZM104.46 353V339.573H106.453V341.671H106.628C106.908 340.955 107.359 340.398 107.983 340.002C108.606 339.6 109.355 339.399 110.229 339.399C111.115 339.399 111.852 339.6 112.441 340.002C113.035 340.398 113.499 340.955 113.831 341.671H113.971C114.315 340.978 114.83 340.427 115.518 340.019C116.206 339.605 117.03 339.399 117.992 339.399C119.192 339.399 120.174 339.774 120.938 340.526C121.701 341.272 122.083 342.435 122.083 344.014V353H120.02V344.014C120.02 343.023 119.749 342.315 119.207 341.89C118.665 341.464 118.027 341.252 117.292 341.252C116.348 341.252 115.617 341.537 115.098 342.108C114.58 342.674 114.32 343.39 114.32 344.259V353H112.222V343.804C112.222 343.041 111.975 342.426 111.479 341.96C110.984 341.488 110.346 341.252 109.565 341.252C109.029 341.252 108.528 341.395 108.062 341.68C107.601 341.966 107.228 342.362 106.943 342.869C106.663 343.37 106.523 343.95 106.523 344.608V353H104.46ZM131.484 353.28C130.19 353.28 129.074 352.994 128.136 352.423C127.204 351.846 126.484 351.042 125.977 350.01C125.476 348.973 125.225 347.767 125.225 346.392C125.225 345.016 125.476 343.804 125.977 342.755C126.484 341.7 127.189 340.879 128.092 340.29C129.001 339.696 130.062 339.399 131.274 339.399C131.973 339.399 132.664 339.515 133.346 339.748C134.028 339.981 134.648 340.36 135.208 340.885C135.767 341.403 136.213 342.091 136.545 342.948C136.877 343.804 137.043 344.859 137.043 346.112V346.986H126.694V345.203H134.945C134.945 344.445 134.794 343.769 134.491 343.175C134.194 342.58 133.768 342.111 133.215 341.767C132.667 341.424 132.02 341.252 131.274 341.252C130.452 341.252 129.741 341.456 129.141 341.864C128.547 342.266 128.089 342.79 127.769 343.437C127.448 344.084 127.288 344.777 127.288 345.517V346.706C127.288 347.72 127.463 348.58 127.813 349.285C128.168 349.984 128.66 350.517 129.29 350.885C129.919 351.246 130.65 351.427 131.484 351.427C132.026 351.427 132.515 351.351 132.952 351.199C133.395 351.042 133.777 350.809 134.097 350.5C134.418 350.185 134.666 349.795 134.84 349.329L136.833 349.888C136.624 350.564 136.271 351.159 135.776 351.671C135.28 352.178 134.669 352.575 133.94 352.86C133.212 353.14 132.393 353.28 131.484 353.28Z" fill="black"/>
</g>
<g filter="url(#filter4_d_35_995)">
<rect x="226" y="322" width="158" height="52" rx="15" fill="white"/>
<path d="M252.168 353V335.098H254.336V351.077H262.657V353H252.168ZM267.797 344.923V353H265.734V339.573H267.727V341.671H267.902C268.217 340.99 268.695 340.442 269.336 340.028C269.977 339.608 270.804 339.399 271.818 339.399C272.727 339.399 273.523 339.585 274.205 339.958C274.886 340.325 275.417 340.885 275.795 341.636C276.174 342.382 276.364 343.326 276.364 344.469V353H274.301V344.608C274.301 343.554 274.027 342.732 273.479 342.143C272.931 341.549 272.179 341.252 271.224 341.252C270.565 341.252 269.977 341.395 269.458 341.68C268.945 341.966 268.54 342.382 268.243 342.93C267.946 343.478 267.797 344.142 267.797 344.923ZM284.084 353.315C283.234 353.315 282.461 353.154 281.768 352.834C281.074 352.508 280.524 352.038 280.116 351.427C279.708 350.809 279.504 350.063 279.504 349.189C279.504 348.42 279.655 347.796 279.958 347.318C280.262 346.834 280.667 346.456 281.174 346.182C281.681 345.908 282.24 345.704 282.852 345.57C283.47 345.43 284.09 345.319 284.714 345.238C285.53 345.133 286.191 345.054 286.698 345.002C287.211 344.943 287.584 344.847 287.817 344.713C288.056 344.579 288.175 344.346 288.175 344.014V343.944C288.175 343.082 287.939 342.411 287.467 341.934C287.001 341.456 286.293 341.217 285.343 341.217C284.358 341.217 283.586 341.432 283.027 341.864C282.467 342.295 282.074 342.755 281.847 343.245L279.889 342.545C280.238 341.73 280.704 341.094 281.287 340.64C281.876 340.179 282.517 339.859 283.21 339.678C283.91 339.492 284.597 339.399 285.273 339.399C285.704 339.399 286.2 339.451 286.759 339.556C287.324 339.655 287.869 339.862 288.394 340.177C288.924 340.491 289.364 340.966 289.714 341.601C290.063 342.237 290.238 343.087 290.238 344.154V353H288.175V351.182H288.07C287.931 351.473 287.697 351.785 287.371 352.117C287.045 352.449 286.611 352.732 286.069 352.965C285.527 353.198 284.865 353.315 284.084 353.315ZM284.399 351.462C285.215 351.462 285.903 351.301 286.462 350.981C287.027 350.66 287.453 350.247 287.738 349.74C288.03 349.233 288.175 348.699 288.175 348.14V346.252C288.088 346.357 287.896 346.453 287.598 346.54C287.307 346.622 286.969 346.695 286.584 346.759C286.206 346.817 285.836 346.869 285.474 346.916C285.119 346.957 284.83 346.992 284.609 347.021C284.073 347.091 283.572 347.205 283.105 347.362C282.645 347.513 282.272 347.744 281.986 348.052C281.707 348.355 281.567 348.769 281.567 349.294C281.567 350.01 281.832 350.552 282.362 350.92C282.898 351.281 283.577 351.462 284.399 351.462ZM294.003 353V339.573H295.997V341.671H296.171C296.451 340.955 296.903 340.398 297.526 340.002C298.15 339.6 298.899 339.399 299.773 339.399C300.659 339.399 301.396 339.6 301.984 340.002C302.579 340.398 303.042 340.955 303.374 341.671H303.514C303.858 340.978 304.374 340.427 305.061 340.019C305.749 339.605 306.573 339.399 307.535 339.399C308.735 339.399 309.717 339.774 310.481 340.526C311.244 341.272 311.626 342.435 311.626 344.014V353H309.563V344.014C309.563 343.023 309.292 342.315 308.75 341.89C308.208 341.464 307.57 341.252 306.836 341.252C305.892 341.252 305.16 341.537 304.642 342.108C304.123 342.674 303.864 343.39 303.864 344.259V353H301.766V343.804C301.766 343.041 301.518 342.426 301.023 341.96C300.527 341.488 299.889 341.252 299.108 341.252C298.572 341.252 298.071 341.395 297.605 341.68C297.145 341.966 296.772 342.362 296.486 342.869C296.206 343.37 296.066 343.95 296.066 344.608V353H294.003ZM321.027 353.28C319.733 353.28 318.617 352.994 317.679 352.423C316.747 351.846 316.027 351.042 315.52 350.01C315.019 348.973 314.768 347.767 314.768 346.392C314.768 345.016 315.019 343.804 315.52 342.755C316.027 341.7 316.732 340.879 317.635 340.29C318.545 339.696 319.605 339.399 320.817 339.399C321.517 339.399 322.207 339.515 322.889 339.748C323.571 339.981 324.191 340.36 324.751 340.885C325.31 341.403 325.756 342.091 326.088 342.948C326.42 343.804 326.587 344.859 326.587 346.112V346.986H316.237V345.203H324.489C324.489 344.445 324.337 343.769 324.034 343.175C323.737 342.58 323.311 342.111 322.758 341.767C322.21 341.424 321.563 341.252 320.817 341.252C319.996 341.252 319.285 341.456 318.684 341.864C318.09 342.266 317.633 342.79 317.312 343.437C316.992 344.084 316.831 344.777 316.831 345.517V346.706C316.831 347.72 317.006 348.58 317.356 349.285C317.711 349.984 318.204 350.517 318.833 350.885C319.462 351.246 320.194 351.427 321.027 351.427C321.569 351.427 322.059 351.351 322.496 351.199C322.939 351.042 323.32 350.809 323.641 350.5C323.961 350.185 324.209 349.795 324.384 349.329L326.377 349.888C326.167 350.564 325.814 351.159 325.319 351.671C324.824 352.178 324.212 352.575 323.483 352.86C322.755 353.14 321.936 353.28 321.027 353.28Z" fill="black"/>
</g>
<ellipse cx="210.5" cy="161" rx="100.5" ry="78" fill="#146C94"/>
<path d="M179.222 151.556C179.222 155.051 180.771 158.19 183.194 160.374V167.445C183.194 169.63 184.982 171.417 187.167 171.417H191.139C193.324 171.417 195.111 169.63 195.111 167.445V163.473H226.889V167.445C226.889 169.63 228.676 171.417 230.861 171.417H234.833C237.018 171.417 238.806 169.63 238.806 167.445V160.374C241.229 158.19 242.778 155.051 242.778 151.556V111.834C242.778 97.9309 228.557 95.9448 211 95.9448C193.443 95.9448 179.222 97.9309 179.222 111.834V151.556ZM193.125 155.528C189.828 155.528 187.167 152.867 187.167 149.57C187.167 146.273 189.828 143.611 193.125 143.611C196.422 143.611 199.083 146.273 199.083 149.57C199.083 152.867 196.422 155.528 193.125 155.528ZM228.875 155.528C225.578 155.528 222.917 152.867 222.917 149.57C222.917 146.273 225.578 143.611 228.875 143.611C232.172 143.611 234.833 146.273 234.833 149.57C234.833 152.867 232.172 155.528 228.875 155.528ZM234.833 131.695H187.167V111.834H234.833V131.695Z" fill="#F6F1F1"/>
<path d="M147.219 209.556V190.647H155.418C156.858 190.647 158.067 190.84 159.046 191.228C160.031 191.616 160.773 192.164 161.271 192.872C161.776 193.58 162.028 194.414 162.028 195.374C162.028 196.069 161.875 196.703 161.567 197.276C161.265 197.848 160.84 198.328 160.293 198.716C159.745 199.098 159.105 199.362 158.372 199.51V199.695C159.185 199.726 159.923 199.932 160.588 200.313C161.253 200.689 161.782 201.209 162.176 201.874C162.57 202.532 162.767 203.308 162.767 204.201C162.767 205.235 162.496 206.155 161.955 206.961C161.419 207.768 160.656 208.402 159.665 208.863C158.674 209.325 157.492 209.556 156.119 209.556H147.219ZM152.352 205.456H154.753C155.615 205.456 156.261 205.296 156.692 204.976C157.123 204.65 157.338 204.17 157.338 203.536C157.338 203.093 157.237 202.717 157.033 202.409C156.83 202.102 156.541 201.868 156.165 201.708C155.796 201.548 155.35 201.468 154.827 201.468H152.352V205.456ZM152.352 198.291H154.457C154.907 198.291 155.304 198.221 155.648 198.079C155.993 197.938 156.261 197.734 156.452 197.47C156.649 197.199 156.747 196.87 156.747 196.482C156.747 195.897 156.538 195.451 156.119 195.143C155.701 194.829 155.171 194.672 154.531 194.672H152.352V198.291ZM173.856 203.351V195.374H178.952V209.556H174.114V206.86H173.967C173.659 207.764 173.12 208.472 172.351 208.983C171.581 209.488 170.667 209.74 169.609 209.74C168.618 209.74 167.75 209.513 167.005 209.057C166.266 208.602 165.691 207.974 165.278 207.174C164.872 206.373 164.666 205.456 164.66 204.422V195.374H169.756V203.351C169.763 204.053 169.941 204.604 170.292 205.004C170.649 205.404 171.147 205.604 171.788 205.604C172.212 205.604 172.579 205.515 172.886 205.336C173.2 205.152 173.44 204.893 173.607 204.561C173.779 204.222 173.862 203.819 173.856 203.351ZM194.508 199.99H189.817C189.793 199.701 189.691 199.452 189.513 199.242C189.334 199.033 189.103 198.873 188.82 198.762C188.543 198.645 188.235 198.587 187.897 198.587C187.46 198.587 187.084 198.667 186.77 198.827C186.456 198.987 186.303 199.215 186.309 199.51C186.303 199.719 186.392 199.913 186.577 200.092C186.767 200.27 187.134 200.409 187.675 200.507L190.556 201.024C192.009 201.289 193.089 201.735 193.797 202.363C194.511 202.985 194.871 203.819 194.877 204.865C194.871 205.875 194.569 206.752 193.972 207.497C193.381 208.235 192.572 208.808 191.544 209.214C190.522 209.614 189.356 209.814 188.045 209.814C185.878 209.814 184.182 209.371 182.957 208.485C181.738 207.598 181.058 206.429 180.917 204.976H185.976C186.044 205.425 186.266 205.773 186.641 206.019C187.023 206.259 187.503 206.38 188.081 206.38C188.549 206.38 188.934 206.3 189.236 206.139C189.543 205.979 189.7 205.752 189.706 205.456C189.7 205.185 189.565 204.97 189.3 204.81C189.042 204.65 188.635 204.521 188.081 204.422L185.57 203.979C184.124 203.727 183.04 203.246 182.32 202.539C181.6 201.831 181.243 200.92 181.249 199.806C181.243 198.821 181.501 197.987 182.025 197.304C182.554 196.614 183.308 196.091 184.287 195.734C185.272 195.371 186.438 195.189 187.786 195.189C189.836 195.189 191.452 195.614 192.633 196.463C193.821 197.313 194.446 198.488 194.508 199.99ZM209.793 199.99H205.102C205.078 199.701 204.976 199.452 204.798 199.242C204.619 199.033 204.388 198.873 204.105 198.762C203.828 198.645 203.521 198.587 203.182 198.587C202.745 198.587 202.369 198.667 202.056 198.827C201.742 198.987 201.588 199.215 201.594 199.51C201.588 199.719 201.677 199.913 201.862 200.092C202.052 200.27 202.419 200.409 202.96 200.507L205.841 201.024C207.294 201.289 208.374 201.735 209.082 202.363C209.796 202.985 210.156 203.819 210.162 204.865C210.156 205.875 209.854 206.752 209.257 207.497C208.666 208.235 207.857 208.808 206.829 209.214C205.807 209.614 204.641 209.814 203.33 209.814C201.163 209.814 199.467 209.371 198.242 208.485C197.024 207.598 196.343 206.429 196.202 204.976H201.262C201.329 205.425 201.551 205.773 201.926 206.019C202.308 206.259 202.788 206.38 203.367 206.38C203.834 206.38 204.219 206.3 204.521 206.139C204.829 205.979 204.985 205.752 204.992 205.456C204.985 205.185 204.85 204.97 204.585 204.81C204.327 204.65 203.921 204.521 203.367 204.422L200.855 203.979C199.409 203.727 198.325 203.246 197.605 202.539C196.885 201.831 196.528 200.92 196.534 199.806C196.528 198.821 196.787 197.987 197.31 197.304C197.839 196.614 198.593 196.091 199.572 195.734C200.557 195.371 201.723 195.189 203.071 195.189C205.121 195.189 206.737 195.614 207.919 196.463C209.106 197.313 209.731 198.488 209.793 199.99Z" fill="white" fill-opacity="0.5"/>
<path d="M212.041 209.556V190.647H220.24C221.68 190.647 222.89 190.84 223.868 191.228C224.853 191.616 225.595 192.164 226.094 192.872C226.598 193.58 226.851 194.414 226.851 195.374C226.851 196.069 226.697 196.703 226.389 197.276C226.087 197.848 225.663 198.328 225.115 198.716C224.567 199.098 223.927 199.362 223.194 199.51V199.695C224.007 199.726 224.746 199.932 225.41 200.313C226.075 200.689 226.604 201.209 226.998 201.874C227.392 202.532 227.589 203.308 227.589 204.201C227.589 205.235 227.318 206.155 226.777 206.961C226.241 207.768 225.478 208.402 224.487 208.863C223.496 209.325 222.314 209.556 220.942 209.556H212.041ZM217.175 205.456H219.575C220.437 205.456 221.083 205.296 221.514 204.976C221.945 204.65 222.16 204.17 222.16 203.536C222.16 203.093 222.059 202.717 221.856 202.409C221.653 202.102 221.363 201.868 220.988 201.708C220.618 201.548 220.172 201.468 219.649 201.468H217.175V205.456ZM217.175 198.291H219.28C219.729 198.291 220.126 198.221 220.471 198.079C220.815 197.938 221.083 197.734 221.274 197.47C221.471 197.199 221.569 196.87 221.569 196.482C221.569 195.897 221.36 195.451 220.942 195.143C220.523 194.829 219.994 194.672 219.354 194.672H217.175V198.291ZM236.314 209.814C234.776 209.814 233.458 209.509 232.363 208.9C231.267 208.285 230.427 207.429 229.842 206.333C229.257 205.232 228.965 203.954 228.965 202.502C228.965 201.049 229.257 199.775 229.842 198.679C230.427 197.577 231.267 196.722 232.363 196.112C233.458 195.497 234.776 195.189 236.314 195.189C237.853 195.189 239.171 195.497 240.266 196.112C241.362 196.722 242.202 197.577 242.787 198.679C243.372 199.775 243.664 201.049 243.664 202.502C243.664 203.954 243.372 205.232 242.787 206.333C242.202 207.429 241.362 208.285 240.266 208.9C239.171 209.509 237.853 209.814 236.314 209.814ZM236.351 206.047C236.782 206.047 237.155 205.902 237.469 205.613C237.782 205.324 238.026 204.911 238.198 204.376C238.37 203.84 238.456 203.203 238.456 202.465C238.456 201.72 238.37 201.083 238.198 200.554C238.026 200.018 237.782 199.606 237.469 199.316C237.155 199.027 236.782 198.882 236.351 198.882C235.896 198.882 235.505 199.027 235.179 199.316C234.853 199.606 234.603 200.018 234.431 200.554C234.259 201.083 234.172 201.72 234.172 202.465C234.172 203.203 234.259 203.84 234.431 204.376C234.603 204.911 234.853 205.324 235.179 205.613C235.505 205.902 235.896 206.047 236.351 206.047ZM258.695 199.99H254.005C253.98 199.701 253.879 199.452 253.7 199.242C253.522 199.033 253.291 198.873 253.008 198.762C252.731 198.645 252.423 198.587 252.084 198.587C251.647 198.587 251.272 198.667 250.958 198.827C250.644 198.987 250.49 199.215 250.496 199.51C250.49 199.719 250.579 199.913 250.764 200.092C250.955 200.27 251.321 200.409 251.863 200.507L254.743 201.024C256.196 201.289 257.276 201.735 257.984 202.363C258.698 202.985 259.058 203.819 259.064 204.865C259.058 205.875 258.757 206.752 258.16 207.497C257.569 208.235 256.759 208.808 255.731 209.214C254.71 209.614 253.543 209.814 252.232 209.814C250.065 209.814 248.37 209.371 247.145 208.485C245.926 207.598 245.246 206.429 245.104 204.976H250.164C250.232 205.425 250.453 205.773 250.829 206.019C251.21 206.259 251.69 206.38 252.269 206.38C252.737 206.38 253.122 206.3 253.423 206.139C253.731 205.979 253.888 205.752 253.894 205.456C253.888 205.185 253.752 204.97 253.488 204.81C253.229 204.65 252.823 204.521 252.269 204.422L249.758 203.979C248.311 203.727 247.228 203.246 246.508 202.539C245.787 201.831 245.43 200.92 245.437 199.806C245.43 198.821 245.689 197.987 246.212 197.304C246.742 196.614 247.496 196.091 248.474 195.734C249.459 195.371 250.626 195.189 251.974 195.189C254.023 195.189 255.639 195.614 256.821 196.463C258.009 197.313 258.634 198.488 258.695 199.99ZM273.98 199.99H269.29C269.265 199.701 269.164 199.452 268.985 199.242C268.807 199.033 268.576 198.873 268.293 198.762C268.016 198.645 267.708 198.587 267.369 198.587C266.932 198.587 266.557 198.667 266.243 198.827C265.929 198.987 265.775 199.215 265.781 199.51C265.775 199.719 265.865 199.913 266.049 200.092C266.24 200.27 266.606 200.409 267.148 200.507L270.029 201.024C271.481 201.289 272.561 201.735 273.269 202.363C273.983 202.985 274.343 203.819 274.35 204.865C274.343 205.875 274.042 206.752 273.445 207.497C272.854 208.235 272.044 208.808 271.017 209.214C269.995 209.614 268.828 209.814 267.517 209.814C265.351 209.814 263.655 209.371 262.43 208.485C261.211 207.598 260.531 206.429 260.389 204.976H265.449C265.517 205.425 265.738 205.773 266.114 206.019C266.495 206.259 266.976 206.38 267.554 206.38C268.022 206.38 268.407 206.3 268.708 206.139C269.016 205.979 269.173 205.752 269.179 205.456C269.173 205.185 269.038 204.97 268.773 204.81C268.514 204.65 268.108 204.521 267.554 204.422L265.043 203.979C263.596 203.727 262.513 203.246 261.793 202.539C261.073 201.831 260.716 200.92 260.722 199.806C260.716 198.821 260.974 197.987 261.497 197.304C262.027 196.614 262.781 196.091 263.759 195.734C264.744 195.371 265.911 195.189 267.259 195.189C269.308 195.189 270.924 195.614 272.106 196.463C273.294 197.313 273.919 198.488 273.98 199.99Z" fill="white"/>
<defs>
<filter id="filter0_d_35_995" x="23" y="500" width="365" height="60" filterUnits="userSpaceOnUse" color-interpolation-filters="sRGB">
<feFlood flood-opacity="0" result="BackgroundImageFix"/>
<feColorMatrix in="SourceAlpha" type="matrix" values="0 0 0 0 0 0 0 0 0 0 0 0 0 0 0 0 0 0 127 0" result="hardAlpha"/>
<feOffset dy="4"/>
<feGaussianBlur stdDeviation="2"/>
<feComposite in2="hardAlpha" operator="out"/>
<feColorMatrix type="matrix" values="0 0 0 0 0 0 0 0 0 0 0 0 0 0 0 0 0 0 0.25 0"/>
<feBlend mode="normal" in2="BackgroundImageFix" result="effect1_dropShadow_35_995"/>
<feBlend mode="normal" in="SourceGraphic" in2="effect1_dropShadow_35_995" result="shape"/>
</filter>
<filter id="filter1_d_35_995" x="23" y="411" width="365" height="60" filterUnits="userSpaceOnUse" color-interpolation-filters="sRGB">
<feFlood flood-opacity="0" result="BackgroundImageFix"/>
<feColorMatrix in="SourceAlpha" type="matrix" values="0 0 0 0 0 0 0 0 0 0 0 0 0 0 0 0 0 0 127 0" result="hardAlpha"/>
<feOffset dy="4"/>
<feGaussianBlur stdDeviation="2"/>
<feComposite in2="hardAlpha" operator="out"/>
<feColorMatrix type="matrix" values="0 0 0 0 0 0 0 0 0 0 0 0 0 0 0 0 0 0 0.25 0"/>
<feBlend mode="normal" in2="BackgroundImageFix" result="effect1_dropShadow_35_995"/>
<feBlend mode="normal" in="SourceGraphic" in2="effect1_dropShadow_35_995" result="shape"/>
</filter>
<filter id="filter2_d_35_995" x="88" y="635" width="212" height="55" filterUnits="userSpaceOnUse" color-interpolation-filters="sRGB">
<feFlood flood-opacity="0" result="BackgroundImageFix"/>
<feColorMatrix in="SourceAlpha" type="matrix" values="0 0 0 0 0 0 0 0 0 0 0 0 0 0 0 0 0 0 127 0" result="hardAlpha"/>
<feOffset dy="4"/>
<feGaussianBlur stdDeviation="2"/>
<feComposite in2="hardAlpha" operator="out"/>
<feColorMatrix type="matrix" values="0 0 0 0 0 0 0 0 0 0 0 0 0 0 0 0 0 0 0.25 0"/>
<feBlend mode="normal" in2="BackgroundImageFix" result="effect1_dropShadow_35_995"/>
<feBlend mode="normal" in="SourceGraphic" in2="effect1_dropShadow_35_995" result="shape"/>
</filter>
<filter id="filter3_d_35_995" x="32" y="322" width="166" height="60" filterUnits="userSpaceOnUse" color-interpolation-filters="sRGB">
<feFlood flood-opacity="0" result="BackgroundImageFix"/>
<feColorMatrix in="SourceAlpha" type="matrix" values="0 0 0 0 0 0 0 0 0 0 0 0 0 0 0 0 0 0 127 0" result="hardAlpha"/>
<feOffset dy="4"/>
<feGaussianBlur stdDeviation="2"/>
<feComposite in2="hardAlpha" operator="out"/>
<feColorMatrix type="matrix" values="0 0 0 0 0 0 0 0 0 0 0 0 0 0 0 0 0 0 0.25 0"/>
<feBlend mode="normal" in2="BackgroundImageFix" result="effect1_dropShadow_35_995"/>
<feBlend mode="normal" in="SourceGraphic" in2="effect1_dropShadow_35_995" result="shape"/>
</filter>
<filter id="filter4_d_35_995" x="222" y="322" width="166" height="60" filterUnits="userSpaceOnUse" color-interpolation-filters="sRGB">
<feFlood flood-opacity="0" result="BackgroundImageFix"/>
<feColorMatrix in="SourceAlpha" type="matrix" values="0 0 0 0 0 0 0 0 0 0 0 0 0 0 0 0 0 0 127 0" result="hardAlpha"/>
<feOffset dy="4"/>
<feGaussianBlur stdDeviation="2"/>
<feComposite in2="hardAlpha" operator="out"/>
<feColorMatrix type="matrix" values="0 0 0 0 0 0 0 0 0 0 0 0 0 0 0 0 0 0 0.25 0"/>
<feBlend mode="normal" in2="BackgroundImageFix" result="effect1_dropShadow_35_995"/>
<feBlend mode="normal" in="SourceGraphic" in2="effect1_dropShadow_35_995" result="shape"/>
</filter>
</defs>
</svg>
