<svg width="430" height="932" viewBox="0 0 430 932" fill="none" xmlns="http://www.w3.org/2000/svg">
<rect width="430" height="932" fill="#F6F1F1"/>
<line y1="655.5" x2="430" y2="655.5" stroke="black"/>
<g filter="url(#filter0_d_35_986)">
<path d="M79 538C79 529.716 85.7157 523 94 523H328C336.284 523 343 529.716 343 538V581C343 589.284 336.284 596 328 596H94C85.7157 596 79 589.284 79 581V538Z" fill="#19A7CE"/>
</g>
<g filter="url(#filter1_d_35_986)">
<rect x="79" y="744" width="264" height="73" rx="15" fill="#146C94"/>
</g>
<path d="M175.692 785H170.168V767.098H175.937C177.674 767.098 179.16 767.456 180.395 768.173C181.631 768.884 182.578 769.907 183.236 771.241C183.895 772.57 184.224 774.161 184.224 776.014C184.224 777.879 183.892 779.484 183.227 780.83C182.563 782.171 181.596 783.202 180.325 783.925C179.055 784.642 177.51 785 175.692 785ZM172.336 783.077H175.552C177.033 783.077 178.259 782.791 179.233 782.22C180.206 781.649 180.931 780.836 181.409 779.781C181.887 778.727 182.126 777.471 182.126 776.014C182.126 774.569 181.89 773.325 181.418 772.281C180.946 771.233 180.241 770.428 179.302 769.869C178.364 769.304 177.196 769.021 175.797 769.021H172.336V783.077ZM187.58 785V771.573H189.573V773.601H189.713C189.958 772.937 190.401 772.398 191.042 771.984C191.683 771.571 192.406 771.364 193.21 771.364C193.361 771.364 193.551 771.367 193.778 771.372C194.005 771.378 194.177 771.387 194.294 771.399V773.497C194.224 773.479 194.064 773.453 193.813 773.418C193.568 773.377 193.309 773.357 193.035 773.357C192.382 773.357 191.8 773.494 191.287 773.767C190.78 774.036 190.378 774.409 190.08 774.886C189.789 775.358 189.643 775.897 189.643 776.503V785H187.58ZM196.739 785V771.573H198.802V785H196.739ZM197.788 769.336C197.386 769.336 197.039 769.199 196.748 768.925C196.462 768.651 196.319 768.322 196.319 767.937C196.319 767.552 196.462 767.223 196.748 766.949C197.039 766.675 197.386 766.538 197.788 766.538C198.19 766.538 198.534 766.675 198.819 766.949C199.111 767.223 199.257 767.552 199.257 767.937C199.257 768.322 199.111 768.651 198.819 768.925C198.534 769.199 198.19 769.336 197.788 769.336ZM213.559 771.573L208.594 785H206.497L201.531 771.573H203.769L207.476 782.273H207.615L211.322 771.573H213.559ZM221.431 785.28C220.137 785.28 219.021 784.994 218.083 784.423C217.151 783.846 216.431 783.042 215.924 782.01C215.423 780.973 215.172 779.767 215.172 778.392C215.172 777.016 215.423 775.804 215.924 774.755C216.431 773.7 217.136 772.879 218.039 772.29C218.948 771.696 220.009 771.399 221.221 771.399C221.92 771.399 222.611 771.515 223.293 771.748C223.975 771.981 224.595 772.36 225.155 772.885C225.714 773.403 226.16 774.091 226.492 774.948C226.824 775.804 226.99 776.859 226.99 778.112V778.986H216.641V777.203H224.892C224.892 776.445 224.741 775.769 224.438 775.175C224.141 774.58 223.715 774.111 223.162 773.767C222.614 773.424 221.967 773.252 221.221 773.252C220.399 773.252 219.689 773.456 219.088 773.864C218.494 774.266 218.036 774.79 217.716 775.437C217.395 776.084 217.235 776.777 217.235 777.517V778.706C217.235 779.72 217.41 780.58 217.76 781.285C218.115 781.984 218.608 782.517 219.237 782.885C219.866 783.246 220.598 783.427 221.431 783.427C221.973 783.427 222.462 783.351 222.899 783.199C223.342 783.042 223.724 782.809 224.045 782.5C224.365 782.185 224.613 781.795 224.788 781.329L226.781 781.888C226.571 782.564 226.218 783.159 225.723 783.671C225.228 784.178 224.616 784.575 223.887 784.86C223.159 785.14 222.34 785.28 221.431 785.28ZM230.128 785V771.573H232.122V773.601H232.261C232.506 772.937 232.949 772.398 233.59 771.984C234.231 771.571 234.954 771.364 235.758 771.364C235.909 771.364 236.099 771.367 236.326 771.372C236.553 771.378 236.725 771.387 236.842 771.399V773.497C236.772 773.479 236.612 773.453 236.361 773.418C236.116 773.377 235.857 773.357 235.583 773.357C234.93 773.357 234.348 773.494 233.835 773.767C233.328 774.036 232.926 774.409 232.628 774.886C232.337 775.358 232.191 775.897 232.191 776.503V785H230.128ZM248.903 779.965V779.86C248.914 778.747 249.031 777.861 249.252 777.203C249.474 776.544 249.788 776.011 250.196 775.603C250.604 775.195 251.094 774.819 251.665 774.476C252.009 774.266 252.317 774.018 252.591 773.733C252.865 773.441 253.081 773.106 253.238 772.727C253.401 772.348 253.483 771.929 253.483 771.469C253.483 770.897 253.349 770.402 253.081 769.983C252.813 769.563 252.454 769.24 252.006 769.012C251.557 768.785 251.059 768.671 250.511 768.671C250.033 768.671 249.573 768.77 249.13 768.969C248.687 769.167 248.317 769.478 248.02 769.904C247.722 770.329 247.551 770.886 247.504 771.573H245.301C245.348 770.583 245.604 769.735 246.07 769.03C246.542 768.325 247.163 767.786 247.932 767.413C248.707 767.04 249.567 766.853 250.511 766.853C251.537 766.853 252.428 767.057 253.186 767.465C253.949 767.873 254.538 768.432 254.951 769.143C255.371 769.854 255.581 770.664 255.581 771.573C255.581 772.214 255.482 772.794 255.284 773.313C255.091 773.832 254.812 774.295 254.444 774.703C254.083 775.111 253.646 775.472 253.133 775.787C252.62 776.107 252.21 776.445 251.901 776.801C251.592 777.15 251.368 777.567 251.228 778.051C251.088 778.534 251.012 779.138 251 779.86V779.965H248.903ZM250.021 785.14C249.59 785.14 249.22 784.985 248.911 784.677C248.602 784.368 248.448 783.998 248.448 783.566C248.448 783.135 248.602 782.765 248.911 782.456C249.22 782.147 249.59 781.993 250.021 781.993C250.453 781.993 250.823 782.147 251.132 782.456C251.44 782.765 251.595 783.135 251.595 783.566C251.595 783.852 251.522 784.114 251.376 784.353C251.236 784.592 251.047 784.784 250.808 784.93C250.575 785.07 250.313 785.14 250.021 785.14Z" fill="white"/>
<path d="M143.168 563V545.098H149.217C150.621 545.098 151.769 545.351 152.661 545.858C153.558 546.36 154.223 547.038 154.654 547.895C155.085 548.752 155.301 549.707 155.301 550.762C155.301 551.817 155.085 552.776 154.654 553.638C154.228 554.501 153.57 555.188 152.678 555.701C151.787 556.208 150.645 556.462 149.252 556.462H144.916V554.538H149.182C150.143 554.538 150.916 554.372 151.498 554.04C152.081 553.708 152.503 553.259 152.766 552.694C153.034 552.123 153.168 551.479 153.168 550.762C153.168 550.045 153.034 549.404 152.766 548.839C152.503 548.274 152.078 547.831 151.49 547.51C150.901 547.184 150.12 547.021 149.147 547.021H145.336V563H143.168ZM162.464 563.315C161.613 563.315 160.841 563.154 160.148 562.834C159.454 562.508 158.904 562.038 158.496 561.427C158.088 560.809 157.884 560.063 157.884 559.189C157.884 558.42 158.035 557.796 158.338 557.318C158.641 556.834 159.046 556.456 159.553 556.182C160.06 555.908 160.62 555.704 161.232 555.57C161.849 555.43 162.47 555.319 163.094 555.238C163.909 555.133 164.571 555.054 165.078 555.002C165.591 554.943 165.964 554.847 166.197 554.713C166.436 554.579 166.555 554.346 166.555 554.014V553.944C166.555 553.082 166.319 552.411 165.847 551.934C165.381 551.456 164.673 551.217 163.723 551.217C162.738 551.217 161.966 551.432 161.406 551.864C160.847 552.295 160.454 552.755 160.226 553.245L158.268 552.545C158.618 551.73 159.084 551.094 159.667 550.64C160.256 550.179 160.897 549.859 161.59 549.678C162.289 549.492 162.977 549.399 163.653 549.399C164.084 549.399 164.58 549.451 165.139 549.556C165.704 549.655 166.249 549.862 166.774 550.177C167.304 550.491 167.744 550.966 168.094 551.601C168.443 552.237 168.618 553.087 168.618 554.154V563H166.555V561.182H166.45C166.31 561.473 166.077 561.785 165.751 562.117C165.425 562.449 164.99 562.732 164.448 562.965C163.906 563.198 163.245 563.315 162.464 563.315ZM162.779 561.462C163.595 561.462 164.282 561.301 164.842 560.981C165.407 560.66 165.832 560.247 166.118 559.74C166.409 559.233 166.555 558.699 166.555 558.14V556.252C166.468 556.357 166.275 556.453 165.978 556.54C165.687 556.622 165.349 556.695 164.964 556.759C164.585 556.817 164.215 556.869 163.854 556.916C163.499 556.957 163.21 556.992 162.989 557.021C162.453 557.091 161.951 557.205 161.485 557.362C161.025 557.513 160.652 557.744 160.366 558.052C160.087 558.355 159.947 558.769 159.947 559.294C159.947 560.01 160.212 560.552 160.742 560.92C161.278 561.281 161.957 561.462 162.779 561.462ZM181.894 552.58L180.041 553.105C179.924 552.796 179.752 552.496 179.525 552.205C179.303 551.907 179 551.663 178.616 551.47C178.231 551.278 177.739 551.182 177.139 551.182C176.317 551.182 175.632 551.371 175.084 551.75C174.542 552.123 174.271 552.598 174.271 553.175C174.271 553.688 174.458 554.093 174.831 554.39C175.204 554.687 175.787 554.935 176.579 555.133L178.572 555.622C179.773 555.914 180.667 556.36 181.256 556.96C181.844 557.554 182.139 558.321 182.139 559.259C182.139 560.028 181.917 560.716 181.474 561.322C181.037 561.928 180.425 562.406 179.639 562.755C178.852 563.105 177.937 563.28 176.894 563.28C175.524 563.28 174.391 562.983 173.493 562.388C172.596 561.794 172.028 560.925 171.789 559.783L173.747 559.294C173.933 560.016 174.286 560.558 174.805 560.92C175.329 561.281 176.014 561.462 176.859 561.462C177.82 561.462 178.584 561.258 179.149 560.85C179.72 560.436 180.006 559.941 180.006 559.364C180.006 558.897 179.843 558.507 179.516 558.192C179.19 557.872 178.689 557.633 178.013 557.476L175.775 556.951C174.545 556.66 173.642 556.208 173.065 555.596C172.494 554.978 172.208 554.206 172.208 553.28C172.208 552.522 172.421 551.852 172.847 551.269C173.278 550.686 173.863 550.229 174.604 549.897C175.35 549.565 176.194 549.399 177.139 549.399C178.467 549.399 179.51 549.69 180.268 550.273C181.031 550.855 181.573 551.625 181.894 552.58ZM194.754 552.58L192.901 553.105C192.785 552.796 192.613 552.496 192.385 552.205C192.164 551.907 191.861 551.663 191.476 551.47C191.092 551.278 190.599 551.182 189.999 551.182C189.177 551.182 188.493 551.371 187.945 551.75C187.403 552.123 187.132 552.598 187.132 553.175C187.132 553.688 187.318 554.093 187.691 554.39C188.064 554.687 188.647 554.935 189.44 555.133L191.433 555.622C192.633 555.914 193.528 556.36 194.116 556.96C194.705 557.554 194.999 558.321 194.999 559.259C194.999 560.028 194.778 560.716 194.335 561.322C193.898 561.928 193.286 562.406 192.499 562.755C191.712 563.105 190.797 563.28 189.754 563.28C188.385 563.28 187.251 562.983 186.354 562.388C185.457 561.794 184.888 560.925 184.649 559.783L186.608 559.294C186.794 560.016 187.147 560.558 187.665 560.92C188.19 561.281 188.874 561.462 189.719 561.462C190.681 561.462 191.444 561.258 192.01 560.85C192.581 560.436 192.866 559.941 192.866 559.364C192.866 558.897 192.703 558.507 192.377 558.192C192.05 557.872 191.549 557.633 190.873 557.476L188.635 556.951C187.406 556.66 186.503 556.208 185.926 555.596C185.355 554.978 185.069 554.206 185.069 553.28C185.069 552.522 185.282 551.852 185.707 551.269C186.138 550.686 186.724 550.229 187.464 549.897C188.21 549.565 189.055 549.399 189.999 549.399C191.328 549.399 192.371 549.69 193.128 550.273C193.892 550.855 194.434 551.625 194.754 552.58ZM203.734 563.28C202.44 563.28 201.324 562.994 200.386 562.423C199.454 561.846 198.734 561.042 198.227 560.01C197.726 558.973 197.475 557.767 197.475 556.392C197.475 555.016 197.726 553.804 198.227 552.755C198.734 551.7 199.439 550.879 200.342 550.29C201.251 549.696 202.312 549.399 203.524 549.399C204.223 549.399 204.914 549.515 205.596 549.748C206.278 549.981 206.898 550.36 207.458 550.885C208.017 551.403 208.463 552.091 208.795 552.948C209.127 553.804 209.293 554.859 209.293 556.112V556.986H198.944V555.203H207.195C207.195 554.445 207.044 553.769 206.741 553.175C206.444 552.58 206.018 552.111 205.465 551.767C204.917 551.424 204.27 551.252 203.524 551.252C202.702 551.252 201.991 551.456 201.391 551.864C200.797 552.266 200.339 552.79 200.019 553.437C199.698 554.084 199.538 554.777 199.538 555.517V556.706C199.538 557.72 199.713 558.58 200.063 559.285C200.418 559.984 200.91 560.517 201.54 560.885C202.169 561.246 202.9 561.427 203.734 561.427C204.276 561.427 204.765 561.351 205.202 561.199C205.645 561.042 206.027 560.809 206.347 560.5C206.668 560.185 206.916 559.795 207.09 559.329L209.083 559.888C208.874 560.564 208.521 561.159 208.026 561.671C207.53 562.178 206.919 562.575 206.19 562.86C205.462 563.14 204.643 563.28 203.734 563.28ZM214.494 554.923V563H212.431V549.573H214.424V551.671H214.599C214.914 550.99 215.392 550.442 216.033 550.028C216.674 549.608 217.501 549.399 218.515 549.399C219.424 549.399 220.22 549.585 220.902 549.958C221.583 550.325 222.114 550.885 222.493 551.636C222.871 552.382 223.061 553.326 223.061 554.469V563H220.998V554.608C220.998 553.554 220.724 552.732 220.176 552.143C219.628 551.549 218.877 551.252 217.921 551.252C217.262 551.252 216.674 551.395 216.155 551.68C215.642 551.966 215.237 552.382 214.94 552.93C214.643 553.478 214.494 554.142 214.494 554.923ZM232.25 568.315C231.253 568.315 230.397 568.186 229.68 567.93C228.963 567.679 228.366 567.347 227.888 566.934C227.416 566.526 227.04 566.089 226.76 565.622L228.404 564.469C228.59 564.713 228.826 564.993 229.112 565.308C229.397 565.628 229.788 565.905 230.283 566.138C230.784 566.377 231.44 566.497 232.25 566.497C233.334 566.497 234.228 566.234 234.934 565.71C235.639 565.185 235.991 564.364 235.991 563.245V560.517H235.816C235.665 560.762 235.449 561.065 235.17 561.427C234.896 561.782 234.499 562.1 233.981 562.379C233.468 562.653 232.774 562.79 231.9 562.79C230.816 562.79 229.843 562.534 228.981 562.021C228.124 561.508 227.445 560.762 226.944 559.783C226.449 558.804 226.201 557.615 226.201 556.217C226.201 554.841 226.443 553.644 226.927 552.624C227.41 551.598 228.083 550.806 228.946 550.247C229.808 549.681 230.805 549.399 231.935 549.399C232.809 549.399 233.503 549.544 234.016 549.836C234.534 550.121 234.931 550.448 235.205 550.815C235.484 551.176 235.7 551.473 235.851 551.706H236.061V549.573H238.054V563.385C238.054 564.538 237.792 565.477 237.267 566.199C236.749 566.928 236.05 567.461 235.17 567.799C234.295 568.143 233.322 568.315 232.25 568.315ZM232.18 560.937C233.008 560.937 233.707 560.748 234.278 560.369C234.849 559.99 235.283 559.445 235.58 558.734C235.878 558.023 236.026 557.172 236.026 556.182C236.026 555.214 235.881 554.361 235.589 553.621C235.298 552.881 234.867 552.301 234.295 551.881C233.724 551.462 233.019 551.252 232.18 551.252C231.306 551.252 230.578 551.473 229.995 551.916C229.418 552.359 228.984 552.953 228.692 553.699C228.407 554.445 228.264 555.273 228.264 556.182C228.264 557.114 228.41 557.939 228.701 558.656C228.998 559.367 229.435 559.926 230.012 560.334C230.595 560.736 231.318 560.937 232.18 560.937ZM247.46 563.28C246.166 563.28 245.05 562.994 244.112 562.423C243.179 561.846 242.46 561.042 241.953 560.01C241.452 558.973 241.201 557.767 241.201 556.392C241.201 555.016 241.452 553.804 241.953 552.755C242.46 551.7 243.165 550.879 244.068 550.29C244.977 549.696 246.038 549.399 247.25 549.399C247.949 549.399 248.64 549.515 249.322 549.748C250.003 549.981 250.624 550.36 251.184 550.885C251.743 551.403 252.189 552.091 252.521 552.948C252.853 553.804 253.019 554.859 253.019 556.112V556.986H242.67V555.203H250.921C250.921 554.445 250.77 553.769 250.467 553.175C250.17 552.58 249.744 552.111 249.191 551.767C248.643 551.424 247.996 551.252 247.25 551.252C246.428 551.252 245.717 551.456 245.117 551.864C244.523 552.266 244.065 552.79 243.745 553.437C243.424 554.084 243.264 554.777 243.264 555.517V556.706C243.264 557.72 243.439 558.58 243.788 559.285C244.144 559.984 244.636 560.517 245.266 560.885C245.895 561.246 246.626 561.427 247.46 561.427C248.002 561.427 248.491 561.351 248.928 561.199C249.371 561.042 249.753 560.809 250.073 560.5C250.394 560.185 250.642 559.795 250.816 559.329L252.809 559.888C252.6 560.564 252.247 561.159 251.752 561.671C251.256 562.178 250.645 562.575 249.916 562.86C249.188 563.14 248.369 563.28 247.46 563.28ZM256.157 563V549.573H258.15V551.601H258.29C258.535 550.937 258.978 550.398 259.619 549.984C260.26 549.571 260.983 549.364 261.787 549.364C261.938 549.364 262.128 549.367 262.355 549.372C262.582 549.378 262.754 549.387 262.871 549.399V551.497C262.801 551.479 262.64 551.453 262.39 551.418C262.145 551.377 261.886 551.357 261.612 551.357C260.959 551.357 260.376 551.494 259.864 551.767C259.357 552.036 258.955 552.409 258.657 552.886C258.366 553.358 258.22 553.897 258.22 554.503V563H256.157ZM274.931 557.965V557.86C274.943 556.747 275.06 555.861 275.281 555.203C275.502 554.544 275.817 554.011 276.225 553.603C276.633 553.195 277.123 552.819 277.694 552.476C278.037 552.266 278.346 552.018 278.62 551.733C278.894 551.441 279.11 551.106 279.267 550.727C279.43 550.348 279.512 549.929 279.512 549.469C279.512 548.897 279.378 548.402 279.11 547.983C278.842 547.563 278.483 547.24 278.035 547.012C277.586 546.785 277.088 546.671 276.54 546.671C276.062 546.671 275.602 546.77 275.159 546.969C274.716 547.167 274.346 547.478 274.049 547.904C273.751 548.329 273.579 548.886 273.533 549.573H271.33C271.377 548.583 271.633 547.735 272.099 547.03C272.571 546.325 273.192 545.786 273.961 545.413C274.736 545.04 275.596 544.853 276.54 544.853C277.565 544.853 278.457 545.057 279.215 545.465C279.978 545.873 280.567 546.432 280.98 547.143C281.4 547.854 281.61 548.664 281.61 549.573C281.61 550.214 281.511 550.794 281.313 551.313C281.12 551.832 280.84 552.295 280.473 552.703C280.112 553.111 279.675 553.472 279.162 553.787C278.649 554.107 278.238 554.445 277.93 554.801C277.621 555.15 277.396 555.567 277.257 556.051C277.117 556.534 277.041 557.138 277.029 557.86V557.965H274.931ZM276.05 563.14C275.619 563.14 275.249 562.985 274.94 562.677C274.631 562.368 274.477 561.998 274.477 561.566C274.477 561.135 274.631 560.765 274.94 560.456C275.249 560.147 275.619 559.993 276.05 559.993C276.482 559.993 276.852 560.147 277.16 560.456C277.469 560.765 277.624 561.135 277.624 561.566C277.624 561.852 277.551 562.114 277.405 562.353C277.265 562.592 277.076 562.784 276.837 562.93C276.604 563.07 276.342 563.14 276.05 563.14Z" fill="white"/>
<path d="M0 0H430V299C409.5 243.827 210.5 243.827 210.5 243.827C210.5 243.827 59 243.827 0 299V0Z" fill="#146C94"/>
<path d="M192 131.611C192 135.107 193.549 138.245 195.972 140.429V147.5C195.972 149.685 197.76 151.472 199.944 151.472H203.917C206.101 151.472 207.889 149.685 207.889 147.5V143.528H239.667V147.5C239.667 149.685 241.454 151.472 243.639 151.472H247.611C249.796 151.472 251.583 149.685 251.583 147.5V140.429C254.006 138.245 255.556 135.107 255.556 131.611V91.8889C255.556 77.9861 241.335 76 223.778 76C206.221 76 192 77.9861 192 91.8889V131.611ZM205.903 135.583C202.606 135.583 199.944 132.922 199.944 129.625C199.944 126.328 202.606 123.667 205.903 123.667C209.2 123.667 211.861 126.328 211.861 129.625C211.861 132.922 209.2 135.583 205.903 135.583ZM241.653 135.583C238.356 135.583 235.694 132.922 235.694 129.625C235.694 126.328 238.356 123.667 241.653 123.667C244.95 123.667 247.611 126.328 247.611 129.625C247.611 132.922 244.95 135.583 241.653 135.583ZM247.611 111.75H199.944V91.8889H247.611V111.75Z" fill="#F6F1F1"/>
<path d="M160.219 197.556V178.647H168.418C169.858 178.647 171.067 178.84 172.046 179.228C173.031 179.616 173.773 180.164 174.271 180.872C174.776 181.58 175.028 182.414 175.028 183.374C175.028 184.069 174.875 184.703 174.567 185.276C174.265 185.848 173.84 186.328 173.293 186.716C172.745 187.098 172.105 187.362 171.372 187.51V187.695C172.185 187.726 172.923 187.932 173.588 188.313C174.253 188.689 174.782 189.209 175.176 189.874C175.57 190.532 175.767 191.308 175.767 192.201C175.767 193.235 175.496 194.155 174.955 194.961C174.419 195.768 173.656 196.402 172.665 196.863C171.674 197.325 170.492 197.556 169.119 197.556H160.219ZM165.352 193.456H167.753C168.615 193.456 169.261 193.296 169.692 192.976C170.123 192.65 170.338 192.17 170.338 191.536C170.338 191.093 170.237 190.717 170.033 190.409C169.83 190.102 169.541 189.868 169.165 189.708C168.796 189.548 168.35 189.468 167.827 189.468H165.352V193.456ZM165.352 186.291H167.457C167.907 186.291 168.304 186.221 168.648 186.079C168.993 185.938 169.261 185.734 169.452 185.47C169.649 185.199 169.747 184.87 169.747 184.482C169.747 183.897 169.538 183.451 169.119 183.143C168.701 182.829 168.171 182.672 167.531 182.672H165.352V186.291ZM186.856 191.351V183.374H191.952V197.556H187.114V194.86H186.967C186.659 195.764 186.12 196.472 185.351 196.983C184.581 197.488 183.667 197.74 182.609 197.74C181.618 197.74 180.75 197.513 180.005 197.057C179.266 196.602 178.691 195.974 178.278 195.174C177.872 194.373 177.666 193.456 177.66 192.422V183.374H182.756V191.351C182.763 192.053 182.941 192.604 183.292 193.004C183.649 193.404 184.147 193.604 184.788 193.604C185.212 193.604 185.579 193.515 185.886 193.336C186.2 193.152 186.44 192.893 186.607 192.561C186.779 192.222 186.862 191.819 186.856 191.351ZM207.508 187.99H202.817C202.793 187.701 202.691 187.452 202.513 187.242C202.334 187.033 202.103 186.873 201.82 186.762C201.543 186.645 201.235 186.587 200.897 186.587C200.46 186.587 200.084 186.667 199.77 186.827C199.456 186.987 199.303 187.215 199.309 187.51C199.303 187.719 199.392 187.913 199.577 188.092C199.767 188.27 200.134 188.409 200.675 188.507L203.556 189.024C205.009 189.289 206.089 189.735 206.797 190.363C207.511 190.985 207.871 191.819 207.877 192.865C207.871 193.875 207.569 194.752 206.972 195.497C206.381 196.235 205.572 196.808 204.544 197.214C203.522 197.614 202.356 197.814 201.045 197.814C198.878 197.814 197.182 197.371 195.957 196.485C194.738 195.598 194.058 194.429 193.917 192.976H198.976C199.044 193.425 199.266 193.773 199.641 194.019C200.023 194.259 200.503 194.38 201.081 194.38C201.549 194.38 201.934 194.3 202.236 194.139C202.543 193.979 202.7 193.752 202.706 193.456C202.7 193.185 202.565 192.97 202.3 192.81C202.042 192.65 201.635 192.521 201.081 192.422L198.57 191.979C197.124 191.727 196.04 191.246 195.32 190.539C194.6 189.831 194.243 188.92 194.249 187.806C194.243 186.821 194.501 185.987 195.025 185.304C195.554 184.614 196.308 184.091 197.287 183.734C198.272 183.371 199.438 183.189 200.786 183.189C202.836 183.189 204.452 183.614 205.633 184.463C206.821 185.313 207.446 186.488 207.508 187.99ZM222.793 187.99H218.102C218.078 187.701 217.976 187.452 217.798 187.242C217.619 187.033 217.388 186.873 217.105 186.762C216.828 186.645 216.521 186.587 216.182 186.587C215.745 186.587 215.369 186.667 215.056 186.827C214.742 186.987 214.588 187.215 214.594 187.51C214.588 187.719 214.677 187.913 214.862 188.092C215.052 188.27 215.419 188.409 215.96 188.507L218.841 189.024C220.294 189.289 221.374 189.735 222.082 190.363C222.796 190.985 223.156 191.819 223.162 192.865C223.156 193.875 222.854 194.752 222.257 195.497C221.666 196.235 220.857 196.808 219.829 197.214C218.807 197.614 217.641 197.814 216.33 197.814C214.163 197.814 212.467 197.371 211.242 196.485C210.024 195.598 209.343 194.429 209.202 192.976H214.262C214.329 193.425 214.551 193.773 214.926 194.019C215.308 194.259 215.788 194.38 216.367 194.38C216.834 194.38 217.219 194.3 217.521 194.139C217.829 193.979 217.985 193.752 217.992 193.456C217.985 193.185 217.85 192.97 217.585 192.81C217.327 192.65 216.921 192.521 216.367 192.422L213.855 191.979C212.409 191.727 211.325 191.246 210.605 190.539C209.885 189.831 209.528 188.92 209.534 187.806C209.528 186.821 209.787 185.987 210.31 185.304C210.839 184.614 211.593 184.091 212.572 183.734C213.557 183.371 214.723 183.189 216.071 183.189C218.121 183.189 219.737 183.614 220.919 184.463C222.106 185.313 222.731 186.488 222.793 187.99Z" fill="white" fill-opacity="0.5"/>
<path d="M225.041 197.556V178.647H233.24C234.68 178.647 235.89 178.84 236.868 179.228C237.853 179.616 238.595 180.164 239.094 180.872C239.598 181.58 239.851 182.414 239.851 183.374C239.851 184.069 239.697 184.703 239.389 185.276C239.087 185.848 238.663 186.328 238.115 186.716C237.567 187.098 236.927 187.362 236.194 187.51V187.695C237.007 187.726 237.746 187.932 238.41 188.313C239.075 188.689 239.604 189.209 239.998 189.874C240.392 190.532 240.589 191.308 240.589 192.201C240.589 193.235 240.318 194.155 239.777 194.961C239.241 195.768 238.478 196.402 237.487 196.863C236.496 197.325 235.314 197.556 233.942 197.556H225.041ZM230.175 193.456H232.575C233.437 193.456 234.083 193.296 234.514 192.976C234.945 192.65 235.16 192.17 235.16 191.536C235.16 191.093 235.059 190.717 234.856 190.409C234.653 190.102 234.363 189.868 233.988 189.708C233.618 189.548 233.172 189.468 232.649 189.468H230.175V193.456ZM230.175 186.291H232.28C232.729 186.291 233.126 186.221 233.471 186.079C233.815 185.938 234.083 185.734 234.274 185.47C234.471 185.199 234.569 184.87 234.569 184.482C234.569 183.897 234.36 183.451 233.942 183.143C233.523 182.829 232.994 182.672 232.354 182.672H230.175V186.291ZM249.314 197.814C247.776 197.814 246.458 197.509 245.363 196.9C244.267 196.285 243.427 195.429 242.842 194.333C242.257 193.232 241.965 191.954 241.965 190.502C241.965 189.049 242.257 187.775 242.842 186.679C243.427 185.577 244.267 184.722 245.363 184.112C246.458 183.497 247.776 183.189 249.314 183.189C250.853 183.189 252.171 183.497 253.266 184.112C254.362 184.722 255.202 185.577 255.787 186.679C256.372 187.775 256.664 189.049 256.664 190.502C256.664 191.954 256.372 193.232 255.787 194.333C255.202 195.429 254.362 196.285 253.266 196.9C252.171 197.509 250.853 197.814 249.314 197.814ZM249.351 194.047C249.782 194.047 250.155 193.902 250.469 193.613C250.782 193.324 251.026 192.911 251.198 192.376C251.37 191.84 251.456 191.203 251.456 190.465C251.456 189.72 251.37 189.083 251.198 188.554C251.026 188.018 250.782 187.606 250.469 187.316C250.155 187.027 249.782 186.882 249.351 186.882C248.896 186.882 248.505 187.027 248.179 187.316C247.853 187.606 247.603 188.018 247.431 188.554C247.259 189.083 247.172 189.72 247.172 190.465C247.172 191.203 247.259 191.84 247.431 192.376C247.603 192.911 247.853 193.324 248.179 193.613C248.505 193.902 248.896 194.047 249.351 194.047ZM271.695 187.99H267.005C266.98 187.701 266.879 187.452 266.7 187.242C266.522 187.033 266.291 186.873 266.008 186.762C265.731 186.645 265.423 186.587 265.084 186.587C264.647 186.587 264.272 186.667 263.958 186.827C263.644 186.987 263.49 187.215 263.496 187.51C263.49 187.719 263.579 187.913 263.764 188.092C263.955 188.27 264.321 188.409 264.863 188.507L267.743 189.024C269.196 189.289 270.276 189.735 270.984 190.363C271.698 190.985 272.058 191.819 272.064 192.865C272.058 193.875 271.757 194.752 271.16 195.497C270.569 196.235 269.759 196.808 268.731 197.214C267.71 197.614 266.543 197.814 265.232 197.814C263.065 197.814 261.37 197.371 260.145 196.485C258.926 195.598 258.246 194.429 258.104 192.976H263.164C263.232 193.425 263.453 193.773 263.829 194.019C264.21 194.259 264.69 194.38 265.269 194.38C265.737 194.38 266.122 194.3 266.423 194.139C266.731 193.979 266.888 193.752 266.894 193.456C266.888 193.185 266.752 192.97 266.488 192.81C266.229 192.65 265.823 192.521 265.269 192.422L262.758 191.979C261.311 191.727 260.228 191.246 259.508 190.539C258.787 189.831 258.43 188.92 258.437 187.806C258.43 186.821 258.689 185.987 259.212 185.304C259.742 184.614 260.496 184.091 261.474 183.734C262.459 183.371 263.626 183.189 264.974 183.189C267.023 183.189 268.639 183.614 269.821 184.463C271.009 185.313 271.634 186.488 271.695 187.99ZM286.98 187.99H282.29C282.265 187.701 282.164 187.452 281.985 187.242C281.807 187.033 281.576 186.873 281.293 186.762C281.016 186.645 280.708 186.587 280.369 186.587C279.932 186.587 279.557 186.667 279.243 186.827C278.929 186.987 278.775 187.215 278.781 187.51C278.775 187.719 278.865 187.913 279.049 188.092C279.24 188.27 279.606 188.409 280.148 188.507L283.029 189.024C284.481 189.289 285.561 189.735 286.269 190.363C286.983 190.985 287.343 191.819 287.35 192.865C287.343 193.875 287.042 194.752 286.445 195.497C285.854 196.235 285.044 196.808 284.017 197.214C282.995 197.614 281.828 197.814 280.517 197.814C278.351 197.814 276.655 197.371 275.43 196.485C274.211 195.598 273.531 194.429 273.389 192.976H278.449C278.517 193.425 278.738 193.773 279.114 194.019C279.495 194.259 279.976 194.38 280.554 194.38C281.022 194.38 281.407 194.3 281.708 194.139C282.016 193.979 282.173 193.752 282.179 193.456C282.173 193.185 282.038 192.97 281.773 192.81C281.514 192.65 281.108 192.521 280.554 192.422L278.043 191.979C276.596 191.727 275.513 191.246 274.793 190.539C274.073 189.831 273.716 188.92 273.722 187.806C273.716 186.821 273.974 185.987 274.497 185.304C275.027 184.614 275.781 184.091 276.759 183.734C277.744 183.371 278.911 183.189 280.259 183.189C282.308 183.189 283.924 183.614 285.106 184.463C286.294 185.313 286.919 186.488 286.98 187.99Z" fill="white"/>
<path d="M125.586 399L120.463 381.098H124.598L127.561 393.537H127.71L130.979 381.098H134.519L137.78 393.563H137.937L140.9 381.098H145.035L139.913 399H136.224L132.815 387.295H132.675L129.274 399H125.586ZM150.715 391.238V399H146.991V381.098H150.61V387.942H150.767C151.07 387.15 151.56 386.529 152.236 386.08C152.912 385.626 153.759 385.399 154.779 385.399C155.712 385.399 156.525 385.603 157.218 386.01C157.917 386.413 158.459 386.992 158.844 387.75C159.234 388.502 159.427 389.402 159.421 390.451V399H155.697V391.115C155.703 390.288 155.493 389.644 155.068 389.184C154.648 388.723 154.06 388.493 153.302 388.493C152.795 388.493 152.346 388.601 151.956 388.816C151.571 389.032 151.268 389.347 151.047 389.76C150.831 390.168 150.72 390.661 150.715 391.238ZM166.18 399.253C165.323 399.253 164.56 399.105 163.89 398.808C163.22 398.505 162.689 398.059 162.299 397.47C161.914 396.876 161.722 396.136 161.722 395.25C161.722 394.504 161.859 393.878 162.133 393.371C162.407 392.864 162.78 392.456 163.252 392.147C163.724 391.838 164.26 391.605 164.86 391.448C165.466 391.29 166.101 391.179 166.766 391.115C167.547 391.034 168.176 390.958 168.654 390.888C169.132 390.812 169.478 390.702 169.694 390.556C169.91 390.41 170.017 390.195 170.017 389.909V389.857C170.017 389.303 169.843 388.875 169.493 388.572C169.149 388.269 168.66 388.117 168.024 388.117C167.354 388.117 166.821 388.266 166.425 388.563C166.029 388.854 165.766 389.221 165.638 389.664L162.194 389.385C162.369 388.569 162.713 387.864 163.226 387.269C163.738 386.669 164.4 386.209 165.21 385.888C166.026 385.562 166.97 385.399 168.042 385.399C168.788 385.399 169.502 385.486 170.184 385.661C170.871 385.836 171.48 386.107 172.01 386.474C172.547 386.841 172.969 387.313 173.278 387.89C173.587 388.461 173.741 389.146 173.741 389.944V399H170.21V397.138H170.105C169.889 397.558 169.601 397.928 169.24 398.248C168.878 398.563 168.444 398.811 167.937 398.991C167.43 399.166 166.844 399.253 166.18 399.253ZM167.247 396.684C167.794 396.684 168.278 396.576 168.698 396.36C169.117 396.139 169.446 395.841 169.685 395.469C169.924 395.096 170.044 394.673 170.044 394.201V392.776C169.927 392.852 169.767 392.922 169.563 392.986C169.365 393.044 169.14 393.1 168.89 393.152C168.639 393.199 168.389 393.242 168.138 393.283C167.888 393.318 167.66 393.35 167.456 393.379C167.019 393.443 166.638 393.545 166.311 393.685C165.985 393.825 165.731 394.015 165.551 394.253C165.37 394.487 165.28 394.778 165.28 395.128C165.28 395.635 165.463 396.022 165.83 396.29C166.203 396.552 166.675 396.684 167.247 396.684ZM183.772 385.573V388.371H175.686V385.573H183.772ZM177.522 382.357H181.246V394.874C181.246 395.218 181.298 395.486 181.403 395.678C181.508 395.865 181.654 395.996 181.84 396.072C182.032 396.147 182.254 396.185 182.504 396.185C182.679 396.185 182.854 396.171 183.029 396.142C183.204 396.107 183.338 396.08 183.431 396.063L184.017 398.834C183.83 398.892 183.568 398.959 183.23 399.035C182.892 399.117 182.481 399.166 181.997 399.184C181.1 399.219 180.313 399.099 179.637 398.825C178.967 398.551 178.446 398.126 178.073 397.549C177.7 396.972 177.516 396.244 177.522 395.364V382.357ZM195.05 399H190.994L197.174 381.098H202.052L208.223 399H204.167L199.683 385.189H199.543L195.05 399ZM194.797 391.963H204.377V394.918H194.797V391.963ZM210.308 399V385.573H213.918V387.916H214.058C214.303 387.083 214.714 386.453 215.291 386.028C215.868 385.597 216.532 385.381 217.284 385.381C217.47 385.381 217.671 385.393 217.887 385.416C218.102 385.439 218.292 385.471 218.455 385.512V388.816C218.28 388.764 218.038 388.717 217.729 388.677C217.421 388.636 217.138 388.615 216.882 388.615C216.334 388.615 215.844 388.735 215.413 388.974C214.988 389.207 214.65 389.533 214.399 389.953C214.154 390.372 214.032 390.856 214.032 391.404V399H210.308ZM225.874 399.262C224.493 399.262 223.304 398.983 222.308 398.423C221.317 397.858 220.554 397.059 220.017 396.028C219.481 394.991 219.213 393.764 219.213 392.348C219.213 390.967 219.481 389.755 220.017 388.712C220.554 387.668 221.308 386.855 222.281 386.273C223.26 385.69 224.409 385.399 225.726 385.399C226.611 385.399 227.436 385.541 228.199 385.827C228.969 386.107 229.639 386.529 230.21 387.094C230.787 387.66 231.235 388.371 231.556 389.227C231.876 390.078 232.037 391.075 232.037 392.217V393.24H220.699V390.932H228.531C228.531 390.396 228.415 389.921 228.182 389.507C227.949 389.093 227.625 388.77 227.212 388.537C226.804 388.298 226.329 388.178 225.787 388.178C225.221 388.178 224.72 388.309 224.283 388.572C223.852 388.828 223.514 389.175 223.269 389.612C223.024 390.043 222.899 390.524 222.893 391.054V393.248C222.893 393.913 223.016 394.487 223.26 394.97C223.511 395.454 223.864 395.827 224.318 396.089C224.773 396.351 225.312 396.483 225.935 396.483C226.349 396.483 226.728 396.424 227.072 396.308C227.416 396.191 227.71 396.016 227.955 395.783C228.199 395.55 228.386 395.265 228.514 394.927L231.958 395.154C231.783 395.981 231.425 396.704 230.883 397.322C230.347 397.934 229.653 398.411 228.802 398.755C227.957 399.093 226.981 399.262 225.874 399.262ZM239.185 381.098H243.424L247.507 388.808H247.681L251.764 381.098H256.003L249.473 392.671V399H245.715V392.671L239.185 381.098ZM261.254 399.262C259.897 399.262 258.722 398.974 257.732 398.397C256.747 397.814 255.986 397.004 255.45 395.967C254.914 394.924 254.646 393.714 254.646 392.339C254.646 390.952 254.914 389.74 255.45 388.703C255.986 387.66 256.747 386.85 257.732 386.273C258.722 385.69 259.897 385.399 261.254 385.399C262.612 385.399 263.784 385.69 264.768 386.273C265.759 386.85 266.522 387.66 267.059 388.703C267.595 389.74 267.863 390.952 267.863 392.339C267.863 393.714 267.595 394.924 267.059 395.967C266.522 397.004 265.759 397.814 264.768 398.397C263.784 398.974 262.612 399.262 261.254 399.262ZM261.272 396.378C261.89 396.378 262.405 396.203 262.819 395.853C263.233 395.498 263.545 395.014 263.754 394.402C263.97 393.79 264.078 393.094 264.078 392.313C264.078 391.532 263.97 390.836 263.754 390.224C263.545 389.612 263.233 389.128 262.819 388.773C262.405 388.417 261.89 388.24 261.272 388.24C260.648 388.24 260.124 388.417 259.698 388.773C259.279 389.128 258.961 389.612 258.746 390.224C258.536 390.836 258.431 391.532 258.431 392.313C258.431 393.094 258.536 393.79 258.746 394.402C258.961 395.014 259.279 395.498 259.698 395.853C260.124 396.203 260.648 396.378 261.272 396.378ZM278.894 393.283V385.573H282.618V399H279.043V396.561H278.903C278.6 397.348 278.096 397.98 277.391 398.458C276.691 398.936 275.838 399.175 274.83 399.175C273.932 399.175 273.142 398.971 272.461 398.563C271.779 398.155 271.246 397.575 270.861 396.823C270.482 396.072 270.29 395.171 270.284 394.122V385.573H274.008V393.458C274.014 394.251 274.226 394.877 274.646 395.337C275.066 395.798 275.628 396.028 276.333 396.028C276.782 396.028 277.201 395.926 277.592 395.722C277.982 395.512 278.297 395.203 278.536 394.795C278.781 394.388 278.9 393.883 278.894 393.283ZM290.201 392.023V391.636C290.209 390.311 290.326 389.254 290.554 388.466C290.789 387.678 291.13 387.042 291.576 386.557C292.023 386.072 292.561 385.633 293.19 385.239C293.66 384.936 294.08 384.621 294.451 384.295C294.823 383.97 295.118 383.61 295.338 383.216C295.558 382.814 295.667 382.367 295.667 381.875C295.667 381.352 295.542 380.894 295.292 380.5C295.042 380.106 294.705 379.803 294.281 379.591C293.864 379.379 293.402 379.273 292.895 379.273C292.402 379.273 291.936 379.383 291.497 379.602C291.058 379.814 290.698 380.133 290.417 380.557C290.137 380.973 289.986 381.492 289.963 382.114H285.326C285.364 380.598 285.728 379.348 286.417 378.364C287.107 377.371 288.02 376.633 289.156 376.148C290.292 375.655 291.546 375.409 292.917 375.409C294.425 375.409 295.758 375.659 296.917 376.159C298.076 376.652 298.986 377.367 299.645 378.307C300.304 379.246 300.633 380.379 300.633 381.705C300.633 382.591 300.486 383.379 300.19 384.068C299.902 384.75 299.497 385.356 298.974 385.886C298.451 386.409 297.834 386.883 297.122 387.307C296.523 387.663 296.031 388.034 295.645 388.42C295.266 388.807 294.982 389.254 294.792 389.761C294.611 390.269 294.516 390.894 294.508 391.636V392.023H290.201ZM292.451 399.295C291.694 399.295 291.046 399.03 290.508 398.5C289.978 397.962 289.717 397.318 289.724 396.568C289.717 395.826 289.978 395.189 290.508 394.659C291.046 394.129 291.694 393.864 292.451 393.864C293.171 393.864 293.804 394.129 294.349 394.659C294.895 395.189 295.171 395.826 295.179 396.568C295.171 397.068 295.039 397.527 294.781 397.943C294.531 398.352 294.201 398.682 293.792 398.932C293.383 399.174 292.936 399.295 292.451 399.295Z" fill="black"/>
<defs>
<filter id="filter0_d_35_986" x="75" y="523" width="272" height="81" filterUnits="userSpaceOnUse" color-interpolation-filters="sRGB">
<feFlood flood-opacity="0" result="BackgroundImageFix"/>
<feColorMatrix in="SourceAlpha" type="matrix" values="0 0 0 0 0 0 0 0 0 0 0 0 0 0 0 0 0 0 127 0" result="hardAlpha"/>
<feOffset dy="4"/>
<feGaussianBlur stdDeviation="2"/>
<feComposite in2="hardAlpha" operator="out"/>
<feColorMatrix type="matrix" values="0 0 0 0 0 0 0 0 0 0 0 0 0 0 0 0 0 0 0.25 0"/>
<feBlend mode="normal" in2="BackgroundImageFix" result="effect1_dropShadow_35_986"/>
<feBlend mode="normal" in="SourceGraphic" in2="effect1_dropShadow_35_986" result="shape"/>
</filter>
<filter id="filter1_d_35_986" x="75" y="744" width="272" height="81" filterUnits="userSpaceOnUse" color-interpolation-filters="sRGB">
<feFlood flood-opacity="0" result="BackgroundImageFix"/>
<feColorMatrix in="SourceAlpha" type="matrix" values="0 0 0 0 0 0 0 0 0 0 0 0 0 0 0 0 0 0 127 0" result="hardAlpha"/>
<feOffset dy="4"/>
<feGaussianBlur stdDeviation="2"/>
<feComposite in2="hardAlpha" operator="out"/>
<feColorMatrix type="matrix" values="0 0 0 0 0 0 0 0 0 0 0 0 0 0 0 0 0 0 0.25 0"/>
<feBlend mode="normal" in2="BackgroundImageFix" result="effect1_dropShadow_35_986"/>
<feBlend mode="normal" in="SourceGraphic" in2="effect1_dropShadow_35_986" result="shape"/>
</filter>
</defs>
</svg>
