<svg width="1363" height="163" viewBox="0 0 1363 163" fill="none" xmlns="http://www.w3.org/2000/svg">
<path d="M0 15C0 6.71573 6.71573 0 15 0H37V163H15C6.71573 163 0 156.284 0 148V15Z" fill="#146C94"/>
<rect width="1097" height="163" transform="translate(37)" fill="#F0F0F0"/>
<path d="M101.906 53.9219L94.3945 51.2383V48.0859L104.602 52.375V54.6367L101.906 53.9219ZM94.3945 56.1719L101.918 53.4297L104.602 52.7852V55.0352L94.3945 59.3242V56.1719ZM119.578 53.5117H115.195L115.172 51.0977H118.852C119.5 51.0977 120.031 51.0156 120.445 50.8516C120.859 50.6797 121.168 50.4336 121.371 50.1133C121.582 49.7852 121.688 49.3867 121.688 48.918C121.688 48.3867 121.586 47.957 121.383 47.6289C121.188 47.3008 120.879 47.0625 120.457 46.9141C120.043 46.7656 119.508 46.6914 118.852 46.6914H116.414V61H112.898V43.9375H118.852C119.844 43.9375 120.73 44.0312 121.512 44.2188C122.301 44.4062 122.969 44.6914 123.516 45.0742C124.062 45.457 124.48 45.9414 124.77 46.5273C125.059 47.1055 125.203 47.793 125.203 48.5898C125.203 49.293 125.043 49.9414 124.723 50.5352C124.41 51.1289 123.914 51.6133 123.234 51.9883C122.562 52.3633 121.684 52.5703 120.598 52.6094L119.578 53.5117ZM119.426 61H114.234L115.605 58.2578H119.426C120.043 58.2578 120.547 58.1602 120.938 57.9648C121.328 57.7617 121.617 57.4883 121.805 57.1445C121.992 56.8008 122.086 56.4062 122.086 55.9609C122.086 55.4609 122 55.0273 121.828 54.6602C121.664 54.293 121.398 54.0117 121.031 53.8164C120.664 53.6133 120.18 53.5117 119.578 53.5117H116.191L116.215 51.0977H120.434L121.242 52.0469C122.281 52.0312 123.117 52.2148 123.75 52.5977C124.391 52.9727 124.855 53.4609 125.145 54.0625C125.441 54.6641 125.59 55.3086 125.59 55.9961C125.59 57.0898 125.352 58.0117 124.875 58.7617C124.398 59.5039 123.699 60.0625 122.777 60.4375C121.863 60.8125 120.746 61 119.426 61ZM135.516 57.9648V48.3203H138.891V61H135.715L135.516 57.9648ZM135.891 55.3633L136.887 55.3398C136.887 56.1836 136.789 56.9688 136.594 57.6953C136.398 58.4141 136.105 59.0391 135.715 59.5703C135.324 60.0938 134.832 60.5039 134.238 60.8008C133.645 61.0898 132.945 61.2344 132.141 61.2344C131.523 61.2344 130.953 61.1484 130.43 60.9766C129.914 60.7969 129.469 60.5195 129.094 60.1445C128.727 59.7617 128.438 59.2734 128.227 58.6797C128.023 58.0781 127.922 57.3555 127.922 56.5117V48.3203H131.297V56.5352C131.297 56.9102 131.34 57.2266 131.426 57.4844C131.52 57.7422 131.648 57.9531 131.812 58.1172C131.977 58.2812 132.168 58.3984 132.387 58.4688C132.613 58.5391 132.863 58.5742 133.137 58.5742C133.832 58.5742 134.379 58.4336 134.777 58.1523C135.184 57.8711 135.469 57.4883 135.633 57.0039C135.805 56.5117 135.891 55.9648 135.891 55.3633ZM148.324 57.4961C148.324 57.2539 148.254 57.0352 148.113 56.8398C147.973 56.6445 147.711 56.4648 147.328 56.3008C146.953 56.1289 146.41 55.9727 145.699 55.832C145.059 55.6914 144.461 55.5156 143.906 55.3047C143.359 55.0859 142.883 54.8242 142.477 54.5195C142.078 54.2148 141.766 53.8555 141.539 53.4414C141.312 53.0195 141.199 52.5391 141.199 52C141.199 51.4688 141.312 50.9688 141.539 50.5C141.773 50.0312 142.105 49.6172 142.535 49.2578C142.973 48.8906 143.504 48.6055 144.129 48.4023C144.762 48.1914 145.473 48.0859 146.262 48.0859C147.363 48.0859 148.309 48.2617 149.098 48.6133C149.895 48.9648 150.504 49.4492 150.926 50.0664C151.355 50.6758 151.57 51.3711 151.57 52.1523H148.195C148.195 51.8242 148.125 51.5312 147.984 51.2734C147.852 51.0078 147.641 50.8008 147.352 50.6523C147.07 50.4961 146.703 50.418 146.25 50.418C145.875 50.418 145.551 50.4844 145.277 50.6172C145.004 50.7422 144.793 50.9141 144.645 51.1328C144.504 51.3438 144.434 51.5781 144.434 51.8359C144.434 52.0312 144.473 52.207 144.551 52.3633C144.637 52.5117 144.773 52.6484 144.961 52.7734C145.148 52.8984 145.391 53.0156 145.688 53.125C145.992 53.2266 146.367 53.3203 146.812 53.4062C147.727 53.5938 148.543 53.8398 149.262 54.1445C149.98 54.4414 150.551 54.8477 150.973 55.3633C151.395 55.8711 151.605 56.5391 151.605 57.3672C151.605 57.9297 151.48 58.4453 151.23 58.9141C150.98 59.3828 150.621 59.793 150.152 60.1445C149.684 60.4883 149.121 60.7578 148.465 60.9531C147.816 61.1406 147.086 61.2344 146.273 61.2344C145.094 61.2344 144.094 61.0234 143.273 60.6016C142.461 60.1797 141.844 59.6445 141.422 58.9961C141.008 58.3398 140.801 57.668 140.801 56.9805H144C144.016 57.4414 144.133 57.8125 144.352 58.0938C144.578 58.375 144.863 58.5781 145.207 58.7031C145.559 58.8281 145.938 58.8906 146.344 58.8906C146.781 58.8906 147.145 58.832 147.434 58.7148C147.723 58.5898 147.941 58.4258 148.09 58.2227C148.246 58.0117 148.324 57.7695 148.324 57.4961ZM160.652 57.4961C160.652 57.2539 160.582 57.0352 160.441 56.8398C160.301 56.6445 160.039 56.4648 159.656 56.3008C159.281 56.1289 158.738 55.9727 158.027 55.832C157.387 55.6914 156.789 55.5156 156.234 55.3047C155.688 55.0859 155.211 54.8242 154.805 54.5195C154.406 54.2148 154.094 53.8555 153.867 53.4414C153.641 53.0195 153.527 52.5391 153.527 52C153.527 51.4688 153.641 50.9688 153.867 50.5C154.102 50.0312 154.434 49.6172 154.863 49.2578C155.301 48.8906 155.832 48.6055 156.457 48.4023C157.09 48.1914 157.801 48.0859 158.59 48.0859C159.691 48.0859 160.637 48.2617 161.426 48.6133C162.223 48.9648 162.832 49.4492 163.254 50.0664C163.684 50.6758 163.898 51.3711 163.898 52.1523H160.523C160.523 51.8242 160.453 51.5312 160.312 51.2734C160.18 51.0078 159.969 50.8008 159.68 50.6523C159.398 50.4961 159.031 50.418 158.578 50.418C158.203 50.418 157.879 50.4844 157.605 50.6172C157.332 50.7422 157.121 50.9141 156.973 51.1328C156.832 51.3438 156.762 51.5781 156.762 51.8359C156.762 52.0312 156.801 52.207 156.879 52.3633C156.965 52.5117 157.102 52.6484 157.289 52.7734C157.477 52.8984 157.719 53.0156 158.016 53.125C158.32 53.2266 158.695 53.3203 159.141 53.4062C160.055 53.5938 160.871 53.8398 161.59 54.1445C162.309 54.4414 162.879 54.8477 163.301 55.3633C163.723 55.8711 163.934 56.5391 163.934 57.3672C163.934 57.9297 163.809 58.4453 163.559 58.9141C163.309 59.3828 162.949 59.793 162.48 60.1445C162.012 60.4883 161.449 60.7578 160.793 60.9531C160.145 61.1406 159.414 61.2344 158.602 61.2344C157.422 61.2344 156.422 61.0234 155.602 60.6016C154.789 60.1797 154.172 59.6445 153.75 58.9961C153.336 58.3398 153.129 57.668 153.129 56.9805H156.328C156.344 57.4414 156.461 57.8125 156.68 58.0938C156.906 58.375 157.191 58.5781 157.535 58.7031C157.887 58.8281 158.266 58.8906 158.672 58.8906C159.109 58.8906 159.473 58.832 159.762 58.7148C160.051 58.5898 160.27 58.4258 160.418 58.2227C160.574 58.0117 160.652 57.7695 160.652 57.4961ZM173.016 53.5117H168.633L168.609 51.0977H172.289C172.938 51.0977 173.469 51.0156 173.883 50.8516C174.297 50.6797 174.605 50.4336 174.809 50.1133C175.02 49.7852 175.125 49.3867 175.125 48.918C175.125 48.3867 175.023 47.957 174.82 47.6289C174.625 47.3008 174.316 47.0625 173.895 46.9141C173.48 46.7656 172.945 46.6914 172.289 46.6914H169.852V61H166.336V43.9375H172.289C173.281 43.9375 174.168 44.0312 174.949 44.2188C175.738 44.4062 176.406 44.6914 176.953 45.0742C177.5 45.457 177.918 45.9414 178.207 46.5273C178.496 47.1055 178.641 47.793 178.641 48.5898C178.641 49.293 178.48 49.9414 178.16 50.5352C177.848 51.1289 177.352 51.6133 176.672 51.9883C176 52.3633 175.121 52.5703 174.035 52.6094L173.016 53.5117ZM172.863 61H167.672L169.043 58.2578H172.863C173.48 58.2578 173.984 58.1602 174.375 57.9648C174.766 57.7617 175.055 57.4883 175.242 57.1445C175.43 56.8008 175.523 56.4062 175.523 55.9609C175.523 55.4609 175.438 55.0273 175.266 54.6602C175.102 54.293 174.836 54.0117 174.469 53.8164C174.102 53.6133 173.617 53.5117 173.016 53.5117H169.629L169.652 51.0977H173.871L174.68 52.0469C175.719 52.0312 176.555 52.2148 177.188 52.5977C177.828 52.9727 178.293 53.4609 178.582 54.0625C178.879 54.6641 179.027 55.3086 179.027 55.9961C179.027 57.0898 178.789 58.0117 178.312 58.7617C177.836 59.5039 177.137 60.0625 176.215 60.4375C175.301 60.8125 174.184 61 172.863 61ZM180.914 54.7891V54.543C180.914 53.6133 181.047 52.7578 181.312 51.9766C181.578 51.1875 181.965 50.5039 182.473 49.9258C182.98 49.3477 183.605 48.8984 184.348 48.5781C185.09 48.25 185.941 48.0859 186.902 48.0859C187.863 48.0859 188.719 48.25 189.469 48.5781C190.219 48.8984 190.848 49.3477 191.355 49.9258C191.871 50.5039 192.262 51.1875 192.527 51.9766C192.793 52.7578 192.926 53.6133 192.926 54.543V54.7891C192.926 55.7109 192.793 56.5664 192.527 57.3555C192.262 58.1367 191.871 58.8203 191.355 59.4062C190.848 59.9844 190.223 60.4336 189.48 60.7539C188.738 61.0742 187.887 61.2344 186.926 61.2344C185.965 61.2344 185.109 61.0742 184.359 60.7539C183.617 60.4336 182.988 59.9844 182.473 59.4062C181.965 58.8203 181.578 58.1367 181.312 57.3555C181.047 56.5664 180.914 55.7109 180.914 54.7891ZM184.289 54.543V54.7891C184.289 55.3203 184.336 55.8164 184.43 56.2773C184.523 56.7383 184.672 57.1445 184.875 57.4961C185.086 57.8398 185.359 58.1094 185.695 58.3047C186.031 58.5 186.441 58.5977 186.926 58.5977C187.395 58.5977 187.797 58.5 188.133 58.3047C188.469 58.1094 188.738 57.8398 188.941 57.4961C189.145 57.1445 189.293 56.7383 189.387 56.2773C189.488 55.8164 189.539 55.3203 189.539 54.7891V54.543C189.539 54.0273 189.488 53.543 189.387 53.0898C189.293 52.6289 189.141 52.2227 188.93 51.8711C188.727 51.5117 188.457 51.2305 188.121 51.0273C187.785 50.8242 187.379 50.7227 186.902 50.7227C186.426 50.7227 186.02 50.8242 185.684 51.0273C185.355 51.2305 185.086 51.5117 184.875 51.8711C184.672 52.2227 184.523 52.6289 184.43 53.0898C184.336 53.543 184.289 54.0273 184.289 54.543ZM201.855 57.4961C201.855 57.2539 201.785 57.0352 201.645 56.8398C201.504 56.6445 201.242 56.4648 200.859 56.3008C200.484 56.1289 199.941 55.9727 199.23 55.832C198.59 55.6914 197.992 55.5156 197.438 55.3047C196.891 55.0859 196.414 54.8242 196.008 54.5195C195.609 54.2148 195.297 53.8555 195.07 53.4414C194.844 53.0195 194.73 52.5391 194.73 52C194.73 51.4688 194.844 50.9688 195.07 50.5C195.305 50.0312 195.637 49.6172 196.066 49.2578C196.504 48.8906 197.035 48.6055 197.66 48.4023C198.293 48.1914 199.004 48.0859 199.793 48.0859C200.895 48.0859 201.84 48.2617 202.629 48.6133C203.426 48.9648 204.035 49.4492 204.457 50.0664C204.887 50.6758 205.102 51.3711 205.102 52.1523H201.727C201.727 51.8242 201.656 51.5312 201.516 51.2734C201.383 51.0078 201.172 50.8008 200.883 50.6523C200.602 50.4961 200.234 50.418 199.781 50.418C199.406 50.418 199.082 50.4844 198.809 50.6172C198.535 50.7422 198.324 50.9141 198.176 51.1328C198.035 51.3438 197.965 51.5781 197.965 51.8359C197.965 52.0312 198.004 52.207 198.082 52.3633C198.168 52.5117 198.305 52.6484 198.492 52.7734C198.68 52.8984 198.922 53.0156 199.219 53.125C199.523 53.2266 199.898 53.3203 200.344 53.4062C201.258 53.5938 202.074 53.8398 202.793 54.1445C203.512 54.4414 204.082 54.8477 204.504 55.3633C204.926 55.8711 205.137 56.5391 205.137 57.3672C205.137 57.9297 205.012 58.4453 204.762 58.9141C204.512 59.3828 204.152 59.793 203.684 60.1445C203.215 60.4883 202.652 60.7578 201.996 60.9531C201.348 61.1406 200.617 61.2344 199.805 61.2344C198.625 61.2344 197.625 61.0234 196.805 60.6016C195.992 60.1797 195.375 59.6445 194.953 58.9961C194.539 58.3398 194.332 57.668 194.332 56.9805H197.531C197.547 57.4414 197.664 57.8125 197.883 58.0938C198.109 58.375 198.395 58.5781 198.738 58.7031C199.09 58.8281 199.469 58.8906 199.875 58.8906C200.312 58.8906 200.676 58.832 200.965 58.7148C201.254 58.5898 201.473 58.4258 201.621 58.2227C201.777 58.0117 201.855 57.7695 201.855 57.4961ZM214.184 57.4961C214.184 57.2539 214.113 57.0352 213.973 56.8398C213.832 56.6445 213.57 56.4648 213.188 56.3008C212.812 56.1289 212.27 55.9727 211.559 55.832C210.918 55.6914 210.32 55.5156 209.766 55.3047C209.219 55.0859 208.742 54.8242 208.336 54.5195C207.938 54.2148 207.625 53.8555 207.398 53.4414C207.172 53.0195 207.059 52.5391 207.059 52C207.059 51.4688 207.172 50.9688 207.398 50.5C207.633 50.0312 207.965 49.6172 208.395 49.2578C208.832 48.8906 209.363 48.6055 209.988 48.4023C210.621 48.1914 211.332 48.0859 212.121 48.0859C213.223 48.0859 214.168 48.2617 214.957 48.6133C215.754 48.9648 216.363 49.4492 216.785 50.0664C217.215 50.6758 217.43 51.3711 217.43 52.1523H214.055C214.055 51.8242 213.984 51.5312 213.844 51.2734C213.711 51.0078 213.5 50.8008 213.211 50.6523C212.93 50.4961 212.562 50.418 212.109 50.418C211.734 50.418 211.41 50.4844 211.137 50.6172C210.863 50.7422 210.652 50.9141 210.504 51.1328C210.363 51.3438 210.293 51.5781 210.293 51.8359C210.293 52.0312 210.332 52.207 210.41 52.3633C210.496 52.5117 210.633 52.6484 210.82 52.7734C211.008 52.8984 211.25 53.0156 211.547 53.125C211.852 53.2266 212.227 53.3203 212.672 53.4062C213.586 53.5938 214.402 53.8398 215.121 54.1445C215.84 54.4414 216.41 54.8477 216.832 55.3633C217.254 55.8711 217.465 56.5391 217.465 57.3672C217.465 57.9297 217.34 58.4453 217.09 58.9141C216.84 59.3828 216.48 59.793 216.012 60.1445C215.543 60.4883 214.98 60.7578 214.324 60.9531C213.676 61.1406 212.945 61.2344 212.133 61.2344C210.953 61.2344 209.953 61.0234 209.133 60.6016C208.32 60.1797 207.703 59.6445 207.281 58.9961C206.867 58.3398 206.66 57.668 206.66 56.9805H209.859C209.875 57.4414 209.992 57.8125 210.211 58.0938C210.438 58.375 210.723 58.5781 211.066 58.7031C211.418 58.8281 211.797 58.8906 212.203 58.8906C212.641 58.8906 213.004 58.832 213.293 58.7148C213.582 58.5898 213.801 58.4258 213.949 58.2227C214.105 58.0117 214.184 57.7695 214.184 57.4961Z" fill="#888888"/>
<path d="M109.219 107.422H100.734V101.07H109.219C110.375 101.07 111.312 100.875 112.031 100.484C112.75 100.094 113.273 99.5547 113.602 98.8672C113.945 98.1641 114.117 97.375 114.117 96.5C114.117 95.5625 113.945 94.6953 113.602 93.8984C113.273 93.1016 112.75 92.4609 112.031 91.9766C111.312 91.4766 110.375 91.2266 109.219 91.2266H103.828V119H95.6016V84.875H109.219C111.953 84.875 114.305 85.375 116.273 86.375C118.258 87.375 119.781 88.75 120.844 90.5C121.906 92.2344 122.438 94.2188 122.438 96.4531C122.438 98.6562 121.906 100.578 120.844 102.219C119.781 103.859 118.258 105.141 116.273 106.062C114.305 106.969 111.953 107.422 109.219 107.422ZM134.461 99.9219V119H126.562V93.6406H133.945L134.461 99.9219ZM141.961 93.4531L141.82 100.789C141.508 100.758 141.086 100.719 140.555 100.672C140.023 100.625 139.578 100.602 139.219 100.602C138.297 100.602 137.5 100.711 136.828 100.93C136.172 101.133 135.625 101.445 135.188 101.867C134.766 102.273 134.453 102.789 134.25 103.414C134.062 104.039 133.977 104.766 133.992 105.594L132.562 104.656C132.562 102.953 132.727 101.406 133.055 100.016C133.398 98.6094 133.883 97.3984 134.508 96.3828C135.133 95.3516 135.891 94.5625 136.781 94.0156C137.672 93.4531 138.672 93.1719 139.781 93.1719C140.172 93.1719 140.555 93.1953 140.93 93.2422C141.32 93.2891 141.664 93.3594 141.961 93.4531ZM142.852 106.578V106.086C142.852 104.227 143.117 102.516 143.648 100.953C144.18 99.375 144.961 98.0078 145.992 96.8516C147.023 95.6953 148.297 94.7969 149.812 94.1562C151.328 93.5 153.078 93.1719 155.062 93.1719C157.062 93.1719 158.82 93.5 160.336 94.1562C161.867 94.7969 163.148 95.6953 164.18 96.8516C165.211 98.0078 165.992 99.375 166.523 100.953C167.055 102.516 167.32 104.227 167.32 106.086V106.578C167.32 108.422 167.055 110.133 166.523 111.711C165.992 113.273 165.211 114.641 164.18 115.812C163.148 116.969 161.875 117.867 160.359 118.508C158.844 119.148 157.094 119.469 155.109 119.469C153.125 119.469 151.367 119.148 149.836 118.508C148.305 117.867 147.023 116.969 145.992 115.812C144.961 114.641 144.18 113.273 143.648 111.711C143.117 110.133 142.852 108.422 142.852 106.578ZM150.75 106.086V106.578C150.75 107.531 150.82 108.422 150.961 109.25C151.102 110.078 151.336 110.805 151.664 111.43C151.992 112.039 152.438 112.516 153 112.859C153.562 113.203 154.266 113.375 155.109 113.375C155.938 113.375 156.625 113.203 157.172 112.859C157.734 112.516 158.18 112.039 158.508 111.43C158.836 110.805 159.07 110.078 159.211 109.25C159.352 108.422 159.422 107.531 159.422 106.578V106.086C159.422 105.164 159.352 104.297 159.211 103.484C159.07 102.656 158.836 101.93 158.508 101.305C158.18 100.664 157.734 100.164 157.172 99.8047C156.609 99.4453 155.906 99.2656 155.062 99.2656C154.234 99.2656 153.539 99.4453 152.977 99.8047C152.43 100.164 151.992 100.664 151.664 101.305C151.336 101.93 151.102 102.656 150.961 103.484C150.82 104.297 150.75 105.164 150.75 106.086ZM171.422 93.6406H179.344V119.82C179.344 121.852 178.953 123.562 178.172 124.953C177.391 126.359 176.273 127.422 174.82 128.141C173.367 128.875 171.633 129.242 169.617 129.242C168.945 129.242 168.328 129.211 167.766 129.148C167.188 129.102 166.555 129 165.867 128.844V122.867C166.273 122.93 166.648 122.977 166.992 123.008C167.336 123.055 167.711 123.078 168.117 123.078C168.836 123.078 169.438 122.961 169.922 122.727C170.406 122.492 170.773 122.133 171.023 121.648C171.289 121.164 171.422 120.555 171.422 119.82V93.6406ZM170.836 87.1016C170.836 85.9766 171.242 85.0547 172.055 84.3359C172.867 83.6172 173.922 83.2578 175.219 83.2578C176.516 83.2578 177.57 83.6172 178.383 84.3359C179.195 85.0547 179.602 85.9766 179.602 87.1016C179.602 88.2266 179.195 89.1484 178.383 89.8672C177.57 90.5859 176.516 90.9453 175.219 90.9453C173.922 90.9453 172.867 90.5859 172.055 89.8672C171.242 89.1484 170.836 88.2266 170.836 87.1016ZM196.102 119.469C194.039 119.469 192.195 119.148 190.57 118.508C188.945 117.852 187.57 116.953 186.445 115.812C185.336 114.672 184.484 113.359 183.891 111.875C183.312 110.391 183.023 108.82 183.023 107.164V106.273C183.023 104.414 183.281 102.695 183.797 101.117C184.312 99.5234 185.078 98.1328 186.094 96.9453C187.109 95.7578 188.383 94.8359 189.914 94.1797C191.445 93.5078 193.227 93.1719 195.258 93.1719C197.055 93.1719 198.664 93.4609 200.086 94.0391C201.508 94.6172 202.711 95.4453 203.695 96.5234C204.695 97.6016 205.453 98.9062 205.969 100.438C206.5 101.969 206.766 103.688 206.766 105.594V108.805H186.047V103.859H199.055V103.25C199.07 102.406 198.922 101.688 198.609 101.094C198.312 100.5 197.875 100.047 197.297 99.7344C196.719 99.4219 196.016 99.2656 195.188 99.2656C194.328 99.2656 193.617 99.4531 193.055 99.8281C192.508 100.203 192.078 100.719 191.766 101.375C191.469 102.016 191.258 102.758 191.133 103.602C191.008 104.445 190.945 105.336 190.945 106.273V107.164C190.945 108.102 191.07 108.953 191.32 109.719C191.586 110.484 191.961 111.141 192.445 111.688C192.945 112.219 193.539 112.633 194.227 112.93C194.93 113.227 195.727 113.375 196.617 113.375C197.695 113.375 198.758 113.172 199.805 112.766C200.852 112.359 201.75 111.688 202.5 110.75L206.086 115.016C205.57 115.75 204.836 116.461 203.883 117.148C202.945 117.836 201.82 118.398 200.508 118.836C199.195 119.258 197.727 119.469 196.102 119.469ZM220.688 113.375C221.422 113.375 222.047 113.242 222.562 112.977C223.094 112.695 223.492 112.305 223.758 111.805C224.039 111.289 224.172 110.672 224.156 109.953H231.586C231.602 111.859 231.133 113.531 230.18 114.969C229.242 116.391 227.961 117.5 226.336 118.297C224.727 119.078 222.906 119.469 220.875 119.469C218.891 119.469 217.156 119.148 215.672 118.508C214.188 117.852 212.945 116.945 211.945 115.789C210.961 114.617 210.219 113.25 209.719 111.688C209.234 110.125 208.992 108.43 208.992 106.602V106.062C208.992 104.234 209.234 102.539 209.719 100.977C210.219 99.3984 210.961 98.0312 211.945 96.875C212.945 95.7031 214.18 94.7969 215.648 94.1562C217.133 93.5 218.859 93.1719 220.828 93.1719C222.938 93.1719 224.797 93.5703 226.406 94.3672C228.031 95.1641 229.305 96.3203 230.227 97.8359C231.148 99.3516 231.602 101.188 231.586 103.344H224.156C224.172 102.578 224.055 101.891 223.805 101.281C223.555 100.672 223.164 100.188 222.633 99.8281C222.117 99.4531 221.453 99.2656 220.641 99.2656C219.828 99.2656 219.172 99.4453 218.672 99.8047C218.172 100.164 217.789 100.664 217.523 101.305C217.273 101.93 217.102 102.648 217.008 103.461C216.93 104.273 216.891 105.141 216.891 106.062V106.602C216.891 107.539 216.93 108.422 217.008 109.25C217.102 110.062 217.281 110.781 217.547 111.406C217.812 112.016 218.195 112.5 218.695 112.859C219.195 113.203 219.859 113.375 220.688 113.375ZM248.32 93.6406V99.125H233.039V93.6406H248.32ZM236.25 87.3359H244.148V110.727C244.148 111.398 244.227 111.922 244.383 112.297C244.539 112.656 244.805 112.914 245.18 113.07C245.57 113.211 246.086 113.281 246.727 113.281C247.18 113.281 247.555 113.273 247.852 113.258C248.148 113.227 248.43 113.188 248.695 113.141V118.789C248.023 119.008 247.32 119.172 246.586 119.281C245.852 119.406 245.07 119.469 244.242 119.469C242.555 119.469 241.109 119.203 239.906 118.672C238.719 118.141 237.812 117.305 237.188 116.164C236.562 115.023 236.25 113.539 236.25 111.711V87.3359ZM277.406 107.422H268.922V101.07H277.406C278.562 101.07 279.5 100.875 280.219 100.484C280.938 100.094 281.461 99.5547 281.789 98.8672C282.133 98.1641 282.305 97.375 282.305 96.5C282.305 95.5625 282.133 94.6953 281.789 93.8984C281.461 93.1016 280.938 92.4609 280.219 91.9766C279.5 91.4766 278.562 91.2266 277.406 91.2266H272.016V119H263.789V84.875H277.406C280.141 84.875 282.492 85.375 284.461 86.375C286.445 87.375 287.969 88.75 289.031 90.5C290.094 92.2344 290.625 94.2188 290.625 96.4531C290.625 98.6562 290.094 100.578 289.031 102.219C287.969 103.859 286.445 105.141 284.461 106.062C282.492 106.969 280.141 107.422 277.406 107.422ZM302.414 83V119H294.516V83H302.414ZM301.477 105.453L299.625 105.5C299.625 103.719 299.844 102.078 300.281 100.578C300.719 99.0781 301.344 97.7734 302.156 96.6641C302.969 95.5547 303.945 94.6953 305.086 94.0859C306.227 93.4766 307.492 93.1719 308.883 93.1719C310.133 93.1719 311.273 93.3516 312.305 93.7109C313.352 94.0703 314.25 94.6484 315 95.4453C315.766 96.2422 316.352 97.2812 316.758 98.5625C317.18 99.8438 317.391 101.406 317.391 103.25V119H309.445V103.203C309.445 102.172 309.297 101.375 309 100.812C308.719 100.234 308.312 99.8359 307.781 99.6172C307.25 99.3828 306.602 99.2656 305.836 99.2656C304.914 99.2656 304.164 99.4219 303.586 99.7344C303.008 100.047 302.562 100.484 302.25 101.047C301.953 101.594 301.75 102.242 301.641 102.992C301.531 103.742 301.477 104.562 301.477 105.453ZM330.117 93.6406V119H322.195V93.6406H330.117ZM321.727 87.1016C321.727 85.9766 322.133 85.0547 322.945 84.3359C323.758 83.6172 324.812 83.2578 326.109 83.2578C327.406 83.2578 328.461 83.6172 329.273 84.3359C330.086 85.0547 330.492 85.9766 330.492 87.1016C330.492 88.2266 330.086 89.1484 329.273 89.8672C328.461 90.5859 327.406 90.9453 326.109 90.9453C324.812 90.9453 323.758 90.5859 322.945 89.8672C322.133 89.1484 321.727 88.2266 321.727 87.1016ZM343.336 83V119H335.414V83H343.336ZM347.227 106.578V106.086C347.227 104.227 347.492 102.516 348.023 100.953C348.555 99.375 349.336 98.0078 350.367 96.8516C351.398 95.6953 352.672 94.7969 354.188 94.1562C355.703 93.5 357.453 93.1719 359.438 93.1719C361.438 93.1719 363.195 93.5 364.711 94.1562C366.242 94.7969 367.523 95.6953 368.555 96.8516C369.586 98.0078 370.367 99.375 370.898 100.953C371.43 102.516 371.695 104.227 371.695 106.086V106.578C371.695 108.422 371.43 110.133 370.898 111.711C370.367 113.273 369.586 114.641 368.555 115.812C367.523 116.969 366.25 117.867 364.734 118.508C363.219 119.148 361.469 119.469 359.484 119.469C357.5 119.469 355.742 119.148 354.211 118.508C352.68 117.867 351.398 116.969 350.367 115.812C349.336 114.641 348.555 113.273 348.023 111.711C347.492 110.133 347.227 108.422 347.227 106.578ZM355.125 106.086V106.578C355.125 107.531 355.195 108.422 355.336 109.25C355.477 110.078 355.711 110.805 356.039 111.43C356.367 112.039 356.812 112.516 357.375 112.859C357.938 113.203 358.641 113.375 359.484 113.375C360.312 113.375 361 113.203 361.547 112.859C362.109 112.516 362.555 112.039 362.883 111.43C363.211 110.805 363.445 110.078 363.586 109.25C363.727 108.422 363.797 107.531 363.797 106.578V106.086C363.797 105.164 363.727 104.297 363.586 103.484C363.445 102.656 363.211 101.93 362.883 101.305C362.555 100.664 362.109 100.164 361.547 99.8047C360.984 99.4453 360.281 99.2656 359.438 99.2656C358.609 99.2656 357.914 99.4453 357.352 99.8047C356.805 100.164 356.367 100.664 356.039 101.305C355.711 101.93 355.477 102.656 355.336 103.484C355.195 104.297 355.125 105.164 355.125 106.086ZM388.5 111.875C388.5 111.438 388.352 111.062 388.055 110.75C387.773 110.422 387.273 110.125 386.555 109.859C385.836 109.578 384.828 109.297 383.531 109.016C382.297 108.75 381.133 108.398 380.039 107.961C378.961 107.523 378.016 106.992 377.203 106.367C376.391 105.742 375.75 105 375.281 104.141C374.828 103.281 374.602 102.297 374.602 101.188C374.602 100.109 374.828 99.0938 375.281 98.1406C375.75 97.1719 376.43 96.3203 377.32 95.5859C378.227 94.8359 379.328 94.25 380.625 93.8281C381.922 93.3906 383.398 93.1719 385.055 93.1719C387.336 93.1719 389.305 93.5234 390.961 94.2266C392.617 94.9141 393.891 95.8828 394.781 97.1328C395.688 98.3672 396.141 99.7969 396.141 101.422H388.242C388.242 100.781 388.133 100.234 387.914 99.7812C387.711 99.3281 387.375 98.9844 386.906 98.75C386.438 98.5 385.812 98.375 385.031 98.375C384.484 98.375 383.984 98.4766 383.531 98.6797C383.094 98.8828 382.742 99.1641 382.477 99.5234C382.211 99.8828 382.078 100.305 382.078 100.789C382.078 101.133 382.156 101.445 382.312 101.727C382.484 101.992 382.742 102.242 383.086 102.477C383.43 102.695 383.867 102.898 384.398 103.086C384.93 103.258 385.57 103.414 386.32 103.555C388.023 103.867 389.617 104.312 391.102 104.891C392.586 105.469 393.789 106.289 394.711 107.352C395.648 108.414 396.117 109.844 396.117 111.641C396.117 112.766 395.859 113.805 395.344 114.758C394.828 115.695 394.086 116.523 393.117 117.242C392.148 117.945 390.984 118.492 389.625 118.883C388.266 119.273 386.734 119.469 385.031 119.469C382.609 119.469 380.562 119.039 378.891 118.18C377.219 117.305 375.953 116.211 375.094 114.898C374.25 113.57 373.828 112.227 373.828 110.867H381.188C381.219 111.648 381.406 112.289 381.75 112.789C382.109 113.289 382.586 113.656 383.18 113.891C383.773 114.125 384.461 114.242 385.242 114.242C385.961 114.242 386.555 114.141 387.023 113.938C387.508 113.734 387.875 113.461 388.125 113.117C388.375 112.758 388.5 112.344 388.5 111.875ZM398.836 106.578V106.086C398.836 104.227 399.102 102.516 399.633 100.953C400.164 99.375 400.945 98.0078 401.977 96.8516C403.008 95.6953 404.281 94.7969 405.797 94.1562C407.312 93.5 409.062 93.1719 411.047 93.1719C413.047 93.1719 414.805 93.5 416.32 94.1562C417.852 94.7969 419.133 95.6953 420.164 96.8516C421.195 98.0078 421.977 99.375 422.508 100.953C423.039 102.516 423.305 104.227 423.305 106.086V106.578C423.305 108.422 423.039 110.133 422.508 111.711C421.977 113.273 421.195 114.641 420.164 115.812C419.133 116.969 417.859 117.867 416.344 118.508C414.828 119.148 413.078 119.469 411.094 119.469C409.109 119.469 407.352 119.148 405.82 118.508C404.289 117.867 403.008 116.969 401.977 115.812C400.945 114.641 400.164 113.273 399.633 111.711C399.102 110.133 398.836 108.422 398.836 106.578ZM406.734 106.086V106.578C406.734 107.531 406.805 108.422 406.945 109.25C407.086 110.078 407.32 110.805 407.648 111.43C407.977 112.039 408.422 112.516 408.984 112.859C409.547 113.203 410.25 113.375 411.094 113.375C411.922 113.375 412.609 113.203 413.156 112.859C413.719 112.516 414.164 112.039 414.492 111.43C414.82 110.805 415.055 110.078 415.195 109.25C415.336 108.422 415.406 107.531 415.406 106.578V106.086C415.406 105.164 415.336 104.297 415.195 103.484C415.055 102.656 414.82 101.93 414.492 101.305C414.164 100.664 413.719 100.164 413.156 99.8047C412.594 99.4453 411.891 99.2656 411.047 99.2656C410.219 99.2656 409.523 99.4453 408.961 99.8047C408.414 100.164 407.977 100.664 407.648 101.305C407.32 101.93 407.086 102.656 406.945 103.484C406.805 104.297 406.734 105.164 406.734 106.086ZM434.789 98.5156V128.75H426.891V93.6406H434.25L434.789 98.5156ZM450.352 106.016V106.508C450.352 108.352 450.141 110.062 449.719 111.641C449.297 113.219 448.672 114.594 447.844 115.766C447.016 116.938 445.984 117.852 444.75 118.508C443.531 119.148 442.117 119.469 440.508 119.469C438.992 119.469 437.688 119.133 436.594 118.461C435.5 117.789 434.586 116.859 433.852 115.672C433.117 114.484 432.523 113.125 432.07 111.594C431.617 110.062 431.258 108.445 430.992 106.742V106.109C431.258 104.281 431.617 102.586 432.07 101.023C432.523 99.4453 433.117 98.0703 433.852 96.8984C434.586 95.7266 435.492 94.8125 436.57 94.1562C437.664 93.5 438.969 93.1719 440.484 93.1719C442.094 93.1719 443.508 93.4766 444.727 94.0859C445.961 94.6953 446.992 95.5703 447.82 96.7109C448.664 97.8359 449.297 99.1875 449.719 100.766C450.141 102.344 450.352 104.094 450.352 106.016ZM442.453 106.508V106.016C442.453 105.031 442.383 104.133 442.242 103.32C442.102 102.492 441.875 101.773 441.562 101.164C441.266 100.555 440.867 100.086 440.367 99.7578C439.867 99.4297 439.25 99.2656 438.516 99.2656C437.672 99.2656 436.961 99.3984 436.383 99.6641C435.82 99.9141 435.367 100.305 435.023 100.836C434.695 101.352 434.461 102 434.32 102.781C434.195 103.547 434.141 104.445 434.156 105.477V107.398C434.125 108.586 434.242 109.633 434.508 110.539C434.773 111.43 435.234 112.125 435.891 112.625C436.547 113.125 437.438 113.375 438.562 113.375C439.312 113.375 439.938 113.203 440.438 112.859C440.938 112.5 441.336 112.008 441.633 111.383C441.93 110.742 442.141 110.008 442.266 109.18C442.391 108.352 442.453 107.461 442.453 106.508ZM461.602 83V119H453.703V83H461.602ZM460.664 105.453L458.812 105.5C458.812 103.719 459.031 102.078 459.469 100.578C459.906 99.0781 460.531 97.7734 461.344 96.6641C462.156 95.5547 463.133 94.6953 464.273 94.0859C465.414 93.4766 466.68 93.1719 468.07 93.1719C469.32 93.1719 470.461 93.3516 471.492 93.7109C472.539 94.0703 473.438 94.6484 474.188 95.4453C474.953 96.2422 475.539 97.2812 475.945 98.5625C476.367 99.8438 476.578 101.406 476.578 103.25V119H468.633V103.203C468.633 102.172 468.484 101.375 468.188 100.812C467.906 100.234 467.5 99.8359 466.969 99.6172C466.438 99.3828 465.789 99.2656 465.023 99.2656C464.102 99.2656 463.352 99.4219 462.773 99.7344C462.195 100.047 461.75 100.484 461.438 101.047C461.141 101.594 460.938 102.242 460.828 102.992C460.719 103.742 460.664 104.562 460.664 105.453ZM488.742 116.023L495.305 93.6406H503.789L493.594 122.773C493.375 123.414 493.086 124.102 492.727 124.836C492.367 125.586 491.875 126.297 491.25 126.969C490.625 127.641 489.82 128.188 488.836 128.609C487.867 129.031 486.664 129.242 485.227 129.242C484.461 129.242 483.898 129.203 483.539 129.125C483.195 129.062 482.664 128.945 481.945 128.773V123.125C482.148 123.125 482.32 123.125 482.461 123.125C482.617 123.125 482.789 123.125 482.977 123.125C483.82 123.125 484.492 123.039 484.992 122.867C485.508 122.695 485.898 122.445 486.164 122.117C486.445 121.789 486.664 121.391 486.82 120.922L488.742 116.023ZM487.078 93.6406L492.07 111.383L492.938 119.75H487.641L478.617 93.6406H487.078Z" fill="black"/>
<path d="M1134 0H1348C1356.28 0 1363 6.71573 1363 15V148C1363 156.284 1356.28 163 1348 163H1134V0Z" fill="#146C94"/>
<path d="M1234.26 103.786H1262.74V109.357H1234.26V103.786ZM1239.96 114.929H1257.04V120.5H1239.96V114.929ZM1248.5 42.5C1240.95 42.5 1233.71 45.4349 1228.37 50.6592C1223.03 55.8834 1220.03 62.969 1220.03 70.3571C1219.84 74.4057 1220.63 78.4412 1222.34 82.1315C1224.05 85.8219 1226.64 89.0616 1229.88 91.5843C1232.73 94.175 1234.26 95.6514 1234.26 98.2143H1239.96C1239.96 93.0886 1236.8 90.2193 1233.72 87.4614C1231.06 85.4676 1228.94 82.8658 1227.55 79.8838C1226.15 76.9019 1225.53 73.6308 1225.72 70.3571C1225.72 64.4466 1228.12 58.7781 1232.39 54.5988C1236.67 50.4194 1242.46 48.0714 1248.5 48.0714C1254.54 48.0714 1260.33 50.4194 1264.61 54.5988C1268.88 58.7781 1271.28 64.4466 1271.28 70.3571C1271.47 73.6333 1270.84 76.9059 1269.44 79.888C1268.04 82.8701 1265.92 85.4706 1263.25 87.4614C1260.2 90.2471 1257.04 93.0329 1257.04 98.2143H1262.74C1262.74 95.6514 1264.25 94.175 1267.12 91.5564C1270.36 89.0381 1272.94 85.8031 1274.66 82.1176C1276.37 78.4321 1277.16 74.4014 1276.97 70.3571C1276.97 66.6989 1276.24 63.0765 1274.81 59.6967C1273.37 56.3169 1271.28 53.2459 1268.63 50.6592C1265.99 48.0724 1262.85 46.0205 1259.4 44.6205C1255.94 43.2205 1252.24 42.5 1248.5 42.5Z" fill="white"/>
</svg>
