<svg width="1363" height="163" viewBox="0 0 1363 163" fill="none" xmlns="http://www.w3.org/2000/svg">
<path d="M0 15C0 6.71573 6.71573 0 15 0H37V163H15C6.71573 163 0 156.284 0 148V15Z" fill="#146C94"/>
<rect width="1097" height="163" transform="translate(37)" fill="#F0F0F0"/>
<path d="M101.906 53.9219L94.3945 51.2383V48.0859L104.602 52.375V54.6367L101.906 53.9219ZM94.3945 56.1719L101.918 53.4297L104.602 52.7852V55.0352L94.3945 59.3242V56.1719ZM122.789 55.3398H126.293C126.223 56.4883 125.906 57.5078 125.344 58.3984C124.789 59.2891 124.012 59.9844 123.012 60.4844C122.02 60.9844 120.824 61.2344 119.426 61.2344C118.332 61.2344 117.352 61.0469 116.484 60.6719C115.617 60.2891 114.875 59.7422 114.258 59.0312C113.648 58.3203 113.184 57.4609 112.863 56.4531C112.543 55.4453 112.383 54.3164 112.383 53.0664V51.8828C112.383 50.6328 112.547 49.5039 112.875 48.4961C113.211 47.4805 113.688 46.6172 114.305 45.9062C114.93 45.1953 115.676 44.6484 116.543 44.2656C117.41 43.8828 118.379 43.6914 119.449 43.6914C120.871 43.6914 122.07 43.9492 123.047 44.4648C124.031 44.9805 124.793 45.6914 125.332 46.5977C125.879 47.5039 126.207 48.5352 126.316 49.6914H122.801C122.762 49.0039 122.625 48.4219 122.391 47.9453C122.156 47.4609 121.801 47.0977 121.324 46.8555C120.855 46.6055 120.23 46.4805 119.449 46.4805C118.863 46.4805 118.352 46.5898 117.914 46.8086C117.477 47.0273 117.109 47.3594 116.812 47.8047C116.516 48.25 116.293 48.8125 116.145 49.4922C116.004 50.1641 115.934 50.9531 115.934 51.8594V53.0664C115.934 53.9492 116 54.7266 116.133 55.3984C116.266 56.0625 116.469 56.625 116.742 57.0859C117.023 57.5391 117.383 57.8828 117.82 58.1172C118.266 58.3438 118.801 58.457 119.426 58.457C120.16 58.457 120.766 58.3398 121.242 58.1055C121.719 57.8711 122.082 57.5234 122.332 57.0625C122.59 56.6016 122.742 56.0273 122.789 55.3398ZM127.852 54.7891V54.543C127.852 53.6133 127.984 52.7578 128.25 51.9766C128.516 51.1875 128.902 50.5039 129.41 49.9258C129.918 49.3477 130.543 48.8984 131.285 48.5781C132.027 48.25 132.879 48.0859 133.84 48.0859C134.801 48.0859 135.656 48.25 136.406 48.5781C137.156 48.8984 137.785 49.3477 138.293 49.9258C138.809 50.5039 139.199 51.1875 139.465 51.9766C139.73 52.7578 139.863 53.6133 139.863 54.543V54.7891C139.863 55.7109 139.73 56.5664 139.465 57.3555C139.199 58.1367 138.809 58.8203 138.293 59.4062C137.785 59.9844 137.16 60.4336 136.418 60.7539C135.676 61.0742 134.824 61.2344 133.863 61.2344C132.902 61.2344 132.047 61.0742 131.297 60.7539C130.555 60.4336 129.926 59.9844 129.41 59.4062C128.902 58.8203 128.516 58.1367 128.25 57.3555C127.984 56.5664 127.852 55.7109 127.852 54.7891ZM131.227 54.543V54.7891C131.227 55.3203 131.273 55.8164 131.367 56.2773C131.461 56.7383 131.609 57.1445 131.812 57.4961C132.023 57.8398 132.297 58.1094 132.633 58.3047C132.969 58.5 133.379 58.5977 133.863 58.5977C134.332 58.5977 134.734 58.5 135.07 58.3047C135.406 58.1094 135.676 57.8398 135.879 57.4961C136.082 57.1445 136.23 56.7383 136.324 56.2773C136.426 55.8164 136.477 55.3203 136.477 54.7891V54.543C136.477 54.0273 136.426 53.543 136.324 53.0898C136.23 52.6289 136.078 52.2227 135.867 51.8711C135.664 51.5117 135.395 51.2305 135.059 51.0273C134.723 50.8242 134.316 50.7227 133.84 50.7227C133.363 50.7227 132.957 50.8242 132.621 51.0273C132.293 51.2305 132.023 51.5117 131.812 51.8711C131.609 52.2227 131.461 52.6289 131.367 53.0898C131.273 53.543 131.227 54.0273 131.227 54.543ZM146.238 61H142.84V47.1953C142.84 46.2344 143.027 45.4258 143.402 44.7695C143.785 44.1055 144.32 43.6055 145.008 43.2695C145.703 42.9258 146.527 42.7539 147.48 42.7539C147.793 42.7539 148.094 42.7773 148.383 42.8242C148.672 42.8633 148.953 42.9141 149.227 42.9766L149.191 45.5195C149.043 45.4805 148.887 45.4531 148.723 45.4375C148.559 45.4219 148.367 45.4141 148.148 45.4141C147.742 45.4141 147.395 45.4844 147.105 45.625C146.824 45.7578 146.609 45.957 146.461 46.2227C146.312 46.4883 146.238 46.8125 146.238 47.1953V61ZM148.77 48.3203V50.7109H140.953V48.3203H148.77ZM154.84 61H151.441V47.1953C151.441 46.2344 151.629 45.4258 152.004 44.7695C152.387 44.1055 152.922 43.6055 153.609 43.2695C154.305 42.9258 155.129 42.7539 156.082 42.7539C156.395 42.7539 156.695 42.7773 156.984 42.8242C157.273 42.8633 157.555 42.9141 157.828 42.9766L157.793 45.5195C157.645 45.4805 157.488 45.4531 157.324 45.4375C157.16 45.4219 156.969 45.4141 156.75 45.4141C156.344 45.4141 155.996 45.4844 155.707 45.625C155.426 45.7578 155.211 45.957 155.062 46.2227C154.914 46.4883 154.84 46.8125 154.84 47.1953V61ZM157.371 48.3203V50.7109H149.555V48.3203H157.371ZM164.695 61.2344C163.711 61.2344 162.828 61.0781 162.047 60.7656C161.266 60.4453 160.602 60.0039 160.055 59.4414C159.516 58.8789 159.102 58.2266 158.812 57.4844C158.523 56.7344 158.379 55.9375 158.379 55.0938V54.625C158.379 53.6641 158.516 52.7852 158.789 51.9883C159.062 51.1914 159.453 50.5 159.961 49.9141C160.477 49.3281 161.102 48.8789 161.836 48.5664C162.57 48.2461 163.398 48.0859 164.32 48.0859C165.219 48.0859 166.016 48.2344 166.711 48.5312C167.406 48.8281 167.988 49.25 168.457 49.7969C168.934 50.3438 169.293 51 169.535 51.7656C169.777 52.5234 169.898 53.3672 169.898 54.2969V55.7031H159.82V53.4531H166.582V53.1953C166.582 52.7266 166.496 52.3086 166.324 51.9414C166.16 51.5664 165.91 51.2695 165.574 51.0508C165.238 50.832 164.809 50.7227 164.285 50.7227C163.84 50.7227 163.457 50.8203 163.137 51.0156C162.816 51.2109 162.555 51.4844 162.352 51.8359C162.156 52.1875 162.008 52.6016 161.906 53.0781C161.812 53.5469 161.766 54.0625 161.766 54.625V55.0938C161.766 55.6016 161.836 56.0703 161.977 56.5C162.125 56.9297 162.332 57.3008 162.598 57.6133C162.871 57.9258 163.199 58.168 163.582 58.3398C163.973 58.5117 164.414 58.5977 164.906 58.5977C165.516 58.5977 166.082 58.4805 166.605 58.2461C167.137 58.0039 167.594 57.6406 167.977 57.1562L169.617 58.9375C169.352 59.3203 168.988 59.6875 168.527 60.0391C168.074 60.3906 167.527 60.6797 166.887 60.9062C166.246 61.125 165.516 61.2344 164.695 61.2344ZM177.656 61.2344C176.672 61.2344 175.789 61.0781 175.008 60.7656C174.227 60.4453 173.562 60.0039 173.016 59.4414C172.477 58.8789 172.062 58.2266 171.773 57.4844C171.484 56.7344 171.34 55.9375 171.34 55.0938V54.625C171.34 53.6641 171.477 52.7852 171.75 51.9883C172.023 51.1914 172.414 50.5 172.922 49.9141C173.438 49.3281 174.062 48.8789 174.797 48.5664C175.531 48.2461 176.359 48.0859 177.281 48.0859C178.18 48.0859 178.977 48.2344 179.672 48.5312C180.367 48.8281 180.949 49.25 181.418 49.7969C181.895 50.3438 182.254 51 182.496 51.7656C182.738 52.5234 182.859 53.3672 182.859 54.2969V55.7031H172.781V53.4531H179.543V53.1953C179.543 52.7266 179.457 52.3086 179.285 51.9414C179.121 51.5664 178.871 51.2695 178.535 51.0508C178.199 50.832 177.77 50.7227 177.246 50.7227C176.801 50.7227 176.418 50.8203 176.098 51.0156C175.777 51.2109 175.516 51.4844 175.312 51.8359C175.117 52.1875 174.969 52.6016 174.867 53.0781C174.773 53.5469 174.727 54.0625 174.727 54.625V55.0938C174.727 55.6016 174.797 56.0703 174.938 56.5C175.086 56.9297 175.293 57.3008 175.559 57.6133C175.832 57.9258 176.16 58.168 176.543 58.3398C176.934 58.5117 177.375 58.5977 177.867 58.5977C178.477 58.5977 179.043 58.4805 179.566 58.2461C180.098 58.0039 180.555 57.6406 180.938 57.1562L182.578 58.9375C182.312 59.3203 181.949 59.6875 181.488 60.0391C181.035 60.3906 180.488 60.6797 179.848 60.9062C179.207 61.125 178.477 61.2344 177.656 61.2344ZM202.418 58.2578V61H193.336V58.2578H202.418ZM194.484 43.9375V61H190.969V43.9375H194.484ZM201.234 50.8867V53.5586H193.336V50.8867H201.234ZM202.406 43.9375V46.6914H193.336V43.9375H202.406ZM206.977 48.3203L209.074 52.1758L211.23 48.3203H214.828L211.242 54.5195L214.992 61H211.383L209.098 56.9219L206.812 61H203.203L206.953 54.5195L203.367 48.3203H206.977ZM219.844 50.7578V65.875H216.469V48.3203H219.598L219.844 50.7578ZM227.871 54.5195V54.7656C227.871 55.6875 227.762 56.543 227.543 57.332C227.332 58.1211 227.02 58.8086 226.605 59.3945C226.191 59.9727 225.676 60.4258 225.059 60.7539C224.449 61.0742 223.746 61.2344 222.949 61.2344C222.176 61.2344 221.504 61.0781 220.934 60.7656C220.363 60.4531 219.883 60.0156 219.492 59.4531C219.109 58.8828 218.801 58.2227 218.566 57.4727C218.332 56.7227 218.152 55.918 218.027 55.0586V54.4141C218.152 53.4922 218.332 52.6484 218.566 51.8828C218.801 51.1094 219.109 50.4414 219.492 49.8789C219.883 49.3086 220.359 48.8672 220.922 48.5547C221.492 48.2422 222.16 48.0859 222.926 48.0859C223.73 48.0859 224.438 48.2383 225.047 48.543C225.664 48.8477 226.18 49.2852 226.594 49.8555C227.016 50.4258 227.332 51.1055 227.543 51.8945C227.762 52.6836 227.871 53.5586 227.871 54.5195ZM224.484 54.7656V54.5195C224.484 53.9805 224.438 53.4844 224.344 53.0312C224.258 52.5703 224.117 52.168 223.922 51.8242C223.734 51.4805 223.484 51.2148 223.172 51.0273C222.867 50.832 222.496 50.7344 222.059 50.7344C221.598 50.7344 221.203 50.8086 220.875 50.957C220.555 51.1055 220.293 51.3203 220.09 51.6016C219.887 51.8828 219.734 52.2188 219.633 52.6094C219.531 53 219.469 53.4414 219.445 53.9336V55.5625C219.484 56.1406 219.594 56.6602 219.773 57.1211C219.953 57.5742 220.23 57.9336 220.605 58.1992C220.98 58.4648 221.473 58.5977 222.082 58.5977C222.527 58.5977 222.902 58.5 223.207 58.3047C223.512 58.1016 223.758 57.8242 223.945 57.4727C224.141 57.1211 224.277 56.7148 224.355 56.2539C224.441 55.793 224.484 55.2969 224.484 54.7656ZM233.344 51.0859V61H229.969V48.3203H233.145L233.344 51.0859ZM237.164 48.2383L237.105 51.3672C236.941 51.3438 236.742 51.3242 236.508 51.3086C236.281 51.2852 236.074 51.2734 235.887 51.2734C235.41 51.2734 234.996 51.3359 234.645 51.4609C234.301 51.5781 234.012 51.7539 233.777 51.9883C233.551 52.2227 233.379 52.5078 233.262 52.8438C233.152 53.1797 233.09 53.5625 233.074 53.9922L232.395 53.7812C232.395 52.9609 232.477 52.207 232.641 51.5195C232.805 50.8242 233.043 50.2188 233.355 49.7031C233.676 49.1875 234.066 48.7891 234.527 48.5078C234.988 48.2266 235.516 48.0859 236.109 48.0859C236.297 48.0859 236.488 48.1016 236.684 48.1328C236.879 48.1562 237.039 48.1914 237.164 48.2383ZM244.359 61.2344C243.375 61.2344 242.492 61.0781 241.711 60.7656C240.93 60.4453 240.266 60.0039 239.719 59.4414C239.18 58.8789 238.766 58.2266 238.477 57.4844C238.188 56.7344 238.043 55.9375 238.043 55.0938V54.625C238.043 53.6641 238.18 52.7852 238.453 51.9883C238.727 51.1914 239.117 50.5 239.625 49.9141C240.141 49.3281 240.766 48.8789 241.5 48.5664C242.234 48.2461 243.062 48.0859 243.984 48.0859C244.883 48.0859 245.68 48.2344 246.375 48.5312C247.07 48.8281 247.652 49.25 248.121 49.7969C248.598 50.3438 248.957 51 249.199 51.7656C249.441 52.5234 249.562 53.3672 249.562 54.2969V55.7031H239.484V53.4531H246.246V53.1953C246.246 52.7266 246.16 52.3086 245.988 51.9414C245.824 51.5664 245.574 51.2695 245.238 51.0508C244.902 50.832 244.473 50.7227 243.949 50.7227C243.504 50.7227 243.121 50.8203 242.801 51.0156C242.48 51.2109 242.219 51.4844 242.016 51.8359C241.82 52.1875 241.672 52.6016 241.57 53.0781C241.477 53.5469 241.43 54.0625 241.43 54.625V55.0938C241.43 55.6016 241.5 56.0703 241.641 56.5C241.789 56.9297 241.996 57.3008 242.262 57.6133C242.535 57.9258 242.863 58.168 243.246 58.3398C243.637 58.5117 244.078 58.5977 244.57 58.5977C245.18 58.5977 245.746 58.4805 246.27 58.2461C246.801 58.0039 247.258 57.6406 247.641 57.1562L249.281 58.9375C249.016 59.3203 248.652 59.6875 248.191 60.0391C247.738 60.3906 247.191 60.6797 246.551 60.9062C245.91 61.125 245.18 61.2344 244.359 61.2344ZM258.34 57.4961C258.34 57.2539 258.27 57.0352 258.129 56.8398C257.988 56.6445 257.727 56.4648 257.344 56.3008C256.969 56.1289 256.426 55.9727 255.715 55.832C255.074 55.6914 254.477 55.5156 253.922 55.3047C253.375 55.0859 252.898 54.8242 252.492 54.5195C252.094 54.2148 251.781 53.8555 251.555 53.4414C251.328 53.0195 251.215 52.5391 251.215 52C251.215 51.4688 251.328 50.9688 251.555 50.5C251.789 50.0312 252.121 49.6172 252.551 49.2578C252.988 48.8906 253.52 48.6055 254.145 48.4023C254.777 48.1914 255.488 48.0859 256.277 48.0859C257.379 48.0859 258.324 48.2617 259.113 48.6133C259.91 48.9648 260.52 49.4492 260.941 50.0664C261.371 50.6758 261.586 51.3711 261.586 52.1523H258.211C258.211 51.8242 258.141 51.5312 258 51.2734C257.867 51.0078 257.656 50.8008 257.367 50.6523C257.086 50.4961 256.719 50.418 256.266 50.418C255.891 50.418 255.566 50.4844 255.293 50.6172C255.02 50.7422 254.809 50.9141 254.66 51.1328C254.52 51.3438 254.449 51.5781 254.449 51.8359C254.449 52.0312 254.488 52.207 254.566 52.3633C254.652 52.5117 254.789 52.6484 254.977 52.7734C255.164 52.8984 255.406 53.0156 255.703 53.125C256.008 53.2266 256.383 53.3203 256.828 53.4062C257.742 53.5938 258.559 53.8398 259.277 54.1445C259.996 54.4414 260.566 54.8477 260.988 55.3633C261.41 55.8711 261.621 56.5391 261.621 57.3672C261.621 57.9297 261.496 58.4453 261.246 58.9141C260.996 59.3828 260.637 59.793 260.168 60.1445C259.699 60.4883 259.137 60.7578 258.48 60.9531C257.832 61.1406 257.102 61.2344 256.289 61.2344C255.109 61.2344 254.109 61.0234 253.289 60.6016C252.477 60.1797 251.859 59.6445 251.438 58.9961C251.023 58.3398 250.816 57.668 250.816 56.9805H254.016C254.031 57.4414 254.148 57.8125 254.367 58.0938C254.594 58.375 254.879 58.5781 255.223 58.7031C255.574 58.8281 255.953 58.8906 256.359 58.8906C256.797 58.8906 257.16 58.832 257.449 58.7148C257.738 58.5898 257.957 58.4258 258.105 58.2227C258.262 58.0117 258.34 57.7695 258.34 57.4961ZM270.668 57.4961C270.668 57.2539 270.598 57.0352 270.457 56.8398C270.316 56.6445 270.055 56.4648 269.672 56.3008C269.297 56.1289 268.754 55.9727 268.043 55.832C267.402 55.6914 266.805 55.5156 266.25 55.3047C265.703 55.0859 265.227 54.8242 264.82 54.5195C264.422 54.2148 264.109 53.8555 263.883 53.4414C263.656 53.0195 263.543 52.5391 263.543 52C263.543 51.4688 263.656 50.9688 263.883 50.5C264.117 50.0312 264.449 49.6172 264.879 49.2578C265.316 48.8906 265.848 48.6055 266.473 48.4023C267.105 48.1914 267.816 48.0859 268.605 48.0859C269.707 48.0859 270.652 48.2617 271.441 48.6133C272.238 48.9648 272.848 49.4492 273.27 50.0664C273.699 50.6758 273.914 51.3711 273.914 52.1523H270.539C270.539 51.8242 270.469 51.5312 270.328 51.2734C270.195 51.0078 269.984 50.8008 269.695 50.6523C269.414 50.4961 269.047 50.418 268.594 50.418C268.219 50.418 267.895 50.4844 267.621 50.6172C267.348 50.7422 267.137 50.9141 266.988 51.1328C266.848 51.3438 266.777 51.5781 266.777 51.8359C266.777 52.0312 266.816 52.207 266.895 52.3633C266.98 52.5117 267.117 52.6484 267.305 52.7734C267.492 52.8984 267.734 53.0156 268.031 53.125C268.336 53.2266 268.711 53.3203 269.156 53.4062C270.07 53.5938 270.887 53.8398 271.605 54.1445C272.324 54.4414 272.895 54.8477 273.316 55.3633C273.738 55.8711 273.949 56.5391 273.949 57.3672C273.949 57.9297 273.824 58.4453 273.574 58.9141C273.324 59.3828 272.965 59.793 272.496 60.1445C272.027 60.4883 271.465 60.7578 270.809 60.9531C270.16 61.1406 269.43 61.2344 268.617 61.2344C267.438 61.2344 266.438 61.0234 265.617 60.6016C264.805 60.1797 264.188 59.6445 263.766 58.9961C263.352 58.3398 263.145 57.668 263.145 56.9805H266.344C266.359 57.4414 266.477 57.8125 266.695 58.0938C266.922 58.375 267.207 58.5781 267.551 58.7031C267.902 58.8281 268.281 58.8906 268.688 58.8906C269.125 58.8906 269.488 58.832 269.777 58.7148C270.066 58.5898 270.285 58.4258 270.434 58.2227C270.59 58.0117 270.668 57.7695 270.668 57.4961Z" fill="#888888"/>
<path d="M112.125 84.875V119H103.898V84.875H112.125ZM122.391 84.875V91.2266H93.8672V84.875H122.391ZM135.68 119.469C133.617 119.469 131.773 119.148 130.148 118.508C128.523 117.852 127.148 116.953 126.023 115.812C124.914 114.672 124.062 113.359 123.469 111.875C122.891 110.391 122.602 108.82 122.602 107.164V106.273C122.602 104.414 122.859 102.695 123.375 101.117C123.891 99.5234 124.656 98.1328 125.672 96.9453C126.688 95.7578 127.961 94.8359 129.492 94.1797C131.023 93.5078 132.805 93.1719 134.836 93.1719C136.633 93.1719 138.242 93.4609 139.664 94.0391C141.086 94.6172 142.289 95.4453 143.273 96.5234C144.273 97.6016 145.031 98.9062 145.547 100.438C146.078 101.969 146.344 103.688 146.344 105.594V108.805H125.625V103.859H138.633V103.25C138.648 102.406 138.5 101.688 138.188 101.094C137.891 100.5 137.453 100.047 136.875 99.7344C136.297 99.4219 135.594 99.2656 134.766 99.2656C133.906 99.2656 133.195 99.4531 132.633 99.8281C132.086 100.203 131.656 100.719 131.344 101.375C131.047 102.016 130.836 102.758 130.711 103.602C130.586 104.445 130.523 105.336 130.523 106.273V107.164C130.523 108.102 130.648 108.953 130.898 109.719C131.164 110.484 131.539 111.141 132.023 111.688C132.523 112.219 133.117 112.633 133.805 112.93C134.508 113.227 135.305 113.375 136.195 113.375C137.273 113.375 138.336 113.172 139.383 112.766C140.43 112.359 141.328 111.688 142.078 110.75L145.664 115.016C145.148 115.75 144.414 116.461 143.461 117.148C142.523 117.836 141.398 118.398 140.086 118.836C138.773 119.258 137.305 119.469 135.68 119.469ZM160.266 113.375C161 113.375 161.625 113.242 162.141 112.977C162.672 112.695 163.07 112.305 163.336 111.805C163.617 111.289 163.75 110.672 163.734 109.953H171.164C171.18 111.859 170.711 113.531 169.758 114.969C168.82 116.391 167.539 117.5 165.914 118.297C164.305 119.078 162.484 119.469 160.453 119.469C158.469 119.469 156.734 119.148 155.25 118.508C153.766 117.852 152.523 116.945 151.523 115.789C150.539 114.617 149.797 113.25 149.297 111.688C148.812 110.125 148.57 108.43 148.57 106.602V106.062C148.57 104.234 148.812 102.539 149.297 100.977C149.797 99.3984 150.539 98.0312 151.523 96.875C152.523 95.7031 153.758 94.7969 155.227 94.1562C156.711 93.5 158.438 93.1719 160.406 93.1719C162.516 93.1719 164.375 93.5703 165.984 94.3672C167.609 95.1641 168.883 96.3203 169.805 97.8359C170.727 99.3516 171.18 101.188 171.164 103.344H163.734C163.75 102.578 163.633 101.891 163.383 101.281C163.133 100.672 162.742 100.188 162.211 99.8281C161.695 99.4531 161.031 99.2656 160.219 99.2656C159.406 99.2656 158.75 99.4453 158.25 99.8047C157.75 100.164 157.367 100.664 157.102 101.305C156.852 101.93 156.68 102.648 156.586 103.461C156.508 104.273 156.469 105.141 156.469 106.062V106.602C156.469 107.539 156.508 108.422 156.586 109.25C156.68 110.062 156.859 110.781 157.125 111.406C157.391 112.016 157.773 112.5 158.273 112.859C158.773 113.203 159.438 113.375 160.266 113.375ZM182.273 83V119H174.375V83H182.273ZM181.336 105.453L179.484 105.5C179.484 103.719 179.703 102.078 180.141 100.578C180.578 99.0781 181.203 97.7734 182.016 96.6641C182.828 95.5547 183.805 94.6953 184.945 94.0859C186.086 93.4766 187.352 93.1719 188.742 93.1719C189.992 93.1719 191.133 93.3516 192.164 93.7109C193.211 94.0703 194.109 94.6484 194.859 95.4453C195.625 96.2422 196.211 97.2812 196.617 98.5625C197.039 99.8438 197.25 101.406 197.25 103.25V119H189.305V103.203C189.305 102.172 189.156 101.375 188.859 100.812C188.578 100.234 188.172 99.8359 187.641 99.6172C187.109 99.3828 186.461 99.2656 185.695 99.2656C184.773 99.2656 184.023 99.4219 183.445 99.7344C182.867 100.047 182.422 100.484 182.109 101.047C181.812 101.594 181.609 102.242 181.5 102.992C181.391 103.742 181.336 104.562 181.336 105.453ZM231.539 109.93C231.539 109.398 231.461 108.922 231.305 108.5C231.148 108.062 230.859 107.656 230.438 107.281C230.016 106.906 229.406 106.531 228.609 106.156C227.828 105.766 226.797 105.359 225.516 104.938C224.016 104.438 222.57 103.875 221.18 103.25C219.789 102.609 218.547 101.867 217.453 101.023C216.359 100.164 215.492 99.1641 214.852 98.0234C214.211 96.8672 213.891 95.5234 213.891 93.9922C213.891 92.5234 214.219 91.2031 214.875 90.0312C215.531 88.8438 216.445 87.8359 217.617 87.0078C218.805 86.1641 220.195 85.5234 221.789 85.0859C223.383 84.6328 225.125 84.4062 227.016 84.4062C229.516 84.4062 231.719 84.8438 233.625 85.7188C235.547 86.5781 237.047 87.8047 238.125 89.3984C239.219 90.9766 239.766 92.8438 239.766 95H231.586C231.586 94.1406 231.406 93.3828 231.047 92.7266C230.703 92.0703 230.18 91.5547 229.477 91.1797C228.773 90.8047 227.891 90.6172 226.828 90.6172C225.797 90.6172 224.93 90.7734 224.227 91.0859C223.523 91.3984 222.992 91.8203 222.633 92.3516C222.273 92.8672 222.094 93.4375 222.094 94.0625C222.094 94.5781 222.234 95.0469 222.516 95.4688C222.812 95.875 223.227 96.2578 223.758 96.6172C224.305 96.9766 224.961 97.3203 225.727 97.6484C226.508 97.9766 227.383 98.2969 228.352 98.6094C230.164 99.1875 231.773 99.8359 233.18 100.555C234.602 101.258 235.797 102.062 236.766 102.969C237.75 103.859 238.492 104.875 238.992 106.016C239.508 107.156 239.766 108.445 239.766 109.883C239.766 111.414 239.469 112.773 238.875 113.961C238.281 115.148 237.43 116.156 236.32 116.984C235.211 117.797 233.883 118.414 232.336 118.836C230.789 119.258 229.062 119.469 227.156 119.469C225.406 119.469 223.68 119.25 221.977 118.812C220.289 118.359 218.758 117.672 217.383 116.75C216.008 115.812 214.906 114.617 214.078 113.164C213.266 111.695 212.859 109.953 212.859 107.938H221.109C221.109 108.938 221.242 109.781 221.508 110.469C221.773 111.156 222.164 111.711 222.68 112.133C223.195 112.539 223.828 112.836 224.578 113.023C225.328 113.195 226.188 113.281 227.156 113.281C228.203 113.281 229.047 113.133 229.688 112.836C230.328 112.523 230.797 112.117 231.094 111.617C231.391 111.102 231.539 110.539 231.539 109.93ZM256.992 93.6406V99.125H241.711V93.6406H256.992ZM244.922 87.3359H252.82V110.727C252.82 111.398 252.898 111.922 253.055 112.297C253.211 112.656 253.477 112.914 253.852 113.07C254.242 113.211 254.758 113.281 255.398 113.281C255.852 113.281 256.227 113.273 256.523 113.258C256.82 113.227 257.102 113.188 257.367 113.141V118.789C256.695 119.008 255.992 119.172 255.258 119.281C254.523 119.406 253.742 119.469 252.914 119.469C251.227 119.469 249.781 119.203 248.578 118.672C247.391 118.141 246.484 117.305 245.859 116.164C245.234 115.023 244.922 113.539 244.922 111.711V87.3359ZM273.305 112.625V102.172C273.305 101.453 273.203 100.836 273 100.32C272.797 99.8047 272.477 99.4062 272.039 99.125C271.602 98.8281 271.016 98.6797 270.281 98.6797C269.688 98.6797 269.18 98.7812 268.758 98.9844C268.336 99.1875 268.016 99.4922 267.797 99.8984C267.578 100.305 267.469 100.82 267.469 101.445H259.57C259.57 100.273 259.828 99.1875 260.344 98.1875C260.875 97.1719 261.625 96.2891 262.594 95.5391C263.578 94.7891 264.75 94.2109 266.109 93.8047C267.484 93.3828 269.016 93.1719 270.703 93.1719C272.719 93.1719 274.516 93.5078 276.094 94.1797C277.688 94.8516 278.945 95.8594 279.867 97.2031C280.789 98.5312 281.25 100.203 281.25 102.219V112.602C281.25 114.258 281.344 115.516 281.531 116.375C281.719 117.219 281.984 117.961 282.328 118.602V119H274.406C274.031 118.219 273.75 117.266 273.562 116.141C273.391 115 273.305 113.828 273.305 112.625ZM274.266 103.508L274.312 107.727H270.82C270.086 107.727 269.461 107.828 268.945 108.031C268.445 108.234 268.039 108.516 267.727 108.875C267.43 109.219 267.211 109.609 267.07 110.047C266.945 110.484 266.883 110.945 266.883 111.43C266.883 111.898 266.992 112.32 267.211 112.695C267.445 113.055 267.758 113.336 268.148 113.539C268.539 113.742 268.977 113.844 269.461 113.844C270.336 113.844 271.078 113.68 271.688 113.352C272.312 113.008 272.789 112.594 273.117 112.109C273.445 111.625 273.609 111.172 273.609 110.75L275.344 113.984C275.031 114.609 274.672 115.242 274.266 115.883C273.875 116.523 273.383 117.117 272.789 117.664C272.211 118.195 271.5 118.633 270.656 118.977C269.812 119.305 268.789 119.469 267.586 119.469C266.023 119.469 264.586 119.148 263.273 118.508C261.977 117.867 260.938 116.977 260.156 115.836C259.375 114.68 258.984 113.352 258.984 111.852C258.984 110.539 259.219 109.367 259.688 108.336C260.172 107.305 260.898 106.43 261.867 105.711C262.836 104.992 264.07 104.445 265.57 104.07C267.07 103.695 268.836 103.508 270.867 103.508H274.266ZM296.344 113.375C297.078 113.375 297.703 113.242 298.219 112.977C298.75 112.695 299.148 112.305 299.414 111.805C299.695 111.289 299.828 110.672 299.812 109.953H307.242C307.258 111.859 306.789 113.531 305.836 114.969C304.898 116.391 303.617 117.5 301.992 118.297C300.383 119.078 298.562 119.469 296.531 119.469C294.547 119.469 292.812 119.148 291.328 118.508C289.844 117.852 288.602 116.945 287.602 115.789C286.617 114.617 285.875 113.25 285.375 111.688C284.891 110.125 284.648 108.43 284.648 106.602V106.062C284.648 104.234 284.891 102.539 285.375 100.977C285.875 99.3984 286.617 98.0312 287.602 96.875C288.602 95.7031 289.836 94.7969 291.305 94.1562C292.789 93.5 294.516 93.1719 296.484 93.1719C298.594 93.1719 300.453 93.5703 302.062 94.3672C303.688 95.1641 304.961 96.3203 305.883 97.8359C306.805 99.3516 307.258 101.188 307.242 103.344H299.812C299.828 102.578 299.711 101.891 299.461 101.281C299.211 100.672 298.82 100.188 298.289 99.8281C297.773 99.4531 297.109 99.2656 296.297 99.2656C295.484 99.2656 294.828 99.4453 294.328 99.8047C293.828 100.164 293.445 100.664 293.18 101.305C292.93 101.93 292.758 102.648 292.664 103.461C292.586 104.273 292.547 105.141 292.547 106.062V106.602C292.547 107.539 292.586 108.422 292.664 109.25C292.758 110.062 292.938 110.781 293.203 111.406C293.469 112.016 293.852 112.5 294.352 112.859C294.852 113.203 295.516 113.375 296.344 113.375ZM318.586 82.9766V119H310.688V82.9766H318.586ZM334.805 93.6406L323.789 106.555L318.023 112.32L314.578 107.305L319.383 101.047L325.336 93.6406H334.805ZM326.344 119L319.57 107.445L325.406 103.297L335.391 119H326.344Z" fill="black"/>
<path d="M1134 0H1348C1356.28 0 1363 6.71573 1363 15V148C1363 156.284 1356.28 163 1348 163H1134V0Z" fill="#146C94"/>
<path fill-rule="evenodd" clip-rule="evenodd" d="M1218.75 53C1218.62 53 1218.49 53.0527 1218.4 53.1464C1218.3 53.2402 1218.25 53.3674 1218.25 53.5V109.5C1218.25 109.633 1218.3 109.76 1218.4 109.854C1218.49 109.947 1218.62 110 1218.75 110H1278.25C1278.38 110 1278.51 109.947 1278.6 109.854C1278.7 109.76 1278.75 109.633 1278.75 109.5V64C1278.75 63.8674 1278.7 63.7402 1278.6 63.6464C1278.51 63.5527 1278.38 63.5 1278.25 63.5H1248.5C1247.61 63.5 1246.77 63.1045 1246.2 62.4206L1238.34 53H1218.75ZM1214.15 48.9038C1215.37 47.6848 1217.03 47 1218.75 47H1239.75C1240.64 47 1241.48 47.3955 1242.05 48.0794L1249.91 57.5H1278.25C1279.97 57.5 1281.63 58.1848 1282.85 59.4038C1284.07 60.6228 1284.75 62.2761 1284.75 64V109.5C1284.75 111.224 1284.07 112.877 1282.85 114.096C1281.63 115.315 1279.97 116 1278.25 116H1218.75C1217.03 116 1215.37 115.315 1214.15 114.096C1212.93 112.877 1212.25 111.224 1212.25 109.5V53.5C1212.25 51.7761 1212.93 50.1228 1214.15 48.9038Z" fill="white"/>
<path fill-rule="evenodd" clip-rule="evenodd" d="M1243.97 75.5251C1245.34 76.892 1245.34 79.108 1243.97 80.4749L1237.7 86.75L1243.97 93.0251C1245.34 94.392 1245.34 96.608 1243.97 97.9749C1242.61 99.3417 1240.39 99.3417 1239.03 97.9749L1230.28 89.2249C1228.91 87.858 1228.91 85.642 1230.28 84.2751L1239.03 75.5251C1240.39 74.1583 1242.61 74.1583 1243.97 75.5251Z" fill="white"/>
<path fill-rule="evenodd" clip-rule="evenodd" d="M1252.28 97.9749C1250.91 96.608 1250.91 94.392 1252.28 93.0251L1258.55 86.75L1252.28 80.4749C1250.91 79.108 1250.91 76.892 1252.28 75.5251C1253.64 74.1583 1255.86 74.1583 1257.22 75.5251L1265.97 84.2751C1267.34 85.642 1267.34 87.858 1265.97 89.2249L1257.22 97.9749C1255.86 99.3417 1253.64 99.3417 1252.28 97.9749Z" fill="white"/>
</svg>
