<svg width="1363" height="163" viewBox="0 0 1363 163" fill="none" xmlns="http://www.w3.org/2000/svg">
<path d="M0 15C0 6.71573 6.71573 0 15 0H37V163H15C6.71573 163 0 156.284 0 148V15Z" fill="#146C94"/>
<rect width="1097" height="163" transform="translate(37)" fill="#F0F0F0"/>
<path d="M101.906 53.9219L94.3945 51.2383V48.0859L104.602 52.375V54.6367L101.906 53.9219ZM94.3945 56.1719L101.918 53.4297L104.602 52.7852V55.0352L94.3945 59.3242V56.1719ZM122.789 55.3398H126.293C126.223 56.4883 125.906 57.5078 125.344 58.3984C124.789 59.2891 124.012 59.9844 123.012 60.4844C122.02 60.9844 120.824 61.2344 119.426 61.2344C118.332 61.2344 117.352 61.0469 116.484 60.6719C115.617 60.2891 114.875 59.7422 114.258 59.0312C113.648 58.3203 113.184 57.4609 112.863 56.4531C112.543 55.4453 112.383 54.3164 112.383 53.0664V51.8828C112.383 50.6328 112.547 49.5039 112.875 48.4961C113.211 47.4805 113.688 46.6172 114.305 45.9062C114.93 45.1953 115.676 44.6484 116.543 44.2656C117.41 43.8828 118.379 43.6914 119.449 43.6914C120.871 43.6914 122.07 43.9492 123.047 44.4648C124.031 44.9805 124.793 45.6914 125.332 46.5977C125.879 47.5039 126.207 48.5352 126.316 49.6914H122.801C122.762 49.0039 122.625 48.4219 122.391 47.9453C122.156 47.4609 121.801 47.0977 121.324 46.8555C120.855 46.6055 120.23 46.4805 119.449 46.4805C118.863 46.4805 118.352 46.5898 117.914 46.8086C117.477 47.0273 117.109 47.3594 116.812 47.8047C116.516 48.25 116.293 48.8125 116.145 49.4922C116.004 50.1641 115.934 50.9531 115.934 51.8594V53.0664C115.934 53.9492 116 54.7266 116.133 55.3984C116.266 56.0625 116.469 56.625 116.742 57.0859C117.023 57.5391 117.383 57.8828 117.82 58.1172C118.266 58.3438 118.801 58.457 119.426 58.457C120.16 58.457 120.766 58.3398 121.242 58.1055C121.719 57.8711 122.082 57.5234 122.332 57.0625C122.59 56.6016 122.742 56.0273 122.789 55.3398ZM127.852 54.7891V54.543C127.852 53.6133 127.984 52.7578 128.25 51.9766C128.516 51.1875 128.902 50.5039 129.41 49.9258C129.918 49.3477 130.543 48.8984 131.285 48.5781C132.027 48.25 132.879 48.0859 133.84 48.0859C134.801 48.0859 135.656 48.25 136.406 48.5781C137.156 48.8984 137.785 49.3477 138.293 49.9258C138.809 50.5039 139.199 51.1875 139.465 51.9766C139.73 52.7578 139.863 53.6133 139.863 54.543V54.7891C139.863 55.7109 139.73 56.5664 139.465 57.3555C139.199 58.1367 138.809 58.8203 138.293 59.4062C137.785 59.9844 137.16 60.4336 136.418 60.7539C135.676 61.0742 134.824 61.2344 133.863 61.2344C132.902 61.2344 132.047 61.0742 131.297 60.7539C130.555 60.4336 129.926 59.9844 129.41 59.4062C128.902 58.8203 128.516 58.1367 128.25 57.3555C127.984 56.5664 127.852 55.7109 127.852 54.7891ZM131.227 54.543V54.7891C131.227 55.3203 131.273 55.8164 131.367 56.2773C131.461 56.7383 131.609 57.1445 131.812 57.4961C132.023 57.8398 132.297 58.1094 132.633 58.3047C132.969 58.5 133.379 58.5977 133.863 58.5977C134.332 58.5977 134.734 58.5 135.07 58.3047C135.406 58.1094 135.676 57.8398 135.879 57.4961C136.082 57.1445 136.23 56.7383 136.324 56.2773C136.426 55.8164 136.477 55.3203 136.477 54.7891V54.543C136.477 54.0273 136.426 53.543 136.324 53.0898C136.23 52.6289 136.078 52.2227 135.867 51.8711C135.664 51.5117 135.395 51.2305 135.059 51.0273C134.723 50.8242 134.316 50.7227 133.84 50.7227C133.363 50.7227 132.957 50.8242 132.621 51.0273C132.293 51.2305 132.023 51.5117 131.812 51.8711C131.609 52.2227 131.461 52.6289 131.367 53.0898C131.273 53.543 131.227 54.0273 131.227 54.543ZM146.238 61H142.84V47.1953C142.84 46.2344 143.027 45.4258 143.402 44.7695C143.785 44.1055 144.32 43.6055 145.008 43.2695C145.703 42.9258 146.527 42.7539 147.48 42.7539C147.793 42.7539 148.094 42.7773 148.383 42.8242C148.672 42.8633 148.953 42.9141 149.227 42.9766L149.191 45.5195C149.043 45.4805 148.887 45.4531 148.723 45.4375C148.559 45.4219 148.367 45.4141 148.148 45.4141C147.742 45.4141 147.395 45.4844 147.105 45.625C146.824 45.7578 146.609 45.957 146.461 46.2227C146.312 46.4883 146.238 46.8125 146.238 47.1953V61ZM148.77 48.3203V50.7109H140.953V48.3203H148.77ZM154.84 61H151.441V47.1953C151.441 46.2344 151.629 45.4258 152.004 44.7695C152.387 44.1055 152.922 43.6055 153.609 43.2695C154.305 42.9258 155.129 42.7539 156.082 42.7539C156.395 42.7539 156.695 42.7773 156.984 42.8242C157.273 42.8633 157.555 42.9141 157.828 42.9766L157.793 45.5195C157.645 45.4805 157.488 45.4531 157.324 45.4375C157.16 45.4219 156.969 45.4141 156.75 45.4141C156.344 45.4141 155.996 45.4844 155.707 45.625C155.426 45.7578 155.211 45.957 155.062 46.2227C154.914 46.4883 154.84 46.8125 154.84 47.1953V61ZM157.371 48.3203V50.7109H149.555V48.3203H157.371ZM164.695 61.2344C163.711 61.2344 162.828 61.0781 162.047 60.7656C161.266 60.4453 160.602 60.0039 160.055 59.4414C159.516 58.8789 159.102 58.2266 158.812 57.4844C158.523 56.7344 158.379 55.9375 158.379 55.0938V54.625C158.379 53.6641 158.516 52.7852 158.789 51.9883C159.062 51.1914 159.453 50.5 159.961 49.9141C160.477 49.3281 161.102 48.8789 161.836 48.5664C162.57 48.2461 163.398 48.0859 164.32 48.0859C165.219 48.0859 166.016 48.2344 166.711 48.5312C167.406 48.8281 167.988 49.25 168.457 49.7969C168.934 50.3438 169.293 51 169.535 51.7656C169.777 52.5234 169.898 53.3672 169.898 54.2969V55.7031H159.82V53.4531H166.582V53.1953C166.582 52.7266 166.496 52.3086 166.324 51.9414C166.16 51.5664 165.91 51.2695 165.574 51.0508C165.238 50.832 164.809 50.7227 164.285 50.7227C163.84 50.7227 163.457 50.8203 163.137 51.0156C162.816 51.2109 162.555 51.4844 162.352 51.8359C162.156 52.1875 162.008 52.6016 161.906 53.0781C161.812 53.5469 161.766 54.0625 161.766 54.625V55.0938C161.766 55.6016 161.836 56.0703 161.977 56.5C162.125 56.9297 162.332 57.3008 162.598 57.6133C162.871 57.9258 163.199 58.168 163.582 58.3398C163.973 58.5117 164.414 58.5977 164.906 58.5977C165.516 58.5977 166.082 58.4805 166.605 58.2461C167.137 58.0039 167.594 57.6406 167.977 57.1562L169.617 58.9375C169.352 59.3203 168.988 59.6875 168.527 60.0391C168.074 60.3906 167.527 60.6797 166.887 60.9062C166.246 61.125 165.516 61.2344 164.695 61.2344ZM177.656 61.2344C176.672 61.2344 175.789 61.0781 175.008 60.7656C174.227 60.4453 173.562 60.0039 173.016 59.4414C172.477 58.8789 172.062 58.2266 171.773 57.4844C171.484 56.7344 171.34 55.9375 171.34 55.0938V54.625C171.34 53.6641 171.477 52.7852 171.75 51.9883C172.023 51.1914 172.414 50.5 172.922 49.9141C173.438 49.3281 174.062 48.8789 174.797 48.5664C175.531 48.2461 176.359 48.0859 177.281 48.0859C178.18 48.0859 178.977 48.2344 179.672 48.5312C180.367 48.8281 180.949 49.25 181.418 49.7969C181.895 50.3438 182.254 51 182.496 51.7656C182.738 52.5234 182.859 53.3672 182.859 54.2969V55.7031H172.781V53.4531H179.543V53.1953C179.543 52.7266 179.457 52.3086 179.285 51.9414C179.121 51.5664 178.871 51.2695 178.535 51.0508C178.199 50.832 177.77 50.7227 177.246 50.7227C176.801 50.7227 176.418 50.8203 176.098 51.0156C175.777 51.2109 175.516 51.4844 175.312 51.8359C175.117 52.1875 174.969 52.6016 174.867 53.0781C174.773 53.5469 174.727 54.0625 174.727 54.625V55.0938C174.727 55.6016 174.797 56.0703 174.938 56.5C175.086 56.9297 175.293 57.3008 175.559 57.6133C175.832 57.9258 176.16 58.168 176.543 58.3398C176.934 58.5117 177.375 58.5977 177.867 58.5977C178.477 58.5977 179.043 58.4805 179.566 58.2461C180.098 58.0039 180.555 57.6406 180.938 57.1562L182.578 58.9375C182.312 59.3203 181.949 59.6875 181.488 60.0391C181.035 60.3906 180.488 60.6797 179.848 60.9062C179.207 61.125 178.477 61.2344 177.656 61.2344ZM202.418 58.2578V61H193.336V58.2578H202.418ZM194.484 43.9375V61H190.969V43.9375H194.484ZM201.234 50.8867V53.5586H193.336V50.8867H201.234ZM202.406 43.9375V46.6914H193.336V43.9375H202.406ZM206.977 48.3203L209.074 52.1758L211.23 48.3203H214.828L211.242 54.5195L214.992 61H211.383L209.098 56.9219L206.812 61H203.203L206.953 54.5195L203.367 48.3203H206.977ZM219.844 50.7578V65.875H216.469V48.3203H219.598L219.844 50.7578ZM227.871 54.5195V54.7656C227.871 55.6875 227.762 56.543 227.543 57.332C227.332 58.1211 227.02 58.8086 226.605 59.3945C226.191 59.9727 225.676 60.4258 225.059 60.7539C224.449 61.0742 223.746 61.2344 222.949 61.2344C222.176 61.2344 221.504 61.0781 220.934 60.7656C220.363 60.4531 219.883 60.0156 219.492 59.4531C219.109 58.8828 218.801 58.2227 218.566 57.4727C218.332 56.7227 218.152 55.918 218.027 55.0586V54.4141C218.152 53.4922 218.332 52.6484 218.566 51.8828C218.801 51.1094 219.109 50.4414 219.492 49.8789C219.883 49.3086 220.359 48.8672 220.922 48.5547C221.492 48.2422 222.16 48.0859 222.926 48.0859C223.73 48.0859 224.438 48.2383 225.047 48.543C225.664 48.8477 226.18 49.2852 226.594 49.8555C227.016 50.4258 227.332 51.1055 227.543 51.8945C227.762 52.6836 227.871 53.5586 227.871 54.5195ZM224.484 54.7656V54.5195C224.484 53.9805 224.438 53.4844 224.344 53.0312C224.258 52.5703 224.117 52.168 223.922 51.8242C223.734 51.4805 223.484 51.2148 223.172 51.0273C222.867 50.832 222.496 50.7344 222.059 50.7344C221.598 50.7344 221.203 50.8086 220.875 50.957C220.555 51.1055 220.293 51.3203 220.09 51.6016C219.887 51.8828 219.734 52.2188 219.633 52.6094C219.531 53 219.469 53.4414 219.445 53.9336V55.5625C219.484 56.1406 219.594 56.6602 219.773 57.1211C219.953 57.5742 220.23 57.9336 220.605 58.1992C220.98 58.4648 221.473 58.5977 222.082 58.5977C222.527 58.5977 222.902 58.5 223.207 58.3047C223.512 58.1016 223.758 57.8242 223.945 57.4727C224.141 57.1211 224.277 56.7148 224.355 56.2539C224.441 55.793 224.484 55.2969 224.484 54.7656ZM233.344 51.0859V61H229.969V48.3203H233.145L233.344 51.0859ZM237.164 48.2383L237.105 51.3672C236.941 51.3438 236.742 51.3242 236.508 51.3086C236.281 51.2852 236.074 51.2734 235.887 51.2734C235.41 51.2734 234.996 51.3359 234.645 51.4609C234.301 51.5781 234.012 51.7539 233.777 51.9883C233.551 52.2227 233.379 52.5078 233.262 52.8438C233.152 53.1797 233.09 53.5625 233.074 53.9922L232.395 53.7812C232.395 52.9609 232.477 52.207 232.641 51.5195C232.805 50.8242 233.043 50.2188 233.355 49.7031C233.676 49.1875 234.066 48.7891 234.527 48.5078C234.988 48.2266 235.516 48.0859 236.109 48.0859C236.297 48.0859 236.488 48.1016 236.684 48.1328C236.879 48.1562 237.039 48.1914 237.164 48.2383ZM244.359 61.2344C243.375 61.2344 242.492 61.0781 241.711 60.7656C240.93 60.4453 240.266 60.0039 239.719 59.4414C239.18 58.8789 238.766 58.2266 238.477 57.4844C238.188 56.7344 238.043 55.9375 238.043 55.0938V54.625C238.043 53.6641 238.18 52.7852 238.453 51.9883C238.727 51.1914 239.117 50.5 239.625 49.9141C240.141 49.3281 240.766 48.8789 241.5 48.5664C242.234 48.2461 243.062 48.0859 243.984 48.0859C244.883 48.0859 245.68 48.2344 246.375 48.5312C247.07 48.8281 247.652 49.25 248.121 49.7969C248.598 50.3438 248.957 51 249.199 51.7656C249.441 52.5234 249.562 53.3672 249.562 54.2969V55.7031H239.484V53.4531H246.246V53.1953C246.246 52.7266 246.16 52.3086 245.988 51.9414C245.824 51.5664 245.574 51.2695 245.238 51.0508C244.902 50.832 244.473 50.7227 243.949 50.7227C243.504 50.7227 243.121 50.8203 242.801 51.0156C242.48 51.2109 242.219 51.4844 242.016 51.8359C241.82 52.1875 241.672 52.6016 241.57 53.0781C241.477 53.5469 241.43 54.0625 241.43 54.625V55.0938C241.43 55.6016 241.5 56.0703 241.641 56.5C241.789 56.9297 241.996 57.3008 242.262 57.6133C242.535 57.9258 242.863 58.168 243.246 58.3398C243.637 58.5117 244.078 58.5977 244.57 58.5977C245.18 58.5977 245.746 58.4805 246.27 58.2461C246.801 58.0039 247.258 57.6406 247.641 57.1562L249.281 58.9375C249.016 59.3203 248.652 59.6875 248.191 60.0391C247.738 60.3906 247.191 60.6797 246.551 60.9062C245.91 61.125 245.18 61.2344 244.359 61.2344ZM258.34 57.4961C258.34 57.2539 258.27 57.0352 258.129 56.8398C257.988 56.6445 257.727 56.4648 257.344 56.3008C256.969 56.1289 256.426 55.9727 255.715 55.832C255.074 55.6914 254.477 55.5156 253.922 55.3047C253.375 55.0859 252.898 54.8242 252.492 54.5195C252.094 54.2148 251.781 53.8555 251.555 53.4414C251.328 53.0195 251.215 52.5391 251.215 52C251.215 51.4688 251.328 50.9688 251.555 50.5C251.789 50.0312 252.121 49.6172 252.551 49.2578C252.988 48.8906 253.52 48.6055 254.145 48.4023C254.777 48.1914 255.488 48.0859 256.277 48.0859C257.379 48.0859 258.324 48.2617 259.113 48.6133C259.91 48.9648 260.52 49.4492 260.941 50.0664C261.371 50.6758 261.586 51.3711 261.586 52.1523H258.211C258.211 51.8242 258.141 51.5312 258 51.2734C257.867 51.0078 257.656 50.8008 257.367 50.6523C257.086 50.4961 256.719 50.418 256.266 50.418C255.891 50.418 255.566 50.4844 255.293 50.6172C255.02 50.7422 254.809 50.9141 254.66 51.1328C254.52 51.3438 254.449 51.5781 254.449 51.8359C254.449 52.0312 254.488 52.207 254.566 52.3633C254.652 52.5117 254.789 52.6484 254.977 52.7734C255.164 52.8984 255.406 53.0156 255.703 53.125C256.008 53.2266 256.383 53.3203 256.828 53.4062C257.742 53.5938 258.559 53.8398 259.277 54.1445C259.996 54.4414 260.566 54.8477 260.988 55.3633C261.41 55.8711 261.621 56.5391 261.621 57.3672C261.621 57.9297 261.496 58.4453 261.246 58.9141C260.996 59.3828 260.637 59.793 260.168 60.1445C259.699 60.4883 259.137 60.7578 258.48 60.9531C257.832 61.1406 257.102 61.2344 256.289 61.2344C255.109 61.2344 254.109 61.0234 253.289 60.6016C252.477 60.1797 251.859 59.6445 251.438 58.9961C251.023 58.3398 250.816 57.668 250.816 56.9805H254.016C254.031 57.4414 254.148 57.8125 254.367 58.0938C254.594 58.375 254.879 58.5781 255.223 58.7031C255.574 58.8281 255.953 58.8906 256.359 58.8906C256.797 58.8906 257.16 58.832 257.449 58.7148C257.738 58.5898 257.957 58.4258 258.105 58.2227C258.262 58.0117 258.34 57.7695 258.34 57.4961ZM270.668 57.4961C270.668 57.2539 270.598 57.0352 270.457 56.8398C270.316 56.6445 270.055 56.4648 269.672 56.3008C269.297 56.1289 268.754 55.9727 268.043 55.832C267.402 55.6914 266.805 55.5156 266.25 55.3047C265.703 55.0859 265.227 54.8242 264.82 54.5195C264.422 54.2148 264.109 53.8555 263.883 53.4414C263.656 53.0195 263.543 52.5391 263.543 52C263.543 51.4688 263.656 50.9688 263.883 50.5C264.117 50.0312 264.449 49.6172 264.879 49.2578C265.316 48.8906 265.848 48.6055 266.473 48.4023C267.105 48.1914 267.816 48.0859 268.605 48.0859C269.707 48.0859 270.652 48.2617 271.441 48.6133C272.238 48.9648 272.848 49.4492 273.27 50.0664C273.699 50.6758 273.914 51.3711 273.914 52.1523H270.539C270.539 51.8242 270.469 51.5312 270.328 51.2734C270.195 51.0078 269.984 50.8008 269.695 50.6523C269.414 50.4961 269.047 50.418 268.594 50.418C268.219 50.418 267.895 50.4844 267.621 50.6172C267.348 50.7422 267.137 50.9141 266.988 51.1328C266.848 51.3438 266.777 51.5781 266.777 51.8359C266.777 52.0312 266.816 52.207 266.895 52.3633C266.98 52.5117 267.117 52.6484 267.305 52.7734C267.492 52.8984 267.734 53.0156 268.031 53.125C268.336 53.2266 268.711 53.3203 269.156 53.4062C270.07 53.5938 270.887 53.8398 271.605 54.1445C272.324 54.4414 272.895 54.8477 273.316 55.3633C273.738 55.8711 273.949 56.5391 273.949 57.3672C273.949 57.9297 273.824 58.4453 273.574 58.9141C273.324 59.3828 272.965 59.793 272.496 60.1445C272.027 60.4883 271.465 60.7578 270.809 60.9531C270.16 61.1406 269.43 61.2344 268.617 61.2344C267.438 61.2344 266.438 61.0234 265.617 60.6016C264.805 60.1797 264.188 59.6445 263.766 58.9961C263.352 58.3398 263.145 57.668 263.145 56.9805H266.344C266.359 57.4414 266.477 57.8125 266.695 58.0938C266.922 58.375 267.207 58.5781 267.551 58.7031C267.902 58.8281 268.281 58.8906 268.688 58.8906C269.125 58.8906 269.488 58.832 269.777 58.7148C270.066 58.5898 270.285 58.4258 270.434 58.2227C270.59 58.0117 270.668 57.7695 270.668 57.4961Z" fill="#888888"/>
<path d="M109.219 107.422H100.734V101.07H109.219C110.375 101.07 111.312 100.875 112.031 100.484C112.75 100.094 113.273 99.5547 113.602 98.8672C113.945 98.1641 114.117 97.375 114.117 96.5C114.117 95.5625 113.945 94.6953 113.602 93.8984C113.273 93.1016 112.75 92.4609 112.031 91.9766C111.312 91.4766 110.375 91.2266 109.219 91.2266H103.828V119H95.6016V84.875H109.219C111.953 84.875 114.305 85.375 116.273 86.375C118.258 87.375 119.781 88.75 120.844 90.5C121.906 92.2344 122.438 94.2188 122.438 96.4531C122.438 98.6562 121.906 100.578 120.844 102.219C119.781 103.859 118.258 105.141 116.273 106.062C114.305 106.969 111.953 107.422 109.219 107.422ZM134.461 99.9219V119H126.562V93.6406H133.945L134.461 99.9219ZM141.961 93.4531L141.82 100.789C141.508 100.758 141.086 100.719 140.555 100.672C140.023 100.625 139.578 100.602 139.219 100.602C138.297 100.602 137.5 100.711 136.828 100.93C136.172 101.133 135.625 101.445 135.188 101.867C134.766 102.273 134.453 102.789 134.25 103.414C134.062 104.039 133.977 104.766 133.992 105.594L132.562 104.656C132.562 102.953 132.727 101.406 133.055 100.016C133.398 98.6094 133.883 97.3984 134.508 96.3828C135.133 95.3516 135.891 94.5625 136.781 94.0156C137.672 93.4531 138.672 93.1719 139.781 93.1719C140.172 93.1719 140.555 93.1953 140.93 93.2422C141.32 93.2891 141.664 93.3594 141.961 93.4531ZM142.852 106.578V106.086C142.852 104.227 143.117 102.516 143.648 100.953C144.18 99.375 144.961 98.0078 145.992 96.8516C147.023 95.6953 148.297 94.7969 149.812 94.1562C151.328 93.5 153.078 93.1719 155.062 93.1719C157.062 93.1719 158.82 93.5 160.336 94.1562C161.867 94.7969 163.148 95.6953 164.18 96.8516C165.211 98.0078 165.992 99.375 166.523 100.953C167.055 102.516 167.32 104.227 167.32 106.086V106.578C167.32 108.422 167.055 110.133 166.523 111.711C165.992 113.273 165.211 114.641 164.18 115.812C163.148 116.969 161.875 117.867 160.359 118.508C158.844 119.148 157.094 119.469 155.109 119.469C153.125 119.469 151.367 119.148 149.836 118.508C148.305 117.867 147.023 116.969 145.992 115.812C144.961 114.641 144.18 113.273 143.648 111.711C143.117 110.133 142.852 108.422 142.852 106.578ZM150.75 106.086V106.578C150.75 107.531 150.82 108.422 150.961 109.25C151.102 110.078 151.336 110.805 151.664 111.43C151.992 112.039 152.438 112.516 153 112.859C153.562 113.203 154.266 113.375 155.109 113.375C155.938 113.375 156.625 113.203 157.172 112.859C157.734 112.516 158.18 112.039 158.508 111.43C158.836 110.805 159.07 110.078 159.211 109.25C159.352 108.422 159.422 107.531 159.422 106.578V106.086C159.422 105.164 159.352 104.297 159.211 103.484C159.07 102.656 158.836 101.93 158.508 101.305C158.18 100.664 157.734 100.164 157.172 99.8047C156.609 99.4453 155.906 99.2656 155.062 99.2656C154.234 99.2656 153.539 99.4453 152.977 99.8047C152.43 100.164 151.992 100.664 151.664 101.305C151.336 101.93 151.102 102.656 150.961 103.484C150.82 104.297 150.75 105.164 150.75 106.086ZM184.195 93.6406V99.125H168.914V93.6406H184.195ZM172.125 87.3359H180.023V110.727C180.023 111.398 180.102 111.922 180.258 112.297C180.414 112.656 180.68 112.914 181.055 113.07C181.445 113.211 181.961 113.281 182.602 113.281C183.055 113.281 183.43 113.273 183.727 113.258C184.023 113.227 184.305 113.188 184.57 113.141V118.789C183.898 119.008 183.195 119.172 182.461 119.281C181.727 119.406 180.945 119.469 180.117 119.469C178.43 119.469 176.984 119.203 175.781 118.672C174.594 118.141 173.688 117.305 173.062 116.164C172.438 115.023 172.125 113.539 172.125 111.711V87.3359ZM185.648 106.578V106.086C185.648 104.227 185.914 102.516 186.445 100.953C186.977 99.375 187.758 98.0078 188.789 96.8516C189.82 95.6953 191.094 94.7969 192.609 94.1562C194.125 93.5 195.875 93.1719 197.859 93.1719C199.859 93.1719 201.617 93.5 203.133 94.1562C204.664 94.7969 205.945 95.6953 206.977 96.8516C208.008 98.0078 208.789 99.375 209.32 100.953C209.852 102.516 210.117 104.227 210.117 106.086V106.578C210.117 108.422 209.852 110.133 209.32 111.711C208.789 113.273 208.008 114.641 206.977 115.812C205.945 116.969 204.672 117.867 203.156 118.508C201.641 119.148 199.891 119.469 197.906 119.469C195.922 119.469 194.164 119.148 192.633 118.508C191.102 117.867 189.82 116.969 188.789 115.812C187.758 114.641 186.977 113.273 186.445 111.711C185.914 110.133 185.648 108.422 185.648 106.578ZM193.547 106.086V106.578C193.547 107.531 193.617 108.422 193.758 109.25C193.898 110.078 194.133 110.805 194.461 111.43C194.789 112.039 195.234 112.516 195.797 112.859C196.359 113.203 197.062 113.375 197.906 113.375C198.734 113.375 199.422 113.203 199.969 112.859C200.531 112.516 200.977 112.039 201.305 111.43C201.633 110.805 201.867 110.078 202.008 109.25C202.148 108.422 202.219 107.531 202.219 106.578V106.086C202.219 105.164 202.148 104.297 202.008 103.484C201.867 102.656 201.633 101.93 201.305 101.305C200.977 100.664 200.531 100.164 199.969 99.8047C199.406 99.4453 198.703 99.2656 197.859 99.2656C197.031 99.2656 196.336 99.4453 195.773 99.8047C195.227 100.164 194.789 100.664 194.461 101.305C194.133 101.93 193.898 102.656 193.758 103.484C193.617 104.297 193.547 105.164 193.547 106.086ZM226.992 93.6406V99.125H211.711V93.6406H226.992ZM214.922 87.3359H222.82V110.727C222.82 111.398 222.898 111.922 223.055 112.297C223.211 112.656 223.477 112.914 223.852 113.07C224.242 113.211 224.758 113.281 225.398 113.281C225.852 113.281 226.227 113.273 226.523 113.258C226.82 113.227 227.102 113.188 227.367 113.141V118.789C226.695 119.008 225.992 119.172 225.258 119.281C224.523 119.406 223.742 119.469 222.914 119.469C221.227 119.469 219.781 119.203 218.578 118.672C217.391 118.141 216.484 117.305 215.859 116.164C215.234 115.023 214.922 113.539 214.922 111.711V87.3359ZM237.914 116.023L244.477 93.6406H252.961L242.766 122.773C242.547 123.414 242.258 124.102 241.898 124.836C241.539 125.586 241.047 126.297 240.422 126.969C239.797 127.641 238.992 128.188 238.008 128.609C237.039 129.031 235.836 129.242 234.398 129.242C233.633 129.242 233.07 129.203 232.711 129.125C232.367 129.062 231.836 128.945 231.117 128.773V123.125C231.32 123.125 231.492 123.125 231.633 123.125C231.789 123.125 231.961 123.125 232.148 123.125C232.992 123.125 233.664 123.039 234.164 122.867C234.68 122.695 235.07 122.445 235.336 122.117C235.617 121.789 235.836 121.391 235.992 120.922L237.914 116.023ZM236.25 93.6406L241.242 111.383L242.109 119.75H236.812L227.789 93.6406H236.25ZM262.992 98.5156V128.75H255.094V93.6406H262.453L262.992 98.5156ZM278.555 106.016V106.508C278.555 108.352 278.344 110.062 277.922 111.641C277.5 113.219 276.875 114.594 276.047 115.766C275.219 116.938 274.188 117.852 272.953 118.508C271.734 119.148 270.32 119.469 268.711 119.469C267.195 119.469 265.891 119.133 264.797 118.461C263.703 117.789 262.789 116.859 262.055 115.672C261.32 114.484 260.727 113.125 260.273 111.594C259.82 110.062 259.461 108.445 259.195 106.742V106.109C259.461 104.281 259.82 102.586 260.273 101.023C260.727 99.4453 261.32 98.0703 262.055 96.8984C262.789 95.7266 263.695 94.8125 264.773 94.1562C265.867 93.5 267.172 93.1719 268.688 93.1719C270.297 93.1719 271.711 93.4766 272.93 94.0859C274.164 94.6953 275.195 95.5703 276.023 96.7109C276.867 97.8359 277.5 99.1875 277.922 100.766C278.344 102.344 278.555 104.094 278.555 106.016ZM270.656 106.508V106.016C270.656 105.031 270.586 104.133 270.445 103.32C270.305 102.492 270.078 101.773 269.766 101.164C269.469 100.555 269.07 100.086 268.57 99.7578C268.07 99.4297 267.453 99.2656 266.719 99.2656C265.875 99.2656 265.164 99.3984 264.586 99.6641C264.023 99.9141 263.57 100.305 263.227 100.836C262.898 101.352 262.664 102 262.523 102.781C262.398 103.547 262.344 104.445 262.359 105.477V107.398C262.328 108.586 262.445 109.633 262.711 110.539C262.977 111.43 263.438 112.125 264.094 112.625C264.75 113.125 265.641 113.375 266.766 113.375C267.516 113.375 268.141 113.203 268.641 112.859C269.141 112.5 269.539 112.008 269.836 111.383C270.133 110.742 270.344 110.008 270.469 109.18C270.594 108.352 270.656 107.461 270.656 106.508ZM290.414 93.6406V119H282.492V93.6406H290.414ZM282.023 87.1016C282.023 85.9766 282.43 85.0547 283.242 84.3359C284.055 83.6172 285.109 83.2578 286.406 83.2578C287.703 83.2578 288.758 83.6172 289.57 84.3359C290.383 85.0547 290.789 85.9766 290.789 87.1016C290.789 88.2266 290.383 89.1484 289.57 89.8672C288.758 90.5859 287.703 90.9453 286.406 90.9453C285.109 90.9453 284.055 90.5859 283.242 89.8672C282.43 89.1484 282.023 88.2266 282.023 87.1016ZM303.047 99.0547V119H295.148V93.6406H302.555L303.047 99.0547ZM302.109 105.453L300.258 105.5C300.258 103.562 300.492 101.836 300.961 100.32C301.43 98.7891 302.094 97.4922 302.953 96.4297C303.812 95.3672 304.836 94.5625 306.023 94.0156C307.227 93.4531 308.562 93.1719 310.031 93.1719C311.203 93.1719 312.273 93.3438 313.242 93.6875C314.227 94.0312 315.07 94.5859 315.773 95.3516C316.492 96.1172 317.039 97.1328 317.414 98.3984C317.805 99.6484 318 101.195 318 103.039V119H310.055V103.016C310.055 102 309.914 101.227 309.633 100.695C309.352 100.148 308.945 99.7734 308.414 99.5703C307.883 99.3672 307.234 99.2656 306.469 99.2656C305.656 99.2656 304.969 99.4219 304.406 99.7344C303.844 100.047 303.391 100.484 303.047 101.047C302.719 101.594 302.477 102.242 302.32 102.992C302.18 103.742 302.109 104.562 302.109 105.453ZM338.32 93.6406H345.492V118.016C345.492 120.359 344.953 122.344 343.875 123.969C342.797 125.609 341.289 126.852 339.352 127.695C337.43 128.555 335.18 128.984 332.602 128.984C331.461 128.984 330.297 128.836 329.109 128.539C327.922 128.258 326.812 127.836 325.781 127.273C324.75 126.711 323.883 126.016 323.18 125.188L326.484 120.547C327.125 121.266 327.93 121.875 328.898 122.375C329.867 122.891 331.008 123.148 332.32 123.148C333.461 123.148 334.414 122.945 335.18 122.539C335.961 122.133 336.555 121.539 336.961 120.758C337.367 119.992 337.57 119.062 337.57 117.969V99.6406L338.32 93.6406ZM321.469 106.625V106.133C321.469 104.211 321.703 102.461 322.172 100.883C322.656 99.2891 323.344 97.9219 324.234 96.7812C325.141 95.625 326.234 94.7344 327.516 94.1094C328.797 93.4844 330.242 93.1719 331.852 93.1719C333.586 93.1719 335.008 93.5078 336.117 94.1797C337.242 94.8359 338.141 95.7578 338.812 96.9453C339.5 98.1328 340.031 99.5234 340.406 101.117C340.797 102.695 341.125 104.398 341.391 106.227V106.812C341.125 108.531 340.758 110.156 340.289 111.688C339.836 113.203 339.242 114.547 338.508 115.719C337.773 116.891 336.852 117.812 335.742 118.484C334.648 119.141 333.336 119.469 331.805 119.469C330.211 119.469 328.773 119.148 327.492 118.508C326.227 117.867 325.141 116.969 324.234 115.812C323.344 114.656 322.656 113.297 322.172 111.734C321.703 110.172 321.469 108.469 321.469 106.625ZM329.367 106.133V106.625C329.367 107.578 329.453 108.461 329.625 109.273C329.812 110.086 330.094 110.805 330.469 111.43C330.844 112.039 331.305 112.516 331.852 112.859C332.414 113.203 333.07 113.375 333.82 113.375C334.961 113.375 335.883 113.133 336.586 112.648C337.289 112.164 337.797 111.477 338.109 110.586C338.422 109.695 338.555 108.648 338.508 107.445V105.594C338.539 104.562 338.469 103.656 338.297 102.875C338.125 102.078 337.852 101.414 337.477 100.883C337.117 100.352 336.633 99.9531 336.023 99.6875C335.43 99.4062 334.711 99.2656 333.867 99.2656C333.133 99.2656 332.484 99.4375 331.922 99.7812C331.359 100.125 330.891 100.609 330.516 101.234C330.141 101.844 329.852 102.57 329.648 103.414C329.461 104.242 329.367 105.148 329.367 106.133Z" fill="black"/>
<path d="M1134 0H1348C1356.28 0 1363 6.71573 1363 15V148C1363 156.284 1356.28 163 1348 163H1134V0Z" fill="#146C94"/>
<path fill-rule="evenodd" clip-rule="evenodd" d="M1202.75 46.5018C1202.75 45.3973 1203.65 44.5018 1204.75 44.5018H1292.25C1293.35 44.5018 1294.25 45.3973 1294.25 46.5018V116.498C1294.25 117.603 1293.35 118.498 1292.25 118.498H1204.75C1203.65 118.498 1202.75 117.603 1202.75 116.498V46.5018ZM1206.75 48.5018V52.9963H1290.25V48.5018H1206.75ZM1290.25 56.9963H1235.19V114.498H1290.25V56.9963ZM1231.19 114.498V56.9963H1206.75V114.498H1231.19Z" fill="white"/>
<path fill-rule="evenodd" clip-rule="evenodd" d="M1209.72 62.3022C1209.72 61.1976 1210.62 60.3022 1211.72 60.3022H1225.72C1226.83 60.3022 1227.72 61.1976 1227.72 62.3022V81.6974C1227.72 82.802 1226.83 83.6974 1225.72 83.6974H1211.72C1210.62 83.6974 1209.72 82.802 1209.72 81.6974V62.3022ZM1213.72 64.3022V79.6974H1223.72V64.3022H1213.72ZM1239.33 63.1982C1239.33 62.0936 1240.22 61.1982 1241.33 61.1982H1284.25C1285.36 61.1982 1286.25 62.0936 1286.25 63.1982V109.407C1286.25 110.511 1285.36 111.407 1284.25 111.407H1241.33C1240.22 111.407 1239.33 110.511 1239.33 109.407V63.1982ZM1243.33 65.1982V107.407H1282.25V65.1982H1243.33ZM1209.56 93.4381C1209.56 92.3336 1210.46 91.4381 1211.56 91.4381H1220.48C1221.59 91.4381 1222.48 92.3336 1222.48 93.4381C1222.48 94.5427 1221.59 95.4381 1220.48 95.4381H1211.56C1210.46 95.4381 1209.56 94.5427 1209.56 93.4381ZM1209.56 100.438C1209.56 99.3335 1210.46 98.4381 1211.56 98.4381H1226.1C1227.21 98.4381 1228.1 99.3335 1228.1 100.438C1228.1 101.543 1227.21 102.438 1226.1 102.438H1211.56C1210.46 102.438 1209.56 101.543 1209.56 100.438ZM1209.56 107.438C1209.56 106.334 1210.46 105.438 1211.56 105.438H1220.48C1221.59 105.438 1222.48 106.334 1222.48 107.438C1222.48 108.543 1221.59 109.438 1220.48 109.438H1211.56C1210.46 109.438 1209.56 108.543 1209.56 107.438Z" fill="white"/>
</svg>
