<svg width="1363" height="163" viewBox="0 0 1363 163" fill="none" xmlns="http://www.w3.org/2000/svg">
<path d="M0 15C0 6.71573 6.71573 0 15 0H37V163H15C6.71573 163 0 156.284 0 148V15Z" fill="#146C94"/>
<rect width="1097" height="163" transform="translate(37)" fill="#F0F0F0"/>
<path d="M101.906 53.9219L94.3945 51.2383V48.0859L104.602 52.375V54.6367L101.906 53.9219ZM94.3945 56.1719L101.918 53.4297L104.602 52.7852V55.0352L94.3945 59.3242V56.1719ZM119.578 53.5117H115.195L115.172 51.0977H118.852C119.5 51.0977 120.031 51.0156 120.445 50.8516C120.859 50.6797 121.168 50.4336 121.371 50.1133C121.582 49.7852 121.688 49.3867 121.688 48.918C121.688 48.3867 121.586 47.957 121.383 47.6289C121.188 47.3008 120.879 47.0625 120.457 46.9141C120.043 46.7656 119.508 46.6914 118.852 46.6914H116.414V61H112.898V43.9375H118.852C119.844 43.9375 120.73 44.0312 121.512 44.2188C122.301 44.4062 122.969 44.6914 123.516 45.0742C124.062 45.457 124.48 45.9414 124.77 46.5273C125.059 47.1055 125.203 47.793 125.203 48.5898C125.203 49.293 125.043 49.9414 124.723 50.5352C124.41 51.1289 123.914 51.6133 123.234 51.9883C122.562 52.3633 121.684 52.5703 120.598 52.6094L119.578 53.5117ZM119.426 61H114.234L115.605 58.2578H119.426C120.043 58.2578 120.547 58.1602 120.938 57.9648C121.328 57.7617 121.617 57.4883 121.805 57.1445C121.992 56.8008 122.086 56.4062 122.086 55.9609C122.086 55.4609 122 55.0273 121.828 54.6602C121.664 54.293 121.398 54.0117 121.031 53.8164C120.664 53.6133 120.18 53.5117 119.578 53.5117H116.191L116.215 51.0977H120.434L121.242 52.0469C122.281 52.0312 123.117 52.2148 123.75 52.5977C124.391 52.9727 124.855 53.4609 125.145 54.0625C125.441 54.6641 125.59 55.3086 125.59 55.9961C125.59 57.0898 125.352 58.0117 124.875 58.7617C124.398 59.5039 123.699 60.0625 122.777 60.4375C121.863 60.8125 120.746 61 119.426 61ZM135.516 57.9648V48.3203H138.891V61H135.715L135.516 57.9648ZM135.891 55.3633L136.887 55.3398C136.887 56.1836 136.789 56.9688 136.594 57.6953C136.398 58.4141 136.105 59.0391 135.715 59.5703C135.324 60.0938 134.832 60.5039 134.238 60.8008C133.645 61.0898 132.945 61.2344 132.141 61.2344C131.523 61.2344 130.953 61.1484 130.43 60.9766C129.914 60.7969 129.469 60.5195 129.094 60.1445C128.727 59.7617 128.438 59.2734 128.227 58.6797C128.023 58.0781 127.922 57.3555 127.922 56.5117V48.3203H131.297V56.5352C131.297 56.9102 131.34 57.2266 131.426 57.4844C131.52 57.7422 131.648 57.9531 131.812 58.1172C131.977 58.2812 132.168 58.3984 132.387 58.4688C132.613 58.5391 132.863 58.5742 133.137 58.5742C133.832 58.5742 134.379 58.4336 134.777 58.1523C135.184 57.8711 135.469 57.4883 135.633 57.0039C135.805 56.5117 135.891 55.9648 135.891 55.3633ZM148.324 57.4961C148.324 57.2539 148.254 57.0352 148.113 56.8398C147.973 56.6445 147.711 56.4648 147.328 56.3008C146.953 56.1289 146.41 55.9727 145.699 55.832C145.059 55.6914 144.461 55.5156 143.906 55.3047C143.359 55.0859 142.883 54.8242 142.477 54.5195C142.078 54.2148 141.766 53.8555 141.539 53.4414C141.312 53.0195 141.199 52.5391 141.199 52C141.199 51.4688 141.312 50.9688 141.539 50.5C141.773 50.0312 142.105 49.6172 142.535 49.2578C142.973 48.8906 143.504 48.6055 144.129 48.4023C144.762 48.1914 145.473 48.0859 146.262 48.0859C147.363 48.0859 148.309 48.2617 149.098 48.6133C149.895 48.9648 150.504 49.4492 150.926 50.0664C151.355 50.6758 151.57 51.3711 151.57 52.1523H148.195C148.195 51.8242 148.125 51.5312 147.984 51.2734C147.852 51.0078 147.641 50.8008 147.352 50.6523C147.07 50.4961 146.703 50.418 146.25 50.418C145.875 50.418 145.551 50.4844 145.277 50.6172C145.004 50.7422 144.793 50.9141 144.645 51.1328C144.504 51.3438 144.434 51.5781 144.434 51.8359C144.434 52.0312 144.473 52.207 144.551 52.3633C144.637 52.5117 144.773 52.6484 144.961 52.7734C145.148 52.8984 145.391 53.0156 145.688 53.125C145.992 53.2266 146.367 53.3203 146.812 53.4062C147.727 53.5938 148.543 53.8398 149.262 54.1445C149.98 54.4414 150.551 54.8477 150.973 55.3633C151.395 55.8711 151.605 56.5391 151.605 57.3672C151.605 57.9297 151.48 58.4453 151.23 58.9141C150.98 59.3828 150.621 59.793 150.152 60.1445C149.684 60.4883 149.121 60.7578 148.465 60.9531C147.816 61.1406 147.086 61.2344 146.273 61.2344C145.094 61.2344 144.094 61.0234 143.273 60.6016C142.461 60.1797 141.844 59.6445 141.422 58.9961C141.008 58.3398 140.801 57.668 140.801 56.9805H144C144.016 57.4414 144.133 57.8125 144.352 58.0938C144.578 58.375 144.863 58.5781 145.207 58.7031C145.559 58.8281 145.938 58.8906 146.344 58.8906C146.781 58.8906 147.145 58.832 147.434 58.7148C147.723 58.5898 147.941 58.4258 148.09 58.2227C148.246 58.0117 148.324 57.7695 148.324 57.4961ZM160.652 57.4961C160.652 57.2539 160.582 57.0352 160.441 56.8398C160.301 56.6445 160.039 56.4648 159.656 56.3008C159.281 56.1289 158.738 55.9727 158.027 55.832C157.387 55.6914 156.789 55.5156 156.234 55.3047C155.688 55.0859 155.211 54.8242 154.805 54.5195C154.406 54.2148 154.094 53.8555 153.867 53.4414C153.641 53.0195 153.527 52.5391 153.527 52C153.527 51.4688 153.641 50.9688 153.867 50.5C154.102 50.0312 154.434 49.6172 154.863 49.2578C155.301 48.8906 155.832 48.6055 156.457 48.4023C157.09 48.1914 157.801 48.0859 158.59 48.0859C159.691 48.0859 160.637 48.2617 161.426 48.6133C162.223 48.9648 162.832 49.4492 163.254 50.0664C163.684 50.6758 163.898 51.3711 163.898 52.1523H160.523C160.523 51.8242 160.453 51.5312 160.312 51.2734C160.18 51.0078 159.969 50.8008 159.68 50.6523C159.398 50.4961 159.031 50.418 158.578 50.418C158.203 50.418 157.879 50.4844 157.605 50.6172C157.332 50.7422 157.121 50.9141 156.973 51.1328C156.832 51.3438 156.762 51.5781 156.762 51.8359C156.762 52.0312 156.801 52.207 156.879 52.3633C156.965 52.5117 157.102 52.6484 157.289 52.7734C157.477 52.8984 157.719 53.0156 158.016 53.125C158.32 53.2266 158.695 53.3203 159.141 53.4062C160.055 53.5938 160.871 53.8398 161.59 54.1445C162.309 54.4414 162.879 54.8477 163.301 55.3633C163.723 55.8711 163.934 56.5391 163.934 57.3672C163.934 57.9297 163.809 58.4453 163.559 58.9141C163.309 59.3828 162.949 59.793 162.48 60.1445C162.012 60.4883 161.449 60.7578 160.793 60.9531C160.145 61.1406 159.414 61.2344 158.602 61.2344C157.422 61.2344 156.422 61.0234 155.602 60.6016C154.789 60.1797 154.172 59.6445 153.75 58.9961C153.336 58.3398 153.129 57.668 153.129 56.9805H156.328C156.344 57.4414 156.461 57.8125 156.68 58.0938C156.906 58.375 157.191 58.5781 157.535 58.7031C157.887 58.8281 158.266 58.8906 158.672 58.8906C159.109 58.8906 159.473 58.832 159.762 58.7148C160.051 58.5898 160.27 58.4258 160.418 58.2227C160.574 58.0117 160.652 57.7695 160.652 57.4961ZM173.016 53.5117H168.633L168.609 51.0977H172.289C172.938 51.0977 173.469 51.0156 173.883 50.8516C174.297 50.6797 174.605 50.4336 174.809 50.1133C175.02 49.7852 175.125 49.3867 175.125 48.918C175.125 48.3867 175.023 47.957 174.82 47.6289C174.625 47.3008 174.316 47.0625 173.895 46.9141C173.48 46.7656 172.945 46.6914 172.289 46.6914H169.852V61H166.336V43.9375H172.289C173.281 43.9375 174.168 44.0312 174.949 44.2188C175.738 44.4062 176.406 44.6914 176.953 45.0742C177.5 45.457 177.918 45.9414 178.207 46.5273C178.496 47.1055 178.641 47.793 178.641 48.5898C178.641 49.293 178.48 49.9414 178.16 50.5352C177.848 51.1289 177.352 51.6133 176.672 51.9883C176 52.3633 175.121 52.5703 174.035 52.6094L173.016 53.5117ZM172.863 61H167.672L169.043 58.2578H172.863C173.48 58.2578 173.984 58.1602 174.375 57.9648C174.766 57.7617 175.055 57.4883 175.242 57.1445C175.43 56.8008 175.523 56.4062 175.523 55.9609C175.523 55.4609 175.438 55.0273 175.266 54.6602C175.102 54.293 174.836 54.0117 174.469 53.8164C174.102 53.6133 173.617 53.5117 173.016 53.5117H169.629L169.652 51.0977H173.871L174.68 52.0469C175.719 52.0312 176.555 52.2148 177.188 52.5977C177.828 52.9727 178.293 53.4609 178.582 54.0625C178.879 54.6641 179.027 55.3086 179.027 55.9961C179.027 57.0898 178.789 58.0117 178.312 58.7617C177.836 59.5039 177.137 60.0625 176.215 60.4375C175.301 60.8125 174.184 61 172.863 61ZM180.914 54.7891V54.543C180.914 53.6133 181.047 52.7578 181.312 51.9766C181.578 51.1875 181.965 50.5039 182.473 49.9258C182.98 49.3477 183.605 48.8984 184.348 48.5781C185.09 48.25 185.941 48.0859 186.902 48.0859C187.863 48.0859 188.719 48.25 189.469 48.5781C190.219 48.8984 190.848 49.3477 191.355 49.9258C191.871 50.5039 192.262 51.1875 192.527 51.9766C192.793 52.7578 192.926 53.6133 192.926 54.543V54.7891C192.926 55.7109 192.793 56.5664 192.527 57.3555C192.262 58.1367 191.871 58.8203 191.355 59.4062C190.848 59.9844 190.223 60.4336 189.48 60.7539C188.738 61.0742 187.887 61.2344 186.926 61.2344C185.965 61.2344 185.109 61.0742 184.359 60.7539C183.617 60.4336 182.988 59.9844 182.473 59.4062C181.965 58.8203 181.578 58.1367 181.312 57.3555C181.047 56.5664 180.914 55.7109 180.914 54.7891ZM184.289 54.543V54.7891C184.289 55.3203 184.336 55.8164 184.43 56.2773C184.523 56.7383 184.672 57.1445 184.875 57.4961C185.086 57.8398 185.359 58.1094 185.695 58.3047C186.031 58.5 186.441 58.5977 186.926 58.5977C187.395 58.5977 187.797 58.5 188.133 58.3047C188.469 58.1094 188.738 57.8398 188.941 57.4961C189.145 57.1445 189.293 56.7383 189.387 56.2773C189.488 55.8164 189.539 55.3203 189.539 54.7891V54.543C189.539 54.0273 189.488 53.543 189.387 53.0898C189.293 52.6289 189.141 52.2227 188.93 51.8711C188.727 51.5117 188.457 51.2305 188.121 51.0273C187.785 50.8242 187.379 50.7227 186.902 50.7227C186.426 50.7227 186.02 50.8242 185.684 51.0273C185.355 51.2305 185.086 51.5117 184.875 51.8711C184.672 52.2227 184.523 52.6289 184.43 53.0898C184.336 53.543 184.289 54.0273 184.289 54.543ZM201.855 57.4961C201.855 57.2539 201.785 57.0352 201.645 56.8398C201.504 56.6445 201.242 56.4648 200.859 56.3008C200.484 56.1289 199.941 55.9727 199.23 55.832C198.59 55.6914 197.992 55.5156 197.438 55.3047C196.891 55.0859 196.414 54.8242 196.008 54.5195C195.609 54.2148 195.297 53.8555 195.07 53.4414C194.844 53.0195 194.73 52.5391 194.73 52C194.73 51.4688 194.844 50.9688 195.07 50.5C195.305 50.0312 195.637 49.6172 196.066 49.2578C196.504 48.8906 197.035 48.6055 197.66 48.4023C198.293 48.1914 199.004 48.0859 199.793 48.0859C200.895 48.0859 201.84 48.2617 202.629 48.6133C203.426 48.9648 204.035 49.4492 204.457 50.0664C204.887 50.6758 205.102 51.3711 205.102 52.1523H201.727C201.727 51.8242 201.656 51.5312 201.516 51.2734C201.383 51.0078 201.172 50.8008 200.883 50.6523C200.602 50.4961 200.234 50.418 199.781 50.418C199.406 50.418 199.082 50.4844 198.809 50.6172C198.535 50.7422 198.324 50.9141 198.176 51.1328C198.035 51.3438 197.965 51.5781 197.965 51.8359C197.965 52.0312 198.004 52.207 198.082 52.3633C198.168 52.5117 198.305 52.6484 198.492 52.7734C198.68 52.8984 198.922 53.0156 199.219 53.125C199.523 53.2266 199.898 53.3203 200.344 53.4062C201.258 53.5938 202.074 53.8398 202.793 54.1445C203.512 54.4414 204.082 54.8477 204.504 55.3633C204.926 55.8711 205.137 56.5391 205.137 57.3672C205.137 57.9297 205.012 58.4453 204.762 58.9141C204.512 59.3828 204.152 59.793 203.684 60.1445C203.215 60.4883 202.652 60.7578 201.996 60.9531C201.348 61.1406 200.617 61.2344 199.805 61.2344C198.625 61.2344 197.625 61.0234 196.805 60.6016C195.992 60.1797 195.375 59.6445 194.953 58.9961C194.539 58.3398 194.332 57.668 194.332 56.9805H197.531C197.547 57.4414 197.664 57.8125 197.883 58.0938C198.109 58.375 198.395 58.5781 198.738 58.7031C199.09 58.8281 199.469 58.8906 199.875 58.8906C200.312 58.8906 200.676 58.832 200.965 58.7148C201.254 58.5898 201.473 58.4258 201.621 58.2227C201.777 58.0117 201.855 57.7695 201.855 57.4961ZM214.184 57.4961C214.184 57.2539 214.113 57.0352 213.973 56.8398C213.832 56.6445 213.57 56.4648 213.188 56.3008C212.812 56.1289 212.27 55.9727 211.559 55.832C210.918 55.6914 210.32 55.5156 209.766 55.3047C209.219 55.0859 208.742 54.8242 208.336 54.5195C207.938 54.2148 207.625 53.8555 207.398 53.4414C207.172 53.0195 207.059 52.5391 207.059 52C207.059 51.4688 207.172 50.9688 207.398 50.5C207.633 50.0312 207.965 49.6172 208.395 49.2578C208.832 48.8906 209.363 48.6055 209.988 48.4023C210.621 48.1914 211.332 48.0859 212.121 48.0859C213.223 48.0859 214.168 48.2617 214.957 48.6133C215.754 48.9648 216.363 49.4492 216.785 50.0664C217.215 50.6758 217.43 51.3711 217.43 52.1523H214.055C214.055 51.8242 213.984 51.5312 213.844 51.2734C213.711 51.0078 213.5 50.8008 213.211 50.6523C212.93 50.4961 212.562 50.418 212.109 50.418C211.734 50.418 211.41 50.4844 211.137 50.6172C210.863 50.7422 210.652 50.9141 210.504 51.1328C210.363 51.3438 210.293 51.5781 210.293 51.8359C210.293 52.0312 210.332 52.207 210.41 52.3633C210.496 52.5117 210.633 52.6484 210.82 52.7734C211.008 52.8984 211.25 53.0156 211.547 53.125C211.852 53.2266 212.227 53.3203 212.672 53.4062C213.586 53.5938 214.402 53.8398 215.121 54.1445C215.84 54.4414 216.41 54.8477 216.832 55.3633C217.254 55.8711 217.465 56.5391 217.465 57.3672C217.465 57.9297 217.34 58.4453 217.09 58.9141C216.84 59.3828 216.48 59.793 216.012 60.1445C215.543 60.4883 214.98 60.7578 214.324 60.9531C213.676 61.1406 212.945 61.2344 212.133 61.2344C210.953 61.2344 209.953 61.0234 209.133 60.6016C208.32 60.1797 207.703 59.6445 207.281 58.9961C206.867 58.3398 206.66 57.668 206.66 56.9805H209.859C209.875 57.4414 209.992 57.8125 210.211 58.0938C210.438 58.375 210.723 58.5781 211.066 58.7031C211.418 58.8281 211.797 58.8906 212.203 58.8906C212.641 58.8906 213.004 58.832 213.293 58.7148C213.582 58.5898 213.801 58.4258 213.949 58.2227C214.105 58.0117 214.184 57.7695 214.184 57.4961Z" fill="#888888"/>
<path d="M112.125 84.875V119H103.898V84.875H112.125ZM122.391 84.875V91.2266H93.8672V84.875H122.391ZM135.68 119.469C133.617 119.469 131.773 119.148 130.148 118.508C128.523 117.852 127.148 116.953 126.023 115.812C124.914 114.672 124.062 113.359 123.469 111.875C122.891 110.391 122.602 108.82 122.602 107.164V106.273C122.602 104.414 122.859 102.695 123.375 101.117C123.891 99.5234 124.656 98.1328 125.672 96.9453C126.688 95.7578 127.961 94.8359 129.492 94.1797C131.023 93.5078 132.805 93.1719 134.836 93.1719C136.633 93.1719 138.242 93.4609 139.664 94.0391C141.086 94.6172 142.289 95.4453 143.273 96.5234C144.273 97.6016 145.031 98.9062 145.547 100.438C146.078 101.969 146.344 103.688 146.344 105.594V108.805H125.625V103.859H138.633V103.25C138.648 102.406 138.5 101.688 138.188 101.094C137.891 100.5 137.453 100.047 136.875 99.7344C136.297 99.4219 135.594 99.2656 134.766 99.2656C133.906 99.2656 133.195 99.4531 132.633 99.8281C132.086 100.203 131.656 100.719 131.344 101.375C131.047 102.016 130.836 102.758 130.711 103.602C130.586 104.445 130.523 105.336 130.523 106.273V107.164C130.523 108.102 130.648 108.953 130.898 109.719C131.164 110.484 131.539 111.141 132.023 111.688C132.523 112.219 133.117 112.633 133.805 112.93C134.508 113.227 135.305 113.375 136.195 113.375C137.273 113.375 138.336 113.172 139.383 112.766C140.43 112.359 141.328 111.688 142.078 110.75L145.664 115.016C145.148 115.75 144.414 116.461 143.461 117.148C142.523 117.836 141.398 118.398 140.086 118.836C138.773 119.258 137.305 119.469 135.68 119.469ZM160.266 113.375C161 113.375 161.625 113.242 162.141 112.977C162.672 112.695 163.07 112.305 163.336 111.805C163.617 111.289 163.75 110.672 163.734 109.953H171.164C171.18 111.859 170.711 113.531 169.758 114.969C168.82 116.391 167.539 117.5 165.914 118.297C164.305 119.078 162.484 119.469 160.453 119.469C158.469 119.469 156.734 119.148 155.25 118.508C153.766 117.852 152.523 116.945 151.523 115.789C150.539 114.617 149.797 113.25 149.297 111.688C148.812 110.125 148.57 108.43 148.57 106.602V106.062C148.57 104.234 148.812 102.539 149.297 100.977C149.797 99.3984 150.539 98.0312 151.523 96.875C152.523 95.7031 153.758 94.7969 155.227 94.1562C156.711 93.5 158.438 93.1719 160.406 93.1719C162.516 93.1719 164.375 93.5703 165.984 94.3672C167.609 95.1641 168.883 96.3203 169.805 97.8359C170.727 99.3516 171.18 101.188 171.164 103.344H163.734C163.75 102.578 163.633 101.891 163.383 101.281C163.133 100.672 162.742 100.188 162.211 99.8281C161.695 99.4531 161.031 99.2656 160.219 99.2656C159.406 99.2656 158.75 99.4453 158.25 99.8047C157.75 100.164 157.367 100.664 157.102 101.305C156.852 101.93 156.68 102.648 156.586 103.461C156.508 104.273 156.469 105.141 156.469 106.062V106.602C156.469 107.539 156.508 108.422 156.586 109.25C156.68 110.062 156.859 110.781 157.125 111.406C157.391 112.016 157.773 112.5 158.273 112.859C158.773 113.203 159.438 113.375 160.266 113.375ZM182.273 83V119H174.375V83H182.273ZM181.336 105.453L179.484 105.5C179.484 103.719 179.703 102.078 180.141 100.578C180.578 99.0781 181.203 97.7734 182.016 96.6641C182.828 95.5547 183.805 94.6953 184.945 94.0859C186.086 93.4766 187.352 93.1719 188.742 93.1719C189.992 93.1719 191.133 93.3516 192.164 93.7109C193.211 94.0703 194.109 94.6484 194.859 95.4453C195.625 96.2422 196.211 97.2812 196.617 98.5625C197.039 99.8438 197.25 101.406 197.25 103.25V119H189.305V103.203C189.305 102.172 189.156 101.375 188.859 100.812C188.578 100.234 188.172 99.8359 187.641 99.6172C187.109 99.3828 186.461 99.2656 185.695 99.2656C184.773 99.2656 184.023 99.4219 183.445 99.7344C182.867 100.047 182.422 100.484 182.109 101.047C181.812 101.594 181.609 102.242 181.5 102.992C181.391 103.742 181.336 104.562 181.336 105.453ZM231.539 109.93C231.539 109.398 231.461 108.922 231.305 108.5C231.148 108.062 230.859 107.656 230.438 107.281C230.016 106.906 229.406 106.531 228.609 106.156C227.828 105.766 226.797 105.359 225.516 104.938C224.016 104.438 222.57 103.875 221.18 103.25C219.789 102.609 218.547 101.867 217.453 101.023C216.359 100.164 215.492 99.1641 214.852 98.0234C214.211 96.8672 213.891 95.5234 213.891 93.9922C213.891 92.5234 214.219 91.2031 214.875 90.0312C215.531 88.8438 216.445 87.8359 217.617 87.0078C218.805 86.1641 220.195 85.5234 221.789 85.0859C223.383 84.6328 225.125 84.4062 227.016 84.4062C229.516 84.4062 231.719 84.8438 233.625 85.7188C235.547 86.5781 237.047 87.8047 238.125 89.3984C239.219 90.9766 239.766 92.8438 239.766 95H231.586C231.586 94.1406 231.406 93.3828 231.047 92.7266C230.703 92.0703 230.18 91.5547 229.477 91.1797C228.773 90.8047 227.891 90.6172 226.828 90.6172C225.797 90.6172 224.93 90.7734 224.227 91.0859C223.523 91.3984 222.992 91.8203 222.633 92.3516C222.273 92.8672 222.094 93.4375 222.094 94.0625C222.094 94.5781 222.234 95.0469 222.516 95.4688C222.812 95.875 223.227 96.2578 223.758 96.6172C224.305 96.9766 224.961 97.3203 225.727 97.6484C226.508 97.9766 227.383 98.2969 228.352 98.6094C230.164 99.1875 231.773 99.8359 233.18 100.555C234.602 101.258 235.797 102.062 236.766 102.969C237.75 103.859 238.492 104.875 238.992 106.016C239.508 107.156 239.766 108.445 239.766 109.883C239.766 111.414 239.469 112.773 238.875 113.961C238.281 115.148 237.43 116.156 236.32 116.984C235.211 117.797 233.883 118.414 232.336 118.836C230.789 119.258 229.062 119.469 227.156 119.469C225.406 119.469 223.68 119.25 221.977 118.812C220.289 118.359 218.758 117.672 217.383 116.75C216.008 115.812 214.906 114.617 214.078 113.164C213.266 111.695 212.859 109.953 212.859 107.938H221.109C221.109 108.938 221.242 109.781 221.508 110.469C221.773 111.156 222.164 111.711 222.68 112.133C223.195 112.539 223.828 112.836 224.578 113.023C225.328 113.195 226.188 113.281 227.156 113.281C228.203 113.281 229.047 113.133 229.688 112.836C230.328 112.523 230.797 112.117 231.094 111.617C231.391 111.102 231.539 110.539 231.539 109.93ZM256.992 93.6406V99.125H241.711V93.6406H256.992ZM244.922 87.3359H252.82V110.727C252.82 111.398 252.898 111.922 253.055 112.297C253.211 112.656 253.477 112.914 253.852 113.07C254.242 113.211 254.758 113.281 255.398 113.281C255.852 113.281 256.227 113.273 256.523 113.258C256.82 113.227 257.102 113.188 257.367 113.141V118.789C256.695 119.008 255.992 119.172 255.258 119.281C254.523 119.406 253.742 119.469 252.914 119.469C251.227 119.469 249.781 119.203 248.578 118.672C247.391 118.141 246.484 117.305 245.859 116.164C245.234 115.023 244.922 113.539 244.922 111.711V87.3359ZM273.305 112.625V102.172C273.305 101.453 273.203 100.836 273 100.32C272.797 99.8047 272.477 99.4062 272.039 99.125C271.602 98.8281 271.016 98.6797 270.281 98.6797C269.688 98.6797 269.18 98.7812 268.758 98.9844C268.336 99.1875 268.016 99.4922 267.797 99.8984C267.578 100.305 267.469 100.82 267.469 101.445H259.57C259.57 100.273 259.828 99.1875 260.344 98.1875C260.875 97.1719 261.625 96.2891 262.594 95.5391C263.578 94.7891 264.75 94.2109 266.109 93.8047C267.484 93.3828 269.016 93.1719 270.703 93.1719C272.719 93.1719 274.516 93.5078 276.094 94.1797C277.688 94.8516 278.945 95.8594 279.867 97.2031C280.789 98.5312 281.25 100.203 281.25 102.219V112.602C281.25 114.258 281.344 115.516 281.531 116.375C281.719 117.219 281.984 117.961 282.328 118.602V119H274.406C274.031 118.219 273.75 117.266 273.562 116.141C273.391 115 273.305 113.828 273.305 112.625ZM274.266 103.508L274.312 107.727H270.82C270.086 107.727 269.461 107.828 268.945 108.031C268.445 108.234 268.039 108.516 267.727 108.875C267.43 109.219 267.211 109.609 267.07 110.047C266.945 110.484 266.883 110.945 266.883 111.43C266.883 111.898 266.992 112.32 267.211 112.695C267.445 113.055 267.758 113.336 268.148 113.539C268.539 113.742 268.977 113.844 269.461 113.844C270.336 113.844 271.078 113.68 271.688 113.352C272.312 113.008 272.789 112.594 273.117 112.109C273.445 111.625 273.609 111.172 273.609 110.75L275.344 113.984C275.031 114.609 274.672 115.242 274.266 115.883C273.875 116.523 273.383 117.117 272.789 117.664C272.211 118.195 271.5 118.633 270.656 118.977C269.812 119.305 268.789 119.469 267.586 119.469C266.023 119.469 264.586 119.148 263.273 118.508C261.977 117.867 260.938 116.977 260.156 115.836C259.375 114.68 258.984 113.352 258.984 111.852C258.984 110.539 259.219 109.367 259.688 108.336C260.172 107.305 260.898 106.43 261.867 105.711C262.836 104.992 264.07 104.445 265.57 104.07C267.07 103.695 268.836 103.508 270.867 103.508H274.266ZM296.344 113.375C297.078 113.375 297.703 113.242 298.219 112.977C298.75 112.695 299.148 112.305 299.414 111.805C299.695 111.289 299.828 110.672 299.812 109.953H307.242C307.258 111.859 306.789 113.531 305.836 114.969C304.898 116.391 303.617 117.5 301.992 118.297C300.383 119.078 298.562 119.469 296.531 119.469C294.547 119.469 292.812 119.148 291.328 118.508C289.844 117.852 288.602 116.945 287.602 115.789C286.617 114.617 285.875 113.25 285.375 111.688C284.891 110.125 284.648 108.43 284.648 106.602V106.062C284.648 104.234 284.891 102.539 285.375 100.977C285.875 99.3984 286.617 98.0312 287.602 96.875C288.602 95.7031 289.836 94.7969 291.305 94.1562C292.789 93.5 294.516 93.1719 296.484 93.1719C298.594 93.1719 300.453 93.5703 302.062 94.3672C303.688 95.1641 304.961 96.3203 305.883 97.8359C306.805 99.3516 307.258 101.188 307.242 103.344H299.812C299.828 102.578 299.711 101.891 299.461 101.281C299.211 100.672 298.82 100.188 298.289 99.8281C297.773 99.4531 297.109 99.2656 296.297 99.2656C295.484 99.2656 294.828 99.4453 294.328 99.8047C293.828 100.164 293.445 100.664 293.18 101.305C292.93 101.93 292.758 102.648 292.664 103.461C292.586 104.273 292.547 105.141 292.547 106.062V106.602C292.547 107.539 292.586 108.422 292.664 109.25C292.758 110.062 292.938 110.781 293.203 111.406C293.469 112.016 293.852 112.5 294.352 112.859C294.852 113.203 295.516 113.375 296.344 113.375ZM318.586 82.9766V119H310.688V82.9766H318.586ZM334.805 93.6406L323.789 106.555L318.023 112.32L314.578 107.305L319.383 101.047L325.336 93.6406H334.805ZM326.344 119L319.57 107.445L325.406 103.297L335.391 119H326.344Z" fill="black"/>
<path d="M1134 0H1348C1356.28 0 1363 6.71573 1363 15V148C1363 156.284 1356.28 163 1348 163H1134V0Z" fill="#146C94"/>
<path fill-rule="evenodd" clip-rule="evenodd" d="M1218.75 53C1218.62 53 1218.49 53.0527 1218.4 53.1464C1218.3 53.2402 1218.25 53.3674 1218.25 53.5V109.5C1218.25 109.633 1218.3 109.76 1218.4 109.854C1218.49 109.947 1218.62 110 1218.75 110H1278.25C1278.38 110 1278.51 109.947 1278.6 109.854C1278.7 109.76 1278.75 109.633 1278.75 109.5V64C1278.75 63.8674 1278.7 63.7402 1278.6 63.6464C1278.51 63.5527 1278.38 63.5 1278.25 63.5H1248.5C1247.61 63.5 1246.77 63.1045 1246.2 62.4206L1238.34 53H1218.75ZM1214.15 48.9038C1215.37 47.6848 1217.03 47 1218.75 47H1239.75C1240.64 47 1241.48 47.3955 1242.05 48.0794L1249.91 57.5H1278.25C1279.97 57.5 1281.63 58.1848 1282.85 59.4038C1284.07 60.6228 1284.75 62.2761 1284.75 64V109.5C1284.75 111.224 1284.07 112.877 1282.85 114.096C1281.63 115.315 1279.97 116 1278.25 116H1218.75C1217.03 116 1215.37 115.315 1214.15 114.096C1212.93 112.877 1212.25 111.224 1212.25 109.5V53.5C1212.25 51.7761 1212.93 50.1228 1214.15 48.9038Z" fill="white"/>
<path fill-rule="evenodd" clip-rule="evenodd" d="M1243.97 75.5251C1245.34 76.892 1245.34 79.108 1243.97 80.4749L1237.7 86.75L1243.97 93.0251C1245.34 94.392 1245.34 96.608 1243.97 97.9749C1242.61 99.3417 1240.39 99.3417 1239.03 97.9749L1230.28 89.2249C1228.91 87.858 1228.91 85.642 1230.28 84.2751L1239.03 75.5251C1240.39 74.1583 1242.61 74.1583 1243.97 75.5251Z" fill="white"/>
<path fill-rule="evenodd" clip-rule="evenodd" d="M1252.28 97.9749C1250.91 96.608 1250.91 94.392 1252.28 93.0251L1258.55 86.75L1252.28 80.4749C1250.91 79.108 1250.91 76.892 1252.28 75.5251C1253.64 74.1583 1255.86 74.1583 1257.22 75.5251L1265.97 84.2751C1267.34 85.642 1267.34 87.858 1265.97 89.2249L1257.22 97.9749C1255.86 99.3417 1253.64 99.3417 1252.28 97.9749Z" fill="white"/>
</svg>
