<svg width="1363" height="297" viewBox="0 0 1363 297" fill="none" xmlns="http://www.w3.org/2000/svg">
<path d="M0 15C0 6.71573 6.71573 0 15 0H37V297H15C6.71573 297 0 290.284 0 282V15Z" fill="#146C94"/>
<path d="M37 0H1066V297H37V0Z" fill="#F0F0F0"/>
<path d="M105.691 53.7832L98.7305 75H93.123L102.633 49.4062H106.201L105.691 53.7832ZM111.475 75L104.496 53.7832L103.934 49.4062H107.537L117.1 75H111.475ZM111.158 65.4727V69.6035H97.6406V65.4727H111.158ZM124.5 48V75H119.42V48H124.5ZM134.027 55.9805V75H128.947V55.9805H134.027ZM128.631 51.0234C128.631 50.2852 128.889 49.6758 129.404 49.1953C129.92 48.7148 130.611 48.4746 131.479 48.4746C132.334 48.4746 133.02 48.7148 133.535 49.1953C134.062 49.6758 134.326 50.2852 134.326 51.0234C134.326 51.7617 134.062 52.3711 133.535 52.8516C133.02 53.332 132.334 53.5723 131.479 53.5723C130.611 53.5723 129.92 53.332 129.404 52.8516C128.889 52.3711 128.631 51.7617 128.631 51.0234ZM157.898 53.7832L150.938 75H145.33L154.84 49.4062H158.408L157.898 53.7832ZM163.682 75L156.703 53.7832L156.141 49.4062H159.744L169.307 75H163.682ZM163.365 65.4727V69.6035H149.848V65.4727H163.365ZM176.127 72.8555L181.172 55.9805H186.604L178.957 77.8652C178.793 78.3457 178.57 78.8613 178.289 79.4121C178.02 79.9629 177.65 80.4844 177.182 80.9766C176.725 81.4805 176.145 81.8906 175.441 82.207C174.75 82.5234 173.9 82.6816 172.893 82.6816C172.412 82.6816 172.02 82.6523 171.715 82.5938C171.41 82.5352 171.047 82.4531 170.625 82.3477V78.6387C170.754 78.6387 170.889 78.6387 171.029 78.6387C171.17 78.6504 171.305 78.6562 171.434 78.6562C172.102 78.6562 172.646 78.5801 173.068 78.4277C173.49 78.2754 173.83 78.041 174.088 77.7246C174.346 77.4199 174.551 77.0215 174.703 76.5293L176.127 72.8555ZM174.018 55.9805L178.148 69.7617L178.869 75.123L175.424 75.4922L168.586 55.9805H174.018ZM187.535 65.6836V65.3145C187.535 63.9199 187.734 62.6367 188.133 61.4648C188.531 60.2812 189.111 59.2559 189.873 58.3887C190.635 57.5215 191.572 56.8477 192.686 56.3672C193.799 55.875 195.076 55.6289 196.518 55.6289C197.959 55.6289 199.242 55.875 200.367 56.3672C201.492 56.8477 202.436 57.5215 203.197 58.3887C203.971 59.2559 204.557 60.2812 204.955 61.4648C205.354 62.6367 205.553 63.9199 205.553 65.3145V65.6836C205.553 67.0664 205.354 68.3496 204.955 69.5332C204.557 70.7051 203.971 71.7305 203.197 72.6094C202.436 73.4766 201.498 74.1504 200.385 74.6309C199.271 75.1113 197.994 75.3516 196.553 75.3516C195.111 75.3516 193.828 75.1113 192.703 74.6309C191.59 74.1504 190.646 73.4766 189.873 72.6094C189.111 71.7305 188.531 70.7051 188.133 69.5332C187.734 68.3496 187.535 67.0664 187.535 65.6836ZM192.598 65.3145V65.6836C192.598 66.4805 192.668 67.2246 192.809 67.916C192.949 68.6074 193.172 69.2168 193.477 69.7441C193.793 70.2598 194.203 70.6641 194.707 70.957C195.211 71.25 195.826 71.3965 196.553 71.3965C197.256 71.3965 197.859 71.25 198.363 70.957C198.867 70.6641 199.271 70.2598 199.576 69.7441C199.881 69.2168 200.104 68.6074 200.244 67.916C200.396 67.2246 200.473 66.4805 200.473 65.6836V65.3145C200.473 64.541 200.396 63.8145 200.244 63.1348C200.104 62.4434 199.875 61.834 199.559 61.3066C199.254 60.7676 198.85 60.3457 198.346 60.041C197.842 59.7363 197.232 59.584 196.518 59.584C195.803 59.584 195.193 59.7363 194.689 60.041C194.197 60.3457 193.793 60.7676 193.477 61.3066C193.172 61.834 192.949 62.4434 192.809 63.1348C192.668 63.8145 192.598 64.541 192.598 65.3145ZM219.914 70.4473V55.9805H224.977V75H220.213L219.914 70.4473ZM220.477 66.5449L221.971 66.5098C221.971 67.7754 221.824 68.9531 221.531 70.043C221.238 71.1211 220.799 72.0586 220.213 72.8555C219.627 73.6406 218.889 74.2559 217.998 74.7012C217.107 75.1348 216.059 75.3516 214.852 75.3516C213.926 75.3516 213.07 75.2227 212.285 74.9648C211.512 74.6953 210.844 74.2793 210.281 73.7168C209.73 73.1426 209.297 72.4102 208.98 71.5195C208.676 70.6172 208.523 69.5332 208.523 68.2676V55.9805H213.586V68.3027C213.586 68.8652 213.65 69.3398 213.779 69.7266C213.92 70.1133 214.113 70.4297 214.359 70.6758C214.605 70.9219 214.893 71.0977 215.221 71.2031C215.561 71.3086 215.936 71.3613 216.346 71.3613C217.389 71.3613 218.209 71.1504 218.807 70.7285C219.416 70.3066 219.844 69.7324 220.09 69.0059C220.348 68.2676 220.477 67.4473 220.477 66.5449ZM228.844 48H233.906V70.6406L233.396 75H228.844V48ZM245.947 65.2969V65.666C245.947 67.084 245.795 68.3848 245.49 69.5684C245.197 70.752 244.74 71.7773 244.119 72.6445C243.498 73.5 242.725 74.168 241.799 74.6484C240.885 75.1172 239.807 75.3516 238.564 75.3516C237.404 75.3516 236.396 75.1172 235.541 74.6484C234.697 74.1797 233.988 73.5176 233.414 72.6621C232.84 71.8066 232.377 70.8047 232.025 69.6562C231.674 68.5078 231.41 67.2539 231.234 65.8945V65.0859C231.41 63.7266 231.674 62.4727 232.025 61.3242C232.377 60.1758 232.84 59.1738 233.414 58.3184C233.988 57.4629 234.697 56.8008 235.541 56.332C236.385 55.8633 237.381 55.6289 238.529 55.6289C239.783 55.6289 240.873 55.8691 241.799 56.3496C242.736 56.8184 243.51 57.4863 244.119 58.3535C244.74 59.209 245.197 60.2285 245.49 61.4121C245.795 62.584 245.947 63.8789 245.947 65.2969ZM240.885 65.666V65.2969C240.885 64.5234 240.826 63.7969 240.709 63.1172C240.604 62.4258 240.416 61.8223 240.146 61.3066C239.877 60.7793 239.508 60.3633 239.039 60.0586C238.582 59.7539 237.99 59.6016 237.264 59.6016C236.572 59.6016 235.986 59.7188 235.506 59.9531C235.025 60.1875 234.627 60.5156 234.311 60.9375C234.006 61.3594 233.777 61.8633 233.625 62.4492C233.473 63.0234 233.379 63.6562 233.344 64.3477V66.6504C233.379 67.5762 233.531 68.3965 233.801 69.1113C234.082 69.8145 234.504 70.3711 235.066 70.7812C235.641 71.1797 236.385 71.3789 237.299 71.3789C238.014 71.3789 238.605 71.2383 239.074 70.957C239.543 70.6758 239.906 70.2773 240.164 69.7617C240.434 69.2461 240.621 68.6426 240.727 67.9512C240.832 67.248 240.885 66.4863 240.885 65.666Z" fill="#888888"/>
<path d="M112.277 123.074H102.023L101.969 116.785H110.281C111.776 116.785 112.97 116.621 113.863 116.293C114.757 115.947 115.404 115.445 115.805 114.789C116.224 114.133 116.434 113.312 116.434 112.328C116.434 111.198 116.224 110.286 115.805 109.594C115.385 108.901 114.72 108.4 113.809 108.09C112.915 107.762 111.758 107.598 110.336 107.598H105.633V140H96.0352V100.188H110.336C112.797 100.188 114.993 100.415 116.926 100.871C118.858 101.309 120.499 101.983 121.848 102.895C123.215 103.806 124.254 104.954 124.965 106.34C125.676 107.707 126.031 109.32 126.031 111.18C126.031 112.802 125.685 114.324 124.992 115.746C124.299 117.168 123.142 118.326 121.52 119.219C119.915 120.094 117.719 120.549 114.93 120.586L112.277 123.074ZM111.895 140H99.6992L102.98 132.617H111.895C113.207 132.617 114.255 132.417 115.039 132.016C115.841 131.596 116.415 131.049 116.762 130.375C117.126 129.682 117.309 128.917 117.309 128.078C117.309 127.057 117.135 126.173 116.789 125.426C116.461 124.678 115.932 124.104 115.203 123.703C114.474 123.284 113.499 123.074 112.277 123.074H104.211L104.266 116.785H113.918L116.16 119.301C118.822 119.191 120.927 119.565 122.477 120.422C124.044 121.279 125.165 122.409 125.84 123.812C126.514 125.216 126.852 126.684 126.852 128.215C126.852 130.822 126.286 133 125.156 134.75C124.044 136.5 122.376 137.812 120.152 138.688C117.928 139.562 115.176 140 111.895 140ZM149.027 132.809V110.414H158.27V140H149.629L149.027 132.809ZM149.902 126.793L152.309 126.738C152.309 128.725 152.072 130.566 151.598 132.262C151.124 133.939 150.422 135.397 149.492 136.637C148.581 137.876 147.451 138.842 146.102 139.535C144.771 140.21 143.23 140.547 141.48 140.547C140.022 140.547 138.682 140.346 137.461 139.945C136.258 139.526 135.219 138.879 134.344 138.004C133.469 137.111 132.785 135.971 132.293 134.586C131.819 133.182 131.582 131.505 131.582 129.555V110.414H140.797V129.609C140.797 130.266 140.879 130.831 141.043 131.305C141.207 131.779 141.444 132.18 141.754 132.508C142.064 132.818 142.447 133.055 142.902 133.219C143.376 133.365 143.914 133.438 144.516 133.438C145.901 133.438 146.986 133.146 147.77 132.562C148.553 131.979 149.1 131.186 149.41 130.184C149.738 129.181 149.902 128.051 149.902 126.793ZM178.859 131.688C178.859 131.177 178.686 130.74 178.34 130.375C178.012 129.992 177.428 129.646 176.59 129.336C175.751 129.008 174.576 128.68 173.062 128.352C171.622 128.042 170.264 127.632 168.988 127.121C167.73 126.611 166.628 125.991 165.68 125.262C164.732 124.533 163.984 123.667 163.438 122.664C162.909 121.661 162.645 120.513 162.645 119.219C162.645 117.961 162.909 116.776 163.438 115.664C163.984 114.534 164.777 113.54 165.816 112.684C166.874 111.809 168.159 111.125 169.672 110.633C171.185 110.122 172.908 109.867 174.84 109.867C177.501 109.867 179.798 110.277 181.73 111.098C183.663 111.9 185.148 113.03 186.188 114.488C187.245 115.928 187.773 117.596 187.773 119.492H178.559C178.559 118.745 178.431 118.107 178.176 117.578C177.939 117.049 177.547 116.648 177 116.375C176.453 116.083 175.724 115.938 174.812 115.938C174.174 115.938 173.591 116.056 173.062 116.293C172.552 116.53 172.142 116.858 171.832 117.277C171.522 117.697 171.367 118.189 171.367 118.754C171.367 119.155 171.458 119.52 171.641 119.848C171.841 120.158 172.142 120.449 172.543 120.723C172.944 120.978 173.454 121.215 174.074 121.434C174.694 121.634 175.441 121.816 176.316 121.98C178.303 122.345 180.163 122.865 181.895 123.539C183.626 124.214 185.03 125.171 186.105 126.41C187.199 127.65 187.746 129.318 187.746 131.414C187.746 132.727 187.445 133.939 186.844 135.051C186.242 136.145 185.376 137.111 184.246 137.949C183.116 138.77 181.758 139.408 180.172 139.863C178.586 140.319 176.799 140.547 174.812 140.547C171.987 140.547 169.599 140.046 167.648 139.043C165.698 138.022 164.221 136.746 163.219 135.215C162.234 133.665 161.742 132.098 161.742 130.512H170.328C170.365 131.423 170.583 132.171 170.984 132.754C171.404 133.337 171.96 133.766 172.652 134.039C173.345 134.312 174.147 134.449 175.059 134.449C175.897 134.449 176.59 134.331 177.137 134.094C177.702 133.857 178.13 133.538 178.422 133.137C178.714 132.717 178.859 132.234 178.859 131.688ZM207.57 131.688C207.57 131.177 207.397 130.74 207.051 130.375C206.723 129.992 206.139 129.646 205.301 129.336C204.462 129.008 203.286 128.68 201.773 128.352C200.333 128.042 198.975 127.632 197.699 127.121C196.441 126.611 195.339 125.991 194.391 125.262C193.443 124.533 192.695 123.667 192.148 122.664C191.62 121.661 191.355 120.513 191.355 119.219C191.355 117.961 191.62 116.776 192.148 115.664C192.695 114.534 193.488 113.54 194.527 112.684C195.585 111.809 196.87 111.125 198.383 110.633C199.896 110.122 201.618 109.867 203.551 109.867C206.212 109.867 208.509 110.277 210.441 111.098C212.374 111.9 213.859 113.03 214.898 114.488C215.956 115.928 216.484 117.596 216.484 119.492H207.27C207.27 118.745 207.142 118.107 206.887 117.578C206.65 117.049 206.258 116.648 205.711 116.375C205.164 116.083 204.435 115.938 203.523 115.938C202.885 115.938 202.302 116.056 201.773 116.293C201.263 116.53 200.853 116.858 200.543 117.277C200.233 117.697 200.078 118.189 200.078 118.754C200.078 119.155 200.169 119.52 200.352 119.848C200.552 120.158 200.853 120.449 201.254 120.723C201.655 120.978 202.165 121.215 202.785 121.434C203.405 121.634 204.152 121.816 205.027 121.98C207.014 122.345 208.874 122.865 210.605 123.539C212.337 124.214 213.741 125.171 214.816 126.41C215.91 127.65 216.457 129.318 216.457 131.414C216.457 132.727 216.156 133.939 215.555 135.051C214.953 136.145 214.087 137.111 212.957 137.949C211.827 138.77 210.469 139.408 208.883 139.863C207.297 140.319 205.51 140.547 203.523 140.547C200.698 140.547 198.31 140.046 196.359 139.043C194.409 138.022 192.932 136.746 191.93 135.215C190.945 133.665 190.453 132.098 190.453 130.512H199.039C199.076 131.423 199.294 132.171 199.695 132.754C200.115 133.337 200.671 133.766 201.363 134.039C202.056 134.312 202.858 134.449 203.77 134.449C204.608 134.449 205.301 134.331 205.848 134.094C206.413 133.857 206.841 133.538 207.133 133.137C207.424 132.717 207.57 132.234 207.57 131.688ZM237.457 123.074H227.203L227.148 116.785H235.461C236.956 116.785 238.15 116.621 239.043 116.293C239.936 115.947 240.583 115.445 240.984 114.789C241.404 114.133 241.613 113.312 241.613 112.328C241.613 111.198 241.404 110.286 240.984 109.594C240.565 108.901 239.9 108.4 238.988 108.09C238.095 107.762 236.938 107.598 235.516 107.598H230.812V140H221.215V100.188H235.516C237.977 100.188 240.173 100.415 242.105 100.871C244.038 101.309 245.678 101.983 247.027 102.895C248.395 103.806 249.434 104.954 250.145 106.34C250.855 107.707 251.211 109.32 251.211 111.18C251.211 112.802 250.865 114.324 250.172 115.746C249.479 117.168 248.322 118.326 246.699 119.219C245.095 120.094 242.898 120.549 240.109 120.586L237.457 123.074ZM237.074 140H224.879L228.16 132.617H237.074C238.387 132.617 239.435 132.417 240.219 132.016C241.021 131.596 241.595 131.049 241.941 130.375C242.306 129.682 242.488 128.917 242.488 128.078C242.488 127.057 242.315 126.173 241.969 125.426C241.641 124.678 241.112 124.104 240.383 123.703C239.654 123.284 238.678 123.074 237.457 123.074H229.391L229.445 116.785H239.098L241.34 119.301C244.001 119.191 246.107 119.565 247.656 120.422C249.224 121.279 250.345 122.409 251.02 123.812C251.694 125.216 252.031 126.684 252.031 128.215C252.031 130.822 251.466 133 250.336 134.75C249.224 136.5 247.556 137.812 245.332 138.688C243.108 139.562 240.355 140 237.074 140ZM255.777 125.508V124.934C255.777 122.764 256.087 120.768 256.707 118.945C257.327 117.104 258.238 115.509 259.441 114.16C260.645 112.811 262.13 111.763 263.898 111.016C265.667 110.25 267.708 109.867 270.023 109.867C272.357 109.867 274.408 110.25 276.176 111.016C277.962 111.763 279.457 112.811 280.66 114.16C281.863 115.509 282.775 117.104 283.395 118.945C284.014 120.768 284.324 122.764 284.324 124.934V125.508C284.324 127.659 284.014 129.655 283.395 131.496C282.775 133.319 281.863 134.914 280.66 136.281C279.457 137.63 277.971 138.678 276.203 139.426C274.435 140.173 272.393 140.547 270.078 140.547C267.763 140.547 265.712 140.173 263.926 139.426C262.139 138.678 260.645 137.63 259.441 136.281C258.238 134.914 257.327 133.319 256.707 131.496C256.087 129.655 255.777 127.659 255.777 125.508ZM264.992 124.934V125.508C264.992 126.62 265.074 127.659 265.238 128.625C265.402 129.591 265.676 130.439 266.059 131.168C266.441 131.879 266.961 132.435 267.617 132.836C268.273 133.237 269.094 133.438 270.078 133.438C271.044 133.438 271.846 133.237 272.484 132.836C273.141 132.435 273.66 131.879 274.043 131.168C274.426 130.439 274.699 129.591 274.863 128.625C275.027 127.659 275.109 126.62 275.109 125.508V124.934C275.109 123.858 275.027 122.846 274.863 121.898C274.699 120.932 274.426 120.085 274.043 119.355C273.66 118.608 273.141 118.025 272.484 117.605C271.828 117.186 271.008 116.977 270.023 116.977C269.057 116.977 268.246 117.186 267.59 117.605C266.952 118.025 266.441 118.608 266.059 119.355C265.676 120.085 265.402 120.932 265.238 121.898C265.074 122.846 264.992 123.858 264.992 124.934ZM303.93 131.688C303.93 131.177 303.757 130.74 303.41 130.375C303.082 129.992 302.499 129.646 301.66 129.336C300.822 129.008 299.646 128.68 298.133 128.352C296.693 128.042 295.335 127.632 294.059 127.121C292.801 126.611 291.698 125.991 290.75 125.262C289.802 124.533 289.055 123.667 288.508 122.664C287.979 121.661 287.715 120.513 287.715 119.219C287.715 117.961 287.979 116.776 288.508 115.664C289.055 114.534 289.848 113.54 290.887 112.684C291.944 111.809 293.229 111.125 294.742 110.633C296.255 110.122 297.978 109.867 299.91 109.867C302.572 109.867 304.868 110.277 306.801 111.098C308.733 111.9 310.219 113.03 311.258 114.488C312.315 115.928 312.844 117.596 312.844 119.492H303.629C303.629 118.745 303.501 118.107 303.246 117.578C303.009 117.049 302.617 116.648 302.07 116.375C301.523 116.083 300.794 115.938 299.883 115.938C299.245 115.938 298.661 116.056 298.133 116.293C297.622 116.53 297.212 116.858 296.902 117.277C296.592 117.697 296.438 118.189 296.438 118.754C296.438 119.155 296.529 119.52 296.711 119.848C296.911 120.158 297.212 120.449 297.613 120.723C298.014 120.978 298.525 121.215 299.145 121.434C299.764 121.634 300.512 121.816 301.387 121.98C303.374 122.345 305.233 122.865 306.965 123.539C308.697 124.214 310.1 125.171 311.176 126.41C312.27 127.65 312.816 129.318 312.816 131.414C312.816 132.727 312.516 133.939 311.914 135.051C311.312 136.145 310.447 137.111 309.316 137.949C308.186 138.77 306.828 139.408 305.242 139.863C303.656 140.319 301.87 140.547 299.883 140.547C297.057 140.547 294.669 140.046 292.719 139.043C290.768 138.022 289.292 136.746 288.289 135.215C287.305 133.665 286.812 132.098 286.812 130.512H295.398C295.435 131.423 295.654 132.171 296.055 132.754C296.474 133.337 297.03 133.766 297.723 134.039C298.415 134.312 299.217 134.449 300.129 134.449C300.967 134.449 301.66 134.331 302.207 134.094C302.772 133.857 303.201 133.538 303.492 133.137C303.784 132.717 303.93 132.234 303.93 131.688ZM332.641 131.688C332.641 131.177 332.467 130.74 332.121 130.375C331.793 129.992 331.21 129.646 330.371 129.336C329.533 129.008 328.357 128.68 326.844 128.352C325.404 128.042 324.046 127.632 322.77 127.121C321.512 126.611 320.409 125.991 319.461 125.262C318.513 124.533 317.766 123.667 317.219 122.664C316.69 121.661 316.426 120.513 316.426 119.219C316.426 117.961 316.69 116.776 317.219 115.664C317.766 114.534 318.559 113.54 319.598 112.684C320.655 111.809 321.94 111.125 323.453 110.633C324.966 110.122 326.689 109.867 328.621 109.867C331.283 109.867 333.579 110.277 335.512 111.098C337.444 111.9 338.93 113.03 339.969 114.488C341.026 115.928 341.555 117.596 341.555 119.492H332.34C332.34 118.745 332.212 118.107 331.957 117.578C331.72 117.049 331.328 116.648 330.781 116.375C330.234 116.083 329.505 115.938 328.594 115.938C327.956 115.938 327.372 116.056 326.844 116.293C326.333 116.53 325.923 116.858 325.613 117.277C325.303 117.697 325.148 118.189 325.148 118.754C325.148 119.155 325.24 119.52 325.422 119.848C325.622 120.158 325.923 120.449 326.324 120.723C326.725 120.978 327.236 121.215 327.855 121.434C328.475 121.634 329.223 121.816 330.098 121.98C332.085 122.345 333.944 122.865 335.676 123.539C337.408 124.214 338.811 125.171 339.887 126.41C340.98 127.65 341.527 129.318 341.527 131.414C341.527 132.727 341.227 133.939 340.625 135.051C340.023 136.145 339.158 137.111 338.027 137.949C336.897 138.77 335.539 139.408 333.953 139.863C332.367 140.319 330.581 140.547 328.594 140.547C325.768 140.547 323.38 140.046 321.43 139.043C319.479 138.022 318.003 136.746 317 135.215C316.016 133.665 315.523 132.098 315.523 130.512H324.109C324.146 131.423 324.365 132.171 324.766 132.754C325.185 133.337 325.741 133.766 326.434 134.039C327.126 134.312 327.928 134.449 328.84 134.449C329.678 134.449 330.371 134.331 330.918 134.094C331.483 133.857 331.911 133.538 332.203 133.137C332.495 132.717 332.641 132.234 332.641 131.688Z" fill="black"/>
<rect x="93" y="178" width="917" height="77" rx="10" fill="#146C94"/>
<rect x="360" y="196" width="148" height="41" rx="3" fill="#19A7CE"/>
<path d="M383.234 210.203H388.271C389.255 210.203 390.11 210.35 390.837 210.643C391.563 210.936 392.123 211.369 392.516 211.943C392.914 212.518 393.113 213.227 393.113 214.07C393.113 214.803 392.999 215.415 392.771 215.907C392.542 216.399 392.223 216.807 391.812 217.129C391.408 217.445 390.937 217.706 390.397 217.911L389.387 218.482H385.159L385.142 216.101H388.271C388.663 216.101 388.988 216.03 389.246 215.89C389.504 215.749 389.697 215.55 389.826 215.292C389.961 215.028 390.028 214.715 390.028 214.352C390.028 213.982 389.961 213.666 389.826 213.402C389.691 213.139 389.492 212.937 389.229 212.796C388.971 212.655 388.651 212.585 388.271 212.585H386.319V223H383.234V210.203ZM390.239 223L387.409 217.34L390.679 217.322L393.544 222.868V223H390.239ZM399.441 223.176C398.668 223.176 397.977 223.056 397.367 222.815C396.758 222.569 396.242 222.232 395.82 221.805C395.404 221.377 395.085 220.885 394.862 220.328C394.646 219.771 394.537 219.183 394.537 218.562V218.228C394.537 217.53 394.634 216.886 394.827 216.294C395.021 215.696 395.308 215.175 395.688 214.729C396.069 214.284 396.547 213.938 397.121 213.692C397.695 213.44 398.363 213.314 399.125 213.314C399.799 213.314 400.402 213.423 400.936 213.64C401.469 213.856 401.92 214.167 402.289 214.571C402.664 214.976 402.948 215.465 403.142 216.039C403.341 216.613 403.44 217.258 403.44 217.973V219.177H395.671V217.322H400.549V217.094C400.555 216.777 400.499 216.508 400.382 216.285C400.271 216.062 400.106 215.893 399.89 215.775C399.673 215.658 399.409 215.6 399.099 215.6C398.776 215.6 398.51 215.67 398.299 215.811C398.094 215.951 397.933 216.145 397.815 216.391C397.704 216.631 397.625 216.909 397.578 217.226C397.531 217.542 397.508 217.876 397.508 218.228V218.562C397.508 218.913 397.555 219.232 397.648 219.52C397.748 219.807 397.889 220.053 398.07 220.258C398.258 220.457 398.48 220.612 398.738 220.724C399.002 220.835 399.301 220.891 399.635 220.891C400.039 220.891 400.438 220.814 400.83 220.662C401.223 220.51 401.56 220.258 401.841 219.906L403.186 221.506C402.992 221.781 402.717 222.048 402.359 222.306C402.008 222.563 401.586 222.774 401.094 222.938C400.602 223.097 400.051 223.176 399.441 223.176ZM409.584 220.609V216.689C409.584 216.42 409.546 216.188 409.47 215.995C409.394 215.802 409.273 215.652 409.109 215.547C408.945 215.436 408.726 215.38 408.45 215.38C408.228 215.38 408.037 215.418 407.879 215.494C407.721 215.57 407.601 215.685 407.519 215.837C407.437 215.989 407.396 216.183 407.396 216.417H404.434C404.434 215.978 404.53 215.57 404.724 215.195C404.923 214.814 405.204 214.483 405.567 214.202C405.937 213.921 406.376 213.704 406.886 213.552C407.401 213.394 407.976 213.314 408.608 213.314C409.364 213.314 410.038 213.44 410.63 213.692C411.228 213.944 411.699 214.322 412.045 214.826C412.391 215.324 412.563 215.951 412.563 216.707V220.601C412.563 221.222 412.599 221.693 412.669 222.016C412.739 222.332 412.839 222.61 412.968 222.851V223H409.997C409.856 222.707 409.751 222.35 409.681 221.928C409.616 221.5 409.584 221.061 409.584 220.609ZM409.944 217.19L409.962 218.772H408.652C408.377 218.772 408.143 218.811 407.949 218.887C407.762 218.963 407.609 219.068 407.492 219.203C407.381 219.332 407.299 219.479 407.246 219.643C407.199 219.807 407.176 219.979 407.176 220.161C407.176 220.337 407.217 220.495 407.299 220.636C407.387 220.771 407.504 220.876 407.65 220.952C407.797 221.028 407.961 221.066 408.143 221.066C408.471 221.066 408.749 221.005 408.978 220.882C409.212 220.753 409.391 220.598 409.514 220.416C409.637 220.234 409.698 220.064 409.698 219.906L410.349 221.119C410.231 221.354 410.097 221.591 409.944 221.831C409.798 222.071 409.613 222.294 409.391 222.499C409.174 222.698 408.907 222.862 408.591 222.991C408.274 223.114 407.891 223.176 407.439 223.176C406.854 223.176 406.314 223.056 405.822 222.815C405.336 222.575 404.946 222.241 404.653 221.813C404.36 221.38 404.214 220.882 404.214 220.319C404.214 219.827 404.302 219.388 404.478 219.001C404.659 218.614 404.932 218.286 405.295 218.017C405.658 217.747 406.121 217.542 406.684 217.401C407.246 217.261 407.908 217.19 408.67 217.19H409.944ZM418.224 220.891C418.499 220.891 418.733 220.841 418.927 220.741C419.126 220.636 419.275 220.489 419.375 220.302C419.48 220.108 419.53 219.877 419.524 219.607H422.311C422.316 220.322 422.141 220.949 421.783 221.488C421.432 222.021 420.951 222.438 420.342 222.736C419.738 223.029 419.056 223.176 418.294 223.176C417.55 223.176 416.899 223.056 416.343 222.815C415.786 222.569 415.32 222.229 414.945 221.796C414.576 221.356 414.298 220.844 414.11 220.258C413.929 219.672 413.838 219.036 413.838 218.351V218.148C413.838 217.463 413.929 216.827 414.11 216.241C414.298 215.649 414.576 215.137 414.945 214.703C415.32 214.264 415.783 213.924 416.334 213.684C416.891 213.438 417.538 213.314 418.276 213.314C419.067 213.314 419.765 213.464 420.368 213.763C420.978 214.062 421.455 214.495 421.801 215.063C422.146 215.632 422.316 216.32 422.311 217.129H419.524C419.53 216.842 419.486 216.584 419.393 216.355C419.299 216.127 419.152 215.945 418.953 215.811C418.76 215.67 418.511 215.6 418.206 215.6C417.901 215.6 417.655 215.667 417.468 215.802C417.28 215.937 417.137 216.124 417.037 216.364C416.943 216.599 416.879 216.868 416.844 217.173C416.814 217.478 416.8 217.803 416.8 218.148V218.351C416.8 218.702 416.814 219.033 416.844 219.344C416.879 219.648 416.946 219.918 417.046 220.152C417.146 220.381 417.289 220.562 417.477 220.697C417.664 220.826 417.913 220.891 418.224 220.891ZM428.586 213.49V215.547H422.855V213.49H428.586ZM424.06 211.126H427.021V219.897C427.021 220.149 427.051 220.346 427.109 220.486C427.168 220.621 427.268 220.718 427.408 220.776C427.555 220.829 427.748 220.855 427.988 220.855C428.158 220.855 428.299 220.853 428.41 220.847C428.521 220.835 428.627 220.82 428.727 220.803V222.921C428.475 223.003 428.211 223.064 427.936 223.105C427.66 223.152 427.367 223.176 427.057 223.176C426.424 223.176 425.882 223.076 425.431 222.877C424.985 222.678 424.646 222.364 424.411 221.937C424.177 221.509 424.06 220.952 424.06 220.267V211.126ZM445.074 210.203V223H441.998L437.472 215.037V223H434.387V210.203H437.472L441.998 218.166V210.203H445.074ZM451.824 220.609V216.689C451.824 216.42 451.786 216.188 451.71 215.995C451.634 215.802 451.514 215.652 451.35 215.547C451.186 215.436 450.966 215.38 450.69 215.38C450.468 215.38 450.277 215.418 450.119 215.494C449.961 215.57 449.841 215.685 449.759 215.837C449.677 215.989 449.636 216.183 449.636 216.417H446.674C446.674 215.978 446.771 215.57 446.964 215.195C447.163 214.814 447.444 214.483 447.808 214.202C448.177 213.921 448.616 213.704 449.126 213.552C449.642 213.394 450.216 213.314 450.849 213.314C451.604 213.314 452.278 213.44 452.87 213.692C453.468 213.944 453.939 214.322 454.285 214.826C454.631 215.324 454.804 215.951 454.804 216.707V220.601C454.804 221.222 454.839 221.693 454.909 222.016C454.979 222.332 455.079 222.61 455.208 222.851V223H452.237C452.097 222.707 451.991 222.35 451.921 221.928C451.856 221.5 451.824 221.061 451.824 220.609ZM452.185 217.19L452.202 218.772H450.893C450.617 218.772 450.383 218.811 450.189 218.887C450.002 218.963 449.85 219.068 449.732 219.203C449.621 219.332 449.539 219.479 449.486 219.643C449.439 219.807 449.416 219.979 449.416 220.161C449.416 220.337 449.457 220.495 449.539 220.636C449.627 220.771 449.744 220.876 449.891 220.952C450.037 221.028 450.201 221.066 450.383 221.066C450.711 221.066 450.989 221.005 451.218 220.882C451.452 220.753 451.631 220.598 451.754 220.416C451.877 220.234 451.938 220.064 451.938 219.906L452.589 221.119C452.472 221.354 452.337 221.591 452.185 221.831C452.038 222.071 451.854 222.294 451.631 222.499C451.414 222.698 451.147 222.862 450.831 222.991C450.515 223.114 450.131 223.176 449.68 223.176C449.094 223.176 448.555 223.056 448.062 222.815C447.576 222.575 447.187 222.241 446.894 221.813C446.601 221.38 446.454 220.882 446.454 220.319C446.454 219.827 446.542 219.388 446.718 219.001C446.899 218.614 447.172 218.286 447.535 218.017C447.898 217.747 448.361 217.542 448.924 217.401C449.486 217.261 450.148 217.19 450.91 217.19H452.185ZM461.457 213.49V215.547H455.727V213.49H461.457ZM456.931 211.126H459.893V219.897C459.893 220.149 459.922 220.346 459.98 220.486C460.039 220.621 460.139 220.718 460.279 220.776C460.426 220.829 460.619 220.855 460.859 220.855C461.029 220.855 461.17 220.853 461.281 220.847C461.393 220.835 461.498 220.82 461.598 220.803V222.921C461.346 223.003 461.082 223.064 460.807 223.105C460.531 223.152 460.238 223.176 459.928 223.176C459.295 223.176 458.753 223.076 458.302 222.877C457.856 222.678 457.517 222.364 457.282 221.937C457.048 221.509 456.931 220.952 456.931 220.267V211.126ZM465.764 213.49V223H462.793V213.49H465.764ZM462.617 211.038C462.617 210.616 462.77 210.271 463.074 210.001C463.379 209.731 463.774 209.597 464.261 209.597C464.747 209.597 465.143 209.731 465.447 210.001C465.752 210.271 465.904 210.616 465.904 211.038C465.904 211.46 465.752 211.806 465.447 212.075C465.143 212.345 464.747 212.479 464.261 212.479C463.774 212.479 463.379 212.345 463.074 212.075C462.77 211.806 462.617 211.46 462.617 211.038ZM471.02 220.97L472.892 213.49H476.012L472.9 223H471.055L471.02 220.97ZM469.912 213.49L471.758 220.97L471.74 223H469.886L466.783 213.49H469.912ZM481.373 223.176C480.6 223.176 479.908 223.056 479.299 222.815C478.689 222.569 478.174 222.232 477.752 221.805C477.336 221.377 477.017 220.885 476.794 220.328C476.577 219.771 476.469 219.183 476.469 218.562V218.228C476.469 217.53 476.565 216.886 476.759 216.294C476.952 215.696 477.239 215.175 477.62 214.729C478.001 214.284 478.479 213.938 479.053 213.692C479.627 213.44 480.295 213.314 481.057 213.314C481.73 213.314 482.334 213.423 482.867 213.64C483.4 213.856 483.852 214.167 484.221 214.571C484.596 214.976 484.88 215.465 485.073 216.039C485.272 216.613 485.372 217.258 485.372 217.973V219.177H477.603V217.322H482.48V217.094C482.486 216.777 482.431 216.508 482.313 216.285C482.202 216.062 482.038 215.893 481.821 215.775C481.604 215.658 481.341 215.6 481.03 215.6C480.708 215.6 480.441 215.67 480.23 215.811C480.025 215.951 479.864 216.145 479.747 216.391C479.636 216.631 479.557 216.909 479.51 217.226C479.463 217.542 479.439 217.876 479.439 218.228V218.562C479.439 218.913 479.486 219.232 479.58 219.52C479.68 219.807 479.82 220.053 480.002 220.258C480.189 220.457 480.412 220.612 480.67 220.724C480.934 220.835 481.232 220.891 481.566 220.891C481.971 220.891 482.369 220.814 482.762 220.662C483.154 220.51 483.491 220.258 483.772 219.906L485.117 221.506C484.924 221.781 484.648 222.048 484.291 222.306C483.939 222.563 483.518 222.774 483.025 222.938C482.533 223.097 481.982 223.176 481.373 223.176Z" fill="white"/>
<rect x="360" y="196" width="148" height="41" rx="3" stroke="#19A7CE" stroke-width="4"/>
<rect x="528" y="196" width="91" height="41" rx="3" fill="#19A7CE"/>
<path d="M551.141 210.203H556.177C557.161 210.203 558.017 210.35 558.743 210.643C559.47 210.936 560.029 211.369 560.422 211.943C560.82 212.518 561.02 213.227 561.02 214.07C561.02 214.803 560.905 215.415 560.677 215.907C560.448 216.399 560.129 216.807 559.719 217.129C559.314 217.445 558.843 217.706 558.304 217.911L557.293 218.482H553.065L553.048 216.101H556.177C556.569 216.101 556.895 216.03 557.152 215.89C557.41 215.749 557.604 215.55 557.732 215.292C557.867 215.028 557.935 214.715 557.935 214.352C557.935 213.982 557.867 213.666 557.732 213.402C557.598 213.139 557.398 212.937 557.135 212.796C556.877 212.655 556.558 212.585 556.177 212.585H554.226V223H551.141V210.203ZM558.146 223L555.315 217.34L558.585 217.322L561.45 222.868V223H558.146ZM567.348 223.176C566.574 223.176 565.883 223.056 565.273 222.815C564.664 222.569 564.148 222.232 563.727 221.805C563.311 221.377 562.991 220.885 562.769 220.328C562.552 219.771 562.443 219.183 562.443 218.562V218.228C562.443 217.53 562.54 216.886 562.733 216.294C562.927 215.696 563.214 215.175 563.595 214.729C563.976 214.284 564.453 213.938 565.027 213.692C565.602 213.44 566.27 213.314 567.031 213.314C567.705 213.314 568.309 213.423 568.842 213.64C569.375 213.856 569.826 214.167 570.195 214.571C570.57 214.976 570.854 215.465 571.048 216.039C571.247 216.613 571.347 217.258 571.347 217.973V219.177H563.577V217.322H568.455V217.094C568.461 216.777 568.405 216.508 568.288 216.285C568.177 216.062 568.013 215.893 567.796 215.775C567.579 215.658 567.315 215.6 567.005 215.6C566.683 215.6 566.416 215.67 566.205 215.811C566 215.951 565.839 216.145 565.722 216.391C565.61 216.631 565.531 216.909 565.484 217.226C565.438 217.542 565.414 217.876 565.414 218.228V218.562C565.414 218.913 565.461 219.232 565.555 219.52C565.654 219.807 565.795 220.053 565.977 220.258C566.164 220.457 566.387 220.612 566.645 220.724C566.908 220.835 567.207 220.891 567.541 220.891C567.945 220.891 568.344 220.814 568.736 220.662C569.129 220.51 569.466 220.258 569.747 219.906L571.092 221.506C570.898 221.781 570.623 222.048 570.266 222.306C569.914 222.563 569.492 222.774 569 222.938C568.508 223.097 567.957 223.176 567.348 223.176ZM577.49 220.609V216.689C577.49 216.42 577.452 216.188 577.376 215.995C577.3 215.802 577.18 215.652 577.016 215.547C576.852 215.436 576.632 215.38 576.356 215.38C576.134 215.38 575.943 215.418 575.785 215.494C575.627 215.57 575.507 215.685 575.425 215.837C575.343 215.989 575.302 216.183 575.302 216.417H572.34C572.34 215.978 572.437 215.57 572.63 215.195C572.829 214.814 573.11 214.483 573.474 214.202C573.843 213.921 574.282 213.704 574.792 213.552C575.308 213.394 575.882 213.314 576.515 213.314C577.271 213.314 577.944 213.44 578.536 213.692C579.134 213.944 579.605 214.322 579.951 214.826C580.297 215.324 580.47 215.951 580.47 216.707V220.601C580.47 221.222 580.505 221.693 580.575 222.016C580.646 222.332 580.745 222.61 580.874 222.851V223H577.903C577.763 222.707 577.657 222.35 577.587 221.928C577.522 221.5 577.49 221.061 577.49 220.609ZM577.851 217.19L577.868 218.772H576.559C576.283 218.772 576.049 218.811 575.855 218.887C575.668 218.963 575.516 219.068 575.398 219.203C575.287 219.332 575.205 219.479 575.152 219.643C575.105 219.807 575.082 219.979 575.082 220.161C575.082 220.337 575.123 220.495 575.205 220.636C575.293 220.771 575.41 220.876 575.557 220.952C575.703 221.028 575.867 221.066 576.049 221.066C576.377 221.066 576.655 221.005 576.884 220.882C577.118 220.753 577.297 220.598 577.42 220.416C577.543 220.234 577.604 220.064 577.604 219.906L578.255 221.119C578.138 221.354 578.003 221.591 577.851 221.831C577.704 222.071 577.52 222.294 577.297 222.499C577.08 222.698 576.813 222.862 576.497 222.991C576.181 223.114 575.797 223.176 575.346 223.176C574.76 223.176 574.221 223.056 573.729 222.815C573.242 222.575 572.853 222.241 572.56 221.813C572.267 221.38 572.12 220.882 572.12 220.319C572.12 219.827 572.208 219.388 572.384 219.001C572.565 218.614 572.838 218.286 573.201 218.017C573.564 217.747 574.027 217.542 574.59 217.401C575.152 217.261 575.814 217.19 576.576 217.19H577.851ZM586.13 220.891C586.405 220.891 586.64 220.841 586.833 220.741C587.032 220.636 587.182 220.489 587.281 220.302C587.387 220.108 587.437 219.877 587.431 219.607H590.217C590.223 220.322 590.047 220.949 589.689 221.488C589.338 222.021 588.857 222.438 588.248 222.736C587.645 223.029 586.962 223.176 586.2 223.176C585.456 223.176 584.806 223.056 584.249 222.815C583.692 222.569 583.227 222.229 582.852 221.796C582.482 221.356 582.204 220.844 582.017 220.258C581.835 219.672 581.744 219.036 581.744 218.351V218.148C581.744 217.463 581.835 216.827 582.017 216.241C582.204 215.649 582.482 215.137 582.852 214.703C583.227 214.264 583.689 213.924 584.24 213.684C584.797 213.438 585.444 213.314 586.183 213.314C586.974 213.314 587.671 213.464 588.274 213.763C588.884 214.062 589.361 214.495 589.707 215.063C590.053 215.632 590.223 216.32 590.217 217.129H587.431C587.437 216.842 587.393 216.584 587.299 216.355C587.205 216.127 587.059 215.945 586.859 215.811C586.666 215.67 586.417 215.6 586.112 215.6C585.808 215.6 585.562 215.667 585.374 215.802C585.187 215.937 585.043 216.124 584.943 216.364C584.85 216.599 584.785 216.868 584.75 217.173C584.721 217.478 584.706 217.803 584.706 218.148V218.351C584.706 218.702 584.721 219.033 584.75 219.344C584.785 219.648 584.853 219.918 584.952 220.152C585.052 220.381 585.195 220.562 585.383 220.697C585.57 220.826 585.819 220.891 586.13 220.891ZM596.492 213.49V215.547H590.762V213.49H596.492ZM591.966 211.126H594.928V219.897C594.928 220.149 594.957 220.346 595.016 220.486C595.074 220.621 595.174 220.718 595.314 220.776C595.461 220.829 595.654 220.855 595.895 220.855C596.064 220.855 596.205 220.853 596.316 220.847C596.428 220.835 596.533 220.82 596.633 220.803V222.921C596.381 223.003 596.117 223.064 595.842 223.105C595.566 223.152 595.273 223.176 594.963 223.176C594.33 223.176 593.788 223.076 593.337 222.877C592.892 222.678 592.552 222.364 592.317 221.937C592.083 221.509 591.966 220.952 591.966 220.267V211.126Z" fill="white"/>
<rect x="528" y="196" width="91" height="41" rx="3" stroke="#19A7CE" stroke-width="4"/>
<rect x="639" y="196" width="104" height="41" rx="3" fill="#19A7CE"/>
<path d="M670.812 220.627V223H664.343V220.627H670.812ZM665.441 210.203V223H662.356V210.203H665.441ZM676.911 220.609V216.689C676.911 216.42 676.873 216.188 676.797 215.995C676.721 215.802 676.601 215.652 676.437 215.547C676.272 215.436 676.053 215.38 675.777 215.38C675.555 215.38 675.364 215.418 675.206 215.494C675.048 215.57 674.928 215.685 674.846 215.837C674.764 215.989 674.723 216.183 674.723 216.417H671.761C671.761 215.978 671.857 215.57 672.051 215.195C672.25 214.814 672.531 214.483 672.895 214.202C673.264 213.921 673.703 213.704 674.213 213.552C674.729 213.394 675.303 213.314 675.936 213.314C676.691 213.314 677.365 213.44 677.957 213.692C678.555 213.944 679.026 214.322 679.372 214.826C679.718 215.324 679.891 215.951 679.891 216.707V220.601C679.891 221.222 679.926 221.693 679.996 222.016C680.066 222.332 680.166 222.61 680.295 222.851V223H677.324C677.184 222.707 677.078 222.35 677.008 221.928C676.943 221.5 676.911 221.061 676.911 220.609ZM677.271 217.19L677.289 218.772H675.979C675.704 218.772 675.47 218.811 675.276 218.887C675.089 218.963 674.937 219.068 674.819 219.203C674.708 219.332 674.626 219.479 674.573 219.643C674.526 219.807 674.503 219.979 674.503 220.161C674.503 220.337 674.544 220.495 674.626 220.636C674.714 220.771 674.831 220.876 674.978 220.952C675.124 221.028 675.288 221.066 675.47 221.066C675.798 221.066 676.076 221.005 676.305 220.882C676.539 220.753 676.718 220.598 676.841 220.416C676.964 220.234 677.025 220.064 677.025 219.906L677.676 221.119C677.559 221.354 677.424 221.591 677.271 221.831C677.125 222.071 676.94 222.294 676.718 222.499C676.501 222.698 676.234 222.862 675.918 222.991C675.602 223.114 675.218 223.176 674.767 223.176C674.181 223.176 673.642 223.056 673.149 222.815C672.663 222.575 672.273 222.241 671.98 221.813C671.688 221.38 671.541 220.882 671.541 220.319C671.541 219.827 671.629 219.388 671.805 219.001C671.986 218.614 672.259 218.286 672.622 218.017C672.985 217.747 673.448 217.542 674.011 217.401C674.573 217.261 675.235 217.19 675.997 217.19H677.271ZM684.522 215.846V223H681.561V213.49H684.329L684.522 215.846ZM687.335 213.42L687.282 216.171C687.165 216.159 687.007 216.145 686.808 216.127C686.608 216.109 686.441 216.101 686.307 216.101C685.961 216.101 685.662 216.142 685.41 216.224C685.164 216.3 684.959 216.417 684.795 216.575C684.637 216.728 684.52 216.921 684.443 217.155C684.373 217.39 684.341 217.662 684.347 217.973L683.811 217.621C683.811 216.982 683.872 216.402 683.995 215.881C684.124 215.354 684.306 214.899 684.54 214.519C684.774 214.132 685.059 213.836 685.393 213.631C685.727 213.42 686.102 213.314 686.518 213.314C686.664 213.314 686.808 213.323 686.948 213.341C687.095 213.358 687.224 213.385 687.335 213.42ZM693.03 220.609V216.689C693.03 216.42 692.992 216.188 692.916 215.995C692.84 215.802 692.72 215.652 692.556 215.547C692.392 215.436 692.172 215.38 691.896 215.38C691.674 215.38 691.483 215.418 691.325 215.494C691.167 215.57 691.047 215.685 690.965 215.837C690.883 215.989 690.842 216.183 690.842 216.417H687.88C687.88 215.978 687.977 215.57 688.17 215.195C688.369 214.814 688.65 214.483 689.014 214.202C689.383 213.921 689.822 213.704 690.332 213.552C690.848 213.394 691.422 213.314 692.055 213.314C692.811 213.314 693.484 213.44 694.076 213.692C694.674 213.944 695.146 214.322 695.491 214.826C695.837 215.324 696.01 215.951 696.01 216.707V220.601C696.01 221.222 696.045 221.693 696.115 222.016C696.186 222.332 696.285 222.61 696.414 222.851V223H693.443C693.303 222.707 693.197 222.35 693.127 221.928C693.062 221.5 693.03 221.061 693.03 220.609ZM693.391 217.19L693.408 218.772H692.099C691.823 218.772 691.589 218.811 691.396 218.887C691.208 218.963 691.056 219.068 690.938 219.203C690.827 219.332 690.745 219.479 690.692 219.643C690.646 219.807 690.622 219.979 690.622 220.161C690.622 220.337 690.663 220.495 690.745 220.636C690.833 220.771 690.95 220.876 691.097 220.952C691.243 221.028 691.407 221.066 691.589 221.066C691.917 221.066 692.195 221.005 692.424 220.882C692.658 220.753 692.837 220.598 692.96 220.416C693.083 220.234 693.145 220.064 693.145 219.906L693.795 221.119C693.678 221.354 693.543 221.591 693.391 221.831C693.244 222.071 693.06 222.294 692.837 222.499C692.62 222.698 692.354 222.862 692.037 222.991C691.721 223.114 691.337 223.176 690.886 223.176C690.3 223.176 689.761 223.056 689.269 222.815C688.782 222.575 688.393 222.241 688.1 221.813C687.807 221.38 687.66 220.882 687.66 220.319C687.66 219.827 687.748 219.388 687.924 219.001C688.105 218.614 688.378 218.286 688.741 218.017C689.104 217.747 689.567 217.542 690.13 217.401C690.692 217.261 691.354 217.19 692.116 217.19H693.391ZM700.94 220.97L702.812 213.49H705.933L702.821 223H700.976L700.94 220.97ZM699.833 213.49L701.679 220.97L701.661 223H699.807L696.704 213.49H699.833ZM711.294 223.176C710.521 223.176 709.829 223.056 709.22 222.815C708.61 222.569 708.095 222.232 707.673 221.805C707.257 221.377 706.938 220.885 706.715 220.328C706.498 219.771 706.39 219.183 706.39 218.562V218.228C706.39 217.53 706.486 216.886 706.68 216.294C706.873 215.696 707.16 215.175 707.541 214.729C707.922 214.284 708.399 213.938 708.974 213.692C709.548 213.44 710.216 213.314 710.978 213.314C711.651 213.314 712.255 213.423 712.788 213.64C713.321 213.856 713.772 214.167 714.142 214.571C714.517 214.976 714.801 215.465 714.994 216.039C715.193 216.613 715.293 217.258 715.293 217.973V219.177H707.523V217.322H712.401V217.094C712.407 216.777 712.352 216.508 712.234 216.285C712.123 216.062 711.959 215.893 711.742 215.775C711.525 215.658 711.262 215.6 710.951 215.6C710.629 215.6 710.362 215.67 710.151 215.811C709.946 215.951 709.785 216.145 709.668 216.391C709.557 216.631 709.478 216.909 709.431 217.226C709.384 217.542 709.36 217.876 709.36 218.228V218.562C709.36 218.913 709.407 219.232 709.501 219.52C709.601 219.807 709.741 220.053 709.923 220.258C710.11 220.457 710.333 220.612 710.591 220.724C710.854 220.835 711.153 220.891 711.487 220.891C711.892 220.891 712.29 220.814 712.683 220.662C713.075 220.51 713.412 220.258 713.693 219.906L715.038 221.506C714.845 221.781 714.569 222.048 714.212 222.306C713.86 222.563 713.438 222.774 712.946 222.938C712.454 223.097 711.903 223.176 711.294 223.176ZM719.626 209.5V223H716.655V209.5H719.626Z" fill="white"/>
<rect x="639" y="196" width="104" height="41" rx="3" stroke="#19A7CE" stroke-width="4"/>
<path d="M1066 0H1348C1356.28 0 1363 6.71573 1363 15V282C1363 290.284 1356.28 297 1348 297H1066V0Z" fill="#146C94"/>
<path d="M1164.8 142.513C1164.8 149.466 1167.36 155.708 1171.35 160.053V174.117C1171.35 178.462 1174.29 182.018 1177.89 182.018H1184.43C1188.03 182.018 1190.98 178.462 1190.98 174.117V166.216H1243.33V174.117C1243.33 178.462 1246.27 182.018 1249.87 182.018H1256.42C1260.02 182.018 1262.96 178.462 1262.96 174.117V160.053C1266.95 155.708 1269.5 149.466 1269.5 142.513V63.5032C1269.5 35.8498 1246.08 31.8993 1217.15 31.8993C1188.23 31.8993 1164.8 35.8498 1164.8 63.5032V142.513ZM1187.71 150.414C1182.28 150.414 1177.89 145.12 1177.89 138.562C1177.89 132.005 1182.28 126.711 1187.71 126.711C1193.14 126.711 1197.52 132.005 1197.52 138.562C1197.52 145.12 1193.14 150.414 1187.71 150.414ZM1246.6 150.414C1241.17 150.414 1236.78 145.12 1236.78 138.562C1236.78 132.005 1241.17 126.711 1246.6 126.711C1252.03 126.711 1256.42 132.005 1256.42 138.562C1256.42 145.12 1252.03 150.414 1246.6 150.414ZM1256.42 103.008H1177.89V63.5032H1256.42V103.008Z" fill="white"/>
<path d="M1137.46 235.714V213.42H1147.13C1148.83 213.42 1150.25 213.648 1151.41 214.106C1152.57 214.563 1153.44 215.209 1154.03 216.043C1154.62 216.878 1154.92 217.861 1154.92 218.993C1154.92 219.814 1154.74 220.561 1154.38 221.236C1154.02 221.911 1153.52 222.477 1152.88 222.934C1152.23 223.384 1151.48 223.696 1150.61 223.87V224.088C1151.57 224.124 1152.44 224.368 1153.22 224.818C1154.01 225.26 1154.63 225.873 1155.1 226.657C1155.56 227.434 1155.79 228.348 1155.79 229.401C1155.79 230.62 1155.47 231.705 1154.84 232.655C1154.2 233.606 1153.3 234.354 1152.14 234.898C1150.97 235.442 1149.57 235.714 1147.96 235.714H1137.46ZM1143.51 230.881H1146.34C1147.36 230.881 1148.12 230.692 1148.63 230.315C1149.14 229.93 1149.39 229.364 1149.39 228.617C1149.39 228.094 1149.27 227.651 1149.03 227.289C1148.79 226.926 1148.45 226.65 1148.01 226.461C1147.57 226.273 1147.05 226.178 1146.43 226.178H1143.51V230.881ZM1143.51 222.433H1146C1146.53 222.433 1146.99 222.35 1147.4 222.183C1147.81 222.016 1148.12 221.777 1148.35 221.465C1148.58 221.145 1148.7 220.757 1148.7 220.3C1148.7 219.61 1148.45 219.084 1147.96 218.721C1147.46 218.351 1146.84 218.166 1146.08 218.166H1143.51V222.433ZM1168.87 228.399V218.993H1174.88V235.714H1169.17V232.536H1169C1168.64 233.603 1168 234.437 1167.09 235.039C1166.19 235.635 1165.11 235.932 1163.86 235.932C1162.69 235.932 1161.67 235.664 1160.79 235.127C1159.92 234.59 1159.24 233.849 1158.75 232.906C1158.28 231.962 1158.03 230.881 1158.02 229.662V218.993H1164.03V228.399C1164.04 229.226 1164.25 229.876 1164.67 230.348C1165.09 230.819 1165.67 231.055 1166.43 231.055C1166.93 231.055 1167.36 230.95 1167.72 230.74C1168.09 230.522 1168.38 230.217 1168.57 229.825C1168.78 229.426 1168.87 228.951 1168.87 228.399ZM1193.22 224.436H1187.69C1187.66 224.095 1187.54 223.801 1187.33 223.555C1187.12 223.308 1186.84 223.119 1186.51 222.989C1186.18 222.851 1185.82 222.782 1185.42 222.782C1184.91 222.782 1184.46 222.876 1184.09 223.065C1183.72 223.254 1183.54 223.522 1183.55 223.87C1183.54 224.117 1183.65 224.346 1183.87 224.556C1184.09 224.767 1184.52 224.93 1185.16 225.046L1188.56 225.656C1190.27 225.968 1191.54 226.494 1192.38 227.234C1193.22 227.967 1193.64 228.951 1193.65 230.184C1193.64 231.375 1193.29 232.409 1192.59 233.287C1191.89 234.158 1190.93 234.833 1189.72 235.312C1188.52 235.783 1187.14 236.019 1185.6 236.019C1183.04 236.019 1181.04 235.497 1179.6 234.452C1178.16 233.407 1177.36 232.028 1177.19 230.315H1183.16C1183.24 230.845 1183.5 231.255 1183.94 231.545C1184.39 231.828 1184.96 231.97 1185.64 231.97C1186.19 231.97 1186.65 231.875 1187 231.687C1187.36 231.498 1187.55 231.229 1187.56 230.881C1187.55 230.562 1187.39 230.308 1187.08 230.119C1186.77 229.93 1186.29 229.778 1185.64 229.662L1182.68 229.139C1180.97 228.842 1179.7 228.276 1178.85 227.441C1178 226.606 1177.58 225.532 1177.58 224.219C1177.58 223.058 1177.88 222.074 1178.5 221.269C1179.12 220.456 1180.01 219.839 1181.17 219.418C1182.33 218.99 1183.7 218.776 1185.29 218.776C1187.71 218.776 1189.61 219.277 1191.01 220.278C1192.41 221.28 1193.14 222.666 1193.22 224.436ZM1211.24 224.436H1205.71C1205.68 224.095 1205.56 223.801 1205.35 223.555C1205.14 223.308 1204.87 223.119 1204.53 222.989C1204.21 222.851 1203.84 222.782 1203.44 222.782C1202.93 222.782 1202.49 222.876 1202.12 223.065C1201.75 223.254 1201.56 223.522 1201.57 223.87C1201.56 224.117 1201.67 224.346 1201.89 224.556C1202.11 224.767 1202.54 224.93 1203.18 225.046L1206.58 225.656C1208.29 225.968 1209.57 226.494 1210.4 227.234C1211.24 227.967 1211.67 228.951 1211.67 230.184C1211.67 231.375 1211.31 232.409 1210.61 233.287C1209.91 234.158 1208.96 234.833 1207.74 235.312C1206.54 235.783 1205.16 236.019 1203.62 236.019C1201.06 236.019 1199.06 235.497 1197.62 234.452C1196.18 233.407 1195.38 232.028 1195.21 230.315H1201.18C1201.26 230.845 1201.52 231.255 1201.96 231.545C1202.41 231.828 1202.98 231.97 1203.66 231.97C1204.21 231.97 1204.67 231.875 1205.02 231.687C1205.39 231.498 1205.57 231.229 1205.58 230.881C1205.57 230.562 1205.41 230.308 1205.1 230.119C1204.79 229.93 1204.32 229.778 1203.66 229.662L1200.7 229.139C1199 228.842 1197.72 228.276 1196.87 227.441C1196.02 226.606 1195.6 225.532 1195.61 224.219C1195.6 223.058 1195.9 222.074 1196.52 221.269C1197.14 220.456 1198.03 219.839 1199.19 219.418C1200.35 218.99 1201.72 218.776 1203.31 218.776C1205.73 218.776 1207.64 219.277 1209.03 220.278C1210.43 221.28 1211.17 222.666 1211.24 224.436Z" fill="white" fill-opacity="0.5"/>
<path d="M1213.89 235.714V213.42H1223.56C1225.25 213.42 1226.68 213.648 1227.83 214.106C1229 214.563 1229.87 215.209 1230.46 216.043C1231.05 216.878 1231.35 217.861 1231.35 218.993C1231.35 219.814 1231.17 220.561 1230.81 221.236C1230.45 221.911 1229.95 222.477 1229.3 222.934C1228.66 223.384 1227.9 223.696 1227.04 223.87V224.088C1228 224.124 1228.87 224.368 1229.65 224.818C1230.44 225.26 1231.06 225.873 1231.52 226.657C1231.99 227.434 1232.22 228.348 1232.22 229.401C1232.22 230.62 1231.9 231.705 1231.26 232.655C1230.63 233.606 1229.73 234.354 1228.56 234.898C1227.4 235.442 1226 235.714 1224.38 235.714H1213.89ZM1219.94 230.881H1222.77C1223.79 230.881 1224.55 230.692 1225.06 230.315C1225.57 229.93 1225.82 229.364 1225.82 228.617C1225.82 228.094 1225.7 227.651 1225.46 227.289C1225.22 226.926 1224.88 226.65 1224.44 226.461C1224 226.273 1223.48 226.178 1222.86 226.178H1219.94V230.881ZM1219.94 222.433H1222.42C1222.95 222.433 1223.42 222.35 1223.83 222.183C1224.23 222.016 1224.55 221.777 1224.78 221.465C1225.01 221.145 1225.12 220.757 1225.12 220.3C1225.12 219.61 1224.88 219.084 1224.38 218.721C1223.89 218.351 1223.27 218.166 1222.51 218.166H1219.94V222.433ZM1242.51 236.019C1240.69 236.019 1239.14 235.66 1237.85 234.942C1236.56 234.216 1235.57 233.207 1234.88 231.915C1234.19 230.616 1233.84 229.11 1233.84 227.397C1233.84 225.685 1234.19 224.182 1234.88 222.891C1235.57 221.592 1236.56 220.583 1237.85 219.864C1239.14 219.139 1240.69 218.776 1242.51 218.776C1244.32 218.776 1245.88 219.139 1247.17 219.864C1248.46 220.583 1249.45 221.592 1250.14 222.891C1250.83 224.182 1251.17 225.685 1251.17 227.397C1251.17 229.11 1250.83 230.616 1250.14 231.915C1249.45 233.207 1248.46 234.216 1247.17 234.942C1245.88 235.66 1244.32 236.019 1242.51 236.019ZM1242.55 231.578C1243.06 231.578 1243.5 231.407 1243.87 231.066C1244.24 230.725 1244.53 230.239 1244.73 229.607C1244.93 228.976 1245.03 228.225 1245.03 227.354C1245.03 226.476 1244.93 225.725 1244.73 225.101C1244.53 224.469 1244.24 223.983 1243.87 223.642C1243.5 223.301 1243.06 223.13 1242.55 223.13C1242.02 223.13 1241.55 223.301 1241.17 223.642C1240.79 223.983 1240.49 224.469 1240.29 225.101C1240.08 225.725 1239.98 226.476 1239.98 227.354C1239.98 228.225 1240.08 228.976 1240.29 229.607C1240.49 230.239 1240.79 230.725 1241.17 231.066C1241.55 231.407 1242.02 231.578 1242.55 231.578ZM1268.9 224.436H1263.37C1263.34 224.095 1263.22 223.801 1263.01 223.555C1262.8 223.308 1262.52 223.119 1262.19 222.989C1261.86 222.851 1261.5 222.782 1261.1 222.782C1260.59 222.782 1260.14 222.876 1259.77 223.065C1259.4 223.254 1259.22 223.522 1259.23 223.87C1259.22 224.117 1259.33 224.346 1259.55 224.556C1259.77 224.767 1260.2 224.93 1260.84 225.046L1264.24 225.656C1265.95 225.968 1267.22 226.494 1268.06 227.234C1268.9 227.967 1269.32 228.951 1269.33 230.184C1269.32 231.375 1268.97 232.409 1268.27 233.287C1267.57 234.158 1266.61 234.833 1265.4 235.312C1264.2 235.783 1262.82 236.019 1261.28 236.019C1258.72 236.019 1256.72 235.497 1255.28 234.452C1253.84 233.407 1253.04 232.028 1252.87 230.315H1258.84C1258.92 230.845 1259.18 231.255 1259.62 231.545C1260.07 231.828 1260.64 231.97 1261.32 231.97C1261.87 231.97 1262.32 231.875 1262.68 231.687C1263.04 231.498 1263.23 231.229 1263.24 230.881C1263.23 230.562 1263.07 230.308 1262.76 230.119C1262.45 229.93 1261.97 229.778 1261.32 229.662L1258.36 229.139C1256.65 228.842 1255.38 228.276 1254.53 227.441C1253.68 226.606 1253.26 225.532 1253.26 224.219C1253.26 223.058 1253.56 222.074 1254.18 221.269C1254.8 220.456 1255.69 219.839 1256.85 219.418C1258.01 218.99 1259.38 218.776 1260.97 218.776C1263.39 218.776 1265.29 219.277 1266.69 220.278C1268.09 221.28 1268.82 222.666 1268.9 224.436ZM1286.92 224.436H1281.39C1281.36 224.095 1281.24 223.801 1281.03 223.555C1280.82 223.308 1280.55 223.119 1280.21 222.989C1279.89 222.851 1279.52 222.782 1279.12 222.782C1278.61 222.782 1278.17 222.876 1277.8 223.065C1277.43 223.254 1277.24 223.522 1277.25 223.87C1277.24 224.117 1277.35 224.346 1277.57 224.556C1277.79 224.767 1278.22 224.93 1278.86 225.046L1282.26 225.656C1283.97 225.968 1285.25 226.494 1286.08 227.234C1286.92 227.967 1287.35 228.951 1287.35 230.184C1287.35 231.375 1286.99 232.409 1286.29 233.287C1285.59 234.158 1284.64 234.833 1283.42 235.312C1282.22 235.783 1280.84 236.019 1279.3 236.019C1276.74 236.019 1274.74 235.497 1273.3 234.452C1271.86 233.407 1271.06 232.028 1270.89 230.315H1276.86C1276.94 230.845 1277.2 231.255 1277.64 231.545C1278.09 231.828 1278.66 231.97 1279.34 231.97C1279.89 231.97 1280.35 231.875 1280.7 231.687C1281.07 231.498 1281.25 231.229 1281.26 230.881C1281.25 230.562 1281.09 230.308 1280.78 230.119C1280.47 229.93 1279.99 229.778 1279.34 229.662L1276.38 229.139C1274.68 228.842 1273.4 228.276 1272.55 227.441C1271.7 226.606 1271.28 225.532 1271.29 224.219C1271.28 223.058 1271.58 222.074 1272.2 221.269C1272.82 220.456 1273.71 219.839 1274.87 219.418C1276.03 218.99 1277.4 218.776 1278.99 218.776C1281.41 218.776 1283.31 219.277 1284.71 220.278C1286.11 221.28 1286.85 222.666 1286.92 224.436Z" fill="white"/>
</svg>
