<svg width="1363" height="163" viewBox="0 0 1363 163" fill="none" xmlns="http://www.w3.org/2000/svg">
<path d="M0 15C0 6.71573 6.71573 0 15 0H37V163H15C6.71573 163 0 156.284 0 148V15Z" fill="#146C94"/>
<rect width="1097" height="163" transform="translate(37)" fill="#F0F0F0"/>
<path d="M101.906 53.9219L94.3945 51.2383V48.0859L104.602 52.375V54.6367L101.906 53.9219ZM94.3945 56.1719L101.918 53.4297L104.602 52.7852V55.0352L94.3945 59.3242V56.1719ZM122.789 55.3398H126.293C126.223 56.4883 125.906 57.5078 125.344 58.3984C124.789 59.2891 124.012 59.9844 123.012 60.4844C122.02 60.9844 120.824 61.2344 119.426 61.2344C118.332 61.2344 117.352 61.0469 116.484 60.6719C115.617 60.2891 114.875 59.7422 114.258 59.0312C113.648 58.3203 113.184 57.4609 112.863 56.4531C112.543 55.4453 112.383 54.3164 112.383 53.0664V51.8828C112.383 50.6328 112.547 49.5039 112.875 48.4961C113.211 47.4805 113.688 46.6172 114.305 45.9062C114.93 45.1953 115.676 44.6484 116.543 44.2656C117.41 43.8828 118.379 43.6914 119.449 43.6914C120.871 43.6914 122.07 43.9492 123.047 44.4648C124.031 44.9805 124.793 45.6914 125.332 46.5977C125.879 47.5039 126.207 48.5352 126.316 49.6914H122.801C122.762 49.0039 122.625 48.4219 122.391 47.9453C122.156 47.4609 121.801 47.0977 121.324 46.8555C120.855 46.6055 120.23 46.4805 119.449 46.4805C118.863 46.4805 118.352 46.5898 117.914 46.8086C117.477 47.0273 117.109 47.3594 116.812 47.8047C116.516 48.25 116.293 48.8125 116.145 49.4922C116.004 50.1641 115.934 50.9531 115.934 51.8594V53.0664C115.934 53.9492 116 54.7266 116.133 55.3984C116.266 56.0625 116.469 56.625 116.742 57.0859C117.023 57.5391 117.383 57.8828 117.82 58.1172C118.266 58.3438 118.801 58.457 119.426 58.457C120.16 58.457 120.766 58.3398 121.242 58.1055C121.719 57.8711 122.082 57.5234 122.332 57.0625C122.59 56.6016 122.742 56.0273 122.789 55.3398ZM127.852 54.7891V54.543C127.852 53.6133 127.984 52.7578 128.25 51.9766C128.516 51.1875 128.902 50.5039 129.41 49.9258C129.918 49.3477 130.543 48.8984 131.285 48.5781C132.027 48.25 132.879 48.0859 133.84 48.0859C134.801 48.0859 135.656 48.25 136.406 48.5781C137.156 48.8984 137.785 49.3477 138.293 49.9258C138.809 50.5039 139.199 51.1875 139.465 51.9766C139.73 52.7578 139.863 53.6133 139.863 54.543V54.7891C139.863 55.7109 139.73 56.5664 139.465 57.3555C139.199 58.1367 138.809 58.8203 138.293 59.4062C137.785 59.9844 137.16 60.4336 136.418 60.7539C135.676 61.0742 134.824 61.2344 133.863 61.2344C132.902 61.2344 132.047 61.0742 131.297 60.7539C130.555 60.4336 129.926 59.9844 129.41 59.4062C128.902 58.8203 128.516 58.1367 128.25 57.3555C127.984 56.5664 127.852 55.7109 127.852 54.7891ZM131.227 54.543V54.7891C131.227 55.3203 131.273 55.8164 131.367 56.2773C131.461 56.7383 131.609 57.1445 131.812 57.4961C132.023 57.8398 132.297 58.1094 132.633 58.3047C132.969 58.5 133.379 58.5977 133.863 58.5977C134.332 58.5977 134.734 58.5 135.07 58.3047C135.406 58.1094 135.676 57.8398 135.879 57.4961C136.082 57.1445 136.23 56.7383 136.324 56.2773C136.426 55.8164 136.477 55.3203 136.477 54.7891V54.543C136.477 54.0273 136.426 53.543 136.324 53.0898C136.23 52.6289 136.078 52.2227 135.867 51.8711C135.664 51.5117 135.395 51.2305 135.059 51.0273C134.723 50.8242 134.316 50.7227 133.84 50.7227C133.363 50.7227 132.957 50.8242 132.621 51.0273C132.293 51.2305 132.023 51.5117 131.812 51.8711C131.609 52.2227 131.461 52.6289 131.367 53.0898C131.273 53.543 131.227 54.0273 131.227 54.543ZM146.238 61H142.84V47.1953C142.84 46.2344 143.027 45.4258 143.402 44.7695C143.785 44.1055 144.32 43.6055 145.008 43.2695C145.703 42.9258 146.527 42.7539 147.48 42.7539C147.793 42.7539 148.094 42.7773 148.383 42.8242C148.672 42.8633 148.953 42.9141 149.227 42.9766L149.191 45.5195C149.043 45.4805 148.887 45.4531 148.723 45.4375C148.559 45.4219 148.367 45.4141 148.148 45.4141C147.742 45.4141 147.395 45.4844 147.105 45.625C146.824 45.7578 146.609 45.957 146.461 46.2227C146.312 46.4883 146.238 46.8125 146.238 47.1953V61ZM148.77 48.3203V50.7109H140.953V48.3203H148.77ZM154.84 61H151.441V47.1953C151.441 46.2344 151.629 45.4258 152.004 44.7695C152.387 44.1055 152.922 43.6055 153.609 43.2695C154.305 42.9258 155.129 42.7539 156.082 42.7539C156.395 42.7539 156.695 42.7773 156.984 42.8242C157.273 42.8633 157.555 42.9141 157.828 42.9766L157.793 45.5195C157.645 45.4805 157.488 45.4531 157.324 45.4375C157.16 45.4219 156.969 45.4141 156.75 45.4141C156.344 45.4141 155.996 45.4844 155.707 45.625C155.426 45.7578 155.211 45.957 155.062 46.2227C154.914 46.4883 154.84 46.8125 154.84 47.1953V61ZM157.371 48.3203V50.7109H149.555V48.3203H157.371ZM164.695 61.2344C163.711 61.2344 162.828 61.0781 162.047 60.7656C161.266 60.4453 160.602 60.0039 160.055 59.4414C159.516 58.8789 159.102 58.2266 158.812 57.4844C158.523 56.7344 158.379 55.9375 158.379 55.0938V54.625C158.379 53.6641 158.516 52.7852 158.789 51.9883C159.062 51.1914 159.453 50.5 159.961 49.9141C160.477 49.3281 161.102 48.8789 161.836 48.5664C162.57 48.2461 163.398 48.0859 164.32 48.0859C165.219 48.0859 166.016 48.2344 166.711 48.5312C167.406 48.8281 167.988 49.25 168.457 49.7969C168.934 50.3438 169.293 51 169.535 51.7656C169.777 52.5234 169.898 53.3672 169.898 54.2969V55.7031H159.82V53.4531H166.582V53.1953C166.582 52.7266 166.496 52.3086 166.324 51.9414C166.16 51.5664 165.91 51.2695 165.574 51.0508C165.238 50.832 164.809 50.7227 164.285 50.7227C163.84 50.7227 163.457 50.8203 163.137 51.0156C162.816 51.2109 162.555 51.4844 162.352 51.8359C162.156 52.1875 162.008 52.6016 161.906 53.0781C161.812 53.5469 161.766 54.0625 161.766 54.625V55.0938C161.766 55.6016 161.836 56.0703 161.977 56.5C162.125 56.9297 162.332 57.3008 162.598 57.6133C162.871 57.9258 163.199 58.168 163.582 58.3398C163.973 58.5117 164.414 58.5977 164.906 58.5977C165.516 58.5977 166.082 58.4805 166.605 58.2461C167.137 58.0039 167.594 57.6406 167.977 57.1562L169.617 58.9375C169.352 59.3203 168.988 59.6875 168.527 60.0391C168.074 60.3906 167.527 60.6797 166.887 60.9062C166.246 61.125 165.516 61.2344 164.695 61.2344ZM177.656 61.2344C176.672 61.2344 175.789 61.0781 175.008 60.7656C174.227 60.4453 173.562 60.0039 173.016 59.4414C172.477 58.8789 172.062 58.2266 171.773 57.4844C171.484 56.7344 171.34 55.9375 171.34 55.0938V54.625C171.34 53.6641 171.477 52.7852 171.75 51.9883C172.023 51.1914 172.414 50.5 172.922 49.9141C173.438 49.3281 174.062 48.8789 174.797 48.5664C175.531 48.2461 176.359 48.0859 177.281 48.0859C178.18 48.0859 178.977 48.2344 179.672 48.5312C180.367 48.8281 180.949 49.25 181.418 49.7969C181.895 50.3438 182.254 51 182.496 51.7656C182.738 52.5234 182.859 53.3672 182.859 54.2969V55.7031H172.781V53.4531H179.543V53.1953C179.543 52.7266 179.457 52.3086 179.285 51.9414C179.121 51.5664 178.871 51.2695 178.535 51.0508C178.199 50.832 177.77 50.7227 177.246 50.7227C176.801 50.7227 176.418 50.8203 176.098 51.0156C175.777 51.2109 175.516 51.4844 175.312 51.8359C175.117 52.1875 174.969 52.6016 174.867 53.0781C174.773 53.5469 174.727 54.0625 174.727 54.625V55.0938C174.727 55.6016 174.797 56.0703 174.938 56.5C175.086 56.9297 175.293 57.3008 175.559 57.6133C175.832 57.9258 176.16 58.168 176.543 58.3398C176.934 58.5117 177.375 58.5977 177.867 58.5977C178.477 58.5977 179.043 58.4805 179.566 58.2461C180.098 58.0039 180.555 57.6406 180.938 57.1562L182.578 58.9375C182.312 59.3203 181.949 59.6875 181.488 60.0391C181.035 60.3906 180.488 60.6797 179.848 60.9062C179.207 61.125 178.477 61.2344 177.656 61.2344ZM202.418 58.2578V61H193.336V58.2578H202.418ZM194.484 43.9375V61H190.969V43.9375H194.484ZM201.234 50.8867V53.5586H193.336V50.8867H201.234ZM202.406 43.9375V46.6914H193.336V43.9375H202.406ZM206.977 48.3203L209.074 52.1758L211.23 48.3203H214.828L211.242 54.5195L214.992 61H211.383L209.098 56.9219L206.812 61H203.203L206.953 54.5195L203.367 48.3203H206.977ZM219.844 50.7578V65.875H216.469V48.3203H219.598L219.844 50.7578ZM227.871 54.5195V54.7656C227.871 55.6875 227.762 56.543 227.543 57.332C227.332 58.1211 227.02 58.8086 226.605 59.3945C226.191 59.9727 225.676 60.4258 225.059 60.7539C224.449 61.0742 223.746 61.2344 222.949 61.2344C222.176 61.2344 221.504 61.0781 220.934 60.7656C220.363 60.4531 219.883 60.0156 219.492 59.4531C219.109 58.8828 218.801 58.2227 218.566 57.4727C218.332 56.7227 218.152 55.918 218.027 55.0586V54.4141C218.152 53.4922 218.332 52.6484 218.566 51.8828C218.801 51.1094 219.109 50.4414 219.492 49.8789C219.883 49.3086 220.359 48.8672 220.922 48.5547C221.492 48.2422 222.16 48.0859 222.926 48.0859C223.73 48.0859 224.438 48.2383 225.047 48.543C225.664 48.8477 226.18 49.2852 226.594 49.8555C227.016 50.4258 227.332 51.1055 227.543 51.8945C227.762 52.6836 227.871 53.5586 227.871 54.5195ZM224.484 54.7656V54.5195C224.484 53.9805 224.438 53.4844 224.344 53.0312C224.258 52.5703 224.117 52.168 223.922 51.8242C223.734 51.4805 223.484 51.2148 223.172 51.0273C222.867 50.832 222.496 50.7344 222.059 50.7344C221.598 50.7344 221.203 50.8086 220.875 50.957C220.555 51.1055 220.293 51.3203 220.09 51.6016C219.887 51.8828 219.734 52.2188 219.633 52.6094C219.531 53 219.469 53.4414 219.445 53.9336V55.5625C219.484 56.1406 219.594 56.6602 219.773 57.1211C219.953 57.5742 220.23 57.9336 220.605 58.1992C220.98 58.4648 221.473 58.5977 222.082 58.5977C222.527 58.5977 222.902 58.5 223.207 58.3047C223.512 58.1016 223.758 57.8242 223.945 57.4727C224.141 57.1211 224.277 56.7148 224.355 56.2539C224.441 55.793 224.484 55.2969 224.484 54.7656ZM233.344 51.0859V61H229.969V48.3203H233.145L233.344 51.0859ZM237.164 48.2383L237.105 51.3672C236.941 51.3438 236.742 51.3242 236.508 51.3086C236.281 51.2852 236.074 51.2734 235.887 51.2734C235.41 51.2734 234.996 51.3359 234.645 51.4609C234.301 51.5781 234.012 51.7539 233.777 51.9883C233.551 52.2227 233.379 52.5078 233.262 52.8438C233.152 53.1797 233.09 53.5625 233.074 53.9922L232.395 53.7812C232.395 52.9609 232.477 52.207 232.641 51.5195C232.805 50.8242 233.043 50.2188 233.355 49.7031C233.676 49.1875 234.066 48.7891 234.527 48.5078C234.988 48.2266 235.516 48.0859 236.109 48.0859C236.297 48.0859 236.488 48.1016 236.684 48.1328C236.879 48.1562 237.039 48.1914 237.164 48.2383ZM244.359 61.2344C243.375 61.2344 242.492 61.0781 241.711 60.7656C240.93 60.4453 240.266 60.0039 239.719 59.4414C239.18 58.8789 238.766 58.2266 238.477 57.4844C238.188 56.7344 238.043 55.9375 238.043 55.0938V54.625C238.043 53.6641 238.18 52.7852 238.453 51.9883C238.727 51.1914 239.117 50.5 239.625 49.9141C240.141 49.3281 240.766 48.8789 241.5 48.5664C242.234 48.2461 243.062 48.0859 243.984 48.0859C244.883 48.0859 245.68 48.2344 246.375 48.5312C247.07 48.8281 247.652 49.25 248.121 49.7969C248.598 50.3438 248.957 51 249.199 51.7656C249.441 52.5234 249.562 53.3672 249.562 54.2969V55.7031H239.484V53.4531H246.246V53.1953C246.246 52.7266 246.16 52.3086 245.988 51.9414C245.824 51.5664 245.574 51.2695 245.238 51.0508C244.902 50.832 244.473 50.7227 243.949 50.7227C243.504 50.7227 243.121 50.8203 242.801 51.0156C242.48 51.2109 242.219 51.4844 242.016 51.8359C241.82 52.1875 241.672 52.6016 241.57 53.0781C241.477 53.5469 241.43 54.0625 241.43 54.625V55.0938C241.43 55.6016 241.5 56.0703 241.641 56.5C241.789 56.9297 241.996 57.3008 242.262 57.6133C242.535 57.9258 242.863 58.168 243.246 58.3398C243.637 58.5117 244.078 58.5977 244.57 58.5977C245.18 58.5977 245.746 58.4805 246.27 58.2461C246.801 58.0039 247.258 57.6406 247.641 57.1562L249.281 58.9375C249.016 59.3203 248.652 59.6875 248.191 60.0391C247.738 60.3906 247.191 60.6797 246.551 60.9062C245.91 61.125 245.18 61.2344 244.359 61.2344ZM258.34 57.4961C258.34 57.2539 258.27 57.0352 258.129 56.8398C257.988 56.6445 257.727 56.4648 257.344 56.3008C256.969 56.1289 256.426 55.9727 255.715 55.832C255.074 55.6914 254.477 55.5156 253.922 55.3047C253.375 55.0859 252.898 54.8242 252.492 54.5195C252.094 54.2148 251.781 53.8555 251.555 53.4414C251.328 53.0195 251.215 52.5391 251.215 52C251.215 51.4688 251.328 50.9688 251.555 50.5C251.789 50.0312 252.121 49.6172 252.551 49.2578C252.988 48.8906 253.52 48.6055 254.145 48.4023C254.777 48.1914 255.488 48.0859 256.277 48.0859C257.379 48.0859 258.324 48.2617 259.113 48.6133C259.91 48.9648 260.52 49.4492 260.941 50.0664C261.371 50.6758 261.586 51.3711 261.586 52.1523H258.211C258.211 51.8242 258.141 51.5312 258 51.2734C257.867 51.0078 257.656 50.8008 257.367 50.6523C257.086 50.4961 256.719 50.418 256.266 50.418C255.891 50.418 255.566 50.4844 255.293 50.6172C255.02 50.7422 254.809 50.9141 254.66 51.1328C254.52 51.3438 254.449 51.5781 254.449 51.8359C254.449 52.0312 254.488 52.207 254.566 52.3633C254.652 52.5117 254.789 52.6484 254.977 52.7734C255.164 52.8984 255.406 53.0156 255.703 53.125C256.008 53.2266 256.383 53.3203 256.828 53.4062C257.742 53.5938 258.559 53.8398 259.277 54.1445C259.996 54.4414 260.566 54.8477 260.988 55.3633C261.41 55.8711 261.621 56.5391 261.621 57.3672C261.621 57.9297 261.496 58.4453 261.246 58.9141C260.996 59.3828 260.637 59.793 260.168 60.1445C259.699 60.4883 259.137 60.7578 258.48 60.9531C257.832 61.1406 257.102 61.2344 256.289 61.2344C255.109 61.2344 254.109 61.0234 253.289 60.6016C252.477 60.1797 251.859 59.6445 251.438 58.9961C251.023 58.3398 250.816 57.668 250.816 56.9805H254.016C254.031 57.4414 254.148 57.8125 254.367 58.0938C254.594 58.375 254.879 58.5781 255.223 58.7031C255.574 58.8281 255.953 58.8906 256.359 58.8906C256.797 58.8906 257.16 58.832 257.449 58.7148C257.738 58.5898 257.957 58.4258 258.105 58.2227C258.262 58.0117 258.34 57.7695 258.34 57.4961ZM270.668 57.4961C270.668 57.2539 270.598 57.0352 270.457 56.8398C270.316 56.6445 270.055 56.4648 269.672 56.3008C269.297 56.1289 268.754 55.9727 268.043 55.832C267.402 55.6914 266.805 55.5156 266.25 55.3047C265.703 55.0859 265.227 54.8242 264.82 54.5195C264.422 54.2148 264.109 53.8555 263.883 53.4414C263.656 53.0195 263.543 52.5391 263.543 52C263.543 51.4688 263.656 50.9688 263.883 50.5C264.117 50.0312 264.449 49.6172 264.879 49.2578C265.316 48.8906 265.848 48.6055 266.473 48.4023C267.105 48.1914 267.816 48.0859 268.605 48.0859C269.707 48.0859 270.652 48.2617 271.441 48.6133C272.238 48.9648 272.848 49.4492 273.27 50.0664C273.699 50.6758 273.914 51.3711 273.914 52.1523H270.539C270.539 51.8242 270.469 51.5312 270.328 51.2734C270.195 51.0078 269.984 50.8008 269.695 50.6523C269.414 50.4961 269.047 50.418 268.594 50.418C268.219 50.418 267.895 50.4844 267.621 50.6172C267.348 50.7422 267.137 50.9141 266.988 51.1328C266.848 51.3438 266.777 51.5781 266.777 51.8359C266.777 52.0312 266.816 52.207 266.895 52.3633C266.98 52.5117 267.117 52.6484 267.305 52.7734C267.492 52.8984 267.734 53.0156 268.031 53.125C268.336 53.2266 268.711 53.3203 269.156 53.4062C270.07 53.5938 270.887 53.8398 271.605 54.1445C272.324 54.4414 272.895 54.8477 273.316 55.3633C273.738 55.8711 273.949 56.5391 273.949 57.3672C273.949 57.9297 273.824 58.4453 273.574 58.9141C273.324 59.3828 272.965 59.793 272.496 60.1445C272.027 60.4883 271.465 60.7578 270.809 60.9531C270.16 61.1406 269.43 61.2344 268.617 61.2344C267.438 61.2344 266.438 61.0234 265.617 60.6016C264.805 60.1797 264.188 59.6445 263.766 58.9961C263.352 58.3398 263.145 57.668 263.145 56.9805H266.344C266.359 57.4414 266.477 57.8125 266.695 58.0938C266.922 58.375 267.207 58.5781 267.551 58.7031C267.902 58.8281 268.281 58.8906 268.688 58.8906C269.125 58.8906 269.488 58.832 269.777 58.7148C270.066 58.5898 270.285 58.4258 270.434 58.2227C270.59 58.0117 270.668 57.7695 270.668 57.4961Z" fill="#888888"/>
<path d="M109.219 107.422H100.734V101.07H109.219C110.375 101.07 111.312 100.875 112.031 100.484C112.75 100.094 113.273 99.5547 113.602 98.8672C113.945 98.1641 114.117 97.375 114.117 96.5C114.117 95.5625 113.945 94.6953 113.602 93.8984C113.273 93.1016 112.75 92.4609 112.031 91.9766C111.312 91.4766 110.375 91.2266 109.219 91.2266H103.828V119H95.6016V84.875H109.219C111.953 84.875 114.305 85.375 116.273 86.375C118.258 87.375 119.781 88.75 120.844 90.5C121.906 92.2344 122.438 94.2188 122.438 96.4531C122.438 98.6562 121.906 100.578 120.844 102.219C119.781 103.859 118.258 105.141 116.273 106.062C114.305 106.969 111.953 107.422 109.219 107.422ZM134.461 99.9219V119H126.562V93.6406H133.945L134.461 99.9219ZM141.961 93.4531L141.82 100.789C141.508 100.758 141.086 100.719 140.555 100.672C140.023 100.625 139.578 100.602 139.219 100.602C138.297 100.602 137.5 100.711 136.828 100.93C136.172 101.133 135.625 101.445 135.188 101.867C134.766 102.273 134.453 102.789 134.25 103.414C134.062 104.039 133.977 104.766 133.992 105.594L132.562 104.656C132.562 102.953 132.727 101.406 133.055 100.016C133.398 98.6094 133.883 97.3984 134.508 96.3828C135.133 95.3516 135.891 94.5625 136.781 94.0156C137.672 93.4531 138.672 93.1719 139.781 93.1719C140.172 93.1719 140.555 93.1953 140.93 93.2422C141.32 93.2891 141.664 93.3594 141.961 93.4531ZM142.852 106.578V106.086C142.852 104.227 143.117 102.516 143.648 100.953C144.18 99.375 144.961 98.0078 145.992 96.8516C147.023 95.6953 148.297 94.7969 149.812 94.1562C151.328 93.5 153.078 93.1719 155.062 93.1719C157.062 93.1719 158.82 93.5 160.336 94.1562C161.867 94.7969 163.148 95.6953 164.18 96.8516C165.211 98.0078 165.992 99.375 166.523 100.953C167.055 102.516 167.32 104.227 167.32 106.086V106.578C167.32 108.422 167.055 110.133 166.523 111.711C165.992 113.273 165.211 114.641 164.18 115.812C163.148 116.969 161.875 117.867 160.359 118.508C158.844 119.148 157.094 119.469 155.109 119.469C153.125 119.469 151.367 119.148 149.836 118.508C148.305 117.867 147.023 116.969 145.992 115.812C144.961 114.641 144.18 113.273 143.648 111.711C143.117 110.133 142.852 108.422 142.852 106.578ZM150.75 106.086V106.578C150.75 107.531 150.82 108.422 150.961 109.25C151.102 110.078 151.336 110.805 151.664 111.43C151.992 112.039 152.438 112.516 153 112.859C153.562 113.203 154.266 113.375 155.109 113.375C155.938 113.375 156.625 113.203 157.172 112.859C157.734 112.516 158.18 112.039 158.508 111.43C158.836 110.805 159.07 110.078 159.211 109.25C159.352 108.422 159.422 107.531 159.422 106.578V106.086C159.422 105.164 159.352 104.297 159.211 103.484C159.07 102.656 158.836 101.93 158.508 101.305C158.18 100.664 157.734 100.164 157.172 99.8047C156.609 99.4453 155.906 99.2656 155.062 99.2656C154.234 99.2656 153.539 99.4453 152.977 99.8047C152.43 100.164 151.992 100.664 151.664 101.305C151.336 101.93 151.102 102.656 150.961 103.484C150.82 104.297 150.75 105.164 150.75 106.086ZM171.422 93.6406H179.344V119.82C179.344 121.852 178.953 123.562 178.172 124.953C177.391 126.359 176.273 127.422 174.82 128.141C173.367 128.875 171.633 129.242 169.617 129.242C168.945 129.242 168.328 129.211 167.766 129.148C167.188 129.102 166.555 129 165.867 128.844V122.867C166.273 122.93 166.648 122.977 166.992 123.008C167.336 123.055 167.711 123.078 168.117 123.078C168.836 123.078 169.438 122.961 169.922 122.727C170.406 122.492 170.773 122.133 171.023 121.648C171.289 121.164 171.422 120.555 171.422 119.82V93.6406ZM170.836 87.1016C170.836 85.9766 171.242 85.0547 172.055 84.3359C172.867 83.6172 173.922 83.2578 175.219 83.2578C176.516 83.2578 177.57 83.6172 178.383 84.3359C179.195 85.0547 179.602 85.9766 179.602 87.1016C179.602 88.2266 179.195 89.1484 178.383 89.8672C177.57 90.5859 176.516 90.9453 175.219 90.9453C173.922 90.9453 172.867 90.5859 172.055 89.8672C171.242 89.1484 170.836 88.2266 170.836 87.1016ZM196.102 119.469C194.039 119.469 192.195 119.148 190.57 118.508C188.945 117.852 187.57 116.953 186.445 115.812C185.336 114.672 184.484 113.359 183.891 111.875C183.312 110.391 183.023 108.82 183.023 107.164V106.273C183.023 104.414 183.281 102.695 183.797 101.117C184.312 99.5234 185.078 98.1328 186.094 96.9453C187.109 95.7578 188.383 94.8359 189.914 94.1797C191.445 93.5078 193.227 93.1719 195.258 93.1719C197.055 93.1719 198.664 93.4609 200.086 94.0391C201.508 94.6172 202.711 95.4453 203.695 96.5234C204.695 97.6016 205.453 98.9062 205.969 100.438C206.5 101.969 206.766 103.688 206.766 105.594V108.805H186.047V103.859H199.055V103.25C199.07 102.406 198.922 101.688 198.609 101.094C198.312 100.5 197.875 100.047 197.297 99.7344C196.719 99.4219 196.016 99.2656 195.188 99.2656C194.328 99.2656 193.617 99.4531 193.055 99.8281C192.508 100.203 192.078 100.719 191.766 101.375C191.469 102.016 191.258 102.758 191.133 103.602C191.008 104.445 190.945 105.336 190.945 106.273V107.164C190.945 108.102 191.07 108.953 191.32 109.719C191.586 110.484 191.961 111.141 192.445 111.688C192.945 112.219 193.539 112.633 194.227 112.93C194.93 113.227 195.727 113.375 196.617 113.375C197.695 113.375 198.758 113.172 199.805 112.766C200.852 112.359 201.75 111.688 202.5 110.75L206.086 115.016C205.57 115.75 204.836 116.461 203.883 117.148C202.945 117.836 201.82 118.398 200.508 118.836C199.195 119.258 197.727 119.469 196.102 119.469ZM220.688 113.375C221.422 113.375 222.047 113.242 222.562 112.977C223.094 112.695 223.492 112.305 223.758 111.805C224.039 111.289 224.172 110.672 224.156 109.953H231.586C231.602 111.859 231.133 113.531 230.18 114.969C229.242 116.391 227.961 117.5 226.336 118.297C224.727 119.078 222.906 119.469 220.875 119.469C218.891 119.469 217.156 119.148 215.672 118.508C214.188 117.852 212.945 116.945 211.945 115.789C210.961 114.617 210.219 113.25 209.719 111.688C209.234 110.125 208.992 108.43 208.992 106.602V106.062C208.992 104.234 209.234 102.539 209.719 100.977C210.219 99.3984 210.961 98.0312 211.945 96.875C212.945 95.7031 214.18 94.7969 215.648 94.1562C217.133 93.5 218.859 93.1719 220.828 93.1719C222.938 93.1719 224.797 93.5703 226.406 94.3672C228.031 95.1641 229.305 96.3203 230.227 97.8359C231.148 99.3516 231.602 101.188 231.586 103.344H224.156C224.172 102.578 224.055 101.891 223.805 101.281C223.555 100.672 223.164 100.188 222.633 99.8281C222.117 99.4531 221.453 99.2656 220.641 99.2656C219.828 99.2656 219.172 99.4453 218.672 99.8047C218.172 100.164 217.789 100.664 217.523 101.305C217.273 101.93 217.102 102.648 217.008 103.461C216.93 104.273 216.891 105.141 216.891 106.062V106.602C216.891 107.539 216.93 108.422 217.008 109.25C217.102 110.062 217.281 110.781 217.547 111.406C217.812 112.016 218.195 112.5 218.695 112.859C219.195 113.203 219.859 113.375 220.688 113.375ZM248.32 93.6406V99.125H233.039V93.6406H248.32ZM236.25 87.3359H244.148V110.727C244.148 111.398 244.227 111.922 244.383 112.297C244.539 112.656 244.805 112.914 245.18 113.07C245.57 113.211 246.086 113.281 246.727 113.281C247.18 113.281 247.555 113.273 247.852 113.258C248.148 113.227 248.43 113.188 248.695 113.141V118.789C248.023 119.008 247.32 119.172 246.586 119.281C245.852 119.406 245.07 119.469 244.242 119.469C242.555 119.469 241.109 119.203 239.906 118.672C238.719 118.141 237.812 117.305 237.188 116.164C236.562 115.023 236.25 113.539 236.25 111.711V87.3359ZM277.406 107.422H268.922V101.07H277.406C278.562 101.07 279.5 100.875 280.219 100.484C280.938 100.094 281.461 99.5547 281.789 98.8672C282.133 98.1641 282.305 97.375 282.305 96.5C282.305 95.5625 282.133 94.6953 281.789 93.8984C281.461 93.1016 280.938 92.4609 280.219 91.9766C279.5 91.4766 278.562 91.2266 277.406 91.2266H272.016V119H263.789V84.875H277.406C280.141 84.875 282.492 85.375 284.461 86.375C286.445 87.375 287.969 88.75 289.031 90.5C290.094 92.2344 290.625 94.2188 290.625 96.4531C290.625 98.6562 290.094 100.578 289.031 102.219C287.969 103.859 286.445 105.141 284.461 106.062C282.492 106.969 280.141 107.422 277.406 107.422ZM302.414 83V119H294.516V83H302.414ZM301.477 105.453L299.625 105.5C299.625 103.719 299.844 102.078 300.281 100.578C300.719 99.0781 301.344 97.7734 302.156 96.6641C302.969 95.5547 303.945 94.6953 305.086 94.0859C306.227 93.4766 307.492 93.1719 308.883 93.1719C310.133 93.1719 311.273 93.3516 312.305 93.7109C313.352 94.0703 314.25 94.6484 315 95.4453C315.766 96.2422 316.352 97.2812 316.758 98.5625C317.18 99.8438 317.391 101.406 317.391 103.25V119H309.445V103.203C309.445 102.172 309.297 101.375 309 100.812C308.719 100.234 308.312 99.8359 307.781 99.6172C307.25 99.3828 306.602 99.2656 305.836 99.2656C304.914 99.2656 304.164 99.4219 303.586 99.7344C303.008 100.047 302.562 100.484 302.25 101.047C301.953 101.594 301.75 102.242 301.641 102.992C301.531 103.742 301.477 104.562 301.477 105.453ZM330.117 93.6406V119H322.195V93.6406H330.117ZM321.727 87.1016C321.727 85.9766 322.133 85.0547 322.945 84.3359C323.758 83.6172 324.812 83.2578 326.109 83.2578C327.406 83.2578 328.461 83.6172 329.273 84.3359C330.086 85.0547 330.492 85.9766 330.492 87.1016C330.492 88.2266 330.086 89.1484 329.273 89.8672C328.461 90.5859 327.406 90.9453 326.109 90.9453C324.812 90.9453 323.758 90.5859 322.945 89.8672C322.133 89.1484 321.727 88.2266 321.727 87.1016ZM343.336 83V119H335.414V83H343.336ZM347.227 106.578V106.086C347.227 104.227 347.492 102.516 348.023 100.953C348.555 99.375 349.336 98.0078 350.367 96.8516C351.398 95.6953 352.672 94.7969 354.188 94.1562C355.703 93.5 357.453 93.1719 359.438 93.1719C361.438 93.1719 363.195 93.5 364.711 94.1562C366.242 94.7969 367.523 95.6953 368.555 96.8516C369.586 98.0078 370.367 99.375 370.898 100.953C371.43 102.516 371.695 104.227 371.695 106.086V106.578C371.695 108.422 371.43 110.133 370.898 111.711C370.367 113.273 369.586 114.641 368.555 115.812C367.523 116.969 366.25 117.867 364.734 118.508C363.219 119.148 361.469 119.469 359.484 119.469C357.5 119.469 355.742 119.148 354.211 118.508C352.68 117.867 351.398 116.969 350.367 115.812C349.336 114.641 348.555 113.273 348.023 111.711C347.492 110.133 347.227 108.422 347.227 106.578ZM355.125 106.086V106.578C355.125 107.531 355.195 108.422 355.336 109.25C355.477 110.078 355.711 110.805 356.039 111.43C356.367 112.039 356.812 112.516 357.375 112.859C357.938 113.203 358.641 113.375 359.484 113.375C360.312 113.375 361 113.203 361.547 112.859C362.109 112.516 362.555 112.039 362.883 111.43C363.211 110.805 363.445 110.078 363.586 109.25C363.727 108.422 363.797 107.531 363.797 106.578V106.086C363.797 105.164 363.727 104.297 363.586 103.484C363.445 102.656 363.211 101.93 362.883 101.305C362.555 100.664 362.109 100.164 361.547 99.8047C360.984 99.4453 360.281 99.2656 359.438 99.2656C358.609 99.2656 357.914 99.4453 357.352 99.8047C356.805 100.164 356.367 100.664 356.039 101.305C355.711 101.93 355.477 102.656 355.336 103.484C355.195 104.297 355.125 105.164 355.125 106.086ZM388.5 111.875C388.5 111.438 388.352 111.062 388.055 110.75C387.773 110.422 387.273 110.125 386.555 109.859C385.836 109.578 384.828 109.297 383.531 109.016C382.297 108.75 381.133 108.398 380.039 107.961C378.961 107.523 378.016 106.992 377.203 106.367C376.391 105.742 375.75 105 375.281 104.141C374.828 103.281 374.602 102.297 374.602 101.188C374.602 100.109 374.828 99.0938 375.281 98.1406C375.75 97.1719 376.43 96.3203 377.32 95.5859C378.227 94.8359 379.328 94.25 380.625 93.8281C381.922 93.3906 383.398 93.1719 385.055 93.1719C387.336 93.1719 389.305 93.5234 390.961 94.2266C392.617 94.9141 393.891 95.8828 394.781 97.1328C395.688 98.3672 396.141 99.7969 396.141 101.422H388.242C388.242 100.781 388.133 100.234 387.914 99.7812C387.711 99.3281 387.375 98.9844 386.906 98.75C386.438 98.5 385.812 98.375 385.031 98.375C384.484 98.375 383.984 98.4766 383.531 98.6797C383.094 98.8828 382.742 99.1641 382.477 99.5234C382.211 99.8828 382.078 100.305 382.078 100.789C382.078 101.133 382.156 101.445 382.312 101.727C382.484 101.992 382.742 102.242 383.086 102.477C383.43 102.695 383.867 102.898 384.398 103.086C384.93 103.258 385.57 103.414 386.32 103.555C388.023 103.867 389.617 104.312 391.102 104.891C392.586 105.469 393.789 106.289 394.711 107.352C395.648 108.414 396.117 109.844 396.117 111.641C396.117 112.766 395.859 113.805 395.344 114.758C394.828 115.695 394.086 116.523 393.117 117.242C392.148 117.945 390.984 118.492 389.625 118.883C388.266 119.273 386.734 119.469 385.031 119.469C382.609 119.469 380.562 119.039 378.891 118.18C377.219 117.305 375.953 116.211 375.094 114.898C374.25 113.57 373.828 112.227 373.828 110.867H381.188C381.219 111.648 381.406 112.289 381.75 112.789C382.109 113.289 382.586 113.656 383.18 113.891C383.773 114.125 384.461 114.242 385.242 114.242C385.961 114.242 386.555 114.141 387.023 113.938C387.508 113.734 387.875 113.461 388.125 113.117C388.375 112.758 388.5 112.344 388.5 111.875ZM398.836 106.578V106.086C398.836 104.227 399.102 102.516 399.633 100.953C400.164 99.375 400.945 98.0078 401.977 96.8516C403.008 95.6953 404.281 94.7969 405.797 94.1562C407.312 93.5 409.062 93.1719 411.047 93.1719C413.047 93.1719 414.805 93.5 416.32 94.1562C417.852 94.7969 419.133 95.6953 420.164 96.8516C421.195 98.0078 421.977 99.375 422.508 100.953C423.039 102.516 423.305 104.227 423.305 106.086V106.578C423.305 108.422 423.039 110.133 422.508 111.711C421.977 113.273 421.195 114.641 420.164 115.812C419.133 116.969 417.859 117.867 416.344 118.508C414.828 119.148 413.078 119.469 411.094 119.469C409.109 119.469 407.352 119.148 405.82 118.508C404.289 117.867 403.008 116.969 401.977 115.812C400.945 114.641 400.164 113.273 399.633 111.711C399.102 110.133 398.836 108.422 398.836 106.578ZM406.734 106.086V106.578C406.734 107.531 406.805 108.422 406.945 109.25C407.086 110.078 407.32 110.805 407.648 111.43C407.977 112.039 408.422 112.516 408.984 112.859C409.547 113.203 410.25 113.375 411.094 113.375C411.922 113.375 412.609 113.203 413.156 112.859C413.719 112.516 414.164 112.039 414.492 111.43C414.82 110.805 415.055 110.078 415.195 109.25C415.336 108.422 415.406 107.531 415.406 106.578V106.086C415.406 105.164 415.336 104.297 415.195 103.484C415.055 102.656 414.82 101.93 414.492 101.305C414.164 100.664 413.719 100.164 413.156 99.8047C412.594 99.4453 411.891 99.2656 411.047 99.2656C410.219 99.2656 409.523 99.4453 408.961 99.8047C408.414 100.164 407.977 100.664 407.648 101.305C407.32 101.93 407.086 102.656 406.945 103.484C406.805 104.297 406.734 105.164 406.734 106.086ZM434.789 98.5156V128.75H426.891V93.6406H434.25L434.789 98.5156ZM450.352 106.016V106.508C450.352 108.352 450.141 110.062 449.719 111.641C449.297 113.219 448.672 114.594 447.844 115.766C447.016 116.938 445.984 117.852 444.75 118.508C443.531 119.148 442.117 119.469 440.508 119.469C438.992 119.469 437.688 119.133 436.594 118.461C435.5 117.789 434.586 116.859 433.852 115.672C433.117 114.484 432.523 113.125 432.07 111.594C431.617 110.062 431.258 108.445 430.992 106.742V106.109C431.258 104.281 431.617 102.586 432.07 101.023C432.523 99.4453 433.117 98.0703 433.852 96.8984C434.586 95.7266 435.492 94.8125 436.57 94.1562C437.664 93.5 438.969 93.1719 440.484 93.1719C442.094 93.1719 443.508 93.4766 444.727 94.0859C445.961 94.6953 446.992 95.5703 447.82 96.7109C448.664 97.8359 449.297 99.1875 449.719 100.766C450.141 102.344 450.352 104.094 450.352 106.016ZM442.453 106.508V106.016C442.453 105.031 442.383 104.133 442.242 103.32C442.102 102.492 441.875 101.773 441.562 101.164C441.266 100.555 440.867 100.086 440.367 99.7578C439.867 99.4297 439.25 99.2656 438.516 99.2656C437.672 99.2656 436.961 99.3984 436.383 99.6641C435.82 99.9141 435.367 100.305 435.023 100.836C434.695 101.352 434.461 102 434.32 102.781C434.195 103.547 434.141 104.445 434.156 105.477V107.398C434.125 108.586 434.242 109.633 434.508 110.539C434.773 111.43 435.234 112.125 435.891 112.625C436.547 113.125 437.438 113.375 438.562 113.375C439.312 113.375 439.938 113.203 440.438 112.859C440.938 112.5 441.336 112.008 441.633 111.383C441.93 110.742 442.141 110.008 442.266 109.18C442.391 108.352 442.453 107.461 442.453 106.508ZM461.602 83V119H453.703V83H461.602ZM460.664 105.453L458.812 105.5C458.812 103.719 459.031 102.078 459.469 100.578C459.906 99.0781 460.531 97.7734 461.344 96.6641C462.156 95.5547 463.133 94.6953 464.273 94.0859C465.414 93.4766 466.68 93.1719 468.07 93.1719C469.32 93.1719 470.461 93.3516 471.492 93.7109C472.539 94.0703 473.438 94.6484 474.188 95.4453C474.953 96.2422 475.539 97.2812 475.945 98.5625C476.367 99.8438 476.578 101.406 476.578 103.25V119H468.633V103.203C468.633 102.172 468.484 101.375 468.188 100.812C467.906 100.234 467.5 99.8359 466.969 99.6172C466.438 99.3828 465.789 99.2656 465.023 99.2656C464.102 99.2656 463.352 99.4219 462.773 99.7344C462.195 100.047 461.75 100.484 461.438 101.047C461.141 101.594 460.938 102.242 460.828 102.992C460.719 103.742 460.664 104.562 460.664 105.453ZM488.742 116.023L495.305 93.6406H503.789L493.594 122.773C493.375 123.414 493.086 124.102 492.727 124.836C492.367 125.586 491.875 126.297 491.25 126.969C490.625 127.641 489.82 128.188 488.836 128.609C487.867 129.031 486.664 129.242 485.227 129.242C484.461 129.242 483.898 129.203 483.539 129.125C483.195 129.062 482.664 128.945 481.945 128.773V123.125C482.148 123.125 482.32 123.125 482.461 123.125C482.617 123.125 482.789 123.125 482.977 123.125C483.82 123.125 484.492 123.039 484.992 122.867C485.508 122.695 485.898 122.445 486.164 122.117C486.445 121.789 486.664 121.391 486.82 120.922L488.742 116.023ZM487.078 93.6406L492.07 111.383L492.938 119.75H487.641L478.617 93.6406H487.078Z" fill="black"/>
<path d="M1134 0H1348C1356.28 0 1363 6.71573 1363 15V148C1363 156.284 1356.28 163 1348 163H1134V0Z" fill="#146C94"/>
<path d="M1234.26 103.786H1262.74V109.357H1234.26V103.786ZM1239.96 114.929H1257.04V120.5H1239.96V114.929ZM1248.5 42.5C1240.95 42.5 1233.71 45.4349 1228.37 50.6592C1223.03 55.8834 1220.03 62.969 1220.03 70.3571C1219.84 74.4057 1220.63 78.4412 1222.34 82.1315C1224.05 85.8219 1226.64 89.0616 1229.88 91.5843C1232.73 94.175 1234.26 95.6514 1234.26 98.2143H1239.96C1239.96 93.0886 1236.8 90.2193 1233.72 87.4614C1231.06 85.4676 1228.94 82.8658 1227.55 79.8838C1226.15 76.9019 1225.53 73.6308 1225.72 70.3571C1225.72 64.4466 1228.12 58.7781 1232.39 54.5988C1236.67 50.4194 1242.46 48.0714 1248.5 48.0714C1254.54 48.0714 1260.33 50.4194 1264.61 54.5988C1268.88 58.7781 1271.28 64.4466 1271.28 70.3571C1271.47 73.6333 1270.84 76.9059 1269.44 79.888C1268.04 82.8701 1265.92 85.4706 1263.25 87.4614C1260.2 90.2471 1257.04 93.0329 1257.04 98.2143H1262.74C1262.74 95.6514 1264.25 94.175 1267.12 91.5564C1270.36 89.0381 1272.94 85.8031 1274.66 82.1176C1276.37 78.4321 1277.16 74.4014 1276.97 70.3571C1276.97 66.6989 1276.24 63.0765 1274.81 59.6967C1273.37 56.3169 1271.28 53.2459 1268.63 50.6592C1265.99 48.0724 1262.85 46.0205 1259.4 44.6205C1255.94 43.2205 1252.24 42.5 1248.5 42.5Z" fill="white"/>
</svg>
