<svg width="1363" height="163" viewBox="0 0 1363 163" fill="none" xmlns="http://www.w3.org/2000/svg">
<path d="M0 15C0 6.71573 6.71573 0 15 0H37V163H15C6.71573 163 0 156.284 0 148V15Z" fill="#146C94"/>
<rect width="1097" height="163" transform="translate(37)" fill="#F0F0F0"/>
<path d="M101.906 53.9219L94.3945 51.2383V48.0859L104.602 52.375V54.6367L101.906 53.9219ZM94.3945 56.1719L101.918 53.4297L104.602 52.7852V55.0352L94.3945 59.3242V56.1719ZM119.578 53.5117H115.195L115.172 51.0977H118.852C119.5 51.0977 120.031 51.0156 120.445 50.8516C120.859 50.6797 121.168 50.4336 121.371 50.1133C121.582 49.7852 121.688 49.3867 121.688 48.918C121.688 48.3867 121.586 47.957 121.383 47.6289C121.188 47.3008 120.879 47.0625 120.457 46.9141C120.043 46.7656 119.508 46.6914 118.852 46.6914H116.414V61H112.898V43.9375H118.852C119.844 43.9375 120.73 44.0312 121.512 44.2188C122.301 44.4062 122.969 44.6914 123.516 45.0742C124.062 45.457 124.48 45.9414 124.77 46.5273C125.059 47.1055 125.203 47.793 125.203 48.5898C125.203 49.293 125.043 49.9414 124.723 50.5352C124.41 51.1289 123.914 51.6133 123.234 51.9883C122.562 52.3633 121.684 52.5703 120.598 52.6094L119.578 53.5117ZM119.426 61H114.234L115.605 58.2578H119.426C120.043 58.2578 120.547 58.1602 120.938 57.9648C121.328 57.7617 121.617 57.4883 121.805 57.1445C121.992 56.8008 122.086 56.4062 122.086 55.9609C122.086 55.4609 122 55.0273 121.828 54.6602C121.664 54.293 121.398 54.0117 121.031 53.8164C120.664 53.6133 120.18 53.5117 119.578 53.5117H116.191L116.215 51.0977H120.434L121.242 52.0469C122.281 52.0312 123.117 52.2148 123.75 52.5977C124.391 52.9727 124.855 53.4609 125.145 54.0625C125.441 54.6641 125.59 55.3086 125.59 55.9961C125.59 57.0898 125.352 58.0117 124.875 58.7617C124.398 59.5039 123.699 60.0625 122.777 60.4375C121.863 60.8125 120.746 61 119.426 61ZM135.516 57.9648V48.3203H138.891V61H135.715L135.516 57.9648ZM135.891 55.3633L136.887 55.3398C136.887 56.1836 136.789 56.9688 136.594 57.6953C136.398 58.4141 136.105 59.0391 135.715 59.5703C135.324 60.0938 134.832 60.5039 134.238 60.8008C133.645 61.0898 132.945 61.2344 132.141 61.2344C131.523 61.2344 130.953 61.1484 130.43 60.9766C129.914 60.7969 129.469 60.5195 129.094 60.1445C128.727 59.7617 128.438 59.2734 128.227 58.6797C128.023 58.0781 127.922 57.3555 127.922 56.5117V48.3203H131.297V56.5352C131.297 56.9102 131.34 57.2266 131.426 57.4844C131.52 57.7422 131.648 57.9531 131.812 58.1172C131.977 58.2812 132.168 58.3984 132.387 58.4688C132.613 58.5391 132.863 58.5742 133.137 58.5742C133.832 58.5742 134.379 58.4336 134.777 58.1523C135.184 57.8711 135.469 57.4883 135.633 57.0039C135.805 56.5117 135.891 55.9648 135.891 55.3633ZM148.324 57.4961C148.324 57.2539 148.254 57.0352 148.113 56.8398C147.973 56.6445 147.711 56.4648 147.328 56.3008C146.953 56.1289 146.41 55.9727 145.699 55.832C145.059 55.6914 144.461 55.5156 143.906 55.3047C143.359 55.0859 142.883 54.8242 142.477 54.5195C142.078 54.2148 141.766 53.8555 141.539 53.4414C141.312 53.0195 141.199 52.5391 141.199 52C141.199 51.4688 141.312 50.9688 141.539 50.5C141.773 50.0312 142.105 49.6172 142.535 49.2578C142.973 48.8906 143.504 48.6055 144.129 48.4023C144.762 48.1914 145.473 48.0859 146.262 48.0859C147.363 48.0859 148.309 48.2617 149.098 48.6133C149.895 48.9648 150.504 49.4492 150.926 50.0664C151.355 50.6758 151.57 51.3711 151.57 52.1523H148.195C148.195 51.8242 148.125 51.5312 147.984 51.2734C147.852 51.0078 147.641 50.8008 147.352 50.6523C147.07 50.4961 146.703 50.418 146.25 50.418C145.875 50.418 145.551 50.4844 145.277 50.6172C145.004 50.7422 144.793 50.9141 144.645 51.1328C144.504 51.3438 144.434 51.5781 144.434 51.8359C144.434 52.0312 144.473 52.207 144.551 52.3633C144.637 52.5117 144.773 52.6484 144.961 52.7734C145.148 52.8984 145.391 53.0156 145.688 53.125C145.992 53.2266 146.367 53.3203 146.812 53.4062C147.727 53.5938 148.543 53.8398 149.262 54.1445C149.98 54.4414 150.551 54.8477 150.973 55.3633C151.395 55.8711 151.605 56.5391 151.605 57.3672C151.605 57.9297 151.48 58.4453 151.23 58.9141C150.98 59.3828 150.621 59.793 150.152 60.1445C149.684 60.4883 149.121 60.7578 148.465 60.9531C147.816 61.1406 147.086 61.2344 146.273 61.2344C145.094 61.2344 144.094 61.0234 143.273 60.6016C142.461 60.1797 141.844 59.6445 141.422 58.9961C141.008 58.3398 140.801 57.668 140.801 56.9805H144C144.016 57.4414 144.133 57.8125 144.352 58.0938C144.578 58.375 144.863 58.5781 145.207 58.7031C145.559 58.8281 145.938 58.8906 146.344 58.8906C146.781 58.8906 147.145 58.832 147.434 58.7148C147.723 58.5898 147.941 58.4258 148.09 58.2227C148.246 58.0117 148.324 57.7695 148.324 57.4961ZM160.652 57.4961C160.652 57.2539 160.582 57.0352 160.441 56.8398C160.301 56.6445 160.039 56.4648 159.656 56.3008C159.281 56.1289 158.738 55.9727 158.027 55.832C157.387 55.6914 156.789 55.5156 156.234 55.3047C155.688 55.0859 155.211 54.8242 154.805 54.5195C154.406 54.2148 154.094 53.8555 153.867 53.4414C153.641 53.0195 153.527 52.5391 153.527 52C153.527 51.4688 153.641 50.9688 153.867 50.5C154.102 50.0312 154.434 49.6172 154.863 49.2578C155.301 48.8906 155.832 48.6055 156.457 48.4023C157.09 48.1914 157.801 48.0859 158.59 48.0859C159.691 48.0859 160.637 48.2617 161.426 48.6133C162.223 48.9648 162.832 49.4492 163.254 50.0664C163.684 50.6758 163.898 51.3711 163.898 52.1523H160.523C160.523 51.8242 160.453 51.5312 160.312 51.2734C160.18 51.0078 159.969 50.8008 159.68 50.6523C159.398 50.4961 159.031 50.418 158.578 50.418C158.203 50.418 157.879 50.4844 157.605 50.6172C157.332 50.7422 157.121 50.9141 156.973 51.1328C156.832 51.3438 156.762 51.5781 156.762 51.8359C156.762 52.0312 156.801 52.207 156.879 52.3633C156.965 52.5117 157.102 52.6484 157.289 52.7734C157.477 52.8984 157.719 53.0156 158.016 53.125C158.32 53.2266 158.695 53.3203 159.141 53.4062C160.055 53.5938 160.871 53.8398 161.59 54.1445C162.309 54.4414 162.879 54.8477 163.301 55.3633C163.723 55.8711 163.934 56.5391 163.934 57.3672C163.934 57.9297 163.809 58.4453 163.559 58.9141C163.309 59.3828 162.949 59.793 162.48 60.1445C162.012 60.4883 161.449 60.7578 160.793 60.9531C160.145 61.1406 159.414 61.2344 158.602 61.2344C157.422 61.2344 156.422 61.0234 155.602 60.6016C154.789 60.1797 154.172 59.6445 153.75 58.9961C153.336 58.3398 153.129 57.668 153.129 56.9805H156.328C156.344 57.4414 156.461 57.8125 156.68 58.0938C156.906 58.375 157.191 58.5781 157.535 58.7031C157.887 58.8281 158.266 58.8906 158.672 58.8906C159.109 58.8906 159.473 58.832 159.762 58.7148C160.051 58.5898 160.27 58.4258 160.418 58.2227C160.574 58.0117 160.652 57.7695 160.652 57.4961ZM173.016 53.5117H168.633L168.609 51.0977H172.289C172.938 51.0977 173.469 51.0156 173.883 50.8516C174.297 50.6797 174.605 50.4336 174.809 50.1133C175.02 49.7852 175.125 49.3867 175.125 48.918C175.125 48.3867 175.023 47.957 174.82 47.6289C174.625 47.3008 174.316 47.0625 173.895 46.9141C173.48 46.7656 172.945 46.6914 172.289 46.6914H169.852V61H166.336V43.9375H172.289C173.281 43.9375 174.168 44.0312 174.949 44.2188C175.738 44.4062 176.406 44.6914 176.953 45.0742C177.5 45.457 177.918 45.9414 178.207 46.5273C178.496 47.1055 178.641 47.793 178.641 48.5898C178.641 49.293 178.48 49.9414 178.16 50.5352C177.848 51.1289 177.352 51.6133 176.672 51.9883C176 52.3633 175.121 52.5703 174.035 52.6094L173.016 53.5117ZM172.863 61H167.672L169.043 58.2578H172.863C173.48 58.2578 173.984 58.1602 174.375 57.9648C174.766 57.7617 175.055 57.4883 175.242 57.1445C175.43 56.8008 175.523 56.4062 175.523 55.9609C175.523 55.4609 175.438 55.0273 175.266 54.6602C175.102 54.293 174.836 54.0117 174.469 53.8164C174.102 53.6133 173.617 53.5117 173.016 53.5117H169.629L169.652 51.0977H173.871L174.68 52.0469C175.719 52.0312 176.555 52.2148 177.188 52.5977C177.828 52.9727 178.293 53.4609 178.582 54.0625C178.879 54.6641 179.027 55.3086 179.027 55.9961C179.027 57.0898 178.789 58.0117 178.312 58.7617C177.836 59.5039 177.137 60.0625 176.215 60.4375C175.301 60.8125 174.184 61 172.863 61ZM180.914 54.7891V54.543C180.914 53.6133 181.047 52.7578 181.312 51.9766C181.578 51.1875 181.965 50.5039 182.473 49.9258C182.98 49.3477 183.605 48.8984 184.348 48.5781C185.09 48.25 185.941 48.0859 186.902 48.0859C187.863 48.0859 188.719 48.25 189.469 48.5781C190.219 48.8984 190.848 49.3477 191.355 49.9258C191.871 50.5039 192.262 51.1875 192.527 51.9766C192.793 52.7578 192.926 53.6133 192.926 54.543V54.7891C192.926 55.7109 192.793 56.5664 192.527 57.3555C192.262 58.1367 191.871 58.8203 191.355 59.4062C190.848 59.9844 190.223 60.4336 189.48 60.7539C188.738 61.0742 187.887 61.2344 186.926 61.2344C185.965 61.2344 185.109 61.0742 184.359 60.7539C183.617 60.4336 182.988 59.9844 182.473 59.4062C181.965 58.8203 181.578 58.1367 181.312 57.3555C181.047 56.5664 180.914 55.7109 180.914 54.7891ZM184.289 54.543V54.7891C184.289 55.3203 184.336 55.8164 184.43 56.2773C184.523 56.7383 184.672 57.1445 184.875 57.4961C185.086 57.8398 185.359 58.1094 185.695 58.3047C186.031 58.5 186.441 58.5977 186.926 58.5977C187.395 58.5977 187.797 58.5 188.133 58.3047C188.469 58.1094 188.738 57.8398 188.941 57.4961C189.145 57.1445 189.293 56.7383 189.387 56.2773C189.488 55.8164 189.539 55.3203 189.539 54.7891V54.543C189.539 54.0273 189.488 53.543 189.387 53.0898C189.293 52.6289 189.141 52.2227 188.93 51.8711C188.727 51.5117 188.457 51.2305 188.121 51.0273C187.785 50.8242 187.379 50.7227 186.902 50.7227C186.426 50.7227 186.02 50.8242 185.684 51.0273C185.355 51.2305 185.086 51.5117 184.875 51.8711C184.672 52.2227 184.523 52.6289 184.43 53.0898C184.336 53.543 184.289 54.0273 184.289 54.543ZM201.855 57.4961C201.855 57.2539 201.785 57.0352 201.645 56.8398C201.504 56.6445 201.242 56.4648 200.859 56.3008C200.484 56.1289 199.941 55.9727 199.23 55.832C198.59 55.6914 197.992 55.5156 197.438 55.3047C196.891 55.0859 196.414 54.8242 196.008 54.5195C195.609 54.2148 195.297 53.8555 195.07 53.4414C194.844 53.0195 194.73 52.5391 194.73 52C194.73 51.4688 194.844 50.9688 195.07 50.5C195.305 50.0312 195.637 49.6172 196.066 49.2578C196.504 48.8906 197.035 48.6055 197.66 48.4023C198.293 48.1914 199.004 48.0859 199.793 48.0859C200.895 48.0859 201.84 48.2617 202.629 48.6133C203.426 48.9648 204.035 49.4492 204.457 50.0664C204.887 50.6758 205.102 51.3711 205.102 52.1523H201.727C201.727 51.8242 201.656 51.5312 201.516 51.2734C201.383 51.0078 201.172 50.8008 200.883 50.6523C200.602 50.4961 200.234 50.418 199.781 50.418C199.406 50.418 199.082 50.4844 198.809 50.6172C198.535 50.7422 198.324 50.9141 198.176 51.1328C198.035 51.3438 197.965 51.5781 197.965 51.8359C197.965 52.0312 198.004 52.207 198.082 52.3633C198.168 52.5117 198.305 52.6484 198.492 52.7734C198.68 52.8984 198.922 53.0156 199.219 53.125C199.523 53.2266 199.898 53.3203 200.344 53.4062C201.258 53.5938 202.074 53.8398 202.793 54.1445C203.512 54.4414 204.082 54.8477 204.504 55.3633C204.926 55.8711 205.137 56.5391 205.137 57.3672C205.137 57.9297 205.012 58.4453 204.762 58.9141C204.512 59.3828 204.152 59.793 203.684 60.1445C203.215 60.4883 202.652 60.7578 201.996 60.9531C201.348 61.1406 200.617 61.2344 199.805 61.2344C198.625 61.2344 197.625 61.0234 196.805 60.6016C195.992 60.1797 195.375 59.6445 194.953 58.9961C194.539 58.3398 194.332 57.668 194.332 56.9805H197.531C197.547 57.4414 197.664 57.8125 197.883 58.0938C198.109 58.375 198.395 58.5781 198.738 58.7031C199.09 58.8281 199.469 58.8906 199.875 58.8906C200.312 58.8906 200.676 58.832 200.965 58.7148C201.254 58.5898 201.473 58.4258 201.621 58.2227C201.777 58.0117 201.855 57.7695 201.855 57.4961ZM214.184 57.4961C214.184 57.2539 214.113 57.0352 213.973 56.8398C213.832 56.6445 213.57 56.4648 213.188 56.3008C212.812 56.1289 212.27 55.9727 211.559 55.832C210.918 55.6914 210.32 55.5156 209.766 55.3047C209.219 55.0859 208.742 54.8242 208.336 54.5195C207.938 54.2148 207.625 53.8555 207.398 53.4414C207.172 53.0195 207.059 52.5391 207.059 52C207.059 51.4688 207.172 50.9688 207.398 50.5C207.633 50.0312 207.965 49.6172 208.395 49.2578C208.832 48.8906 209.363 48.6055 209.988 48.4023C210.621 48.1914 211.332 48.0859 212.121 48.0859C213.223 48.0859 214.168 48.2617 214.957 48.6133C215.754 48.9648 216.363 49.4492 216.785 50.0664C217.215 50.6758 217.43 51.3711 217.43 52.1523H214.055C214.055 51.8242 213.984 51.5312 213.844 51.2734C213.711 51.0078 213.5 50.8008 213.211 50.6523C212.93 50.4961 212.562 50.418 212.109 50.418C211.734 50.418 211.41 50.4844 211.137 50.6172C210.863 50.7422 210.652 50.9141 210.504 51.1328C210.363 51.3438 210.293 51.5781 210.293 51.8359C210.293 52.0312 210.332 52.207 210.41 52.3633C210.496 52.5117 210.633 52.6484 210.82 52.7734C211.008 52.8984 211.25 53.0156 211.547 53.125C211.852 53.2266 212.227 53.3203 212.672 53.4062C213.586 53.5938 214.402 53.8398 215.121 54.1445C215.84 54.4414 216.41 54.8477 216.832 55.3633C217.254 55.8711 217.465 56.5391 217.465 57.3672C217.465 57.9297 217.34 58.4453 217.09 58.9141C216.84 59.3828 216.48 59.793 216.012 60.1445C215.543 60.4883 214.98 60.7578 214.324 60.9531C213.676 61.1406 212.945 61.2344 212.133 61.2344C210.953 61.2344 209.953 61.0234 209.133 60.6016C208.32 60.1797 207.703 59.6445 207.281 58.9961C206.867 58.3398 206.66 57.668 206.66 56.9805H209.859C209.875 57.4414 209.992 57.8125 210.211 58.0938C210.438 58.375 210.723 58.5781 211.066 58.7031C211.418 58.8281 211.797 58.8906 212.203 58.8906C212.641 58.8906 213.004 58.832 213.293 58.7148C213.582 58.5898 213.801 58.4258 213.949 58.2227C214.105 58.0117 214.184 57.7695 214.184 57.4961Z" fill="#888888"/>
<path d="M109.219 107.422H100.734V101.07H109.219C110.375 101.07 111.312 100.875 112.031 100.484C112.75 100.094 113.273 99.5547 113.602 98.8672C113.945 98.1641 114.117 97.375 114.117 96.5C114.117 95.5625 113.945 94.6953 113.602 93.8984C113.273 93.1016 112.75 92.4609 112.031 91.9766C111.312 91.4766 110.375 91.2266 109.219 91.2266H103.828V119H95.6016V84.875H109.219C111.953 84.875 114.305 85.375 116.273 86.375C118.258 87.375 119.781 88.75 120.844 90.5C121.906 92.2344 122.438 94.2188 122.438 96.4531C122.438 98.6562 121.906 100.578 120.844 102.219C119.781 103.859 118.258 105.141 116.273 106.062C114.305 106.969 111.953 107.422 109.219 107.422ZM134.461 99.9219V119H126.562V93.6406H133.945L134.461 99.9219ZM141.961 93.4531L141.82 100.789C141.508 100.758 141.086 100.719 140.555 100.672C140.023 100.625 139.578 100.602 139.219 100.602C138.297 100.602 137.5 100.711 136.828 100.93C136.172 101.133 135.625 101.445 135.188 101.867C134.766 102.273 134.453 102.789 134.25 103.414C134.062 104.039 133.977 104.766 133.992 105.594L132.562 104.656C132.562 102.953 132.727 101.406 133.055 100.016C133.398 98.6094 133.883 97.3984 134.508 96.3828C135.133 95.3516 135.891 94.5625 136.781 94.0156C137.672 93.4531 138.672 93.1719 139.781 93.1719C140.172 93.1719 140.555 93.1953 140.93 93.2422C141.32 93.2891 141.664 93.3594 141.961 93.4531ZM142.852 106.578V106.086C142.852 104.227 143.117 102.516 143.648 100.953C144.18 99.375 144.961 98.0078 145.992 96.8516C147.023 95.6953 148.297 94.7969 149.812 94.1562C151.328 93.5 153.078 93.1719 155.062 93.1719C157.062 93.1719 158.82 93.5 160.336 94.1562C161.867 94.7969 163.148 95.6953 164.18 96.8516C165.211 98.0078 165.992 99.375 166.523 100.953C167.055 102.516 167.32 104.227 167.32 106.086V106.578C167.32 108.422 167.055 110.133 166.523 111.711C165.992 113.273 165.211 114.641 164.18 115.812C163.148 116.969 161.875 117.867 160.359 118.508C158.844 119.148 157.094 119.469 155.109 119.469C153.125 119.469 151.367 119.148 149.836 118.508C148.305 117.867 147.023 116.969 145.992 115.812C144.961 114.641 144.18 113.273 143.648 111.711C143.117 110.133 142.852 108.422 142.852 106.578ZM150.75 106.086V106.578C150.75 107.531 150.82 108.422 150.961 109.25C151.102 110.078 151.336 110.805 151.664 111.43C151.992 112.039 152.438 112.516 153 112.859C153.562 113.203 154.266 113.375 155.109 113.375C155.938 113.375 156.625 113.203 157.172 112.859C157.734 112.516 158.18 112.039 158.508 111.43C158.836 110.805 159.07 110.078 159.211 109.25C159.352 108.422 159.422 107.531 159.422 106.578V106.086C159.422 105.164 159.352 104.297 159.211 103.484C159.07 102.656 158.836 101.93 158.508 101.305C158.18 100.664 157.734 100.164 157.172 99.8047C156.609 99.4453 155.906 99.2656 155.062 99.2656C154.234 99.2656 153.539 99.4453 152.977 99.8047C152.43 100.164 151.992 100.664 151.664 101.305C151.336 101.93 151.102 102.656 150.961 103.484C150.82 104.297 150.75 105.164 150.75 106.086ZM184.195 93.6406V99.125H168.914V93.6406H184.195ZM172.125 87.3359H180.023V110.727C180.023 111.398 180.102 111.922 180.258 112.297C180.414 112.656 180.68 112.914 181.055 113.07C181.445 113.211 181.961 113.281 182.602 113.281C183.055 113.281 183.43 113.273 183.727 113.258C184.023 113.227 184.305 113.188 184.57 113.141V118.789C183.898 119.008 183.195 119.172 182.461 119.281C181.727 119.406 180.945 119.469 180.117 119.469C178.43 119.469 176.984 119.203 175.781 118.672C174.594 118.141 173.688 117.305 173.062 116.164C172.438 115.023 172.125 113.539 172.125 111.711V87.3359ZM185.648 106.578V106.086C185.648 104.227 185.914 102.516 186.445 100.953C186.977 99.375 187.758 98.0078 188.789 96.8516C189.82 95.6953 191.094 94.7969 192.609 94.1562C194.125 93.5 195.875 93.1719 197.859 93.1719C199.859 93.1719 201.617 93.5 203.133 94.1562C204.664 94.7969 205.945 95.6953 206.977 96.8516C208.008 98.0078 208.789 99.375 209.32 100.953C209.852 102.516 210.117 104.227 210.117 106.086V106.578C210.117 108.422 209.852 110.133 209.32 111.711C208.789 113.273 208.008 114.641 206.977 115.812C205.945 116.969 204.672 117.867 203.156 118.508C201.641 119.148 199.891 119.469 197.906 119.469C195.922 119.469 194.164 119.148 192.633 118.508C191.102 117.867 189.82 116.969 188.789 115.812C187.758 114.641 186.977 113.273 186.445 111.711C185.914 110.133 185.648 108.422 185.648 106.578ZM193.547 106.086V106.578C193.547 107.531 193.617 108.422 193.758 109.25C193.898 110.078 194.133 110.805 194.461 111.43C194.789 112.039 195.234 112.516 195.797 112.859C196.359 113.203 197.062 113.375 197.906 113.375C198.734 113.375 199.422 113.203 199.969 112.859C200.531 112.516 200.977 112.039 201.305 111.43C201.633 110.805 201.867 110.078 202.008 109.25C202.148 108.422 202.219 107.531 202.219 106.578V106.086C202.219 105.164 202.148 104.297 202.008 103.484C201.867 102.656 201.633 101.93 201.305 101.305C200.977 100.664 200.531 100.164 199.969 99.8047C199.406 99.4453 198.703 99.2656 197.859 99.2656C197.031 99.2656 196.336 99.4453 195.773 99.8047C195.227 100.164 194.789 100.664 194.461 101.305C194.133 101.93 193.898 102.656 193.758 103.484C193.617 104.297 193.547 105.164 193.547 106.086ZM226.992 93.6406V99.125H211.711V93.6406H226.992ZM214.922 87.3359H222.82V110.727C222.82 111.398 222.898 111.922 223.055 112.297C223.211 112.656 223.477 112.914 223.852 113.07C224.242 113.211 224.758 113.281 225.398 113.281C225.852 113.281 226.227 113.273 226.523 113.258C226.82 113.227 227.102 113.188 227.367 113.141V118.789C226.695 119.008 225.992 119.172 225.258 119.281C224.523 119.406 223.742 119.469 222.914 119.469C221.227 119.469 219.781 119.203 218.578 118.672C217.391 118.141 216.484 117.305 215.859 116.164C215.234 115.023 214.922 113.539 214.922 111.711V87.3359ZM237.914 116.023L244.477 93.6406H252.961L242.766 122.773C242.547 123.414 242.258 124.102 241.898 124.836C241.539 125.586 241.047 126.297 240.422 126.969C239.797 127.641 238.992 128.188 238.008 128.609C237.039 129.031 235.836 129.242 234.398 129.242C233.633 129.242 233.07 129.203 232.711 129.125C232.367 129.062 231.836 128.945 231.117 128.773V123.125C231.32 123.125 231.492 123.125 231.633 123.125C231.789 123.125 231.961 123.125 232.148 123.125C232.992 123.125 233.664 123.039 234.164 122.867C234.68 122.695 235.07 122.445 235.336 122.117C235.617 121.789 235.836 121.391 235.992 120.922L237.914 116.023ZM236.25 93.6406L241.242 111.383L242.109 119.75H236.812L227.789 93.6406H236.25ZM262.992 98.5156V128.75H255.094V93.6406H262.453L262.992 98.5156ZM278.555 106.016V106.508C278.555 108.352 278.344 110.062 277.922 111.641C277.5 113.219 276.875 114.594 276.047 115.766C275.219 116.938 274.188 117.852 272.953 118.508C271.734 119.148 270.32 119.469 268.711 119.469C267.195 119.469 265.891 119.133 264.797 118.461C263.703 117.789 262.789 116.859 262.055 115.672C261.32 114.484 260.727 113.125 260.273 111.594C259.82 110.062 259.461 108.445 259.195 106.742V106.109C259.461 104.281 259.82 102.586 260.273 101.023C260.727 99.4453 261.32 98.0703 262.055 96.8984C262.789 95.7266 263.695 94.8125 264.773 94.1562C265.867 93.5 267.172 93.1719 268.688 93.1719C270.297 93.1719 271.711 93.4766 272.93 94.0859C274.164 94.6953 275.195 95.5703 276.023 96.7109C276.867 97.8359 277.5 99.1875 277.922 100.766C278.344 102.344 278.555 104.094 278.555 106.016ZM270.656 106.508V106.016C270.656 105.031 270.586 104.133 270.445 103.32C270.305 102.492 270.078 101.773 269.766 101.164C269.469 100.555 269.07 100.086 268.57 99.7578C268.07 99.4297 267.453 99.2656 266.719 99.2656C265.875 99.2656 265.164 99.3984 264.586 99.6641C264.023 99.9141 263.57 100.305 263.227 100.836C262.898 101.352 262.664 102 262.523 102.781C262.398 103.547 262.344 104.445 262.359 105.477V107.398C262.328 108.586 262.445 109.633 262.711 110.539C262.977 111.43 263.438 112.125 264.094 112.625C264.75 113.125 265.641 113.375 266.766 113.375C267.516 113.375 268.141 113.203 268.641 112.859C269.141 112.5 269.539 112.008 269.836 111.383C270.133 110.742 270.344 110.008 270.469 109.18C270.594 108.352 270.656 107.461 270.656 106.508ZM290.414 93.6406V119H282.492V93.6406H290.414ZM282.023 87.1016C282.023 85.9766 282.43 85.0547 283.242 84.3359C284.055 83.6172 285.109 83.2578 286.406 83.2578C287.703 83.2578 288.758 83.6172 289.57 84.3359C290.383 85.0547 290.789 85.9766 290.789 87.1016C290.789 88.2266 290.383 89.1484 289.57 89.8672C288.758 90.5859 287.703 90.9453 286.406 90.9453C285.109 90.9453 284.055 90.5859 283.242 89.8672C282.43 89.1484 282.023 88.2266 282.023 87.1016ZM303.047 99.0547V119H295.148V93.6406H302.555L303.047 99.0547ZM302.109 105.453L300.258 105.5C300.258 103.562 300.492 101.836 300.961 100.32C301.43 98.7891 302.094 97.4922 302.953 96.4297C303.812 95.3672 304.836 94.5625 306.023 94.0156C307.227 93.4531 308.562 93.1719 310.031 93.1719C311.203 93.1719 312.273 93.3438 313.242 93.6875C314.227 94.0312 315.07 94.5859 315.773 95.3516C316.492 96.1172 317.039 97.1328 317.414 98.3984C317.805 99.6484 318 101.195 318 103.039V119H310.055V103.016C310.055 102 309.914 101.227 309.633 100.695C309.352 100.148 308.945 99.7734 308.414 99.5703C307.883 99.3672 307.234 99.2656 306.469 99.2656C305.656 99.2656 304.969 99.4219 304.406 99.7344C303.844 100.047 303.391 100.484 303.047 101.047C302.719 101.594 302.477 102.242 302.32 102.992C302.18 103.742 302.109 104.562 302.109 105.453ZM338.32 93.6406H345.492V118.016C345.492 120.359 344.953 122.344 343.875 123.969C342.797 125.609 341.289 126.852 339.352 127.695C337.43 128.555 335.18 128.984 332.602 128.984C331.461 128.984 330.297 128.836 329.109 128.539C327.922 128.258 326.812 127.836 325.781 127.273C324.75 126.711 323.883 126.016 323.18 125.188L326.484 120.547C327.125 121.266 327.93 121.875 328.898 122.375C329.867 122.891 331.008 123.148 332.32 123.148C333.461 123.148 334.414 122.945 335.18 122.539C335.961 122.133 336.555 121.539 336.961 120.758C337.367 119.992 337.57 119.062 337.57 117.969V99.6406L338.32 93.6406ZM321.469 106.625V106.133C321.469 104.211 321.703 102.461 322.172 100.883C322.656 99.2891 323.344 97.9219 324.234 96.7812C325.141 95.625 326.234 94.7344 327.516 94.1094C328.797 93.4844 330.242 93.1719 331.852 93.1719C333.586 93.1719 335.008 93.5078 336.117 94.1797C337.242 94.8359 338.141 95.7578 338.812 96.9453C339.5 98.1328 340.031 99.5234 340.406 101.117C340.797 102.695 341.125 104.398 341.391 106.227V106.812C341.125 108.531 340.758 110.156 340.289 111.688C339.836 113.203 339.242 114.547 338.508 115.719C337.773 116.891 336.852 117.812 335.742 118.484C334.648 119.141 333.336 119.469 331.805 119.469C330.211 119.469 328.773 119.148 327.492 118.508C326.227 117.867 325.141 116.969 324.234 115.812C323.344 114.656 322.656 113.297 322.172 111.734C321.703 110.172 321.469 108.469 321.469 106.625ZM329.367 106.133V106.625C329.367 107.578 329.453 108.461 329.625 109.273C329.812 110.086 330.094 110.805 330.469 111.43C330.844 112.039 331.305 112.516 331.852 112.859C332.414 113.203 333.07 113.375 333.82 113.375C334.961 113.375 335.883 113.133 336.586 112.648C337.289 112.164 337.797 111.477 338.109 110.586C338.422 109.695 338.555 108.648 338.508 107.445V105.594C338.539 104.562 338.469 103.656 338.297 102.875C338.125 102.078 337.852 101.414 337.477 100.883C337.117 100.352 336.633 99.9531 336.023 99.6875C335.43 99.4062 334.711 99.2656 333.867 99.2656C333.133 99.2656 332.484 99.4375 331.922 99.7812C331.359 100.125 330.891 100.609 330.516 101.234C330.141 101.844 329.852 102.57 329.648 103.414C329.461 104.242 329.367 105.148 329.367 106.133Z" fill="black"/>
<path d="M1134 0H1348C1356.28 0 1363 6.71573 1363 15V148C1363 156.284 1356.28 163 1348 163H1134V0Z" fill="#146C94"/>
<path fill-rule="evenodd" clip-rule="evenodd" d="M1202.75 46.5018C1202.75 45.3973 1203.65 44.5018 1204.75 44.5018H1292.25C1293.35 44.5018 1294.25 45.3973 1294.25 46.5018V116.498C1294.25 117.603 1293.35 118.498 1292.25 118.498H1204.75C1203.65 118.498 1202.75 117.603 1202.75 116.498V46.5018ZM1206.75 48.5018V52.9963H1290.25V48.5018H1206.75ZM1290.25 56.9963H1235.19V114.498H1290.25V56.9963ZM1231.19 114.498V56.9963H1206.75V114.498H1231.19Z" fill="white"/>
<path fill-rule="evenodd" clip-rule="evenodd" d="M1209.72 62.3022C1209.72 61.1976 1210.62 60.3022 1211.72 60.3022H1225.72C1226.83 60.3022 1227.72 61.1976 1227.72 62.3022V81.6974C1227.72 82.802 1226.83 83.6974 1225.72 83.6974H1211.72C1210.62 83.6974 1209.72 82.802 1209.72 81.6974V62.3022ZM1213.72 64.3022V79.6974H1223.72V64.3022H1213.72ZM1239.33 63.1982C1239.33 62.0936 1240.22 61.1982 1241.33 61.1982H1284.25C1285.36 61.1982 1286.25 62.0936 1286.25 63.1982V109.407C1286.25 110.511 1285.36 111.407 1284.25 111.407H1241.33C1240.22 111.407 1239.33 110.511 1239.33 109.407V63.1982ZM1243.33 65.1982V107.407H1282.25V65.1982H1243.33ZM1209.56 93.4381C1209.56 92.3336 1210.46 91.4381 1211.56 91.4381H1220.48C1221.59 91.4381 1222.48 92.3336 1222.48 93.4381C1222.48 94.5427 1221.59 95.4381 1220.48 95.4381H1211.56C1210.46 95.4381 1209.56 94.5427 1209.56 93.4381ZM1209.56 100.438C1209.56 99.3335 1210.46 98.4381 1211.56 98.4381H1226.1C1227.21 98.4381 1228.1 99.3335 1228.1 100.438C1228.1 101.543 1227.21 102.438 1226.1 102.438H1211.56C1210.46 102.438 1209.56 101.543 1209.56 100.438ZM1209.56 107.438C1209.56 106.334 1210.46 105.438 1211.56 105.438H1220.48C1221.59 105.438 1222.48 106.334 1222.48 107.438C1222.48 108.543 1221.59 109.438 1220.48 109.438H1211.56C1210.46 109.438 1209.56 108.543 1209.56 107.438Z" fill="white"/>
</svg>
