<svg width="1363" height="163" viewBox="0 0 1363 163" fill="none" xmlns="http://www.w3.org/2000/svg">
<path d="M0 15C0 6.71573 6.71573 0 15 0H37V163H15C6.71573 163 0 156.284 0 148V15Z" fill="#146C94"/>
<rect width="1097" height="163" transform="translate(37)" fill="#F0F0F0"/>
<path d="M101.906 53.9219L94.3945 51.2383V48.0859L104.602 52.375V54.6367L101.906 53.9219ZM94.3945 56.1719L101.918 53.4297L104.602 52.7852V55.0352L94.3945 59.3242V56.1719ZM122.789 55.3398H126.293C126.223 56.4883 125.906 57.5078 125.344 58.3984C124.789 59.2891 124.012 59.9844 123.012 60.4844C122.02 60.9844 120.824 61.2344 119.426 61.2344C118.332 61.2344 117.352 61.0469 116.484 60.6719C115.617 60.2891 114.875 59.7422 114.258 59.0312C113.648 58.3203 113.184 57.4609 112.863 56.4531C112.543 55.4453 112.383 54.3164 112.383 53.0664V51.8828C112.383 50.6328 112.547 49.5039 112.875 48.4961C113.211 47.4805 113.688 46.6172 114.305 45.9062C114.93 45.1953 115.676 44.6484 116.543 44.2656C117.41 43.8828 118.379 43.6914 119.449 43.6914C120.871 43.6914 122.07 43.9492 123.047 44.4648C124.031 44.9805 124.793 45.6914 125.332 46.5977C125.879 47.5039 126.207 48.5352 126.316 49.6914H122.801C122.762 49.0039 122.625 48.4219 122.391 47.9453C122.156 47.4609 121.801 47.0977 121.324 46.8555C120.855 46.6055 120.23 46.4805 119.449 46.4805C118.863 46.4805 118.352 46.5898 117.914 46.8086C117.477 47.0273 117.109 47.3594 116.812 47.8047C116.516 48.25 116.293 48.8125 116.145 49.4922C116.004 50.1641 115.934 50.9531 115.934 51.8594V53.0664C115.934 53.9492 116 54.7266 116.133 55.3984C116.266 56.0625 116.469 56.625 116.742 57.0859C117.023 57.5391 117.383 57.8828 117.82 58.1172C118.266 58.3438 118.801 58.457 119.426 58.457C120.16 58.457 120.766 58.3398 121.242 58.1055C121.719 57.8711 122.082 57.5234 122.332 57.0625C122.59 56.6016 122.742 56.0273 122.789 55.3398ZM127.852 54.7891V54.543C127.852 53.6133 127.984 52.7578 128.25 51.9766C128.516 51.1875 128.902 50.5039 129.41 49.9258C129.918 49.3477 130.543 48.8984 131.285 48.5781C132.027 48.25 132.879 48.0859 133.84 48.0859C134.801 48.0859 135.656 48.25 136.406 48.5781C137.156 48.8984 137.785 49.3477 138.293 49.9258C138.809 50.5039 139.199 51.1875 139.465 51.9766C139.73 52.7578 139.863 53.6133 139.863 54.543V54.7891C139.863 55.7109 139.73 56.5664 139.465 57.3555C139.199 58.1367 138.809 58.8203 138.293 59.4062C137.785 59.9844 137.16 60.4336 136.418 60.7539C135.676 61.0742 134.824 61.2344 133.863 61.2344C132.902 61.2344 132.047 61.0742 131.297 60.7539C130.555 60.4336 129.926 59.9844 129.41 59.4062C128.902 58.8203 128.516 58.1367 128.25 57.3555C127.984 56.5664 127.852 55.7109 127.852 54.7891ZM131.227 54.543V54.7891C131.227 55.3203 131.273 55.8164 131.367 56.2773C131.461 56.7383 131.609 57.1445 131.812 57.4961C132.023 57.8398 132.297 58.1094 132.633 58.3047C132.969 58.5 133.379 58.5977 133.863 58.5977C134.332 58.5977 134.734 58.5 135.07 58.3047C135.406 58.1094 135.676 57.8398 135.879 57.4961C136.082 57.1445 136.23 56.7383 136.324 56.2773C136.426 55.8164 136.477 55.3203 136.477 54.7891V54.543C136.477 54.0273 136.426 53.543 136.324 53.0898C136.23 52.6289 136.078 52.2227 135.867 51.8711C135.664 51.5117 135.395 51.2305 135.059 51.0273C134.723 50.8242 134.316 50.7227 133.84 50.7227C133.363 50.7227 132.957 50.8242 132.621 51.0273C132.293 51.2305 132.023 51.5117 131.812 51.8711C131.609 52.2227 131.461 52.6289 131.367 53.0898C131.273 53.543 131.227 54.0273 131.227 54.543ZM146.238 61H142.84V47.1953C142.84 46.2344 143.027 45.4258 143.402 44.7695C143.785 44.1055 144.32 43.6055 145.008 43.2695C145.703 42.9258 146.527 42.7539 147.48 42.7539C147.793 42.7539 148.094 42.7773 148.383 42.8242C148.672 42.8633 148.953 42.9141 149.227 42.9766L149.191 45.5195C149.043 45.4805 148.887 45.4531 148.723 45.4375C148.559 45.4219 148.367 45.4141 148.148 45.4141C147.742 45.4141 147.395 45.4844 147.105 45.625C146.824 45.7578 146.609 45.957 146.461 46.2227C146.312 46.4883 146.238 46.8125 146.238 47.1953V61ZM148.77 48.3203V50.7109H140.953V48.3203H148.77ZM154.84 61H151.441V47.1953C151.441 46.2344 151.629 45.4258 152.004 44.7695C152.387 44.1055 152.922 43.6055 153.609 43.2695C154.305 42.9258 155.129 42.7539 156.082 42.7539C156.395 42.7539 156.695 42.7773 156.984 42.8242C157.273 42.8633 157.555 42.9141 157.828 42.9766L157.793 45.5195C157.645 45.4805 157.488 45.4531 157.324 45.4375C157.16 45.4219 156.969 45.4141 156.75 45.4141C156.344 45.4141 155.996 45.4844 155.707 45.625C155.426 45.7578 155.211 45.957 155.062 46.2227C154.914 46.4883 154.84 46.8125 154.84 47.1953V61ZM157.371 48.3203V50.7109H149.555V48.3203H157.371ZM164.695 61.2344C163.711 61.2344 162.828 61.0781 162.047 60.7656C161.266 60.4453 160.602 60.0039 160.055 59.4414C159.516 58.8789 159.102 58.2266 158.812 57.4844C158.523 56.7344 158.379 55.9375 158.379 55.0938V54.625C158.379 53.6641 158.516 52.7852 158.789 51.9883C159.062 51.1914 159.453 50.5 159.961 49.9141C160.477 49.3281 161.102 48.8789 161.836 48.5664C162.57 48.2461 163.398 48.0859 164.32 48.0859C165.219 48.0859 166.016 48.2344 166.711 48.5312C167.406 48.8281 167.988 49.25 168.457 49.7969C168.934 50.3438 169.293 51 169.535 51.7656C169.777 52.5234 169.898 53.3672 169.898 54.2969V55.7031H159.82V53.4531H166.582V53.1953C166.582 52.7266 166.496 52.3086 166.324 51.9414C166.16 51.5664 165.91 51.2695 165.574 51.0508C165.238 50.832 164.809 50.7227 164.285 50.7227C163.84 50.7227 163.457 50.8203 163.137 51.0156C162.816 51.2109 162.555 51.4844 162.352 51.8359C162.156 52.1875 162.008 52.6016 161.906 53.0781C161.812 53.5469 161.766 54.0625 161.766 54.625V55.0938C161.766 55.6016 161.836 56.0703 161.977 56.5C162.125 56.9297 162.332 57.3008 162.598 57.6133C162.871 57.9258 163.199 58.168 163.582 58.3398C163.973 58.5117 164.414 58.5977 164.906 58.5977C165.516 58.5977 166.082 58.4805 166.605 58.2461C167.137 58.0039 167.594 57.6406 167.977 57.1562L169.617 58.9375C169.352 59.3203 168.988 59.6875 168.527 60.0391C168.074 60.3906 167.527 60.6797 166.887 60.9062C166.246 61.125 165.516 61.2344 164.695 61.2344ZM177.656 61.2344C176.672 61.2344 175.789 61.0781 175.008 60.7656C174.227 60.4453 173.562 60.0039 173.016 59.4414C172.477 58.8789 172.062 58.2266 171.773 57.4844C171.484 56.7344 171.34 55.9375 171.34 55.0938V54.625C171.34 53.6641 171.477 52.7852 171.75 51.9883C172.023 51.1914 172.414 50.5 172.922 49.9141C173.438 49.3281 174.062 48.8789 174.797 48.5664C175.531 48.2461 176.359 48.0859 177.281 48.0859C178.18 48.0859 178.977 48.2344 179.672 48.5312C180.367 48.8281 180.949 49.25 181.418 49.7969C181.895 50.3438 182.254 51 182.496 51.7656C182.738 52.5234 182.859 53.3672 182.859 54.2969V55.7031H172.781V53.4531H179.543V53.1953C179.543 52.7266 179.457 52.3086 179.285 51.9414C179.121 51.5664 178.871 51.2695 178.535 51.0508C178.199 50.832 177.77 50.7227 177.246 50.7227C176.801 50.7227 176.418 50.8203 176.098 51.0156C175.777 51.2109 175.516 51.4844 175.312 51.8359C175.117 52.1875 174.969 52.6016 174.867 53.0781C174.773 53.5469 174.727 54.0625 174.727 54.625V55.0938C174.727 55.6016 174.797 56.0703 174.938 56.5C175.086 56.9297 175.293 57.3008 175.559 57.6133C175.832 57.9258 176.16 58.168 176.543 58.3398C176.934 58.5117 177.375 58.5977 177.867 58.5977C178.477 58.5977 179.043 58.4805 179.566 58.2461C180.098 58.0039 180.555 57.6406 180.938 57.1562L182.578 58.9375C182.312 59.3203 181.949 59.6875 181.488 60.0391C181.035 60.3906 180.488 60.6797 179.848 60.9062C179.207 61.125 178.477 61.2344 177.656 61.2344ZM202.418 58.2578V61H193.336V58.2578H202.418ZM194.484 43.9375V61H190.969V43.9375H194.484ZM201.234 50.8867V53.5586H193.336V50.8867H201.234ZM202.406 43.9375V46.6914H193.336V43.9375H202.406ZM206.977 48.3203L209.074 52.1758L211.23 48.3203H214.828L211.242 54.5195L214.992 61H211.383L209.098 56.9219L206.812 61H203.203L206.953 54.5195L203.367 48.3203H206.977ZM219.844 50.7578V65.875H216.469V48.3203H219.598L219.844 50.7578ZM227.871 54.5195V54.7656C227.871 55.6875 227.762 56.543 227.543 57.332C227.332 58.1211 227.02 58.8086 226.605 59.3945C226.191 59.9727 225.676 60.4258 225.059 60.7539C224.449 61.0742 223.746 61.2344 222.949 61.2344C222.176 61.2344 221.504 61.0781 220.934 60.7656C220.363 60.4531 219.883 60.0156 219.492 59.4531C219.109 58.8828 218.801 58.2227 218.566 57.4727C218.332 56.7227 218.152 55.918 218.027 55.0586V54.4141C218.152 53.4922 218.332 52.6484 218.566 51.8828C218.801 51.1094 219.109 50.4414 219.492 49.8789C219.883 49.3086 220.359 48.8672 220.922 48.5547C221.492 48.2422 222.16 48.0859 222.926 48.0859C223.73 48.0859 224.438 48.2383 225.047 48.543C225.664 48.8477 226.18 49.2852 226.594 49.8555C227.016 50.4258 227.332 51.1055 227.543 51.8945C227.762 52.6836 227.871 53.5586 227.871 54.5195ZM224.484 54.7656V54.5195C224.484 53.9805 224.438 53.4844 224.344 53.0312C224.258 52.5703 224.117 52.168 223.922 51.8242C223.734 51.4805 223.484 51.2148 223.172 51.0273C222.867 50.832 222.496 50.7344 222.059 50.7344C221.598 50.7344 221.203 50.8086 220.875 50.957C220.555 51.1055 220.293 51.3203 220.09 51.6016C219.887 51.8828 219.734 52.2188 219.633 52.6094C219.531 53 219.469 53.4414 219.445 53.9336V55.5625C219.484 56.1406 219.594 56.6602 219.773 57.1211C219.953 57.5742 220.23 57.9336 220.605 58.1992C220.98 58.4648 221.473 58.5977 222.082 58.5977C222.527 58.5977 222.902 58.5 223.207 58.3047C223.512 58.1016 223.758 57.8242 223.945 57.4727C224.141 57.1211 224.277 56.7148 224.355 56.2539C224.441 55.793 224.484 55.2969 224.484 54.7656ZM233.344 51.0859V61H229.969V48.3203H233.145L233.344 51.0859ZM237.164 48.2383L237.105 51.3672C236.941 51.3438 236.742 51.3242 236.508 51.3086C236.281 51.2852 236.074 51.2734 235.887 51.2734C235.41 51.2734 234.996 51.3359 234.645 51.4609C234.301 51.5781 234.012 51.7539 233.777 51.9883C233.551 52.2227 233.379 52.5078 233.262 52.8438C233.152 53.1797 233.09 53.5625 233.074 53.9922L232.395 53.7812C232.395 52.9609 232.477 52.207 232.641 51.5195C232.805 50.8242 233.043 50.2188 233.355 49.7031C233.676 49.1875 234.066 48.7891 234.527 48.5078C234.988 48.2266 235.516 48.0859 236.109 48.0859C236.297 48.0859 236.488 48.1016 236.684 48.1328C236.879 48.1562 237.039 48.1914 237.164 48.2383ZM244.359 61.2344C243.375 61.2344 242.492 61.0781 241.711 60.7656C240.93 60.4453 240.266 60.0039 239.719 59.4414C239.18 58.8789 238.766 58.2266 238.477 57.4844C238.188 56.7344 238.043 55.9375 238.043 55.0938V54.625C238.043 53.6641 238.18 52.7852 238.453 51.9883C238.727 51.1914 239.117 50.5 239.625 49.9141C240.141 49.3281 240.766 48.8789 241.5 48.5664C242.234 48.2461 243.062 48.0859 243.984 48.0859C244.883 48.0859 245.68 48.2344 246.375 48.5312C247.07 48.8281 247.652 49.25 248.121 49.7969C248.598 50.3438 248.957 51 249.199 51.7656C249.441 52.5234 249.562 53.3672 249.562 54.2969V55.7031H239.484V53.4531H246.246V53.1953C246.246 52.7266 246.16 52.3086 245.988 51.9414C245.824 51.5664 245.574 51.2695 245.238 51.0508C244.902 50.832 244.473 50.7227 243.949 50.7227C243.504 50.7227 243.121 50.8203 242.801 51.0156C242.48 51.2109 242.219 51.4844 242.016 51.8359C241.82 52.1875 241.672 52.6016 241.57 53.0781C241.477 53.5469 241.43 54.0625 241.43 54.625V55.0938C241.43 55.6016 241.5 56.0703 241.641 56.5C241.789 56.9297 241.996 57.3008 242.262 57.6133C242.535 57.9258 242.863 58.168 243.246 58.3398C243.637 58.5117 244.078 58.5977 244.57 58.5977C245.18 58.5977 245.746 58.4805 246.27 58.2461C246.801 58.0039 247.258 57.6406 247.641 57.1562L249.281 58.9375C249.016 59.3203 248.652 59.6875 248.191 60.0391C247.738 60.3906 247.191 60.6797 246.551 60.9062C245.91 61.125 245.18 61.2344 244.359 61.2344ZM258.34 57.4961C258.34 57.2539 258.27 57.0352 258.129 56.8398C257.988 56.6445 257.727 56.4648 257.344 56.3008C256.969 56.1289 256.426 55.9727 255.715 55.832C255.074 55.6914 254.477 55.5156 253.922 55.3047C253.375 55.0859 252.898 54.8242 252.492 54.5195C252.094 54.2148 251.781 53.8555 251.555 53.4414C251.328 53.0195 251.215 52.5391 251.215 52C251.215 51.4688 251.328 50.9688 251.555 50.5C251.789 50.0312 252.121 49.6172 252.551 49.2578C252.988 48.8906 253.52 48.6055 254.145 48.4023C254.777 48.1914 255.488 48.0859 256.277 48.0859C257.379 48.0859 258.324 48.2617 259.113 48.6133C259.91 48.9648 260.52 49.4492 260.941 50.0664C261.371 50.6758 261.586 51.3711 261.586 52.1523H258.211C258.211 51.8242 258.141 51.5312 258 51.2734C257.867 51.0078 257.656 50.8008 257.367 50.6523C257.086 50.4961 256.719 50.418 256.266 50.418C255.891 50.418 255.566 50.4844 255.293 50.6172C255.02 50.7422 254.809 50.9141 254.66 51.1328C254.52 51.3438 254.449 51.5781 254.449 51.8359C254.449 52.0312 254.488 52.207 254.566 52.3633C254.652 52.5117 254.789 52.6484 254.977 52.7734C255.164 52.8984 255.406 53.0156 255.703 53.125C256.008 53.2266 256.383 53.3203 256.828 53.4062C257.742 53.5938 258.559 53.8398 259.277 54.1445C259.996 54.4414 260.566 54.8477 260.988 55.3633C261.41 55.8711 261.621 56.5391 261.621 57.3672C261.621 57.9297 261.496 58.4453 261.246 58.9141C260.996 59.3828 260.637 59.793 260.168 60.1445C259.699 60.4883 259.137 60.7578 258.48 60.9531C257.832 61.1406 257.102 61.2344 256.289 61.2344C255.109 61.2344 254.109 61.0234 253.289 60.6016C252.477 60.1797 251.859 59.6445 251.438 58.9961C251.023 58.3398 250.816 57.668 250.816 56.9805H254.016C254.031 57.4414 254.148 57.8125 254.367 58.0938C254.594 58.375 254.879 58.5781 255.223 58.7031C255.574 58.8281 255.953 58.8906 256.359 58.8906C256.797 58.8906 257.16 58.832 257.449 58.7148C257.738 58.5898 257.957 58.4258 258.105 58.2227C258.262 58.0117 258.34 57.7695 258.34 57.4961ZM270.668 57.4961C270.668 57.2539 270.598 57.0352 270.457 56.8398C270.316 56.6445 270.055 56.4648 269.672 56.3008C269.297 56.1289 268.754 55.9727 268.043 55.832C267.402 55.6914 266.805 55.5156 266.25 55.3047C265.703 55.0859 265.227 54.8242 264.82 54.5195C264.422 54.2148 264.109 53.8555 263.883 53.4414C263.656 53.0195 263.543 52.5391 263.543 52C263.543 51.4688 263.656 50.9688 263.883 50.5C264.117 50.0312 264.449 49.6172 264.879 49.2578C265.316 48.8906 265.848 48.6055 266.473 48.4023C267.105 48.1914 267.816 48.0859 268.605 48.0859C269.707 48.0859 270.652 48.2617 271.441 48.6133C272.238 48.9648 272.848 49.4492 273.27 50.0664C273.699 50.6758 273.914 51.3711 273.914 52.1523H270.539C270.539 51.8242 270.469 51.5312 270.328 51.2734C270.195 51.0078 269.984 50.8008 269.695 50.6523C269.414 50.4961 269.047 50.418 268.594 50.418C268.219 50.418 267.895 50.4844 267.621 50.6172C267.348 50.7422 267.137 50.9141 266.988 51.1328C266.848 51.3438 266.777 51.5781 266.777 51.8359C266.777 52.0312 266.816 52.207 266.895 52.3633C266.98 52.5117 267.117 52.6484 267.305 52.7734C267.492 52.8984 267.734 53.0156 268.031 53.125C268.336 53.2266 268.711 53.3203 269.156 53.4062C270.07 53.5938 270.887 53.8398 271.605 54.1445C272.324 54.4414 272.895 54.8477 273.316 55.3633C273.738 55.8711 273.949 56.5391 273.949 57.3672C273.949 57.9297 273.824 58.4453 273.574 58.9141C273.324 59.3828 272.965 59.793 272.496 60.1445C272.027 60.4883 271.465 60.7578 270.809 60.9531C270.16 61.1406 269.43 61.2344 268.617 61.2344C267.438 61.2344 266.438 61.0234 265.617 60.6016C264.805 60.1797 264.188 59.6445 263.766 58.9961C263.352 58.3398 263.145 57.668 263.145 56.9805H266.344C266.359 57.4414 266.477 57.8125 266.695 58.0938C266.922 58.375 267.207 58.5781 267.551 58.7031C267.902 58.8281 268.281 58.8906 268.688 58.8906C269.125 58.8906 269.488 58.832 269.777 58.7148C270.066 58.5898 270.285 58.4258 270.434 58.2227C270.59 58.0117 270.668 57.7695 270.668 57.4961Z" fill="#888888"/>
<path d="M118.594 98.4219V104.75H101.086V98.4219H118.594ZM103.828 84.875V119H95.6016V84.875H103.828ZM124.125 84.875V119H115.922V84.875H124.125ZM127.992 106.578V106.086C127.992 104.227 128.258 102.516 128.789 100.953C129.32 99.375 130.102 98.0078 131.133 96.8516C132.164 95.6953 133.438 94.7969 134.953 94.1562C136.469 93.5 138.219 93.1719 140.203 93.1719C142.203 93.1719 143.961 93.5 145.477 94.1562C147.008 94.7969 148.289 95.6953 149.32 96.8516C150.352 98.0078 151.133 99.375 151.664 100.953C152.195 102.516 152.461 104.227 152.461 106.086V106.578C152.461 108.422 152.195 110.133 151.664 111.711C151.133 113.273 150.352 114.641 149.32 115.812C148.289 116.969 147.016 117.867 145.5 118.508C143.984 119.148 142.234 119.469 140.25 119.469C138.266 119.469 136.508 119.148 134.977 118.508C133.445 117.867 132.164 116.969 131.133 115.812C130.102 114.641 129.32 113.273 128.789 111.711C128.258 110.133 127.992 108.422 127.992 106.578ZM135.891 106.086V106.578C135.891 107.531 135.961 108.422 136.102 109.25C136.242 110.078 136.477 110.805 136.805 111.43C137.133 112.039 137.578 112.516 138.141 112.859C138.703 113.203 139.406 113.375 140.25 113.375C141.078 113.375 141.766 113.203 142.312 112.859C142.875 112.516 143.32 112.039 143.648 111.43C143.977 110.805 144.211 110.078 144.352 109.25C144.492 108.422 144.562 107.531 144.562 106.578V106.086C144.562 105.164 144.492 104.297 144.352 103.484C144.211 102.656 143.977 101.93 143.648 101.305C143.32 100.664 142.875 100.164 142.312 99.8047C141.75 99.4453 141.047 99.2656 140.203 99.2656C139.375 99.2656 138.68 99.4453 138.117 99.8047C137.57 100.164 137.133 100.664 136.805 101.305C136.477 101.93 136.242 102.656 136.102 103.484C135.961 104.297 135.891 105.164 135.891 106.086ZM163.688 111.453L168.375 93.6406H173.32L171.562 102.57L166.922 119H162.961L163.688 111.453ZM161.836 93.6406L164.742 111.312L165.07 119H160.266L154.266 93.6406H161.836ZM177.492 110.938L180.422 93.6406H187.992L182.039 119H177.234L177.492 110.938ZM173.883 93.6406L178.617 111.406L179.344 119H175.336L170.789 102.617L169.102 93.6406H173.883ZM218.297 84.875V119H210.07V84.875H218.297ZM228.562 84.875V91.2266H200.039V84.875H228.562ZM225.773 106.578V106.086C225.773 104.227 226.039 102.516 226.57 100.953C227.102 99.375 227.883 98.0078 228.914 96.8516C229.945 95.6953 231.219 94.7969 232.734 94.1562C234.25 93.5 236 93.1719 237.984 93.1719C239.984 93.1719 241.742 93.5 243.258 94.1562C244.789 94.7969 246.07 95.6953 247.102 96.8516C248.133 98.0078 248.914 99.375 249.445 100.953C249.977 102.516 250.242 104.227 250.242 106.086V106.578C250.242 108.422 249.977 110.133 249.445 111.711C248.914 113.273 248.133 114.641 247.102 115.812C246.07 116.969 244.797 117.867 243.281 118.508C241.766 119.148 240.016 119.469 238.031 119.469C236.047 119.469 234.289 119.148 232.758 118.508C231.227 117.867 229.945 116.969 228.914 115.812C227.883 114.641 227.102 113.273 226.57 111.711C226.039 110.133 225.773 108.422 225.773 106.578ZM233.672 106.086V106.578C233.672 107.531 233.742 108.422 233.883 109.25C234.023 110.078 234.258 110.805 234.586 111.43C234.914 112.039 235.359 112.516 235.922 112.859C236.484 113.203 237.188 113.375 238.031 113.375C238.859 113.375 239.547 113.203 240.094 112.859C240.656 112.516 241.102 112.039 241.43 111.43C241.758 110.805 241.992 110.078 242.133 109.25C242.273 108.422 242.344 107.531 242.344 106.578V106.086C242.344 105.164 242.273 104.297 242.133 103.484C241.992 102.656 241.758 101.93 241.43 101.305C241.102 100.664 240.656 100.164 240.094 99.8047C239.531 99.4453 238.828 99.2656 237.984 99.2656C237.156 99.2656 236.461 99.4453 235.898 99.8047C235.352 100.164 234.914 100.664 234.586 101.305C234.258 101.93 234.023 102.656 233.883 103.484C233.742 104.297 233.672 105.164 233.672 106.086ZM266.086 84.875H279.516C282.141 84.875 284.422 85.2656 286.359 86.0469C288.297 86.8281 289.789 87.9844 290.836 89.5156C291.898 91.0469 292.43 92.9375 292.43 95.1875C292.43 97.1406 292.125 98.7734 291.516 100.086C290.906 101.398 290.055 102.484 288.961 103.344C287.883 104.188 286.625 104.883 285.188 105.43L282.492 106.953H271.219L271.172 100.602H279.516C280.562 100.602 281.43 100.414 282.117 100.039C282.805 99.6641 283.32 99.1328 283.664 98.4453C284.023 97.7422 284.203 96.9062 284.203 95.9375C284.203 94.9531 284.023 94.1094 283.664 93.4062C283.305 92.7031 282.773 92.1641 282.07 91.7891C281.383 91.4141 280.531 91.2266 279.516 91.2266H274.312V119H266.086V84.875ZM284.766 119L277.219 103.906L285.938 103.859L293.578 118.648V119H284.766ZM311.836 112.836V93.6406H319.758V119H312.352L311.836 112.836ZM312.586 107.68L314.648 107.633C314.648 109.336 314.445 110.914 314.039 112.367C313.633 113.805 313.031 115.055 312.234 116.117C311.453 117.18 310.484 118.008 309.328 118.602C308.188 119.18 306.867 119.469 305.367 119.469C304.117 119.469 302.969 119.297 301.922 118.953C300.891 118.594 300 118.039 299.25 117.289C298.5 116.523 297.914 115.547 297.492 114.359C297.086 113.156 296.883 111.719 296.883 110.047V93.6406H304.781V110.094C304.781 110.656 304.852 111.141 304.992 111.547C305.133 111.953 305.336 112.297 305.602 112.578C305.867 112.844 306.195 113.047 306.586 113.188C306.992 113.312 307.453 113.375 307.969 113.375C309.156 113.375 310.086 113.125 310.758 112.625C311.43 112.125 311.898 111.445 312.164 110.586C312.445 109.727 312.586 108.758 312.586 107.68ZM331.875 99.0547V119H323.977V93.6406H331.383L331.875 99.0547ZM330.938 105.453L329.086 105.5C329.086 103.562 329.32 101.836 329.789 100.32C330.258 98.7891 330.922 97.4922 331.781 96.4297C332.641 95.3672 333.664 94.5625 334.852 94.0156C336.055 93.4531 337.391 93.1719 338.859 93.1719C340.031 93.1719 341.102 93.3438 342.07 93.6875C343.055 94.0312 343.898 94.5859 344.602 95.3516C345.32 96.1172 345.867 97.1328 346.242 98.3984C346.633 99.6484 346.828 101.195 346.828 103.039V119H338.883V103.016C338.883 102 338.742 101.227 338.461 100.695C338.18 100.148 337.773 99.7734 337.242 99.5703C336.711 99.3672 336.062 99.2656 335.297 99.2656C334.484 99.2656 333.797 99.4219 333.234 99.7344C332.672 100.047 332.219 100.484 331.875 101.047C331.547 101.594 331.305 102.242 331.148 102.992C331.008 103.742 330.938 104.562 330.938 105.453ZM363.773 108.195H357.047C357.047 106.82 357.141 105.609 357.328 104.562C357.531 103.5 357.875 102.547 358.359 101.703C358.844 100.859 359.5 100.078 360.328 99.3594C361.062 98.75 361.695 98.1641 362.227 97.6016C362.758 97.0391 363.164 96.4688 363.445 95.8906C363.727 95.3125 363.867 94.6953 363.867 94.0391C363.867 93.2266 363.75 92.5625 363.516 92.0469C363.297 91.5312 362.961 91.1484 362.508 90.8984C362.07 90.6328 361.516 90.5 360.844 90.5C360.297 90.5 359.781 90.6328 359.297 90.8984C358.828 91.1641 358.445 91.5781 358.148 92.1406C357.852 92.6875 357.688 93.4141 357.656 94.3203H349.711C349.758 91.9922 350.273 90.1016 351.258 88.6484C352.258 87.1797 353.586 86.1094 355.242 85.4375C356.914 84.75 358.781 84.4062 360.844 84.4062C363.125 84.4062 365.086 84.7578 366.727 85.4609C368.367 86.1641 369.625 87.2109 370.5 88.6016C371.375 89.9766 371.812 91.6719 371.812 93.6875C371.812 95.0312 371.555 96.2031 371.039 97.2031C370.539 98.1875 369.859 99.1094 369 99.9688C368.156 100.812 367.211 101.719 366.164 102.688C365.258 103.484 364.641 104.297 364.312 105.125C363.984 105.938 363.805 106.961 363.773 108.195ZM356.086 115.32C356.086 114.195 356.492 113.258 357.305 112.508C358.117 111.742 359.172 111.359 360.469 111.359C361.766 111.359 362.82 111.742 363.633 112.508C364.445 113.258 364.852 114.195 364.852 115.32C364.852 116.445 364.445 117.391 363.633 118.156C362.82 118.906 361.766 119.281 360.469 119.281C359.172 119.281 358.117 118.906 357.305 118.156C356.492 117.391 356.086 116.445 356.086 115.32Z" fill="black"/>
<path d="M1134 0H1348C1356.28 0 1363 6.71573 1363 15V148C1363 156.284 1356.28 163 1348 163H1134V0Z" fill="#146C94"/>
<path d="M1260.62 78.8078C1263.81 78.8078 1266.93 79.7552 1269.59 81.5302C1272.25 83.3052 1274.32 85.8281 1275.54 88.7798C1276.76 91.7315 1277.08 94.9795 1276.46 98.1131C1275.84 101.247 1274.3 104.125 1272.04 106.384C1269.78 108.643 1266.9 110.182 1263.77 110.805C1260.63 111.428 1257.39 111.108 1254.43 109.886C1251.48 108.663 1248.96 106.593 1247.18 103.936C1245.41 101.28 1244.46 98.1565 1244.46 94.9616C1244.46 90.6774 1246.16 86.5686 1249.19 83.5392C1252.22 80.5097 1256.33 78.8078 1260.62 78.8078ZM1260.62 73.4232C1256.36 73.4232 1252.19 74.6864 1248.65 77.0531C1245.11 79.4198 1242.35 82.7836 1240.72 86.7192C1239.09 90.6549 1238.66 94.9855 1239.49 99.1636C1240.32 103.342 1242.37 107.179 1245.39 110.192C1248.4 113.204 1252.24 115.255 1256.41 116.086C1260.59 116.917 1264.92 116.491 1268.86 114.861C1272.79 113.23 1276.16 110.47 1278.52 106.928C1280.89 103.386 1282.15 99.2215 1282.15 94.9616C1282.15 89.2493 1279.88 83.7709 1275.85 79.7317C1271.81 75.6924 1266.33 73.4232 1260.62 73.4232Z" fill="white"/>
<path d="M1274.08 46.4999H1220.23C1218.8 46.4999 1217.43 47.0672 1216.42 48.0771C1215.41 49.0869 1214.85 50.4565 1214.85 51.8845V105.731C1214.85 107.159 1215.41 108.528 1216.42 109.538C1217.43 110.548 1218.8 111.115 1220.23 111.115H1231V105.731H1220.23V68.0383H1279.46V51.8845C1279.46 50.4565 1278.89 49.0869 1277.88 48.0771C1276.87 47.0672 1275.5 46.4999 1274.08 46.4999ZM1220.23 62.6537V51.8845H1274.08V62.6537H1220.23Z" fill="white"/>
<path d="M1255.23 86.8848V103.039L1268.69 94.9617L1255.23 86.8848Z" fill="white"/>
</svg>
