<svg width="1363" height="163" viewBox="0 0 1363 163" fill="none" xmlns="http://www.w3.org/2000/svg">
<path d="M0 15C0 6.71573 6.71573 0 15 0H37V163H15C6.71573 163 0 156.284 0 148V15Z" fill="#146C94"/>
<rect width="1097" height="163" transform="translate(37)" fill="#F0F0F0"/>
<path d="M101.906 53.9219L94.3945 51.2383V48.0859L104.602 52.375V54.6367L101.906 53.9219ZM94.3945 56.1719L101.918 53.4297L104.602 52.7852V55.0352L94.3945 59.3242V56.1719ZM119.578 53.5117H115.195L115.172 51.0977H118.852C119.5 51.0977 120.031 51.0156 120.445 50.8516C120.859 50.6797 121.168 50.4336 121.371 50.1133C121.582 49.7852 121.688 49.3867 121.688 48.918C121.688 48.3867 121.586 47.957 121.383 47.6289C121.188 47.3008 120.879 47.0625 120.457 46.9141C120.043 46.7656 119.508 46.6914 118.852 46.6914H116.414V61H112.898V43.9375H118.852C119.844 43.9375 120.73 44.0312 121.512 44.2188C122.301 44.4062 122.969 44.6914 123.516 45.0742C124.062 45.457 124.48 45.9414 124.77 46.5273C125.059 47.1055 125.203 47.793 125.203 48.5898C125.203 49.293 125.043 49.9414 124.723 50.5352C124.41 51.1289 123.914 51.6133 123.234 51.9883C122.562 52.3633 121.684 52.5703 120.598 52.6094L119.578 53.5117ZM119.426 61H114.234L115.605 58.2578H119.426C120.043 58.2578 120.547 58.1602 120.938 57.9648C121.328 57.7617 121.617 57.4883 121.805 57.1445C121.992 56.8008 122.086 56.4062 122.086 55.9609C122.086 55.4609 122 55.0273 121.828 54.6602C121.664 54.293 121.398 54.0117 121.031 53.8164C120.664 53.6133 120.18 53.5117 119.578 53.5117H116.191L116.215 51.0977H120.434L121.242 52.0469C122.281 52.0312 123.117 52.2148 123.75 52.5977C124.391 52.9727 124.855 53.4609 125.145 54.0625C125.441 54.6641 125.59 55.3086 125.59 55.9961C125.59 57.0898 125.352 58.0117 124.875 58.7617C124.398 59.5039 123.699 60.0625 122.777 60.4375C121.863 60.8125 120.746 61 119.426 61ZM135.516 57.9648V48.3203H138.891V61H135.715L135.516 57.9648ZM135.891 55.3633L136.887 55.3398C136.887 56.1836 136.789 56.9688 136.594 57.6953C136.398 58.4141 136.105 59.0391 135.715 59.5703C135.324 60.0938 134.832 60.5039 134.238 60.8008C133.645 61.0898 132.945 61.2344 132.141 61.2344C131.523 61.2344 130.953 61.1484 130.43 60.9766C129.914 60.7969 129.469 60.5195 129.094 60.1445C128.727 59.7617 128.438 59.2734 128.227 58.6797C128.023 58.0781 127.922 57.3555 127.922 56.5117V48.3203H131.297V56.5352C131.297 56.9102 131.34 57.2266 131.426 57.4844C131.52 57.7422 131.648 57.9531 131.812 58.1172C131.977 58.2812 132.168 58.3984 132.387 58.4688C132.613 58.5391 132.863 58.5742 133.137 58.5742C133.832 58.5742 134.379 58.4336 134.777 58.1523C135.184 57.8711 135.469 57.4883 135.633 57.0039C135.805 56.5117 135.891 55.9648 135.891 55.3633ZM148.324 57.4961C148.324 57.2539 148.254 57.0352 148.113 56.8398C147.973 56.6445 147.711 56.4648 147.328 56.3008C146.953 56.1289 146.41 55.9727 145.699 55.832C145.059 55.6914 144.461 55.5156 143.906 55.3047C143.359 55.0859 142.883 54.8242 142.477 54.5195C142.078 54.2148 141.766 53.8555 141.539 53.4414C141.312 53.0195 141.199 52.5391 141.199 52C141.199 51.4688 141.312 50.9688 141.539 50.5C141.773 50.0312 142.105 49.6172 142.535 49.2578C142.973 48.8906 143.504 48.6055 144.129 48.4023C144.762 48.1914 145.473 48.0859 146.262 48.0859C147.363 48.0859 148.309 48.2617 149.098 48.6133C149.895 48.9648 150.504 49.4492 150.926 50.0664C151.355 50.6758 151.57 51.3711 151.57 52.1523H148.195C148.195 51.8242 148.125 51.5312 147.984 51.2734C147.852 51.0078 147.641 50.8008 147.352 50.6523C147.07 50.4961 146.703 50.418 146.25 50.418C145.875 50.418 145.551 50.4844 145.277 50.6172C145.004 50.7422 144.793 50.9141 144.645 51.1328C144.504 51.3438 144.434 51.5781 144.434 51.8359C144.434 52.0312 144.473 52.207 144.551 52.3633C144.637 52.5117 144.773 52.6484 144.961 52.7734C145.148 52.8984 145.391 53.0156 145.688 53.125C145.992 53.2266 146.367 53.3203 146.812 53.4062C147.727 53.5938 148.543 53.8398 149.262 54.1445C149.98 54.4414 150.551 54.8477 150.973 55.3633C151.395 55.8711 151.605 56.5391 151.605 57.3672C151.605 57.9297 151.48 58.4453 151.23 58.9141C150.98 59.3828 150.621 59.793 150.152 60.1445C149.684 60.4883 149.121 60.7578 148.465 60.9531C147.816 61.1406 147.086 61.2344 146.273 61.2344C145.094 61.2344 144.094 61.0234 143.273 60.6016C142.461 60.1797 141.844 59.6445 141.422 58.9961C141.008 58.3398 140.801 57.668 140.801 56.9805H144C144.016 57.4414 144.133 57.8125 144.352 58.0938C144.578 58.375 144.863 58.5781 145.207 58.7031C145.559 58.8281 145.938 58.8906 146.344 58.8906C146.781 58.8906 147.145 58.832 147.434 58.7148C147.723 58.5898 147.941 58.4258 148.09 58.2227C148.246 58.0117 148.324 57.7695 148.324 57.4961ZM160.652 57.4961C160.652 57.2539 160.582 57.0352 160.441 56.8398C160.301 56.6445 160.039 56.4648 159.656 56.3008C159.281 56.1289 158.738 55.9727 158.027 55.832C157.387 55.6914 156.789 55.5156 156.234 55.3047C155.688 55.0859 155.211 54.8242 154.805 54.5195C154.406 54.2148 154.094 53.8555 153.867 53.4414C153.641 53.0195 153.527 52.5391 153.527 52C153.527 51.4688 153.641 50.9688 153.867 50.5C154.102 50.0312 154.434 49.6172 154.863 49.2578C155.301 48.8906 155.832 48.6055 156.457 48.4023C157.09 48.1914 157.801 48.0859 158.59 48.0859C159.691 48.0859 160.637 48.2617 161.426 48.6133C162.223 48.9648 162.832 49.4492 163.254 50.0664C163.684 50.6758 163.898 51.3711 163.898 52.1523H160.523C160.523 51.8242 160.453 51.5312 160.312 51.2734C160.18 51.0078 159.969 50.8008 159.68 50.6523C159.398 50.4961 159.031 50.418 158.578 50.418C158.203 50.418 157.879 50.4844 157.605 50.6172C157.332 50.7422 157.121 50.9141 156.973 51.1328C156.832 51.3438 156.762 51.5781 156.762 51.8359C156.762 52.0312 156.801 52.207 156.879 52.3633C156.965 52.5117 157.102 52.6484 157.289 52.7734C157.477 52.8984 157.719 53.0156 158.016 53.125C158.32 53.2266 158.695 53.3203 159.141 53.4062C160.055 53.5938 160.871 53.8398 161.59 54.1445C162.309 54.4414 162.879 54.8477 163.301 55.3633C163.723 55.8711 163.934 56.5391 163.934 57.3672C163.934 57.9297 163.809 58.4453 163.559 58.9141C163.309 59.3828 162.949 59.793 162.48 60.1445C162.012 60.4883 161.449 60.7578 160.793 60.9531C160.145 61.1406 159.414 61.2344 158.602 61.2344C157.422 61.2344 156.422 61.0234 155.602 60.6016C154.789 60.1797 154.172 59.6445 153.75 58.9961C153.336 58.3398 153.129 57.668 153.129 56.9805H156.328C156.344 57.4414 156.461 57.8125 156.68 58.0938C156.906 58.375 157.191 58.5781 157.535 58.7031C157.887 58.8281 158.266 58.8906 158.672 58.8906C159.109 58.8906 159.473 58.832 159.762 58.7148C160.051 58.5898 160.27 58.4258 160.418 58.2227C160.574 58.0117 160.652 57.7695 160.652 57.4961ZM173.016 53.5117H168.633L168.609 51.0977H172.289C172.938 51.0977 173.469 51.0156 173.883 50.8516C174.297 50.6797 174.605 50.4336 174.809 50.1133C175.02 49.7852 175.125 49.3867 175.125 48.918C175.125 48.3867 175.023 47.957 174.82 47.6289C174.625 47.3008 174.316 47.0625 173.895 46.9141C173.48 46.7656 172.945 46.6914 172.289 46.6914H169.852V61H166.336V43.9375H172.289C173.281 43.9375 174.168 44.0312 174.949 44.2188C175.738 44.4062 176.406 44.6914 176.953 45.0742C177.5 45.457 177.918 45.9414 178.207 46.5273C178.496 47.1055 178.641 47.793 178.641 48.5898C178.641 49.293 178.48 49.9414 178.16 50.5352C177.848 51.1289 177.352 51.6133 176.672 51.9883C176 52.3633 175.121 52.5703 174.035 52.6094L173.016 53.5117ZM172.863 61H167.672L169.043 58.2578H172.863C173.48 58.2578 173.984 58.1602 174.375 57.9648C174.766 57.7617 175.055 57.4883 175.242 57.1445C175.43 56.8008 175.523 56.4062 175.523 55.9609C175.523 55.4609 175.438 55.0273 175.266 54.6602C175.102 54.293 174.836 54.0117 174.469 53.8164C174.102 53.6133 173.617 53.5117 173.016 53.5117H169.629L169.652 51.0977H173.871L174.68 52.0469C175.719 52.0312 176.555 52.2148 177.188 52.5977C177.828 52.9727 178.293 53.4609 178.582 54.0625C178.879 54.6641 179.027 55.3086 179.027 55.9961C179.027 57.0898 178.789 58.0117 178.312 58.7617C177.836 59.5039 177.137 60.0625 176.215 60.4375C175.301 60.8125 174.184 61 172.863 61ZM180.914 54.7891V54.543C180.914 53.6133 181.047 52.7578 181.312 51.9766C181.578 51.1875 181.965 50.5039 182.473 49.9258C182.98 49.3477 183.605 48.8984 184.348 48.5781C185.09 48.25 185.941 48.0859 186.902 48.0859C187.863 48.0859 188.719 48.25 189.469 48.5781C190.219 48.8984 190.848 49.3477 191.355 49.9258C191.871 50.5039 192.262 51.1875 192.527 51.9766C192.793 52.7578 192.926 53.6133 192.926 54.543V54.7891C192.926 55.7109 192.793 56.5664 192.527 57.3555C192.262 58.1367 191.871 58.8203 191.355 59.4062C190.848 59.9844 190.223 60.4336 189.48 60.7539C188.738 61.0742 187.887 61.2344 186.926 61.2344C185.965 61.2344 185.109 61.0742 184.359 60.7539C183.617 60.4336 182.988 59.9844 182.473 59.4062C181.965 58.8203 181.578 58.1367 181.312 57.3555C181.047 56.5664 180.914 55.7109 180.914 54.7891ZM184.289 54.543V54.7891C184.289 55.3203 184.336 55.8164 184.43 56.2773C184.523 56.7383 184.672 57.1445 184.875 57.4961C185.086 57.8398 185.359 58.1094 185.695 58.3047C186.031 58.5 186.441 58.5977 186.926 58.5977C187.395 58.5977 187.797 58.5 188.133 58.3047C188.469 58.1094 188.738 57.8398 188.941 57.4961C189.145 57.1445 189.293 56.7383 189.387 56.2773C189.488 55.8164 189.539 55.3203 189.539 54.7891V54.543C189.539 54.0273 189.488 53.543 189.387 53.0898C189.293 52.6289 189.141 52.2227 188.93 51.8711C188.727 51.5117 188.457 51.2305 188.121 51.0273C187.785 50.8242 187.379 50.7227 186.902 50.7227C186.426 50.7227 186.02 50.8242 185.684 51.0273C185.355 51.2305 185.086 51.5117 184.875 51.8711C184.672 52.2227 184.523 52.6289 184.43 53.0898C184.336 53.543 184.289 54.0273 184.289 54.543ZM201.855 57.4961C201.855 57.2539 201.785 57.0352 201.645 56.8398C201.504 56.6445 201.242 56.4648 200.859 56.3008C200.484 56.1289 199.941 55.9727 199.23 55.832C198.59 55.6914 197.992 55.5156 197.438 55.3047C196.891 55.0859 196.414 54.8242 196.008 54.5195C195.609 54.2148 195.297 53.8555 195.07 53.4414C194.844 53.0195 194.73 52.5391 194.73 52C194.73 51.4688 194.844 50.9688 195.07 50.5C195.305 50.0312 195.637 49.6172 196.066 49.2578C196.504 48.8906 197.035 48.6055 197.66 48.4023C198.293 48.1914 199.004 48.0859 199.793 48.0859C200.895 48.0859 201.84 48.2617 202.629 48.6133C203.426 48.9648 204.035 49.4492 204.457 50.0664C204.887 50.6758 205.102 51.3711 205.102 52.1523H201.727C201.727 51.8242 201.656 51.5312 201.516 51.2734C201.383 51.0078 201.172 50.8008 200.883 50.6523C200.602 50.4961 200.234 50.418 199.781 50.418C199.406 50.418 199.082 50.4844 198.809 50.6172C198.535 50.7422 198.324 50.9141 198.176 51.1328C198.035 51.3438 197.965 51.5781 197.965 51.8359C197.965 52.0312 198.004 52.207 198.082 52.3633C198.168 52.5117 198.305 52.6484 198.492 52.7734C198.68 52.8984 198.922 53.0156 199.219 53.125C199.523 53.2266 199.898 53.3203 200.344 53.4062C201.258 53.5938 202.074 53.8398 202.793 54.1445C203.512 54.4414 204.082 54.8477 204.504 55.3633C204.926 55.8711 205.137 56.5391 205.137 57.3672C205.137 57.9297 205.012 58.4453 204.762 58.9141C204.512 59.3828 204.152 59.793 203.684 60.1445C203.215 60.4883 202.652 60.7578 201.996 60.9531C201.348 61.1406 200.617 61.2344 199.805 61.2344C198.625 61.2344 197.625 61.0234 196.805 60.6016C195.992 60.1797 195.375 59.6445 194.953 58.9961C194.539 58.3398 194.332 57.668 194.332 56.9805H197.531C197.547 57.4414 197.664 57.8125 197.883 58.0938C198.109 58.375 198.395 58.5781 198.738 58.7031C199.09 58.8281 199.469 58.8906 199.875 58.8906C200.312 58.8906 200.676 58.832 200.965 58.7148C201.254 58.5898 201.473 58.4258 201.621 58.2227C201.777 58.0117 201.855 57.7695 201.855 57.4961ZM214.184 57.4961C214.184 57.2539 214.113 57.0352 213.973 56.8398C213.832 56.6445 213.57 56.4648 213.188 56.3008C212.812 56.1289 212.27 55.9727 211.559 55.832C210.918 55.6914 210.32 55.5156 209.766 55.3047C209.219 55.0859 208.742 54.8242 208.336 54.5195C207.938 54.2148 207.625 53.8555 207.398 53.4414C207.172 53.0195 207.059 52.5391 207.059 52C207.059 51.4688 207.172 50.9688 207.398 50.5C207.633 50.0312 207.965 49.6172 208.395 49.2578C208.832 48.8906 209.363 48.6055 209.988 48.4023C210.621 48.1914 211.332 48.0859 212.121 48.0859C213.223 48.0859 214.168 48.2617 214.957 48.6133C215.754 48.9648 216.363 49.4492 216.785 50.0664C217.215 50.6758 217.43 51.3711 217.43 52.1523H214.055C214.055 51.8242 213.984 51.5312 213.844 51.2734C213.711 51.0078 213.5 50.8008 213.211 50.6523C212.93 50.4961 212.562 50.418 212.109 50.418C211.734 50.418 211.41 50.4844 211.137 50.6172C210.863 50.7422 210.652 50.9141 210.504 51.1328C210.363 51.3438 210.293 51.5781 210.293 51.8359C210.293 52.0312 210.332 52.207 210.41 52.3633C210.496 52.5117 210.633 52.6484 210.82 52.7734C211.008 52.8984 211.25 53.0156 211.547 53.125C211.852 53.2266 212.227 53.3203 212.672 53.4062C213.586 53.5938 214.402 53.8398 215.121 54.1445C215.84 54.4414 216.41 54.8477 216.832 55.3633C217.254 55.8711 217.465 56.5391 217.465 57.3672C217.465 57.9297 217.34 58.4453 217.09 58.9141C216.84 59.3828 216.48 59.793 216.012 60.1445C215.543 60.4883 214.98 60.7578 214.324 60.9531C213.676 61.1406 212.945 61.2344 212.133 61.2344C210.953 61.2344 209.953 61.0234 209.133 60.6016C208.32 60.1797 207.703 59.6445 207.281 58.9961C206.867 58.3398 206.66 57.668 206.66 56.9805H209.859C209.875 57.4414 209.992 57.8125 210.211 58.0938C210.438 58.375 210.723 58.5781 211.066 58.7031C211.418 58.8281 211.797 58.8906 212.203 58.8906C212.641 58.8906 213.004 58.832 213.293 58.7148C213.582 58.5898 213.801 58.4258 213.949 58.2227C214.105 58.0117 214.184 57.7695 214.184 57.4961Z" fill="#888888"/>
<path d="M104.344 84.875V119H96.1406V84.875H104.344ZM117.727 99.0078V119H109.828V93.6406H117.234L117.727 99.0078ZM116.766 105.453L114.961 105.5C114.961 103.719 115.172 102.078 115.594 100.578C116.016 99.0781 116.641 97.7734 117.469 96.6641C118.297 95.5547 119.312 94.6953 120.516 94.0859C121.734 93.4766 123.141 93.1719 124.734 93.1719C125.844 93.1719 126.852 93.3438 127.758 93.6875C128.664 94.0156 129.445 94.5391 130.102 95.2578C130.758 95.9609 131.258 96.8828 131.602 98.0234C131.961 99.1484 132.141 100.5 132.141 102.078V119H124.242V103.086C124.242 102.008 124.117 101.195 123.867 100.648C123.633 100.102 123.289 99.7344 122.836 99.5469C122.383 99.3594 121.828 99.2656 121.172 99.2656C120.484 99.2656 119.867 99.4219 119.32 99.7344C118.773 100.047 118.305 100.484 117.914 101.047C117.539 101.594 117.25 102.242 117.047 102.992C116.859 103.742 116.766 104.562 116.766 105.453ZM131.25 105.453L129.047 105.5C129.047 103.719 129.242 102.078 129.633 100.578C130.039 99.0781 130.641 97.7734 131.438 96.6641C132.25 95.5547 133.258 94.6953 134.461 94.0859C135.664 93.4766 137.062 93.1719 138.656 93.1719C139.812 93.1719 140.875 93.3438 141.844 93.6875C142.812 94.0312 143.648 94.5859 144.352 95.3516C145.055 96.1172 145.602 97.1328 145.992 98.3984C146.383 99.6484 146.578 101.195 146.578 103.039V119H138.656V103.039C138.656 101.992 138.531 101.203 138.281 100.672C138.047 100.125 137.703 99.7578 137.25 99.5703C136.797 99.3672 136.258 99.2656 135.633 99.2656C134.883 99.2656 134.234 99.4219 133.688 99.7344C133.141 100.047 132.68 100.484 132.305 101.047C131.945 101.594 131.68 102.242 131.508 102.992C131.336 103.742 131.25 104.562 131.25 105.453ZM159.07 98.5156V128.75H151.172V93.6406H158.531L159.07 98.5156ZM174.633 106.016V106.508C174.633 108.352 174.422 110.062 174 111.641C173.578 113.219 172.953 114.594 172.125 115.766C171.297 116.938 170.266 117.852 169.031 118.508C167.812 119.148 166.398 119.469 164.789 119.469C163.273 119.469 161.969 119.133 160.875 118.461C159.781 117.789 158.867 116.859 158.133 115.672C157.398 114.484 156.805 113.125 156.352 111.594C155.898 110.062 155.539 108.445 155.273 106.742V106.109C155.539 104.281 155.898 102.586 156.352 101.023C156.805 99.4453 157.398 98.0703 158.133 96.8984C158.867 95.7266 159.773 94.8125 160.852 94.1562C161.945 93.5 163.25 93.1719 164.766 93.1719C166.375 93.1719 167.789 93.4766 169.008 94.0859C170.242 94.6953 171.273 95.5703 172.102 96.7109C172.945 97.8359 173.578 99.1875 174 100.766C174.422 102.344 174.633 104.094 174.633 106.016ZM166.734 106.508V106.016C166.734 105.031 166.664 104.133 166.523 103.32C166.383 102.492 166.156 101.773 165.844 101.164C165.547 100.555 165.148 100.086 164.648 99.7578C164.148 99.4297 163.531 99.2656 162.797 99.2656C161.953 99.2656 161.242 99.3984 160.664 99.6641C160.102 99.9141 159.648 100.305 159.305 100.836C158.977 101.352 158.742 102 158.602 102.781C158.477 103.547 158.422 104.445 158.438 105.477V107.398C158.406 108.586 158.523 109.633 158.789 110.539C159.055 111.43 159.516 112.125 160.172 112.625C160.828 113.125 161.719 113.375 162.844 113.375C163.594 113.375 164.219 113.203 164.719 112.859C165.219 112.5 165.617 112.008 165.914 111.383C166.211 110.742 166.422 110.008 166.547 109.18C166.672 108.352 166.734 107.461 166.734 106.508ZM186.492 83V119H178.57V83H186.492ZM203.648 119.469C201.586 119.469 199.742 119.148 198.117 118.508C196.492 117.852 195.117 116.953 193.992 115.812C192.883 114.672 192.031 113.359 191.438 111.875C190.859 110.391 190.57 108.82 190.57 107.164V106.273C190.57 104.414 190.828 102.695 191.344 101.117C191.859 99.5234 192.625 98.1328 193.641 96.9453C194.656 95.7578 195.93 94.8359 197.461 94.1797C198.992 93.5078 200.773 93.1719 202.805 93.1719C204.602 93.1719 206.211 93.4609 207.633 94.0391C209.055 94.6172 210.258 95.4453 211.242 96.5234C212.242 97.6016 213 98.9062 213.516 100.438C214.047 101.969 214.312 103.688 214.312 105.594V108.805H193.594V103.859H206.602V103.25C206.617 102.406 206.469 101.688 206.156 101.094C205.859 100.5 205.422 100.047 204.844 99.7344C204.266 99.4219 203.562 99.2656 202.734 99.2656C201.875 99.2656 201.164 99.4531 200.602 99.8281C200.055 100.203 199.625 100.719 199.312 101.375C199.016 102.016 198.805 102.758 198.68 103.602C198.555 104.445 198.492 105.336 198.492 106.273V107.164C198.492 108.102 198.617 108.953 198.867 109.719C199.133 110.484 199.508 111.141 199.992 111.688C200.492 112.219 201.086 112.633 201.773 112.93C202.477 113.227 203.273 113.375 204.164 113.375C205.242 113.375 206.305 113.172 207.352 112.766C208.398 112.359 209.297 111.688 210.047 110.75L213.633 115.016C213.117 115.75 212.383 116.461 211.43 117.148C210.492 117.836 209.367 118.398 208.055 118.836C206.742 119.258 205.273 119.469 203.648 119.469ZM225.492 99.0078V119H217.594V93.6406H225L225.492 99.0078ZM224.531 105.453L222.727 105.5C222.727 103.719 222.938 102.078 223.359 100.578C223.781 99.0781 224.406 97.7734 225.234 96.6641C226.062 95.5547 227.078 94.6953 228.281 94.0859C229.5 93.4766 230.906 93.1719 232.5 93.1719C233.609 93.1719 234.617 93.3438 235.523 93.6875C236.43 94.0156 237.211 94.5391 237.867 95.2578C238.523 95.9609 239.023 96.8828 239.367 98.0234C239.727 99.1484 239.906 100.5 239.906 102.078V119H232.008V103.086C232.008 102.008 231.883 101.195 231.633 100.648C231.398 100.102 231.055 99.7344 230.602 99.5469C230.148 99.3594 229.594 99.2656 228.938 99.2656C228.25 99.2656 227.633 99.4219 227.086 99.7344C226.539 100.047 226.07 100.484 225.68 101.047C225.305 101.594 225.016 102.242 224.812 102.992C224.625 103.742 224.531 104.562 224.531 105.453ZM239.016 105.453L236.812 105.5C236.812 103.719 237.008 102.078 237.398 100.578C237.805 99.0781 238.406 97.7734 239.203 96.6641C240.016 95.5547 241.023 94.6953 242.227 94.0859C243.43 93.4766 244.828 93.1719 246.422 93.1719C247.578 93.1719 248.641 93.3438 249.609 93.6875C250.578 94.0312 251.414 94.5859 252.117 95.3516C252.82 96.1172 253.367 97.1328 253.758 98.3984C254.148 99.6484 254.344 101.195 254.344 103.039V119H246.422V103.039C246.422 101.992 246.297 101.203 246.047 100.672C245.812 100.125 245.469 99.7578 245.016 99.5703C244.562 99.3672 244.023 99.2656 243.398 99.2656C242.648 99.2656 242 99.4219 241.453 99.7344C240.906 100.047 240.445 100.484 240.07 101.047C239.711 101.594 239.445 102.242 239.273 102.992C239.102 103.742 239.016 104.562 239.016 105.453ZM271.148 119.469C269.086 119.469 267.242 119.148 265.617 118.508C263.992 117.852 262.617 116.953 261.492 115.812C260.383 114.672 259.531 113.359 258.938 111.875C258.359 110.391 258.07 108.82 258.07 107.164V106.273C258.07 104.414 258.328 102.695 258.844 101.117C259.359 99.5234 260.125 98.1328 261.141 96.9453C262.156 95.7578 263.43 94.8359 264.961 94.1797C266.492 93.5078 268.273 93.1719 270.305 93.1719C272.102 93.1719 273.711 93.4609 275.133 94.0391C276.555 94.6172 277.758 95.4453 278.742 96.5234C279.742 97.6016 280.5 98.9062 281.016 100.438C281.547 101.969 281.812 103.688 281.812 105.594V108.805H261.094V103.859H274.102V103.25C274.117 102.406 273.969 101.688 273.656 101.094C273.359 100.5 272.922 100.047 272.344 99.7344C271.766 99.4219 271.062 99.2656 270.234 99.2656C269.375 99.2656 268.664 99.4531 268.102 99.8281C267.555 100.203 267.125 100.719 266.812 101.375C266.516 102.016 266.305 102.758 266.18 103.602C266.055 104.445 265.992 105.336 265.992 106.273V107.164C265.992 108.102 266.117 108.953 266.367 109.719C266.633 110.484 267.008 111.141 267.492 111.688C267.992 112.219 268.586 112.633 269.273 112.93C269.977 113.227 270.773 113.375 271.664 113.375C272.742 113.375 273.805 113.172 274.852 112.766C275.898 112.359 276.797 111.688 277.547 110.75L281.133 115.016C280.617 115.75 279.883 116.461 278.93 117.148C277.992 117.836 276.867 118.398 275.555 118.836C274.242 119.258 272.773 119.469 271.148 119.469ZM292.781 99.0547V119H284.883V93.6406H292.289L292.781 99.0547ZM291.844 105.453L289.992 105.5C289.992 103.562 290.227 101.836 290.695 100.32C291.164 98.7891 291.828 97.4922 292.688 96.4297C293.547 95.3672 294.57 94.5625 295.758 94.0156C296.961 93.4531 298.297 93.1719 299.766 93.1719C300.938 93.1719 302.008 93.3438 302.977 93.6875C303.961 94.0312 304.805 94.5859 305.508 95.3516C306.227 96.1172 306.773 97.1328 307.148 98.3984C307.539 99.6484 307.734 101.195 307.734 103.039V119H299.789V103.016C299.789 102 299.648 101.227 299.367 100.695C299.086 100.148 298.68 99.7734 298.148 99.5703C297.617 99.3672 296.969 99.2656 296.203 99.2656C295.391 99.2656 294.703 99.4219 294.141 99.7344C293.578 100.047 293.125 100.484 292.781 101.047C292.453 101.594 292.211 102.242 292.055 102.992C291.914 103.742 291.844 104.562 291.844 105.453ZM325.477 93.6406V99.125H310.195V93.6406H325.477ZM313.406 87.3359H321.305V110.727C321.305 111.398 321.383 111.922 321.539 112.297C321.695 112.656 321.961 112.914 322.336 113.07C322.727 113.211 323.242 113.281 323.883 113.281C324.336 113.281 324.711 113.273 325.008 113.258C325.305 113.227 325.586 113.188 325.852 113.141V118.789C325.18 119.008 324.477 119.172 323.742 119.281C323.008 119.406 322.227 119.469 321.398 119.469C319.711 119.469 318.266 119.203 317.062 118.672C315.875 118.141 314.969 117.305 314.344 116.164C313.719 115.023 313.406 113.539 313.406 111.711V87.3359ZM341.789 112.625V102.172C341.789 101.453 341.688 100.836 341.484 100.32C341.281 99.8047 340.961 99.4062 340.523 99.125C340.086 98.8281 339.5 98.6797 338.766 98.6797C338.172 98.6797 337.664 98.7812 337.242 98.9844C336.82 99.1875 336.5 99.4922 336.281 99.8984C336.062 100.305 335.953 100.82 335.953 101.445H328.055C328.055 100.273 328.312 99.1875 328.828 98.1875C329.359 97.1719 330.109 96.2891 331.078 95.5391C332.062 94.7891 333.234 94.2109 334.594 93.8047C335.969 93.3828 337.5 93.1719 339.188 93.1719C341.203 93.1719 343 93.5078 344.578 94.1797C346.172 94.8516 347.43 95.8594 348.352 97.2031C349.273 98.5312 349.734 100.203 349.734 102.219V112.602C349.734 114.258 349.828 115.516 350.016 116.375C350.203 117.219 350.469 117.961 350.812 118.602V119H342.891C342.516 118.219 342.234 117.266 342.047 116.141C341.875 115 341.789 113.828 341.789 112.625ZM342.75 103.508L342.797 107.727H339.305C338.57 107.727 337.945 107.828 337.43 108.031C336.93 108.234 336.523 108.516 336.211 108.875C335.914 109.219 335.695 109.609 335.555 110.047C335.43 110.484 335.367 110.945 335.367 111.43C335.367 111.898 335.477 112.32 335.695 112.695C335.93 113.055 336.242 113.336 336.633 113.539C337.023 113.742 337.461 113.844 337.945 113.844C338.82 113.844 339.562 113.68 340.172 113.352C340.797 113.008 341.273 112.594 341.602 112.109C341.93 111.625 342.094 111.172 342.094 110.75L343.828 113.984C343.516 114.609 343.156 115.242 342.75 115.883C342.359 116.523 341.867 117.117 341.273 117.664C340.695 118.195 339.984 118.633 339.141 118.977C338.297 119.305 337.273 119.469 336.07 119.469C334.508 119.469 333.07 119.148 331.758 118.508C330.461 117.867 329.422 116.977 328.641 115.836C327.859 114.68 327.469 113.352 327.469 111.852C327.469 110.539 327.703 109.367 328.172 108.336C328.656 107.305 329.383 106.43 330.352 105.711C331.32 104.992 332.555 104.445 334.055 104.07C335.555 103.695 337.32 103.508 339.352 103.508H342.75ZM367.477 93.6406V99.125H352.195V93.6406H367.477ZM355.406 87.3359H363.305V110.727C363.305 111.398 363.383 111.922 363.539 112.297C363.695 112.656 363.961 112.914 364.336 113.07C364.727 113.211 365.242 113.281 365.883 113.281C366.336 113.281 366.711 113.273 367.008 113.258C367.305 113.227 367.586 113.188 367.852 113.141V118.789C367.18 119.008 366.477 119.172 365.742 119.281C365.008 119.406 364.227 119.469 363.398 119.469C361.711 119.469 360.266 119.203 359.062 118.672C357.875 118.141 356.969 117.305 356.344 116.164C355.719 115.023 355.406 113.539 355.406 111.711V87.3359ZM378.961 93.6406V119H371.039V93.6406H378.961ZM370.57 87.1016C370.57 85.9766 370.977 85.0547 371.789 84.3359C372.602 83.6172 373.656 83.2578 374.953 83.2578C376.25 83.2578 377.305 83.6172 378.117 84.3359C378.93 85.0547 379.336 85.9766 379.336 87.1016C379.336 88.2266 378.93 89.1484 378.117 89.8672C377.305 90.5859 376.25 90.9453 374.953 90.9453C373.656 90.9453 372.602 90.5859 371.789 89.8672C370.977 89.1484 370.57 88.2266 370.57 87.1016ZM382.852 106.578V106.086C382.852 104.227 383.117 102.516 383.648 100.953C384.18 99.375 384.961 98.0078 385.992 96.8516C387.023 95.6953 388.297 94.7969 389.812 94.1562C391.328 93.5 393.078 93.1719 395.062 93.1719C397.062 93.1719 398.82 93.5 400.336 94.1562C401.867 94.7969 403.148 95.6953 404.18 96.8516C405.211 98.0078 405.992 99.375 406.523 100.953C407.055 102.516 407.32 104.227 407.32 106.086V106.578C407.32 108.422 407.055 110.133 406.523 111.711C405.992 113.273 405.211 114.641 404.18 115.812C403.148 116.969 401.875 117.867 400.359 118.508C398.844 119.148 397.094 119.469 395.109 119.469C393.125 119.469 391.367 119.148 389.836 118.508C388.305 117.867 387.023 116.969 385.992 115.812C384.961 114.641 384.18 113.273 383.648 111.711C383.117 110.133 382.852 108.422 382.852 106.578ZM390.75 106.086V106.578C390.75 107.531 390.82 108.422 390.961 109.25C391.102 110.078 391.336 110.805 391.664 111.43C391.992 112.039 392.438 112.516 393 112.859C393.562 113.203 394.266 113.375 395.109 113.375C395.938 113.375 396.625 113.203 397.172 112.859C397.734 112.516 398.18 112.039 398.508 111.43C398.836 110.805 399.07 110.078 399.211 109.25C399.352 108.422 399.422 107.531 399.422 106.578V106.086C399.422 105.164 399.352 104.297 399.211 103.484C399.07 102.656 398.836 101.93 398.508 101.305C398.18 100.664 397.734 100.164 397.172 99.8047C396.609 99.4453 395.906 99.2656 395.062 99.2656C394.234 99.2656 393.539 99.4453 392.977 99.8047C392.43 100.164 391.992 100.664 391.664 101.305C391.336 101.93 391.102 102.656 390.961 103.484C390.82 104.297 390.75 105.164 390.75 106.086ZM418.594 99.0547V119H410.695V93.6406H418.102L418.594 99.0547ZM417.656 105.453L415.805 105.5C415.805 103.562 416.039 101.836 416.508 100.32C416.977 98.7891 417.641 97.4922 418.5 96.4297C419.359 95.3672 420.383 94.5625 421.57 94.0156C422.773 93.4531 424.109 93.1719 425.578 93.1719C426.75 93.1719 427.82 93.3438 428.789 93.6875C429.773 94.0312 430.617 94.5859 431.32 95.3516C432.039 96.1172 432.586 97.1328 432.961 98.3984C433.352 99.6484 433.547 101.195 433.547 103.039V119H425.602V103.016C425.602 102 425.461 101.227 425.18 100.695C424.898 100.148 424.492 99.7734 423.961 99.5703C423.43 99.3672 422.781 99.2656 422.016 99.2656C421.203 99.2656 420.516 99.4219 419.953 99.7344C419.391 100.047 418.938 100.484 418.594 101.047C418.266 101.594 418.023 102.242 417.867 102.992C417.727 103.742 417.656 104.562 417.656 105.453Z" fill="black"/>
<path d="M1134 0H1348C1356.28 0 1363 6.71573 1363 15V148C1363 156.284 1356.28 163 1348 163H1134V0Z" fill="#146C94"/>
<path d="M1281 46.5H1216L1213.5 49V114L1216 116.5H1281L1283.5 114V49L1281 46.5ZM1278.5 111.5H1233.5V101.5H1245C1246.5 104.5 1250 106.5 1253.5 106.5C1259 106.5 1263.5 102 1263.5 96.5C1263.5 91 1259 86.5 1253.5 86.5C1248 86.5 1243.5 91 1243.5 96.5H1228.5V111.5H1218.5V51.5H1228.5V63C1225.5 64.5 1223.5 68 1223.5 71.5C1223.5 77 1228 81.5 1233.5 81.5C1239 81.5 1243.5 77 1243.5 71.5H1253.5C1253.5 77 1258 81.5 1263.5 81.5C1269 81.5 1273.5 77 1273.5 71.5C1273.5 66 1269 61.5 1263.5 61.5C1260 61.5 1256.5 63.5 1255 66.5H1242C1240.5 63.5 1237 61.5 1233.5 61.5V51.5H1278.5V111.5ZM1248.5 96.5C1248.5 93.5 1250.5 91.5 1253.5 91.5C1256.5 91.5 1258.5 93.5 1258.5 96.5C1258.5 99.5 1256.5 101.5 1253.5 101.5C1250.5 101.5 1248.5 99.5 1248.5 96.5ZM1233.5 66.5C1236.5 66.5 1238.5 68.5 1238.5 71.5C1238.5 74.5 1236.5 76.5 1233.5 76.5C1230.5 76.5 1228.5 74.5 1228.5 71.5C1228.5 68.5 1230.5 66.5 1233.5 66.5ZM1263.5 66.5C1266.5 66.5 1268.5 68.5 1268.5 71.5C1268.5 74.5 1266.5 76.5 1263.5 76.5C1260.5 76.5 1258.5 74.5 1258.5 71.5C1258.5 68.5 1260.5 66.5 1263.5 66.5Z" fill="white"/>
</svg>
