<svg width="1363" height="163" viewBox="0 0 1363 163" fill="none" xmlns="http://www.w3.org/2000/svg">
<path d="M0 15C0 6.71573 6.71573 0 15 0H37V163H15C6.71573 163 0 156.284 0 148V15Z" fill="#146C94"/>
<rect width="1097" height="163" transform="translate(37)" fill="#F0F0F0"/>
<path d="M101.906 53.9219L94.3945 51.2383V48.0859L104.602 52.375V54.6367L101.906 53.9219ZM94.3945 56.1719L101.918 53.4297L104.602 52.7852V55.0352L94.3945 59.3242V56.1719ZM119.578 53.5117H115.195L115.172 51.0977H118.852C119.5 51.0977 120.031 51.0156 120.445 50.8516C120.859 50.6797 121.168 50.4336 121.371 50.1133C121.582 49.7852 121.688 49.3867 121.688 48.918C121.688 48.3867 121.586 47.957 121.383 47.6289C121.188 47.3008 120.879 47.0625 120.457 46.9141C120.043 46.7656 119.508 46.6914 118.852 46.6914H116.414V61H112.898V43.9375H118.852C119.844 43.9375 120.73 44.0312 121.512 44.2188C122.301 44.4062 122.969 44.6914 123.516 45.0742C124.062 45.457 124.48 45.9414 124.77 46.5273C125.059 47.1055 125.203 47.793 125.203 48.5898C125.203 49.293 125.043 49.9414 124.723 50.5352C124.41 51.1289 123.914 51.6133 123.234 51.9883C122.562 52.3633 121.684 52.5703 120.598 52.6094L119.578 53.5117ZM119.426 61H114.234L115.605 58.2578H119.426C120.043 58.2578 120.547 58.1602 120.938 57.9648C121.328 57.7617 121.617 57.4883 121.805 57.1445C121.992 56.8008 122.086 56.4062 122.086 55.9609C122.086 55.4609 122 55.0273 121.828 54.6602C121.664 54.293 121.398 54.0117 121.031 53.8164C120.664 53.6133 120.18 53.5117 119.578 53.5117H116.191L116.215 51.0977H120.434L121.242 52.0469C122.281 52.0312 123.117 52.2148 123.75 52.5977C124.391 52.9727 124.855 53.4609 125.145 54.0625C125.441 54.6641 125.59 55.3086 125.59 55.9961C125.59 57.0898 125.352 58.0117 124.875 58.7617C124.398 59.5039 123.699 60.0625 122.777 60.4375C121.863 60.8125 120.746 61 119.426 61ZM135.516 57.9648V48.3203H138.891V61H135.715L135.516 57.9648ZM135.891 55.3633L136.887 55.3398C136.887 56.1836 136.789 56.9688 136.594 57.6953C136.398 58.4141 136.105 59.0391 135.715 59.5703C135.324 60.0938 134.832 60.5039 134.238 60.8008C133.645 61.0898 132.945 61.2344 132.141 61.2344C131.523 61.2344 130.953 61.1484 130.43 60.9766C129.914 60.7969 129.469 60.5195 129.094 60.1445C128.727 59.7617 128.438 59.2734 128.227 58.6797C128.023 58.0781 127.922 57.3555 127.922 56.5117V48.3203H131.297V56.5352C131.297 56.9102 131.34 57.2266 131.426 57.4844C131.52 57.7422 131.648 57.9531 131.812 58.1172C131.977 58.2812 132.168 58.3984 132.387 58.4688C132.613 58.5391 132.863 58.5742 133.137 58.5742C133.832 58.5742 134.379 58.4336 134.777 58.1523C135.184 57.8711 135.469 57.4883 135.633 57.0039C135.805 56.5117 135.891 55.9648 135.891 55.3633ZM148.324 57.4961C148.324 57.2539 148.254 57.0352 148.113 56.8398C147.973 56.6445 147.711 56.4648 147.328 56.3008C146.953 56.1289 146.41 55.9727 145.699 55.832C145.059 55.6914 144.461 55.5156 143.906 55.3047C143.359 55.0859 142.883 54.8242 142.477 54.5195C142.078 54.2148 141.766 53.8555 141.539 53.4414C141.312 53.0195 141.199 52.5391 141.199 52C141.199 51.4688 141.312 50.9688 141.539 50.5C141.773 50.0312 142.105 49.6172 142.535 49.2578C142.973 48.8906 143.504 48.6055 144.129 48.4023C144.762 48.1914 145.473 48.0859 146.262 48.0859C147.363 48.0859 148.309 48.2617 149.098 48.6133C149.895 48.9648 150.504 49.4492 150.926 50.0664C151.355 50.6758 151.57 51.3711 151.57 52.1523H148.195C148.195 51.8242 148.125 51.5312 147.984 51.2734C147.852 51.0078 147.641 50.8008 147.352 50.6523C147.07 50.4961 146.703 50.418 146.25 50.418C145.875 50.418 145.551 50.4844 145.277 50.6172C145.004 50.7422 144.793 50.9141 144.645 51.1328C144.504 51.3438 144.434 51.5781 144.434 51.8359C144.434 52.0312 144.473 52.207 144.551 52.3633C144.637 52.5117 144.773 52.6484 144.961 52.7734C145.148 52.8984 145.391 53.0156 145.688 53.125C145.992 53.2266 146.367 53.3203 146.812 53.4062C147.727 53.5938 148.543 53.8398 149.262 54.1445C149.98 54.4414 150.551 54.8477 150.973 55.3633C151.395 55.8711 151.605 56.5391 151.605 57.3672C151.605 57.9297 151.48 58.4453 151.23 58.9141C150.98 59.3828 150.621 59.793 150.152 60.1445C149.684 60.4883 149.121 60.7578 148.465 60.9531C147.816 61.1406 147.086 61.2344 146.273 61.2344C145.094 61.2344 144.094 61.0234 143.273 60.6016C142.461 60.1797 141.844 59.6445 141.422 58.9961C141.008 58.3398 140.801 57.668 140.801 56.9805H144C144.016 57.4414 144.133 57.8125 144.352 58.0938C144.578 58.375 144.863 58.5781 145.207 58.7031C145.559 58.8281 145.938 58.8906 146.344 58.8906C146.781 58.8906 147.145 58.832 147.434 58.7148C147.723 58.5898 147.941 58.4258 148.09 58.2227C148.246 58.0117 148.324 57.7695 148.324 57.4961ZM160.652 57.4961C160.652 57.2539 160.582 57.0352 160.441 56.8398C160.301 56.6445 160.039 56.4648 159.656 56.3008C159.281 56.1289 158.738 55.9727 158.027 55.832C157.387 55.6914 156.789 55.5156 156.234 55.3047C155.688 55.0859 155.211 54.8242 154.805 54.5195C154.406 54.2148 154.094 53.8555 153.867 53.4414C153.641 53.0195 153.527 52.5391 153.527 52C153.527 51.4688 153.641 50.9688 153.867 50.5C154.102 50.0312 154.434 49.6172 154.863 49.2578C155.301 48.8906 155.832 48.6055 156.457 48.4023C157.09 48.1914 157.801 48.0859 158.59 48.0859C159.691 48.0859 160.637 48.2617 161.426 48.6133C162.223 48.9648 162.832 49.4492 163.254 50.0664C163.684 50.6758 163.898 51.3711 163.898 52.1523H160.523C160.523 51.8242 160.453 51.5312 160.312 51.2734C160.18 51.0078 159.969 50.8008 159.68 50.6523C159.398 50.4961 159.031 50.418 158.578 50.418C158.203 50.418 157.879 50.4844 157.605 50.6172C157.332 50.7422 157.121 50.9141 156.973 51.1328C156.832 51.3438 156.762 51.5781 156.762 51.8359C156.762 52.0312 156.801 52.207 156.879 52.3633C156.965 52.5117 157.102 52.6484 157.289 52.7734C157.477 52.8984 157.719 53.0156 158.016 53.125C158.32 53.2266 158.695 53.3203 159.141 53.4062C160.055 53.5938 160.871 53.8398 161.59 54.1445C162.309 54.4414 162.879 54.8477 163.301 55.3633C163.723 55.8711 163.934 56.5391 163.934 57.3672C163.934 57.9297 163.809 58.4453 163.559 58.9141C163.309 59.3828 162.949 59.793 162.48 60.1445C162.012 60.4883 161.449 60.7578 160.793 60.9531C160.145 61.1406 159.414 61.2344 158.602 61.2344C157.422 61.2344 156.422 61.0234 155.602 60.6016C154.789 60.1797 154.172 59.6445 153.75 58.9961C153.336 58.3398 153.129 57.668 153.129 56.9805H156.328C156.344 57.4414 156.461 57.8125 156.68 58.0938C156.906 58.375 157.191 58.5781 157.535 58.7031C157.887 58.8281 158.266 58.8906 158.672 58.8906C159.109 58.8906 159.473 58.832 159.762 58.7148C160.051 58.5898 160.27 58.4258 160.418 58.2227C160.574 58.0117 160.652 57.7695 160.652 57.4961ZM173.016 53.5117H168.633L168.609 51.0977H172.289C172.938 51.0977 173.469 51.0156 173.883 50.8516C174.297 50.6797 174.605 50.4336 174.809 50.1133C175.02 49.7852 175.125 49.3867 175.125 48.918C175.125 48.3867 175.023 47.957 174.82 47.6289C174.625 47.3008 174.316 47.0625 173.895 46.9141C173.48 46.7656 172.945 46.6914 172.289 46.6914H169.852V61H166.336V43.9375H172.289C173.281 43.9375 174.168 44.0312 174.949 44.2188C175.738 44.4062 176.406 44.6914 176.953 45.0742C177.5 45.457 177.918 45.9414 178.207 46.5273C178.496 47.1055 178.641 47.793 178.641 48.5898C178.641 49.293 178.48 49.9414 178.16 50.5352C177.848 51.1289 177.352 51.6133 176.672 51.9883C176 52.3633 175.121 52.5703 174.035 52.6094L173.016 53.5117ZM172.863 61H167.672L169.043 58.2578H172.863C173.48 58.2578 173.984 58.1602 174.375 57.9648C174.766 57.7617 175.055 57.4883 175.242 57.1445C175.43 56.8008 175.523 56.4062 175.523 55.9609C175.523 55.4609 175.438 55.0273 175.266 54.6602C175.102 54.293 174.836 54.0117 174.469 53.8164C174.102 53.6133 173.617 53.5117 173.016 53.5117H169.629L169.652 51.0977H173.871L174.68 52.0469C175.719 52.0312 176.555 52.2148 177.188 52.5977C177.828 52.9727 178.293 53.4609 178.582 54.0625C178.879 54.6641 179.027 55.3086 179.027 55.9961C179.027 57.0898 178.789 58.0117 178.312 58.7617C177.836 59.5039 177.137 60.0625 176.215 60.4375C175.301 60.8125 174.184 61 172.863 61ZM180.914 54.7891V54.543C180.914 53.6133 181.047 52.7578 181.312 51.9766C181.578 51.1875 181.965 50.5039 182.473 49.9258C182.98 49.3477 183.605 48.8984 184.348 48.5781C185.09 48.25 185.941 48.0859 186.902 48.0859C187.863 48.0859 188.719 48.25 189.469 48.5781C190.219 48.8984 190.848 49.3477 191.355 49.9258C191.871 50.5039 192.262 51.1875 192.527 51.9766C192.793 52.7578 192.926 53.6133 192.926 54.543V54.7891C192.926 55.7109 192.793 56.5664 192.527 57.3555C192.262 58.1367 191.871 58.8203 191.355 59.4062C190.848 59.9844 190.223 60.4336 189.48 60.7539C188.738 61.0742 187.887 61.2344 186.926 61.2344C185.965 61.2344 185.109 61.0742 184.359 60.7539C183.617 60.4336 182.988 59.9844 182.473 59.4062C181.965 58.8203 181.578 58.1367 181.312 57.3555C181.047 56.5664 180.914 55.7109 180.914 54.7891ZM184.289 54.543V54.7891C184.289 55.3203 184.336 55.8164 184.43 56.2773C184.523 56.7383 184.672 57.1445 184.875 57.4961C185.086 57.8398 185.359 58.1094 185.695 58.3047C186.031 58.5 186.441 58.5977 186.926 58.5977C187.395 58.5977 187.797 58.5 188.133 58.3047C188.469 58.1094 188.738 57.8398 188.941 57.4961C189.145 57.1445 189.293 56.7383 189.387 56.2773C189.488 55.8164 189.539 55.3203 189.539 54.7891V54.543C189.539 54.0273 189.488 53.543 189.387 53.0898C189.293 52.6289 189.141 52.2227 188.93 51.8711C188.727 51.5117 188.457 51.2305 188.121 51.0273C187.785 50.8242 187.379 50.7227 186.902 50.7227C186.426 50.7227 186.02 50.8242 185.684 51.0273C185.355 51.2305 185.086 51.5117 184.875 51.8711C184.672 52.2227 184.523 52.6289 184.43 53.0898C184.336 53.543 184.289 54.0273 184.289 54.543ZM201.855 57.4961C201.855 57.2539 201.785 57.0352 201.645 56.8398C201.504 56.6445 201.242 56.4648 200.859 56.3008C200.484 56.1289 199.941 55.9727 199.23 55.832C198.59 55.6914 197.992 55.5156 197.438 55.3047C196.891 55.0859 196.414 54.8242 196.008 54.5195C195.609 54.2148 195.297 53.8555 195.07 53.4414C194.844 53.0195 194.73 52.5391 194.73 52C194.73 51.4688 194.844 50.9688 195.07 50.5C195.305 50.0312 195.637 49.6172 196.066 49.2578C196.504 48.8906 197.035 48.6055 197.66 48.4023C198.293 48.1914 199.004 48.0859 199.793 48.0859C200.895 48.0859 201.84 48.2617 202.629 48.6133C203.426 48.9648 204.035 49.4492 204.457 50.0664C204.887 50.6758 205.102 51.3711 205.102 52.1523H201.727C201.727 51.8242 201.656 51.5312 201.516 51.2734C201.383 51.0078 201.172 50.8008 200.883 50.6523C200.602 50.4961 200.234 50.418 199.781 50.418C199.406 50.418 199.082 50.4844 198.809 50.6172C198.535 50.7422 198.324 50.9141 198.176 51.1328C198.035 51.3438 197.965 51.5781 197.965 51.8359C197.965 52.0312 198.004 52.207 198.082 52.3633C198.168 52.5117 198.305 52.6484 198.492 52.7734C198.68 52.8984 198.922 53.0156 199.219 53.125C199.523 53.2266 199.898 53.3203 200.344 53.4062C201.258 53.5938 202.074 53.8398 202.793 54.1445C203.512 54.4414 204.082 54.8477 204.504 55.3633C204.926 55.8711 205.137 56.5391 205.137 57.3672C205.137 57.9297 205.012 58.4453 204.762 58.9141C204.512 59.3828 204.152 59.793 203.684 60.1445C203.215 60.4883 202.652 60.7578 201.996 60.9531C201.348 61.1406 200.617 61.2344 199.805 61.2344C198.625 61.2344 197.625 61.0234 196.805 60.6016C195.992 60.1797 195.375 59.6445 194.953 58.9961C194.539 58.3398 194.332 57.668 194.332 56.9805H197.531C197.547 57.4414 197.664 57.8125 197.883 58.0938C198.109 58.375 198.395 58.5781 198.738 58.7031C199.09 58.8281 199.469 58.8906 199.875 58.8906C200.312 58.8906 200.676 58.832 200.965 58.7148C201.254 58.5898 201.473 58.4258 201.621 58.2227C201.777 58.0117 201.855 57.7695 201.855 57.4961ZM214.184 57.4961C214.184 57.2539 214.113 57.0352 213.973 56.8398C213.832 56.6445 213.57 56.4648 213.188 56.3008C212.812 56.1289 212.27 55.9727 211.559 55.832C210.918 55.6914 210.32 55.5156 209.766 55.3047C209.219 55.0859 208.742 54.8242 208.336 54.5195C207.938 54.2148 207.625 53.8555 207.398 53.4414C207.172 53.0195 207.059 52.5391 207.059 52C207.059 51.4688 207.172 50.9688 207.398 50.5C207.633 50.0312 207.965 49.6172 208.395 49.2578C208.832 48.8906 209.363 48.6055 209.988 48.4023C210.621 48.1914 211.332 48.0859 212.121 48.0859C213.223 48.0859 214.168 48.2617 214.957 48.6133C215.754 48.9648 216.363 49.4492 216.785 50.0664C217.215 50.6758 217.43 51.3711 217.43 52.1523H214.055C214.055 51.8242 213.984 51.5312 213.844 51.2734C213.711 51.0078 213.5 50.8008 213.211 50.6523C212.93 50.4961 212.562 50.418 212.109 50.418C211.734 50.418 211.41 50.4844 211.137 50.6172C210.863 50.7422 210.652 50.9141 210.504 51.1328C210.363 51.3438 210.293 51.5781 210.293 51.8359C210.293 52.0312 210.332 52.207 210.41 52.3633C210.496 52.5117 210.633 52.6484 210.82 52.7734C211.008 52.8984 211.25 53.0156 211.547 53.125C211.852 53.2266 212.227 53.3203 212.672 53.4062C213.586 53.5938 214.402 53.8398 215.121 54.1445C215.84 54.4414 216.41 54.8477 216.832 55.3633C217.254 55.8711 217.465 56.5391 217.465 57.3672C217.465 57.9297 217.34 58.4453 217.09 58.9141C216.84 59.3828 216.48 59.793 216.012 60.1445C215.543 60.4883 214.98 60.7578 214.324 60.9531C213.676 61.1406 212.945 61.2344 212.133 61.2344C210.953 61.2344 209.953 61.0234 209.133 60.6016C208.32 60.1797 207.703 59.6445 207.281 58.9961C206.867 58.3398 206.66 57.668 206.66 56.9805H209.859C209.875 57.4414 209.992 57.8125 210.211 58.0938C210.438 58.375 210.723 58.5781 211.066 58.7031C211.418 58.8281 211.797 58.8906 212.203 58.8906C212.641 58.8906 213.004 58.832 213.293 58.7148C213.582 58.5898 213.801 58.4258 213.949 58.2227C214.105 58.0117 214.184 57.7695 214.184 57.4961Z" fill="#888888"/>
<path d="M118.594 98.4219V104.75H101.086V98.4219H118.594ZM103.828 84.875V119H95.6016V84.875H103.828ZM124.125 84.875V119H115.922V84.875H124.125ZM127.992 106.578V106.086C127.992 104.227 128.258 102.516 128.789 100.953C129.32 99.375 130.102 98.0078 131.133 96.8516C132.164 95.6953 133.438 94.7969 134.953 94.1562C136.469 93.5 138.219 93.1719 140.203 93.1719C142.203 93.1719 143.961 93.5 145.477 94.1562C147.008 94.7969 148.289 95.6953 149.32 96.8516C150.352 98.0078 151.133 99.375 151.664 100.953C152.195 102.516 152.461 104.227 152.461 106.086V106.578C152.461 108.422 152.195 110.133 151.664 111.711C151.133 113.273 150.352 114.641 149.32 115.812C148.289 116.969 147.016 117.867 145.5 118.508C143.984 119.148 142.234 119.469 140.25 119.469C138.266 119.469 136.508 119.148 134.977 118.508C133.445 117.867 132.164 116.969 131.133 115.812C130.102 114.641 129.32 113.273 128.789 111.711C128.258 110.133 127.992 108.422 127.992 106.578ZM135.891 106.086V106.578C135.891 107.531 135.961 108.422 136.102 109.25C136.242 110.078 136.477 110.805 136.805 111.43C137.133 112.039 137.578 112.516 138.141 112.859C138.703 113.203 139.406 113.375 140.25 113.375C141.078 113.375 141.766 113.203 142.312 112.859C142.875 112.516 143.32 112.039 143.648 111.43C143.977 110.805 144.211 110.078 144.352 109.25C144.492 108.422 144.562 107.531 144.562 106.578V106.086C144.562 105.164 144.492 104.297 144.352 103.484C144.211 102.656 143.977 101.93 143.648 101.305C143.32 100.664 142.875 100.164 142.312 99.8047C141.75 99.4453 141.047 99.2656 140.203 99.2656C139.375 99.2656 138.68 99.4453 138.117 99.8047C137.57 100.164 137.133 100.664 136.805 101.305C136.477 101.93 136.242 102.656 136.102 103.484C135.961 104.297 135.891 105.164 135.891 106.086ZM163.688 111.453L168.375 93.6406H173.32L171.562 102.57L166.922 119H162.961L163.688 111.453ZM161.836 93.6406L164.742 111.312L165.07 119H160.266L154.266 93.6406H161.836ZM177.492 110.938L180.422 93.6406H187.992L182.039 119H177.234L177.492 110.938ZM173.883 93.6406L178.617 111.406L179.344 119H175.336L170.789 102.617L169.102 93.6406H173.883ZM218.297 84.875V119H210.07V84.875H218.297ZM228.562 84.875V91.2266H200.039V84.875H228.562ZM225.773 106.578V106.086C225.773 104.227 226.039 102.516 226.57 100.953C227.102 99.375 227.883 98.0078 228.914 96.8516C229.945 95.6953 231.219 94.7969 232.734 94.1562C234.25 93.5 236 93.1719 237.984 93.1719C239.984 93.1719 241.742 93.5 243.258 94.1562C244.789 94.7969 246.07 95.6953 247.102 96.8516C248.133 98.0078 248.914 99.375 249.445 100.953C249.977 102.516 250.242 104.227 250.242 106.086V106.578C250.242 108.422 249.977 110.133 249.445 111.711C248.914 113.273 248.133 114.641 247.102 115.812C246.07 116.969 244.797 117.867 243.281 118.508C241.766 119.148 240.016 119.469 238.031 119.469C236.047 119.469 234.289 119.148 232.758 118.508C231.227 117.867 229.945 116.969 228.914 115.812C227.883 114.641 227.102 113.273 226.57 111.711C226.039 110.133 225.773 108.422 225.773 106.578ZM233.672 106.086V106.578C233.672 107.531 233.742 108.422 233.883 109.25C234.023 110.078 234.258 110.805 234.586 111.43C234.914 112.039 235.359 112.516 235.922 112.859C236.484 113.203 237.188 113.375 238.031 113.375C238.859 113.375 239.547 113.203 240.094 112.859C240.656 112.516 241.102 112.039 241.43 111.43C241.758 110.805 241.992 110.078 242.133 109.25C242.273 108.422 242.344 107.531 242.344 106.578V106.086C242.344 105.164 242.273 104.297 242.133 103.484C241.992 102.656 241.758 101.93 241.43 101.305C241.102 100.664 240.656 100.164 240.094 99.8047C239.531 99.4453 238.828 99.2656 237.984 99.2656C237.156 99.2656 236.461 99.4453 235.898 99.8047C235.352 100.164 234.914 100.664 234.586 101.305C234.258 101.93 234.023 102.656 233.883 103.484C233.742 104.297 233.672 105.164 233.672 106.086ZM266.086 84.875H279.516C282.141 84.875 284.422 85.2656 286.359 86.0469C288.297 86.8281 289.789 87.9844 290.836 89.5156C291.898 91.0469 292.43 92.9375 292.43 95.1875C292.43 97.1406 292.125 98.7734 291.516 100.086C290.906 101.398 290.055 102.484 288.961 103.344C287.883 104.188 286.625 104.883 285.188 105.43L282.492 106.953H271.219L271.172 100.602H279.516C280.562 100.602 281.43 100.414 282.117 100.039C282.805 99.6641 283.32 99.1328 283.664 98.4453C284.023 97.7422 284.203 96.9062 284.203 95.9375C284.203 94.9531 284.023 94.1094 283.664 93.4062C283.305 92.7031 282.773 92.1641 282.07 91.7891C281.383 91.4141 280.531 91.2266 279.516 91.2266H274.312V119H266.086V84.875ZM284.766 119L277.219 103.906L285.938 103.859L293.578 118.648V119H284.766ZM311.836 112.836V93.6406H319.758V119H312.352L311.836 112.836ZM312.586 107.68L314.648 107.633C314.648 109.336 314.445 110.914 314.039 112.367C313.633 113.805 313.031 115.055 312.234 116.117C311.453 117.18 310.484 118.008 309.328 118.602C308.188 119.18 306.867 119.469 305.367 119.469C304.117 119.469 302.969 119.297 301.922 118.953C300.891 118.594 300 118.039 299.25 117.289C298.5 116.523 297.914 115.547 297.492 114.359C297.086 113.156 296.883 111.719 296.883 110.047V93.6406H304.781V110.094C304.781 110.656 304.852 111.141 304.992 111.547C305.133 111.953 305.336 112.297 305.602 112.578C305.867 112.844 306.195 113.047 306.586 113.188C306.992 113.312 307.453 113.375 307.969 113.375C309.156 113.375 310.086 113.125 310.758 112.625C311.43 112.125 311.898 111.445 312.164 110.586C312.445 109.727 312.586 108.758 312.586 107.68ZM331.875 99.0547V119H323.977V93.6406H331.383L331.875 99.0547ZM330.938 105.453L329.086 105.5C329.086 103.562 329.32 101.836 329.789 100.32C330.258 98.7891 330.922 97.4922 331.781 96.4297C332.641 95.3672 333.664 94.5625 334.852 94.0156C336.055 93.4531 337.391 93.1719 338.859 93.1719C340.031 93.1719 341.102 93.3438 342.07 93.6875C343.055 94.0312 343.898 94.5859 344.602 95.3516C345.32 96.1172 345.867 97.1328 346.242 98.3984C346.633 99.6484 346.828 101.195 346.828 103.039V119H338.883V103.016C338.883 102 338.742 101.227 338.461 100.695C338.18 100.148 337.773 99.7734 337.242 99.5703C336.711 99.3672 336.062 99.2656 335.297 99.2656C334.484 99.2656 333.797 99.4219 333.234 99.7344C332.672 100.047 332.219 100.484 331.875 101.047C331.547 101.594 331.305 102.242 331.148 102.992C331.008 103.742 330.938 104.562 330.938 105.453ZM363.773 108.195H357.047C357.047 106.82 357.141 105.609 357.328 104.562C357.531 103.5 357.875 102.547 358.359 101.703C358.844 100.859 359.5 100.078 360.328 99.3594C361.062 98.75 361.695 98.1641 362.227 97.6016C362.758 97.0391 363.164 96.4688 363.445 95.8906C363.727 95.3125 363.867 94.6953 363.867 94.0391C363.867 93.2266 363.75 92.5625 363.516 92.0469C363.297 91.5312 362.961 91.1484 362.508 90.8984C362.07 90.6328 361.516 90.5 360.844 90.5C360.297 90.5 359.781 90.6328 359.297 90.8984C358.828 91.1641 358.445 91.5781 358.148 92.1406C357.852 92.6875 357.688 93.4141 357.656 94.3203H349.711C349.758 91.9922 350.273 90.1016 351.258 88.6484C352.258 87.1797 353.586 86.1094 355.242 85.4375C356.914 84.75 358.781 84.4062 360.844 84.4062C363.125 84.4062 365.086 84.7578 366.727 85.4609C368.367 86.1641 369.625 87.2109 370.5 88.6016C371.375 89.9766 371.812 91.6719 371.812 93.6875C371.812 95.0312 371.555 96.2031 371.039 97.2031C370.539 98.1875 369.859 99.1094 369 99.9688C368.156 100.812 367.211 101.719 366.164 102.688C365.258 103.484 364.641 104.297 364.312 105.125C363.984 105.938 363.805 106.961 363.773 108.195ZM356.086 115.32C356.086 114.195 356.492 113.258 357.305 112.508C358.117 111.742 359.172 111.359 360.469 111.359C361.766 111.359 362.82 111.742 363.633 112.508C364.445 113.258 364.852 114.195 364.852 115.32C364.852 116.445 364.445 117.391 363.633 118.156C362.82 118.906 361.766 119.281 360.469 119.281C359.172 119.281 358.117 118.906 357.305 118.156C356.492 117.391 356.086 116.445 356.086 115.32Z" fill="black"/>
<path d="M1134 0H1348C1356.28 0 1363 6.71573 1363 15V148C1363 156.284 1356.28 163 1348 163H1134V0Z" fill="#146C94"/>
<path d="M1260.62 78.8078C1263.81 78.8078 1266.93 79.7552 1269.59 81.5302C1272.25 83.3052 1274.32 85.8281 1275.54 88.7798C1276.76 91.7315 1277.08 94.9795 1276.46 98.1131C1275.84 101.247 1274.3 104.125 1272.04 106.384C1269.78 108.643 1266.9 110.182 1263.77 110.805C1260.63 111.428 1257.39 111.108 1254.43 109.886C1251.48 108.663 1248.96 106.593 1247.18 103.936C1245.41 101.28 1244.46 98.1565 1244.46 94.9616C1244.46 90.6774 1246.16 86.5686 1249.19 83.5392C1252.22 80.5097 1256.33 78.8078 1260.62 78.8078ZM1260.62 73.4232C1256.36 73.4232 1252.19 74.6864 1248.65 77.0531C1245.11 79.4198 1242.35 82.7836 1240.72 86.7192C1239.09 90.6549 1238.66 94.9855 1239.49 99.1636C1240.32 103.342 1242.37 107.179 1245.39 110.192C1248.4 113.204 1252.24 115.255 1256.41 116.086C1260.59 116.917 1264.92 116.491 1268.86 114.861C1272.79 113.23 1276.16 110.47 1278.52 106.928C1280.89 103.386 1282.15 99.2215 1282.15 94.9616C1282.15 89.2493 1279.88 83.7709 1275.85 79.7317C1271.81 75.6924 1266.33 73.4232 1260.62 73.4232Z" fill="white"/>
<path d="M1274.08 46.4999H1220.23C1218.8 46.4999 1217.43 47.0672 1216.42 48.0771C1215.41 49.0869 1214.85 50.4565 1214.85 51.8845V105.731C1214.85 107.159 1215.41 108.528 1216.42 109.538C1217.43 110.548 1218.8 111.115 1220.23 111.115H1231V105.731H1220.23V68.0383H1279.46V51.8845C1279.46 50.4565 1278.89 49.0869 1277.88 48.0771C1276.87 47.0672 1275.5 46.4999 1274.08 46.4999ZM1220.23 62.6537V51.8845H1274.08V62.6537H1220.23Z" fill="white"/>
<path d="M1255.23 86.8848V103.039L1268.69 94.9617L1255.23 86.8848Z" fill="white"/>
</svg>
